<?xml version="1.0" encoding="UTF-8"?>
<svg version="1.1" xmlns="http://www.w3.org/2000/svg" width="96" height="96">
<path d="M0 0 C3.79896114 4.47892013 5.00267266 8.00481162 4.671875 13.83984375 C4.44893566 16.21548091 4.09189306 18.43413512 3.609375 20.77734375 C4.929375 21.43734375 6.249375 22.09734375 7.609375 22.77734375 C7.609375 32.01734375 7.609375 41.25734375 7.609375 50.77734375 C5.629375 51.76734375 5.629375 51.76734375 3.609375 52.77734375 C3.66738281 53.36902344 3.72539063 53.96070312 3.78515625 54.5703125 C3.85283203 55.75560547 3.85283203 55.75560547 3.921875 56.96484375 C3.97988281 57.74214844 4.03789063 58.51945312 4.09765625 59.3203125 C3.53759962 62.13851748 2.53179889 63.72808574 0.45256042 65.70619202 C-3.70283586 68.12106568 -8.850873 67.48283206 -13.515625 67.44140625 C-15.28510498 67.4485817 -15.28510498 67.4485817 -17.09033203 67.4559021 C-19.58171931 67.45930102 -22.07315119 67.4500994 -24.56445312 67.42919922 C-28.37731399 67.40243718 -32.18723068 67.42895118 -36 67.4609375 C-38.4218815 67.45763341 -40.84376116 67.45122719 -43.265625 67.44140625 C-44.97516357 67.45658798 -44.97516357 67.45658798 -46.71923828 67.47207642 C-55.51450933 67.34186793 -55.51450933 67.34186793 -58.61791992 64.3894043 C-60.53727074 61.56126294 -60.9539249 60.32556247 -60.703125 56.96484375 C-60.65800781 56.17464844 -60.61289062 55.38445312 -60.56640625 54.5703125 C-60.50839844 53.97863281 -60.45039062 53.38695313 -60.390625 52.77734375 C-61.710625 52.11734375 -63.030625 51.45734375 -64.390625 50.77734375 C-64.44002162 46.82637397 -64.47634255 42.87552345 -64.50048828 38.92431641 C-64.51550607 36.91823015 -64.54091481 34.91223051 -64.56640625 32.90625 C-64.57607422 31.02099609 -64.57607422 31.02099609 -64.5859375 29.09765625 C-64.59641113 27.93508301 -64.60688477 26.77250977 -64.61767578 25.57470703 C-64.390625 22.77734375 -64.390625 22.77734375 -62.390625 20.77734375 C-59.88141654 20.60238769 -57.48437559 20.54564806 -54.9765625 20.58203125 C-54.24692291 20.58486115 -53.51728333 20.58769104 -52.76553345 20.59060669 C-50.43206472 20.60181373 -48.09897797 20.62691865 -45.765625 20.65234375 C-44.18490137 20.6623729 -42.60417173 20.67149886 -41.0234375 20.6796875 C-37.14568586 20.7017547 -33.26822022 20.7362876 -29.390625 20.77734375 C-28.265625 24.52734375 -28.265625 24.52734375 -29.390625 26.77734375 C-38.960625 26.77734375 -48.530625 26.77734375 -58.390625 26.77734375 C-58.390625 33.37734375 -58.390625 39.97734375 -58.390625 46.77734375 C-53.770625 46.77734375 -49.150625 46.77734375 -44.390625 46.77734375 C-43.390625 50.77734375 -43.390625 50.77734375 -44.390625 52.77734375 C-47.690625 52.77734375 -50.990625 52.77734375 -54.390625 52.77734375 C-54.060625 55.08734375 -53.730625 57.39734375 -53.390625 59.77734375 C-36.890625 59.77734375 -20.390625 59.77734375 -3.390625 59.77734375 C-3.060625 57.46734375 -2.730625 55.15734375 -2.390625 52.77734375 C-14.270625 52.77734375 -26.150625 52.77734375 -38.390625 52.77734375 C-38.390625 50.79734375 -38.390625 48.81734375 -38.390625 46.77734375 C-25.190625 46.77734375 -11.990625 46.77734375 1.609375 46.77734375 C1.609375 40.17734375 1.609375 33.57734375 1.609375 26.77734375 C-6.310625 26.77734375 -14.230625 26.77734375 -22.390625 26.77734375 C-23.390625 22.77734375 -23.390625 22.77734375 -22.390625 20.77734375 C-15.790625 20.77734375 -9.190625 20.77734375 -2.390625 20.77734375 C-2.16073061 13.23608227 -2.16073061 13.23608227 -5.68359375 6.8203125 C-8.17642129 4.36264473 -10.70623633 2.02326603 -13.390625 -0.22265625 C-13.390625 1.09734375 -13.390625 2.41734375 -13.390625 3.77734375 C-12.400625 4.10734375 -11.410625 4.43734375 -10.390625 4.77734375 C-9.640625 6.71484375 -9.640625 6.71484375 -9.390625 8.77734375 C-9.720625 9.43734375 -10.050625 10.09734375 -10.390625 10.77734375 C-13.703125 10.96484375 -13.703125 10.96484375 -17.390625 10.77734375 C-18.380625 9.78734375 -19.370625 8.79734375 -20.390625 7.77734375 C-20.390625 2.82734375 -20.390625 -2.12265625 -20.390625 -7.22265625 C-36.725625 -6.72765625 -36.725625 -6.72765625 -53.390625 -6.22265625 C-53.720625 1.03734375 -54.050625 8.29734375 -54.390625 15.77734375 C-56.370625 15.77734375 -58.350625 15.77734375 -60.390625 15.77734375 C-60.53616099 11.88190498 -60.62477559 7.98716724 -60.703125 4.08984375 C-60.74501953 2.98705078 -60.78691406 1.88425781 -60.83007812 0.74804688 C-60.84619141 -0.31865234 -60.86230469 -1.38535156 -60.87890625 -2.484375 C-60.90509033 -3.46365967 -60.93127441 -4.44294434 -60.95825195 -5.4519043 C-60.13951554 -9.44839441 -58.66311835 -10.82971051 -55.390625 -13.22265625 C-52.40532584 -13.75378885 -49.97022939 -13.99089488 -46.984375 -14 C-46.18205444 -14.01986465 -45.37973389 -14.03972931 -44.55310059 -14.06019592 C-42.86227335 -14.09726988 -41.17115333 -14.12262546 -39.47998047 -14.13696289 C-36.89817166 -14.16008865 -34.31929745 -14.22048188 -31.73828125 -14.28710938 C-30.09118629 -14.31859866 -28.44404912 -14.34796681 -26.796875 -14.375 C-26.02903687 -14.39151108 -25.26119873 -14.40802216 -24.47009277 -14.42503357 C-13.35294298 -14.48694495 -7.29802679 -7.63728382 0 0 Z " fill="#000000" transform="translate(76.390625,21.22265625)"/>
<path d="M0 0 C1.32 0 2.64 0 4 0 C4.33 0.99 4.66 1.98 5 3 C5.4125 2.505 5.825 2.01 6.25 1.5 C8 0 8 0 12 0 C11.835 0.9075 11.67 1.815 11.5 2.75 C10.78409197 7.4034022 11.16476759 11.40622172 12 16 C7.25 15.25 7.25 15.25 5 13 C4.67 13.99 4.34 14.98 4 16 C2.68 16 1.36 16 0 16 C0 10.72 0 5.44 0 0 Z " fill="#000000" transform="translate(61,50)"/>
<path d="M0 0 C1.32 0 2.64 0 4 0 C4 1.98 4 3.96 4 6 C5.32 6 6.64 6 8 6 C8 4.02 8 2.04 8 0 C9.32 0 10.64 0 12 0 C12 5.28 12 10.56 12 16 C10.68 16 9.36 16 8 16 C8 14.02 8 12.04 8 10 C6.68 10 5.36 10 4 10 C4 11.98 4 13.96 4 16 C2.68 16 1.36 16 0 16 C0 10.72 0 5.44 0 0 Z " fill="#000000" transform="translate(23,50)"/>
<path d="M0 0 C3.3 0 6.6 0 10 0 C10 1.32 10 2.64 10 4 C8.02 4 6.04 4 4 4 C4 4.66 4 5.32 4 6 C5.65 6 7.3 6 9 6 C9 7.32 9 8.64 9 10 C7.35 10 5.7 10 4 10 C4 10.66 4 11.32 4 12 C5.98 12 7.96 12 10 12 C10 13.32 10 14.64 10 16 C6.7 16 3.4 16 0 16 C0 10.72 0 5.44 0 0 Z " fill="#000000" transform="translate(39,50)"/>
<path d="M0 0 C1.32 0 2.64 0 4 0 C4 5.28 4 10.56 4 16 C2.68 16 1.36 16 0 16 C0 10.72 0 5.44 0 0 Z " fill="#000000" transform="translate(53,50)"/>
</svg>
