<?xml version="1.0" encoding="UTF-8"?>
<svg version="1.1" xmlns="http://www.w3.org/2000/svg" width="23" height="23">
<path d="M0 0 C6.27 0 12.54 0 19 0 C20.32336348 7.77476045 21.32036482 15.11546581 21 23 C19.35 23 17.7 23 16 23 C16 22.34 16 21.68 16 21 C11.71 21 7.42 21 3 21 C3 21.66 3 22.32 3 23 C1.35 23 -0.3 23 -2 23 C-2.32036482 15.11546581 -1.32336348 7.77476045 0 0 Z M2 2 C2 2.99 2 3.98 2 5 C6.95 5 11.9 5 17 5 C17 4.01 17 3.02 17 2 C12.05 2 7.1 2 2 2 Z M4 7 C8 8 8 8 8 8 Z M11 7 C15 8 15 8 15 8 Z M1 12 C6.61 12 12.22 12 18 12 C16.11826065 9.69074227 16.11826065 9.69074227 13.03125 9.734375 C11.8659375 9.73953125 10.700625 9.7446875 9.5 9.75 C8.3346875 9.74484375 7.169375 9.7396875 5.96875 9.734375 C2.88173935 9.69074227 2.88173935 9.69074227 1 12 Z M0 14 C0 14.66 0 15.32 0 16 C6.27 16 12.54 16 19 16 C19 15.34 19 14.68 19 14 C12.73 14 6.46 14 0 14 Z M0 18 C0.33 18.99 0.66 19.98 1 21 C1 20.34 1 19.68 1 19 C6.61 19 12.22 19 18 19 C18.33 19.66 18.66 20.32 19 21 C19 20.01 19 19.02 19 18 C12.73 18 6.46 18 0 18 Z " fill="#000000" transform="translate(2,0)"/>
</svg>
