<?xml version="1.0" encoding="UTF-8"?>
<svg version="1.1" xmlns="http://www.w3.org/2000/svg" width="26" height="30">
<path d="M0 0 C1.01964844 -0.02900391 2.03929687 -0.05800781 3.08984375 -0.08789062 C4.06824219 -0.09626953 5.04664062 -0.10464844 6.0546875 -0.11328125 C6.95429199 -0.12786377 7.85389648 -0.14244629 8.78076172 -0.1574707 C11.125 0.3125 11.125 0.3125 12.95922852 2.22485352 C14.125 4.3125 14.125 4.3125 13.84765625 6.140625 C13.48994141 7.21570313 13.48994141 7.21570313 13.125 8.3125 C12.9051777 10.55957241 12.72016013 12.81021238 12.5625 15.0625 C12.418125 17.125 12.27375 19.1875 12.125 21.3125 C4.205 21.3125 -3.715 21.3125 -11.875 21.3125 C-11.895625 18.033125 -11.91625 14.75375 -11.9375 11.375 C-11.946604 10.33996338 -11.95570801 9.30492676 -11.96508789 8.23852539 C-11.96883423 7.02410767 -11.96883423 7.02410767 -11.97265625 5.78515625 C-11.97789307 4.95250244 -11.98312988 4.11984863 -11.98852539 3.26196289 C-11.69052711 -1.85527633 -3.84770181 0.03620798 0 0 Z " fill="#000000" transform="translate(11.875,8.6875)"/>
<path d="M0 0 C0.99 0.33 1.98 0.66 3 1 C3 2.98 3 4.96 3 7 C2.01 7.33 1.02 7.66 0 8 C0 5.36 0 2.72 0 0 Z " fill="#000000" transform="translate(13,0)"/>
<path d="M0 0 C0.99 0.33 1.98 0.66 3 1 C3 2.98 3 4.96 3 7 C2.01 7.33 1.02 7.66 0 8 C0 5.36 0 2.72 0 0 Z " fill="#000000" transform="translate(8,0)"/>
<path d="M0 0 C0.99 0.33 1.98 0.66 3 1 C3 2.98 3 4.96 3 7 C2.01 7.33 1.02 7.66 0 8 C0 5.36 0 2.72 0 0 Z " fill="#000000" transform="translate(3,0)"/>
<path d="M0 0 C0.66 0.33 1.32 0.66 2 1 C2 2.98 2 4.96 2 7 C1.01 7.33 0.02 7.66 -1 8 C-1.04241723 5.66705225 -1.04092937 3.33297433 -1 1 C-0.67 0.67 -0.34 0.34 0 0 Z " fill="#000000" transform="translate(19,0)"/>
</svg>
