<?xml version="1.0" standalone="no"?>
<!DOCTYPE svg PUBLIC "-//W3C//DTD SVG 20010904//EN"
 "http://www.w3.org/TR/2001/REC-SVG-20010904/DTD/svg10.dtd">
<svg version="1.0" xmlns="http://www.w3.org/2000/svg"
 width="50.000000pt" height="50.000000pt" viewBox="0 0 50.000000 50.000000"
 preserveAspectRatio="xMidYMid meet">
<metadata>
Created by potrace 1.10, written by Peter Selinger 2001-2011
</metadata>
<g transform="translate(0.000000,50.000000) scale(0.100000,-0.100000)"
fill="#000000" stroke="none">
<path d="M12 368 c-16 -16 -16 -220 0 -236 17 -17 459 -17 476 0 16 16 16 220
0 236 -17 17 -459 17 -476 0z m463 -118 l0 -105 -225 0 -225 0 -3 94 c-1 52 0
101 2 108 5 11 49 13 228 11 l223 -3 0 -105z"/>
<path d="M70 250 c0 -22 5 -30 18 -30 26 0 30 6 24 35 -7 38 -42 34 -42 -5z"/>
<path d="M130 252 c0 -27 4 -32 25 -32 21 0 25 5 25 30 0 38 -20 40 -21 3 -1
-21 -2 -23 -6 -8 -9 36 -23 41 -23 7z"/>
<path d="M190 270 c0 -5 5 -10 10 -10 6 0 10 -9 10 -20 0 -11 5 -20 11 -20 6
0 9 9 6 20 -3 11 -1 20 4 20 5 0 9 5 9 10 0 6 -11 10 -25 10 -14 0 -25 -4 -25
-10z"/>
<path d="M250 270 c0 -5 5 -10 11 -10 6 0 9 -9 6 -20 -3 -11 -1 -20 4 -20 5 0
9 9 9 20 0 11 5 20 10 20 6 0 10 5 10 10 0 6 -11 10 -25 10 -14 0 -25 -4 -25
-10z"/>
<path d="M317 274 c-4 -4 -7 -18 -7 -31 0 -18 5 -23 26 -23 22 0 25 4 22 27
-3 27 -26 41 -41 27z"/>
<path d="M407 258 c-7 -23 -1 -38 14 -38 5 0 9 14 9 30 0 35 -15 40 -23 8z"/>
</g>
</svg>
