<?xml version="1.0" encoding="UTF-8"?>
<svg version="1.1" xmlns="http://www.w3.org/2000/svg" width="30" height="30">
<path d="M0 0 C0.66 0.33 1.32 0.66 2 1 C5.54171978 1.16669318 5.54171978 1.16669318 9 1 C9.33 0.67 9.66 0.34 10 0 C12.77193929 -0.29178308 14.41409825 -0.36366316 16.8125 1.125 C18.49106106 3.77535957 18.20450238 5.93246424 18 9 C16.35 9 14.7 9 13 9 C12.690625 10.918125 12.690625 10.918125 12.375 12.875 C12.20097656 13.95394531 12.20097656 13.95394531 12.0234375 15.0546875 C12.01570313 15.69664063 12.00796875 16.33859375 12 17 C12.66 17.66 13.32 18.32 14 19 C14.5818502 22.65577576 14.74204221 26.30260506 15 30 C8.4 30 1.8 30 -5 30 C-5 26.7 -5 23.4 -5 20 C-5.66 19.01 -6.32 18.02 -7 17 C-7 15.68 -7 14.36 -7 13 C-6.01 13 -5.02 13 -4 13 C-3.67 13.99 -3.34 14.98 -3 16 C-3 13.69 -3 11.38 -3 9 C-4.65 9 -6.3 9 -8 9 C-8.36190476 3.57142857 -8.36190476 3.57142857 -6.8125 1.125 C-4.40205746 -0.37113675 -2.78955536 -0.28610824 0 0 Z M-4 2 C-5.71711243 4.44496043 -5.71711243 4.44496043 -7 7 C-6.01 7 -5.02 7 -4 7 C-2.28288757 4.55503957 -2.28288757 4.55503957 -1 2 C-1.99 2 -2.98 2 -4 2 Z M11 2 C12.98 4.97 12.98 4.97 15 8 C15.66 7.34 16.32 6.68 17 6 C15.70532323 3.94009522 15.70532323 3.94009522 14 2 C13.01 2 12.02 2 11 2 Z M2 3 C-0.34075925 6.51113888 -0.70663502 8.8195491 -1 13 C-0.54910181 15.40563594 -0.54910181 15.40563594 1 17 C3.78551984 18.02624415 5.38814398 18.16996001 8.25 17.375 C10.18194078 16.0971199 10.18194078 16.0971199 10.875 13.75 C11.06458677 9.57909105 10.12457332 6.34948798 7.4375 3.125 C5.14161654 1.32822164 5.06655542 1.97781486 2 3 Z M-1 19 C-2.94158017 22.51624755 -3.18311068 24.9715651 -3 29 C-2.01 28.67 -1.02 28.34 0 28 C1.22969878 24.48809191 1.22969878 24.48809191 2 21 C2.33 22.65 2.66 24.3 3 26 C3.33 26 3.66 26 4 26 C4 24.02 4 22.04 4 20 C4.66 20 5.32 20 6 20 C6 21.98 6 23.96 6 26 C6.33 26 6.66 26 7 26 C7.33 24.35 7.66 22.7 8 21 C8.268125 22.134375 8.53625 23.26875 8.8125 24.4375 C9.204375 25.613125 9.59625 26.78875 10 28 C10.99 28.33 11.98 28.66 13 29 C13.29562367 23.67829506 13.29562367 23.67829506 11 19 C8.10391601 18.63501966 8.10391601 18.63501966 4.875 18.8125 C3.77929688 18.83957031 2.68359375 18.86664062 1.5546875 18.89453125 C0.29011719 18.94673828 0.29011719 18.94673828 -1 19 Z M2 27 C2.33 27.66 2.66 28.32 3 29 C3.33 28.34 3.66 27.68 4 27 C3.34 27 2.68 27 2 27 Z M6 27 C6.66 27.66 7.32 28.32 8 29 C8 28.34 8 27.68 8 27 C7.34 27 6.68 27 6 27 Z " fill="#000000" transform="translate(10,0)"/>
<path d="M0 0 C1.32 0 2.64 0 4 0 C4 0.99 4 1.98 4 3 C4.66 3 5.32 3 6 3 C6 3.66 6 4.32 6 5 C3.36 5 0.72 5 -2 5 C-2 4.34 -2 3.68 -2 3 C-1.34 3 -0.68 3 0 3 C0 2.01 0 1.02 0 0 Z " fill="#000000" transform="translate(13,11)"/>
<path d="M0 0 C0.66 0 1.32 0 2 0 C2 0.66 2 1.32 2 2 C1.34 2 0.68 2 0 2 C0 1.34 0 0.68 0 0 Z " fill="#000000" transform="translate(16,7)"/>
<path d="M0 0 C0.66 0 1.32 0 2 0 C2 0.66 2 1.32 2 2 C1.34 2 0.68 2 0 2 C0 1.34 0 0.68 0 0 Z " fill="#000000" transform="translate(12,7)"/>
</svg>
