<?xml version="1.0" encoding="UTF-8"?>
<svg version="1.1" xmlns="http://www.w3.org/2000/svg" width="24" height="30">
<path d="M0 0 C7.92 0 15.84 0 24 0 C24 9.9 24 19.8 24 30 C16.08 30 8.16 30 0 30 C0 20.1 0 10.2 0 0 Z M2 1 C2 1.66 2 2.32 2 3 C3.65 3 5.3 3 7 3 C7 2.34 7 1.68 7 1 C5.35 1 3.7 1 2 1 Z M9 1 C9 2.32 9 3.64 9 5 C9.66 4.67 10.32 4.34 11 4 C11 3.01 11 2.02 11 1 C10.34 1 9.68 1 9 1 Z M13 1 C13 1.33 13 1.66 13 2 C15.64 2 18.28 2 21 2 C21 2.66 21 3.32 21 4 C18.36 4 15.72 4 13 4 C13 4.33 13 4.66 13 5 C15.97 5 18.94 5 22 5 C22 3.68 22 2.36 22 1 C19.03 1 16.06 1 13 1 Z M2 7 C2 13.6 2 20.2 2 27 C8.6 27 15.2 27 22 27 C22 20.4 22 13.8 22 7 C15.4 7 8.8 7 2 7 Z M2 28 C2 28.33 2 28.66 2 29 C8.6 29 15.2 29 22 29 C22 28.67 22 28.34 22 28 C15.4 28 8.8 28 2 28 Z " fill="#000000" transform="translate(0,0)"/>
<path d="M0 0 C2.3125 1.125 2.3125 1.125 4 3 C5.19308162 6.65878362 5.32667744 8.29997692 3.6875 11.8125 C2 14 2 14 0 15 C-3.23880681 15.28163537 -5.36670091 15.30809145 -8.3125 13.875 C-10.66290584 11.26343795 -10.93021482 9.48925922 -11 6 C-8.37232694 0.369272 -6.10237696 -0.48819016 0 0 Z M-5 4 C-5.66 4.66 -6.32 5.32 -7 6 C-6.6814823 8.10820797 -6.6814823 8.10820797 -6 10 C-3.60280568 10.67958603 -3.60280568 10.67958603 -1 11 C-0.34 10.34 0.32 9.68 1 9 C0.6814823 6.89179203 0.6814823 6.89179203 0 5 C-2.39719432 4.32041397 -2.39719432 4.32041397 -5 4 Z " fill="#000000" transform="translate(15,8)"/>
</svg>
