<?xml version="1.0" encoding="UTF-8"?>
<svg version="1.1" xmlns="http://www.w3.org/2000/svg" width="30" height="30">
<path d="M0 0 C0.66 -0.33 1.32 -0.66 2 -1 C5.9086795 -1.25491388 8.70942498 -1.23289019 12 1 C14.6835017 5.02525254 14.90889709 8.27373512 14 13 C11.04361979 16.88997396 11.04361979 16.88997396 8 18 C5.29298342 18.04139169 2.83676489 17.76524959 0.171875 17.296875 C-2.04246975 16.78614041 -2.04246975 16.78614041 -4 18 C-8.05961302 18.55358359 -9.77751981 18.12772011 -13.375 16.0625 C-15.93899677 13.70092403 -16.46526636 11.89459225 -16.625 8.4375 C-16.40899408 5.19201099 -16.13231707 4.17642276 -14.125 1.5 C-9.42644396 -1.8166278 -5.41890417 -1.35472604 0 0 Z M-10.75 3.0625 C-13.30275387 4.84262134 -13.30275387 4.84262134 -13.5 8 C-13.20088363 10.92481548 -13.20088363 10.92481548 -11.875 12.875 C-9.21965017 14.4682099 -7.03210482 14.20214032 -4 14 C-2.73973202 11.47946405 -3.08125555 10.1457902 -3.4375 7.375 C-3.53933594 6.55773437 -3.64117187 5.74046875 -3.74609375 4.8984375 C-3.82988281 4.27195312 -3.91367188 3.64546875 -4 3 C-6.94590118 2.08727421 -7.74861087 1.90287238 -10.75 3.0625 Z M2 3 C1.49371901 5.32017341 1.49371901 5.32017341 1.3125 8 C1.22613281 8.9075 1.13976562 9.815 1.05078125 10.75 C1.03402344 11.4925 1.01726563 12.235 1 13 C2.1043392 14.32420249 2.1043392 14.32420249 4.875 14.1875 C8.16570758 14.25343513 8.16570758 14.25343513 11 12 C11.40439758 8.83221897 11.59788215 6.86692912 9.75 4.1875 C6.99903837 2.32077604 5.05789045 1.47105478 2 3 Z " fill="#000000" transform="translate(16,11)"/>
<path d="M0 0 C0.66 0.33 1.32 0.66 2 1 C2.25 3.25 2.25 3.25 2 6 C0 8.3125 0 8.3125 -2 10 C-4.46800047 8.84826645 -6.04783565 7.95216435 -8 6 C-8.125 3.375 -8.125 3.375 -8 1 C-5.26094655 -0.36952673 -3.02912668 -0.12621361 0 0 Z M-6 2 C-5.67 3.32 -5.34 4.64 -5 6 C-3.68 6 -2.36 6 -1 6 C-0.67 4.68 -0.34 3.36 0 2 C-1.98 2 -3.96 2 -6 2 Z " fill="#000000" transform="translate(18,1)"/>
</svg>
