<svg width="119" height="18" viewBox="0 0 119 18" fill="none" xmlns="http://www.w3.org/2000/svg">
<path d="M16.6799 7.28428C16.9078 6.61702 16.7719 5.82059 16.3395 5.26356C16.0657 4.91038 15.5499 4.49865 14.6574 4.54108C13.9319 4.58967 12.9428 5.36335 12.0044 6.26598C11.1788 7.06336 10.3987 7.96266 9.8783 8.55975C9.72877 8.73421 9.58823 8.89445 9.46541 9.0343C9.54576 9.12176 9.63581 9.2206 9.7278 9.32893C10.2587 9.9246 11.0631 10.826 11.9124 11.6286C12.8748 12.531 13.8979 13.3047 14.6526 13.3583C15.5361 13.4035 16.0531 12.993 16.3284 12.6382C16.7617 12.0795 16.9005 11.2897 16.6748 10.6186C16.4429 9.93052 15.1608 8.94873 15.1608 8.94873C15.1608 8.94873 16.4459 7.97475 16.6799 7.28428ZM12.4772 1.20933C11.9049 0.785516 11.0963 0.653488 10.4094 0.871322C9.70474 1.09982 8.6996 2.35231 8.6996 2.35231C8.6996 2.35231 7.70173 1.09722 6.9949 0.866344C6.31137 0.64614 5.49676 0.776034 4.92538 1.19772C4.56444 1.46557 4.14233 1.96926 4.18602 2.84107C4.24427 3.67164 5.32637 4.86274 6.44972 5.90474C7.12306 6.5298 7.81193 7.09891 8.30103 7.5078C8.47944 7.65381 8.64328 7.79129 8.78649 7.91075C8.87582 7.83182 8.97801 7.74791 9.08821 7.65476C9.66251 7.17121 10.5024 6.4556 11.2767 5.68738C12.2724 4.70084 13.1573 3.62945 13.2154 2.84818C13.261 1.98277 12.8411 1.47789 12.4772 1.20933ZM7.18763 17.1281C7.89252 16.9017 8.89742 15.6497 8.89742 15.6497C8.89742 15.6497 9.89529 16.9048 10.6024 17.1333C11.2854 17.3558 12.0981 17.2257 12.6712 16.8012C13.0328 16.5338 13.4544 16.0296 13.4112 15.1578C13.3557 14.3889 12.4233 13.3085 11.3917 12.3246C10.6434 11.6125 9.84164 10.95 9.29307 10.494C9.11442 10.3458 8.95373 10.2074 8.81028 10.0884C8.71804 10.1668 8.61634 10.2541 8.50857 10.3441C7.93766 10.8308 7.0949 11.5435 6.32059 12.3118C5.32515 13.2981 4.43991 14.3723 4.38239 15.1533C4.33603 16.0161 4.75595 16.5212 5.1198 16.79C5.68901 17.216 6.50094 17.349 7.18763 17.1281ZM7.83912 8.70245C7.30632 8.1037 6.50507 7.20179 5.65527 6.40227C4.69235 5.49988 3.67288 4.72644 2.91799 4.6724C2.03154 4.62784 1.51428 5.03767 1.23902 5.39322C0.805506 5.95191 0.666665 6.7417 0.89289 7.41251C1.12421 8.10086 2.40947 9.08241 2.40947 9.08241C2.40947 9.08241 1.1213 10.0566 0.887307 10.7471C0.659625 11.4144 0.795554 12.207 1.22762 12.7676C1.50142 13.1205 2.01746 13.5325 2.90974 13.4896C3.63866 13.4415 4.63968 12.6559 5.5839 11.745C6.40045 10.9531 7.17452 10.0623 7.68886 9.47139C7.83863 9.29717 7.97893 9.13669 8.10175 8.99708C8.02141 8.90653 7.93184 8.80769 7.83912 8.70245ZM17.4158 10.3809C17.7187 11.2788 17.5345 12.3483 16.9483 13.0999C16.398 13.8044 15.5648 14.1673 14.6043 14.1163C14.3293 14.0985 14.0431 14.0191 13.7474 13.8935C14.0035 14.3194 14.1613 14.7307 14.1873 15.113C14.2365 16.0602 13.8656 16.8728 13.1389 17.408C12.3714 17.9814 11.2757 18.1544 10.3533 17.856C9.73242 17.6536 9.22341 17.2772 8.89548 16.8104C8.56367 17.2762 8.05223 17.6517 7.43108 17.8517C6.51186 18.1475 5.41642 17.9686 4.64429 17.3959C3.9229 16.8588 3.5537 16.0453 3.60274 15.1059C3.63041 14.7335 3.77459 14.3372 4.00785 13.9234C3.64376 14.1127 3.28816 14.2284 2.95659 14.2514C1.98639 14.2967 1.15722 13.9338 0.605982 13.2279C0.0193013 12.4746 -0.158378 11.4049 0.147706 10.5049C0.357425 9.89876 0.739969 9.40099 1.2213 9.08123C0.741182 8.75673 0.356697 8.25777 0.151832 7.65097C-0.151096 6.75284 0.0326517 5.68358 0.619089 4.93242C1.17179 4.22749 2.00241 3.86459 2.96314 3.91555C3.25879 3.93688 3.56633 4.0215 3.88527 4.1642C3.60832 3.71834 3.43598 3.28954 3.40685 2.88682C3.36073 1.93987 3.73211 1.1304 4.45496 0.591622C5.22612 0.0187109 6.31865 -0.154324 7.24078 0.143865C7.86387 0.348662 8.37385 0.72602 8.7013 1.19274C9.03044 0.726494 9.54454 0.348662 10.1662 0.148606C11.0856 -0.147687 12.1808 0.0315108 12.9503 0.604185C13.6719 1.14486 14.0436 1.95528 13.9914 2.89417C13.9669 3.27556 13.8166 3.6778 13.5748 4.1002C13.9363 3.91413 14.2856 3.80367 14.6111 3.78139C15.5813 3.73588 16.4131 4.09806 16.9619 4.80466C17.5481 5.55701 17.7258 6.62414 17.4202 7.52771C17.2102 8.1338 16.8277 8.6311 16.3461 8.95133C16.8257 9.2718 17.21 9.77432 17.4158 10.3809Z" fill="#2AA684"/>
<path d="M72.3348 14.9668C68.844 14.9668 66.2 12.657 66.2 8.88796C66.2 5.09383 68.8785 2.75069 72.4213 2.75069C74.737 2.75069 76.6897 3.73462 77.7612 5.53579L75.9381 6.47805C75.2123 5.15223 73.9161 4.52676 72.4214 4.52676C70.0797 4.52676 68.2825 6.06938 68.2825 8.84621C68.2825 11.5646 70.0106 13.199 72.4991 13.199C74.3828 13.199 75.9468 12.2234 76.2578 10.1804H72.4991V8.5377H78.2365V14.8084H76.5862V12.8739C75.774 14.1914 74.3394 14.9668 72.3348 14.9668ZM80.8372 14.8084V2.00017H82.8418V14.8084H80.8372ZM89.5125 14.9668C86.8856 14.9668 84.9416 13.3241 84.9416 10.6057C84.9416 7.91232 86.8684 6.26125 89.5125 6.26125C92.1651 6.26125 94.092 7.91232 94.092 10.6057C94.092 13.3241 92.1565 14.9668 89.5125 14.9668ZM89.4951 13.4158C91.0072 13.4158 92.1132 12.3068 92.1132 10.6057C92.1132 8.91294 91.0072 7.80383 89.4951 7.80383C88.0089 7.80383 86.9202 8.91285 86.9202 10.6057C86.9202 12.3068 88.0089 13.4158 89.4951 13.4158ZM101.048 6.26104C103.294 6.26104 105.161 7.93712 105.161 10.6222C105.161 13.3239 103.303 15 101.048 15C99.7602 15 98.6542 14.4163 98.1444 13.4657L98.0926 14.8082H96.1917V2H98.1703L98.179 7.72869C98.7061 6.80308 99.7862 6.26104 101.048 6.26104ZM100.598 13.3741C102.033 13.3741 103.173 12.3068 103.173 10.6223C103.173 8.94624 102.033 7.87889 100.598 7.87889C99.1641 7.87889 98.0321 9.01293 98.0321 10.6223C98.0321 12.24 99.1554 13.3741 100.598 13.3741ZM109.325 14.9668C107.917 14.9668 106.647 14.3164 106.647 12.682C106.647 10.8892 108.159 10.3305 109.974 10.0136L111.287 9.78015C111.857 9.67175 112.091 9.42159 112.091 9.02133C112.091 7.98736 111.252 7.64547 110.388 7.64547C109.447 7.64547 108.678 8.04573 108.548 9.1214L106.759 8.80454C107.062 7.07005 108.358 6.26953 110.509 6.26953C112.246 6.26953 114 6.86992 114 9.22977V12.4819C114 13.274 114.216 13.4992 114.821 13.4992H114.959V14.8083H114.017C113.041 14.8083 112.453 14.4748 112.255 13.6993H112.16C111.486 14.6166 110.371 14.9668 109.325 14.9668ZM109.792 13.4575C111.157 13.4575 112.22 12.4819 112.22 10.9476L109.999 11.4229C109.083 11.5896 108.574 11.8898 108.574 12.5236C108.574 13.1824 109.109 13.4575 109.792 13.4575ZM116.886 14.8084V2.00017H118.891V14.8084H116.886Z" fill="#4A4A4A"/>
<path d="M29.2213 14.9666C25.6787 14.9666 23 12.6318 23 8.85437C23 5.09362 25.6786 2.75049 29.2213 2.75049C31.8135 2.75049 33.9391 4.01799 34.8637 6.14432L32.9369 6.85311C32.2975 5.42722 30.8977 4.60997 29.2214 4.60997C26.8884 4.60997 25.0652 6.17761 25.0652 8.85436C25.0652 11.5478 26.8884 13.1071 29.2214 13.1071C30.8977 13.1071 32.2975 12.2983 32.9369 10.8723L34.8637 11.5811C33.9392 13.7075 31.8135 14.9666 29.2213 14.9666ZM50.8407 14.8082H48.7928L47.9806 5.41891L44.4466 14.8082H43.1505L39.6338 5.43513L38.8129 14.8082H36.7565L37.7415 2.91704H40.6189L43.79 11.3225L46.9871 2.91704H49.8645L50.8407 14.8082ZM60.7511 4.69311H55.9641V7.98687H60.1981V9.74629H55.9641V13.0234H60.7511V14.8078H53.8731V2.9167H60.7511V4.69311Z" fill="#4A4A4A"/>
</svg>
