<?xml version="1.0" encoding="UTF-8"?>
<svg version="1.1" xmlns="http://www.w3.org/2000/svg" width="19" height="24">
<path d="M0 0 C3.0625 0.1875 3.0625 0.1875 5.0625 2.1875 C5.28955078 4.43408203 5.28955078 4.43408203 5.2578125 7.1953125 C5.25136719 8.18144531 5.24492187 9.16757813 5.23828125 10.18359375 C5.22152344 11.21613281 5.20476563 12.24867187 5.1875 13.3125 C5.17847656 14.35277344 5.16945313 15.39304687 5.16015625 16.46484375 C5.13653867 19.03915997 5.10066684 21.61335838 5.0625 24.1875 C-1.2075 24.1875 -7.4775 24.1875 -13.9375 24.1875 C-13.97875 21.444375 -14.02 18.70125 -14.0625 15.875 C-14.08070801 15.01479248 -14.09891602 14.15458496 -14.11767578 13.26831055 C-14.1226709 12.58551025 -14.12766602 11.90270996 -14.1328125 11.19921875 C-14.14328613 10.50272217 -14.15375977 9.80622559 -14.16455078 9.08862305 C-13.9375 7.1875 -13.9375 7.1875 -11.9375 4.1875 C-9.5 3.8125 -9.5 3.8125 -6.9375 4.1875 C-5.125 5.6875 -5.125 5.6875 -3.9375 7.1875 C-3.958125 6.218125 -3.97875 5.24875 -4 4.25 C-3.91836957 0.2501087 -3.91836957 0.2501087 0 0 Z M-1.9375 2.1875 C-1.6075 3.8375 -1.2775 5.4875 -0.9375 7.1875 C0.3825 6.8575 1.7025 6.5275 3.0625 6.1875 C2.7325 4.8675 2.4025 3.5475 2.0625 2.1875 C0.7425 2.1875 -0.5775 2.1875 -1.9375 2.1875 Z M-10.9375 6.1875 C-10.9375 7.5075 -10.9375 8.8275 -10.9375 10.1875 C-9.6175 9.8575 -8.2975 9.5275 -6.9375 9.1875 C-7.2675 8.1975 -7.5975 7.2075 -7.9375 6.1875 C-8.9275 6.1875 -9.9175 6.1875 -10.9375 6.1875 Z M-0.9375 9.1875 C-1.5975 10.5075 -2.2575 11.8275 -2.9375 13.1875 C-2.2775 13.1875 -1.6175 13.1875 -0.9375 13.1875 C-0.9375 16.1575 -0.9375 19.1275 -0.9375 22.1875 C0.3825 22.1875 1.7025 22.1875 3.0625 22.1875 C3.0625 18.2275 3.0625 14.2675 3.0625 10.1875 C1.7425 9.8575 0.4225 9.5275 -0.9375 9.1875 Z M-5.9375 10.1875 C-4.9375 12.1875 -4.9375 12.1875 -4.9375 12.1875 Z M-10.9375 12.1875 C-12.17017348 13.19586062 -12.17017348 13.19586062 -12.03515625 15.25390625 C-12.02355469 16.07761719 -12.01195312 16.90132812 -12 17.75 C-11.99097656 18.57628906 -11.98195313 19.40257812 -11.97265625 20.25390625 C-11.96105469 20.89199219 -11.94945312 21.53007812 -11.9375 22.1875 C-10.6175 22.1875 -9.2975 22.1875 -7.9375 22.1875 C-7.6075 19.2175 -7.2775 16.2475 -6.9375 13.1875 C-8.2575 12.8575 -9.5775 12.5275 -10.9375 12.1875 Z M-4.9375 14.1875 C-5.2675 15.1775 -5.5975 16.1675 -5.9375 17.1875 C-4.9475 17.1875 -3.9575 17.1875 -2.9375 17.1875 C-2.9375 16.1975 -2.9375 15.2075 -2.9375 14.1875 C-3.5975 14.1875 -4.2575 14.1875 -4.9375 14.1875 Z M-5.9375 19.1875 C-5.9375 20.5075 -5.9375 21.8275 -5.9375 23.1875 C-4.9475 23.1875 -3.9575 23.1875 -2.9375 23.1875 C-2.9375 21.8675 -2.9375 20.5475 -2.9375 19.1875 C-3.9275 19.1875 -4.9175 19.1875 -5.9375 19.1875 Z " fill="#000000" transform="translate(13.9375,-0.1875)"/>
</svg>
