<?xml version="1.0" encoding="UTF-8"?>
<svg version="1.1" xmlns="http://www.w3.org/2000/svg" width="30" height="30">
<path d="M0 0 C1.65 0 3.3 0 5 0 C5 1.65 5 3.3 5 5 C4.34 5 3.68 5 3 5 C3 6.65 3 8.3 3 10 C6.63 10 10.26 10 14 10 C14 9.34 14 8.68 14 8 C13.34 8 12.68 8 12 8 C12 6.35 12 4.7 12 3 C13.65 3 15.3 3 17 3 C17 4.65 17 6.3 17 8 C16.34 8 15.68 8 15 8 C15 8.66 15 9.32 15 10 C18.96 10 22.92 10 27 10 C26.67 7.69 26.34 5.38 26 3 C27.32 3 28.64 3 30 3 C30 5.64 30 8.28 30 11 C20.1 11 10.2 11 0 11 C0.66 10.67 1.32 10.34 2 10 C2 8.35 2 6.7 2 5 C1.34 5 0.68 5 0 5 C0 3.35 0 1.7 0 0 Z M2 1 C2 1.99 2 2.98 2 4 C2.66 3.34 3.32 2.68 4 2 C3.34 1.67 2.68 1.34 2 1 Z M14 4 C14 4.99 14 5.98 14 7 C14.66 6.34 15.32 5.68 16 5 C15.34 4.67 14.68 4.34 14 4 Z " fill="#000000" transform="translate(0,19)"/>
<path d="M0 0 C7.875 0.875 7.875 0.875 9 2 C9.07325168 4.86267567 9.09238205 7.700719 9.0625 10.5625 C9.05798828 11.36880859 9.05347656 12.17511719 9.04882812 13.00585938 C9.03700518 15.00393756 9.01906914 17.00197783 9 19 C8.67 19 8.34 19 8 19 C8 13.72 8 8.44 8 3 C5.69 2.67 3.38 2.34 1 2 C1 5.3 1 8.6 1 12 C0.67 12 0.34 12 0 12 C0 8.04 0 4.08 0 0 Z " fill="#000000" transform="translate(14,9)"/>
<path d="M0 0 C0 3.3 0 6.6 0 10 C1.32 10.33 2.64 10.66 4 11 C4 13.31 4 15.62 4 18 C3.67 18 3.34 18 3 18 C2.67 16.35 2.34 14.7 2 13 C1.01 12.67 0.02 12.34 -1 12 C-1 9.03 -1 6.06 -1 3 C-1.99 3 -2.98 3 -4 3 C-4.33 3.99 -4.66 4.98 -5 6 C-5.66 6 -6.32 6 -7 6 C-7 4.68 -7 3.36 -7 2 C-1.125 0 -1.125 0 0 0 Z " fill="#000000" transform="translate(25,3)"/>
<path d="M0 0 C1.32 0.66 2.64 1.32 4 2 C4 3.98 4 5.96 4 8 C3.34 6.68 2.68 5.36 2 4 C1.01 4 0.02 4 -1 4 C-1.33 5.65 -1.66 7.3 -2 9 C-2.66 9 -3.32 9 -4 9 C-4.33 10.32 -4.66 11.64 -5 13 C-5 11.02 -5 9.04 -5 7 C-4.34 7 -3.68 7 -3 7 C-3.061875 6.21625 -3.12375 5.4325 -3.1875 4.625 C-3.125625 3.75875 -3.06375 2.8925 -3 2 C-2.01 1.34 -1.02 0.68 0 0 Z " fill="#000000" transform="translate(11,0)"/>
<path d="M0 0 C2.31 0 4.62 0 7 0 C7 4.62 7 9.24 7 14 C6.67 14 6.34 14 6 14 C6 9.71 6 5.42 6 1 C4.35 1 2.7 1 1 1 C0.67 1.99 0.34 2.98 0 4 C0 2.68 0 1.36 0 0 Z " fill="#000000" transform="translate(2,14)"/>
<path d="" fill="#000000" transform="translate(0,0)"/>
<path d="" fill="#000000" transform="translate(0,0)"/>
<path d="" fill="#000000" transform="translate(0,0)"/>
<path d="" fill="#000000" transform="translate(0,0)"/>
<path d="" fill="#000000" transform="translate(0,0)"/>
<path d="" fill="#000000" transform="translate(0,0)"/>
<path d="" fill="#000000" transform="translate(0,0)"/>
<path d="" fill="#000000" transform="translate(0,0)"/>
<path d="" fill="#000000" transform="translate(0,0)"/>
<path d="" fill="#000000" transform="translate(0,0)"/>
<path d="" fill="#000000" transform="translate(0,0)"/>
<path d="" fill="#000000" transform="translate(0,0)"/>
<path d="" fill="#000000" transform="translate(0,0)"/>
<path d="" fill="#000000" transform="translate(0,0)"/>
<path d="" fill="#000000" transform="translate(0,0)"/>
<path d="" fill="#000000" transform="translate(0,0)"/>
<path d="" fill="#000000" transform="translate(0,0)"/>
<path d="" fill="#000000" transform="translate(0,0)"/>
<path d="" fill="#000000" transform="translate(0,0)"/>
<path d="" fill="#000000" transform="translate(0,0)"/>
<path d="" fill="#000000" transform="translate(0,0)"/>
<path d="" fill="#000000" transform="translate(0,0)"/>
<path d="" fill="#000000" transform="translate(0,0)"/>
<path d="" fill="#000000" transform="translate(0,0)"/>
<path d="" fill="#000000" transform="translate(0,0)"/>
<path d="" fill="#000000" transform="translate(0,0)"/>
<path d="" fill="#000000" transform="translate(0,0)"/>
<path d="" fill="#000000" transform="translate(0,0)"/>
<path d="" fill="#000000" transform="translate(0,0)"/>
<path d="" fill="#000000" transform="translate(0,0)"/>
<path d="" fill="#000000" transform="translate(0,0)"/>
<path d="" fill="#000000" transform="translate(0,0)"/>
<path d="" fill="#000000" transform="translate(0,0)"/>
<path d="" fill="#000000" transform="translate(0,0)"/>
<path d="" fill="#000000" transform="translate(0,0)"/>
<path d="" fill="#000000" transform="translate(0,0)"/>
<path d="" fill="#000000" transform="translate(0,0)"/>
<path d="" fill="#000000" transform="translate(0,0)"/>
<path d="" fill="#000000" transform="translate(0,0)"/>
<path d="" fill="#000000" transform="translate(0,0)"/>
<path d="" fill="#000000" transform="translate(0,0)"/>
</svg>
