<svg width="37" height="37" viewBox="0 0 37 37" fill="none" xmlns="http://www.w3.org/2000/svg">
<path d="M35.2381 8.80952V22.0238H31.7143V10.5714L22.9048 4.40476L14.0952 10.5714V13.2143H10.5714V8.80952L22.9048 0L35.2381 8.80952ZM25.5476 9.69048H23.7857V11.4524H25.5476V9.69048ZM22.0238 9.69048H20.2619V11.4524H22.0238V9.69048ZM25.5476 13.2143H23.7857V14.9762H25.5476V13.2143ZM22.0238 13.2143H20.2619V14.9762H22.0238V13.2143ZM31.7143 25.5476H28.1905C28.1905 23.4333 26.869 21.5305 24.8957 20.7905L14.0424 16.7381H0V36.119H10.5714V33.5819L22.9048 37L37 32.5952V30.8333C37 27.9086 34.639 25.5476 31.7143 25.5476ZM3.52381 32.5952V20.2619H7.04762V32.5952H3.52381ZM22.8519 33.3176L10.5714 29.9171V20.2619H13.4081L23.6624 24.0852C24.2614 24.3143 24.6667 24.8957 24.6667 25.5476C24.6667 25.5476 21.1605 25.4595 20.6143 25.2833L16.421 23.8914L15.311 27.239L19.5043 28.631C20.4029 28.9305 21.3367 29.089 22.2881 29.089H31.7143C32.4014 29.089 33.0181 29.4943 33.3 30.0757L22.8519 33.3176Z" fill="white"/>
</svg>
