<?xml version="1.0" encoding="UTF-8"?>
<svg version="1.1" xmlns="http://www.w3.org/2000/svg" width="30" height="30">
<path d="M0 0 C1.32 0.33 2.64 0.66 4 1 C3.67 2.65 3.34 4.3 3 6 C5.475 6.495 5.475 6.495 8 7 C8.45375 6.175 8.9075 5.35 9.375 4.5 C9.91125 3.675 10.4475 2.85 11 2 C11.66 2 12.32 2 13 2 C14.23921302 4.97411124 15.30058404 7.85262818 16 11 C15.030625 11.53625 14.06125 12.0725 13.0625 12.625 C10.36416811 14.79001452 10.00608538 15.96620511 9.37890625 19.44921875 C9.14730529 22.97311642 9.00955654 26.468857 9 30 C8.34 30 7.68 30 7 30 C6.67 29.34 6.34 28.68 6 28 C5.67 28.66 5.34 29.32 5 30 C4.01 30 3.02 30 2 30 C2.33 27.03 2.66 24.06 3 21 C1.02 21.33 -0.96 21.66 -3 22 C-3.33 24.64 -3.66 27.28 -4 30 C-5.98 30 -7.96 30 -10 30 C-10 26.04 -10 22.08 -10 18 C-10.66 19.32 -11.32 20.64 -12 22 C-12.66 22 -13.32 22 -14 22 C-14.02689216 20.52093108 -14.04634621 19.04172517 -14.0625 17.5625 C-14.07410156 16.73878906 -14.08570313 15.91507813 -14.09765625 15.06640625 C-14 13 -14 13 -13 12 C-11.48071962 11.92820036 -9.95832518 11.91607993 -8.4375 11.9375 C-7.61121094 11.94652344 -6.78492188 11.95554687 -5.93359375 11.96484375 C-5.29550781 11.97644531 -4.65742188 11.98804688 -4 12 C-3.71125 10.948125 -3.4225 9.89625 -3.125 8.8125 C-2.22774807 5.77181289 -1.23576581 2.91287656 0 0 Z M1 10 C1.99 10.495 1.99 10.495 3 11 C3.33 11.66 3.66 12.32 4 13 C4.66 12.34 5.32 11.68 6 11 C4.35 10.67 2.7 10.34 1 10 Z " fill="#000000" transform="translate(14,0)"/>
</svg>
