<?xml version="1.0" encoding="UTF-8"?>
<svg version="1.1" xmlns="http://www.w3.org/2000/svg" width="30" height="23">
<path d="M0 0 C0.33 0.99 0.66 1.98 1 3 C0.44570313 3.54269531 -0.10859375 4.08539063 -0.6796875 4.64453125 C-1.76636719 5.71767578 -1.76636719 5.71767578 -2.875 6.8125 C-3.59429687 7.52019531 -4.31359375 8.22789063 -5.0546875 8.95703125 C-7.15358937 11.04399194 -7.15358937 11.04399194 -9 14 C-12.25543229 13.65120368 -13.01873107 12.97866739 -15.25 10.4375 C-15.8275 9.633125 -16.405 8.82875 -17 8 C-13.48283697 8 -12.62878252 8.82445585 -10 11 C-9.52949219 10.45730469 -9.05898437 9.91460937 -8.57421875 9.35546875 C-7.95160156 8.64003906 -7.32898437 7.92460937 -6.6875 7.1875 C-6.07261719 6.47980469 -5.45773438 5.77210937 -4.82421875 5.04296875 C-3.26665665 3.29863261 -1.67341125 1.63221959 0 0 Z " fill="#2C2C37" transform="translate(23,4)"/>
</svg>
