<?xml version="1.0" encoding="UTF-8"?>
<svg version="1.1" xmlns="http://www.w3.org/2000/svg" width="20" height="20">
<path d="M0 0 C0.97839844 0.12568359 0.97839844 0.12568359 1.9765625 0.25390625 C6.88249144 0.82554104 11.13127185 1.15311982 16 0 C16 1.65 16 3.3 16 5 C13.75692972 6.20250158 11.5071209 7.3869162 9.25 8.5625 C8.61578125 8.90474609 7.9815625 9.24699219 7.328125 9.59960938 C2.59362383 12.04083654 2.59362383 12.04083654 -0.328125 11.83984375 C-2 11 -2 11 -4 9 C-3.625 6.875 -3.625 6.875 -3 5 C-1.68 5 -0.36 5 1 5 C0.34 4.67 -0.32 4.34 -1 4 C-0.67 2.68 -0.34 1.36 0 0 Z M4 4 C4.33 4.99 4.66 5.98 5 7 C6.32 6.34 7.64 5.68 9 5 C7.35 4.67 5.7 4.34 4 4 Z " fill="#000000" transform="translate(4,1)"/>
<path d="M0 0 C6.6 0 13.2 0 20 0 C20 0.66 20 1.32 20 2 C13.4 2 6.8 2 0 2 C0 1.34 0 0.68 0 0 Z " fill="#000000" transform="translate(0,17)"/>
</svg>
