<svg width="22" height="23" viewBox="0 0 22 23" fill="none" xmlns="http://www.w3.org/2000/svg">
<rect x="1.30005" y="10.2998" width="19" height="8.5" fill="black"/>
<path d="M4.47412 16.5947V12.6169H5.30782V14.1821H6.93968V12.6169H7.77243V16.5947H6.93968V14.8554H5.30782V16.5947H4.47412ZM8.63396 16.5947V12.6169H11.6922V13.2902H9.46671V14.1719H11.5375V14.8415H9.46671V15.9242H11.7709V16.5947L8.63396 16.5947ZM12.4519 16.5947V12.6169H13.2847V16.5947H12.4519ZM16.7184 15.1323L17.5252 15.3787C17.4013 15.813 17.1958 16.1353 16.9076 16.3465C16.6205 16.5567 16.2545 16.6623 15.8117 16.6623C15.2642 16.6623 14.8138 16.4817 14.4613 16.1215C14.1088 15.7603 13.932 15.2666 13.932 14.6415C13.932 13.9793 14.1097 13.4653 14.4641 13.0985C14.8186 12.7327 15.2844 12.5493 15.8626 12.5493C16.3669 12.5493 16.777 12.6929 17.092 12.9809C17.2803 13.1504 17.4205 13.3949 17.5147 13.7135L16.6896 13.9033C16.6416 13.6968 16.5398 13.5338 16.3842 13.4143C16.2295 13.2949 16.0413 13.2356 15.8204 13.2356C15.5149 13.2356 15.2662 13.3412 15.076 13.5533C14.8858 13.7644 14.7907 14.1071 14.7907 14.5813C14.7907 15.0842 14.8839 15.4426 15.0721 15.6556C15.2594 15.8695 15.5034 15.9761 15.8031 15.9761C16.0249 15.9761 16.2151 15.9084 16.3746 15.7723C16.534 15.6371 16.6483 15.4231 16.7184 15.1323Z" fill="white"/>
<path d="M3.17189 10.4438C3.17189 10.6169 3.31743 10.7572 3.49695 10.7572C3.67647 10.7572 3.82201 10.6169 3.82201 10.4438V1.62684H15.2052L18.1773 4.49274V10.4438C18.1773 10.6169 18.3229 10.7572 18.5024 10.7572C18.6819 10.7572 18.8275 10.6169 18.8275 10.4438V4.36297C18.8275 4.28276 18.7957 4.20254 18.7322 4.14135L15.571 1.09315C15.512 1.03565 15.4302 1 15.3398 1H3.49693C3.31741 1 3.17188 1.14034 3.17188 1.31343L3.17189 10.4438ZM18.8275 18.7669C18.8275 18.5938 18.6819 18.4535 18.5024 18.4535C18.3229 18.4535 18.1774 18.5938 18.1774 18.7669V21.3731H3.82201V18.7669C3.82201 18.5938 3.67647 18.4535 3.49695 18.4535C3.31743 18.4535 3.17189 18.5938 3.17189 18.7669V21.6866C3.17189 21.8597 3.31743 22 3.49695 22H18.5024C18.6819 22 18.8275 21.8597 18.8275 21.6866V18.7669Z" fill="black"/>
<path d="M15.6655 1.31343C15.6655 1.14034 15.52 1 15.3404 1C15.1609 1 15.0154 1.14034 15.0154 1.31343V2.83819C15.0154 3.34402 15.2298 3.80365 15.5751 4.13666C15.9205 4.46965 16.3971 4.67637 16.9217 4.67637H18.503C18.6826 4.67637 18.8281 4.53604 18.8281 4.36294C18.8281 4.18984 18.6826 4.04951 18.503 4.04951H16.9217C16.5766 4.04951 16.2626 3.91312 16.0348 3.69344C15.8069 3.47374 15.6655 3.17097 15.6655 2.83819V1.31343Z" fill="black"/>
<path d="M1.70285 18.454H20.2974V10.7577H1.70285V18.454ZM20.6224 19.0809H1.37779C1.19827 19.0809 1.05273 18.9405 1.05273 18.7674V10.4443C1.05273 10.2712 1.19827 10.1309 1.37779 10.1309H20.6224C20.8019 10.1309 20.9475 10.2712 20.9475 10.4443V18.7674C20.9475 18.9405 20.8019 19.0809 20.6224 19.0809Z" fill="black"/>
<path d="M6.06895 4.59326C5.88944 4.59326 5.7439 4.7336 5.7439 4.90669C5.7439 5.07979 5.88944 5.22013 6.06895 5.22013H13.0726C13.2522 5.22013 13.3977 5.07979 13.3977 4.90669C13.3977 4.7336 13.2522 4.59326 13.0726 4.59326H6.06895Z" fill="black"/>
<path d="M6.06895 6.32227C5.88944 6.32227 5.7439 6.4626 5.7439 6.6357C5.7439 6.8088 5.88944 6.94913 6.06895 6.94913H15.9301C16.1097 6.94913 16.2552 6.8088 16.2552 6.6357C16.2552 6.4626 16.1097 6.32227 15.9301 6.32227H6.06895Z" fill="black"/>
<path d="M6.06895 8.0498C5.88944 8.0498 5.7439 8.19014 5.7439 8.36324C5.7439 8.53634 5.88944 8.67667 6.06895 8.67667H15.9301C16.1097 8.67667 16.2552 8.53634 16.2552 8.36324C16.2552 8.19014 16.1097 8.0498 15.9301 8.0498H6.06895Z" fill="black"/>
</svg>
