<?xml version="1.0" encoding="UTF-8"?>
<svg version="1.1" xmlns="http://www.w3.org/2000/svg" width="30" height="16">
<path d="M0 0 C1.58941406 -0.00193359 1.58941406 -0.00193359 3.2109375 -0.00390625 C4.86996094 0.00189453 4.86996094 0.00189453 6.5625 0.0078125 C8.22152344 0.00201172 8.22152344 0.00201172 9.9140625 -0.00390625 C10.97367188 -0.00261719 12.03328125 -0.00132812 13.125 0 C14.58099609 0.00169189 14.58099609 0.00169189 16.06640625 0.00341797 C18.5625 0.1328125 18.5625 0.1328125 21.5625 1.1328125 C21.5625 2.1228125 21.5625 3.1128125 21.5625 4.1328125 C11.6625 4.1328125 1.7625 4.1328125 -8.4375 4.1328125 C-8.4375 3.1428125 -8.4375 2.1528125 -8.4375 1.1328125 C-5.35865261 0.10653004 -3.2248637 0.00374735 0 0 Z " fill="#000000" transform="translate(8.4375,5.8671875)"/>
<path d="M0 0 C1.58941406 -0.00193359 1.58941406 -0.00193359 3.2109375 -0.00390625 C4.86996094 0.00189453 4.86996094 0.00189453 6.5625 0.0078125 C8.22152344 0.00201172 8.22152344 0.00201172 9.9140625 -0.00390625 C10.97367188 -0.00261719 12.03328125 -0.00132813 13.125 0 C14.58099609 0.00169189 14.58099609 0.00169189 16.06640625 0.00341797 C18.5625 0.1328125 18.5625 0.1328125 21.5625 1.1328125 C21.5625 2.1228125 21.5625 3.1128125 21.5625 4.1328125 C11.6625 4.1328125 1.7625 4.1328125 -8.4375 4.1328125 C-8.4375 3.1428125 -8.4375 2.1528125 -8.4375 1.1328125 C-5.35865261 0.10653004 -3.2248637 0.00374735 0 0 Z " fill="#000000" transform="translate(8.4375,0.8671875)"/>
<path d="M0 0 C2.09821215 -0.39938767 2.09821215 -0.39938767 4 -1 C8 -1 8 -1 11 -0.4375 C13.88313504 0.18016113 13.88313504 0.18016113 16.1875 -0.5625 C16.785625 -0.706875 17.38375 -0.85125 18 -1 C18.99 -0.34 19.98 0.32 21 1 C21 1.66 21 2.32 21 3 C11.1 3 1.2 3 -9 3 C-9 2.34 -9 1.68 -9 1 C-5.25686988 -1.49542008 -4.26097838 -0.78262868 0 0 Z " fill="#000000" transform="translate(9,12)"/>
</svg>
