<?xml version="1.0" encoding="UTF-8"?>
<svg version="1.1" xmlns="http://www.w3.org/2000/svg" width="30" height="30">
<path d="M0 0 C8.58 0 17.16 0 26 0 C26 9.9 26 19.8 26 30 C17.42 30 8.84 30 0 30 C0 20.1 0 10.2 0 0 Z M2 1 C2.99 1.495 2.99 1.495 4 2 C4 2.66 4 3.32 4 4 C3.01 4.495 3.01 4.495 2 5 C9.26 5 16.52 5 24 5 C24 4.67 24 4.34 24 4 C20.37 4 16.74 4 13 4 C13 3.34 13 2.68 13 2 C16.63 2 20.26 2 24 2 C24 1.67 24 1.34 24 1 C16.74 1 9.48 1 2 1 Z M2 6 C2 6.33 2 6.66 2 7 C9.26 7 16.52 7 24 7 C24 6.67 24 6.34 24 6 C16.74 6 9.48 6 2 6 Z M4 8 C4.33 8.66 4.66 9.32 5 10 C8.465 9.505 8.465 9.505 12 9 C12.33 9.66 12.66 10.32 13 11 C17.455 10.505 17.455 10.505 22 10 C22 9.34 22 8.68 22 8 C16.06 8 10.12 8 4 8 Z M6 11 C7 13 7 13 7 13 Z M8 11 C9 13 9 13 9 13 Z M10 11 C11 13 11 13 11 13 Z M14 11 C15 13 15 13 15 13 Z M19 11 C20 13 20 13 20 13 Z M4 16 C4.33 16.99 4.66 17.98 5 19 C5 18.34 5 17.68 5 17 C7.97 17 10.94 17 14 17 C14.33 17.66 14.66 18.32 15 19 C17.31 18.34 19.62 17.68 22 17 C22 16.67 22 16.34 22 16 C16.06 16 10.12 16 4 16 Z M6 19 C7 23 7 23 7 23 Z M9 19 C10 23 10 23 10 23 Z M11 19 C12 23 12 23 12 23 Z M19 19 C17.515 20.98 17.515 20.98 16 23 C18.86724686 22.42655063 19.8614515 22.1385485 22 20 C21.01 19.67 20.02 19.34 19 19 Z M4 26 C4 26.33 4 26.66 4 27 C9.94 27 15.88 27 22 27 C22 26.67 22 26.34 22 26 C16.06 26 10.12 26 4 26 Z M2 28 C2 28.33 2 28.66 2 29 C9.26 29 16.52 29 24 29 C24 28.67 24 28.34 24 28 C16.74 28 9.48 28 2 28 Z " fill="#000000" transform="translate(2,0)"/>
</svg>
