<?xml version="1.0" encoding="UTF-8"?>
<svg version="1.1" xmlns="http://www.w3.org/2000/svg" width="25" height="25">
<path d="M0 0 C1.52519276 0.08937803 3.04681929 0.24537146 4.5625 0.4375 C5.38878906 0.53933594 6.21507812 0.64117187 7.06640625 0.74609375 C7.70449219 0.82988281 8.34257812 0.91367188 9 1 C9 1.66 9 2.32 9 3 C9.66 3 10.32 3 11 3 C11 3.66 11 4.32 11 5 C11.66 5 12.32 5 13 5 C13 5.66 13 6.32 13 7 C12.34 7 11.68 7 11 7 C11 7.66 11 8.32 11 9 C10.34 9 9.68 9 9 9 C9 9.66 9 10.32 9 11 C8.34 11 7.68 11 7 11 C7 10.34 7 9.68 7 9 C6.34 9 5.68 9 5 9 C5 8.34 5 7.68 5 7 C4.34 7 3.68 7 3 7 C2.67 8.65 2.34 10.3 2 12 C8.6 12 15.2 12 22 12 C21.67 14.97 21.34 17.94 21 21 C19.02 21.99 19.02 21.99 17 23 C17 23.66 17 24.32 17 25 C15.68 25 14.36 25 13 25 C13 24.34 13 23.68 13 23 C10.69 23 8.38 23 6 23 C6 23.66 6 24.32 6 25 C4.68 25 3.36 25 2 25 C2 24.34 2 23.68 2 23 C1.35546875 22.76539062 0.7109375 22.53078125 0.046875 22.2890625 C-2 21 -2 21 -2.609375 18.8359375 C-2.65578125 18.02382813 -2.7021875 17.21171875 -2.75 16.375 C-2.80671875 15.55773438 -2.8634375 14.74046875 -2.921875 13.8984375 C-2.94765625 13.27195312 -2.9734375 12.64546875 -3 12 C-2.34 12 -1.68 12 -1 12 C-1.01160156 11.21753906 -1.02320312 10.43507813 -1.03515625 9.62890625 C-1.04417969 8.61699219 -1.05320313 7.60507813 -1.0625 6.5625 C-1.07410156 5.55316406 -1.08570312 4.54382813 -1.09765625 3.50390625 C-1 1 -1 1 0 0 Z M0 17 C0.57125354 20.74275212 0.57125354 20.74275212 2 22 C4.2890608 22.12586907 6.58251118 22.17577971 8.875 22.1875 C10.75832031 22.20876953 10.75832031 22.20876953 12.6796875 22.23046875 C16.13793042 22.26609042 16.13793042 22.26609042 19 20 C19 19.01 19 18.02 19 17 C12.73 17 6.46 17 0 17 Z " fill="#7A7A7A" transform="translate(3,0)"/>
<path d="M0 0 C1.52519276 0.08937803 3.04681929 0.24537146 4.5625 0.4375 C5.38878906 0.53933594 6.21507812 0.64117187 7.06640625 0.74609375 C7.70449219 0.82988281 8.34257812 0.91367188 9 1 C9 1.66 9 2.32 9 3 C9.66 3 10.32 3 11 3 C11 3.66 11 4.32 11 5 C11.66 5 12.32 5 13 5 C13 5.66 13 6.32 13 7 C12.34 7 11.68 7 11 7 C11 7.66 11 8.32 11 9 C10.34 9 9.68 9 9 9 C9 9.66 9 10.32 9 11 C8.34 11 7.68 11 7 11 C7 10.34 7 9.68 7 9 C6.34 9 5.68 9 5 9 C5 8.34 5 7.68 5 7 C4.34 7 3.68 7 3 7 C2.67 8.65 2.34 10.3 2 12 C8.6 12 15.2 12 22 12 C21.67 12.99 21.34 13.98 21 15 C21 14.34 21 13.68 21 13 C13.41 13 5.82 13 -2 13 C-2.33 13.99 -2.66 14.98 -3 16 C-3 14.68 -3 13.36 -3 12 C-2.34 12 -1.68 12 -1 12 C-1.01160156 11.21753906 -1.02320312 10.43507813 -1.03515625 9.62890625 C-1.04417969 8.61699219 -1.05320313 7.60507813 -1.0625 6.5625 C-1.07410156 5.55316406 -1.08570312 4.54382813 -1.09765625 3.50390625 C-1 1 -1 1 0 0 Z " fill="#000000" transform="translate(3,0)"/>
<path d="M0 0 C6.93 0 13.86 0 21 0 C21 0.33 21 0.66 21 1 C14.73 1 8.46 1 2 1 C2.66 2.32 3.32 3.64 4 5 C6.64787088 5.70373017 6.64787088 5.70373017 9.625 5.75 C11.12933594 5.83507812 11.12933594 5.83507812 12.6640625 5.921875 C13.43492188 5.94765625 14.20578125 5.9734375 15 6 C15 6.33 15 6.66 15 7 C12.69 7 10.38 7 8 7 C8 7.66 8 8.32 8 9 C6.68 9 5.36 9 4 9 C4 8.34 4 7.68 4 7 C2.68 6.34 1.36 5.68 0 5 C0 3.35 0 1.7 0 0 Z " fill="#000000" transform="translate(1,16)"/>
</svg>
