<svg width="141" height="18" viewBox="0 0 141 18" fill="none" xmlns="http://www.w3.org/2000/svg">
<path d="M16.6799 7.28428C16.9078 6.61702 16.7719 5.82059 16.3395 5.26356C16.0657 4.91038 15.5499 4.49865 14.6574 4.54108C13.9319 4.58967 12.9428 5.36335 12.0044 6.26598C11.1788 7.06336 10.3987 7.96266 9.8783 8.55975C9.72877 8.73421 9.58823 8.89445 9.46541 9.0343C9.54576 9.12176 9.63581 9.2206 9.7278 9.32893C10.2587 9.9246 11.0631 10.826 11.9124 11.6286C12.8748 12.531 13.8979 13.3047 14.6526 13.3583C15.5361 13.4035 16.0531 12.993 16.3284 12.6382C16.7617 12.0795 16.9005 11.2897 16.6748 10.6186C16.4429 9.93052 15.1608 8.94873 15.1608 8.94873C15.1608 8.94873 16.4459 7.97475 16.6799 7.28428ZM12.4772 1.20933C11.9049 0.785516 11.0963 0.653488 10.4094 0.871322C9.70474 1.09982 8.6996 2.35231 8.6996 2.35231C8.6996 2.35231 7.70173 1.09722 6.9949 0.866344C6.31137 0.64614 5.49676 0.776034 4.92538 1.19772C4.56444 1.46557 4.14233 1.96926 4.18602 2.84107C4.24427 3.67164 5.32637 4.86274 6.44972 5.90474C7.12306 6.5298 7.81193 7.09891 8.30103 7.5078C8.47944 7.65381 8.64328 7.79129 8.78649 7.91075C8.87582 7.83182 8.97801 7.74791 9.08821 7.65476C9.66251 7.17121 10.5024 6.4556 11.2767 5.68738C12.2724 4.70084 13.1573 3.62945 13.2154 2.84818C13.261 1.98277 12.8411 1.47789 12.4772 1.20933ZM7.18763 17.1281C7.89252 16.9017 8.89742 15.6497 8.89742 15.6497C8.89742 15.6497 9.89529 16.9048 10.6024 17.1333C11.2854 17.3558 12.0981 17.2257 12.6712 16.8012C13.0328 16.5338 13.4544 16.0296 13.4112 15.1578C13.3557 14.3889 12.4233 13.3085 11.3917 12.3246C10.6434 11.6125 9.84164 10.95 9.29307 10.494C9.11442 10.3458 8.95373 10.2074 8.81028 10.0884C8.71804 10.1668 8.61634 10.2541 8.50857 10.3441C7.93766 10.8308 7.0949 11.5435 6.32059 12.3118C5.32515 13.2981 4.43991 14.3723 4.38239 15.1533C4.33603 16.0161 4.75595 16.5212 5.1198 16.79C5.68901 17.216 6.50094 17.349 7.18763 17.1281ZM7.83912 8.70245C7.30632 8.1037 6.50507 7.20179 5.65527 6.40227C4.69235 5.49988 3.67288 4.72644 2.91799 4.6724C2.03154 4.62784 1.51428 5.03767 1.23902 5.39322C0.805506 5.95191 0.666665 6.7417 0.89289 7.41251C1.12421 8.10086 2.40947 9.08241 2.40947 9.08241C2.40947 9.08241 1.1213 10.0566 0.887307 10.7471C0.659625 11.4144 0.795554 12.207 1.22762 12.7676C1.50142 13.1205 2.01746 13.5325 2.90974 13.4896C3.63866 13.4415 4.63968 12.6559 5.5839 11.745C6.40045 10.9531 7.17452 10.0623 7.68886 9.47139C7.83863 9.29717 7.97893 9.13669 8.10175 8.99708C8.02141 8.90653 7.93184 8.80769 7.83912 8.70245ZM17.4158 10.3809C17.7187 11.2788 17.5345 12.3483 16.9483 13.0999C16.398 13.8044 15.5648 14.1673 14.6043 14.1163C14.3293 14.0985 14.0431 14.0191 13.7474 13.8935C14.0035 14.3194 14.1613 14.7307 14.1873 15.113C14.2365 16.0602 13.8656 16.8728 13.1389 17.408C12.3714 17.9814 11.2757 18.1544 10.3533 17.856C9.73242 17.6536 9.22341 17.2772 8.89548 16.8104C8.56367 17.2762 8.05223 17.6517 7.43108 17.8517C6.51186 18.1475 5.41642 17.9686 4.64429 17.3959C3.9229 16.8588 3.5537 16.0453 3.60274 15.1059C3.63041 14.7335 3.77459 14.3372 4.00785 13.9234C3.64376 14.1127 3.28816 14.2284 2.95659 14.2514C1.98639 14.2967 1.15722 13.9338 0.605982 13.2279C0.0193013 12.4746 -0.158378 11.4049 0.147706 10.5049C0.357425 9.89876 0.739969 9.40099 1.2213 9.08123C0.741182 8.75673 0.356697 8.25777 0.151832 7.65097C-0.151096 6.75284 0.0326517 5.68358 0.619089 4.93242C1.17179 4.22749 2.00241 3.86459 2.96314 3.91555C3.25879 3.93688 3.56633 4.0215 3.88527 4.1642C3.60832 3.71834 3.43598 3.28954 3.40685 2.88682C3.36073 1.93987 3.73211 1.1304 4.45496 0.591622C5.22612 0.0187109 6.31865 -0.154324 7.24078 0.143865C7.86387 0.348662 8.37385 0.72602 8.7013 1.19274C9.03044 0.726494 9.54454 0.348662 10.1662 0.148606C11.0856 -0.147687 12.1808 0.0315108 12.9503 0.604185C13.6719 1.14486 14.0436 1.95528 13.9914 2.89417C13.9669 3.27556 13.8166 3.6778 13.5748 4.1002C13.9363 3.91413 14.2856 3.80367 14.6111 3.78139C15.5813 3.73588 16.4131 4.09806 16.9619 4.80466C17.5481 5.55701 17.7258 6.62414 17.4202 7.52771C17.2102 8.1338 16.8277 8.6311 16.3461 8.95133C16.8257 9.2718 17.21 9.77432 17.4158 10.3809Z" fill="white"/>
<path d="M137.896 5.34131H140.045L134.957 17.7095H132.849L134.691 13.4512L131.296 5.34131H133.562L135.679 11.1851L137.896 5.34131Z" fill="white"/>
<path d="M127.785 13.75V1H129.877V13.75H127.785Z" fill="white"/>
<path d="M123.07 13.75V1H125.162V13.75H123.07Z" fill="white"/>
<path d="M120.588 11.3926C120.588 12.3499 120.66 13.061 120.804 13.5259V13.75H118.837L118.638 12.8037C118.333 13.1745 117.938 13.4539 117.451 13.6421C116.969 13.8247 116.466 13.916 115.94 13.916C115.591 13.916 115.268 13.8717 114.969 13.7832C114.67 13.7002 114.396 13.5701 114.147 13.3931C113.898 13.216 113.701 12.9725 113.558 12.6626C113.419 12.3527 113.35 11.993 113.35 11.5835C113.35 11.1629 113.422 10.7977 113.566 10.4878C113.71 10.1779 113.926 9.92334 114.213 9.72412C114.507 9.51937 114.825 9.35335 115.168 9.22607C115.511 9.0988 115.926 8.98535 116.413 8.88574L117.816 8.59521C118.098 8.53434 118.3 8.44857 118.422 8.33789C118.544 8.22721 118.604 8.0778 118.604 7.88965C118.604 7.66276 118.56 7.46631 118.472 7.30029C118.383 7.12874 118.261 6.9987 118.106 6.91016C117.957 6.81608 117.794 6.74967 117.617 6.71094C117.44 6.66667 117.251 6.64453 117.052 6.64453C116.028 6.64453 115.447 7.09831 115.309 8.00586L113.466 7.65723C113.793 6.00814 115.024 5.18359 117.16 5.18359C117.52 5.18359 117.855 5.2085 118.165 5.2583C118.474 5.30811 118.782 5.40218 119.086 5.54053C119.396 5.67887 119.656 5.85596 119.866 6.07178C120.082 6.2876 120.256 6.57536 120.389 6.93506C120.522 7.29476 120.588 7.7098 120.588 8.18018V11.3926ZM116.579 12.48C117.249 12.48 117.769 12.2614 118.14 11.8242C118.516 11.387 118.704 10.7147 118.704 9.80713L116.662 10.3301C116.225 10.4242 115.893 10.557 115.666 10.7285C115.445 10.8945 115.334 11.1325 115.334 11.4424C115.334 11.7799 115.45 12.0373 115.683 12.2144C115.915 12.3914 116.214 12.48 116.579 12.48Z" fill="white"/>
<path d="M107.996 5.17529C108.544 5.17529 109.061 5.27767 109.548 5.48242C110.035 5.68717 110.459 5.97493 110.818 6.3457C111.184 6.71647 111.471 7.17855 111.682 7.73193C111.897 8.28532 112.005 8.89404 112.005 9.55811C112.005 10.2222 111.9 10.8309 111.69 11.3843C111.48 11.9377 111.192 12.3997 110.827 12.7705C110.461 13.1413 110.035 13.429 109.548 13.6338C109.061 13.8385 108.544 13.9409 107.996 13.9409C107.387 13.9409 106.837 13.8136 106.344 13.5591C105.852 13.3045 105.486 12.9504 105.249 12.4966L105.19 13.75H103.215V1H105.282L105.29 6.54492C105.539 6.11328 105.904 5.77848 106.386 5.54053C106.867 5.29704 107.404 5.17529 107.996 5.17529ZM107.523 12.2061C108.209 12.2061 108.782 11.9653 109.241 11.4839C109.701 10.9969 109.93 10.355 109.93 9.55811C109.93 8.76123 109.701 8.12207 109.241 7.64062C108.782 7.15365 108.209 6.91016 107.523 6.91016C106.848 6.91016 106.281 7.15918 105.821 7.65723C105.362 8.14974 105.132 8.78337 105.132 9.55811C105.132 10.3328 105.359 10.9692 105.813 11.4673C106.272 11.9598 106.842 12.2061 107.523 12.2061Z" fill="white"/>
<path d="M100.027 12.7373C99.1917 13.5231 98.1126 13.916 96.79 13.916C95.4674 13.916 94.3883 13.5231 93.5527 12.7373C92.7171 11.946 92.2993 10.8779 92.2993 9.5332C92.2993 8.19954 92.7144 7.13981 93.5444 6.354C94.38 5.5682 95.4619 5.17529 96.79 5.17529C98.1182 5.17529 99.1973 5.5682 100.027 6.354C100.863 7.13981 101.281 8.19954 101.281 9.5332C101.281 10.8779 100.863 11.946 100.027 12.7373ZM96.7651 12.2476C97.4901 12.2476 98.0794 11.9985 98.5332 11.5005C98.9925 11.0024 99.2222 10.3467 99.2222 9.5332C99.2222 8.72526 98.9925 8.07227 98.5332 7.57422C98.0794 7.07617 97.4901 6.82715 96.7651 6.82715C96.0623 6.82715 95.484 7.07617 95.0303 7.57422C94.582 8.07227 94.3579 8.72526 94.3579 9.5332C94.3579 10.3467 94.582 11.0024 95.0303 11.5005C95.484 11.9985 96.0623 12.2476 96.7651 12.2476Z" fill="white"/>
<path d="M88.2734 13.75V1H90.3652V13.75H88.2734Z" fill="white"/>
<path d="M80.1221 13.916C78.9932 13.916 77.9805 13.6725 77.084 13.1855C76.193 12.6986 75.4875 11.9902 74.9673 11.0605C74.4526 10.1309 74.1953 9.05452 74.1953 7.83154C74.1953 6.59749 74.4582 5.51286 74.9839 4.57764C75.5096 3.63688 76.2262 2.92301 77.1338 2.43604C78.0413 1.94352 79.0706 1.69727 80.2217 1.69727C81.3561 1.69727 82.3743 1.93799 83.2764 2.41943C84.1784 2.90088 84.8867 3.58984 85.4014 4.48633L83.5005 5.49902C83.174 4.86816 82.7257 4.39502 82.1558 4.07959C81.5858 3.75863 80.9411 3.59814 80.2217 3.59814C79.0928 3.59814 78.1659 3.96891 77.4409 4.71045C76.716 5.45199 76.3535 6.47575 76.3535 7.78174C76.3535 9.08219 76.7132 10.1143 77.4326 10.8779C78.1576 11.6361 79.1121 12.0151 80.2964 12.0151C81.1984 12.0151 81.9704 11.7744 82.6123 11.293C83.2542 10.8115 83.6499 10.106 83.7993 9.17627H80.2964V7.4165H85.8579V13.75H84.1396V11.9072C83.7467 12.5492 83.21 13.0444 82.5293 13.3931C81.8542 13.7417 81.0518 13.916 80.1221 13.916Z" fill="white"/>
<path d="M63.7612 13.916C62.4774 13.916 61.3983 13.62 60.5239 13.0278C59.6551 12.4357 59.1294 11.6139 58.9468 10.5625L61.1631 10.0479C61.2627 10.7119 61.5532 11.2266 62.0347 11.5918C62.5216 11.9515 63.1248 12.1313 63.8442 12.1313C64.4474 12.1313 64.9427 11.9958 65.3301 11.7246C65.723 11.4535 65.9167 11.0412 65.9111 10.4878C65.9111 10.3218 65.8807 10.1668 65.8198 10.0229C65.7645 9.87354 65.6953 9.74626 65.6123 9.64111C65.5293 9.53044 65.4076 9.42529 65.2471 9.32568C65.0921 9.22054 64.9482 9.13477 64.8154 9.06836C64.6882 8.99642 64.5111 8.92171 64.2842 8.84424C64.0573 8.76676 63.8664 8.70589 63.7114 8.66162C63.5565 8.61182 63.349 8.54818 63.0889 8.4707C63.0391 8.4541 63.0003 8.44303 62.9727 8.4375C62.6572 8.34342 62.3999 8.26595 62.2007 8.20508C62.0015 8.13867 61.7607 8.04736 61.4785 7.93115C61.1963 7.81494 60.9639 7.7015 60.7812 7.59082C60.6042 7.48014 60.4132 7.33903 60.2085 7.16748C60.0093 6.99593 59.8516 6.81608 59.7354 6.62793C59.6247 6.43424 59.5306 6.20736 59.4531 5.94727C59.3757 5.68717 59.3369 5.40495 59.3369 5.10059C59.3369 4.38672 59.5195 3.76969 59.8848 3.24951C60.2555 2.7238 60.748 2.33366 61.3623 2.0791C61.9766 1.82454 62.6738 1.69727 63.4541 1.69727C63.9909 1.69727 64.5 1.75537 64.9814 1.87158C65.4684 1.98779 65.9194 2.16488 66.3345 2.40283C66.755 2.63525 67.112 2.95345 67.4053 3.35742C67.7041 3.75586 67.9089 4.21794 68.0195 4.74365L65.9443 5.2583C65.8226 4.66064 65.5514 4.21517 65.1309 3.92188C64.7158 3.62305 64.1956 3.47363 63.5703 3.47363C62.9837 3.47363 62.494 3.60645 62.1011 3.87207C61.7082 4.13216 61.5117 4.52783 61.5117 5.05908C61.5117 5.2583 61.5588 5.43815 61.6528 5.59863C61.7469 5.75911 61.8659 5.89469 62.0098 6.00537C62.1592 6.11051 62.3529 6.21566 62.5908 6.3208C62.8343 6.42041 63.064 6.50618 63.2798 6.57812C63.5011 6.64453 63.7723 6.72201 64.0933 6.81055C64.1209 6.81608 64.1431 6.82161 64.1597 6.82715C64.6411 6.96549 65.0202 7.08171 65.2969 7.17578C65.5736 7.26986 65.9167 7.41927 66.3262 7.62402C66.7412 7.82878 67.0594 8.0446 67.2808 8.27148C67.5076 8.49284 67.7069 8.7889 67.8784 9.15967C68.05 9.5249 68.1357 9.93441 68.1357 10.3882C68.1357 10.9858 68.0168 11.5171 67.7788 11.9819C67.5409 12.4412 67.2144 12.8092 66.7993 13.0859C66.3898 13.3626 65.9277 13.5701 65.4131 13.7085C64.904 13.8468 64.3534 13.916 63.7612 13.916Z" fill="white"/>
<path d="M57.2451 3.76416H52.7046V6.86035H56.7222V8.75293H52.7046V11.8325H57.2451V13.75H50.5215V1.85498H57.2451V3.76416Z" fill="white"/>
<path d="M47.7075 13.75H45.5742L44.7773 4.50293L41.5068 13.75H40.1372L36.8833 4.50293L36.0864 13.75H33.9448L34.9077 1.85498H37.9292L40.8179 9.95654L43.7231 1.85498H46.7529L47.7075 13.75Z" fill="white"/>
<path d="M28.4497 1.85498C29.5565 1.85498 30.4502 2.22021 31.1309 2.95068C31.8115 3.67562 32.1519 4.5721 32.1519 5.64014C32.1519 6.71924 31.8115 7.61019 31.1309 8.31299C30.4557 9.01579 29.562 9.36719 28.4497 9.36719H25.8018V13.75H23.6436V1.85498H28.4497ZM28.1011 7.54932C28.7375 7.54932 29.2217 7.375 29.5537 7.02637C29.8913 6.67773 30.0601 6.20459 30.0601 5.60693C30.0601 5.02588 29.8913 4.55827 29.5537 4.2041C29.2161 3.84993 28.7319 3.67285 28.1011 3.67285H25.8018V7.54932H28.1011Z" fill="white"/>
</svg>
