<?xml version="1.0" encoding="UTF-8"?>
<svg version="1.1" xmlns="http://www.w3.org/2000/svg" width="30" height="30">
<path d="M0 0 C2 0.125 2 0.125 4 1 C5.25 3.0625 5.25 3.0625 6 5 C6 3.68 6 2.36 6 1 C7.875 0.375 7.875 0.375 10 0 C12 2 12 2 12 5 C11.34 5 10.68 5 10 5 C10 4.34 10 3.68 10 3 C9.34 3 8.68 3 8 3 C8 7.29 8 11.58 8 16 C4.7 16 1.4 16 -2 16 C-2.05384521 13.70858714 -2.09272087 11.41681812 -2.125 9.125 C-2.14820313 7.84882813 -2.17140625 6.57265625 -2.1953125 5.2578125 C-2 2 -2 2 0 0 Z M0 3 C0 3.66 0 4.32 0 5 C0.99 5 1.98 5 3 5 C3 4.34 3 3.68 3 3 C2.01 3 1.02 3 0 3 Z M0 8 C0 8.33 0 8.66 0 9 C1.98 9 3.96 9 6 9 C6 8.67 6 8.34 6 8 C4.02 8 2.04 8 0 8 Z M0 12 C0 12.66 0 13.32 0 14 C1.98 14 3.96 14 6 14 C6 13.34 6 12.68 6 12 C4.02 12 2.04 12 0 12 Z " fill="#000000" transform="translate(14,5)"/>
<path d="M0 0 C2.89376134 0.55119264 4.77476551 0.10004937 7.625 -0.5 C8.615 -0.17 9.605 0.16 10.625 0.5 C11.45 0.314375 12.275 0.12875 13.125 -0.0625 C15.625 -0.5 15.625 -0.5 18.625 1.5 C18.625 2.16 18.625 2.82 18.625 3.5 C10.375 3.5 2.125 3.5 -6.375 3.5 C-6.045 2.51 -5.715 1.52 -5.375 0.5 C-2.375 -0.5 -2.375 -0.5 0 0 Z " fill="#000000" transform="translate(11.375,22.5)"/>
<path d="M0 0 C2.89376134 0.55119264 4.77476551 0.10004937 7.625 -0.5 C8.615 -0.17 9.605 0.16 10.625 0.5 C11.45 0.314375 12.275 0.12875 13.125 -0.0625 C15.625 -0.5 15.625 -0.5 18.625 1.5 C18.625 2.16 18.625 2.82 18.625 3.5 C17.903125 3.314375 17.18125 3.12875 16.4375 2.9375 C13.72042811 2.34329086 13.72042811 2.34329086 11.4375 2.96875 C7.88366642 3.64002968 4.41227685 3.60728191 0.8125 3.5625 C0.11962891 3.55798828 -0.57324219 3.55347656 -1.28710938 3.54882812 C-2.98311068 3.53713156 -4.67906703 3.51919924 -6.375 3.5 C-6.045 2.51 -5.715 1.52 -5.375 0.5 C-2.375 -0.5 -2.375 -0.5 0 0 Z " fill="#000000" transform="translate(11.375,26.5)"/>
<path d="M0 0 C1.65 0.33 3.3 0.66 5 1 C6.1577506 4.47325181 6.06866652 7.36067448 6 11 C3.36 11 0.72 11 -2 11 C-2.28571429 3.57142857 -2.28571429 3.57142857 0 0 Z M1 2 C1 2.66 1 3.32 1 4 C1.66 4 2.32 4 3 4 C3 3.34 3 2.68 3 2 C2.34 2 1.68 2 1 2 Z M0 6 C0 6.99 0 7.98 0 9 C1.32 9 2.64 9 4 9 C4 8.01 4 7.02 4 6 C2.68 6 1.36 6 0 6 Z " fill="#000000" transform="translate(2,0)"/>
</svg>
