<?xml version="1.0" encoding="UTF-8"?>
<svg version="1.1" xmlns="http://www.w3.org/2000/svg" width="30" height="30">
<path d="M0 0 C2.625 -0.1875 2.625 -0.1875 5 0 C5.32074992 4.13330016 4.62083821 6.18816344 2.25 9.5625 C1.70214844 10.34238281 1.15429688 11.12226563 0.58984375 11.92578125 C-1.11371378 14.14835877 -2.98744267 16.0568412 -5 18 C-7.87216537 22.08731226 -8.53236615 24.86328153 -10 30 C-14.95 30 -19.9 30 -25 30 C-25 27.03 -25 24.06 -25 21 C-24.11957031 21.020625 -23.23914063 21.04125 -22.33203125 21.0625 C-15.81865416 21.18600123 -15.81865416 21.18600123 -10.19921875 18.46875 C-8.9190481 16.36710177 -7.95353338 14.26796585 -7 12 C-6.11963353 10.38729329 -5.22380142 8.78293028 -4.3125 7.1875 C-3.91675781 6.45917969 -3.52101563 5.73085937 -3.11328125 4.98046875 C-2.1539167 3.2738097 -1.08600403 1.62900605 0 0 Z M2 1 C1.67 1.99 1.34 2.98 1 4 C1.99 3.67 2.98 3.34 4 3 C3.34 2.34 2.68 1.68 2 1 Z M-1 5 C-1.33 5.99 -1.66 6.98 -2 8 C-1.01 7.67 -0.02 7.34 1 7 C0.34 6.34 -0.32 5.68 -1 5 Z M-3 9 C-3.33 9.99 -3.66 10.98 -4 12 C-3.34 12 -2.68 12 -2 12 C-2.33 11.01 -2.66 10.02 -3 9 Z M-24 23 C-24.16666667 25.5 -24.16666667 25.5 -24 28 C-22.34233202 29.65766798 -20.39653595 29.21049503 -18.125 29.25 C-17.24070312 29.27578125 -16.35640625 29.3015625 -15.4453125 29.328125 C-12.59035628 28.94503183 -11.76004103 28.21462117 -10 26 C-10.33 25.01 -10.66 24.02 -11 23 C-13.50139602 21.74930199 -15.27392691 21.86697533 -18.0625 21.875 C-18.96097656 21.87242188 -19.85945313 21.86984375 -20.78515625 21.8671875 C-22.97378893 21.75261777 -22.97378893 21.75261777 -24 23 Z " fill="#000000" transform="translate(25,0)"/>
<path d="M0 0 C3 0.25 3 0.25 5 2.25 C5.046875 4.34375 5.046875 4.34375 4.75 6.75 C4.61851563 7.94109375 4.61851563 7.94109375 4.484375 9.15625 C4 11.25 4 11.25 2 13.25 C-0.5 13.125 -0.5 13.125 -3 12.25 C-5.40769537 9.15439167 -5.33127155 6.05962278 -5 2.25 C-3 0.25 -3 0.25 0 0 Z M1 2.25 C-0.32 3.9 -1.64 5.55 -3 7.25 C-2.01 7.745 -2.01 7.745 -1 8.25 C0.32 6.93 1.64 5.61 3 4.25 C2.34 3.59 1.68 2.93 1 2.25 Z " fill="#000000" transform="translate(25,16.75)"/>
<path d="M0 0 C2.97 0 5.94 0 9 0 C9 0.33 9 0.66 9 1 C6.03 1 3.06 1 0 1 C0 0.67 0 0.34 0 0 Z " fill="#000000" transform="translate(2,27)"/>
<path d="M0 0 C2.97 0 5.94 0 9 0 C9 0.33 9 0.66 9 1 C6.03 1 3.06 1 0 1 C0 0.67 0 0.34 0 0 Z " fill="#000000" transform="translate(2,25)"/>
<path d="M0 0 C2.97 0 5.94 0 9 0 C9 0.33 9 0.66 9 1 C6.03 1 3.06 1 0 1 C0 0.67 0 0.34 0 0 Z " fill="#000000" transform="translate(2,23)"/>
</svg>
