<?xml version="1.0" encoding="UTF-8"?>
<svg version="1.1" xmlns="http://www.w3.org/2000/svg" width="30" height="30">
<path d="M0 0 C4.95 0 9.9 0 15 0 C15 0.99 15 1.98 15 3 C15.99 3 16.98 3 18 3 C18.02715383 4.74991334 18.04646551 6.49994945 18.0625 8.25 C18.07410156 9.22453125 18.08570312 10.1990625 18.09765625 11.203125 C18.01195577 13.65758678 17.70706066 15.66168914 17 18 C15.35 18 13.7 18 12 18 C12 17.01 12 16.02 12 15 C8.7 15 5.4 15 2 15 C2 15.99 2 16.98 2 18 C0.68 18 -0.64 18 -2 18 C-3.09506492 14.71480525 -3.09960608 12.26336585 -3.0625 8.8125 C-3.05347656 7.72582031 -3.04445312 6.63914062 -3.03515625 5.51953125 C-3.02355469 4.68808594 -3.01195312 3.85664063 -3 3 C-2.34 3 -1.68 3 -1 3 C-0.67 2.01 -0.34 1.02 0 0 Z M1 2 C1 2.99 1 3.98 1 5 C4.96 5 8.92 5 13 5 C13 4.01 13 3.02 13 2 C9.04 2 5.08 2 1 2 Z M-1 8 C0 11 0 11 0 11 Z " fill="#000000" transform="translate(3,12)"/>
<path d="M0 0 C3.63 0 7.26 0 11 0 C11 3.63 11 7.26 11 11 C9.68 11 8.36 11 7 11 C7.14179038 13.22942748 7.28859698 15.45853628 7.4375 17.6875 C7.51871094 18.92886719 7.59992187 20.17023437 7.68359375 21.44921875 C7.94491317 24.38180337 8.34798379 27.13441617 9 30 C7.02 30 5.04 30 3 30 C3.15339844 29.32582031 3.30679687 28.65164062 3.46484375 27.95703125 C4.08483857 24.53122048 4.3352574 21.16106553 4.5625 17.6875 C4.64628906 16.43324219 4.73007812 15.17898437 4.81640625 13.88671875 C4.87699219 12.93410156 4.93757813 11.98148438 5 11 C3.35 10.67 1.7 10.34 0 10 C0 6.7 0 3.4 0 0 Z M2 2 C2 4.31 2 6.62 2 9 C4.31 9 6.62 9 9 9 C9 6.69 9 4.38 9 2 C8.01 2.495 8.01 2.495 7 3 C7 3.99 7 4.98 7 6 C5.02 6.99 5.02 6.99 3 8 C3.33 6.02 3.66 4.04 4 2 C3.34 2 2.68 2 2 2 Z " fill="#000000" transform="translate(19,0)"/>
</svg>
