<?xml version="1.0" encoding="UTF-8"?>
<svg version="1.1" xmlns="http://www.w3.org/2000/svg" width="30" height="30">
<path d="M0 0 C7.05909078 1.12276571 14.03843148 2.37563401 21 4 C21 5.65 21 7.3 21 9 C18.36 8.67 15.72 8.34 13 8 C13 8.66 13 9.32 13 10 C15.31 10.33 17.62 10.66 20 11 C19.67 13.64 19.34 16.28 19 19 C18.01 19 17.02 19 16 19 C15.67 20.32 15.34 21.64 15 23 C12.06377536 23.83806616 9.12617933 24.67062444 6.1875 25.5 C5.35412109 25.73847656 4.52074219 25.97695313 3.66210938 26.22265625 C2.45844727 26.56103516 2.45844727 26.56103516 1.23046875 26.90625 C0.49207764 27.11572266 -0.24631348 27.32519531 -1.00708008 27.54101562 C-3 28 -3 28 -6 28 C-6.508783 26.44033782 -7.00663469 24.87710759 -7.5 23.3125 C-7.7784375 22.44238281 -8.056875 21.57226562 -8.34375 20.67578125 C-8.99850805 18.00608323 -9.11831495 15.73603316 -9 13 C-8.030625 12.566875 -7.06125 12.13375 -6.0625 11.6875 C-2.72268235 10.2985139 -2.72268235 10.2985139 -2 7 C1.63 7 5.26 7 9 7 C5.7 6.34 2.4 5.68 -1 5 C-0.67 3.35 -0.34 1.7 0 0 Z M0.3125 12 C-0.38939453 12.19078125 -1.09128906 12.3815625 -1.81445312 12.578125 C-3.54388762 13.04871942 -5.27206874 13.52391562 -7 14 C-7 14.66 -7 15.32 -7 16 C-4.18494942 15.38504727 -1.37335056 14.75862099 1.4375 14.125 C2.64116211 13.86396484 2.64116211 13.86396484 3.86914062 13.59765625 C5.9282378 13.12849487 7.96658343 12.57027241 10 12 C10.33 11.34 10.66 10.68 11 10 C7.23673413 10 3.90882789 11.00605691 0.3125 12 Z M15 13 C15 13.66 15 14.32 15 15 C15.66 15 16.32 15 17 15 C17 14.34 17 13.68 17 13 C16.34 13 15.68 13 15 13 Z M1.875 16.875 C0.61429688 17.22304688 -0.64640625 17.57109375 -1.9453125 17.9296875 C-5.11045851 18.64072524 -5.11045851 18.64072524 -6 21 C-4.35 20.67 -2.7 20.34 -1 20 C-0.67 21.32 -0.34 22.64 0 24 C1.77226453 23.71715982 3.542788 23.42339502 5.3125 23.125 C6.29863281 22.96257813 7.28476562 22.80015625 8.30078125 22.6328125 C11.20059827 22.11914546 11.20059827 22.11914546 14 20 C13.34 18.35 12.68 16.7 12 15 C8.34877029 15 5.39001097 15.88617761 1.875 16.875 Z " fill="#000000" transform="translate(9,1)"/>
</svg>
