<?xml version="1.0" encoding="UTF-8"?>
<svg version="1.1" xmlns="http://www.w3.org/2000/svg" width="22" height="30">
<path d="M0 0 C3.05899691 1.52949846 4.51393308 2.72757351 5.74609375 5.953125 C7.40168572 12.48414989 8.11577754 19.0777255 5.6875 25.4375 C4 28 4 28 1 30 C-1.12109375 30.265625 -1.12109375 30.265625 -3.4375 30.25 C-4.19933594 30.25515625 -4.96117187 30.2603125 -5.74609375 30.265625 C-8.27020876 29.96815564 -9.85237717 29.34743788 -12 28 C-15.34311761 23.10472065 -15.676108 18.71950822 -15 13 C-13.23319545 4.16597725 -13.23319545 4.16597725 -10.13671875 1.23828125 C-6.84535947 -0.66914268 -3.64920527 -0.62391979 0 0 Z M-8.875 5.75 C-10.2981424 8.17702205 -10.2981424 8.17702205 -10 12 C-6.04 12 -2.08 12 2 12 C1.55296014 7.52116304 1.55296014 7.52116304 -1 4 C-5.36517805 3.4189886 -5.36517805 3.4189886 -8.875 5.75 Z M-5 18 C-6.24546405 20.49092811 -5.7767578 21.41080733 -5 24 C-4.34 24 -3.68 24 -3 24 C-2.67 22.35 -2.34 20.7 -2 19 C-2.99 18.67 -3.98 18.34 -5 18 Z " fill="#000000" transform="translate(15,0)"/>
</svg>
