<svg xmlns="http://www.w3.org/2000/svg" width="30.633" height="30.567" viewBox="0 0 30.633 30.567">
  <g id="Group_319" data-name="Group 319" transform="translate(-887.683 -180.75)">
    <path id="Path_123" data-name="Path 123" d="M918,201.3a9.719,9.719,0,0,0-7.1-9.345,11.455,11.455,0,1,0-21.311,6.32l-1.546,5.59,5.591-1.546a11.412,11.412,0,0,0,5.325,1.576,9.7,9.7,0,0,0,14.279,5.754l4.721,1.306-1.306-4.721A9.664,9.664,0,0,0,918,201.3Zm-24.09-.882-3.347.926.926-3.347-.211-.33a9.693,9.693,0,1,1,2.962,2.962Zm21.527,8.016-2.484-.687-.331.215a7.942,7.942,0,0,1-11.846-4.132,11.475,11.475,0,0,0,10.058-10.058,7.943,7.943,0,0,1,4.131,11.847l-.215.331Z" stroke="#000" stroke-width="0.5"/>
    <path id="Path_124" data-name="Path 124" d="M898.576,196.879h1.758v1.758h-1.758Z" stroke="#000" stroke-width="0.5"/>
    <path id="Path_125" data-name="Path 125" d="M901.213,189.789a1.741,1.741,0,0,1-.572,1.3l-2.065,1.889v2.145h1.758V193.75l1.493-1.367a3.516,3.516,0,1,0-5.888-2.594H897.7a1.758,1.758,0,1,1,3.516,0Z" stroke="#000" stroke-width="0.5"/>
  </g>
</svg>
