<svg xmlns="http://www.w3.org/2000/svg" width="29.999" height="29.998" viewBox="0 0 29.999 29.998">
  <g id="Group_320" data-name="Group 320" transform="translate(-929.788 -194.001)">
    <path id="Path_126" data-name="Path 126" d="M957.383,224H940.626a3.186,3.186,0,0,1-1.377-.655.776.776,0,0,0-.708-.28.774.774,0,0,1-.463-.139,19.089,19.089,0,0,1-4.458-3.618A14.534,14.534,0,0,1,930,212.021c-.087-.516-.145-1.037-.216-1.556V207.77a1.337,1.337,0,0,1,.833-.756c2.449-.99,4.891-2,7.339-2.985a.363.363,0,0,0,.27-.4c-.01-1.659-.016-3.319,0-4.979a2.725,2.725,0,0,1,2.331-2.708,18.8,18.8,0,0,1,2.279-.058.3.3,0,0,0,.324-.207,2.765,2.765,0,0,1,1.991-1.613,1.342,1.342,0,0,0,.16-.059H952.7c.063.021.124.048.188.063a2.294,2.294,0,0,1,1.665,1.137c.313.682.78.727,1.383.68a8.826,8.826,0,0,1,1.054,0,3.358,3.358,0,0,1,.693.092,2.809,2.809,0,0,1,2.106,2.849q0,10.455,0,20.911c0,.508.007,1.016,0,1.523a2.82,2.82,0,0,1-1.958,2.612C957.677,223.913,957.53,223.955,957.383,224ZM940.5,222.036a6.9,6.9,0,0,0,.721.085q7.791.006,15.582,0c.753,0,1.1-.354,1.1-1.117v-9.841q0-6.18,0-12.36a.95.95,0,0,0-1.047-1.055c-.567,0-1.133,0-1.7,0a.281.281,0,0,0-.31.184,2.745,2.745,0,0,1-2.646,1.691q-3.207.014-6.415,0a3.156,3.156,0,0,1-.78-.1,2.8,2.8,0,0,1-1.947-1.774c-.651,0-1.3,0-1.956,0a.939.939,0,0,0-1.01,1c0,1.8,0,3.593-.006,5.39a.31.31,0,0,0,.231.339c.951.379,1.895.774,2.845,1.154a1.2,1.2,0,0,0,.424.078c1.26,0,2.519,0,3.779,0q3.573,0,7.146,0a.973.973,0,0,1,.9.443.869.869,0,0,1,.029.944.928.928,0,0,1-.871.49h-7.212v1.875h.4c2.256,0,4.511,0,6.766,0a.954.954,0,0,1,.95.553.933.933,0,0,1-.908,1.324q-3.469.008-6.941,0h-.355l-.364,1.873h7.622a.954.954,0,0,1,.983.633.937.937,0,0,1-.946,1.241c-2.645,0-5.291.006-7.937-.008a.507.507,0,0,0-.547.341,16.1,16.1,0,0,1-5.365,6.415C940.665,221.879,940.621,221.929,940.5,222.036Zm4.993-12.364c0-.283.015-.567-.009-.848a.373.373,0,0,0-.181-.27q-3.27-1.346-6.551-2.665a.477.477,0,0,0-.329,0q-3.294,1.324-6.58,2.671a.337.337,0,0,0-.177.242,12.384,12.384,0,0,0,1.815,7.206,15.45,15.45,0,0,0,4.994,4.935.308.308,0,0,0,.274-.033c.774-.575,1.591-1.1,2.3-1.752A12.612,12.612,0,0,0,945.5,209.672ZM949,197.749v0c1.074,0,2.148,0,3.221,0a.937.937,0,1,0,.019-1.872q-3.206-.009-6.413,0a.942.942,0,1,0,.01,1.872Q947.421,197.751,949,197.749Z"/>
    <path id="Path_127" data-name="Path 127" d="M948.975,203.844c-1.845,0-3.691,0-5.536,0a.935.935,0,0,1-.92-1.3.916.916,0,0,1,.906-.574h3.633q3.749,0,7.5,0a.939.939,0,1,1,.014,1.874Q951.773,203.846,948.975,203.844Z"/>
  </g>
</svg>
