<svg xmlns="http://www.w3.org/2000/svg" width="30" height="26.811" viewBox="0 0 30 26.811">
  <g id="Group_312" data-name="Group 312" transform="translate(-75.708 -114.719)">
    <path id="Path_118" data-name="Path 118" d="M94.083,140.213v2.649a.21.21,0,0,1-.21.21H79a.21.21,0,0,0-.21.21V161.24a.21.21,0,0,0,.21.21h21.01a.21.21,0,0,0,.21-.21v-7.208a.21.21,0,0,1,.21-.21H103.1a.21.21,0,0,1,.21.21v.177c0,2.366,0,4.732,0,7.1a3.084,3.084,0,0,1-2.6,3.184,3.746,3.746,0,0,1-.624.035c-7.049,0-14.1-.012-21.146.012A3.163,3.163,0,0,1,75.8,162.19a3.6,3.6,0,0,1-.091-.826q-.007-9.1,0-18.193a3.071,3.071,0,0,1,3.1-3.165q7.531-.014,15.062,0h0A.21.21,0,0,1,94.083,140.213Z" transform="translate(0 -23.008)"/>
    <path id="Path_119" data-name="Path 119" d="M174.682,115.065l.876.8a1.328,1.328,0,0,1,.086,1.873L160.8,134.068a1.328,1.328,0,0,1-1.921.046l-5.607-5.6a1.327,1.327,0,0,1,0-1.881l.781-.776a1.327,1.327,0,0,1,1.876.007l3.724,3.749,13.15-14.462A1.328,1.328,0,0,1,174.682,115.065Z" transform="translate(-70.282 0)"/>
  </g>
</svg>
