<svg xmlns="http://www.w3.org/2000/svg" width="140.34" height="180.393" viewBox="0 0 140.34 180.393">
  <g id="logo" transform="translate(-216.927 -131.29)">
    <path id="Path_28" data-name="Path 28" d="M350.262,385.146q-.338.714-.687,1.421-1.414,2.886-2.971,5.714-2,3.643-4.25,7.183c-.2.315-.4.633-.606.948h8.375c.19-.315.379-.63.564-.948a141.222,141.222,0,0,0,6.757-12.9c.216-.471.431-.945.642-1.421Zm-80.4,14.319q-2.242-3.54-4.25-7.183-1.557-2.829-2.971-5.714-.348-.707-.687-1.421h-7.823c.211.476.426.95.642,1.421a141.226,141.226,0,0,0,6.757,12.9c.185.317.374.633.564.948h8.377C270.26,400.1,270.059,399.78,269.857,399.465Zm58.62,18.387c-.282.317-.564.633-.851.948-.107.121-.213.239-.322.358a158.291,158.291,0,0,1-21.2,19.349,158.411,158.411,0,0,1-21.2-19.349c-.109-.118-.216-.237-.322-.358-.287-.315-.569-.63-.851-.948h-9.344q.391.476.782.948a164.635,164.635,0,0,0,30.932,28.537A164.636,164.636,0,0,0,337.037,418.8q.391-.473.782-.948Zm41.894-92.225q-.018-4.343-.277-8.624a152.212,152.212,0,0,0-18.927-7.224q.252,1.077.507,2.154c.083.344.467.614.72.912.137.161.417.3.424.462.031.824.7,1.639.057,2.483-.057.073-.009.239.012.36.107.588.216,1.175.322,1.763q5.064,1.72,9.986,3.81.06,1.958.069,3.9c0,.237,0,.471,0,.706,0,.4,0,.794,0,1.189h7.108c0-.4,0-.791,0-1.189C370.374,326.1,370.374,325.862,370.372,325.628ZM242.117,317q-.256,4.282-.277,8.624v.092c0,.2,0,.41,0,.614,0,.4,0,.794,0,1.189h7.108c0-.4,0-.791,0-1.189,0-.235,0-.469,0-.706q.007-1.944.071-3.9,6.109-2.594,12.441-4.622s0-.012,0-.017c.123-.431.2-.8-.381-.891l.872-3.492c.481-1.038.3-2.194,1.237-2.919a.632.632,0,0,0,.166-.329c.033-.13.064-.263.1-.393A152.225,152.225,0,0,0,242.117,317Z" transform="translate(-19.008 -135.653)" fill="#f9f8f7"/>
    <g id="Group_263" data-name="Group 263" transform="translate(237.882 131.29)">
      <path id="Path_29" data-name="Path 29" d="M371.286,328.722a2.558,2.558,0,0,0-.211-1.014,2.941,2.941,0,0,0-.415-.68c-1.493-1.893-3.146-3.679-4.1-5.942a2.947,2.947,0,0,1-.256-1.194,5.077,5.077,0,0,0-.727-3.063,5.724,5.724,0,0,1-.583-1.753c-.218-.888-.405-1.789-.566-2.689-.116-.661-.457-.829-1.121-.841a266.1,266.1,0,0,0-28.368.8,149.139,149.139,0,0,0-18.266,2.509c-1.914.408-3.776,1.057-5.679,1.53-1.258.313-1.294.284-1.547,1.651.583.09.5.46.381.891q-1,3.483-1.969,6.97c-.1.377-.282.552-.68.5a4.542,4.542,0,0,0-.6,0c-.168.441-.334.872-.5,1.315-.225.588-.457.9-.706,1.555.081.017.159.033.239.052l65.683-.005C371.286,329.016,371.291,329.016,371.286,328.722Zm-17.193-11.341a3.528,3.528,0,0,1,2.253-3.39,3.421,3.421,0,0,1,4,1.576,5.455,5.455,0,0,1,.344,2.521q.039,1.525.073,3.049c.043,2,.076,4,.116,6,0,.045-.031.09-.081.227h-6.636a4.326,4.326,0,0,1-.076-.566C354.081,323.657,354.055,320.52,354.093,317.381Zm-10.839,9.2c.114-3.108.218-6.217.351-9.325a3.083,3.083,0,0,1,4.4-2.8,2.57,2.57,0,0,1,1.67,2.521c-.085,3.431-.249,6.859-.386,10.349h-6.034C343.252,327.069,343.245,326.827,343.254,326.585Zm-8.437-5.947c.088-1.116.166-2.232.272-3.345a2.75,2.75,0,0,1,3.061-2.578,2.327,2.327,0,0,1,2.279,2.469c-.2,3.227-.483,6.449-.77,9.669a.751.751,0,0,1-.559.46c-1.566.038-3.132.021-4.814.021C334.469,325.043,334.642,322.842,334.818,320.639Zm-7.65,2.414c.246-1.848.45-3.7.775-5.534a3.813,3.813,0,0,1,.839-1.76,2.279,2.279,0,0,1,2.7-.365,2.012,2.012,0,0,1,1.069,2.187q-.412,3.891-.827,7.783c-.062.59-.142,1.177-.218,1.8h-4.866C326.817,325.749,326.99,324.4,327.168,323.053Zm-6.283-.182c.289-1.741.531-3.495.907-5.219a3.267,3.267,0,0,1,.936-1.609,1.8,1.8,0,0,1,2.229-.135,1.639,1.639,0,0,1,.7,1.893c-.313,1.891-.635,3.779-.952,5.667-.178,1.057-.339,2.113-.545,3.163-.038.19-.258.481-.4.486-1.161.04-2.324.021-3.57.021C320.425,325.657,320.652,324.263,320.885,322.87Zm-4.506-5.139a1.941,1.941,0,0,1,1.606-1.656,1.269,1.269,0,0,1,1.59,1.554c-.607,2.976-1.246,5.942-1.9,8.908-.04.18-.287.438-.445.445-.912.043-1.829.021-2.831.021.379-1.791.737-3.49,1.1-5.186Q315.937,319.775,316.378,317.732Zm-2.9-.261a3.838,3.838,0,0,1,.862-.545c.156.329.476.682.436.986-.178,1.329-.443,2.644-.7,3.961-.332,1.675-.692,3.348-1.052,5.082l-2.073-.246c.753-2.893,1.471-5.658,2.2-8.418A1.964,1.964,0,0,1,313.483,317.471Zm-2.646,1.308a.69.69,0,0,1,.152-.334c.246-.2.521-.374.784-.559a2.454,2.454,0,0,1,.14.914c-.625,2.4-1.305,4.793-1.936,7.2-.244.924-.751.249-1.263.289C309.446,323.7,310.14,321.238,310.837,318.779Z" transform="translate(-305.376 -268.787)" fill="#f9f8f7"/>
      <path id="Path_30" data-name="Path 30" d="M580.447,265.917a.921.921,0,0,1-.59-.72c-.386-2.13-1.019-5.679-1.407-7.809-.021-.121-.069-.287-.012-.36.647-.843-.026-1.658-.057-2.483-.007-.159-.287-.3-.424-.462-.254-.3-.637-.569-.72-.912-.784-3.291-1.519-6.593-2.263-9.894-.038-.166-.1-.448-.033-.5.651-.441.253-.948-.019-1.26a22.807,22.807,0,0,0-2.888-2.985,20.307,20.307,0,0,0-6.994-3.269c-6.98-2.054-14.175-2.618-21.391-3.018a4.257,4.257,0,0,0-.692.073c.144,1.838.144,1.838-1.73,1.684a6.429,6.429,0,0,0-.242-1.431.991.991,0,0,0-.746-.524.9.9,0,0,0-.694.545c-.092.753-.49.941-1.156.881a5.761,5.761,0,0,0-.8.043c.147,1.182.7,1.715,1.805,1.739q3.7.089,7.392.159c2.725.052,3.094.434,3.184,3.172a7,7,0,0,0,.284,2.054c.6,1.734,1.3,3.433,1.973,5.141.1.256.239.5.36.742l.187-.057c0-.609.009-1.218,0-1.827-.019-1.18.557-1.888,1.587-1.943a1.817,1.817,0,0,1,2,1.834,12.364,12.364,0,0,1,.088,2.087c-.13,1.286.775,1.936,1.594,2.924,0-.5.009-.779,0-1.064-.05-1.294-.147-2.587-.152-3.881a1.37,1.37,0,0,1,2.18-1.241,1.826,1.826,0,0,1,.952,1.587c.123,1.838.265,3.675.393,5.513a4.878,4.878,0,0,1-.031.616c-.3-.05-.547-.078-.789-.13-1.445-.31-1.464-.32-1.931,1.054a1.565,1.565,0,0,0-.05,1.054,12.134,12.134,0,0,0,1.2,1.886.88.88,0,0,0,.652.3,1.875,1.875,0,0,1,2.227,1.917c.1,1.49.159,2.983.225,4.475a3.024,3.024,0,0,1-.069.512h-1.329c.253.808.471,1.542.713,2.267a2.045,2.045,0,0,0,.32.58c.332.438.924,2.99,1.381,3.554,5.371-.121,10.92-.242,16.468-.386a1,1,0,0,0,.6-.346C580.871,267.388,580.762,266.085,580.447,265.917ZM552.775,235.7a2.052,2.052,0,0,1-.116-.656c.05-.32.213-.9.291-.893.476.036,1.132-.123,1.265.6.116.623.163,1.26.246,1.936C553.13,236.864,553,236.776,552.775,235.7Zm7.752,6.394c-.554-.111-1.059-.211-1.763-.351a14.642,14.642,0,0,1,.028-2.177.588.588,0,0,1,1.095-.156,5.681,5.681,0,0,1,.625,1.684A4.1,4.1,0,0,1,560.527,242.1Zm12.239-1.27c.682.14.824.524.7,1.789C572.752,242.493,572.612,242.149,572.766,240.827Zm-.685,2.635c.043-.1.2-.242.244-.223.173.066.422.163.464.3.156.531.244,1.08.381,1.732A1.343,1.343,0,0,1,572.081,243.462Zm-3.108-5.089c.825.083,1.175,1.071.938,2.53C569.032,240.939,568.736,240.164,568.973,238.373Zm-7.214-2.746c.929.092,1.332.988,1.168,2.658C561.929,238.179,561.536,237.245,561.759,235.627Zm1.85,15.632a.671.671,0,0,1-.426-.455c-.2-1.926-.408-3.852-.514-5.783a1.415,1.415,0,0,1,.607-1.128,1.53,1.53,0,0,1,1.282.213,1.857,1.857,0,0,1,.7,1.161c.251,2.061.41,4.137.614,6.328C565.028,251.474,564.313,251.4,563.609,251.259Zm.858,10.957c-.071-1.192-.137-2.324-.206-3.454-.033-.571-.095-1.14-.1-1.711a1.071,1.071,0,0,1,1.424-1.14,1.773,1.773,0,0,1,1.519,1.459c.194,1.618.265,3.251.4,5C566.407,262.313,565.471,262.266,564.467,262.216Zm3.049-12.168c-.159-1.334-.31-2.668-.467-4-.057-.488-.081-1.078.481-1.17a1.873,1.873,0,0,1,1.22.474,1.459,1.459,0,0,1,.448.91c.265,2.019.486,4.042.73,6.139C567.757,252.06,567.755,252.06,567.516,250.048Zm1.978,12.384a.608.608,0,0,1-.365-.438c-.128-1.533-.242-3.066-.32-4.6-.033-.637.322-.893.955-.784a2.118,2.118,0,0,1,1.656,1.874c.114,1.331.187,2.668.287,4.132C570.911,262.555,570.2,262.527,569.494,262.432Zm2.132-10.912c-.052-1.455-.4-2.9-.554-4.35a2.885,2.885,0,0,1,.27-1,3.37,3.37,0,0,1,.974.514,1.933,1.933,0,0,1,.448,1c.289,1.862.535,3.729.794,5.6a1.952,1.952,0,0,1-.021.329C572.332,253.353,571.674,252.823,571.626,251.519Zm1.753,9.761c-.064-1-.18-1.985-.227-2.978-.014-.244.078-.64.234-.706a.943.943,0,0,1,.813.1,1.6,1.6,0,0,1,.642.865c.232,1.419.377,2.85.559,4.328C573.479,263,573.488,263,573.379,261.28Zm1.77-7.534c-.244-1.547-.564-3.08-.839-4.622-.062-.355-.064-.72-.092-1.08l.3-.088c1.222,2.047.964,4.468,1.663,6.752C575.538,254.545,575.239,254.317,575.149,253.746Zm1.63,8.579c-.028-.964-.216-1.921-.325-2.883a6.178,6.178,0,0,1,0-.694c.109-.021.22-.04.332-.062,1.085,1.294.706,2.995,1.211,4.506C577.239,263.237,576.8,263.152,576.779,262.325Z" transform="translate(-482.571 -208.18)" fill="#f9f8f7"/>
      <path id="Path_31" data-name="Path 31" d="M379.972,250.032a20.03,20.03,0,0,0-1.838-1.748,1.733,1.733,0,0,0-.971-.389c-1.668-.043-3.336-.007-5-.04a2.166,2.166,0,0,1-2.357-1.914c-.118-.455-.13-1.04-.424-1.327-.891-.879-.284-1.54.128-2.3a6.752,6.752,0,0,0,.817-1.971,28.262,28.262,0,0,0,.322-3.637c.045-1.085-.007-1.09-1.069-1.064a114.257,114.257,0,0,0-14.5,1.175,72.485,72.485,0,0,0-18.52,5.058,26.445,26.445,0,0,0-7.252,4.383,9.653,9.653,0,0,0-.943,1.151l.666.422c-.462,1.881-.917,3.739-1.376,5.594a.633.633,0,0,1-.166.329c-.933.725-.756,1.881-1.237,2.919,1.2-.377,2.234-.734,3.286-1.026s2.123-.543,3.191-.768a182.063,182.063,0,0,1,32.541-3.544c4.729-.133,9.46-.043,14.191-.073a3.688,3.688,0,0,0,.95-.275A3.447,3.447,0,0,0,379.972,250.032Zm-49.021-2.239c-.14.708-.325,1.407-.49,2.109a16.777,16.777,0,0,0-.453,1.962c-.1.829-.538,1.23-1.476,1.372.528-1.848,1.031-3.611,1.542-5.371a.745.745,0,0,1,.23-.377,2.159,2.159,0,0,1,.5-.218C330.859,247.445,330.984,247.634,330.951,247.793Zm2.978-1.523c-.408,1.741-.772,3.5-1.32,5.2-.133.415-.891.625-1.36.931l-.171-.159c.32-1.294.635-2.585.96-3.878a15.128,15.128,0,0,1,.469-1.722,2.415,2.415,0,0,1,.64-.874.669.669,0,0,1,.6,0A.577.577,0,0,1,333.929,246.27Zm3.76-1.407c-.3,1.912-.649,3.814-1.009,5.717a.672.672,0,0,1-.431.4c-.616.178-1.251.3-2.026.471.391-2.154.732-4.179,1.14-6.191a1.594,1.594,0,0,1,1.3-1.294C337.32,243.834,337.791,244.2,337.689,244.863Zm5.819-1.414c-.211,2-.5,4-.8,5.992a.637.637,0,0,1-.438.379c-.9.154-1.815.261-2.876.405.261-1.929.5-3.722.746-5.518a6.012,6.012,0,0,1,.246-1.239,1.869,1.869,0,0,1,1.734-1.315A1.186,1.186,0,0,1,343.508,243.448Zm6.624-1.159c-.152,2.182-.381,4.357-.585,6.6-1.438.116-2.746.223-4.174.336.076-.777.145-1.485.216-2.191.149-1.488.258-2.978.457-4.456a2.243,2.243,0,0,1,2.755-1.943A1.574,1.574,0,0,1,350.132,242.29Zm7.7-.623c-.1,2.035-.246,4.07-.4,6.1-.014.185-.23.5-.358.5-1.533.036-3.068.024-4.684.024.135-2.173.237-4.409.426-6.636a2.605,2.605,0,0,1,3.205-2.4A2.259,2.259,0,0,1,357.827,241.667Zm8.846,5.7c-.009.381-.095.6-.54.6-1.763-.012-3.525,0-5.432,0,.1-2.443.1-4.878.336-7.292a2.918,2.918,0,0,1,3.345-2.4,2.836,2.836,0,0,1,2.457,2.98C366.8,243.289,366.721,245.327,366.674,247.364Z" transform="translate(-321.302 -210.914)" fill="#f9f8f7"/>
      <path id="Path_32" data-name="Path 32" d="M380.493,195.167a7.87,7.87,0,0,0-1.246-.09,1.423,1.423,0,0,1-.649-.379c-.315-.287-.554-.663-.888-.917a3.33,3.33,0,0,1-1.568-2,1.906,1.906,0,0,0-.9-1.587c-.2-.111-.216-.566-.287-.869-.13-.547-.208-1.109-.379-1.642a.655.655,0,0,0-.528-.32c-.718.036-1.436.128-2.151.216a51.543,51.543,0,0,0-15.3,4.066,26.564,26.564,0,0,0-11.689,9.553,2.809,2.809,0,0,0-.462.926c-.3,1.507-.557,3.023-.846,4.639,1.353-.787,2.528-1.538,3.762-2.175,7.946-4.108,16.489-6.226,25.286-7.446,2.587-.36,5.2-.554,7.79-.853a2.647,2.647,0,0,0,.794-.4C380.986,195.639,380.787,195.271,380.493,195.167Zm-33.358,5.97c-.09.739-.289,1.467-.346,2.206-.05.654-.346.99-1.085,1.132.358-1.471.206-3,1-4.3l.36.028A4.69,4.69,0,0,1,347.136,201.138Zm2.353,1s-1.057.628-1.642.884c.32-1.6.576-3.134.95-4.636a1.6,1.6,0,0,1,.564-.936.618.618,0,0,1,.912.2C350.445,198.1,349.488,202.135,349.488,202.135Zm4.464-1.962a.479.479,0,0,1-.254.32c-.609.256-1.232.483-2,.777.232-1.635.434-3.127.689-4.606a1.58,1.58,0,0,1,1.516-1.495c.41,0,.611.422.583.8C354.376,197.375,354.148,198.773,353.952,200.173Zm5.155-1.618c-.014.14-.223.325-.377.372-.756.232-1.523.426-2.44.673.171-1.642.284-3.149.5-4.641.118-.843.976-1.808,1.9-1.649a.91.91,0,0,1,.772.943C359.415,195.688,359.251,197.122,359.107,198.555Zm6.214-5.444c-.071,1.239-.123,2.478-.235,3.715a.823.823,0,0,1-.467.59c-.91.232-1.839.389-2.907.6.114-1.675.161-3.234.363-4.774.147-1.137,1.616-2.3,2.713-1.566A1.5,1.5,0,0,1,365.321,193.111Zm6.821,2.5a.6.6,0,0,1-.374.429c-1.125.192-2.258.341-3.338.5,0-1.694-.069-3.307.026-4.914.126-2.111,3.781-2.6,3.812-.263C372.287,192.779,372.213,194.2,372.142,195.613Z" transform="translate(-334.541 -174.076)" fill="#f9f8f7"/>
      <path id="Path_33" data-name="Path 33" d="M384.422,147.739c-.914-.46-2.037-.538-2.7-1.471a.345.345,0,0,0-.275-.085c-.787.078-.881-.493-.848-1.014a13.4,13.4,0,0,1,.614-4.141,1.631,1.631,0,0,0-.232-1.68c-.441-.578-.917-.353-1.4-.2-2.014.64-4.065,1.185-6.02,1.971a30.094,30.094,0,0,0-13.571,10.259,13.948,13.948,0,0,0-2.805,8.681,1.725,1.725,0,0,1,.227-.469,28.027,28.027,0,0,1,6.3-4.985,51.188,51.188,0,0,1,18.487-6.217c.791-.126,1.585-.244,2.464-.379C384.522,147.843,384.482,147.769,384.422,147.739ZM362.967,151c-.441-.765-.441-.765.123-1.128C363.2,150.271,363.749,150.681,362.967,151Zm1.381-1.064c-.126-.445-.723-.865.009-1.315C364.964,149.361,364.969,149.6,364.348,149.937Zm1.528-1.064c-.175-.507-.654-.976.2-1.521C366.149,147.959,366.77,148.461,365.876,148.873Zm1.438-.957c.019-.507-.772-1.289.194-1.623C368.13,147.272,368.13,147.509,367.315,147.916Zm1.763-1.118c.024-.58-.962-1.275.178-1.658C370.025,146.087,370.025,146.561,369.077,146.8Zm1.658-.948c-.566-1.014-.474-1.422.284-1.72C371.683,145.14,371.683,145.377,370.736,145.85Zm1.978-1.045c-.457-1.061-.405-1.291.391-1.533C373.536,144.457,373.5,144.6,372.714,144.806Zm1.938-.715c-.192-1.36-.156-1.45.652-1.737C375.661,143.349,375.507,143.794,374.652,144.09Zm2.09-.637c-.348-1.2-.213-1.514.63-1.457C377.644,143.254,377.566,143.434,376.741,143.453Zm2.12-.5c-.3-1.284-.171-1.6.673-1.663C379.94,142.427,379.724,142.96,378.862,142.958Z" transform="translate(-344.912 -137.153)" fill="#f9f8f7"/>
      <path id="Path_34" data-name="Path 34" d="M539.764,262.917l-15.28-.284c0,.039-.052-.1,0-.191a2.21,2.21,0,0,0,.03-2.367c-.285-.494.182-.627.588-.649,1.068-.058,2.137-.106,3.206-.158l1.031-.053c-.226-1.535-.411-3-.676-4.459a2.846,2.846,0,0,0-.6-1.1,2.948,2.948,0,0,0-3.16-1.158,2.881,2.881,0,0,0-1.914,2.68,7,7,0,0,1-.4,1.72.666.666,0,0,1-1.009.434.935.935,0,0,0-.364-.06c-1.1-.066-1.078-.07-1.317-1.179a5.084,5.084,0,0,0-.527-1.46,2.17,2.17,0,0,0-3.092-.822,5.032,5.032,0,0,1-.5.316c-.344.136-.7.233-1.057.346a3.354,3.354,0,0,1-.257-1.239c.252-1.258.593-2.5.962-3.731a.877.877,0,0,1,.651-.5c4.676.07,9.35.176,14.026.276a1.331,1.331,0,0,1,1.437,1.149c.141.823.168,1.664.288,2.49a7.385,7.385,0,0,0,.355,1.491c.608,1.648,1.292,3.268,1.863,4.928.191.555.409.864,1.008.869.522,0,1.048.1,1.565.063a1.716,1.716,0,0,1,1.688.843C538.747,261.76,539.293,262.344,539.764,262.917Z" transform="translate(-464.91 -221.112)" fill="#f9f8f7"/>
      <path id="Path_35" data-name="Path 35" d="M579.527,333.932c-.251-.419-.49-.848-.758-1.256a8.47,8.47,0,0,1-.654-.888,28.717,28.717,0,0,1-1.194-2.815,7.1,7.1,0,0,1-.344-1.945c-.107-2.277-.28-4.5-1.784-6.406a1.861,1.861,0,0,0-1.58-.855c-3.93-.04-7.861-.1-11.791-.135-.659,0-1.317.078-2.026.123.159.483.3.879.415,1.282a.89.89,0,0,0,1.092.73,2.451,2.451,0,0,1,2.67,1.812,7.944,7.944,0,0,1,.3,2.13c.043,1.642-.012,3.284.038,4.926a2.076,2.076,0,0,0,.453,1.016c.5.706,1.031,1.391,1.708,2.282.128.166.5.576.633.756,4.03-.085,8.711.294,13.154.2l.154-.225C580.008,334.657,579.529,333.939,579.527,333.932Zm-12.917-9.074c.021-1.618.779-2.753,2.023-3.04a3.146,3.146,0,0,1,3.459,1.758,3.086,3.086,0,0,1,.367,1.05c.23,2.374.422,4.75.64,7.285h-6.278c-.017-.19-.055-.448-.062-.708-.054-2.04-.1-4.082-.149-6.122C566.608,325.007,566.608,324.931,566.61,324.858Z" transform="translate(-499.214 -275.01)" fill="#f9f8f7"/>
      <path id="Path_36" data-name="Path 36" d="M324.474,309.994a3.387,3.387,0,0,1,.84-.556c2.243-.649,4.469-1.4,6.754-1.856a173.427,173.427,0,0,1,22.79-2.892c7.655-.493,15.313-.762,22.984-.589.2,0,.484-.068.58.034a5.77,5.77,0,0,1,.6.908c-.229.108-.457.311-.687.311-5.7.012-11.4-.187-17.094.047-6.112.251-12.214.828-18.306,1.408a94.935,94.935,0,0,0-14.272,2.371c-.839.212-1.638.578-2.47.826-.509.152-1.044.217-1.567.321Z" transform="translate(-319.949 -263.118)" fill="#f9f8f7"/>
      <path id="Path_37" data-name="Path 37" d="M375.453,228.529c-2.916.179-5.8.282-8.677.545-8.876.811-17.538,2.53-25.652,6.4a24.031,24.031,0,0,0-7.563,5.151c.2-.324.373-.663.593-.97a12.327,12.327,0,0,1,4.2-3.4,64.262,64.262,0,0,1,16.678-6.166,111.923,111.923,0,0,1,18.812-2.787C375.012,227.215,375.1,227.3,375.453,228.529Z" transform="translate(-326.884 -204.533)" fill="#f9f8f7"/>
      <path id="Path_38" data-name="Path 38" d="M346.263,194.389c.8-1.122,1.519-2.316,2.419-3.352a31.1,31.1,0,0,1,11.532-7.927,58.7,58.7,0,0,1,16.444-4.154c.806-.1,1.146.284,1.057,1.2-1.439.172-2.894.318-4.34.525a47.8,47.8,0,0,0-18.69,6.276,25.325,25.325,0,0,0-7.713,7.062c-.139.2-.315.376-.474.563Z" transform="translate(-336.576 -167.652)" fill="#f9f8f7"/>
      <path id="Path_39" data-name="Path 39" d="M381.576,132.5c-1.834.56-3.635,1.044-5.39,1.658a31.76,31.76,0,0,0-12.777,7.891,20.629,20.629,0,0,0-4.128,6.087,3.929,3.929,0,0,1-.2.358l-.228-.107c.5-1.094.919-2.239,1.525-3.273a28.207,28.207,0,0,1,10.95-10.332,36.758,36.758,0,0,1,8.22-3.314C380.833,131.119,380.976,131.189,381.576,132.5Z" transform="translate(-346.184 -131.29)" fill="#f9f8f7"/>
      <path id="Path_40" data-name="Path 40" d="M556.769,309.948a134.978,134.978,0,0,1,16.227.11,8.3,8.3,0,0,1-.6,1.411.974.974,0,0,1-.745.241c-2.759-.124-5.515-.323-8.276-.4-1.788-.05-3.581.048-5.371.114C556.728,311.471,556.619,311.377,556.769,309.948Z" transform="translate(-497.17 -267.474)" fill="#f9f8f7"/>
      <path id="Path_41" data-name="Path 41" d="M553.95,267.041a4.855,4.855,0,0,1,1.088-.733,2.548,2.548,0,0,1,3.267,1.983c.159.881.269,1.77.428,2.651.147.816.117.873-.737.931-.193.013-.388,0-.668,0-.069-.812-.1-1.6-.209-2.38-.248-1.713-.985-2.305-2.718-2.254-.114,0-.227,0-.341,0Z" transform="translate(-495.059 -234.224)" fill="#f9f8f7"/>
      <path id="Path_42" data-name="Path 42" d="M629.649,287.928l-.876-.1c-.045-1.008-.078-2-.138-2.985a8.255,8.255,0,0,0-.2-1.846,8.659,8.659,0,0,0-.839-1.571c.625-.45,1.376-.246,1.6.7a13.36,13.36,0,0,1,.225,2.14C629.5,285.45,629.569,286.637,629.649,287.928Z" transform="translate(-551.253 -245.684)" fill="#f9f8f7"/>
      <path id="Path_43" data-name="Path 43" d="M607.619,283.1c-.766-.083-1-.365-1.034-.9a4.468,4.468,0,0,0-.235-1.162,1.163,1.163,0,0,0-1.321-.885l-.078-.2c.311-.226.632-.645.932-.63a1.342,1.342,0,0,1,1.035.635A30.337,30.337,0,0,1,607.619,283.1Z" transform="translate(-533.977 -244.252)" fill="#f9f8f7"/>
      <path id="Path_44" data-name="Path 44" d="M634.851,337.826a3.823,3.823,0,0,1-.181-.657c-.11-1.162-.141-2.336-.317-3.487-.159-1.038-.573-1.328-1.577-1.341a.79.79,0,0,1,1.31-.232,2.309,2.309,0,0,1,.793,1.28c.175,1.446.2,2.911.289,4.368Z" transform="translate(-555.21 -284.339)" fill="#f9f8f7"/>
      <path id="Path_45" data-name="Path 45" d="M527.164,323.969c1.651.323,2.254.9,2.315,2.43.086,2.137.071,4.279.09,6.419.01,1.168,0,2.337,0,3.6l-.555.05c0-.755,0-1.448,0-2.14-.01-2.14,0-4.28-.038-6.42C528.939,325.7,528.8,325.442,527.164,323.969Z" transform="translate(-474.619 -278.32)" fill="#f9f8f7"/>
      <path id="Path_46" data-name="Path 46" d="M469.973,326.2c-1.29.323-1.584,1.334-1.647,2.412-.168,2.851-.275,5.706-.4,8.559-.012.271,0,.543,0,.9l-.843.1c.089-2.109.168-4.138.263-6.165.057-1.216.12-2.432.218-3.645A2.143,2.143,0,0,1,469.973,326.2Z" transform="translate(-428.768 -280.025)" fill="#f9f8f7"/>
      <path id="Path_47" data-name="Path 47" d="M429.486,339.736c.109-1.391.214-2.774.327-4.156q.218-2.678.447-5.355c.1-1.2.634-1.836,1.649-1.915a2.954,2.954,0,0,0-1.089,2.476c-.215,2.753-.408,5.509-.6,8.263C430.185,339.47,430.15,339.863,429.486,339.736Z" transform="translate(-400.082 -281.632)" fill="#f9f8f7"/>
      <path id="Path_48" data-name="Path 48" d="M398.539,340.184h-1.583c.147-1.033.283-2.052.437-3.068.328-2.162.669-4.322,1-6.485a1.751,1.751,0,0,1,2.194-1.568c-1.5,2.131-1.166,4.679-1.6,7.047C398.739,337.423,398.685,338.77,398.539,340.184Z" transform="translate(-375.259 -282.192)" fill="#f9f8f7"/>
      <path id="Path_49" data-name="Path 49" d="M373.4,331.544a8.6,8.6,0,0,0-.621,1.6q-.7,4.041-1.284,8.1c-.071.482-.245.648-.7.625-.291-.015-.584,0-.978,0,.233-1.231.455-2.4.674-3.566.347-1.857.679-3.717,1.04-5.572A1.317,1.317,0,0,1,373.4,331.544Z" transform="translate(-354.551 -284.027)" fill="#f9f8f7"/>
      <path id="Path_50" data-name="Path 50" d="M346.824,342.913h-1.278c.116-.62.211-1.2.332-1.768q.747-3.5,1.506-7c.235-1.09.921-1.5,1.827-1.205-.231.734-.511,1.453-.68,2.2C347.947,337.7,347.4,340.277,346.824,342.913Z" transform="translate(-336.029 -285.096)" fill="#f9f8f7"/>
      <path id="Path_51" data-name="Path 51" d="M334.354,336.817c-.1.593-.152,1.2-.291,1.778-.546,2.289-1.117,4.573-1.7,6.931h-.956c.04-.226.065-.436.115-.64.54-2.217,1.058-4.439,1.644-6.643a8.7,8.7,0,0,1,.777-1.579Z" transform="translate(-325.242 -288.007)" fill="#f9f8f7"/>
      <path id="Path_52" data-name="Path 52" d="M651.841,335.219c.55-.65,1.057-.6,1.47-.208a2.1,2.1,0,0,1,.656,1.114c.169,1.321.226,2.656.326,3.993-.57.106-.678-.133-.7-.593-.067-1.158-.153-2.319-.317-3.466C653.176,335.4,652.755,334.995,651.841,335.219Z" transform="translate(-569.758 -286.525)" fill="#f9f8f7"/>
      <path id="Path_53" data-name="Path 53" d="M647.994,290.674c-.18-2.2-.082-4.369-.8-6.445.733-.269,1.169.053,1.289,1.072.142,1.209.248,2.422.366,3.634.059.609.109,1.219.17,1.9Z" transform="translate(-566.213 -247.926)" fill="#f9f8f7"/>
      <path id="Path_54" data-name="Path 54" d="M674.173,342.964h-.623c-.228-1.7.546-3.58-.985-4.969a1.177,1.177,0,0,1,1.4,1.026,12.9,12.9,0,0,1,.2,2.139C674.2,341.728,674.173,342.3,674.173,342.964Z" transform="translate(-585.572 -289.007)" fill="#f9f8f7"/>
      <path id="Path_55" data-name="Path 55" d="M666.074,294.923c-.833.007-1.049-.39-1.114-1.11-.148-1.631-.413-3.25-.617-4.876-.015-.117.059-.337.13-.355.147-.036.4-.026.466.067a3.779,3.779,0,0,1,.494.982,6.04,6.04,0,0,1,.174,1.1C665.764,292.116,665.915,293.5,666.074,294.923Z" transform="translate(-579.296 -251.302)" fill="#f9f8f7"/>
      <path id="Path_56" data-name="Path 56" d="M682.711,295.807l.693,5.633c-.514-.238-1.2-4.641-.954-5.61Z" transform="translate(-593.076 -256.83)" fill="#f9f8f7"/>
      <path id="Path_57" data-name="Path 57" d="M690.967,345.892a1.946,1.946,0,0,1-.322-.62c-.076-.741-.046-1.495-.148-2.232a15.213,15.213,0,0,0-.476-1.8c.434-.255.717.092.782.506.212,1.337.349,2.686.515,4.03Z" transform="translate(-598.891 -291.433)" fill="#f9f8f7"/>
      <path id="Path_58" data-name="Path 58" d="M629.095,265.912c-1.209-.187-.16-1.679-1.289-1.829l.043-.178c.2-.02.452-.128.586-.045C629.2,264.334,629.08,265.113,629.095,265.912Z" transform="translate(-551.417 -232.428)" fill="#f9f8f7"/>
      <path id="Path_59" data-name="Path 59" d="M479.022,250.055a3.806,3.806,0,0,1-.454-.136c-3.647-1.6-2.988,5.423-3.023,7.095-.006.267,0,.534,0,.849h-1.2c0-1.724-.008-3.429.005-5.134a3.438,3.438,0,0,1,1.256-3.061,2.878,2.878,0,0,1,3.062-.144,3.32,3.32,0,0,1,.448.381Z" transform="translate(-434.313 -221.228)" fill="#f9f8f7"/>
      <path id="Path_60" data-name="Path 60" d="M440.1,261.3h-1.557c.132-2.079.21-4.156.418-6.219a2.128,2.128,0,0,1,1.759-1.9,1.943,1.943,0,0,1,2.142.743c-.084.042-1.99.109-2.415,1.517A19.257,19.257,0,0,0,440.1,260C440.088,260.4,440.1,260.8,440.1,261.3Z" transform="translate(-406.994 -224.249)" fill="#f9f8f7"/>
      <path id="Path_61" data-name="Path 61" d="M413.093,259.341c-1.493.344-1.775.631-1.947,2.037-.2,1.6-.338,3.207-.509,4.865l-1.43.152c.057-.591.1-1.121.159-1.65.151-1.435.287-2.871.465-4.3a1.829,1.829,0,0,1,2.291-1.643A4.948,4.948,0,0,1,413.093,259.341Z" transform="translate(-384.608 -228.542)" fill="#f9f8f7"/>
      <path id="Path_62" data-name="Path 62" d="M386.194,265.552a9.993,9.993,0,0,0-.611,1.611c-.255,1.316-.465,2.644-.619,3.975-.15,1.3-.109,1.3-1.632,1.392.184-1.041.366-2.056.544-3.072.167-.954.288-1.919.5-2.861A1.266,1.266,0,0,1,386.194,265.552Z" transform="translate(-364.863 -233.663)" fill="#f9f8f7"/>
      <path id="Path_63" data-name="Path 63" d="M361.543,279.177c.3-1.689.538-3.341.91-4.961a4.445,4.445,0,0,1,.923-1.532c.081-.106.467-.045.67.042.069.029.034.376,0,.569-.294,1.535-.634,3.063-.892,4.6C362.938,279.176,362.98,279.183,361.543,279.177Z" transform="translate(-348.236 -239.143)" fill="#f9f8f7"/>
      <path id="Path_64" data-name="Path 64" d="M350.25,280.4c.15,1.283-1.013,5.118-1.8,5.459l1.533-5.534Z" transform="translate(-338.247 -245.019)" fill="#f9f8f7"/>
      <path id="Path_65" data-name="Path 65" d="M452.577,199.924c-1.258.049-1.743.527-1.756,1.653-.013,1.065,0,2.13,0,3.234l-1.347.2a24.013,24.013,0,0,1,.207-4.817,1.6,1.6,0,0,1,1.4-1.189C451.752,198.926,452.184,199.312,452.577,199.924Z" transform="translate(-415.307 -182.952)" fill="#f9f8f7"/>
      <path id="Path_66" data-name="Path 66" d="M400.889,215.219c-.725.449-.784.643-1,1.92-.154.917-.251,1.841-.379,2.762l-1.044.251c.124-.8.23-1.61.353-2.413q.088-.573.2-1.141a3.282,3.282,0,0,1,.292-1.058,1.039,1.039,0,0,1,1.2-.582A.646.646,0,0,1,400.889,215.219Z" transform="translate(-376.412 -195.104)" fill="#f9f8f7"/>
      <path id="Path_67" data-name="Path 67" d="M365.345,231.523s-.448.308-.661,1.686c-.115.748-.278,1.5-.387,2.25l-.627.177c.1-.654.622-3.48.729-3.751.14-.357.353-.7.668-.606A.674.674,0,0,1,365.345,231.523Z" transform="translate(-349.859 -207.578)" fill="#f9f8f7"/>
      <path id="Path_68" data-name="Path 68" d="M381.641,222.824c-.608.248-.566.739-.678,1.22-.108.463-.4,3-.4,3l-.974.4s.331-2.544.384-2.792c.158-.743.215-2.108,1.06-2.146A.65.65,0,0,1,381.641,222.824Z" transform="translate(-362.01 -200.89)" fill="#f9f8f7"/>
      <path id="Path_69" data-name="Path 69" d="M601.383,331.165a2.429,2.429,0,0,1,2.677,2.07c.245,2.319.363,4.651.54,7.064l-1.642-.189c0-1.422.021-2.809-.008-4.2a17.846,17.846,0,0,0-.194-2.229A3.677,3.677,0,0,0,601.383,331.165Z" transform="translate(-531.254 -283.811)" fill="#f9f8f7"/>
      <path id="Path_70" data-name="Path 70" d="M422.379,213.065l.948-.237.237-3.317s.118-1.59.948-1.6c0,0-1.555-.539-1.792.883S422.379,213.065,422.379,213.065Z" transform="translate(-394.659 -189.679)" fill="#f9f8f7"/>
    </g>
    <g id="Group_264" data-name="Group 264" transform="translate(216.927 213.334)">
      <path id="Path_71" data-name="Path 71" d="M266.772,524.277a16.787,16.787,0,0,1-10.381-1.787,15.511,15.511,0,0,1-4.914-4.408,22.326,22.326,0,0,1-1.431-2.183c-.113-.2-.225-.4-.335-.6l-.155-.286c-.094-.173-.187-.347-.281-.522-1.787-3.314-3.46-6.692-5.331-9.955a17.812,17.812,0,0,0-9.714-8.521c-.1-.037-.208-.073-.314-.105a13.389,13.389,0,0,0,3.968-2.211,8.739,8.739,0,0,0,2.3-2.9,7.584,7.584,0,0,0,.759-3.284,7.445,7.445,0,0,0-.733-3.2,8.287,8.287,0,0,0-2.162-2.769,10.955,10.955,0,0,0-3.551-1.947,14.635,14.635,0,0,0-4.778-.731q-1.012,0-4.814.314t-4.413.316q-2.073,0-3.413-.049l-.1.834a8.062,8.062,0,0,1,2.15.48,1.962,1.962,0,0,1,1.012,1.2,10.3,10.3,0,0,1,.415,2.82q.091,1.922.037,6.015v11.173a54.454,54.454,0,0,1-.253,5.8,5.094,5.094,0,0,1-.731,2.424,3.064,3.064,0,0,1-1.644.923,3.382,3.382,0,0,0-.846.3.42.42,0,0,0-.192.38c0,.3.169.454.506.454a2.16,2.16,0,0,1,.431-.052,37.751,37.751,0,0,1,5.055-.351c.321,0,1.2.066,2.654.2q1.718.253,2.122.253c.236,0,.356-.185.356-.555,0-.185-.187-.321-.557-.4a14.082,14.082,0,0,1-2.211-.707,1.425,1.425,0,0,1-.7-.862,11.173,11.173,0,0,1-.518-3.361q-.113-2.375-.113-4.3l.049-6.064a39.77,39.77,0,0,0,5.589.316c.148,0,.293,0,.433,0,3.389.063,5.3,1.494,7.341,4.263a28.939,28.939,0,0,1,2.424,3.952c1.68,3.279,3.2,6.643,4.912,9.9.122.234.246.468.37.7l.049.091c.112.208.225.412.342.614,4.228,7.357,11.208,10.805,19.739,9.873a7.059,7.059,0,0,0,4.174-1.675c.227-.2.492-.483.525-.518C269.8,523.6,267.135,524.235,266.772,524.277ZM230.82,494.824a19.584,19.584,0,0,1-2.567.176,17.886,17.886,0,0,1-4.095-.4q0-12.188.581-13.424c.152-.419.7-.729,1.63-.923a12.658,12.658,0,0,1,2.516-.288,7.568,7.568,0,0,1,4.549,1.349,8.5,8.5,0,0,1,2.769,3.23,8.363,8.363,0,0,1,.9,3.6A6.48,6.48,0,0,1,236.064,492a5.85,5.85,0,0,1-2.467,2.042A10.663,10.663,0,0,1,230.82,494.824Z" transform="translate(-216.927 -478.57)" fill="#f9f8f7"/>
      <path id="Path_72" data-name="Path 72" d="M380.072,487.549a16.1,16.1,0,0,0-3.792-5.345,17.567,17.567,0,0,0-5.383-3.4,16.175,16.175,0,0,0-6.093-1.214,17.222,17.222,0,0,0-8.568,2.275,17.88,17.88,0,0,0-6.483,6.167,15.7,15.7,0,0,0-2.439,8.493,16.835,16.835,0,0,0,1.073,5.8,18.15,18.15,0,0,0,3.26,5.523,16.125,16.125,0,0,0,5.3,4.094,15.694,15.694,0,0,0,6.976,1.516,17.711,17.711,0,0,0,9.063-2.324,17.091,17.091,0,0,0,7.09-21.587Zm-4.12,16.254a11.043,11.043,0,0,1-4.336,4.411,11.457,11.457,0,0,1-5.523,1.426,12.94,12.94,0,0,1-7.381-2.363,17.05,17.05,0,0,1-5.561-6.306,17.725,17.725,0,0,1-2.073-8.367,14.232,14.232,0,0,1,1.693-7.053,11.741,11.741,0,0,1,4.476-4.612,11.865,11.865,0,0,1,5.963-1.579,12.337,12.337,0,0,1,5.537,1.3,14.52,14.52,0,0,1,4.638,3.666,17.543,17.543,0,0,1,3.134,5.5,19.468,19.468,0,0,1,1.124,6.622A14.71,14.71,0,0,1,375.952,503.8Z" transform="translate(-316.423 -477.589)" fill="#f9f8f7"/>
      <path id="Path_73" data-name="Path 73" d="M544.867,510.815a2.241,2.241,0,0,1-1.239-.885,4.166,4.166,0,0,1-.644-1.857q-.165-1.188-.29-3.565-.074-2.045-.127-3.424t-.089-2.249c-.023-.581-.042-1.07-.049-1.466s-.021-.8-.037-1.2l-.152-7.027q-.053-3.489.063-4.877a5.07,5.07,0,0,1,.544-2.124,2.28,2.28,0,0,1,1.239-1.024,13.911,13.911,0,0,1,2.755-.518l.052-.937q-1.139.053-3.059.051-2.326,0-4.3-.051-.632,1.391-1.869,3.743t-4.28,8.062q-3.043,5.713-3.523,6.622-2.575,4.982-3.712,6.877-2.811-5.26-4.671-8.735t-3.863-7.329q-2-3.854-2.673-5.4t-1.506-3.792c-.555,0-.977,0-1.262.012s-.588.023-.909.04c-.792,0-1.565-.026-2.324-.077s-1.574-.108-2.448-.176q-1.138-.025-1.59-.063c-.3-.026-.616-.037-.935-.037l-.1.96a12.3,12.3,0,0,1,3.425.67,3.6,3.6,0,0,1,1.921,1.832,9.015,9.015,0,0,1,.67,3.919c0,.422-.042,1.237-.127,2.45L509,502.434a52.714,52.714,0,0,1-.581,5.537,3.882,3.882,0,0,1-1.314,2.363,7.743,7.743,0,0,1-3.439,1.251l-.049.733c.234,0,.623-.014,1.162-.037s1.087-.047,1.644-.063l1.277-.04c.293-.007.618-.012.972-.012l3.059-.049a29.668,29.668,0,0,1,3.589.2l.052-.834q-3.036-.33-3.856-1.113a3.722,3.722,0,0,1-.822-2.755q0-6.395.405-12.133t.834-10.035q5.467,10.516,8.732,16.732a48.287,48.287,0,0,1,2.5,5.46q.885,2.378,1.518,4.373l.782-.049q.5-1.592,1.021-2.832t2.134-4.776q.784-1.669,2.022-4.045t2.562-4.879q1.324-2.5,2.9-5.434t2.335-4.4a75.713,75.713,0,0,1,.684,8.081l.2,6.819q.049,1.187.052,3.106a18.63,18.63,0,0,1-.405,4.507,3.439,3.439,0,0,1-1.314,2.1,10.263,10.263,0,0,1-3.034,1.1l.049.96a39.348,39.348,0,0,1,4.8-.253l3.361-.049,4.347.049v-.934A10.466,10.466,0,0,1,544.867,510.815Z" transform="translate(-435.694 -478.978)" fill="#f9f8f7"/>
      <path id="Path_74" data-name="Path 74" d="M721.635,504.812a10.643,10.643,0,0,1-2.057,3.715,6.967,6.967,0,0,1-3.457,1.872,26.2,26.2,0,0,1-6.224.581q-1.588,0-2.649-.089t-1.628-.176c-.379-.061-.78-.141-1.2-.241s-.782-.195-1.087-.279a53.762,53.762,0,0,1-.454-10.135l.1-3.589a31.618,31.618,0,0,1,4.551-.253,52.058,52.058,0,0,1,6.294.253,3.312,3.312,0,0,1,2.389,1.162,6.477,6.477,0,0,1,.693,3.235h.885q.025-2.677.037-4.75t.014-4.7l-.733-.049a14.549,14.549,0,0,1-.785,2.211,1.808,1.808,0,0,1-.745.9,5.871,5.871,0,0,1-1.529.3q-2,.2-7.355.2-3.109,0-3.717-.052,0-.14-.023-2.274-.028-2.424-.026-4.3a67.614,67.614,0,0,1,.454-7.053,62.539,62.539,0,0,1,7.76-.506,24.058,24.058,0,0,1,5.3.506q2.21.506,2.211,2.352c0,.084-.035.4-.1.935s-.1.86-.1.96c0,.253.211.38.63.38q.506,0,.836-2.174t.454-4.347q-5.513.2-8.24.2h-16.2a3.321,3.321,0,0,0-.052.658,6.493,6.493,0,0,1,2.3.757A2.571,2.571,0,0,1,699,482.77a43.809,43.809,0,0,1,.29,5.055l.176,8.039c.016.522,0,1.827-.063,3.916s-.134,3.973-.227,5.65-.19,2.837-.29,3.476a8.094,8.094,0,0,1-.255,1.328,1.421,1.421,0,0,1-.419.619,2.958,2.958,0,0,1-1.108.468q-.815.214-1.6.391l-.049.86q1.44-.078,4.523-.178t5.27-.138q2.164-.039,3.8-.037s.522.021,1.572.049q1.8.053,3.364.052,2.6,0,4.043.037t2.274.115a19.577,19.577,0,0,0,1.239-3.3,38.514,38.514,0,0,0,.885-4.359Z" transform="translate(-582.08 -478.978)" fill="#f9f8f7"/>
    </g>
    <g id="Group_265" data-name="Group 265" transform="translate(222.831 190.922)">
      <path id="Path_75" data-name="Path 75" d="M370.379,382.99l0,.948H241.849l0-.9v-.046Z" transform="translate(-241.847 -382.99)" fill="#f9f8f7"/>
    </g>
    <g id="Group_266" data-name="Group 266" transform="translate(217.657 249.493)">
      <path id="Path_76" data-name="Path 76" d="M245.98,631.631H220.009V630.21h25.284Q245.63,630.924,245.98,631.631Z" transform="translate(-220.009 -630.21)" fill="#f9f8f7"/>
      <path id="Path_77" data-name="Path 77" d="M467.126,630.21v.948H362.613c-.117-.136-.23-.273-.342-.414l-.049-.062c-.124-.156-.249-.314-.37-.472Z" transform="translate(-328.246 -630.21)" fill="#f9f8f7"/>
    </g>
    <g id="Group_267" data-name="Group 267" transform="translate(225.642 264.76)">
      <rect id="Rectangle_96" data-name="Rectangle 96" width="122.909" height="0.948" transform="translate(0 0.017)" fill="#f9f8f7"/>
    </g>
    <g id="Group_268" data-name="Group 268" transform="translate(225.642 282.199)">
      <rect id="Rectangle_97" data-name="Rectangle 97" width="122.909" height="0.948" transform="translate(0 -0.422)" fill="#f9f8f7"/>
    </g>
    <g id="Group_269" data-name="Group 269" transform="translate(216.927 196.6)">
      <path id="Path_78" data-name="Path 78" d="M217.021,407.594l-.018-.351a35.756,35.756,0,0,0,4.165-.2,9.912,9.912,0,0,1,1.3-.083,8.414,8.414,0,0,1,2.632.411,7.141,7.141,0,0,1,2.235,1.187,5.577,5.577,0,0,1,1.538,1.889,5.49,5.49,0,0,1,.559,2.5,5.681,5.681,0,0,1-.864,3.066,5.952,5.952,0,0,1-2.466,2.184,8.079,8.079,0,0,1-3.653.8q-.12,0-.73-.018t-.711-.018q-.36,0-.642,0l-.822.014q-.541.009-1.035.023t-.679.014l-.9-.018v-.351q.988,0,1.191-.434a21.981,21.981,0,0,0,.231-4.592q0-2.71-.065-4.043a4.567,4.567,0,0,0-.258-1.655Q217.787,407.567,217.021,407.594Zm10.806,5.366a5.354,5.354,0,0,0-.831-3.015,5.417,5.417,0,0,0-2.124-1.907,5.977,5.977,0,0,0-5.052-.166,30.582,30.582,0,0,0-.139,3.085q-.047,2.568-.046,4.424,0,.074.014.693t.028,1.251q.014.633.014.725.933.3,1.431.411a5.685,5.685,0,0,0,1.256.116,5.491,5.491,0,0,0,3.136-.827,4.759,4.759,0,0,0,1.769-2.11A6.788,6.788,0,0,0,227.827,412.96Z" transform="translate(-216.929 -406.957)" fill="#f9f8f7"/>
      <path id="Path_79" data-name="Path 79" d="M304.46,415.028l-1.062-1.515a14.079,14.079,0,0,1-2.023-.12l-.018,2.217q0,.7.041,1.57a4.1,4.1,0,0,0,.189,1.228.518.518,0,0,0,.254.314,5.074,5.074,0,0,0,.808.258c.135.031.2.08.2.148,0,.135-.043.2-.129.2s-.357-.031-.776-.092q-.795-.074-.97-.074a13.673,13.673,0,0,0-1.847.129.8.8,0,0,0-.157.018q-.185,0-.185-.166a.156.156,0,0,1,.069-.139,1.278,1.278,0,0,1,.309-.111,1.123,1.123,0,0,0,.6-.337,1.873,1.873,0,0,0,.268-.887,20.006,20.006,0,0,0,.092-2.12v-4.082q.018-1.5-.014-2.2a3.744,3.744,0,0,0-.152-1.03.716.716,0,0,0-.369-.439,2.95,2.95,0,0,0-.785-.176l.037-.3q.489.019,1.247.018.222,0,1.612-.115t1.759-.116a5.332,5.332,0,0,1,1.746.268,3.993,3.993,0,0,1,1.3.711,3.006,3.006,0,0,1,.79,1.011,2.714,2.714,0,0,1,.268,1.168,2.762,2.762,0,0,1-.277,1.2,3.179,3.179,0,0,1-.84,1.057,4.889,4.889,0,0,1-1.45.808l.417.628q.87,1.312,1.445,2.12a18.854,18.854,0,0,0,1.233,1.556,7.219,7.219,0,0,0,1.346,1.214,2.827,2.827,0,0,0,1.341.522q.175.028.175.185a.133.133,0,0,1-.083.125,1.132,1.132,0,0,1-.4.042,4,4,0,0,1-1.727-.393,6.65,6.65,0,0,1-1.58-1.057,11.293,11.293,0,0,1-1.33-1.395Q305.254,416.155,304.46,415.028Zm-3.029-2.17a6.525,6.525,0,0,0,1.5.148,7.276,7.276,0,0,0,.938-.064,3.9,3.9,0,0,0,1.016-.286,2.14,2.14,0,0,0,.9-.747,2.367,2.367,0,0,0,.379-1.411,3.052,3.052,0,0,0-.328-1.314A3.1,3.1,0,0,0,304.82,408a2.766,2.766,0,0,0-1.663-.493,4.588,4.588,0,0,0-.919.106q-.513.106-.6.337A26.183,26.183,0,0,0,301.431,412.858Z" transform="translate(-279.395 -407.076)" fill="#f9f8f7"/>
      <path id="Path_80" data-name="Path 80" d="M376.746,407.783v-.4q1.043.055,1.3.074.942.037,1.265.037.111,0,.96-.037t1.6-.074v.434a4.567,4.567,0,0,0-1.108.088.728.728,0,0,0-.444.346,16.385,16.385,0,0,0-.3,4.446q0,2.662,0,3.369t.032,1.511a3.849,3.849,0,0,0,.1.915.661.661,0,0,0,.453.4,3.927,3.927,0,0,0,1.191.144l-.037.351q-.13,0-.513-.014t-.794-.023l-.633-.014c-.148,0-.317,0-.508,0q-.407,0-.679,0l-.725.014q-.453.009-.817.023c-.244.009-.39.014-.439.014l-.018-.351a3.945,3.945,0,0,0,1.349-.231.934.934,0,0,0,.48-.563,7.1,7.1,0,0,0,.236-1.887q.05-1.389.051-2.93,0-1.393-.092-4.005a3.645,3.645,0,0,0-.143-1.029.8.8,0,0,0-.517-.457A4.032,4.032,0,0,0,376.746,407.783Z" transform="translate(-338.798 -407.284)" fill="#f9f8f7"/>
      <path id="Path_81" data-name="Path 81" d="M426.022,407.563l.046-.333.748.018,1.515.055q.212-.009.388-.014t.526,0l.924.018.018.3a6.716,6.716,0,0,0-1,.111.228.228,0,0,0-.189.231,4.843,4.843,0,0,0,.384,1.21q.383.961.943,2.212t.809,1.806l1.295,2.78.259.526q.259.536.379.794.313-.554.747-1.436t.816-1.7q.383-.822.42-.905l1.208-2.651q.268-.582.531-1.27a3.25,3.25,0,0,0,.263-.984q0-.609-1.016-.693l.055-.379q1.062.093,2.18.092l.526-.014q.231,0,.582,0v.259a3.17,3.17,0,0,0-.914.439,2.639,2.639,0,0,0-.61.753q-.3.517-1.044,2.013l-2.075,4.138q-.59,1.145-1.167,2.512a9.168,9.168,0,0,0-.669,2.032l-.288.037a11.593,11.593,0,0,0-.471-1.154l-.628-1.385q-.287-.739-.776-1.755l-1.552-3.279a33.018,33.018,0,0,0-2.061-3.953,1.051,1.051,0,0,0-.452-.319A2.531,2.531,0,0,0,426.022,407.563Z" transform="translate(-376.484 -407.165)" fill="#f9f8f7"/>
      <path id="Path_82" data-name="Path 82" d="M518.5,416.59h.286a14.236,14.236,0,0,1-.323,1.593,7.163,7.163,0,0,1-.453,1.205q-.3-.028-.831-.042t-1.478-.014q-.573,0-1.228-.018t-.563-.018q-.6,0-1.4.014t-1.926.051q-1.127.037-1.653.065l.018-.314q.289-.064.586-.143a1.074,1.074,0,0,0,.4-.171.518.518,0,0,0,.154-.226,2.843,2.843,0,0,0,.093-.485q.056-.351.107-1.27t.083-2.064q.032-1.145.023-1.431l-.065-2.937a15.968,15.968,0,0,0-.106-1.847.94.94,0,0,0-.3-.637,2.38,2.38,0,0,0-.84-.277,1.248,1.248,0,0,1,.018-.24h5.92q1,0,3.011-.074-.047.795-.166,1.589t-.3.794q-.231,0-.231-.139c0-.037.012-.154.037-.351s.037-.311.037-.342q0-.674-.808-.859a8.807,8.807,0,0,0-1.935-.185,22.905,22.905,0,0,0-2.835.185,24.591,24.591,0,0,0-.166,2.577q0,.684.009,1.57t.009.831q.222.019,1.358.018,1.958,0,2.688-.074a2.16,2.16,0,0,0,.559-.111.661.661,0,0,0,.272-.328,5.3,5.3,0,0,0,.286-.808l.268.018q0,.961,0,1.718t-.014,1.736h-.323a2.37,2.37,0,0,0-.254-1.182,1.209,1.209,0,0,0-.873-.425,19.084,19.084,0,0,0-2.3-.092,11.59,11.59,0,0,0-1.662.092l-.037,1.312a19.559,19.559,0,0,0,.166,3.7c.111.031.243.065.4.1s.3.066.438.088.336.043.595.065.581.032.969.032a9.531,9.531,0,0,0,2.274-.213,2.543,2.543,0,0,0,1.263-.684A3.883,3.883,0,0,0,518.5,416.59Z" transform="translate(-439.755 -407.225)" fill="#f9f8f7"/>
      <path id="Path_83" data-name="Path 83" d="M584.071,415.028l-1.062-1.515a14.08,14.08,0,0,1-2.023-.12l-.018,2.217q0,.7.041,1.57a4.089,4.089,0,0,0,.19,1.228.517.517,0,0,0,.254.314,5.062,5.062,0,0,0,.808.258c.135.031.2.08.2.148,0,.135-.043.2-.129.2s-.357-.031-.776-.092q-.795-.074-.97-.074a13.673,13.673,0,0,0-1.847.129.8.8,0,0,0-.157.018q-.185,0-.185-.166a.156.156,0,0,1,.069-.139,1.283,1.283,0,0,1,.309-.111,1.122,1.122,0,0,0,.6-.337,1.873,1.873,0,0,0,.268-.887,20.006,20.006,0,0,0,.092-2.12v-4.082q.018-1.5-.014-2.2a3.751,3.751,0,0,0-.152-1.03.717.717,0,0,0-.37-.439,2.95,2.95,0,0,0-.785-.176l.037-.3q.489.019,1.247.018.222,0,1.612-.115t1.759-.116a5.332,5.332,0,0,1,1.746.268,3.99,3.99,0,0,1,1.3.711,3.006,3.006,0,0,1,.79,1.011,2.711,2.711,0,0,1,.268,1.168,2.762,2.762,0,0,1-.277,1.2,3.174,3.174,0,0,1-.84,1.057,4.89,4.89,0,0,1-1.45.808l.417.628q.87,1.312,1.445,2.12a18.892,18.892,0,0,0,1.233,1.556,7.226,7.226,0,0,0,1.346,1.214,2.827,2.827,0,0,0,1.341.522q.175.028.175.185a.133.133,0,0,1-.083.125,1.13,1.13,0,0,1-.4.042,4,4,0,0,1-1.727-.393,6.652,6.652,0,0,1-1.579-1.057,11.3,11.3,0,0,1-1.33-1.395Q584.865,416.155,584.071,415.028Zm-3.029-2.17a6.528,6.528,0,0,0,1.5.148,7.271,7.271,0,0,0,.937-.064,3.9,3.9,0,0,0,1.016-.286,2.14,2.14,0,0,0,.9-.747,2.367,2.367,0,0,0,.379-1.411,3.051,3.051,0,0,0-.328-1.314,3.1,3.1,0,0,0-1.011-1.18,2.766,2.766,0,0,0-1.662-.493,4.588,4.588,0,0,0-.919.106q-.512.106-.6.337A26.145,26.145,0,0,0,581.041,412.858Z" transform="translate(-492.761 -407.076)" fill="#f9f8f7"/>
      <path id="Path_84" data-name="Path 84" d="M700.676,407.783v-.4q1.043.055,1.3.074.942.037,1.265.037.111,0,.96-.037t1.6-.074v.434a4.57,4.57,0,0,0-1.108.088.728.728,0,0,0-.443.346,16.388,16.388,0,0,0-.3,4.446q0,2.662,0,3.369t.033,1.511a3.852,3.852,0,0,0,.1.915.661.661,0,0,0,.453.4,3.928,3.928,0,0,0,1.191.144l-.037.351q-.13,0-.513-.014t-.794-.023l-.633-.014q-.222,0-.508,0-.407,0-.679,0l-.725.014q-.452.009-.817.023t-.439.014l-.018-.351a3.942,3.942,0,0,0,1.348-.231.932.932,0,0,0,.48-.563,7.1,7.1,0,0,0,.236-1.887q.051-1.389.051-2.93,0-1.393-.092-4.005a3.653,3.653,0,0,0-.143-1.029.8.8,0,0,0-.517-.457A4.033,4.033,0,0,0,700.676,407.783Z" transform="translate(-585.983 -407.284)" fill="#f9f8f7"/>
      <path id="Path_85" data-name="Path 85" d="M750.459,407.646v-.379l1.062.069q.231.014.545,0l.794-.018q.555.7,1.3,1.487t1.676,1.685q.928.9,1.048,1.021l5.449,5.172q.074-1.154.074-3.5V411.4q0-1.422-.069-2.143a2.785,2.785,0,0,0-.263-1.062.971.971,0,0,0-.508-.457,6.362,6.362,0,0,0-1.053-.236l.1-.259a3.762,3.762,0,0,1,.453-.018q.286,0,.573.009t.674.046q.231.019.48.018h.406l1.173-.018.018.314a1.864,1.864,0,0,0-.794.258.984.984,0,0,0-.342.582,19.733,19.733,0,0,0-.236,2.965q-.069,2.208-.069,4.2,0,.785.014,1.506t.032,1.293q.018.573.055,1.062l-.379-.018a18.455,18.455,0,0,0-3.842-4.36l-3.464-3.232q-.176-.129-.854-.767t-1.713-1.6l-.12,5.656a14.345,14.345,0,0,0,.074,2.44,1.214,1.214,0,0,0,.526.923,5.94,5.94,0,0,0,1.542.447,1.5,1.5,0,0,1-.037.351q-.148,0-.887-.037-.758-.037-.915-.037t-1.016.037l-.4.028-.647.046a.289.289,0,0,1-.189-.051.212.212,0,0,1-.06-.171q0-.139.046-.166a.61.61,0,0,1,.2-.046,1.641,1.641,0,0,0,.586-.148.719.719,0,0,0,.291-.388,3.529,3.529,0,0,0,.162-.91q.05-.624.061-1.6l.063-4.405a20.169,20.169,0,0,0-.055-2.152,2.168,2.168,0,0,0-.416-1.136A1.647,1.647,0,0,0,750.459,407.646Z" transform="translate(-624.057 -407.165)" fill="#f9f8f7"/>
    </g>
    <text id="TRANSPORTATION_TOURS" data-name="TRANSPORTATION &amp; TOURS" transform="translate(225.535 276.777)" fill="#f9f8f7" font-size="8" font-family="SegoeUI, Segoe UI" letter-spacing="0.1em"><tspan x="0" y="0">TRANSPORTATION &amp; TOURS</tspan></text>
  </g>
</svg>
