<svg xmlns="http://www.w3.org/2000/svg" width="22.493" height="29.991" viewBox="0 0 22.493 29.991">
  <g id="Group_318" data-name="Group 318" transform="translate(-412 -145)">
    <g id="Group_315" data-name="Group 315" transform="translate(412 145)">
      <g id="Group_314" data-name="Group 314">
        <path id="Path_121" data-name="Path 121" d="M423.247,145A11.26,11.26,0,0,0,412,156.247c0,5.806,9.234,17.034,10.288,18.3a1.25,1.25,0,0,0,1.918,0c1.053-1.262,10.288-12.489,10.288-18.3A11.26,11.26,0,0,0,423.247,145Zm0,26.76c-3.11-3.916-8.747-11.787-8.747-15.513a8.747,8.747,0,0,1,17.495,0C431.994,159.973,426.357,167.843,423.247,171.76Z" transform="translate(-412 -145)"/>
      </g>
    </g>
    <g id="Group_317" data-name="Group 317" transform="translate(416.999 149.999)">
      <g id="Group_316" data-name="Group 316">
        <path id="Path_122" data-name="Path 122" d="M482.248,209a6.248,6.248,0,1,0,4.472,10.611,1.25,1.25,0,0,0-1.789-1.745A3.749,3.749,0,1,1,486,215.248a1.25,1.25,0,1,0,2.5,0A6.255,6.255,0,0,0,482.248,209Z" transform="translate(-476 -209)"/>
      </g>
    </g>
  </g>
</svg>
