<svg xmlns="http://www.w3.org/2000/svg" width="100" height="87.913" viewBox="0 0 100 87.913"><defs><style>.a{fill:#ffeacb;fill-rule:evenodd;opacity:0.37;}</style></defs><path class="a" d="M178.777,3078.052c-4.445,0-8.889-3.845-11.111-5.491-11.111-7.69-14.445-10.44-16.667-12.086v23.078a5.524,5.524,0,0,0,5.556,5.491H201a5.523,5.523,0,0,0,5.556-5.491v-23.078c-2.222,1.646-5.556,4.4-16.666,12.086C187.666,3074.207,183.222,3078.052,178.777,3078.052ZM201,3045.087H156.555a5.524,5.524,0,0,0-5.556,5.491v2.75c4.445,3.293,3.889,3.293,20,14.836,1.666,1.095,5,4.4,7.778,4.4s6.111-3.3,7.778-3.845c16.111-11.543,15.556-11.543,20-14.836v-3.3A5.523,5.523,0,0,0,201,3045.087Zm44.444-16.483H189.888a5.523,5.523,0,0,0-5.556,5.492v5.491H201a11.086,11.086,0,0,1,11.061,9.931l.051-.035v23.077h33.332a5.527,5.527,0,0,0,5.555-5.491V3034.1a5.523,5.523,0,0,0-5.556-5.491Zm-5.555,21.974H228.777v-10.991h11.111Zm-61.111-16.483a11.064,11.064,0,0,1,11.111-10.991h38.888v-16.482a5.523,5.523,0,0,0-5.555-5.492H167.666a5.522,5.522,0,0,0-5.555,5.491v32.965h16.666Z" transform="translate(-150.999 -3001.13)"/></svg>