<svg id="logo-white" xmlns="http://www.w3.org/2000/svg" width="244.358" height="60" viewBox="0 0 244.358 60">
  <path id="Path_24" data-name="Path 24" d="M297.622,98.6h24.738v4.615h-9.727v25.945h-5.349V103.215H297.6V98.6Zm23.681,8.433h4.572v4.27h.086a5.016,5.016,0,0,1,.841-1.747A7.775,7.775,0,0,1,328.29,108a7.932,7.932,0,0,1,1.941-1.143,5.939,5.939,0,0,1,2.178-.431c.561,0,.971.022,1.186.043s.431.065.669.086v4.7c-.345-.065-.69-.108-1.057-.151a8.961,8.961,0,0,0-1.057-.065,5.716,5.716,0,0,0-2.329.5,5.367,5.367,0,0,0-1.9,1.445,7.338,7.338,0,0,0-1.294,2.372,10.054,10.054,0,0,0-.474,3.257v10.525h-4.874V107.033Zm35.37,22.128h-4.788v-3.084H351.8a6.648,6.648,0,0,1-2.674,2.674,7.316,7.316,0,0,1-3.623,1.014c-2.912,0-5.025-.712-6.319-2.157s-1.941-3.623-1.941-6.535v-14.04h4.874V120.6c0,1.941.367,3.321,1.121,4.119a4.061,4.061,0,0,0,3.127,1.208,6,6,0,0,0,2.566-.474,4.329,4.329,0,0,0,1.661-1.272,4.885,4.885,0,0,0,.927-1.9,9.347,9.347,0,0,0,.28-2.394V107.054h4.874Zm8.3-7.1a3.754,3.754,0,0,0,1.618,3,6.526,6.526,0,0,0,3.386.863,14.484,14.484,0,0,0,1.553-.108,6.522,6.522,0,0,0,1.639-.41,3.152,3.152,0,0,0,1.273-.884,2.145,2.145,0,0,0,.453-1.51,2.084,2.084,0,0,0-.69-1.531,4.86,4.86,0,0,0-1.639-.971,16.456,16.456,0,0,0-2.286-.625c-.863-.173-1.725-.367-2.61-.561a24.77,24.77,0,0,1-2.631-.733,8.034,8.034,0,0,1-2.265-1.165,5.121,5.121,0,0,1-1.6-1.855,5.8,5.8,0,0,1-.6-2.8,5.054,5.054,0,0,1,.884-3.019,6.7,6.7,0,0,1,2.221-1.963,10.3,10.3,0,0,1,3-1.057,18.253,18.253,0,0,1,3.149-.3,14.682,14.682,0,0,1,3.278.367,8.451,8.451,0,0,1,2.825,1.186,6.987,6.987,0,0,1,2.092,2.114,7.358,7.358,0,0,1,1.057,3.149h-5.09a3.035,3.035,0,0,0-1.6-2.351,6.538,6.538,0,0,0-2.89-.6,9.072,9.072,0,0,0-1.229.086,6.729,6.729,0,0,0-1.337.324,2.9,2.9,0,0,0-1.057.69,1.668,1.668,0,0,0-.431,1.186,1.844,1.844,0,0,0,.625,1.445,5.232,5.232,0,0,0,1.618.927,16.45,16.45,0,0,0,2.286.625c.863.173,1.747.367,2.653.561.884.194,1.747.453,2.61.733a7.877,7.877,0,0,1,2.286,1.165,5.742,5.742,0,0,1,1.618,1.833,5.59,5.59,0,0,1,.625,2.739,5.959,5.959,0,0,1-.906,3.343,7.17,7.17,0,0,1-2.329,2.221,10.951,10.951,0,0,1-3.192,1.251,16.015,16.015,0,0,1-3.472.388,14.73,14.73,0,0,1-3.882-.474,9.451,9.451,0,0,1-3.084-1.423,7.059,7.059,0,0,1-2.049-2.394,7.859,7.859,0,0,1-.8-3.408h4.917Zm16.089-15.032h3.688V100.39h4.874v6.643h4.4v3.645h-4.4V122.5a12.045,12.045,0,0,0,.065,1.337,2.459,2.459,0,0,0,.3.949,1.383,1.383,0,0,0,.712.582,3.476,3.476,0,0,0,1.294.194c.345,0,.69,0,1.035-.022a5.709,5.709,0,0,0,1.035-.151v3.774c-.539.065-1.078.108-1.574.173a12.606,12.606,0,0,1-1.574.086,10.91,10.91,0,0,1-3.106-.367,4.03,4.03,0,0,1-1.833-1.078,3.743,3.743,0,0,1-.906-1.769,13.292,13.292,0,0,1-.28-2.437V110.721h-3.688v-3.688Zm16.413,0h4.615v3h.086a6.022,6.022,0,0,1,2.868-2.761,9.452,9.452,0,0,1,3.99-.841,10.328,10.328,0,0,1,4.551.927,8.894,8.894,0,0,1,3.235,2.523,11.041,11.041,0,0,1,1.92,3.753,15.727,15.727,0,0,1,.647,4.572,15.894,15.894,0,0,1-.582,4.313,11.545,11.545,0,0,1-1.747,3.71,8.577,8.577,0,0,1-2.976,2.566,8.828,8.828,0,0,1-4.249.971,11.917,11.917,0,0,1-2.135-.194,9.4,9.4,0,0,1-2.049-.625,7.4,7.4,0,0,1-1.812-1.1,6.832,6.832,0,0,1-1.4-1.553h-.086v11.042h-4.874Zm17.038,11.086a11.02,11.02,0,0,0-.388-2.912,7.854,7.854,0,0,0-1.165-2.5,5.934,5.934,0,0,0-1.919-1.747,5.924,5.924,0,0,0-7.29,1.467,9.475,9.475,0,0,0-1.553,5.694,10.93,10.93,0,0,0,.41,3.106,6.935,6.935,0,0,0,1.229,2.459,5.82,5.82,0,0,0,1.941,1.618,6.083,6.083,0,0,0,5.457-.086,5.966,5.966,0,0,0,1.9-1.769,7.35,7.35,0,0,0,1.078-2.48,13.863,13.863,0,0,0,.3-2.847ZM423.122,98.6H428v4.615h-4.874Zm0,8.433H428v22.128h-4.874Zm9.231-8.433h4.874v30.561h-4.874V98.6Zm19.82,31.165a12.054,12.054,0,0,1-4.723-.884,9.9,9.9,0,0,1-5.694-6.1,14.235,14.235,0,0,1-.755-4.7,14.068,14.068,0,0,1,.755-4.659,10.519,10.519,0,0,1,2.178-3.688,9.933,9.933,0,0,1,3.515-2.416,13.057,13.057,0,0,1,9.447,0,9.9,9.9,0,0,1,5.694,6.1,14.066,14.066,0,0,1,.755,4.659,14.233,14.233,0,0,1-.755,4.7,10.517,10.517,0,0,1-2.178,3.688,9.932,9.932,0,0,1-3.515,2.416A12.055,12.055,0,0,1,452.173,129.765Zm0-3.861a5.652,5.652,0,0,0,2.825-.69,6.013,6.013,0,0,0,1.963-1.79,8.036,8.036,0,0,0,1.143-2.5,11.151,11.151,0,0,0,0-5.672,7.379,7.379,0,0,0-1.143-2.5A5.949,5.949,0,0,0,455,110.98a6.128,6.128,0,0,0-5.651,0,6.193,6.193,0,0,0-1.963,1.769,7.814,7.814,0,0,0-1.143,2.5,11.151,11.151,0,0,0,0,5.672,7.575,7.575,0,0,0,1.143,2.5,6.012,6.012,0,0,0,1.963,1.79,5.436,5.436,0,0,0,2.825.69Zm12.6-18.871h3.688V100.39h4.874v6.643h4.4v3.645h-4.4V122.5a12.059,12.059,0,0,0,.065,1.337,2.459,2.459,0,0,0,.3.949,1.384,1.384,0,0,0,.712.582,3.476,3.476,0,0,0,1.294.194c.345,0,.69,0,1.035-.022a5.71,5.71,0,0,0,1.035-.151v3.774c-.539.065-1.078.108-1.574.173a12.609,12.609,0,0,1-1.575.086,10.909,10.909,0,0,1-3.106-.367,4.03,4.03,0,0,1-1.833-1.078,3.743,3.743,0,0,1-.906-1.769,13.3,13.3,0,0,1-.28-2.437V110.721h-3.688v-3.688Z" transform="translate(-233.416 -77.335)" fill="#fff"/>
  <path id="Path_25" data-name="Path 25" d="M58.512,21.265H36.168L29.267,0,22.344,21.265,0,21.244,18.095,34.4,11.172,55.644,29.267,42.509,47.34,55.644,40.439,34.4Z" fill="#00b67a"/>
  <path id="Path_26" data-name="Path 26" d="M148.425,164.31l-1.553-4.81L135.7,167.609Z" transform="translate(-106.433 -125.1)" fill="#005128"/>
</svg>
