<?xml version="1.0" standalone="no"?>
<!DOCTYPE svg PUBLIC "-//W3C//DTD SVG 1.1//EN" "http://www.w3.org/Graphics/SVG/1.1/DTD/svg11.dtd" >
<svg xmlns="http://www.w3.org/2000/svg" xmlns:xlink="http://www.w3.org/1999/xlink" version="1.1">
<metadata>
Created by FontForge 20201107 at Fri Oct 25 12:48:03 2024
 By 
(c) 2011 Adobe Systems Incorporated. All rights reserved.
</metadata>
<defs>
<font id="TrajanPro3-Regular" horiz-adv-x="1658" >
  <font-face 
    font-family="Trajan Pro 3"
    font-weight="400"
    font-stretch="normal"
    units-per-em="2048"
    panose-1="2 2 5 2 5 5 3 2 3 1"
    ascent="1536"
    descent="-512"
    x-height="1311"
    cap-height="1542"
    bbox="-508.5 -842 3949 2144"
    underline-thickness="102"
    underline-position="-204"
    unicode-range="U+0020-FB02"
  />
<missing-glyph horiz-adv-x="1050" 
d="M0 0v1454h1051v-1454h-1051zM168 104h715l-357 529zM588 727l356 -530v1060zM106 1257v-1060l357 530zM168 1350l358 -529l357 529h-715z" />
    <glyph glyph-name=".notdef" horiz-adv-x="1050" 
d="M0 0v1454h1051v-1454h-1051zM168 104h715l-357 529zM588 727l356 -530v1060zM106 1257v-1060l357 530zM168 1350l358 -529l357 529h-715z" />
    <glyph glyph-name=".null" horiz-adv-x="0" 
 />
    <glyph glyph-name="nonmarkingreturn" horiz-adv-x="682" 
 />
    <glyph glyph-name="space" unicode=" " horiz-adv-x="665" 
 />
    <glyph glyph-name="exclam" unicode="!" horiz-adv-x="737" 
d="M406 377q-26 0 -29 69q-29 451 -33 523q-20 310 -39 385q-8 32 -8 39q0 11 10 28q24 41 89.5 95.5t105.5 54.5q12 0 12 -21q0 -4 -4.5 -39t-11.5 -100t-11 -131q-2 -29 -28 -416t-29 -422q-4 -65 -24 -65zM410 -35q-50 0 -76.5 32.5t-26.5 72.5q0 38 27 71t78 33
q45 0 74.5 -27t29.5 -71q0 -47 -30 -79t-76 -32z" />
    <glyph glyph-name="quotedbl" unicode="&#x22;" horiz-adv-x="751" 
d="M205 1679q88 0 88 -28q0 -2 -12 -48t-28.5 -152t-25.5 -245q-3 -43 -20 -43q-18 0 -21 43q-8 140 -25 246t-29.5 152t-12.5 47q0 28 86 28zM545 1679q88 0 88 -28q0 -3 -12 -48.5t-28.5 -150.5t-25.5 -242q-3 -47 -20 -47q-18 0 -21 45q-8 139 -25 244.5t-29.5 151.5
t-12.5 47q0 28 86 28z" />
    <glyph glyph-name="numbersign" unicode="#" horiz-adv-x="1210" 
d="M1124 942h-252l-47 -336h238v-114h-254l-72 -492h-71l71 492h-334l-73 -492h-72l74 492h-246v114h262l51 336h-247v115h264l73 487h74l-74 -487h330l70 487h72l-70 -487h233v-115zM754 606l47 336h-328l-51 -336h332z" />
    <glyph glyph-name="dollar" unicode="$" horiz-adv-x="1169" 
d="M711 1483l-56 -606q70 -46 115.5 -79.5t95.5 -80t78 -89.5t47 -100t19 -120q0 -83 -27.5 -152t-71.5 -114t-102.5 -77t-116.5 -47t-117 -18l-16 -168q-2 -11 -10 -14l-53 -13q-13 0 -11 19l17 176q-159 6 -269 53q-38 17 -47.5 29.5t-9.5 44.5q0 119 19 242q3 19 9.5 29
t12.5 10q13 0 10 -46q-5 -120 56 -190q74 -87 225 -96l61 657q-200 134 -274 228.5t-74 224.5q0 174 117 267t307 101l14 164q0 16 13 19l47 14q16 3 16 -10l-16 -189q55 -2 225 -30q19 -4 19 -33q0 -161 -9 -240q-2 -20 -16 -20q-16 0 -16 31q0 34 -9.5 67t-31.5 66
t-66 57.5t-104 32.5zM586 924l53 563q-50 -2 -94.5 -13.5t-89 -37t-71 -76t-26.5 -121.5q0 -90 47.5 -157t180.5 -158zM637 686l-55 -612q136 7 207 85.5t71 202.5q0 94 -54 169t-169 155z" />
    <glyph glyph-name="percent" unicode="%" horiz-adv-x="1781" 
d="M1325 0q-85 0 -153 33.5t-107 87t-59.5 115t-20.5 124.5q0 73 21 141t62 125t111 91.5t160 34.5q67 0 124.5 -22t96.5 -58.5t66.5 -83.5t40 -97t12.5 -100q0 -72 -21.5 -140t-63 -125t-111.5 -91.5t-158 -34.5zM1333 57q76 0 126.5 43t71.5 109.5t21 152.5
q0 83 -24.5 157t-77 124.5t-121.5 50.5q-110 0 -163.5 -85t-53.5 -220q0 -84 23 -157.5t75 -124t123 -50.5zM614 -8l-104 -17q-10 -1 -13.5 4.5t1.5 14.5q244 547 647 1509q-85 -5 -252 -17.5t-231 -15.5v-4q59 -44 96 -121t37 -171q0 -72 -21.5 -140t-63.5 -125.5
t-111.5 -92t-156.5 -34.5q-69 0 -126.5 22.5t-96 58.5t-66 83.5t-39.5 97t-12 99.5q0 73 23 142t66 125.5t115 91t161 34.5q75 0 176 4.5t201 11t179.5 13t150 12.5t73.5 6q13 0 13 -8q0 -4 -3 -11.5t-9 -21.5t-11 -26l-602 -1500q-6 -14 -10 -18.5t-11 -5.5zM451 840
q111 0 164 85.5t53 219.5q0 83 -24.5 157.5t-76.5 125.5t-121 51q-110 0 -163.5 -86.5t-53.5 -221.5q0 -62 14 -119.5t40.5 -105.5t70 -77t97.5 -29z" />
    <glyph glyph-name="ampersand" unicode="&#x26;" horiz-adv-x="1681" 
d="M600 -35q-103 0 -189 30t-141.5 78t-94.5 109t-56 120.5t-17 115.5q0 87 25.5 164.5t70.5 138t97.5 107t116.5 83.5q-97 135 -97 283q0 62 31 127.5t86 121.5t140.5 92t183.5 36q145 0 229 -41q30 -14 37.5 -26t7.5 -36q0 -142 -12 -221q-8 -49 -23 -49q-7 0 -9.5 7.5
t-2.5 31.5q0 108 -63 174q-83 90 -205 90q-48 0 -92.5 -15t-83 -46t-61.5 -84.5t-23 -122.5q0 -47 14 -94.5t37 -91t67 -101.5t88.5 -108.5t116.5 -128.5q50 -55 192.5 -189t194.5 -178q45 61 75 155t30 185q0 61 -39 100q-22 22 -84 31q-41 7 -41 16q0 15 33 15
q101 0 245 -15q37 -5 37 -41q0 -115 -62 -251t-140 -232q146 -124 282 -203q55 -32 121.5 -55.5t118.5 -23.5q33 0 33 -15q0 -14 -29 -14q-43 0 -102 -1.5t-97 -1.5t-67 3q-85 7 -163.5 43t-207.5 139q-25 -25 -42.5 -41t-68.5 -52t-101.5 -58.5t-130 -41t-165.5 -18.5z
M674 78q248 0 383 139q-77 65 -197.5 181.5t-171.5 170.5q-185 199 -246 289q-172 -114 -172 -344q0 -190 115.5 -313t288.5 -123z" />
    <glyph glyph-name="quotesingle" unicode="'" horiz-adv-x="411" 
d="M205 1679q88 0 88 -28q0 -2 -12 -48t-28.5 -152t-25.5 -245q-3 -43 -20 -43q-18 0 -21 43q-8 140 -25 246t-29.5 152t-12.5 47q0 28 86 28z" />
    <glyph glyph-name="parenleft" unicode="(" horiz-adv-x="768" 
d="M279 719q0 -575 323 -907l4 -6q5 -6 7 -10t4 -9.5t-0.5 -8.5t-10.5 -3q-5 0 -24 14q-57 43 -110.5 93t-119 135t-113 178.5t-80 225.5t-32.5 275q0 141 35 274t84.5 228.5t117 183t118.5 137t104 91.5q20 12 26 12q14 0 -10 -30q-2 -2 -2 -3q-62 -66 -116 -149
t-101.5 -191t-75.5 -245t-28 -285z" />
    <glyph glyph-name="parenright" unicode=")" horiz-adv-x="796" 
d="M520 678q0 575 -323 907q-8 8 -13.5 20t6.5 17q8 0 27 -14q57 -43 110.5 -93t119 -135t113 -179t80 -226t32.5 -275q0 -141 -35 -274t-84.5 -228t-117 -183t-118.5 -137t-104 -91q-20 -12 -27 -12q-14 0 10 29q3 2 3 3q62 66 116 149t101.5 191.5t75.5 245.5t28 285z" />
    <glyph glyph-name="asterisk" unicode="*" horiz-adv-x="716" 
d="M424 1632q0 -38 -17.5 -119.5t-37.5 -140.5q-3 -9 -1 -13t11 -1q60 16 116.5 53t75.5 59q19 15 21 15q11 0 34 -50t23 -79q0 -14 -24 -19q-20 -5 -236 -12q-10 0 -12 -2.5t2 -11.5q19 -33 84.5 -84.5t89.5 -61.5q13 -6 16.5 -8.5t3.5 -7.5q0 -24 -40 -63t-64 -39
q-13 0 -29 28q-17 30 -46.5 101t-41.5 110q-9 17 -16 6q-10 -17 -37.5 -74t-40.5 -96q-8 -20 -12 -47q0 -10 -25 -10q-39 0 -69.5 5t-45 12t-14.5 14q0 9 14 28q24 33 205 187q13 13 -2 18q-47 14 -172 14q-17 0 -31.5 -3t-15.5 -3q-10 0 -16 50t-6 88q0 16 20 16
q27 0 83.5 -32t89 -55.5t58.5 -43.5q6 -5 12.5 -2t6.5 14q1 20 -16 83.5t-39 117.5q-7 16 -7 22q0 15 51.5 37.5t80.5 22.5q16 0 16 -23z" />
    <glyph glyph-name="plus" unicode="+" horiz-adv-x="1353" 
d="M1161 684h-428v-455h-108v455h-432v107h430v440h108v-440h430v-107z" />
    <glyph glyph-name="comma" unicode="," horiz-adv-x="540" 
d="M188 113q0 37 41.5 77.5t79.5 40.5q26 0 50 -42t24 -99q0 -126 -160 -295q-40 -43 -55 -43q-23 1 14 49q47 66 63.5 106.5t16.5 78.5q0 53 -57 102q-17 14 -17 25z" />
    <glyph glyph-name="hyphen" unicode="-" horiz-adv-x="706" 
d="M141 741h443q22 0 33.5 -2t14.5 -5t3 -9q0 -17 -68 -31q-31 -6 -106 -18.5t-117.5 -20.5t-96 -19.5t-85.5 -21.5q-16 -5 -35.5 -11.5t-30 -9.5t-14.5 -3q-12 0 -8 28l26 107q3 10 11 13t30 3z" />
    <glyph glyph-name="period" unicode="." horiz-adv-x="512" 
d="M256 -16q-50 0 -78 33.5t-28 74.5t28.5 75t79.5 34q45 0 74.5 -30t29.5 -77t-30 -78.5t-76 -31.5z" />
    <glyph glyph-name="slash" unicode="/" horiz-adv-x="980" 
d="M98 8l695 1540q8 19 13.5 24t12.5 5t31 -11.5t31 -19.5q11 -11 0 -35l-699 -1552q-9 -18 -18 -18q-5 0 -32 13.5t-34 20.5q-11 11 0 33z" />
    <glyph glyph-name="zero" unicode="0" horiz-adv-x="1275" 
d="M1147 815q0 -239 -59.5 -429.5t-180.5 -305.5t-286 -115q-95 0 -176 43.5t-138.5 117t-98 171t-60 205t-19.5 219.5q0 249 60.5 440t180 300.5t283.5 109.5q92 0 169 -37t129.5 -100t92 -140t61 -164.5t32 -165t10.5 -149.5zM973 727q0 148 -23.5 284.5t-68 246
t-114.5 174.5t-155 65q-96 0 -166 -86.5t-106.5 -242t-36.5 -363.5q0 -140 21 -271.5t62 -244t112.5 -180.5t163.5 -68q140 0 225.5 191t85.5 495z" />
    <glyph glyph-name="one" unicode="1" horiz-adv-x="821" 
d="M354 616v674q0 35 -5.5 50.5t-24.5 15.5q-22 0 -69.5 -16t-87 -32t-42.5 -16q-19 0 -19 11q0 9 15 20q66 44 170 111.5t170 111.5q37 25 49 25q16 0 16 -43v-27q-1 -27 -2 -75t-2.5 -112t-3 -145.5t-2.5 -168t-1.5 -188t-0.5 -196.5q0 -327 10 -477q3 -52 20.5 -76
t65.5 -28q32 -3 56 -6q32 -3 32 -21q0 -14 -34 -14q-68 0 -123.5 1.5t-82.5 2.5l-28 2q-1 0 -37.5 -1.5t-96.5 -3t-118 -1.5q-35 0 -35 14q0 17 29 17q9 0 78 6q54 4 73.5 30.5t24.5 90.5q6 90 6 464z" />
    <glyph glyph-name="two" unicode="2" horiz-adv-x="1169" 
d="M862 -2q-236 -1 -371.5 -0.5t-261.5 1.5t-143 1q-11 0 -20 8.5t-9 20.5q0 17 37 49q83 74 133.5 120t121 112.5t114 112.5t97.5 108.5t86.5 112t67.5 110.5t53 117t30 119t12 128q0 84 -21 151.5t-54 109t-77 69t-87 38.5t-87 11q-73 0 -123.5 -18t-95.5 -60
q-74 -71 -74 -198q0 -31 -16 -31q-13 0 -16 27q-2 20 -7.5 114.5t-5.5 136.5q0 17 21 31q156 72 360 72q112 0 202 -34t146 -92t85.5 -131.5t29.5 -156.5q0 -85 -27 -175.5t-62.5 -163t-104 -161t-115 -143t-135 -138t-125.5 -115.5t-122 -105q-15 -13 -22 -19t-5 -10t10 -4
h149q258 0 350 10q110 10 165.5 57t76.5 140q5 30 22 30q13 0 13 -24q0 -26 -21.5 -117t-40.5 -158q-12 -40 -38.5 -51.5t-94.5 -11.5z" />
    <glyph glyph-name="three" unicode="3" horiz-adv-x="1161" 
d="M406 -37q-63 0 -140.5 15t-109.5 34q-20 13 -26.5 25t-6.5 33q0 151 14 256q3 30 17 30q5 0 7.5 -2.5t4 -8t2.5 -17.5q1 -6 2 -23.5t2 -23.5q39 -230 303 -230q163 0 267 93.5t104 269.5q0 78 -27 143.5t-67.5 107t-94.5 73.5t-99 48t-91 25q-31 6 -42 11.5t-11 15.5
q0 17 47 24q34 6 72.5 20.5t84.5 44t82.5 68t61 97.5t24.5 127q0 29 -7 62t-27 72t-51.5 69.5t-85.5 51.5t-123 21q-116 0 -187.5 -63.5t-71.5 -178.5q0 -24 -14 -24q-12 0 -14 22q-15 124 -15 205q0 15 4.5 23.5t22.5 19.5q142 70 332 70q95 0 169.5 -22.5t117.5 -56
t71 -77t37.5 -80t9.5 -71.5q0 -58 -23 -114t-55 -96t-72.5 -75t-70.5 -54t-53 -30v-10q53 -13 108 -42.5t108.5 -76t87.5 -119t34 -156.5q0 -107 -45 -203t-124 -167.5t-194 -113.5t-249 -42z" />
    <glyph glyph-name="four" unicode="4" horiz-adv-x="1239" 
d="M741 461h-624q-43 0 -43 24q0 21 18 43q8 9 342 461t402 545q26 37 43 37q20 0 20 -35q0 -5 -1 -122.5t-1 -184.5v-658h156q24 0 43 5.5t29 11.5t12 6q10 0 10 -25q0 -13 -19 -80q-6 -17 -13.5 -22.5t-22.5 -5.5h-195l-1 -81q-1 -82 0 -138.5t5 -96.5q6 -63 37 -89
t111 -29q49 0 49 -19q0 -14 -33 -14q-51 0 -112 1.5t-102.5 3t-43.5 1.5q-3 0 -39.5 -1.5t-92.5 -3t-106 -1.5q-32 0 -32 14q0 17 34 17q93 0 128 25t38 95q4 90 4 316zM741 571v725q-1 0 -124 -171t-254 -353t-146 -201h524z" />
    <glyph glyph-name="five" unicode="5" horiz-adv-x="1126" 
d="M739 1405h-387l-28 -315q70 -18 125.5 -35t125 -44.5t121.5 -57.5t104.5 -73.5t86.5 -93.5t55 -116t21 -142q0 -81 -23.5 -160.5t-74 -152.5t-121.5 -129t-173.5 -89.5t-222.5 -33.5q-123 0 -188 37q-39 20 -39 57q0 205 8 258q7 37 18 37q17 0 17 -35q0 -79 22 -133
t63 -81.5t87.5 -38.5t107.5 -11q67 0 129.5 23t115 69t84.5 125t32 181q0 94 -35.5 174t-89.5 132.5t-127 93.5t-137 62.5t-131 34.5q-33 6 -44 13.5t-10 23.5l48 522q3 27 38 27h482q69 0 119 8q11 1 20.5 2.5t15 2.5t7.5 1q14 0 14 -20q0 -56 -27 -258q-5 -23 -16 -23
q-12 0 -12 27q0 33 -6 54t-23.5 40t-55 28t-96.5 9z" />
    <glyph glyph-name="six" unicode="6" horiz-adv-x="1236" 
d="M623 -35q-158 0 -271 75t-168 204.5t-55 300.5q0 180 65 346.5t176 294.5t254 223.5t302 146.5q47 15 57 15q18 0 18 -12q0 -15 -53 -39q-95 -43 -181.5 -101t-172 -145t-148 -188t-101 -235.5t-38.5 -283.5q0 -145 38.5 -261.5t118.5 -189.5t191 -73q124 0 205.5 98
t81.5 265q0 176 -95 299.5t-224 123.5q-99 0 -168 -34q-11 -4 -17 -1.5t-6 7.5q0 11 21 26q113 80 258 80q95 0 173.5 -37.5t127 -98.5t74.5 -135t26 -151q0 -146 -61 -264t-173 -187t-255 -69z" />
    <glyph glyph-name="seven" unicode="7" horiz-adv-x="1105" 
d="M348 1536h664q37 0 37 -20q0 -18 -13 -39q-129 -191 -320 -656t-214 -659q-2 -16 -2 -28t1 -24t1 -20q0 -29 -83.5 -77t-117.5 -48q-18 0 -18 21q0 33 12 69q70 234 233.5 608.5t376.5 743.5h-504q-129 0 -190 -51q-31 -25 -52 -69.5t-26 -88.5q-3 -29 -18 -29
q-13 0 -13 33q0 39 15.5 180.5t15.5 145.5q0 28 21 28q2 0 23.5 -5t66.5 -10t104 -5z" />
    <glyph glyph-name="eight" unicode="8" horiz-adv-x="1206" 
d="M725 866q51 -27 89.5 -50t92 -66t88 -87.5t59.5 -109.5t25 -137q0 -89 -35.5 -171t-98 -144t-154.5 -99t-199 -37q-198 0 -331.5 110.5t-133.5 291.5q0 82 30 153t84.5 125.5t113 94t132.5 75.5q-135 79 -208.5 170.5t-73.5 218.5q0 62 27 125t78 118t137.5 89.5
t193.5 34.5q162 0 268.5 -91t106.5 -237q0 -62 -20 -116.5t-48.5 -92.5t-71 -73t-76 -54.5t-75.5 -40.5zM557 782q-127 -65 -198.5 -159.5t-71.5 -237.5q0 -140 91 -241t230 -101t226.5 93.5t87.5 232.5q0 41 -7.5 77.5t-24.5 68t-34 57t-48.5 52t-53.5 44t-63.5 41.5
t-64.5 36.5t-69 36.5zM655 899q79 47 106 68q111 92 111 252q0 120 -70 201t-186 81q-66 0 -118.5 -24t-84 -63t-47.5 -83t-16 -88q0 -62 22 -112t70 -92.5t92.5 -70.5t120.5 -69z" />
    <glyph glyph-name="nine" unicode="9" horiz-adv-x="1216" 
d="M618 1571q141 0 249 -74.5t164 -200.5t56 -282q0 -127 -28 -245t-73 -210.5t-109 -178t-128.5 -147.5t-140 -117.5t-134.5 -91t-120 -65.5q-4 -2 -11 -4.5t-16 -4t-15.5 1.5t-6.5 11q0 15 27 29q76 42 153 104.5t154 153.5t135.5 195t95.5 237.5t37 271.5
q0 257 -97.5 399t-240.5 142q-131 0 -205.5 -91.5t-74.5 -221.5q0 -97 25 -172.5t61 -118.5t82 -71t82 -37t67 -9q92 0 154 37q18 12 31 12q10 -2 7.5 -12t-10.5 -18q-42 -45 -110.5 -70t-134.5 -25q-84 0 -154.5 25t-117.5 65t-80 92.5t-47.5 106.5t-14.5 107
q0 211 137.5 344t351.5 133z" />
    <glyph glyph-name="colon" unicode=":" horiz-adv-x="581" 
d="M291 -16q-50 0 -78.5 33.5t-28.5 74.5q0 40 29 74.5t80 34.5q45 0 74.5 -30t29.5 -77t-30 -78.5t-76 -31.5zM291 772q-50 0 -78.5 34t-28.5 75q0 40 29 74t80 34q45 0 74.5 -29.5t29.5 -76.5t-30 -79t-76 -32z" />
    <glyph glyph-name="semicolon" unicode=";" horiz-adv-x="581" 
d="M291 772q-50 0 -78.5 34t-28.5 75q0 40 29 74t80 34q45 0 74.5 -29.5t29.5 -76.5t-30 -79t-76 -32zM199 113q0 37 41 77.5t79 40.5q26 0 50 -42t24 -99q0 -126 -160 -295q-40 -43 -55 -43q-23 1 15 49q47 65 63 106t16 79q0 53 -57 102q-16 13 -16 25z" />
    <glyph glyph-name="less" unicode="&#x3c;" horiz-adv-x="1249" 
d="M1059 195l-866 471v102l866 467v-117l-754 -401l754 -406v-116z" />
    <glyph glyph-name="equal" unicode="=" horiz-adv-x="1353" 
d="M1161 453h-968v110h968v-110zM1161 879h-968v110h968v-110z" />
    <glyph glyph-name="greater" unicode="&#x3e;" horiz-adv-x="1249" 
d="M193 1237l866 -471v-102l-866 -467v116l751 404l-751 403v117z" />
    <glyph glyph-name="question" unicode="?" horiz-adv-x="1101" 
d="M608 1571q97 0 171.5 -29t116 -76.5t62.5 -102t21 -112.5q0 -69 -16 -127t-53.5 -115.5t-71.5 -99t-100.5 -116.5t-110.5 -129q-52 -66 -68 -100t-16 -64q0 -57 32 -107q17 -25 17 -35q0 -16 -12 -16q-13 0 -40 23.5t-48 48.5q-60 75 -60 121q0 45 45 102q25 33 73 88.5
t68 81.5q103 132 142 228t39 202q0 32 -7 66t-24.5 70t-43.5 64t-69 46t-96 18q-70 0 -121.5 -23t-79.5 -57q-61 -73 -71 -190q-3 -35 -17 -35q-13 0 -16 21q-8 39 -8 239q0 20 22 33q55 33 143.5 57.5t196.5 24.5zM561 -35q-50 0 -78 34t-28 75q0 40 28.5 74t79.5 34
q45 0 75 -29.5t30 -76.5t-30.5 -79t-76.5 -32z" />
    <glyph glyph-name="at" unicode="@" horiz-adv-x="1896" 
d="M1458 416q-66 -45 -141.5 -69.5t-140.5 -24.5q-64 0 -94 37.5t-35 107.5q-4 64 14 215q-58 -99 -121 -173t-116.5 -112.5t-96 -56.5t-74.5 -18q-44 0 -74 48.5t-30 133.5q0 136 48.5 262.5t139.5 226.5q68 74 174 126t185 52q77 0 123 -24q49 49 100 59q9 1 11 -4t-1 -14
q-55 -85 -95 -273.5t-40 -336.5q0 -33 1 -52t6.5 -42.5t16 -36t29.5 -21t47 -8.5q58 0 119.5 37t114 101t86 163t33.5 211q0 118 -38 221.5t-110.5 182.5t-186 125t-255.5 46q-170 0 -314 -60.5t-248 -172t-162.5 -277.5t-58.5 -368q0 -157 47.5 -283t130.5 -208t194 -125.5
t241 -43.5q199 0 323.5 43.5t239.5 139.5q44 36 47 20q0 -16 -35 -51q-92 -94 -261.5 -166t-356.5 -72q-141 0 -265.5 48t-220 137t-151 228.5t-55.5 311.5q0 195 73 373.5t197 308t296 206.5t361 77q166 0 295.5 -49t209 -134.5t120.5 -195t41 -236.5q0 -166 -77 -307
t-210 -233zM1157 1063q-45 35 -123 35q-179 0 -270 -215q-62 -142 -62 -291q0 -141 56 -141q62 0 153 100t174 280q13 26 37 113.5t35 118.5z" />
    <glyph glyph-name="A" unicode="A" horiz-adv-x="1433" 
d="M899 598h-440q-15 0 -21 -16l-123 -363q-28 -79 -28 -137q0 -29 22 -44t51 -15h19q27 0 27 -13q0 -16 -37 -16q-28 0 -87 3t-67 3q-2 0 -88 -3t-143 -3q-39 0 -39 16q0 13 28 13q18 0 50 4q65 8 102.5 55.5t69.5 136.5l464 1272q18 49 27.5 64.5t18.5 15.5t18 -14t27 -60
q9 -23 104 -271t206.5 -537.5t166.5 -426.5q26 -65 51.5 -110t48.5 -68t40 -33.5t36 -15.5q37 -12 80 -12q22 0 22 -13q0 -16 -41 -16q-180 0 -321 4q-55 3 -60 9q-2 2 -2 5q0 11 15 15q11 4 15 17t-3 38l-190 504q-6 12 -19 12zM481 672h391q12 0 9 14l-195 553
q-16 48 -31 0l-180 -553q-6 -14 6 -14z" />
    <glyph glyph-name="B" unicode="B" horiz-adv-x="1402" 
d="M365 588v360q0 360 -5 443q-3 55 -21 80.5t-67 35.5q-24 6 -59 6q-27 0 -27 13q0 16 33 16q41 0 96 -1.5t94.5 -3t41.5 -1.5q19 0 94.5 3t128.5 3q96 0 171 -22.5t118.5 -56t71.5 -77t38 -80t10 -71.5q0 -60 -14.5 -112t-47.5 -100.5t-58 -78t-72 -78.5q61 -19 120 -54.5
t113 -88t87.5 -128t33.5 -161.5q0 -84 -33 -162.5t-96 -142.5t-165 -102.5t-228 -38.5q-10 0 -33.5 1t-57 2.5t-57.5 2.5q-89 6 -124 6q-32 0 -98 -3t-103 -3q-33 0 -33 14q0 15 31 15q22 0 49 6q15 3 25 12t16 26.5t9 33t7 42.5q11 95 11 445zM528 1452v-549q0 -16 15 -22
q54 -9 125 -9q89 0 122 9t64 45q74 84 74 207q0 53 -9.5 102t-30.5 95t-52.5 80t-79 54.5t-105.5 20.5q-57 0 -98 -10q-25 -6 -25 -23zM528 803v-117q0 -411 2 -442q2 -38 3.5 -53t5.5 -36.5t11 -30.5t19 -20t31 -20q63 -31 180 -31q36 0 73 8t76.5 28.5t70 52t50 84
t19.5 118.5q0 112 -46 224t-153 186q-33 22 -66 35t-52 16.5t-52 7.5q-27 4 -159 4q-13 0 -13 -14z" />
    <glyph glyph-name="C" unicode="C" horiz-adv-x="1648" 
d="M1055 -35q-226 0 -389 55t-287 166q-248 222 -248 607q0 57 11 121t35 140t71 154.5t112 143.5q219 219 625 219q158 0 297 -25q30 -5 217 -30q19 -3 19 -23q0 -6 -2 -19t-4.5 -38.5t-4.5 -57.5q-2 -38 -3.5 -118.5t-2.5 -92.5q-3 -43 -18 -43q-17 0 -17 43
q0 61 -23.5 118.5t-62.5 90.5q-58 49 -169.5 83t-239.5 34q-317 0 -471 -150q-105 -100 -145 -230t-40 -304q0 -146 55 -282t150 -239.5t235 -166t300 -62.5q127 0 212.5 22t143.5 81q29 30 49.5 82.5t26.5 89.5q5 31 20 31t15 -31q0 -16 -16 -116t-29 -146
q-9 -29 -17.5 -38.5t-36.5 -21.5q-117 -47 -368 -47z" />
    <glyph glyph-name="D" unicode="D" horiz-adv-x="1878" 
d="M365 588v360q0 360 -5 443q-3 57 -18 81.5t-63 34.5q-24 6 -70 6q-23 0 -23 13q0 16 33 16q41 0 96 -1.5t94.5 -3t41.5 -1.5l101 3q101 3 175 3h40q63 1 98.5 0.5t106.5 -4.5t119.5 -12.5t117.5 -25.5t122 -41t111.5 -62.5t105.5 -87.5q199 -207 199 -521
q0 -180 -62.5 -328t-158.5 -249q-226 -236 -621 -236q-93 0 -284 13q-37 2 -79.5 5.5t-64.5 5t-26 1.5q-39 0 -82 -2q-22 0 -63.5 -2t-55.5 -2q-33 0 -33 16q0 13 21 13q34 3 57 8q28 5 40 32.5t19 79.5q11 95 11 445zM537 981v-254q0 -366 4 -444q5 -132 22 -156
q57 -82 348 -82q142 0 269.5 50t218.5 141q77 76 120.5 210t43.5 279q0 92 -18 176t-49.5 148t-62.5 109t-67 83q-70 73 -149.5 121.5t-168.5 71.5t-169 31t-183 8q-33 0 -77.5 -4.5t-55.5 -10.5q-24 -11 -24 -41q-2 -70 -2 -436z" />
    <glyph glyph-name="E" unicode="E" horiz-adv-x="1249" 
d="M365 588v360q0 360 -5 443q-3 55 -21 80.5t-67 35.5q-6 2 -16.5 3t-23.5 1.5t-19 1.5q-27 4 -27 13q0 16 33 16q103 0 232 -6q422 0 469 2q77 3 94 12q18 9 22 9q8 0 8 -19q0 -4 -7 -33.5t-9 -62.5q-8 -117 -8 -123q-4 -35 -16 -35q-17 0 -17 27q0 40 -10 67
q-10 35 -45 52.5t-103 23.5q-52 6 -280 6q-12 0 -12 -20v-565q0 -21 12 -21q278 0 325 4q44 3 66.5 10t36.5 25q17 20 24 20q11 0 11 -16q0 -4 -3 -18.5t-7 -41t-7 -55.5q-4 -38 -6 -87.5t-2 -51.5q-3 -31 -14 -31q-15 0 -15 33q0 34 -8 58q-15 57 -106 67q-92 10 -293 10
q-14 0 -14 -14v-180q0 -18 -0.5 -105.5t-0.5 -156.5t1 -88q3 -68 17 -102t50 -48q45 -18 170 -18q122 0 184 18q48 14 70 48.5t35 103.5q5 30 18 30t13 -30q0 -14 -10 -92t-17 -107q-10 -38 -28.5 -45.5t-82.5 -7.5q-59 0 -299 6q-246 6 -256 6q-20 0 -71 -3.5t-80 -2.5
q-33 0 -33 16q0 9 23 13q40 4 47 6q36 8 53 46t20 146q5 200 5 367z" />
    <glyph glyph-name="F" unicode="F" horiz-adv-x="1212" 
d="M365 588v360q0 360 -5 443q-3 55 -21 80.5t-67 35.5q-6 1 -24.5 2t-26.5 2q-35 4 -35 15q0 16 33 16q41 0 118.5 -3t113.5 -3q456 0 503 2q88 4 101 12q13 9 18 9q12 0 12 -19q0 -4 -2 -14t-5 -24.5t-5 -24.5q-3 -23 -12 -150q0 -18 -6 -29.5t-13 -11.5q-11 0 -14 27
q-5 73 -39 102q-46 36 -121 39q-52 1 -156.5 3t-156.5 3q-18 0 -18 -22v-566q0 -18 14 -18q201 0 285 2q86 2 114 8t49 31q17 20 23 20q10 0 10 -16q0 -4 -2.5 -18.5t-6.5 -41t-7 -55.5q-4 -37 -6 -89l-2 -52q-3 -35 -15 -35q-13 0 -16 35q-2 24 -5.5 39t-14.5 37t-35.5 36
t-61.5 19q-51 6 -309 6q-14 0 -14 -18v-174q0 -320 6 -414q5 -70 24 -104.5t60 -38.5q11 -2 84 -8q24 -3 24 -15q0 -14 -33 -14q-51 0 -111 1.5t-99.5 3t-40.5 1.5h-19q-123 -6 -182 -6q-33 0 -33 16q0 10 23 13q38 4 53 8q32 9 45 37t18 96q9 132 9 424z" />
    <glyph glyph-name="G" unicode="G" horiz-adv-x="1765" 
d="M1509 397v-229q0 -69 -3.5 -85t-22.5 -26q-90 -48 -209.5 -70t-224.5 -22q-424 0 -674 219q-102 89 -173 246t-71 338q0 232 96.5 406t245.5 268q124 77 259 103t286 26q142 0 313 -35q70 -16 166 -20q25 -2 25 -19q0 -7 -4 -38.5t-7.5 -97t-3.5 -155.5q0 -25 -4 -34
t-14 -9q-11 0 -14 31q-5 75 -43 135q-43 66 -170.5 116t-311.5 50q-79 0 -138.5 -7t-143 -38.5t-156.5 -89.5q-92 -73 -147.5 -209t-55.5 -311q0 -102 23 -199t59 -169t70 -121t65 -79q225 -219 537 -219q159 0 233 43q41 21 41 72v348q0 124 -15 159t-77 52q-24 6 -69 6
q-17 0 -17 12q0 17 33 17q41 0 96 -1.5t94 -3t41 -1.5q3 0 41 1.5t85.5 3t74.5 1.5q33 0 33 -17q0 -12 -17 -12q-14 0 -51 -6q-40 -7 -56.5 -34t-19.5 -83q-4 -66 -4 -213z" />
    <glyph glyph-name="H" unicode="H" horiz-adv-x="1961" 
d="M549 893h868q13 0 13 12v43q0 360 -5 443q-3 55 -21 80.5t-67 35.5q-24 6 -69 6q-17 0 -17 13q0 16 33 16q41 0 96 -1.5t94.5 -3t41.5 -1.5q3 0 40.5 1.5t85 3t74.5 1.5q33 0 33 -16q0 -13 -16 -13q-15 0 -52 -6q-40 -7 -56 -33.5t-19 -82.5q-4 -66 -4 -443v-360
q0 -359 10 -445q5 -51 21.5 -78.5t58.5 -33.5q58 -8 92 -8q16 0 16 -13q0 -16 -33 -16q-50 0 -110 1.5t-100 3t-41 1.5q-3 0 -41 -1.5t-85.5 -3t-74.5 -1.5q-33 0 -33 16q0 13 16 13q26 0 62 8q28 5 40 32.5t19 79.5q11 95 11 445v215q0 12 -13 12h-868q-12 0 -12 -12v-215
q0 -359 10 -445q5 -51 21.5 -78.5t58.5 -33.5q58 -8 92 -8q16 0 16 -13q0 -16 -33 -16q-50 0 -110 1.5t-100 3t-41 1.5q-3 0 -41 -1.5t-85.5 -3t-74.5 -1.5q-33 0 -33 16q0 13 16 13q26 0 62 8q28 5 40 32.5t19 79.5q11 95 11 445v360q0 360 -5 443q-3 55 -21 80.5t-67 35.5
q-24 6 -69 6q-17 0 -17 13q0 16 33 16q41 0 96 -1.5t94.5 -3t41.5 -1.5q3 0 40.5 1.5t85 3t74.5 1.5q33 0 33 -16q0 -13 -16 -13q-14 0 -52 -6q-40 -7 -56 -33.5t-19 -82.5q-4 -66 -4 -443v-43q0 -12 12 -12z" />
    <glyph glyph-name="I" unicode="I" horiz-adv-x="901" 
d="M365 588v360q0 360 -5 443q-3 53 -19 80t-50 34q-31 8 -64 8q-16 0 -16 13q0 16 33 16q30 0 79 -1.5t87 -3t41 -1.5t40.5 1.5t85 3t74.5 1.5q33 0 33 -16q0 -13 -16 -13q-14 0 -52 -6q-40 -7 -56 -33.5t-19 -82.5q-4 -66 -4 -443v-360q0 -359 10 -445q5 -51 21.5 -78.5
t58.5 -33.5q58 -8 84 -8q24 0 24 -13q0 -16 -30 -16q-50 0 -110.5 1.5t-101.5 3t-42 1.5q-3 0 -41 -1.5t-85.5 -3t-74.5 -1.5q-33 0 -33 16q0 13 23 13q26 0 53 6q28 6 41 34t20 80q11 95 11 445z" />
    <glyph glyph-name="J" unicode="J" horiz-adv-x="847" 
d="M537 948v-491q0 -278 -9.5 -390.5t-52.5 -213.5q-33 -77 -104.5 -153t-194.5 -161q-66 -44 -80 -51q-8 -4 -14 -4q-14 0 -14 12t28 31q34 19 72 57q57 58 88 105t59 131.5t39 212.5t11 323v592q0 360 -5 443q-3 55 -21 80.5t-67 35.5q-24 6 -63 6q-23 0 -23 15
q0 14 31 14q41 0 96.5 -1.5t95.5 -3t42 -1.5q3 0 40.5 1.5t85 3t74.5 1.5q33 0 33 -16q0 -13 -22 -13q-14 0 -50 -4q-39 -4 -53.5 -31.5t-17.5 -86.5q-4 -66 -4 -443z" />
    <glyph glyph-name="K" unicode="K" horiz-adv-x="1583" 
d="M528 948v-131q28 27 113.5 116t198.5 206t155 161q85 88 108 120t23 53q0 28 -26 38q-19 8 -19 19q0 12 31 12q28 0 57.5 -3t65.5 -3q35 0 119.5 3t97.5 3q35 0 35 -14q0 -12 -23 -15q-61 -6 -104 -24q-41 -16 -83.5 -47.5t-129.5 -116.5q-374 -362 -467 -465
q94 -102 308.5 -321t289.5 -289q125 -117 194.5 -162t143.5 -59q27 -6 59 -6q29 0 29 -15q0 -14 -31 -14h-151q-129 0 -188 19t-134 79q-88 68 -308 301.5t-364 405.5v-211q0 -350 11 -445q5 -52 21 -79t58 -33q58 -8 82 -8q25 0 25 -15q0 -14 -31 -14q-50 0 -110 1.5
t-100.5 3t-41.5 1.5q-3 0 -38.5 -1.5t-81 -3t-72.5 -1.5q-33 0 -33 14q0 15 23 15q26 0 53 6q28 6 41 34t20 80q11 95 11 445v360q0 360 -5 443q-3 53 -19 80t-50 34q-31 8 -74 8q-22 0 -22 13q0 16 32 16q30 0 81 -1.5t91 -3t43 -1.5t41 1.5t85.5 3t74.5 1.5q33 0 33 -14
q0 -12 -23 -15q-38 -3 -45 -4q-40 -4 -56.5 -32.5t-19.5 -85.5q-4 -66 -4 -443z" />
    <glyph glyph-name="L" unicode="L" horiz-adv-x="1212" 
d="M537 948v-364q0 -236 9 -339t36 -130q26 -26 77.5 -36.5t167.5 -10.5q68 0 105 2.5t78.5 16.5t64.5 42q42 51 53 123q3 27 19 27q12 0 12 -31q0 -21 -10 -93t-21 -112q-8 -26 -16.5 -36t-32.5 -14.5t-80 -4.5q-85 0 -265.5 6t-282.5 6q-30 0 -95.5 -3t-105.5 -3
q-33 0 -33 16q0 13 16 13q26 0 62 8q28 5 40 32.5t19 79.5q11 95 11 445v360q0 360 -5 443q-3 55 -21 80.5t-67 35.5q-24 6 -69 6q-17 0 -17 13q0 16 33 16q41 0 96 -1.5t94.5 -3t41.5 -1.5q3 0 46 1.5t95.5 3t79.5 1.5q33 0 33 -16q0 -13 -17 -13q-30 0 -67 -6
q-43 -7 -60 -33.5t-20 -82.5q-4 -66 -4 -443z" />
    <glyph glyph-name="M" unicode="M" horiz-adv-x="2150" 
d="M1751 1516l137 -1258q4 -37 9 -62.5t16 -61t33 -59.5t53 -34q59 -18 127 -18q22 0 22 -13q0 -9 -6 -12.5t-24 -3.5q-43 0 -173.5 4t-181.5 8q-57 5 -57 21q0 8 14 14q16 7 9 74l-99 1069l-508 -1078q-44 -92 -52 -101q-6 -7 -15 -7q-10 0 -21.5 17t-42.5 77
q-26 50 -239 475q-18 38 -140 299.5t-137 298.5l-84 -964q-4 -66 -4 -97q0 -62 55 -73q35 -8 74 -8q21 0 21 -11q0 -18 -31 -18q-46 0 -121 3t-76 3q-4 0 -72 -3t-100 -3q-35 0 -35 16q0 13 21 13q30 0 61 6q18 3 32 14t21 21.5t13.5 35.5t8 37t5.5 46q1 11 2 16l148 1331
q4 41 22 41t31 -31l627 -1288l602 1286q15 33 30 33q19 0 25 -55z" />
    <glyph glyph-name="N" unicode="N" horiz-adv-x="1939" 
d="M297 295v303q0 308 1 465.5t1.5 166.5t-0.5 238q0 58 5.5 80.5t17.5 22.5q7 0 19.5 -11t29.5 -30.5t22 -24.5q62 -70 651 -702q108 -115 285 -309.5t207 -225.5l-23 1041q-2 102 -17.5 142t-61.5 52q-46 10 -88 10q-29 0 -29 15q0 14 41 14q55 0 132.5 -3t80.5 -3
q4 0 64 3t110 3q37 0 37 -14q0 -12 -23 -15q-14 -2 -53 -8q-43 -9 -57.5 -44.5t-14.5 -139.5l-4 -1196q0 -51 -0.5 -79.5t-3 -43.5t-5.5 -18.5t-9 -3.5q-12 0 -40 24.5t-110 106.5q-21 18 -203.5 207t-330.5 348q-282 303 -535 587l27 -981q3 -124 20.5 -174.5t59.5 -62.5
q47 -12 102 -12q16 0 16 -13q0 -16 -36 -16q-52 0 -101.5 1.5t-80 3t-35.5 1.5t-36 -1.5t-76 -3t-85 -1.5q-33 0 -33 16q0 13 17 13q47 0 84 12q37 10 49 63.5t12 196.5z" />
    <glyph glyph-name="O" unicode="O" horiz-adv-x="1873" 
d="M926 -35q-162 0 -297.5 48.5t-225.5 128.5t-153 185.5t-91 217t-28 225.5q0 103 29 211t93.5 214.5t156 189.5t228.5 134.5t300 51.5q231 0 412.5 -91.5t287 -267.5t105.5 -409q0 -171 -59 -324.5t-163.5 -267t-259 -180t-335.5 -66.5zM981 43q44 0 89.5 7.5t102.5 28
t108 53t100.5 87.5t85 126t57.5 174t22 226q0 179 -51.5 325t-138.5 238.5t-198 142.5t-234 50q-130 0 -238 -43t-189 -125t-126 -211.5t-45 -294.5q0 -233 87 -413t235.5 -275.5t332.5 -95.5z" />
    <glyph glyph-name="P" unicode="P" horiz-adv-x="1314" 
d="M365 588v360q0 360 -5 443q-3 55 -21 80.5t-67 35.5q-24 6 -69 6q-17 0 -17 13q0 16 33 16q40 0 94.5 -1.5t93.5 -3t44 -1.5q16 0 110.5 3t147.5 3q256 0 381 -117q41 -39 71.5 -108.5t30.5 -159.5q0 -200 -143 -331.5t-361 -131.5q-33 0 -43 2q-22 0 -22 15
q0 12 10.5 15t44.5 3q153 0 253.5 96t100.5 254q0 183 -114 299q-103 105 -272 103h-9q-59 0 -88 -13q-17 -6 -17 -38v-842q0 -350 11 -445q5 -51 21.5 -78.5t58.5 -33.5q58 -8 92 -8q16 0 16 -13q0 -16 -33 -16q-50 0 -110 1.5t-100.5 3t-41.5 1.5t-37.5 -1.5t-84 -3
t-74.5 -1.5q-33 0 -33 16q0 13 16 13q26 0 62 8q28 5 40 32.5t19 79.5q11 95 11 445z" />
    <glyph glyph-name="Q" unicode="Q" horiz-adv-x="1884" 
d="M1253 35q-56 -30 -148 -50t-173 -20q-164 0 -300.5 48.5t-227.5 128.5t-154 185.5t-91 217t-28 225.5q0 103 29 211t93.5 214.5t156 189.5t228.5 134.5t300 51.5q231 0 412.5 -92t287 -267.5t105.5 -408.5q0 -103 -25 -201t-63.5 -171.5t-89 -138.5t-96 -106.5
t-89.5 -70.5l420 -217q470 -242 862 -242q85 0 195 20t209 60q24 8 29 8q12 0 12 -12t-17 -21q-311 -141 -649 -141q-184 0 -387.5 67t-456.5 207zM981 43q44 0 89.5 7.5t102.5 28t108 53t100.5 87.5t85 126t57.5 174t22 226q0 179 -51.5 325t-138.5 238.5t-198 142.5
t-234 50q-130 0 -238 -43t-189 -125t-126 -211.5t-45 -294.5q0 -233 87 -413t235.5 -275.5t332.5 -95.5z" />
    <glyph glyph-name="R" unicode="R" horiz-adv-x="1544" 
d="M365 588v360q0 360 -5 443q-3 55 -21 80.5t-67 35.5q-24 6 -69 6q-17 0 -17 13q0 16 33 16q41 0 96 -1.5t94.5 -3t41.5 -1.5q7 0 106 3t135 3q116 0 208.5 -18.5t166.5 -71.5q51 -37 96 -110.5t45 -167.5q0 -120 -57.5 -236t-189.5 -238q19 -24 93.5 -119.5t98.5 -126.5
t76 -95.5t87.5 -105t69.5 -77.5q120 -127 250 -147q39 -6 80 -6q7 0 13 -4t6 -9q0 -16 -49 -16h-146q-85 0 -132 8.5t-87 30.5q-39 21 -83.5 64.5t-73 79.5t-97.5 127q-15 20 -23 30q-47 62 -126 171t-97 132q-12 12 -26 12l-252 4q-15 0 -15 -16v-49q0 -350 11 -445
q5 -52 21 -79t58 -33q58 -8 93 -8q16 0 16 -13q0 -16 -33 -16q-50 0 -110 1.5t-100.5 3t-41.5 1.5h-14q-15 -1 -37 -2t-47 -2t-51 -1.5t-43 -0.5q-33 0 -33 16q0 13 16 13q26 0 62 8q28 5 40 32.5t19 79.5q11 95 11 445zM528 1440v-670q0 -16 15 -25q23 -14 85.5 -23
t129.5 -9q97 0 153 39q56 38 90.5 120t34.5 195q0 192 -94.5 301t-259.5 109q-94 0 -137 -13q-17 -7 -17 -24z" />
    <glyph glyph-name="S" unicode="S" horiz-adv-x="1167" 
d="M508 -35q-162 0 -275 55q-21 10 -25.5 22.5t-4.5 55.5q0 52 10 217q3 33 16 33q15 0 15 -22q0 -47 6 -76q22 -107 106 -158t197 -51q94 0 162.5 41.5t99.5 102t31 128.5q0 104 -50.5 181t-185.5 188l-92 76q-153 126 -209.5 228t-56.5 216q0 166 115 267.5t309 101.5
q101 0 190 -21q49 -10 72 -10q20 0 20 -14q0 -1 -2 -27t-4 -77t-2 -113q0 -47 -14 -47q-13 0 -16 26q-2 20 -10 53.5t-17 49.5q-5 10 -13 20.5t-28.5 27t-46.5 29t-70.5 22t-97.5 9.5q-109 0 -180.5 -64t-71.5 -173q0 -88 51 -158.5t199 -185.5l57 -46q173 -136 236 -243.5
t63 -237.5q0 -82 -40 -177.5t-134 -162.5q-124 -86 -309 -86z" />
    <glyph glyph-name="T" unicode="T" horiz-adv-x="1415" 
d="M801 1454v-866q0 -359 10 -445q5 -51 21.5 -78.5t58.5 -33.5q58 -8 92 -8q16 0 16 -13q0 -16 -32 -16q-50 0 -110 1.5t-100.5 3t-41.5 1.5q-3 0 -41 -1.5t-85.5 -3t-74.5 -1.5q-33 0 -33 16q0 13 17 13q25 0 61 8q28 5 40 32.5t19 79.5q11 95 11 445v866
q-50 -1 -151.5 -2t-151.5 -2q-96 -2 -140 -15.5t-69 -50.5q-23 -35 -35 -63q-8 -21 -21 -21q-10 0 -10 19q0 33 45 213q13 39 21 39q3 0 30.5 -11.5t59.5 -13.5q98 -10 162 -10h768q90 0 145 10q13 2 26 4.5t20.5 4t10.5 1.5q11 0 11 -24q0 -35 -3.5 -126.5t-3.5 -98.5
q0 -27 -14 -27t-16 35q0 4 -1 11t-1 11q-5 52 -60 81t-192 32q-43 1 -129 2t-129 2z" />
    <glyph glyph-name="U" unicode="U" horiz-adv-x="1699" 
d="M424 948v-286q0 -206 40 -320.5t114 -185.5q70 -66 141.5 -89.5t167.5 -23.5q93 0 179 40t142 107q66 83 92.5 206.5t26.5 295.5v256q0 377 -4 443q-3 55 -21 80.5t-67 35.5q-24 6 -70 6q-16 0 -16 13q0 16 33 16q41 0 92 -1.5t86.5 -3t38.5 -1.5q1 0 68.5 3t103.5 3
q33 0 33 -16q0 -13 -17 -13q-13 0 -51 -6q-40 -9 -56.5 -35t-19.5 -81q-4 -66 -4 -443v-219q0 -94 -7 -170.5t-25.5 -161.5t-57.5 -156.5t-98 -123.5q-171 -152 -422 -152q-38 0 -78 4t-102.5 17t-126.5 45t-115 80q-84 81 -131 205.5t-47 332.5v299q0 377 -4 443
q-3 55 -21 80.5t-67 35.5q-24 6 -70 6q-16 0 -16 13q0 16 32 16q40 0 95 -1.5t95.5 -3t45.5 -1.5q4 0 85.5 3t117.5 3q32 0 32 -16q0 -13 -16 -13q-13 0 -51 -6q-40 -6 -56.5 -33t-19.5 -83q-4 -66 -4 -443z" />
    <glyph glyph-name="V" unicode="V" horiz-adv-x="1517" 
d="M690 92l-502 1256q-32 83 -61 112t-86 45q-31 8 -78 8q-16 0 -16 15q0 14 53 14q58 0 144 -3t89 -3t72 3t115 3q55 0 55 -14q0 -15 -20 -15q-55 0 -78 -10q-27 -12 -27 -41t41 -131l418 -1087q87 200 245 611t193 525q19 59 19 78q0 34 -27 47q-25 8 -78 8q-22 0 -22 13
q0 16 45 16q48 0 121.5 -3t78.5 -3l62 3q63 3 98 3t35 -14q0 -15 -25 -15q-61 0 -98 -24q-50 -33 -113 -193q-2 -5 -229 -555q-221 -528 -264 -620q-8 -18 -17 -37.5t-14.5 -32t-11.5 -25.5t-9.5 -21t-8 -15.5t-7 -11.5t-6 -7.5t-6.5 -4.5t-6 -1q-17 0 -29 22t-45 105z" />
    <glyph glyph-name="W" unicode="W" horiz-adv-x="2252" 
d="M565 127l-364 1214q-24 79 -48 111.5t-65 48.5q-32 12 -92 12q-19 0 -19 15q0 14 33 14q63 0 152 -3t90 -3q5 0 37 1.5t80.5 3t93.5 1.5q37 0 37 -14q0 -15 -21 -15q-55 0 -80 -12q-26 -13 -26 -49q0 -10 3.5 -29.5t8 -39t13.5 -57t14 -62.5q49 -206 276 -998l436 1174
q22 59 32 76.5t20 17.5t20.5 -20.5t30.5 -75.5l411 -1174q15 51 146.5 477.5t173.5 579.5q22 84 22 131q0 30 -25 45.5t-91 15.5q-8 0 -13.5 4.5t-5.5 10.5q0 14 35 14q46 0 94 -1.5t79 -3t36 -1.5q1 0 64.5 3t101.5 3q29 0 29 -12q0 -17 -19 -17q-41 0 -70 -10
q-42 -16 -70 -68t-63 -153q-45 -130 -190.5 -578t-185.5 -563t-55 -145.5t-32 -30.5q-14 0 -26 21.5t-35 85.5l-403 1145q-376 -1005 -430 -1143q-25 -64 -39 -86.5t-29 -22.5t-28.5 29.5t-43.5 132.5z" />
    <glyph glyph-name="X" unicode="X" horiz-adv-x="1380" 
d="M233 199l371 585l-328 551q-40 69 -75.5 108t-83.5 56q-46 14 -86 14q-19 0 -19 15q0 14 35 14q34 0 135.5 -3t104.5 -3t77 3t115 3q35 0 35 -14q0 -15 -18 -15q-40 0 -56 -6q-24 -8 -24 -34q0 -30 20 -68q135 -254 277 -490q47 68 166.5 259t134.5 223q20 44 20 73
q0 11 -10 22t-25 15q-20 6 -61 6q-18 0 -18 15q0 14 34 14q46 0 114 -3t69 -3q3 0 67 3t105 3q32 0 32 -14q0 -15 -22 -15q-39 0 -68 -10q-21 -7 -39.5 -19.5t-40.5 -39.5t-34.5 -44.5t-42.5 -62.5l-330 -495q10 -17 114 -192t201.5 -337t116.5 -186q28 -37 54 -58.5
t67 -33.5q43 -12 72 -12q16 0 16 -13q0 -16 -29 -16q-223 0 -327 4q-64 2 -64 16t12 17q11 4 16 17.5t-5 39.5q-125 226 -353 610l-319 -542q-27 -50 -27 -90q0 -15 9.5 -25.5t23.5 -13.5q24 -4 39 -4q16 0 16 -15q0 -14 -24 -14q-28 0 -110 3t-87 3q-3 0 -74.5 -3
t-111.5 -3q-21 0 -21 14q0 15 17 15q38 0 77 10q45 12 82 49t88 117z" />
    <glyph glyph-name="Y" unicode="Y" horiz-adv-x="1339" 
d="M592 348v176q0 52 -7 93t-15 63t-25 59q-11 25 -159.5 268.5t-201.5 321.5q-71 106 -139 152q-50 32 -88 32q-20 0 -20 15q0 14 26 14q23 0 112.5 -3t90.5 -3q4 0 31 1.5t66.5 3t74.5 1.5q27 0 27 -14q0 -2 -1.5 -4t-4.5 -4t-6 -3t-9 -3.5t-10 -4.5q-27 -13 -27 -36
q0 -28 27 -80q30 -53 191 -330.5t186 -317.5q25 56 158 289t182 314q34 54 34 104q0 49 -32 57q-31 10 -31 21q0 12 33 12q31 0 81.5 -3t53.5 -3t89.5 3t109.5 3q26 0 26 -12q0 -17 -26 -17q-49 0 -95 -28q-29 -18 -50 -39t-58 -66q-50 -60 -206 -321.5t-185 -329.5
q-15 -35 -22 -73.5t-8 -62.5t-1 -69v-176q0 -119 6 -205q7 -102 84 -112q58 -8 92 -8q17 0 17 -13q0 -16 -33 -16q-50 0 -110 1.5t-100.5 3t-41.5 1.5q-3 0 -41 -1.5t-85.5 -3t-74.5 -1.5q-33 0 -33 16q0 13 17 13q25 0 61 8q57 11 64 112q6 86 6 205z" />
    <glyph glyph-name="Z" unicode="Z" horiz-adv-x="1417" 
d="M377 82h557q150 0 218.5 24.5t104.5 75.5q32 49 41 111q7 33 19 33q9 0 12.5 -9t3.5 -38q0 -62 -41 -236q-9 -37 -17.5 -45t-43.5 -8q-169 0 -516.5 5t-528.5 5q-20 0 -28 3t-8 13q0 17 28 58q33 50 175.5 265t198.5 300t165.5 252.5t193.5 300.5t166 266h-444
q-218 0 -295 -41q-51 -27 -81.5 -74t-35.5 -88q-5 -36 -22 -36q-13 0 -13 26q0 23 41 273q5 38 21 38q5 0 29.5 -6.5t56.5 -7.5q146 -6 356 -6h572q41 0 41 -16q0 -12 -9 -25q-339 -538 -917 -1413z" />
    <glyph glyph-name="bracketleft" unicode="[" horiz-adv-x="794" 
d="M375 1348v-1280q0 -143 14 -203q58 -24 215 -33q41 -3 41 -16t-33 -13h-323q-23 0 -28 5t-5 28v1737q0 17 6 21.5t29 4.5h321q35 0 35 -14q0 -6 -13.5 -11t-31.5 -5q-140 -9 -213 -31q-14 -60 -14 -190z" />
    <glyph glyph-name="backslash" unicode="\" horiz-adv-x="980" 
d="M188 1548l695 -1540q11 -22 -2 -35q-5 -5 -32 -18.5t-32 -13.5q-9 0 -18 18l-697 1552q-14 26 -2 35q47 31 62 31q7 0 12.5 -5t13.5 -24z" />
    <glyph glyph-name="bracketright" unicode="]" horiz-adv-x="794" 
d="M416 55v1280q0 139 -15 203q-58 24 -215 33q-41 3 -41 16q0 12 33 12h324q23 0 28 -4.5t5 -27.5v-1737q0 -17 -6 -22t-29 -5h-322q-35 0 -35 15q0 6 13.5 11t31.5 5q140 9 213 31q15 64 15 190z" />
    <glyph glyph-name="asciicircum" unicode="^" horiz-adv-x="1185" 
d="M537 1536h112l402 -768h-127l-334 655l-330 -655h-125z" />
    <glyph glyph-name="underscore" unicode="_" horiz-adv-x="1024" 
d="M0 -154h1024v-102h-1024v102z" />
    <glyph glyph-name="grave" unicode="`" horiz-adv-x="1024" 
d="M637 1466q0 -4 -10 -4q-24 0 -160.5 76t-218.5 133q-31 24 -29 31q0 9 21 16q60 26 94 31q18 3 24 -0.5t25 -22.5q8 -8 57 -59t96 -97.5t85 -78.5q16 -13 16 -25z" />
    <glyph glyph-name="a" unicode="a" horiz-adv-x="1261" 
d="M780 494h-372q-14 0 -21 -17l-90 -256q-35 -100 -35 -145q0 -53 68 -53h14q25 0 25 -15q0 -14 -31 -14q-25 0 -89 3t-73 3q-2 0 -73.5 -3t-122.5 -3q-33 0 -33 14q0 15 24 15q29 0 41 2q60 5 93.5 44.5t64.5 116.5l410 1080q17 44 25 56.5t18 12.5q8 0 16.5 -12.5
t24.5 -52.5q5 -11 178 -449.5t237 -589.5q71 -169 156 -198q27 -10 70 -10q24 0 24 -15q0 -14 -31 -14q-174 0 -311 4q-31 2 -41 4.5t-10 9.5q0 12 14 15q21 11 8 45l-161 411q-7 11 -17 11zM428 565h328q10 0 6 13l-162 452q-8 22 -11 22t-11 -22l-154 -452q-6 -13 4 -13z
" />
    <glyph glyph-name="b" unicode="b" horiz-adv-x="1245" 
d="M317 500v307q0 320 -4 375q-3 44 -19.5 65.5t-60.5 30.5q-32 4 -49 4q-26 0 -26 14q0 15 30 15q24 0 54.5 -0.5t57 -1.5t49.5 -2t37 -1.5t15 -0.5q21 0 87 3t110 3q88 0 156 -18.5t107 -46.5t64 -64.5t33.5 -67.5t8.5 -61q0 -180 -172 -316q55 -16 107.5 -47t100 -75.5
t76.5 -108t29 -135.5q0 -73 -29.5 -140t-85.5 -121.5t-147 -87t-203 -32.5q-14 0 -56 2t-71 2q-86 6 -115 6q-31 0 -90 -3t-94 -3q-29 0 -29 12q0 17 29 17q21 0 37 4q42 7 53 98q10 76 10 375zM477 1227v-457q0 -13 10 -20q42 -7 103 -7q79 0 112 9t62 41q53 63 53 163
q0 44 -7.5 85.5t-26 80.5t-45 68.5t-67.5 47t-91 17.5q-48 0 -78 -10q-25 -6 -25 -18zM477 674v-80q0 -355 2 -371q5 -81 15 -101q12 -25 51 -42q53 -27 151 -27q29 0 59 6t64 22t59.5 41t42.5 67t17 96q0 95 -41 193.5t-135 162.5q-41 25 -70.5 33t-68.5 12q-74 8 -136 0
q-10 0 -10 -12z" />
    <glyph glyph-name="c" unicode="c" horiz-adv-x="1452" 
d="M932 -29q-200 0 -345 46t-255 141q-219 191 -219 522q0 66 16.5 139.5t65.5 167t124 166.5q191 182 551 182q114 0 271 -22q141 -21 180 -23q18 0 18 -20q0 -6 -4 -34.5t-6 -66.5q-1 -26 -2 -100.5t-2 -87.5q-3 -39 -16 -39q-17 0 -17 39q0 47 -22 98.5t-58 79.5
q-49 43 -149.5 74t-212.5 31q-261 0 -393 -119q-94 -85 -129 -193t-35 -256q0 -126 49.5 -243t133.5 -204t203 -139.5t251 -52.5q115 0 188.5 17.5t124.5 66.5q52 54 68 148q6 30 22 30q10 0 10 -28q0 -15 -15.5 -106.5t-24.5 -121.5q-9 -24 -17.5 -33t-30.5 -18
q-95 -41 -323 -41z" />
    <glyph glyph-name="d" unicode="d" 
d="M317 504v303q0 322 -4 375q-3 43 -20 65t-60 31q-24 4 -59 4q-8 0 -14 4t-6 8q0 17 30 17q37 0 90 -1.5t91 -3.5l38 -1q3 0 39 1.5t91 3t106 1.5h38q56 1 88 0.5t95 -4t106.5 -10.5t104.5 -21.5t108.5 -35.5t99 -54.5t93.5 -75.5q174 -174 174 -440q0 -152 -55 -278.5
t-139 -211.5q-200 -200 -547 -200q-126 0 -256 10q-34 2 -70 4.5t-56 4t-22 1.5q-30 0 -69 -2q-20 0 -62 -2t-57 -2q-29 0 -29 14q0 5 6 10t17 5q23 0 47 6q41 7 53 94q10 63 10 381zM485 840v-207q0 -81 0.5 -167t1 -142.5t0.5 -65.5q4 -115 21 -137q51 -78 301 -78
q266 0 426 160q66 66 99.5 173t33.5 234q0 82 -17 155.5t-45.5 127.5t-55.5 91t-58 67q-63 63 -133 103.5t-147.5 59t-143.5 25t-154 6.5q-25 0 -60.5 -4t-43.5 -10q-23 -11 -23 -35q-2 -59 -2 -356z" />
    <glyph glyph-name="e" unicode="e" horiz-adv-x="1110" 
d="M317 500v307q0 318 -4 373q-3 45 -19 67t-58 31q-24 4 -50 4q-10 0 -18 3.5t-8 8.5q0 17 30 17q18 0 83.5 -2.5t127.5 -3.5q375 0 416 2q61 3 80 10q18 6 23 6q8 0 8 -14q0 -3 -7.5 -32.5t-9.5 -59.5q-5 -87 -6 -107q0 -31 -14 -31t-14 23q-2 35 -15 65q-9 32 -34.5 45
t-98.5 17q-54 4 -233 4q-11 0 -11 -16v-465q0 -21 13 -21q212 0 276 6q75 3 94 31q11 16 23 16q8 0 8 -12q0 -4 -2 -18t-5.5 -39.5t-6.5 -50.5q-4 -34 -6 -79t-2 -46q-3 -23 -15 -23t-12 27q0 25 -6 49q-5 17 -12 27t-29 20.5t-58 13.5q-106 9 -245 9q-15 0 -15 -15v-149
v-279q3 -60 15 -90t43 -43q40 -18 149 -18q112 0 156 12q43 13 61 42.5t31 92.5q6 29 18 29q13 0 13 -31q0 -10 -9 -80.5t-14 -97.5q-6 -30 -22 -37.5t-68 -7.5q-75 0 -155.5 2t-108.5 2q-216 6 -242 6q-23 0 -66.5 -3t-68.5 -3q-29 0 -29 14q0 6 5.5 10.5t13.5 4.5
q20 0 41 6q31 7 46.5 39.5t18.5 121.5q4 140 4 310z" />
    <glyph glyph-name="f" unicode="f" horiz-adv-x="1075" 
d="M317 500v307q0 318 -4 373q-3 48 -18 70t-59 26q-9 1 -26 2t-26 2q-26 3 -26 16q0 15 30 15q38 0 107 -3t102 -3q404 0 447 2q65 3 92 14q15 6 20 6q13 0 7 -18q-10 -36 -13 -64q-5 -31 -7 -82t-3 -61q0 -31 -14 -31q-13 0 -17 25q0 70 -32 102q-18 17 -43 22t-72 7
q-176 4 -258 4q-19 0 -19 -21v-462q0 -19 15 -19q182 0 250 2q66 2 91.5 8.5t45.5 30.5q13 16 20 16q8 0 8 -18q0 -4 -2 -17t-5.5 -38t-6.5 -51q-8 -73 -8 -119q0 -31 -14 -31q-12 0 -15 31q-1 17 -3.5 28.5t-12 31.5t-32.5 33t-58 17q-41 6 -258 6q-9 0 -12 -3.5t-3 -14.5
v-143q0 -178 4 -342q1 -74 15.5 -96.5t58.5 -28.5q24 -4 64 -8q24 -3 24 -15q0 -14 -26 -14q-47 0 -101.5 1.5t-90 3t-36.5 1.5h-14q-117 -6 -166 -6q-29 0 -29 14q0 12 21 15q7 1 21.5 2t21.5 2q33 4 43.5 27.5t13.5 84.5q8 101 8 361z" />
    <glyph glyph-name="g" unicode="g" horiz-adv-x="1558" 
d="M1335 330v-185q0 -61 -3.5 -74t-20.5 -22q-78 -39 -184 -58.5t-193 -19.5q-378 0 -600 185q-94 78 -157.5 206.5t-63.5 290.5q0 198 86.5 347.5t222.5 230.5q179 104 457 104q119 0 292 -28q87 -16 156 -19q16 0 16 -16q0 -6 -3.5 -36t-7 -90.5t-3.5 -139.5
q0 -22 -3 -29.5t-13 -7.5q-11 0 -15 24q0 22 -9 60t-29 67q-40 57 -152.5 100.5t-271.5 43.5q-71 0 -119.5 -4.5t-121 -30.5t-136.5 -74q-80 -61 -126 -175t-46 -263q0 -86 21 -168.5t53 -143t60 -100.5t52 -63q197 -191 465 -191q129 0 195 35q34 20 34 61v295
q0 103 -14.5 134t-67.5 38q-24 4 -49 4q-11 0 -17.5 5t-6.5 10q0 14 30 14q36 0 86 -1t86 -2t37 -1q2 0 37 1t79.5 2t68.5 1q28 0 28 -14q0 -15 -24 -15q-19 0 -35 -2q-35 -4 -49 -29t-17 -73q-4 -59 -4 -184z" />
    <glyph glyph-name="h" unicode="h" horiz-adv-x="1732" 
d="M498 762h741q12 0 12 10v37q0 318 -4 373q-3 46 -18 67t-62 29q-28 4 -51 4q-24 0 -24 14q0 15 28 15q38 0 89.5 -1.5t88 -3t37.5 -1.5q2 0 36 1.5t78 3t71 1.5q32 0 32 -15q0 -14 -22 -14q-17 0 -41 -4q-38 -6 -51.5 -28t-16.5 -70q-2 -55 -2 -373v-307q0 -301 8 -375
q5 -44 19.5 -68t50.5 -28q41 -6 72 -6q26 0 26 -15q0 -14 -30 -14q-45 0 -100.5 1.5t-92.5 3t-39 1.5t-36.5 -1.5t-78 -3t-67.5 -1.5q-31 0 -31 16q0 13 23 13q31 0 47 4q24 4 35 29.5t16 68.5q10 74 10 369v182q0 12 -12 12h-743q-11 0 -11 -12v-182q0 -292 11 -373
q4 -27 9 -43.5t20 -31t40 -17.5q41 -6 74 -6q10 0 17.5 -4.5t7.5 -10.5q0 -14 -27 -14q-46 0 -102 1.5t-94 3t-40 1.5q-1 0 -36.5 -1.5t-80 -3t-67.5 -1.5q-33 0 -33 14q0 15 23 15q25 0 49 6q13 3 22.5 11t15 21.5t8 26.5t5.5 33q10 62 10 379v303q0 324 -4 379
q-3 45 -19.5 69.5t-57.5 28.5q-36 4 -56 4q-22 0 -22 12q0 15 30 15q52 0 129.5 -3t83.5 -3q2 0 36.5 1.5t79 3t69.5 1.5q30 0 30 -15q0 -12 -20 -12q-18 0 -41 -4q-36 -6 -50.5 -29.5t-17.5 -70.5q-2 -55 -2 -371v-37q0 -10 13 -10z" />
    <glyph glyph-name="i" unicode="i" horiz-adv-x="802" 
d="M317 500v307q0 320 -4 375q-3 44 -15.5 66t-43.5 28q-11 2 -27 3.5t-20 2.5q-23 3 -23 14q0 15 31 15q28 0 73 -1.5t78.5 -3t34.5 -1.5q2 0 36.5 1.5t79 3t69.5 1.5q30 0 30 -15q0 -11 -22 -14q-6 -1 -18 -2t-19 -2q-41 -6 -54 -27t-16 -71q-2 -28 -2 -373v-307
q0 -308 9 -375q6 -48 18.5 -66.5t50.5 -27.5q36 -8 78 -8q23 -3 23 -15q0 -14 -29 -14q-46 0 -101.5 1.5t-93 3t-39.5 1.5q-1 0 -35.5 -1.5t-79 -3t-69.5 -1.5q-33 0 -33 14q0 15 27 15q25 0 49 6q13 3 21.5 11t13.5 23.5t7 28t5 35.5q10 74 10 373z" />
    <glyph glyph-name="j" unicode="j" horiz-adv-x="761" 
d="M487 807v-391q0 -185 -1.5 -252t-13.5 -146t-40 -143q-28 -67 -93.5 -132t-184.5 -144q-11 -6 -36.5 -22.5t-35.5 -20.5q-2 -2 -12 -2q-15 0 -15 10q0 4 2.5 8t5.5 6t9 5.5t10 6.5q28 14 57 43q53 51 81.5 90.5t55 113t36.5 185.5t10 285v500q0 304 -5 373
q-3 43 -20.5 65.5t-58.5 32.5q-24 4 -62 4q-5 0 -9.5 4t-4.5 8q0 17 31 17q38 0 88.5 -1.5t86.5 -3.5l35 -1q2 0 37 1.5t80 3t70 1.5q28 0 28 -17q0 -4 -4.5 -8t-7.5 -4q-1 0 -47 -4q-34 -7 -49 -30.5t-18 -69.5q-5 -69 -5 -371z" />
    <glyph glyph-name="k" unicode="k" horiz-adv-x="1409" 
d="M485 807v-96q80 71 213 199t197 198q75 84 90.5 104t15.5 37q0 23 -32 33q-23 7 -23 16q0 13 21 13q3 0 24.5 -1.5t53.5 -3t61 -1.5q35 0 113.5 3t87.5 3q32 0 32 -13t-22 -16q-59 -4 -100 -20q-35 -11 -67 -35.5t-116 -100.5q-85 -77 -235.5 -219.5t-182.5 -171.5
q85 -88 275.5 -275.5t253.5 -244.5q103 -94 166.5 -133t128.5 -53q11 -2 47 -6q29 -3 29 -17q0 -12 -33 -12h-133q-114 0 -165.5 15t-117.5 61q-68 49 -263 248t-319 344v-162q0 -308 9 -375q6 -48 18.5 -66.5t50.5 -27.5q36 -8 78 -8q23 -3 23 -15q0 -14 -29 -14
q-46 0 -101.5 1.5t-93 3t-39.5 1.5q-1 0 -35.5 -1.5t-79 -3t-69.5 -1.5q-33 0 -33 14q0 15 27 15q25 0 49 6q13 3 21.5 11t13.5 23.5t7 28t5 35.5q10 74 10 373v307q0 320 -4 375q-3 44 -15.5 66t-43.5 28q-11 2 -27 3.5t-20 2.5q-23 3 -23 14q0 15 31 15q28 0 73 -1.5
t78.5 -3t34.5 -1.5q2 0 36.5 1.5t79 3t69.5 1.5q30 0 30 -15q0 -11 -22 -14q-6 -1 -18 -2t-19 -2q-41 -6 -54 -27t-16 -71q-2 -28 -2 -373z" />
    <glyph glyph-name="l" unicode="l" horiz-adv-x="1073" 
d="M485 807v-311q0 -187 9 -275t34 -112q26 -23 69.5 -32t145.5 -9q59 0 89.5 2t69 15t59.5 40q31 48 38 102q3 25 17 25q12 0 12 -27q0 -19 -8 -85.5t-16 -98.5q-7 -25 -12.5 -32.5t-26.5 -13t-70 -5.5q-61 0 -224 5t-274 5q-33 0 -88 -3t-92 -3q-33 0 -33 16q0 13 23 13
q33 0 49 4q42 7 53 96q3 22 5 52t3 71t1 73.5t-0.5 90t-0.5 90.5v307q0 316 -4 371q-3 50 -18.5 73t-63.5 29q-12 2 -51 2q-22 0 -22 14q0 15 30 15q24 0 54.5 -0.5t57 -1.5t49.5 -2t37 -1.5t15 -0.5q11 0 95 3t116 3q27 0 27 -15q0 -14 -23 -14q-15 0 -55 -4
q-40 -6 -55.5 -29t-18.5 -71q-2 -27 -2 -371z" />
    <glyph glyph-name="m" unicode="m" horiz-adv-x="1892" 
d="M1540 1284l129 -1065q4 -31 7.5 -49t13.5 -51.5t29.5 -54.5t47.5 -27q42 -10 105 -14q26 0 26 -13q0 -16 -30 -16q-126 0 -324 12q-61 5 -61 19q0 11 18 18q8 3 11.5 19.5t0.5 37.5l-90 877l-434 -881q-41 -84 -49 -92q-6 -6 -14 -6q-9 0 -20 16.5t-42 71.5
q-14 25 -64 123.5t-95 187t-50 95.5q-2 4 -58 115.5t-110 220.5t-61 128l-76 -788q-2 -29 -2 -78q0 -51 51 -61q3 0 58 -6q20 -3 20 -13q0 -16 -35 -16q-39 0 -103.5 3t-66.5 3q-6 0 -67 -3t-90 -3q-31 0 -31 16q0 4 7.5 8.5t19.5 4.5q16 0 39 2q35 3 52 36t25 99l138 1124
q6 51 22 51q8 0 14.5 -6.5t16.5 -25.5l549 -1063l522 1060q15 35 31 35q17 0 20 -51z" />
    <glyph glyph-name="n" unicode="n" horiz-adv-x="1718" 
d="M262 250q0 482 1 739t-1 262q0 84 23 84q4 0 10.5 -4t14 -11.5l14 -14t14 -14.5t10.5 -11q18 -21 590 -604q83 -81 238 -236.5t180 -179.5l-23 852q-2 85 -15.5 118.5t-53.5 43.5q-47 8 -80 8q-25 0 -25 16q0 13 37 13q53 0 123 -3l70 -3q3 0 59 3t104 3q29 0 29 -13
t-18 -16q-4 -1 -21.5 -2.5t-30.5 -3.5q-37 -8 -49 -36.5t-12 -117.5l-4 -1028q0 -50 -2 -74.5t-5.5 -31t-11.5 -6.5q-11 0 -37.5 20.5t-97.5 87.5q-4 2 -78.5 75t-201 198t-191.5 188q-237 246 -469 487l27 -800q3 -110 16.5 -154t50.5 -53q33 -8 84 -8q25 0 25 -15
q0 -14 -33 -14q-49 0 -95 1.5t-73 3t-30 1.5q-4 0 -31 -1.5t-68 -3t-80 -1.5q-30 0 -30 14q0 15 28 15q37 0 64 8q33 10 44 56.5t11 162.5z" />
    <glyph glyph-name="o" unicode="o" 
d="M819 -29q-145 0 -265.5 41.5t-200.5 109.5t-135.5 158t-80 184.5t-24.5 190.5q0 85 25 175.5t82 181.5t137.5 162t203.5 116t268 45q152 0 283 -44.5t227 -127t150.5 -206.5t54.5 -275q0 -195 -89 -356.5t-256 -258t-380 -96.5zM870 41q34 0 70 5t85 21t92.5 42t87.5 72
t75.5 105.5t51.5 148.5t20 196q0 150 -44 273.5t-118.5 202.5t-170.5 122t-202 43q-109 0 -201 -34t-162.5 -101.5t-110.5 -177t-40 -250.5q0 -302 155 -485t412 -183z" />
    <glyph glyph-name="p" unicode="p" horiz-adv-x="1167" 
d="M319 500v307q0 320 -4 375q-3 43 -19.5 66t-57.5 32q-28 4 -64 4q-12 0 -12 10q0 17 28 17q39 0 89 -1.5t85.5 -3t38.5 -1.5q16 0 100.5 3t131.5 3q221 0 336 -99q36 -32 63 -91.5t27 -137.5q0 -170 -126.5 -281.5t-318.5 -111.5q-28 0 -38 2q-19 0 -19 12q0 11 10 14
t41 3q126 0 211.5 79.5t85.5 210.5q0 156 -88 248q-15 15 -31 28t-30 22.5t-31 17t-29.5 12t-29 8t-26.5 5t-25 2.5t-21 1h-18h-13q-49 0 -69 -10q-13 -5 -13 -33v-708q0 -296 9 -379q5 -44 19.5 -68t51.5 -28q56 -9 82 -9q12 0 12 -10q0 -16 -28 -16q-47 0 -102 1.5t-92 3
t-38 1.5h-13q-14 -1 -35 -2t-44.5 -2t-47.5 -1.5t-40 -0.5q-29 0 -29 16q0 10 15 10q17 0 53 9q25 4 36.5 28.5t16.5 67.5q10 74 10 375z" />
    <glyph glyph-name="q" unicode="q" horiz-adv-x="1667" 
d="M1104 29q-44 -24 -124.5 -41t-154.5 -17q-146 0 -267.5 41.5t-202.5 109.5t-136.5 158t-80.5 184.5t-25 192.5q0 60 13 123.5t41 130t68.5 127.5t99.5 115.5t130.5 94.5t165 63.5t198.5 23.5q205 0 366 -77t255 -227t94 -349q0 -90 -23.5 -175t-58.5 -147t-80.5 -117
t-83 -87.5t-73.5 -55.5l381 -190q398 -199 747 -199q71 0 165 17t181 51q15 6 27 6t12 -8q0 -10 -22 -21q-97 -49 -245.5 -86t-328.5 -37q-310 0 -737 234zM870 41q36 0 73.5 5.5t86 22t92 43t86.5 73t74 106t50.5 148t19.5 194.5q0 148 -43.5 270.5t-117.5 202t-171 123
t-205 43.5t-199.5 -34.5t-162 -101.5t-110.5 -177t-40 -252q0 -194 74 -346.5t203 -236t290 -83.5z" />
    <glyph glyph-name="r" unicode="r" horiz-adv-x="1366" 
d="M319 500v307q0 320 -4 375q-3 44 -20 66.5t-62 31.5q-24 4 -49 4q-22 0 -22 12q0 15 24 15q25 0 56 -0.5t58 -1.5t50 -2t37.5 -1.5t15.5 -0.5q4 0 93 3t122 3q226 0 336 -78q18 -14 36 -33t39.5 -50t34.5 -74.5t13 -92.5q0 -94 -51.5 -194.5t-165.5 -192.5
q274 -336 377 -444q66 -68 115 -93t102 -32q28 -4 64 -4q22 0 22 -15q0 -14 -37 -14h-143q-126 0 -186 24q-18 8 -35 18.5t-35.5 27.5t-31.5 30.5t-35 40.5t-34.5 42.5t-40.5 52.5t-42 55q-46 56 -116 147t-81 105q-12 12 -25 12l-211 2q-10 0 -10 -10v-29q0 -313 10 -387
q3 -23 6 -35.5t10.5 -28t23.5 -23.5t40 -11q40 -4 60 -4q26 0 26 -13q0 -16 -28 -16q-47 0 -102 1.5t-91 3t-37 1.5q-14 0 -81 -3t-97 -3q-29 0 -29 16q0 5 8 9t17 4q29 0 45 4q26 4 37 21.5t16 55.5q8 59 8 396zM477 1219v-557q0 -20 10 -25q21 -11 75 -19t108 -8
q91 0 137 31q47 30 74.5 97t27.5 163q0 165 -81 255.5t-220 90.5q-77 0 -119 -10q-12 -4 -12 -18z" />
    <glyph glyph-name="s" unicode="s" horiz-adv-x="1048" 
d="M459 -29q-144 0 -244 45q-19 9 -23 20t-4 50q0 62 9 193q3 28 16 28q14 0 14 -20q0 -37 6 -62q19 -93 94 -138.5t173 -45.5q119 0 185.5 67t66.5 152q0 86 -44 151t-159 158l-82 64q-139 111 -188.5 199t-49.5 188q0 141 104 228t275 87q94 0 166 -16q49 -10 70 -10
q18 0 18 -13l-2 -26q-2 -25 -4 -72t-2 -100q0 -43 -14 -43q-12 0 -15 22q-7 64 -24 97q-7 12 -17.5 23.5t-35.5 30.5t-71 30.5t-106 11.5q-94 0 -154.5 -53.5t-60.5 -143.5q0 -71 45 -129t174 -156l48 -36q154 -119 211 -211.5t57 -206.5q0 -71 -36 -152t-120 -139
q-113 -72 -276 -72z" />
    <glyph glyph-name="t" unicode="t" horiz-adv-x="1253" 
d="M717 1231v-731q0 -284 10 -379q3 -23 5 -34t8.5 -24t17.5 -20.5t30 -11.5q33 -8 80 -8q25 0 25 -13q0 -16 -27 -16q-46 0 -102 1.5t-93 3t-38 1.5q-2 0 -37 -1.5t-78.5 -3t-66.5 -1.5q-31 0 -31 14q0 15 22 15q29 0 45 2q28 4 38 24t16 76q8 74 8 375v731q-176 0 -258 -2
q-92 -1 -128.5 -16t-60.5 -50q-14 -22 -30 -63q-7 -17 -19 -17q-10 0 -10 19q-1 9 41 203q8 32 18 32q6 0 38.5 -10t52.5 -12q90 -10 131 -10h671q100 0 148 10q36 8 39 8q12 0 12 -18q0 -34 -2 -120t-2 -89q0 -25 -14 -25q-15 0 -15 25q0 8 -2 28q-4 44 -21 64t-66 30
t-154 11q-41 0 -107.5 1t-93.5 1z" />
    <glyph glyph-name="u" unicode="u" horiz-adv-x="1488" 
d="M383 807v-244q0 -178 31 -273.5t94 -152.5q106 -94 270 -94q178 0 281 119q57 65 78.5 171.5t21.5 256.5v217q0 316 -4 371q-3 50 -16.5 71.5t-59.5 28.5q-28 4 -57 4q-21 0 -21 12q0 17 29 17q39 0 86.5 -1.5t79.5 -3t33 -1.5q3 0 30 1.5t63.5 3t61.5 1.5q29 0 29 -15
q0 -14 -20 -14q-17 0 -37 -2q-40 -4 -53.5 -28t-16.5 -74q-2 -55 -2 -371v-182q0 -109 -10 -194.5t-49 -182t-107 -154.5q-89 -76 -179 -99.5t-196 -23.5q-250 0 -383 123q-73 68 -112 174.5t-39 284.5v254q0 318 -6 373q-2 46 -17 69t-59 29q-24 4 -53 4q-23 0 -23 12
q0 17 31 17q39 0 88.5 -1.5t85 -3t39.5 -1.5q3 0 81.5 3t110.5 3q29 0 29 -15q0 -14 -24 -14q-14 0 -46 -4q-34 -4 -46 -27t-15 -71q-2 -55 -2 -373z" />
    <glyph glyph-name="v" unicode="v" horiz-adv-x="1339" 
d="M606 86l-442 1057q-33 77 -54.5 100.5t-74.5 32.5q-44 6 -62 6q-24 0 -24 14q0 15 33 15q56 0 144 -3t89 -3q2 0 74 3t117 3q32 0 32 -13q0 -16 -30 -16q-37 0 -64 -10q-18 -10 -18 -35q0 -24 32 -102l361 -906q76 170 211.5 511.5t163.5 433.5q16 43 16 67q0 26 -18 33
q-21 8 -66 8q-27 0 -27 12q0 17 31 17q43 0 116.5 -3t78.5 -3q2 0 27 1.5t58.5 3t55.5 1.5q31 0 31 -13q0 -16 -23 -16q-51 0 -88 -20q-21 -14 -42 -46.5t-54 -113.5q-4 -10 -205 -471q-188 -437 -227 -516q-10 -21 -20.5 -43.5t-16.5 -35t-12 -25.5t-9.5 -19.5t-8 -11.5
t-8 -7t-7.5 -2q-18 0 -29.5 21t-40.5 94z" />
    <glyph glyph-name="w" unicode="w" horiz-adv-x="1978" 
d="M487 127l-315 1010q-23 72 -41 99t-59 38q-31 8 -74 8q-25 0 -25 16q0 13 31 13q47 0 97.5 -1.5t84 -3t39.5 -1.5q4 0 34.5 1.5t77.5 3t89 1.5q29 0 29 -15q0 -16 -29 -16q-43 0 -66 -8q-20 -7 -20 -43q0 -10 4 -30t14.5 -61t16.5 -67q19 -78 113 -407t120 -410l379 963
q14 37 23.5 57t14.5 25.5t11 5.5q10 0 19 -18t30 -73l363 -962q17 59 131 417.5t145 473.5q17 64 17 86q0 27 -19 40t-80 13q-26 0 -26 16q0 13 31 13q33 0 73 -1.5t67.5 -3t31.5 -1.5q1 0 68 3t100 3q24 0 24 -13q0 -16 -26 -16q-24 0 -54 -6q-15 -3 -28 -13.5t-21.5 -21
t-18.5 -33.5t-15 -36t-15.5 -44.5t-15.5 -44.5q-43 -120 -170.5 -493t-153.5 -447q-39 -106 -55.5 -139t-28.5 -33q-14 0 -25.5 21.5t-33.5 83.5l-353 934q-169 -409 -374 -934q-23 -60 -37 -82.5t-27 -22.5q-15 0 -28 28.5t-44 127.5z" />
    <glyph glyph-name="x" unicode="x" horiz-adv-x="1224" 
d="M201 170l327 494l-290 471q-42 67 -67.5 95t-66.5 40q-37 12 -71 12q-27 0 -27 14q0 15 31 15q28 0 123.5 -3t97.5 -3t70.5 3t105.5 3q33 0 33 -13q0 -16 -25 -16q-31 0 -49 -6q-20 -6 -20 -25t24 -63q102 -187 238 -404q52 74 149.5 224t108.5 176q22 42 22 61
q0 28 -36 33q-28 4 -45 4q-25 0 -25 16q0 13 29 13q32 0 71.5 -1.5t67 -3t31.5 -1.5q2 0 62 3t99 3q25 0 25 -13q0 -16 -23 -16q-27 0 -65 -10q-9 -3 -18 -8t-16.5 -10t-17 -15t-15.5 -16.5t-16.5 -21t-15.5 -20.5t-17.5 -24t-16.5 -24l-289 -416q11 -17 101.5 -164.5
t176.5 -284t103 -157.5q1 -2 7 -9.5l8 -10t8 -9t9 -9.5l9 -9t10.5 -9t11 -7.5t12 -7t13 -5t14.5 -4.5q36 -8 56 -8q24 0 24 -15q0 -14 -26 -14q-263 0 -330 4q-16 1 -23 4t-7.5 5t-0.5 9q0 6 21 13q10 3 12 10t-1.5 15.5t-12.5 23.5q-92 166 -301 508l-277 -451
q-31 -55 -31 -76q0 -28 37 -34q12 -2 25 -2q24 0 24 -15q0 -14 -22 -14q-25 0 -100 3t-80 3q-4 0 -30.5 -1.5t-63 -3t-64.5 -1.5q-27 0 -27 14q0 15 23 15q20 0 59 8q39 10 73 41.5t77 97.5z" />
    <glyph glyph-name="y" unicode="y" horiz-adv-x="1185" 
d="M516 291v149q0 70 -10 108t-35 81q-13 24 -142 231.5t-171 265.5q-67 95 -105 125q-41 28 -96 31q-23 0 -23 16q0 13 25 13q15 0 62 -1.5t88.5 -3t42.5 -1.5q3 0 26.5 1.5t59.5 3t69 1.5q27 0 27 -13q0 -10 -23 -16q-20 -4 -26 -11.5t-6 -21.5q0 -17 26 -67
q12 -23 85 -142.5t155 -252.5t88 -142q15 32 80 143t134 226t77 129q30 52 38.5 71.5t8.5 36.5q0 6 -1 10t-4.5 7t-5.5 5t-8 3.5t-8.5 2l-10 2t-9.5 1.5q-23 3 -23 16t25 13q26 0 68 -3t57 -3q13 0 87 3t93 3q24 0 24 -13q0 -16 -24 -16q-68 -3 -103 -27q-8 -5 -14.5 -10.5
t-11 -9.5t-11.5 -13t-10 -13l-13.5 -18t-14.5 -20q-84 -116 -203.5 -313t-144.5 -256q-6 -15 -10 -31t-6.5 -26.5t-3.5 -28.5t-1 -24v-27v-25v-149q0 -90 4 -164q2 -30 6 -45.5t20 -30t46 -20.5q36 -8 76 -8q22 0 22 -13q0 -16 -24 -16q-29 0 -63 0.5t-63 1.5t-53.5 2
t-40 1.5t-16.5 0.5l-34 -2q-35 -1 -80 -2.5t-70 -1.5q-29 0 -29 16q0 13 21 13q27 0 51 6q46 8 53 98q6 74 6 164z" />
    <glyph glyph-name="z" unicode="z" horiz-adv-x="1253" 
d="M354 76h475q140 0 202.5 17.5t86.5 66.5q19 36 31 96q7 29 16 29q15 0 15 -31q0 -80 -37 -213q-10 -35 -19 -42t-43 -7q-148 0 -448.5 4t-464.5 4q-33 0 -33 14q0 10 25 49q43 63 155 227.5t168.5 248t145.5 217t163.5 248.5t145.5 229h-375q-73 0 -109.5 -1t-84.5 -6
t-78 -16q-22 -8 -38.5 -25.5t-26.5 -43t-15 -42t-10 -42.5q-7 -33 -21 -33q-10 0 -10 25q0 7 35 239q3 21 7 28t13 7q6 0 29 -5.5t53 -6.5q195 -6 309 -6h500q41 0 41 -13q0 -12 -14 -32q-60 -91 -193 -292.5t-206.5 -312.5t-183.5 -275.5t-206 -303.5z" />
    <glyph glyph-name="braceleft" unicode="{" horiz-adv-x="827" 
d="M248 743q97 -27 159 -95.5t62 -188.5q0 -23 -3 -118.5t-3 -168.5q0 -79 13.5 -140t32 -95.5t49.5 -60.5t52 -36.5t54 -21.5q20 -7 20 -17t-20 -10q-48 0 -116.5 22.5t-115.5 69.5q-60 60 -84 139t-24 201q0 39 7 151.5t7 176.5q0 84 -41 122t-115 50q-30 5 -30 18
q0 11 38 19q148 33 148 186q0 40 -7 128t-7 128q0 90 25.5 163t63 116.5t84.5 73.5t87.5 41.5t74.5 11.5q23 0 23 -11q0 -9 -18 -14q-201 -62 -201 -274q0 -55 3 -134t3 -108q0 -112 -59.5 -201.5t-161.5 -122.5z" />
    <glyph glyph-name="bar" unicode="|" horiz-adv-x="1013" 
d="M551 -512h-86v2048h86v-2048z" />
    <glyph glyph-name="braceright" unicode="}" horiz-adv-x="827" 
d="M578 739q-45 13 -82 34.5t-70 54.5t-51.5 83t-18.5 113q0 23 4.5 79.5t4.5 129.5q0 57 -7 104.5t-17 80t-28 59t-33 42t-38.5 29t-37.5 19.5t-38 14q-23 10 -23 14q0 13 29 13q47 0 110 -23t111 -69q61 -61 86 -137.5t25 -196.5q0 -39 -7.5 -112t-7.5 -138
q0 -83 41 -121.5t113 -50.5q31 -5 31 -17t-37 -20q-148 -28 -148 -186q0 -39 7.5 -167.5t7.5 -168.5q0 -89 -25.5 -162t-64 -118t-86 -75.5t-89 -42.5t-75.5 -12q-19 0 -19 10t19 15q201 61 201 272q0 56 -4.5 175t-4.5 147q0 113 60 204.5t162 124.5z" />
    <glyph glyph-name="asciitilde" unicode="~" horiz-adv-x="1353" 
d="M295 569h-102q-6 144 55 220.5t172 76.5q63 0 115 -21t153 -79q56 -32 86 -47.5t67.5 -28t69.5 -12.5q68 0 96 40.5t29 145.5h101q4 -159 -58.5 -228t-167.5 -69q-63 0 -117.5 22t-150.5 79q-77 46 -126.5 68t-92.5 22q-65 0 -95.5 -43t-33.5 -146z" />
    <glyph glyph-name="uni00A0" unicode="&#xa0;" horiz-adv-x="665" 
 />
    <glyph glyph-name="exclamdown" unicode="&#xa1;" horiz-adv-x="737" 
d="M332 1159q25 0 28 -69q29 -451 33 -523q20 -310 39 -385q8 -32 8 -39q0 -11 -10 -28q-24 -41 -89 -95.5t-105 -54.5q-13 0 -13 21q0 4 4.5 39t11.5 100t11 131q2 29 28 416t29 422q4 65 25 65zM328 1571q50 0 76 -32.5t26 -72.5q0 -38 -26.5 -71t-77.5 -33q-45 0 -75 27
t-30 71q0 47 30 79t77 32z" />
    <glyph glyph-name="cent" unicode="&#xa2;" horiz-adv-x="1169" 
d="M762 1227l-84 -910q41 -6 86 -6q101 0 170.5 43t91.5 131q8 35 21 35q10 0 10 -22q0 -10 -12 -82.5t-19 -104.5q-8 -32 -29 -37q-115 -41 -268 -41q-29 0 -59 3l-25 -273q0 -12 -20 -16l-39 -13q-18 -3 -15 21l27 289q-101 16 -185.5 55.5t-152 104t-105.5 161t-38 215.5
q0 69 17 132.5t45.5 109.5t53.5 76t52 53q79 66 173.5 101.5t235.5 41.5l19 207q0 16 12 19l47 14q16 3 16 -10l-20 -228q143 0 281 -53q10 -6 12 -11t2 -18q0 -105 -12 -192q-3 -31 -17 -31t-14 29q0 1 -1.5 15t-2 18t-2.5 16.5t-4.5 19t-6 17t-9 19t-11.5 16.5
q-17 20 -34 33t-66.5 30t-120.5 23zM606 334l82 897q-186 -3 -289.5 -117.5t-103.5 -302.5q0 -175 81.5 -302.5t229.5 -174.5z" />
    <glyph glyph-name="sterling" unicode="&#xa3;" horiz-adv-x="1169" 
d="M514 0h-477q-60 0 -60 20q0 28 41 35q60 13 105 44t73 70t48 99.5t30.5 114.5t20.5 133l27 215h-154q-15 0 -28 -2t-15 -2q-6 0 -8 5.5t2 12.5l24 43q7 17 29 17h162l20 143q26 177 72 301t141 207q133 115 310 115q88 0 178 -25q21 -6 55 -10q14 -3 14 -25
q0 -171 -10 -233q-4 -25 -16 -25q-14 0 -17 31q-8 86 -45 135q-60 80 -207 80q-54 0 -99 -20.5t-77 -55.5t-56.5 -84t-39 -103t-22.5 -116l-37 -315h223q25 0 46.5 2.5t34 5t15.5 2.5q19 0 10 -20l-22 -50q-8 -16 -33 -16h-287l-10 -86q-7 -53 -20 -111.5t-39 -136
t-71.5 -151.5t-104.5 -125l4 -4l639 6q86 2 130.5 39.5t59.5 128.5q3 20 17 20t14 -30q0 -18 -12.5 -107t-22.5 -141q-5 -20 -12 -27t-31 -10.5t-82 -3.5q-70 0 -226.5 5t-203.5 5z" />
    <glyph glyph-name="currency" unicode="&#xa4;" horiz-adv-x="1169" 
d="M1063 1133l-162 -146q35 -44 56.5 -113.5t21.5 -142.5q0 -174 -82 -274l156 -150l-68 -71l-145 163q-102 -102 -254 -102q-161 0 -256 98l-135 -157l-64 69l145 144q-36 43 -58.5 116.5t-22.5 149.5q0 155 86 270l-154 146l68 75l137 -164q46 48 116 74.5t144 26.5
q73 0 142.5 -26.5t111.5 -71.5l149 157zM879 725q0 88 -33.5 163t-102 123t-157.5 48q-136 0 -214.5 -91.5t-78.5 -246.5q0 -84 26 -150.5t69 -106.5t94 -60.5t104 -20.5q59 0 110 19.5t93 59.5t66 107.5t24 155.5z" />
    <glyph glyph-name="yen" unicode="&#xa5;" horiz-adv-x="1169" 
d="M217 813h260q-39 73 -144.5 274.5t-129.5 247.5q-47 90 -80 127.5t-82 44.5q-26 4 -49 6q-19 2 -19 17q0 4 1 6t6.5 4t17.5 2q27 0 92 -3t94 -3q5 0 73.5 3t104.5 3q27 0 27 -12q0 -15 -24 -17q-56 -5 -56 -34q0 -10 39 -86q95 -190 275 -527q35 69 132 270t101 210
q45 92 45 127q0 19 -16.5 28t-63.5 12q-24 3 -24 17q0 12 28 12q27 0 86 -3t80 -3q27 0 87 3t77 3q25 0 25 -12q0 -14 -27 -17q-69 -7 -101 -31.5t-79 -101.5q-75 -123 -295 -567h274q10 0 12 -1.5t1 -10.5l-11 -45q-1 -7 -4 -9t-14 -2h-272v-147h288q9 0 11 -2.5t0 -11.5
l-9 -43q-3 -11 -24 -11h-266v-141q0 -160 6 -246q7 -102 84 -112q58 -8 84 -8q24 0 24 -13q0 -16 -31 -16q-50 0 -110.5 1.5t-101 3t-41.5 1.5q-3 0 -41 -1.5t-85.5 -3t-74.5 -1.5q-33 0 -33 16q0 13 23 13q26 0 53 6q58 11 65 114q7 96 7 246v141h-285q-11 0 -13.5 4
t1.5 15l10 41q3 8 14 8h273v147h-285q-14 0 -16 4t4 23l10 33q3 8 12 8z" />
    <glyph glyph-name="brokenbar" unicode="&#xa6;" horiz-adv-x="1013" 
d="M551 666h-86v716h86v-716zM551 -358h-86v716h86v-716z" />
    <glyph glyph-name="section" unicode="&#xa7;" horiz-adv-x="1193" 
d="M369 1014q-136 109 -136 252t107 225t274 82q89 0 197 -17q11 -1 25.5 -4t25 -4.5t19.5 -1.5q15 0 12 -12q-12 -96 -12 -201q0 -37 -17 -37q-2 0 -4 1t-3.5 2.5t-2.5 3.5t-1.5 5t-1 5t-1 6t-0.5 6q-10 84 -35 117q-31 35 -80.5 54.5t-152.5 19.5q-94 0 -157 -54.5
t-63 -148.5q0 -79 40 -128t145 -120q49 -28 100 -64q51 -34 80 -54t69 -50t62 -52.5t47.5 -53.5t38 -60.5t21 -66.5t8.5 -78q0 -98 -56 -181.5t-145 -140.5q98 -91 98 -225q0 -70 -29 -135t-82.5 -116t-135.5 -81.5t-181 -30.5q-78 0 -153 17.5t-119 42.5q-27 19 -27 59
q0 123 11 180q5 31 18 31q12 0 12 -22q0 -40 6 -64q14 -87 90 -129.5t195 -42.5q107 0 183.5 63t76.5 164q0 50 -12.5 88t-47.5 76t-76 69.5t-118 82.5l-63 43q-103 68 -161 120.5t-90 115t-32 139.5q0 101 68.5 183t165.5 122zM408 981q-57 -27 -95 -66t-52.5 -75
t-14.5 -72q0 -77 53.5 -140t222.5 -177l72 -48q90 -59 139 -100q51 23 89 89.5t38 129.5q0 31 -3.5 51t-19 51.5t-46 63.5t-86.5 79t-138 105q-25 15 -159 109z" />
    <glyph glyph-name="dieresis" unicode="&#xa8;" horiz-adv-x="1024" 
d="M739 1536q-38 0 -59 24.5t-21 55.5q0 29 21.5 54.5t60.5 25.5q34 0 56 -21t22 -55q0 -38 -21.5 -61t-58.5 -23zM283 1536q-39 0 -58.5 24.5t-19.5 55.5t20.5 55.5t59.5 24.5q34 0 55.5 -21t21.5 -55q0 -37 -21.5 -60.5t-57.5 -23.5z" />
    <glyph glyph-name="copyright" unicode="&#xa9;" horiz-adv-x="1875" 
d="M915 -35q-172 0 -321 62.5t-251.5 170.5t-161 255t-58.5 313q0 214 102.5 398.5t285.5 295.5t404 111q232 0 413.5 -108.5t278.5 -291t97 -405.5q0 -163 -64 -312t-170.5 -255.5t-252 -170t-302.5 -63.5zM193 768q0 -148 56 -284.5t151.5 -238t230 -162t284.5 -60.5
q164 0 301 58.5t227.5 159.5t140.5 236.5t50 290.5t-54 293t-148 238t-228.5 158.5t-288.5 58.5q-164 0 -301.5 -58.5t-228.5 -160t-141.5 -238t-50.5 -291.5zM995 334q-239 0 -374 123q-75 67 -107.5 156t-32.5 178q0 178 125 301q127 127 355 127q75 0 161 -15
q92 -18 117 -18q8 0 8 -10q0 -3 -1.5 -14.5t-3.5 -28.5t-3 -31q-2 -37 -2 -109q-3 -22 -12 -22q-13 0 -13 22q-3 78 -41 113q-66 59 -221 59q-67 0 -117 -14t-74 -29.5t-52 -42.5q-91 -84 -91 -274q0 -73 22 -143t65.5 -131.5t120 -99.5t175.5 -38q64 0 105 11t72 40
q31 31 47 105q5 18 14 18q8 0 8 -16q0 -37 -22 -154q-6 -25 -29 -35q-55 -28 -199 -28z" />
    <glyph glyph-name="ordfeminine" unicode="&#xaa;" horiz-adv-x="897" 
d="M676 1133l-4 -273q0 -69 15.5 -100t53.5 -31q20 0 41 6q15 6 15 -4q0 -5 -9 -18q-46 -43 -114 -43q-56 0 -88 26.5t-37 65.5q-40 -40 -95.5 -68t-117.5 -28q-91 0 -143 54.5t-52 135.5q0 54 31 96.5t90 70.5t130 46.5t163 30.5v55q0 37 -7 70.5t-24 67.5t-53.5 54.5
t-87.5 20.5q-76 0 -122.5 -37.5t-57.5 -105.5q-3 -21 -13 -21t-10 23q0 11 2 59t2 60q0 14 3 18.5t12 9.5q16 7 88 35q76 27 141 27q70 0 121 -25.5t78 -69.5t39 -96t10 -112zM549 846l6 201q-89 -11 -148.5 -29t-89 -42t-40.5 -48.5t-11 -57.5q0 -62 40.5 -93.5t96.5 -31.5
q76 0 134 62q12 14 12 39z" />
    <glyph glyph-name="guillemotleft" unicode="&#xab;" horiz-adv-x="1204" 
d="M598 274l-53 -57q-10 -10 -19 -10t-53 51q-38 46 -147.5 168t-143.5 156q-35 35 -35 45q0 8 33 37q43 37 200.5 186.5t192.5 181.5q25 25 37 25q12 -7 3.5 -21.5t-19.5 -25.5q-43 -53 -168 -191.5t-154 -175.5q13 -18 53.5 -62t77.5 -83t96 -100t76 -79q6 -6 12 -11.5
t9 -8t5.5 -4.5t3.5 -3.5t1 -2.5q0 -7 -8 -15zM1036 274l-53 -55q-12 -12 -18 -12q-10 0 -54 51q-39 47 -147.5 168.5t-142.5 155.5q-35 35 -35 45q0 9 32 37q43 37 201 187t193 181q25 25 37 25q19 0 -15 -45q-2 -1 -2 -2q-43 -53 -167.5 -191.5t-153.5 -175.5
q13 -18 53.5 -62t77.5 -83t96 -100t76 -79q6 -6 12 -11.5t9 -8t5 -4.5t3 -3.5t1 -2.5q0 -7 -8 -15z" />
    <glyph glyph-name="logicalnot" unicode="&#xac;" horiz-adv-x="1353" 
d="M1161 289h-106v399h-865v109h971v-508z" />
    <glyph glyph-name="uni00AD" unicode="&#xad;" horiz-adv-x="706" 
d="M141 741h443q22 0 33.5 -2t14.5 -5t3 -9q0 -17 -68 -31q-31 -6 -106 -18.5t-117.5 -20.5t-96 -19.5t-85.5 -21.5q-16 -5 -35.5 -11.5t-30 -9.5t-14.5 -3q-12 0 -8 28l26 107q3 10 11 13t30 3z" />
    <glyph glyph-name="registered" unicode="&#xae;" horiz-adv-x="421" 
d="M211 1212q-76 0 -128 52t-52 127q0 78 51.5 129t128.5 51t128.5 -51t51.5 -129q0 -75 -52 -127t-128 -52zM213 1237q64 0 106.5 42.5t42.5 113.5q0 67 -43 110t-108 43t-108.5 -43t-43.5 -110q0 -66 44 -111t110 -45zM147 1341v117q0 14 -4.5 18.5t-17.5 6.5q-8 0 -8 6
q0 4 10 4q8 0 20.5 -1t14.5 -1q10 0 22 1t19 1q76 0 76 -53q0 -34 -35 -49l24 -35q21 -30 43 -41q8 -3 8 -6q0 -4 -12 -4q-32 0 -46 10q-11 8 -23 24l-27 39h-29v-30q0 -21 4 -26t19 -7q10 0 10 -6q0 -4 -10 -4q-6 0 -20 1t-19 1q-2 0 -17.5 -1t-23.5 -1t-8 4q0 6 10 6
q9 1 12.5 2.5t5.5 6.5t2 17zM182 1473v-74q8 -4 25 -4q13 0 22 6q13 10 13 29q0 21 -11 34t-32 13q-13 0 -17 -4z" />
    <glyph glyph-name="macron" unicode="&#xaf;" horiz-adv-x="1024" 
d="M250 1593h543q11 0 15 -7t1 -15l-16 -49q-3 -13 -19 -13h-543q-11 0 -16 3t-4 12l16 57q2 12 23 12z" />
    <glyph glyph-name="degree" unicode="&#xb0;" horiz-adv-x="630" 
d="M518 1219q-1 -93 -66.5 -154t-152.5 -61q-93 0 -153 60.5t-60 145.5q0 91 62 153t153 62q98 0 157.5 -60t59.5 -146zM422 1219q0 50 -32 89.5t-93 39.5q-55 0 -88 -41t-33 -93q0 -53 35.5 -90t87.5 -37t87.5 38t35.5 94z" />
    <glyph glyph-name="plusminus" unicode="&#xb1;" horiz-adv-x="1353" 
d="M1161 109h-966l-2 106h968v-106zM1161 805h-428v-434h-108v434h-432v106h430v420h108v-420h430v-106z" />
    <glyph glyph-name="twosuperior" unicode="&#xb2;" horiz-adv-x="757" 
d="M580 979q-83 0 -255.5 1t-256.5 1q-21 0 -21 10q0 8 31 35q82 67 140 118.5t116.5 115t94.5 119.5t58.5 121t22.5 130q0 116 -56.5 167.5t-144.5 51.5q-85 0 -137 -41q-41 -24 -41 -104q-3 -25 -14 -25q-7 0 -13 19q0 2 -3 59t-3 78q0 12 13 20q130 46 233 46
q150 0 232.5 -70t82.5 -182q0 -44 -11 -87t-26 -77.5t-45.5 -75t-53.5 -67.5t-68 -68t-70.5 -62t-79 -65t-76.5 -64q-5 -2 -2 -5q1 -1 4 -1h84q146 0 248 6q60 4 84.5 25t36.5 76q4 22 12 22q6 0 6 -18q0 -16 -11.5 -87t-20.5 -97q-5 -15 -22 -20t-68 -5z" />
    <glyph glyph-name="threesuperior" unicode="&#xb3;" horiz-adv-x="759" 
d="M279 965q-113 0 -175 30q-24 12 -24 35q-2 33 1 85.5t7 72.5q4 22 14 22q13 0 13 -24q3 -78 49.5 -123t132.5 -45q99 0 165 57.5t66 163.5q0 104 -64.5 156.5t-166.5 62.5q-37 3 -37 17q0 5 11 11t24 7q197 25 197 193q0 64 -40 113.5t-130 49.5q-83 0 -122 -45t-44 -112
q-3 -25 -13 -25q-6 0 -10 6.5t-4 14.5q-8 44 -8 139q0 24 18 31q105 43 217 43q73 0 129 -18t87 -47.5t46 -61t15 -62.5q0 -50 -19 -89.5t-53.5 -65t-64.5 -40.5t-70 -28q-6 -3 0 -6q42 -8 80.5 -22.5t80 -40t66.5 -68.5t25 -97q0 -124 -110 -207t-289 -83z" />
    <glyph glyph-name="acute" unicode="&#xb4;" horiz-adv-x="1024" 
d="M723 1741q47 -38 68 -72q7 -13 4 -18.5t-11 -5.5q-1 0 -14.5 -3.5t-30.5 -9t-30 -10.5q-133 -62 -263 -141l-6 -3q-6 -4 -11 -6.5t-11.5 -5t-10.5 -1t-4 7.5q0 9 15 24q8 8 63 66.5t94 98t60 56.5q44 35 53 35q21 0 35 -12z" />
    <glyph glyph-name="uni00B5" unicode="&#xb5;" horiz-adv-x="1376" 
d="M256 358v70q0 387 -12 551q0 12 12 12q92 0 158 8q10 3 10 -12q-10 -140 -10 -514v-111q0 -125 55.5 -202.5t165.5 -77.5q109 0 185.5 68t76.5 182v88q0 422 -10 559q0 12 10 12q94 0 160 8q13 3 10 -12q-8 -112 -8 -498v-251q0 -99 28.5 -141t86.5 -42q30 0 77 19
q19 6 19 -6q0 -8 -8 -19q-68 -74 -181 -74q-171 0 -176 203q-125 -198 -323 -198q-57 0 -115.5 24t-97.5 78q8 -393 65 -477q9 -12 -8 -25q-33 -31 -83 -48t-73 -17q-8 0 -12.5 5.5t-8 26.5t-3.5 60q0 137 5 389.5t5 361.5z" />
    <glyph glyph-name="paragraph" unicode="&#xb6;" horiz-adv-x="1533" 
d="M131 1063q0 100 39.5 184.5t99.5 141.5q161 153 469 153q19 0 106.5 -3t110.5 -3q1 0 138 3t192 3q37 0 37 -14q0 -6 -8 -10.5t-19 -4.5q-27 0 -51 -6q-39 -10 -55 -36t-19 -80q-4 -66 -4 -443v-805q0 -352 4 -409q0 -15 -14 -29q-20 -18 -48.5 -30.5t-49.5 -12.5
q-12 0 -12 10q0 2 4.5 27.5t5.5 50.5q10 113 10 393v1272q0 36 -14.5 51t-65.5 15q-39 0 -56 -11.5t-20 -50.5q-2 -40 -2 -471v-796q0 -432 6 -496q3 -12 -12 -27q-20 -19 -49.5 -31t-52.5 -12q-17 0 -17 13q0 1 2 8t5 25.5t6 43.5q12 126 12 476v1247q0 48 -7.5 61
t-41.5 13q-54 0 -109 -30.5t-90 -86.5q-39 -61 -55.5 -143t-16.5 -150q0 -140 40.5 -242.5t113.5 -150.5q13 -9 29.5 -14.5t23 -10t6.5 -14.5q0 -17 -65 -17q-221 0 -363.5 123t-142.5 326z" />
    <glyph glyph-name="periodcentered" unicode="&#xb7;" horiz-adv-x="499" 
d="M152 813q44 0 192 -33q43 -9 43 -24q0 -9 -10 -29q-10 -16 -23 -33.5t-22.5 -28.5t-29 -30t-26 -25t-31 -28t-28.5 -25q-25 -20 -29 -20q-2 0 -5 2.5t-3 5.5q0 8 10 28q15 53 15 115q0 72 -49 96q-21 10 -21 17q0 12 17 12z" />
    <glyph glyph-name="cedilla" unicode="&#xb8;" horiz-adv-x="1024" 
d="M549 2h74q-22 -19 -74 -65t-66 -58q215 -32 215 -158q0 -82 -90.5 -132t-218.5 -50q-10 0 -18.5 5.5t-8.5 11.5q0 7 39 16q73 14 115.5 48t42.5 87q0 102 -162 127q-22 4 -22 14q0 11 24 27z" />
    <glyph glyph-name="onesuperior" unicode="&#xb9;" horiz-adv-x="567" 
d="M250 1348v370q0 26 -4.5 36.5t-16.5 10.5q-29 0 -106 -26l-7 -2q-7 -2 -10.5 -2.5t-9.5 -1t-9 2t-3 7.5q0 10 18 18q124 55 240 121q38 19 41 19q6 0 6 -25q0 -1 -0.5 -19.5t-1.5 -48t-2 -66.5t-1.5 -84.5t-0.5 -92.5v-217q0 -228 4 -281q1 -29 11.5 -41.5t35.5 -17.5
q9 -2 20.5 -3t24.5 -2t19 -2q22 0 22 -12t-26 -12q-37 0 -103.5 2t-68.5 2l-75 -2q-75 -2 -110 -2q-28 0 -28 12q0 15 26 15q33 0 62 4q27 4 36.5 17t12.5 46q4 55 4 277z" />
    <glyph glyph-name="ordmasculine" unicode="&#xba;" horiz-adv-x="978" 
d="M483 668q-91 0 -165 33t-120.5 87.5t-71 122t-24.5 140.5q0 54 14 107t45.5 103.5t76.5 89t111.5 62t146.5 23.5q166 0 273.5 -102t107.5 -267q0 -172 -109 -285.5t-285 -113.5zM743 1038q0 153 -77.5 243.5t-190.5 90.5q-107 0 -172 -75t-65 -224q0 -155 77 -247.5
t189 -92.5q31 0 62 8t63.5 29.5t57 54.5t40.5 88t16 125z" />
    <glyph glyph-name="guillemotright" unicode="&#xbb;" horiz-adv-x="1204" 
d="M606 993l53 58q10 10 19 10t53 -51q38 -46 147.5 -168t143.5 -156q35 -35 35 -45q0 -8 -33 -37q-43 -37 -200.5 -186.5t-192.5 -181.5q-25 -25 -37 -25q-12 7 -3.5 21.5t19.5 25.5q43 53 168 191.5t154 175.5q-17 23 -66 76t-138.5 145.5t-98.5 101.5q-6 6 -12 11.5
t-9 8.5t-5.5 5t-3.5 3.5t-1 2.5q0 6 8 14zM168 993l53 56q12 12 19 12q9 0 53 -51q38 -46 147.5 -168t143.5 -156t34 -45q0 -9 -32 -37q-43 -37 -200.5 -186.5t-192.5 -181.5q-25 -25 -37 -25q-18 2 16 47q43 53 168 191.5t154 175.5q-17 23 -68 77.5t-135.5 142
t-100.5 103.5q-30 30 -30 31q0 6 8 14z" />
    <glyph glyph-name="onequarter" unicode="&#xbc;" horiz-adv-x="1789" 
d="M1436 1599l43 -34q9 -9 0 -17l-1110 -1579q-7 -10 -15 -2l-41 33q-5 5 0 16l1108 1579q8 11 15 4zM295 1018v371q0 26 -4.5 36.5t-16.5 10.5q-26 0 -106 -27l-7 -2q-7 -2 -10.5 -2.5t-9.5 -1t-9 2t-3 7.5q0 11 18 19q132 58 240 120q38 19 41 19q6 0 6 -25
q0 -1 -0.5 -19.5t-1.5 -48t-2 -66.5t-1.5 -84.5t-0.5 -92.5v-217q0 -228 4 -281q1 -29 11.5 -41.5t35.5 -17.5q12 -2 36 -4t28 -2q22 0 22 -13q0 -12 -26 -12q-37 0 -103.5 2t-68.5 2l-75 -2q-75 -2 -110 -2q-28 0 -28 12q0 15 26 15q33 0 62 4q27 4 36.5 17t12.5 46
q4 55 4 277zM1477 702v-376h98q47 2 67 22q8 9 15 7.5t4 -15.5q-6 -33 -23 -74q-9 -12 -26 -12q-23 -2 -135 -2q0 -135 4 -176q3 -34 11.5 -48t37.5 -20q6 -1 20 -2t21 -2q22 -2 22 -14q0 -13 -26 -13q-42 0 -99 2.5t-65 2.5q-11 0 -59 -2.5t-82 -2.5q-29 0 -29 15
q0 12 22 12q10 2 39 2q31 3 43 19.5t15 50.5q2 45 2 176q-281 0 -391 4q-33 3 -33 12t18 35q31 40 223 267.5t261 303.5q2 2 7.5 8t8 8t6.5 5.5t7.5 4.5t6.5 1q11 0 11 -33q0 -3 -1 -64.5t-1 -101.5zM1354 326v387q-295 -356 -314 -387h314z" />
    <glyph glyph-name="onehalf" unicode="&#xbd;" horiz-adv-x="1843" 
d="M1382 1599l43 -34q9 -9 0 -17l-1110 -1579q-6 -10 -14 -2l-41 33q-5 5 0 16l1108 1579q8 10 14 4zM295 1018v371q0 26 -4.5 36.5t-16.5 10.5q-26 0 -106 -27l-7 -2q-7 -2 -10.5 -2.5t-9.5 -1t-9 2t-3 7.5q0 11 18 19q132 58 240 120q38 19 41 19q6 0 6 -25
q0 -1 -0.5 -19.5t-1.5 -48t-2 -66.5t-1.5 -84.5t-0.5 -92.5v-217q0 -228 4 -281q1 -29 11.5 -41.5t35.5 -17.5q12 -2 36 -4t28 -2q22 0 22 -13q0 -12 -26 -12q-37 0 -103.5 2t-68.5 2l-75 -2q-75 -2 -110 -2q-28 0 -28 12q0 15 26 15q33 0 62 4q27 4 36.5 17t12.5 46
q4 55 4 277zM1593 -23q-83 0 -255.5 1.5t-256.5 1.5q-20 0 -20 10q0 8 31 35q82 67 140 118.5t116.5 115t94.5 119.5t58.5 121t22.5 130q0 116 -56.5 167.5t-144.5 51.5q-85 0 -137 -41q-41 -24 -41 -105q-3 -24 -15 -24q-6 0 -12 18q0 2 -3 59.5t-3 78.5q0 13 12 20
q128 45 234 45q150 0 232.5 -70t82.5 -182q0 -44 -11 -87t-26 -77.5t-45.5 -75t-54 -67t-68 -67t-70 -62.5t-78.5 -65.5t-77 -63.5q-5 -2 -2 -5q1 -1 4 -1h84q146 0 248 6q61 4 85 24.5t36 75.5q4 23 12 23q6 0 6 -19q0 -16 -12 -87t-21 -97q-5 -15 -22 -20t-68 -5z" />
    <glyph glyph-name="threequarters" unicode="&#xbe;" horiz-adv-x="1865" 
d="M1522 1599l43 -34q9 -9 0 -17l-1110 -1579q-7 -10 -15 -2l-41 33q-5 5 0 16l1108 1579q8 11 15 4zM1552 702v-376h99q47 2 67 22q8 9 15 7.5t4 -15.5q-6 -33 -23 -74q-9 -12 -26 -12q-23 -2 -136 -2q0 -135 4 -176q3 -34 12 -48t38 -20q6 -1 20 -2t21 -2q22 -2 22 -14
q0 -13 -27 -13q-42 0 -98.5 2.5t-64.5 2.5q-11 0 -59 -2.5t-83 -2.5q-28 0 -28 15q0 12 22 12q10 2 39 2q31 3 42.5 19t14.5 51q3 67 3 176q-282 0 -392 4q-32 3 -32 12t18 35q32 41 223.5 268t259.5 303q27 27 37 27t10 -33q0 -3 -1 -64.5t-1 -101.5zM1430 326v387
q-295 -356 -314 -387h314zM326 635q-110 0 -174 31q-25 12 -25 34q-2 33 1 85.5t7 72.5q4 23 15 23q12 0 12 -25q3 -78 49.5 -123t132.5 -45q99 0 165 57.5t66 163.5q0 104 -64.5 156.5t-166.5 62.5q-37 3 -37 17q0 5 11 11t24 7q197 25 197 193q0 64 -40 114t-130 50
q-83 0 -122 -45.5t-44 -112.5q-3 -25 -13 -25q-6 0 -10 6.5t-4 14.5q-8 44 -8 139q0 24 18 31q105 43 217 43q73 0 129 -18t87 -47.5t46 -61t15 -62.5q0 -50 -19 -89.5t-53.5 -65t-64.5 -40.5t-70 -28q-6 -3 0 -6q32 -6 62.5 -15.5t66.5 -28t62 -42t43.5 -60.5t17.5 -81
q0 -124 -110 -207.5t-289 -83.5z" />
    <glyph glyph-name="questiondown" unicode="&#xbf;" horiz-adv-x="1101" 
d="M494 -35q-97 0 -171.5 29t-116 76.5t-62.5 102t-21 112.5q0 69 16 127t53.5 115.5t71.5 99t100.5 116.5t110.5 129q52 66 68 100t16 64q0 56 -33 107q-16 24 -16 35q0 16 12 16q13 0 40 -23.5t48 -48.5q60 -75 60 -121q0 -45 -45 -102q-25 -32 -73 -88t-69 -82
q-103 -131 -141.5 -227.5t-38.5 -202.5q0 -32 7 -66t24.5 -70t43.5 -64t69 -46t96 -18q70 0 121 23t79 57q62 75 72 190q3 35 16 35q14 0 17 -21q8 -39 8 -239q0 -20 -22 -33q-55 -33 -143.5 -57.5t-196.5 -24.5zM541 1571q50 0 78 -34t28 -75q0 -40 -28.5 -74t-79.5 -34
q-45 0 -75 29.5t-30 76.5t30.5 79t76.5 32z" />
    <glyph glyph-name="Agrave" unicode="&#xc0;" horiz-adv-x="1433" 
d="M899 598h-440q-15 0 -21 -16l-123 -363q-28 -79 -28 -137q0 -29 22 -44t51 -15h19q27 0 27 -13q0 -16 -37 -16q-28 0 -87 3t-67 3q-2 0 -88 -3t-143 -3q-39 0 -39 16q0 13 28 13q18 0 50 4q65 8 102.5 55.5t69.5 136.5l464 1272q18 49 27.5 64.5t18.5 15.5t18 -14t27 -60
q9 -23 104 -271t206.5 -537.5t166.5 -426.5q26 -65 51.5 -110t48.5 -68t40 -33.5t36 -15.5q37 -12 80 -12q22 0 22 -13q0 -16 -41 -16q-180 0 -321 4q-55 3 -60 9q-2 2 -2 5q0 11 15 15q11 4 15 17t-3 38l-190 504q-6 12 -19 12zM481 672h391q12 0 9 14l-195 553
q-16 48 -31 0l-180 -553q-6 -14 6 -14zM801 1669q0 -8 -13 -8q-26 0 -175.5 67.5t-243.5 120.5q-35 21 -35 29t22 20q61 32 90 39q24 7 33 7q10 0 29 -23q28 -29 116.5 -105t155.5 -124q21 -15 21 -23z" />
    <glyph glyph-name="Aacute" unicode="&#xc1;" horiz-adv-x="1433" 
d="M899 598h-440q-15 0 -21 -16l-123 -363q-28 -79 -28 -137q0 -29 22 -44t51 -15h19q27 0 27 -13q0 -16 -37 -16q-28 0 -87 3t-67 3q-2 0 -88 -3t-143 -3q-39 0 -39 16q0 13 28 13q18 0 50 4q65 8 102.5 55.5t69.5 136.5l464 1272q18 49 27.5 64.5t18.5 15.5t18 -14t27 -60
q9 -23 104 -271t206.5 -537.5t166.5 -426.5q26 -65 51.5 -110t48.5 -68t40 -33.5t36 -15.5q37 -12 80 -12q22 0 22 -13q0 -16 -41 -16q-180 0 -321 4q-55 3 -60 9q-2 2 -2 5q0 11 15 15q11 4 15 17t-3 38l-190 504q-6 12 -19 12zM481 672h391q12 0 9 14l-195 553
q-16 48 -31 0l-180 -553q-6 -14 6 -14zM948 1923q46 -42 66 -82q6 -15 3 -20.5t-11 -5.5q-37 0 -84 -17q-112 -41 -291 -125q-28 -12 -33 -12q-3 0 -7.5 2.5t-4.5 5.5q0 9 16 25q54 50 135 119.5t117 93.5q46 32 59 32q19 0 35 -16z" />
    <glyph glyph-name="Acircumflex" unicode="&#xc2;" horiz-adv-x="1433" 
d="M899 598h-440q-15 0 -21 -16l-123 -363q-28 -79 -28 -137q0 -29 22 -44t51 -15h19q27 0 27 -13q0 -16 -37 -16q-28 0 -87 3t-67 3q-2 0 -88 -3t-143 -3q-39 0 -39 16q0 13 28 13q18 0 50 4q65 8 102.5 55.5t69.5 136.5l464 1272q18 49 27.5 64.5t18.5 15.5t18 -14t27 -60
q9 -23 104 -271t206.5 -537.5t166.5 -426.5q26 -65 51.5 -110t48.5 -68t40 -33.5t36 -15.5q37 -12 80 -12q22 0 22 -13q0 -16 -41 -16q-180 0 -321 4q-55 3 -60 9q-2 2 -2 5q0 11 15 15q11 4 15 17t-3 38l-190 504q-6 12 -19 12zM481 672h391q12 0 9 14l-195 553
q-16 48 -31 0l-180 -553q-6 -14 6 -14zM723 1909q11 0 39 -17q8 -6 72 -48.5t120 -80t72 -49.5q25 -17 25 -24q0 -6 -11 -13l-69 -39q-13 -8 -25 0q-38 31 -110.5 79.5t-106.5 66.5q-17 10 -22 10q-1 0 -33 -14q-166 -84 -244 -129q-34 -19 -43 -19q-12 0 -10 12q2 11 16 21
q238 175 293 223q30 21 37 21z" />
    <glyph glyph-name="Atilde" unicode="&#xc3;" horiz-adv-x="1433" 
d="M899 598h-440q-15 0 -21 -16l-123 -363q-28 -79 -28 -137q0 -29 22 -44t51 -15h19q27 0 27 -13q0 -16 -37 -16q-28 0 -87 3t-67 3q-2 0 -88 -3t-143 -3q-39 0 -39 16q0 13 28 13q18 0 50 4q65 8 102.5 55.5t69.5 136.5l464 1272q18 49 27.5 64.5t18.5 15.5t18 -14t27 -60
q9 -23 104 -271t206.5 -537.5t166.5 -426.5q26 -65 51.5 -110t48.5 -68t40 -33.5t36 -15.5q37 -12 80 -12q22 0 22 -13q0 -16 -41 -16q-180 0 -321 4q-55 3 -60 9q-2 2 -2 5q0 11 15 15q11 4 15 17t-3 38l-190 504q-6 12 -19 12zM481 672h391q12 0 9 14l-195 553
q-16 48 -31 0l-180 -553q-6 -14 6 -14zM860 1681q-43 0 -162.5 46.5t-167.5 46.5q-44 0 -74.5 -15t-58.5 -49q-18 -20 -30 -20q-3 0 -5 3t-0.5 10.5t7.5 16.5q43 70 96 110t104 40q59 0 187 -51q93 -37 139 -37q50 0 81.5 15.5t70.5 57.5q16 19 24 19q20 0 2 -31
q-104 -162 -213 -162z" />
    <glyph glyph-name="Adieresis" unicode="&#xc4;" horiz-adv-x="1433" 
d="M899 598h-440q-15 0 -21 -16l-123 -363q-28 -79 -28 -137q0 -29 22 -44t51 -15h19q27 0 27 -13q0 -16 -37 -16q-28 0 -87 3t-67 3q-2 0 -88 -3t-143 -3q-39 0 -39 16q0 13 28 13q18 0 50 4q65 8 102.5 55.5t69.5 136.5l464 1272q18 49 27.5 64.5t18.5 15.5t18 -14t27 -60
q9 -23 104 -271t206.5 -537.5t166.5 -426.5q26 -65 51.5 -110t48.5 -68t40 -33.5t36 -15.5q37 -12 80 -12q22 0 22 -13q0 -16 -41 -16q-180 0 -321 4q-55 3 -60 9q-2 2 -2 5q0 11 15 15q11 4 15 17t-3 38l-190 504q-6 12 -19 12zM481 672h391q12 0 9 14l-195 553
q-16 48 -31 0l-180 -553q-6 -14 6 -14zM932 1677q-38 0 -59 24.5t-21 55.5q0 29 21.5 54.5t60.5 25.5q34 0 56 -21t22 -55q0 -38 -21.5 -61t-58.5 -23zM475 1677q-39 0 -58.5 24.5t-19.5 55.5t20.5 55.5t59.5 24.5q34 0 56 -21t22 -55q0 -37 -22 -60.5t-58 -23.5z" />
    <glyph glyph-name="Aring" unicode="&#xc5;" horiz-adv-x="1433" 
d="M899 598h-440q-15 0 -21 -16l-123 -363q-28 -79 -28 -137q0 -29 22 -44t51 -15h19q27 0 27 -13q0 -16 -37 -16q-28 0 -87 3t-67 3q-2 0 -88 -3t-143 -3q-39 0 -39 16q0 13 28 13q18 0 50 4q65 8 102.5 55.5t69.5 136.5l464 1272q18 49 27.5 64.5t18.5 15.5t18 -14t27 -60
q9 -23 104 -271t206.5 -537.5t166.5 -426.5q26 -65 51.5 -110t48.5 -68t40 -33.5t36 -15.5q37 -12 80 -12q22 0 22 -13q0 -16 -41 -16q-180 0 -321 4q-55 3 -60 9q-2 2 -2 5q0 11 15 15q11 4 15 17t-3 38l-190 504q-6 12 -19 12zM481 672h391q12 0 9 14l-195 553
q-16 48 -31 0l-180 -553q-6 -14 6 -14zM664 1626q-67 0 -107.5 35.5t-40.5 89.5q0 69 64 119.5t161 50.5q72 0 112 -33t40 -86q0 -80 -69.5 -128t-159.5 -48zM596 1774q0 -45 32 -73t72 -28q52 0 81.5 29t29.5 74q0 40 -27 68t-79 28q-42 0 -75.5 -25t-33.5 -73z" />
    <glyph glyph-name="AE" unicode="&#xc6;" horiz-adv-x="1867" 
d="M1069 1536q422 0 469 2q77 3 94 12q18 9 23 9q8 0 8 -19q0 -4 -7 -33.5t-9 -62.5q-2 -26 -9 -123q-4 -35 -16 -35q-16 0 -16 27q0 38 -11 67q-10 35 -44.5 52.5t-102.5 23.5q-53 6 -281 6q-12 0 -12 -20v-649q0 -21 12 -21q279 0 326 4q44 3 66 10t36 25q17 20 25 20
q10 0 10 -16q0 -4 -2.5 -18.5t-6.5 -41t-7 -55.5q-4 -38 -6 -87.5t-2 -51.5q-3 -31 -15 -31q-14 0 -14 33q0 34 -8 58q-15 57 -107 67t-293 10q-14 0 -14 -14v-180q0 -21 -0.5 -85.5t-0.5 -113t1 -67.5q3 -67 17.5 -101.5t50.5 -48.5q45 -18 170 -18q122 0 184 18
q48 14 69.5 48.5t34.5 103.5q5 30 19 30q12 0 12 -30q0 -15 -9.5 -92.5t-16.5 -106.5q-10 -38 -28.5 -45.5t-82.5 -7.5q-59 0 -299 6q-24 1 -89 3.5t-118 2.5q-48 0 -109.5 -3.5t-87.5 -2.5q-32 0 -32 16q0 9 22 13q40 4 47 6q24 6 38 20t24 56t12 116q4 160 4 367v94
q0 16 -18 16h-361q-27 0 -37 -14q-15 -20 -104.5 -166.5t-128.5 -212.5q-88 -145 -88 -207q0 -22 13 -37.5t34 -23t41.5 -11t42.5 -3.5q25 0 25 -15q0 -14 -35 -14q-51 0 -110 1.5t-99.5 3t-46.5 1.5q-4 0 -42.5 -1.5t-92.5 -3t-97 -1.5q-26 0 -26 16q0 13 22 13q37 0 73 15
t63 34.5t60 56t53 62.5t52 71q69 94 752 1165q36 56 45 86q6 25 14 28q2 1 6 1q6 0 32 -3t40 -3zM641 772h328q18 0 18 16v553q0 9 -6 9t-12 -9q-29 -43 -176.5 -284.5t-159.5 -265.5q-11 -19 8 -19z" />
    <glyph glyph-name="Ccedilla" unicode="&#xc7;" horiz-adv-x="1648" 
d="M815 -125l113 94q-336 25 -549 217q-248 222 -248 607q0 57 11 121t35 140t71 154.5t112 143.5q219 219 625 219q158 0 297 -25q30 -5 217 -30q19 -3 19 -23q0 -6 -2 -19t-4.5 -38.5t-4.5 -57.5q-2 -38 -3.5 -118.5t-2.5 -92.5q-3 -43 -18 -43q-17 0 -17 43
q0 61 -23.5 118.5t-62.5 90.5q-58 49 -169.5 83t-239.5 34q-317 0 -471 -150q-105 -100 -145 -230t-40 -304q0 -146 55 -282t150 -239.5t235 -166t300 -62.5q127 0 212.5 22t143.5 81q29 30 49.5 82.5t26.5 89.5q5 31 20 31t15 -31q0 -16 -16 -116t-29 -146
q-9 -29 -17.5 -38.5t-36.5 -21.5q-117 -47 -368 -47h-58q-26 -22 -98 -86q215 -32 215 -158q0 -82 -90.5 -132t-218.5 -50q-10 0 -18.5 5.5t-8.5 11.5q0 7 39 16q73 14 115.5 48t42.5 87q0 102 -162 127q-22 4 -22 14q0 11 24 27z" />
    <glyph glyph-name="Egrave" unicode="&#xc8;" horiz-adv-x="1249" 
d="M365 588v360q0 360 -5 443q-3 55 -21 80.5t-67 35.5q-6 2 -16.5 3t-23.5 1.5t-19 1.5q-27 4 -27 13q0 16 33 16q103 0 232 -6q422 0 469 2q77 3 94 12q18 9 22 9q8 0 8 -19q0 -4 -7 -33.5t-9 -62.5q-8 -117 -8 -123q-4 -35 -16 -35q-17 0 -17 27q0 40 -10 67
q-10 35 -45 52.5t-103 23.5q-52 6 -280 6q-12 0 -12 -20v-565q0 -21 12 -21q278 0 325 4q44 3 66.5 10t36.5 25q17 20 24 20q11 0 11 -16q0 -4 -3 -18.5t-7 -41t-7 -55.5q-4 -38 -6 -87.5t-2 -51.5q-3 -31 -14 -31q-15 0 -15 33q0 34 -8 58q-15 57 -106 67q-92 10 -293 10
q-14 0 -14 -14v-180q0 -18 -0.5 -105.5t-0.5 -156.5t1 -88q3 -68 17 -102t50 -48q45 -18 170 -18q122 0 184 18q48 14 70 48.5t35 103.5q5 30 18 30t13 -30q0 -14 -10 -92t-17 -107q-10 -38 -28.5 -45.5t-82.5 -7.5q-59 0 -299 6q-246 6 -256 6q-20 0 -71 -3.5t-80 -2.5
q-33 0 -33 16q0 9 23 13q40 4 47 6q36 8 53 46t20 146q5 200 5 367zM745 1675q0 -8 -12 -8q-26 0 -176.5 68t-243.5 120q-34 20 -34 29t22 21q61 32 90 39q21 6 33 6q10 0 29 -23q28 -29 116.5 -105t155.5 -124q20 -14 20 -23z" />
    <glyph glyph-name="Eacute" unicode="&#xc9;" horiz-adv-x="1249" 
d="M365 588v360q0 360 -5 443q-3 55 -21 80.5t-67 35.5q-6 2 -16.5 3t-23.5 1.5t-19 1.5q-27 4 -27 13q0 16 33 16q103 0 232 -6q422 0 469 2q77 3 94 12q18 9 22 9q8 0 8 -19q0 -4 -7 -33.5t-9 -62.5q-8 -117 -8 -123q-4 -35 -16 -35q-17 0 -17 27q0 40 -10 67
q-10 35 -45 52.5t-103 23.5q-52 6 -280 6q-12 0 -12 -20v-565q0 -21 12 -21q278 0 325 4q44 3 66.5 10t36.5 25q17 20 24 20q11 0 11 -16q0 -4 -3 -18.5t-7 -41t-7 -55.5q-4 -38 -6 -87.5t-2 -51.5q-3 -31 -14 -31q-15 0 -15 33q0 34 -8 58q-15 57 -106 67q-92 10 -293 10
q-14 0 -14 -14v-180q0 -18 -0.5 -105.5t-0.5 -156.5t1 -88q3 -68 17 -102t50 -48q45 -18 170 -18q122 0 184 18q48 14 70 48.5t35 103.5q5 30 18 30t13 -30q0 -14 -10 -92t-17 -107q-10 -38 -28.5 -45.5t-82.5 -7.5q-59 0 -299 6q-246 6 -256 6q-20 0 -71 -3.5t-80 -2.5
q-33 0 -33 16q0 9 23 13q40 4 47 6q36 8 53 46t20 146q5 200 5 367zM918 1913q45 -40 65 -82q6 -15 3 -21t-11 -6q-40 0 -84 -16q-112 -41 -291 -125q-28 -12 -33 -12q-3 0 -7.5 2.5t-4.5 5.5q0 8 16 24q54 50 135 119.5t117 93.5q48 33 60 33q19 0 35 -16z" />
    <glyph glyph-name="Ecircumflex" unicode="&#xca;" horiz-adv-x="1249" 
d="M365 588v360q0 360 -5 443q-3 55 -21 80.5t-67 35.5q-6 2 -16.5 3t-23.5 1.5t-19 1.5q-27 4 -27 13q0 16 33 16q103 0 232 -6q422 0 469 2q77 3 94 12q18 9 22 9q8 0 8 -19q0 -4 -7 -33.5t-9 -62.5q-8 -117 -8 -123q-4 -35 -16 -35q-17 0 -17 27q0 40 -10 67
q-10 35 -45 52.5t-103 23.5q-52 6 -280 6q-12 0 -12 -20v-565q0 -21 12 -21q278 0 325 4q44 3 66.5 10t36.5 25q17 20 24 20q11 0 11 -16q0 -4 -3 -18.5t-7 -41t-7 -55.5q-4 -38 -6 -87.5t-2 -51.5q-3 -31 -14 -31q-15 0 -15 33q0 34 -8 58q-15 57 -106 67q-92 10 -293 10
q-14 0 -14 -14v-180q0 -18 -0.5 -105.5t-0.5 -156.5t1 -88q3 -68 17 -102t50 -48q45 -18 170 -18q122 0 184 18q48 14 70 48.5t35 103.5q5 30 18 30t13 -30q0 -14 -10 -92t-17 -107q-10 -38 -28.5 -45.5t-82.5 -7.5q-59 0 -299 6q-246 6 -256 6q-20 0 -71 -3.5t-80 -2.5
q-33 0 -33 16q0 9 23 13q40 4 47 6q36 8 53 46t20 146q5 200 5 367zM664 1950q10 0 38 -17q10 -7 73 -48.5t119.5 -79.5t72.5 -50q24 -17 24 -24q0 -6 -10 -13l-70 -39q-12 -8 -24 0q-38 31 -110.5 79.5t-106.5 66.5q-17 10 -23 10q-1 0 -33 -14q-156 -80 -243 -129
q-34 -19 -43 -19q-12 0 -10 12q2 11 16 21q238 175 293 223q30 21 37 21z" />
    <glyph glyph-name="Edieresis" unicode="&#xcb;" horiz-adv-x="1249" 
d="M365 588v360q0 360 -5 443q-3 55 -21 80.5t-67 35.5q-6 2 -16.5 3t-23.5 1.5t-19 1.5q-27 4 -27 13q0 16 33 16q103 0 232 -6q422 0 469 2q77 3 94 12q18 9 22 9q8 0 8 -19q0 -4 -7 -33.5t-9 -62.5q-8 -117 -8 -123q-4 -35 -16 -35q-17 0 -17 27q0 40 -10 67
q-10 35 -45 52.5t-103 23.5q-52 6 -280 6q-12 0 -12 -20v-565q0 -21 12 -21q278 0 325 4q44 3 66.5 10t36.5 25q17 20 24 20q11 0 11 -16q0 -4 -3 -18.5t-7 -41t-7 -55.5q-4 -38 -6 -87.5t-2 -51.5q-3 -31 -14 -31q-15 0 -15 33q0 34 -8 58q-15 57 -106 67q-92 10 -293 10
q-14 0 -14 -14v-180q0 -18 -0.5 -105.5t-0.5 -156.5t1 -88q3 -68 17 -102t50 -48q45 -18 170 -18q122 0 184 18q48 14 70 48.5t35 103.5q5 30 18 30t13 -30q0 -14 -10 -92t-17 -107q-10 -38 -28.5 -45.5t-82.5 -7.5q-59 0 -299 6q-246 6 -256 6q-20 0 -71 -3.5t-80 -2.5
q-33 0 -33 16q0 9 23 13q40 4 47 6q36 8 53 46t20 146q5 200 5 367zM881 1720q-38 0 -59 24.5t-21 55.5q0 29 21.5 54.5t60.5 25.5q34 0 56 -21t22 -55q0 -38 -21.5 -61t-58.5 -23zM424 1720q-39 0 -58.5 24.5t-19.5 55.5t20.5 55.5t59.5 24.5q34 0 56 -21t22 -55
q0 -37 -22 -60.5t-58 -23.5z" />
    <glyph glyph-name="Igrave" unicode="&#xcc;" horiz-adv-x="901" 
d="M365 588v360q0 360 -5 443q-3 53 -19 80t-50 34q-31 8 -64 8q-16 0 -16 13q0 16 33 16q30 0 79 -1.5t87 -3t41 -1.5t40.5 1.5t85 3t74.5 1.5q33 0 33 -16q0 -13 -16 -13q-14 0 -52 -6q-40 -7 -56 -33.5t-19 -82.5q-4 -66 -4 -443v-360q0 -359 10 -445q5 -51 21.5 -78.5
t58.5 -33.5q58 -8 84 -8q24 0 24 -13q0 -16 -30 -16q-50 0 -110.5 1.5t-101.5 3t-42 1.5q-3 0 -41 -1.5t-85.5 -3t-74.5 -1.5q-33 0 -33 16q0 13 23 13q26 0 53 6q28 6 41 34t20 80q11 95 11 445zM532 1675q0 -8 -12 -8q-26 0 -176.5 68t-243.5 120q-34 20 -34 29t22 21
q61 32 90 39q21 6 33 6q10 0 29 -23q28 -29 116.5 -105t155.5 -124q20 -14 20 -23z" />
    <glyph glyph-name="Iacute" unicode="&#xcd;" horiz-adv-x="901" 
d="M365 588v360q0 360 -5 443q-3 53 -19 80t-50 34q-31 8 -64 8q-16 0 -16 13q0 16 33 16q30 0 79 -1.5t87 -3t41 -1.5t40.5 1.5t85 3t74.5 1.5q33 0 33 -16q0 -13 -16 -13q-14 0 -52 -6q-40 -7 -56 -33.5t-19 -82.5q-4 -66 -4 -443v-360q0 -359 10 -445q5 -51 21.5 -78.5
t58.5 -33.5q58 -8 84 -8q24 0 24 -13q0 -16 -30 -16q-50 0 -110.5 1.5t-101.5 3t-42 1.5q-3 0 -41 -1.5t-85.5 -3t-74.5 -1.5q-33 0 -33 16q0 13 23 13q26 0 53 6q28 6 41 34t20 80q11 95 11 445zM723 1946q45 -40 65 -82q6 -15 3 -21t-11 -6q-40 0 -84 -16
q-108 -39 -290 -125q-30 -13 -33 -13t-8 3t-5 6q0 7 17 24q54 50 135 119.5t117 93.5q48 33 59 33q19 0 35 -16z" />
    <glyph glyph-name="Icircumflex" unicode="&#xce;" horiz-adv-x="901" 
d="M365 588v360q0 360 -5 443q-3 53 -19 80t-50 34q-31 8 -64 8q-16 0 -16 13q0 16 33 16q30 0 79 -1.5t87 -3t41 -1.5t40.5 1.5t85 3t74.5 1.5q33 0 33 -16q0 -13 -16 -13q-14 0 -52 -6q-40 -7 -56 -33.5t-19 -82.5q-4 -66 -4 -443v-360q0 -359 10 -445q5 -51 21.5 -78.5
t58.5 -33.5q58 -8 84 -8q24 0 24 -13q0 -16 -30 -16q-50 0 -110.5 1.5t-101.5 3t-42 1.5q-3 0 -41 -1.5t-85.5 -3t-74.5 -1.5q-33 0 -33 16q0 13 23 13q26 0 53 6q28 6 41 34t20 80q11 95 11 445zM463 1948q11 0 39 -17q8 -6 72 -48.5t120 -80t72 -49.5q25 -17 25 -24
q0 -6 -11 -13l-69 -39q-13 -8 -25 0q-38 31 -110.5 79.5t-106.5 66.5q-17 10 -23 10l-32 -14q-166 -84 -244 -129q-34 -19 -43 -19q-12 0 -10 12q2 11 16 21q238 175 293 223q30 21 37 21z" />
    <glyph glyph-name="Idieresis" unicode="&#xcf;" horiz-adv-x="901" 
d="M365 588v360q0 360 -5 443q-3 53 -19 80t-50 34q-31 8 -64 8q-16 0 -16 13q0 16 33 16q30 0 79 -1.5t87 -3t41 -1.5t40.5 1.5t85 3t74.5 1.5q33 0 33 -16q0 -13 -16 -13q-14 0 -52 -6q-40 -7 -56 -33.5t-19 -82.5q-4 -66 -4 -443v-360q0 -359 10 -445q5 -51 21.5 -78.5
t58.5 -33.5q58 -8 84 -8q24 0 24 -13q0 -16 -30 -16q-50 0 -110.5 1.5t-101.5 3t-42 1.5q-3 0 -41 -1.5t-85.5 -3t-74.5 -1.5q-33 0 -33 16q0 13 23 13q26 0 53 6q28 6 41 34t20 80q11 95 11 445zM678 1718q-38 0 -59 24.5t-21 55.5q0 29 21.5 54.5t60.5 25.5q34 0 56 -21
t22 -55q0 -38 -21.5 -61t-58.5 -23zM221 1718q-39 0 -58.5 24.5t-19.5 55.5t20.5 55.5t59.5 24.5q34 0 56 -21t22 -55q0 -37 -22 -60.5t-58 -23.5z" />
    <glyph glyph-name="Eth" unicode="&#xd0;" horiz-adv-x="1898" 
d="M385 829v119q0 377 -4 443q-3 57 -18.5 81.5t-63.5 34.5q-24 6 -70 6q-22 0 -22 13q0 16 33 16q41 0 96 -1.5t94 -3t41 -1.5l101 3q102 3 176 3h40q63 1 98.5 0.5t106.5 -4.5t119.5 -12.5t117.5 -25.5t122 -41t111.5 -62.5t105.5 -87.5q198 -206 198 -521
q0 -180 -62.5 -328t-158.5 -249q-226 -236 -620 -236q-94 0 -285 13q-37 2 -79.5 5.5t-64.5 5t-26 1.5q-39 0 -82 -2q-22 0 -63.5 -2t-55.5 -2q-32 0 -32 16q0 13 20 13q34 3 57 8q28 5 40.5 32.5t19.5 79.5q10 86 10 445v166h-205q-12 0 -15 3t-1 13q3 27 10 47q3 8 8.5 10
t26.5 2h176zM557 754v-27q0 -366 4 -444q5 -130 23 -156q57 -82 348 -82q142 0 269 50t218 141q77 76 120.5 210t43.5 279q0 92 -18 176t-49.5 148t-62.5 109t-67 83q-70 73 -149.5 121.5t-168.5 71.5t-168.5 31t-182.5 8q-33 0 -77.5 -4.5t-55.5 -10.5q-25 -11 -25 -41
q-2 -70 -2 -436v-152h395q12 0 15.5 -3t1.5 -11q-5 -31 -15 -51q-5 -10 -30 -10h-367z" />
    <glyph glyph-name="Ntilde" unicode="&#xd1;" horiz-adv-x="1939" 
d="M297 295v303q0 308 1 465.5t1.5 166.5t-0.5 238q0 58 5.5 80.5t17.5 22.5q7 0 19.5 -11t29.5 -30.5t22 -24.5q62 -70 651 -702q108 -115 285 -309.5t207 -225.5l-23 1041q-2 102 -17.5 142t-61.5 52q-46 10 -88 10q-29 0 -29 15q0 14 41 14q55 0 132.5 -3t80.5 -3
q4 0 64 3t110 3q37 0 37 -14q0 -12 -23 -15q-14 -2 -53 -8q-43 -9 -57.5 -44.5t-14.5 -139.5l-4 -1196q0 -51 -0.5 -79.5t-3 -43.5t-5.5 -18.5t-9 -3.5q-12 0 -40 24.5t-110 106.5q-21 18 -203.5 207t-330.5 348q-282 303 -535 587l27 -981q3 -124 20.5 -174.5t59.5 -62.5
q47 -12 102 -12q16 0 16 -13q0 -16 -36 -16q-52 0 -101.5 1.5t-80 3t-35.5 1.5t-36 -1.5t-76 -3t-85 -1.5q-33 0 -33 16q0 13 17 13q47 0 84 12q37 10 49 63.5t12 196.5zM1112 1700q-43 0 -162.5 46t-167.5 46q-44 0 -74.5 -14.5t-58.5 -48.5q-19 -21 -31 -21q-3 0 -4.5 3.5
t0 11t7.5 16.5q43 69 96 109t104 40q59 0 187 -51q93 -37 139 -37q50 0 81 15.5t70 58.5q15 18 25 18q19 0 2 -30q-104 -162 -213 -162z" />
    <glyph glyph-name="Ograve" unicode="&#xd2;" horiz-adv-x="1873" 
d="M926 -35q-162 0 -297.5 48.5t-225.5 128.5t-153 185.5t-91 217t-28 225.5q0 103 29 211t93.5 214.5t156 189.5t228.5 134.5t300 51.5q231 0 412.5 -91.5t287 -267.5t105.5 -409q0 -171 -59 -324.5t-163.5 -267t-259 -180t-335.5 -66.5zM981 43q44 0 89.5 7.5t102.5 28
t108 53t100.5 87.5t85 126t57.5 174t22 226q0 179 -51.5 325t-138.5 238.5t-198 142.5t-234 50q-130 0 -238 -43t-189 -125t-126 -211.5t-45 -294.5q0 -233 87 -413t235.5 -275.5t332.5 -95.5zM1057 1694q0 -8 -13 -8q-26 0 -175.5 67.5t-243.5 120.5q-35 21 -35 29t22 20
q61 32 90 39q21 6 33 6q11 0 29 -22q28 -30 116.5 -106t155.5 -124q21 -15 21 -22z" />
    <glyph glyph-name="Oacute" unicode="&#xd3;" horiz-adv-x="1873" 
d="M926 -35q-162 0 -297.5 48.5t-225.5 128.5t-153 185.5t-91 217t-28 225.5q0 103 29 211t93.5 214.5t156 189.5t228.5 134.5t300 51.5q231 0 412.5 -91.5t287 -267.5t105.5 -409q0 -171 -59 -324.5t-163.5 -267t-259 -180t-335.5 -66.5zM981 43q44 0 89.5 7.5t102.5 28
t108 53t100.5 87.5t85 126t57.5 174t22 226q0 179 -51.5 325t-138.5 238.5t-198 142.5t-234 50q-130 0 -238 -43t-189 -125t-126 -211.5t-45 -294.5q0 -233 87 -413t235.5 -275.5t332.5 -95.5zM1167 1944q46 -42 66 -82q6 -15 3 -21t-11 -6q-40 0 -84 -16
q-112 -41 -291 -125q-30 -13 -33 -13t-7.5 3t-4.5 6q0 8 16 24q54 50 135 119.5t117 93.5q48 33 60 33q18 0 34 -16z" />
    <glyph glyph-name="Ocircumflex" unicode="&#xd4;" horiz-adv-x="1873" 
d="M926 -35q-162 0 -297.5 48.5t-225.5 128.5t-153 185.5t-91 217t-28 225.5q0 103 29 211t93.5 214.5t156 189.5t228.5 134.5t300 51.5q231 0 412.5 -91.5t287 -267.5t105.5 -409q0 -171 -59 -324.5t-163.5 -267t-259 -180t-335.5 -66.5zM981 43q44 0 89.5 7.5t102.5 28
t108 53t100.5 87.5t85 126t57.5 174t22 226q0 179 -51.5 325t-138.5 238.5t-198 142.5t-234 50q-130 0 -238 -43t-189 -125t-126 -211.5t-45 -294.5q0 -233 87 -413t235.5 -275.5t332.5 -95.5zM948 1974q12 0 39 -16q8 -6 72 -48.5t120 -80t72 -49.5q25 -17 25 -25
q0 -5 -10 -12l-70 -39q-12 -8 -25 0q-38 31 -110 79t-107 66q-18 11 -22 11q-2 0 -6 -2l-12 -6t-15 -7q-166 -84 -244 -129q-32 -18 -43 -18q-12 0 -10 12q2 11 16 21q238 175 293 223q29 20 37 20z" />
    <glyph glyph-name="Otilde" unicode="&#xd5;" horiz-adv-x="1873" 
d="M926 -35q-162 0 -297.5 48.5t-225.5 128.5t-153 185.5t-91 217t-28 225.5q0 103 29 211t93.5 214.5t156 189.5t228.5 134.5t300 51.5q231 0 412.5 -91.5t287 -267.5t105.5 -409q0 -171 -59 -324.5t-163.5 -267t-259 -180t-335.5 -66.5zM981 43q44 0 89.5 7.5t102.5 28
t108 53t100.5 87.5t85 126t57.5 174t22 226q0 179 -51.5 325t-138.5 238.5t-198 142.5t-234 50q-130 0 -238 -43t-189 -125t-126 -211.5t-45 -294.5q0 -233 87 -413t235.5 -275.5t332.5 -95.5zM1079 1724q-43 0 -162 46.5t-167 46.5q-81 0 -134 -64q-18 -20 -30 -20
q-3 0 -5 3t-0.5 10.5t7.5 16.5q43 70 96 110t104 40q59 0 187 -51q93 -37 139 -37q50 0 81.5 15.5t70.5 57.5q16 19 24 19q20 0 2 -31q-104 -162 -213 -162z" />
    <glyph glyph-name="Odieresis" unicode="&#xd6;" horiz-adv-x="1873" 
d="M926 -35q-162 0 -297.5 48.5t-225.5 128.5t-153 185.5t-91 217t-28 225.5q0 103 29 211t93.5 214.5t156 189.5t228.5 134.5t300 51.5q231 0 412.5 -91.5t287 -267.5t105.5 -409q0 -171 -59 -324.5t-163.5 -267t-259 -180t-335.5 -66.5zM981 43q44 0 89.5 7.5t102.5 28
t108 53t100.5 87.5t85 126t57.5 174t22 226q0 179 -51.5 325t-138.5 238.5t-198 142.5t-234 50q-130 0 -238 -43t-189 -125t-126 -211.5t-45 -294.5q0 -233 87 -413t235.5 -275.5t332.5 -95.5zM1163 1731q-38 0 -59 24t-21 55q0 29 21.5 54.5t60.5 25.5q34 0 56 -21t22 -54
q0 -38 -21.5 -61t-58.5 -23zM707 1731q-39 0 -58.5 24t-19.5 55t20.5 55.5t59.5 24.5q34 0 55.5 -20.5t21.5 -54.5q0 -37 -21.5 -60.5t-57.5 -23.5z" />
    <glyph glyph-name="multiply" unicode="&#xd7;" horiz-adv-x="1353" 
d="M1020 317l-342 340l-344 -344l-86 86l346 344l-346 344l86 87l342 -347l346 347l84 -84l-344 -347l342 -342z" />
    <glyph glyph-name="Oslash" unicode="&#xd8;" horiz-adv-x="1873" 
d="M1698 1518l-162 -175q207 -210 207 -540q0 -171 -59 -324.5t-163.5 -267t-259 -180t-335.5 -66.5q-308 0 -512 170l-181 -194q-7 -7 -14 0q-29 20 -49 47q-6 10 0 18l176 191q-106 114 -160.5 265.5t-54.5 307.5q0 103 29 211t93.5 214.5t156 189.5t228.5 134.5t300 51.5
q318 0 532 -168l158 170q6 6 19 0q20 -10 49 -39q9 -9 2 -16zM465 324l903 970q-87 101 -202 154t-242 53q-130 0 -238 -43t-189 -125t-126 -211.5t-45 -294.5q0 -299 139 -503zM1421 1221l-901 -971q185 -207 461 -207q44 0 89.5 7.5t102.5 28t108 53t100.5 87.5t85 126
t57.5 174t22 226q0 282 -125 476z" />
    <glyph glyph-name="Ugrave" unicode="&#xd9;" horiz-adv-x="1699" 
d="M424 948v-286q0 -206 40 -320.5t114 -185.5q70 -66 141.5 -89.5t167.5 -23.5q93 0 179 40t142 107q66 83 92.5 206.5t26.5 295.5v256q0 377 -4 443q-3 55 -21 80.5t-67 35.5q-24 6 -70 6q-16 0 -16 13q0 16 33 16q41 0 92 -1.5t86.5 -3t38.5 -1.5q1 0 68.5 3t103.5 3
q33 0 33 -16q0 -13 -17 -13q-13 0 -51 -6q-40 -9 -56.5 -35t-19.5 -81q-4 -66 -4 -443v-219q0 -94 -7 -170.5t-25.5 -161.5t-57.5 -156.5t-98 -123.5q-171 -152 -422 -152q-38 0 -78 4t-102.5 17t-126.5 45t-115 80q-84 81 -131 205.5t-47 332.5v299q0 377 -4 443
q-3 55 -21 80.5t-67 35.5q-24 6 -70 6q-16 0 -16 13q0 16 32 16q40 0 95 -1.5t95.5 -3t45.5 -1.5q4 0 85.5 3t117.5 3q32 0 32 -16q0 -13 -16 -13q-13 0 -51 -6q-40 -6 -56.5 -33t-19.5 -83q-4 -66 -4 -443zM952 1675q0 -8 -12 -8q-26 0 -176.5 68t-243.5 120q-35 21 -35 29
t23 21q61 32 90 39q21 6 33 6q9 0 28 -23q27 -29 116.5 -105t156.5 -124q20 -14 20 -23z" />
    <glyph glyph-name="Uacute" unicode="&#xda;" horiz-adv-x="1699" 
d="M424 948v-286q0 -206 40 -320.5t114 -185.5q70 -66 141.5 -89.5t167.5 -23.5q93 0 179 40t142 107q66 83 92.5 206.5t26.5 295.5v256q0 377 -4 443q-3 55 -21 80.5t-67 35.5q-24 6 -70 6q-16 0 -16 13q0 16 33 16q41 0 92 -1.5t86.5 -3t38.5 -1.5q1 0 68.5 3t103.5 3
q33 0 33 -16q0 -13 -17 -13q-13 0 -51 -6q-40 -9 -56.5 -35t-19.5 -81q-4 -66 -4 -443v-219q0 -94 -7 -170.5t-25.5 -161.5t-57.5 -156.5t-98 -123.5q-171 -152 -422 -152q-38 0 -78 4t-102.5 17t-126.5 45t-115 80q-84 81 -131 205.5t-47 332.5v299q0 377 -4 443
q-3 55 -21 80.5t-67 35.5q-24 6 -70 6q-16 0 -16 13q0 16 32 16q40 0 95 -1.5t95.5 -3t45.5 -1.5q4 0 85.5 3t117.5 3q32 0 32 -16q0 -13 -16 -13q-13 0 -51 -6q-40 -6 -56.5 -33t-19.5 -83q-4 -66 -4 -443zM1102 1937q45 -40 65 -82q6 -15 3 -20.5t-11 -5.5q-37 0 -84 -17
q-121 -44 -291 -124q-30 -13 -32 -13q-3 0 -8 2.5t-5 5.5q0 8 17 25q54 50 135 119.5t117 93.5q48 33 59 33q18 0 35 -17z" />
    <glyph glyph-name="Ucircumflex" unicode="&#xdb;" horiz-adv-x="1699" 
d="M424 948v-286q0 -206 40 -320.5t114 -185.5q70 -66 141.5 -89.5t167.5 -23.5q93 0 179 40t142 107q66 83 92.5 206.5t26.5 295.5v256q0 377 -4 443q-3 55 -21 80.5t-67 35.5q-24 6 -70 6q-16 0 -16 13q0 16 33 16q41 0 92 -1.5t86.5 -3t38.5 -1.5q1 0 68.5 3t103.5 3
q33 0 33 -16q0 -13 -17 -13q-13 0 -51 -6q-40 -9 -56.5 -35t-19.5 -81q-4 -66 -4 -443v-219q0 -94 -7 -170.5t-25.5 -161.5t-57.5 -156.5t-98 -123.5q-171 -152 -422 -152q-38 0 -78 4t-102.5 17t-126.5 45t-115 80q-84 81 -131 205.5t-47 332.5v299q0 377 -4 443
q-3 55 -21 80.5t-67 35.5q-24 6 -70 6q-16 0 -16 13q0 16 32 16q40 0 95 -1.5t95.5 -3t45.5 -1.5q4 0 85.5 3t117.5 3q32 0 32 -16q0 -13 -16 -13q-13 0 -51 -6q-40 -6 -56.5 -33t-19.5 -83q-4 -66 -4 -443zM862 1966q12 0 39 -16q8 -6 72 -48.5t120 -80t72 -49.5
q25 -17 25 -25q0 -5 -10 -12l-70 -39q-12 -8 -25 0q-38 31 -110 79t-107 66q-17 10 -22 10q-2 0 -33 -14q-166 -84 -244 -129q-32 -18 -43 -18t-10 11t16 21q229 169 293 224q29 20 37 20z" />
    <glyph glyph-name="Udieresis" unicode="&#xdc;" horiz-adv-x="1699" 
d="M424 948v-286q0 -206 40 -320.5t114 -185.5q70 -66 141.5 -89.5t167.5 -23.5q93 0 179 40t142 107q66 83 92.5 206.5t26.5 295.5v256q0 377 -4 443q-3 55 -21 80.5t-67 35.5q-24 6 -70 6q-16 0 -16 13q0 16 33 16q41 0 92 -1.5t86.5 -3t38.5 -1.5q1 0 68.5 3t103.5 3
q33 0 33 -16q0 -13 -17 -13q-13 0 -51 -6q-40 -9 -56.5 -35t-19.5 -81q-4 -66 -4 -443v-219q0 -94 -7 -170.5t-25.5 -161.5t-57.5 -156.5t-98 -123.5q-171 -152 -422 -152q-38 0 -78 4t-102.5 17t-126.5 45t-115 80q-84 81 -131 205.5t-47 332.5v299q0 377 -4 443
q-3 55 -21 80.5t-67 35.5q-24 6 -70 6q-16 0 -16 13q0 16 32 16q40 0 95 -1.5t95.5 -3t45.5 -1.5q4 0 85.5 3t117.5 3q32 0 32 -16q0 -13 -16 -13q-13 0 -51 -6q-40 -6 -56.5 -33t-19.5 -83q-4 -66 -4 -443zM1090 1718q-38 0 -59 24.5t-21 55.5q0 29 21.5 54.5t60.5 25.5
q34 0 55.5 -21t21.5 -55q0 -38 -21 -61t-58 -23zM633 1718q-39 0 -58.5 24.5t-19.5 55.5t20.5 55.5t59.5 24.5q34 0 56 -21t22 -55q0 -37 -22 -60.5t-58 -23.5z" />
    <glyph glyph-name="Yacute" unicode="&#xdd;" horiz-adv-x="1339" 
d="M592 348v176q0 52 -7 93t-15 63t-25 59q-11 25 -159.5 268.5t-201.5 321.5q-71 106 -139 152q-50 32 -88 32q-20 0 -20 15q0 14 26 14q23 0 112.5 -3t90.5 -3q4 0 31 1.5t66.5 3t74.5 1.5q27 0 27 -14q0 -2 -1.5 -4t-4.5 -4t-6 -3t-9 -3.5t-10 -4.5q-27 -13 -27 -36
q0 -28 27 -80q30 -53 191 -330.5t186 -317.5q25 56 158 289t182 314q34 54 34 104q0 49 -32 57q-31 10 -31 21q0 12 33 12q31 0 81.5 -3t53.5 -3t89.5 3t109.5 3q26 0 26 -12q0 -17 -26 -17q-49 0 -95 -28q-29 -18 -50 -39t-58 -66q-50 -60 -206 -321.5t-185 -329.5
q-15 -35 -22 -73.5t-8 -62.5t-1 -69v-176q0 -119 6 -205q7 -102 84 -112q58 -8 92 -8q17 0 17 -13q0 -16 -33 -16q-50 0 -110 1.5t-100.5 3t-41.5 1.5q-3 0 -41 -1.5t-85.5 -3t-74.5 -1.5q-33 0 -33 16q0 13 17 13q25 0 61 8q57 11 64 112q6 86 6 205zM944 1935
q46 -42 66 -82q6 -15 2.5 -20.5t-11.5 -5.5q-36 0 -83 -17q-121 -44 -291 -124q-30 -13 -33 -13t-7.5 2.5t-4.5 5.5q0 9 16 25q54 50 135 119.5t117 93.5q48 33 59 33q18 0 35 -17z" />
    <glyph glyph-name="Thorn" unicode="&#xde;" horiz-adv-x="1323" 
d="M537 1391q-1 -36 -3 -100t-2 -87q118 8 179 8q73 0 135 -10t97 -21t71 -32t44.5 -28t28.5 -25q42 -37 73.5 -106t31.5 -161q0 -201 -143 -331.5t-361 -130.5q-33 0 -43 2q-22 0 -22 14q0 12 10.5 15t44.5 3q151 0 252.5 94.5t101.5 239.5q0 200 -114 316q-36 36 -76 59.5
t-80.5 31.5t-62 9.5t-52.5 1.5h-10q-61 0 -88 -12q-17 -6 -17 -39v-514q0 -350 11 -445q5 -51 21.5 -78.5t58.5 -33.5q58 -8 84 -8q24 0 24 -13q0 -16 -31 -16q-50 0 -109.5 1.5t-99 3t-40.5 1.5q-3 0 -41 -1.5t-85.5 -3t-74.5 -1.5q-33 0 -33 16q0 13 23 13q26 0 53 6
q28 6 41 34t20 80q11 95 11 445v360q0 360 -5 443q-3 53 -19 80t-50 34q-31 8 -64 8q-16 0 -16 13q0 16 33 16q30 0 79 -1.5t87 -3t41 -1.5t47 1.5t97.5 3t80.5 1.5q33 0 33 -16q0 -13 -17 -13q-30 0 -67 -6q-44 -8 -65.5 -34t-22.5 -82z" />
    <glyph glyph-name="germandbls" unicode="&#xdf;" horiz-adv-x="1433" 
d="M307 500v409q0 260 -10 355q0 18 14 18q6 1 48.5 8.5t68.5 11.5t71.5 9.5t91.5 8.5t93 3q103 0 185 -17t132.5 -44t84 -64t46.5 -73t13 -74q0 -195 -258 -285q217 -107 305 -204.5t88 -229.5q0 -81 -39.5 -157t-122.5 -128q-109 -74 -268 -74q-138 0 -211 41
q-31 19 -31 49q0 81 10 181q2 28 17 28q6 0 10 -7.5t4 -16.5q3 -36 10 -70q11 -46 50 -77t83 -42.5t89 -11.5q113 0 180 65.5t67 151.5q0 79 -38.5 143.5t-137.5 135.5q-50 38 -99 67.5t-76 42.5t-64 28.5t-47 20.5q-25 12 -25 23q0 10 5.5 15t21.5 8q180 50 247.5 111.5
t67.5 152.5q0 46 -18.5 85.5t-58.5 73.5t-112 53t-169 19q-67 0 -136 -14q-8 -4 -8 -19t-4 -132.5t-4 -172.5v-405q0 -401 29 -486q2 -3 1.5 -10.5t-7.5 -7.5q-8 0 -59 2t-54 2q-6 0 -77.5 -3t-100.5 -3t-29 12q0 14 21 17q9 1 20 2t19 2q29 3 42.5 25t18.5 73
q10 123 10 375z" />
    <glyph glyph-name="agrave" unicode="&#xe0;" horiz-adv-x="1261" 
d="M780 494h-372q-14 0 -21 -17l-90 -256q-35 -100 -35 -145q0 -53 68 -53h14q25 0 25 -15q0 -14 -31 -14q-25 0 -89 3t-73 3q-2 0 -73.5 -3t-122.5 -3q-33 0 -33 14q0 15 24 15q29 0 41 2q60 5 93.5 44.5t64.5 116.5l410 1080q17 44 25 56.5t18 12.5q8 0 16.5 -12.5
t24.5 -52.5q5 -11 178 -449.5t237 -589.5q71 -169 156 -198q27 -10 70 -10q24 0 24 -15q0 -14 -31 -14q-174 0 -311 4q-31 2 -41 4.5t-10 9.5q0 12 14 15q21 11 8 45l-161 411q-7 11 -17 11zM428 565h328q10 0 6 13l-162 452q-8 22 -11 22t-11 -22l-154 -452q-6 -13 4 -13z
M715 1466q0 -4 -10 -4q-24 0 -160.5 76t-218.5 133q-31 24 -29 31q0 9 20 16q60 26 95 31q18 3 24 -0.5t25 -22.5q9 -9 57 -59.5t95 -97t85 -78.5q17 -14 17 -25z" />
    <glyph glyph-name="aacute" unicode="&#xe1;" horiz-adv-x="1261" 
d="M780 494h-372q-14 0 -21 -17l-90 -256q-35 -100 -35 -145q0 -53 68 -53h14q25 0 25 -15q0 -14 -31 -14q-25 0 -89 3t-73 3q-2 0 -73.5 -3t-122.5 -3q-33 0 -33 14q0 15 24 15q29 0 41 2q60 5 93.5 44.5t64.5 116.5l410 1080q17 44 25 56.5t18 12.5q8 0 16.5 -12.5
t24.5 -52.5q5 -11 178 -449.5t237 -589.5q71 -169 156 -198q27 -10 70 -10q24 0 24 -15q0 -14 -31 -14q-174 0 -311 4q-31 2 -41 4.5t-10 9.5q0 12 14 15q21 11 8 45l-161 411q-7 11 -17 11zM428 565h328q10 0 6 13l-162 452q-8 22 -11 22t-11 -22l-154 -452q-6 -13 4 -13z
M862 1733q47 -38 68 -72q7 -13 4.5 -19t-10.5 -6q-1 0 -14.5 -3.5t-31 -8.5t-30.5 -10q-129 -60 -262 -141l-6 -3q-6 -4 -11.5 -7t-11.5 -5t-10 -1t-4 7q0 11 14 25q8 8 63 66.5t94 98t60 56.5q44 35 53 35q21 0 35 -12z" />
    <glyph glyph-name="acircumflex" unicode="&#xe2;" horiz-adv-x="1261" 
d="M780 494h-372q-14 0 -21 -17l-90 -256q-35 -100 -35 -145q0 -53 68 -53h14q25 0 25 -15q0 -14 -31 -14q-25 0 -89 3t-73 3q-2 0 -73.5 -3t-122.5 -3q-33 0 -33 14q0 15 24 15q29 0 41 2q60 5 93.5 44.5t64.5 116.5l410 1080q17 44 25 56.5t18 12.5q8 0 16.5 -12.5
t24.5 -52.5q5 -11 178 -449.5t237 -589.5q71 -169 156 -198q27 -10 70 -10q24 0 24 -15q0 -14 -31 -14q-174 0 -311 4q-31 2 -41 4.5t-10 9.5q0 12 14 15q21 11 8 45l-161 411q-7 11 -17 11zM428 565h328q10 0 6 13l-162 452q-8 22 -11 22t-11 -22l-154 -452q-6 -13 4 -13z
M647 1704q7 0 35 -14q2 -2 112 -76.5t130 -89.5q22 -15 22 -23q0 -4 -6 -7q-2 -2 -4 -3l-72 -45q-12 -8 -20 0q-35 31 -102.5 77t-98.5 62q-13 8 -25 8q-8 0 -28 -10q-60 -33 -219 -127q-26 -16 -39 -16q-14 0 -9 10q2 7 13 14q121 90 276 222q27 18 35 18z" />
    <glyph glyph-name="atilde" unicode="&#xe3;" horiz-adv-x="1261" 
d="M780 494h-372q-14 0 -21 -17l-90 -256q-35 -100 -35 -145q0 -53 68 -53h14q25 0 25 -15q0 -14 -31 -14q-25 0 -89 3t-73 3q-2 0 -73.5 -3t-122.5 -3q-33 0 -33 14q0 15 24 15q29 0 41 2q60 5 93.5 44.5t64.5 116.5l410 1080q17 44 25 56.5t18 12.5q8 0 16.5 -12.5
t24.5 -52.5q5 -11 178 -449.5t237 -589.5q71 -169 156 -198q27 -10 70 -10q24 0 24 -15q0 -14 -31 -14q-174 0 -311 4q-31 2 -41 4.5t-10 9.5q0 12 14 15q21 11 8 45l-161 411q-7 11 -17 11zM428 565h328q10 0 6 13l-162 452q-8 22 -11 22t-11 -22l-154 -452q-6 -13 4 -13z
M764 1477q-40 0 -151 44t-154 44q-40 0 -68 -14t-57 -46q-14 -18 -27 -18q-3 0 -5 3.5t-0.5 10.5t7.5 15q42 65 91 103t94 38q61 0 178 -47q87 -35 125 -35q44 0 75 16t68 54q13 16 23 16q6 0 7 -9t-5 -18q-98 -157 -201 -157z" />
    <glyph glyph-name="adieresis" unicode="&#xe4;" horiz-adv-x="1261" 
d="M780 494h-372q-14 0 -21 -17l-90 -256q-35 -100 -35 -145q0 -53 68 -53h14q25 0 25 -15q0 -14 -31 -14q-25 0 -89 3t-73 3q-2 0 -73.5 -3t-122.5 -3q-33 0 -33 14q0 15 24 15q29 0 41 2q60 5 93.5 44.5t64.5 116.5l410 1080q17 44 25 56.5t18 12.5q8 0 16.5 -12.5
t24.5 -52.5q5 -11 178 -449.5t237 -589.5q71 -169 156 -198q27 -10 70 -10q24 0 24 -15q0 -14 -31 -14q-174 0 -311 4q-31 2 -41 4.5t-10 9.5q0 12 14 15q21 11 8 45l-161 411q-7 11 -17 11zM428 565h328q10 0 6 13l-162 452q-8 22 -11 22t-11 -22l-154 -452q-6 -13 4 -13z
M852 1495q-38 0 -59 24.5t-21 55.5q0 29 21.5 54.5t60.5 25.5q34 0 56 -21t22 -55q0 -38 -21.5 -61t-58.5 -23zM395 1495q-39 0 -58.5 24.5t-19.5 55.5t20.5 55.5t59.5 24.5q34 0 56 -21t22 -55q0 -37 -22 -60.5t-58 -23.5z" />
    <glyph glyph-name="aring" unicode="&#xe5;" horiz-adv-x="1261" 
d="M780 494h-372q-14 0 -21 -17l-90 -256q-35 -100 -35 -145q0 -53 68 -53h14q25 0 25 -15q0 -14 -31 -14q-25 0 -89 3t-73 3q-2 0 -73.5 -3t-122.5 -3q-33 0 -33 14q0 15 24 15q29 0 41 2q60 5 93.5 44.5t64.5 116.5l410 1080q17 44 25 56.5t18 12.5q8 0 16.5 -12.5
t24.5 -52.5q5 -11 178 -449.5t237 -589.5q71 -169 156 -198q27 -10 70 -10q24 0 24 -15q0 -14 -31 -14q-174 0 -311 4q-31 2 -41 4.5t-10 9.5q0 12 14 15q21 11 8 45l-161 411q-7 11 -17 11zM428 565h328q10 0 6 13l-162 452q-8 22 -11 22t-11 -22l-154 -452q-6 -13 4 -13z
M580 1409q-67 0 -107.5 34t-40.5 85q0 68 63.5 116t161.5 48q72 0 112 -32t40 -83q0 -75 -70 -121.5t-159 -46.5zM512 1550q0 -45 32 -72.5t72 -27.5q52 0 81.5 29t29.5 73q0 40 -27 68.5t-79 28.5q-42 0 -75.5 -25.5t-33.5 -73.5z" />
    <glyph glyph-name="ae" unicode="&#xe6;" horiz-adv-x="1652" 
d="M938 1305q381 0 422 2q65 3 80 12q16 8 24 8q6 0 6 -14q0 -3 -7 -34.5t-9 -61.5q0 -9 -2.5 -44.5t-3.5 -58.5q0 -31 -14 -31q-12 0 -15 23q-7 48 -10 55q-10 33 -37.5 48.5t-99.5 19.5q-54 4 -234 4q-10 0 -10 -16v-543q0 -21 12 -21q212 0 277 6q75 3 94 31q11 17 23 17
q8 0 8 -13q0 -4 -2.5 -18t-6 -39.5t-6.5 -50.5q-4 -34 -6 -79t-2 -46q-3 -23 -14 -23q-12 0 -12 27q0 21 -7 49q-5 17 -11.5 27t-28.5 20.5t-58 13.5q-106 9 -246 9q-14 0 -14 -15v-71v-279q3 -61 14.5 -90.5t42.5 -42.5q40 -18 150 -18q112 0 156 12q43 13 61 42.5t31 92.5
q6 29 18 29t12 -31q0 -10 -8.5 -81t-13.5 -97q-6 -30 -22 -37.5t-68 -7.5q-75 0 -155.5 2t-108.5 2q-216 6 -242 6q-23 0 -66.5 -3t-68.5 -3q-29 0 -29 14q0 6 5.5 10.5t13.5 4.5q33 4 41 6q31 7 47 39.5t22 121.5q4 140 4 306v73q0 15 -16 15h-309q-28 0 -35 -11
q-165 -247 -199 -305q-84 -128 -84 -176q0 -36 26.5 -51t98.5 -18q23 0 23 -15q0 -14 -25 -14q-47 0 -104 1.5t-96.5 3t-43.5 1.5q-1 0 -35 -1.5t-85 -3t-93 -1.5q-22 0 -22 14q0 15 20 15q42 0 81 18t76 55t61 66.5t59 77.5q88 110 653 970q25 37 39 72l3 9t3 8.5t3 6
t5 4.5t6 1q5 0 28 -3t36 -3zM565 653h283q16 0 16 15v462q0 8 -8 5q-5 -2 -8 -7q-22 -30 -149.5 -234.5t-135.5 -221.5q-13 -19 2 -19z" />
    <glyph glyph-name="ccedilla" unicode="&#xe7;" horiz-adv-x="1452" 
d="M694 -125l119 100q-295 23 -481 183q-219 191 -219 522q0 66 16.5 139.5t65.5 167t124 166.5q191 182 551 182q114 0 271 -22q141 -21 180 -23q18 0 18 -20q0 -6 -4 -34.5t-6 -66.5q-1 -26 -2 -100.5t-2 -87.5q-3 -39 -16 -39q-17 0 -17 39q0 47 -22 98.5t-58 79.5
q-49 43 -149.5 74t-212.5 31q-261 0 -393 -119q-94 -85 -129 -193t-35 -256q0 -126 49.5 -243t133.5 -204t203 -139.5t251 -52.5q115 0 188.5 17.5t124.5 66.5q52 54 68 148q6 30 22 30q10 0 10 -28q0 -15 -15.5 -106.5t-24.5 -121.5q-9 -24 -17.5 -33t-30.5 -18
q-95 -41 -323 -41h-49q-82 -74 -105 -92q215 -32 215 -158q0 -82 -90.5 -132t-218.5 -50q-10 0 -18.5 5.5t-8.5 11.5q0 7 39 16q73 14 115.5 48t42.5 87q0 102 -162 127q-22 4 -22 14q0 11 24 27z" />
    <glyph glyph-name="egrave" unicode="&#xe8;" horiz-adv-x="1110" 
d="M317 500v307q0 318 -4 373q-3 45 -19 67t-58 31q-24 4 -50 4q-10 0 -18 3.5t-8 8.5q0 17 30 17q18 0 83.5 -2.5t127.5 -3.5q375 0 416 2q61 3 80 10q18 6 23 6q8 0 8 -14q0 -3 -7.5 -32.5t-9.5 -59.5q-5 -87 -6 -107q0 -31 -14 -31t-14 23q-2 35 -15 65q-9 32 -34.5 45
t-98.5 17q-54 4 -233 4q-11 0 -11 -16v-465q0 -21 13 -21q212 0 276 6q75 3 94 31q11 16 23 16q8 0 8 -12q0 -4 -2 -18t-5.5 -39.5t-6.5 -50.5q-4 -34 -6 -79t-2 -46q-3 -23 -15 -23t-12 27q0 25 -6 49q-5 17 -12 27t-29 20.5t-58 13.5q-106 9 -245 9q-15 0 -15 -15v-149
v-279q3 -60 15 -90t43 -43q40 -18 149 -18q112 0 156 12q43 13 61 42.5t31 92.5q6 29 18 29q13 0 13 -31q0 -10 -9 -80.5t-14 -97.5q-6 -30 -22 -37.5t-68 -7.5q-75 0 -155.5 2t-108.5 2q-216 6 -242 6q-23 0 -66.5 -3t-68.5 -3q-29 0 -29 14q0 6 5.5 10.5t13.5 4.5
q20 0 41 6q31 7 46.5 39.5t18.5 121.5q4 140 4 310zM672 1446q0 -4 -10 -4q-24 0 -160.5 76t-218.5 133q-3 2 -7.5 5.5t-6.5 5.5t-5.5 4.5t-5 4t-3 3.5t-1.5 3.5v3.5q0 10 20 17q60 26 95 31q18 3 24 -0.5t25 -22.5q10 -10 57 -60t94.5 -97t85.5 -79q17 -14 17 -24z" />
    <glyph glyph-name="eacute" unicode="&#xe9;" horiz-adv-x="1110" 
d="M317 500v307q0 318 -4 373q-3 45 -19 67t-58 31q-24 4 -50 4q-10 0 -18 3.5t-8 8.5q0 17 30 17q18 0 83.5 -2.5t127.5 -3.5q375 0 416 2q61 3 80 10q18 6 23 6q8 0 8 -14q0 -3 -7.5 -32.5t-9.5 -59.5q-5 -87 -6 -107q0 -31 -14 -31t-14 23q-2 35 -15 65q-9 32 -34.5 45
t-98.5 17q-54 4 -233 4q-11 0 -11 -16v-465q0 -21 13 -21q212 0 276 6q75 3 94 31q11 16 23 16q8 0 8 -12q0 -4 -2 -18t-5.5 -39.5t-6.5 -50.5q-4 -34 -6 -79t-2 -46q-3 -23 -15 -23t-12 27q0 25 -6 49q-5 17 -12 27t-29 20.5t-58 13.5q-106 9 -245 9q-15 0 -15 -15v-149
v-279q3 -60 15 -90t43 -43q40 -18 149 -18q112 0 156 12q43 13 61 42.5t31 92.5q6 29 18 29q13 0 13 -31q0 -10 -9 -80.5t-14 -97.5q-6 -30 -22 -37.5t-68 -7.5q-75 0 -155.5 2t-108.5 2q-216 6 -242 6q-23 0 -66.5 -3t-68.5 -3q-29 0 -29 14q0 6 5.5 10.5t13.5 4.5
q20 0 41 6q31 7 46.5 39.5t18.5 121.5q4 140 4 310zM827 1710q47 -38 68 -72q7 -14 4.5 -19t-10.5 -5q-1 0 -15 -3.5t-31 -9t-30 -10.5q-129 -60 -262 -141l-6 -4l-11 -5.5t-11.5 -5t-10.5 -1t-4 7.5q0 10 14 24q10 11 63.5 68t93 97t60.5 57q43 34 54 34q20 0 34 -12z" />
    <glyph glyph-name="ecircumflex" unicode="&#xea;" horiz-adv-x="1110" 
d="M317 500v307q0 318 -4 373q-3 45 -19 67t-58 31q-24 4 -50 4q-10 0 -18 3.5t-8 8.5q0 17 30 17q18 0 83.5 -2.5t127.5 -3.5q375 0 416 2q61 3 80 10q18 6 23 6q8 0 8 -14q0 -3 -7.5 -32.5t-9.5 -59.5q-5 -87 -6 -107q0 -31 -14 -31t-14 23q-2 35 -15 65q-9 32 -34.5 45
t-98.5 17q-54 4 -233 4q-11 0 -11 -16v-465q0 -21 13 -21q212 0 276 6q75 3 94 31q11 16 23 16q8 0 8 -12q0 -4 -2 -18t-5.5 -39.5t-6.5 -50.5q-4 -34 -6 -79t-2 -46q-3 -23 -15 -23t-12 27q0 25 -6 49q-5 17 -12 27t-29 20.5t-58 13.5q-106 9 -245 9q-15 0 -15 -15v-149
v-279q3 -60 15 -90t43 -43q40 -18 149 -18q112 0 156 12q43 13 61 42.5t31 92.5q6 29 18 29q13 0 13 -31q0 -10 -9 -80.5t-14 -97.5q-6 -30 -22 -37.5t-68 -7.5q-75 0 -155.5 2t-108.5 2q-216 6 -242 6q-23 0 -66.5 -3t-68.5 -3q-29 0 -29 14q0 6 5.5 10.5t13.5 4.5
q20 0 41 6q31 7 46.5 39.5t18.5 121.5q4 140 4 310zM573 1726q7 0 35 -14q2 -2 112 -76.5t130 -89.5q22 -15 22 -22q0 -4 -10 -11l-71 -45q-13 -8 -21 0q-35 31 -102.5 77.5t-98.5 62.5q-13 8 -24 8q-9 0 -29 -10q-60 -33 -219 -127q-27 -17 -39 -17q-13 0 -10 10q3 7 14 15
q49 36 149 116.5t128 104.5q27 18 34 18z" />
    <glyph glyph-name="edieresis" unicode="&#xeb;" horiz-adv-x="1110" 
d="M317 500v307q0 318 -4 373q-3 45 -19 67t-58 31q-24 4 -50 4q-10 0 -18 3.5t-8 8.5q0 17 30 17q18 0 83.5 -2.5t127.5 -3.5q375 0 416 2q61 3 80 10q18 6 23 6q8 0 8 -14q0 -3 -7.5 -32.5t-9.5 -59.5q-5 -87 -6 -107q0 -31 -14 -31t-14 23q-2 35 -15 65q-9 32 -34.5 45
t-98.5 17q-54 4 -233 4q-11 0 -11 -16v-465q0 -21 13 -21q212 0 276 6q75 3 94 31q11 16 23 16q8 0 8 -12q0 -4 -2 -18t-5.5 -39.5t-6.5 -50.5q-4 -34 -6 -79t-2 -46q-3 -23 -15 -23t-12 27q0 25 -6 49q-5 17 -12 27t-29 20.5t-58 13.5q-106 9 -245 9q-15 0 -15 -15v-149
v-279q3 -60 15 -90t43 -43q40 -18 149 -18q112 0 156 12q43 13 61 42.5t31 92.5q6 29 18 29q13 0 13 -31q0 -10 -9 -80.5t-14 -97.5q-6 -30 -22 -37.5t-68 -7.5q-75 0 -155.5 2t-108.5 2q-216 6 -242 6q-23 0 -66.5 -3t-68.5 -3q-29 0 -29 14q0 6 5.5 10.5t13.5 4.5
q20 0 41 6q31 7 46.5 39.5t18.5 121.5q4 140 4 310zM811 1501q-38 0 -59 24.5t-21 55.5q0 29 21.5 54.5t60.5 25.5q34 0 56 -21t22 -55q0 -38 -21.5 -61t-58.5 -23zM354 1501q-39 0 -58.5 24.5t-19.5 55.5t20.5 55.5t59.5 24.5q34 0 56 -21t22 -55q0 -37 -22 -60.5
t-58 -23.5z" />
    <glyph glyph-name="igrave" unicode="&#xec;" horiz-adv-x="802" 
d="M317 500v307q0 320 -4 375q-3 44 -15.5 66t-43.5 28q-11 2 -27 3.5t-20 2.5q-23 3 -23 14q0 15 31 15q28 0 73 -1.5t78.5 -3t34.5 -1.5q2 0 36.5 1.5t79 3t69.5 1.5q30 0 30 -15q0 -11 -22 -14q-6 -1 -18 -2t-19 -2q-41 -6 -54 -27t-16 -71q-2 -28 -2 -373v-307
q0 -308 9 -375q6 -48 18.5 -66.5t50.5 -27.5q36 -8 78 -8q23 -3 23 -15q0 -14 -29 -14q-46 0 -101.5 1.5t-93 3t-39.5 1.5q-1 0 -35.5 -1.5t-79 -3t-69.5 -1.5q-33 0 -33 14q0 15 27 15q25 0 49 6q13 3 21.5 11t13.5 23.5t7 28t5 35.5q10 74 10 373zM485 1466q0 -4 -10 -4
q-24 0 -160.5 76t-218.5 133q-30 23 -28 31q0 9 20 16q60 26 94 31q18 3 24 -0.5t25 -22.5q8 -8 57 -59t96 -97.5t85 -78.5q16 -13 16 -25z" />
    <glyph glyph-name="iacute" unicode="&#xed;" horiz-adv-x="802" 
d="M317 500v307q0 320 -4 375q-3 44 -15.5 66t-43.5 28q-11 2 -27 3.5t-20 2.5q-23 3 -23 14q0 15 31 15q28 0 73 -1.5t78.5 -3t34.5 -1.5q2 0 36.5 1.5t79 3t69.5 1.5q30 0 30 -15q0 -11 -22 -14q-6 -1 -18 -2t-19 -2q-41 -6 -54 -27t-16 -71q-2 -28 -2 -373v-307
q0 -308 9 -375q6 -48 18.5 -66.5t50.5 -27.5q36 -8 78 -8q23 -3 23 -15q0 -14 -29 -14q-46 0 -101.5 1.5t-93 3t-39.5 1.5q-1 0 -35.5 -1.5t-79 -3t-69.5 -1.5q-33 0 -33 14q0 15 27 15q25 0 49 6q13 3 21.5 11t13.5 23.5t7 28t5 35.5q10 74 10 373zM653 1720q48 -39 68 -71
q7 -13 4.5 -19t-10.5 -6q-1 0 -14.5 -3.5t-31 -8.5t-30.5 -10q-122 -57 -262 -142l-6 -4l-11 -5.5t-11.5 -5t-10.5 -1t-4 7.5q0 11 14 25q8 8 63 66.5t94 98t60 56.5q44 35 53 35q20 0 35 -13z" />
    <glyph glyph-name="icircumflex" unicode="&#xee;" horiz-adv-x="802" 
d="M317 500v307q0 320 -4 375q-3 44 -15.5 66t-43.5 28q-11 2 -27 3.5t-20 2.5q-23 3 -23 14q0 15 31 15q28 0 73 -1.5t78.5 -3t34.5 -1.5q2 0 36.5 1.5t79 3t69.5 1.5q30 0 30 -15q0 -11 -22 -14q-6 -1 -18 -2t-19 -2q-41 -6 -54 -27t-16 -71q-2 -28 -2 -373v-307
q0 -308 9 -375q6 -48 18.5 -66.5t50.5 -27.5q36 -8 78 -8q23 -3 23 -15q0 -14 -29 -14q-46 0 -101.5 1.5t-93 3t-39.5 1.5q-1 0 -35.5 -1.5t-79 -3t-69.5 -1.5q-33 0 -33 14q0 15 27 15q25 0 49 6q13 3 21.5 11t13.5 23.5t7 28t5 35.5q10 74 10 373zM420 1716q7 0 35 -14
q10 -7 66.5 -45.5t108 -74t66.5 -46.5q23 -16 23 -23q0 -4 -6 -7q-2 -2 -4 -3l-72 -45q-13 -8 -21 0q-35 31 -102 77t-98 62q-15 9 -25 9q-7 0 -29 -11q-60 -33 -219 -127q-26 -16 -39 -16t-9 10q3 7 14 15q130 97 276 221q27 18 35 18z" />
    <glyph glyph-name="idieresis" unicode="&#xef;" horiz-adv-x="802" 
d="M317 500v307q0 320 -4 375q-3 44 -15.5 66t-43.5 28q-11 2 -27 3.5t-20 2.5q-23 3 -23 14q0 15 31 15q28 0 73 -1.5t78.5 -3t34.5 -1.5q2 0 36.5 1.5t79 3t69.5 1.5q30 0 30 -15q0 -11 -22 -14q-6 -1 -18 -2t-19 -2q-41 -6 -54 -27t-16 -71q-2 -28 -2 -373v-307
q0 -308 9 -375q6 -48 18.5 -66.5t50.5 -27.5q36 -8 78 -8q23 -3 23 -15q0 -14 -29 -14q-46 0 -101.5 1.5t-93 3t-39.5 1.5q-1 0 -35.5 -1.5t-79 -3t-69.5 -1.5q-33 0 -33 14q0 15 27 15q25 0 49 6q13 3 21.5 11t13.5 23.5t7 28t5 35.5q10 74 10 373zM629 1495
q-38 0 -59 24.5t-21 55.5q0 29 21.5 54.5t60.5 25.5q34 0 56 -21t22 -55q0 -38 -21.5 -61t-58.5 -23zM172 1495q-39 0 -58.5 24.5t-19.5 55.5t20.5 55.5t59.5 24.5q34 0 56 -21t22 -55q0 -37 -22 -60.5t-58 -23.5z" />
    <glyph glyph-name="eth" unicode="&#xf0;" 
d="M317 709v98q0 322 -4 375q-3 43 -20 65t-60 31q-24 4 -59 4q-8 0 -14 4t-6 8q0 17 30 17q37 0 90 -1.5t91 -3.5l38 -1q3 0 39 1.5t91 3t106 1.5h38q56 1 88 0.5t95 -4t106.5 -10.5t104.5 -21.5t108.5 -35.5t99 -54.5t93.5 -75.5q174 -174 174 -440q0 -152 -55 -278.5
t-139 -211.5q-200 -200 -547 -200q-126 0 -256 10q-34 2 -70 4.5t-56 4t-22 1.5q-30 0 -69 -2q-20 0 -62 -2t-57 -2q-29 0 -29 14q0 5 6 10t17 5q23 0 47 6q41 7 53 94q10 63 10 381v137h-157q-11 0 -13.5 2.5t-1.5 11.5q11 37 13 43q1 5 2.5 6.5t8 3t19.5 1.5h129zM485 641
v-8q0 -81 0.5 -167t1 -142.5t0.5 -65.5q4 -115 21 -137q51 -78 301 -78q266 0 426 160q66 66 99.5 173t33.5 234q0 82 -17 155.5t-45.5 127.5t-55.5 91t-58 67q-63 63 -133 103.5t-147.5 59t-143.5 25t-154 6.5q-25 0 -60.5 -4t-43.5 -10q-23 -11 -23 -35q-2 -59 -2 -356
v-131h353q10 0 13 -3t1 -10q-8 -39 -14 -47q-5 -8 -27 -8h-326z" />
    <glyph glyph-name="ntilde" unicode="&#xf1;" horiz-adv-x="1718" 
d="M262 250q0 482 1 739t-1 262q0 84 23 84q4 0 10.5 -4t14 -11.5l14 -14t14 -14.5t10.5 -11q18 -21 590 -604q83 -81 238 -236.5t180 -179.5l-23 852q-2 85 -15.5 118.5t-53.5 43.5q-47 8 -80 8q-25 0 -25 16q0 13 37 13q53 0 123 -3l70 -3q3 0 59 3t104 3q29 0 29 -13
t-18 -16q-4 -1 -21.5 -2.5t-30.5 -3.5q-37 -8 -49 -36.5t-12 -117.5l-4 -1028q0 -50 -2 -74.5t-5.5 -31t-11.5 -6.5q-11 0 -37.5 20.5t-97.5 87.5q-4 2 -78.5 75t-201 198t-191.5 188q-237 246 -469 487l27 -800q3 -110 16.5 -154t50.5 -53q33 -8 84 -8q25 0 25 -15
q0 -14 -33 -14q-49 0 -95 1.5t-73 3t-30 1.5q-4 0 -31 -1.5t-68 -3t-80 -1.5q-30 0 -30 14q0 15 28 15q37 0 64 8q33 10 44 56.5t11 162.5zM991 1497q-40 0 -150.5 44t-154.5 44q-40 0 -68 -13.5t-57 -45.5q-15 -19 -26 -19q-3 0 -5 3.5t-0.5 10.5t7.5 15q42 65 90.5 103
t93.5 38q61 0 178 -47q87 -35 125 -35q44 0 75 16t68 54q13 16 23 16q6 0 7 -8.5t-5 -17.5q-99 -158 -201 -158z" />
    <glyph glyph-name="ograve" unicode="&#xf2;" 
d="M819 -29q-145 0 -265.5 41.5t-200.5 109.5t-135.5 158t-80 184.5t-24.5 190.5q0 85 25 175.5t82 181.5t137.5 162t203.5 116t268 45q152 0 283 -44.5t227 -127t150.5 -206.5t54.5 -275q0 -195 -89 -356.5t-256 -258t-380 -96.5zM870 41q34 0 70 5t85 21t92.5 42t87.5 72
t75.5 105.5t51.5 148.5t20 196q0 150 -44 273.5t-118.5 202.5t-170.5 122t-202 43q-109 0 -201 -34t-162.5 -101.5t-110.5 -177t-40 -250.5q0 -302 155 -485t412 -183zM954 1466q0 -4 -10 -4q-24 0 -160.5 76t-218.5 133q-30 23 -28 31q0 9 20 16q60 26 94 31q18 3 24 -0.5
t25 -22.5q8 -8 57 -59t96 -97.5t85 -78.5q16 -13 16 -25z" />
    <glyph glyph-name="oacute" unicode="&#xf3;" 
d="M819 -29q-145 0 -265.5 41.5t-200.5 109.5t-135.5 158t-80 184.5t-24.5 190.5q0 85 25 175.5t82 181.5t137.5 162t203.5 116t268 45q152 0 283 -44.5t227 -127t150.5 -206.5t54.5 -275q0 -195 -89 -356.5t-256 -258t-380 -96.5zM870 41q34 0 70 5t85 21t92.5 42t87.5 72
t75.5 105.5t51.5 148.5t20 196q0 150 -44 273.5t-118.5 202.5t-170.5 122t-202 43q-109 0 -201 -34t-162.5 -101.5t-110.5 -177t-40 -250.5q0 -302 155 -485t412 -183zM1036 1729q47 -38 68 -72q7 -13 4.5 -19t-10.5 -6q-1 0 -14.5 -3.5t-31 -8.5t-30.5 -10
q-122 -57 -262 -142l-6 -4l-11 -5.5t-11.5 -5t-10.5 -1t-4 7.5q0 11 14 25q8 8 63 66.5t94 98t60 56.5q44 35 53 35q21 0 35 -12z" />
    <glyph glyph-name="ocircumflex" unicode="&#xf4;" 
d="M819 -29q-145 0 -265.5 41.5t-200.5 109.5t-135.5 158t-80 184.5t-24.5 190.5q0 85 25 175.5t82 181.5t137.5 162t203.5 116t268 45q152 0 283 -44.5t227 -127t150.5 -206.5t54.5 -275q0 -195 -89 -356.5t-256 -258t-380 -96.5zM870 41q34 0 70 5t85 21t92.5 42t87.5 72
t75.5 105.5t51.5 148.5t20 196q0 150 -44 273.5t-118.5 202.5t-170.5 122t-202 43q-109 0 -201 -34t-162.5 -101.5t-110.5 -177t-40 -250.5q0 -302 155 -485t412 -183zM846 1737q5 0 35 -15q10 -7 66.5 -45.5t108 -74t66.5 -46.5q23 -16 23 -22q0 -4 -6 -7q-2 -2 -4 -3
l-72 -45q-13 -8 -21 0q-35 31 -102 77t-98 62q-13 8 -25 8q-9 0 -29 -10q-60 -33 -219 -127q-26 -16 -39 -16t-9 10q3 7 14 14q130 97 276 221q28 19 35 19z" />
    <glyph glyph-name="otilde" unicode="&#xf5;" 
d="M819 -29q-145 0 -265.5 41.5t-200.5 109.5t-135.5 158t-80 184.5t-24.5 190.5q0 85 25 175.5t82 181.5t137.5 162t203.5 116t268 45q152 0 283 -44.5t227 -127t150.5 -206.5t54.5 -275q0 -195 -89 -356.5t-256 -258t-380 -96.5zM870 41q34 0 70 5t85 21t92.5 42t87.5 72
t75.5 105.5t51.5 148.5t20 196q0 150 -44 273.5t-118.5 202.5t-170.5 122t-202 43q-109 0 -201 -34t-162.5 -101.5t-110.5 -177t-40 -250.5q0 -302 155 -485t412 -183zM963 1499q-41 0 -152 44t-154 44q-40 0 -68 -13.5t-57 -45.5q-15 -19 -26 -19q-3 0 -5 3.5t-0.5 10.5
t7.5 15q42 65 90.5 103t93.5 38q61 0 178 -47q87 -35 125 -35q44 0 75.5 16t68.5 54q13 16 22 16q6 0 7 -8.5t-5 -17.5q-99 -158 -200 -158z" />
    <glyph glyph-name="odieresis" unicode="&#xf6;" 
d="M819 -29q-145 0 -265.5 41.5t-200.5 109.5t-135.5 158t-80 184.5t-24.5 190.5q0 85 25 175.5t82 181.5t137.5 162t203.5 116t268 45q152 0 283 -44.5t227 -127t150.5 -206.5t54.5 -275q0 -195 -89 -356.5t-256 -258t-380 -96.5zM870 41q34 0 70 5t85 21t92.5 42t87.5 72
t75.5 105.5t51.5 148.5t20 196q0 150 -44 273.5t-118.5 202.5t-170.5 122t-202 43q-109 0 -201 -34t-162.5 -101.5t-110.5 -177t-40 -250.5q0 -302 155 -485t412 -183zM1057 1536q-38 0 -59 24.5t-21 55.5q0 29 21.5 54.5t60.5 25.5q34 0 56 -21t22 -55q0 -38 -21.5 -61
t-58.5 -23zM600 1536q-39 0 -58.5 24.5t-19.5 55.5t20.5 55.5t59.5 24.5q34 0 56 -21t22 -55q0 -37 -22 -60.5t-58 -23.5z" />
    <glyph glyph-name="divide" unicode="&#xf7;" horiz-adv-x="1353" 
d="M676 1012q-36 0 -59 23t-23 59q0 39 22 62.5t58 23.5q37 0 61.5 -23t24.5 -59q2 -37 -22 -61.5t-62 -24.5zM674 457q37 0 61.5 -23t24.5 -59q2 -36 -22.5 -61t-63.5 -25q-35 0 -57.5 24t-22.5 60q0 38 22 61t58 23zM1161 682h-966l-2 106h968v-106z" />
    <glyph glyph-name="oslash" unicode="&#xf8;" 
d="M1507 1288l-143 -147q180 -177 180 -459q0 -195 -89 -356.5t-256 -258t-380 -96.5q-269 0 -452 142l-160 -166q-6 -6 -12 0q-29 16 -48 43q-5 5 0 16l158 162q-96 97 -144 225.5t-48 261.5q0 85 25 175.5t82 181.5t137.5 162t203.5 116t268 45q279 0 471 -141l140 145
q6 3 18 0q35 -22 47 -36q5 -8 2 -15zM416 283l784 811q-72 87 -172.5 132.5t-210.5 45.5q-109 0 -201 -34t-162.5 -101.5t-110.5 -177t-40 -250.5q0 -257 113 -426zM1251 1024l-784 -809q154 -174 403 -174q34 0 70 5t85 21t92.5 42t87.5 72t75.5 105.5t51.5 148.5t20 196
q0 224 -101 393z" />
    <glyph glyph-name="ugrave" unicode="&#xf9;" horiz-adv-x="1488" 
d="M383 807v-244q0 -178 31 -273.5t94 -152.5q106 -94 270 -94q178 0 281 119q57 65 78.5 171.5t21.5 256.5v217q0 316 -4 371q-3 50 -16.5 71.5t-59.5 28.5q-28 4 -57 4q-21 0 -21 12q0 17 29 17q39 0 86.5 -1.5t79.5 -3t33 -1.5q3 0 30 1.5t63.5 3t61.5 1.5q29 0 29 -15
q0 -14 -20 -14q-17 0 -37 -2q-40 -4 -53.5 -28t-16.5 -74q-2 -55 -2 -371v-182q0 -109 -10 -194.5t-49 -182t-107 -154.5q-89 -76 -179 -99.5t-196 -23.5q-250 0 -383 123q-73 68 -112 174.5t-39 284.5v254q0 318 -6 373q-2 46 -17 69t-59 29q-24 4 -53 4q-23 0 -23 12
q0 17 31 17q39 0 88.5 -1.5t85 -3t39.5 -1.5q3 0 81.5 3t110.5 3q29 0 29 -15q0 -14 -24 -14q-14 0 -46 -4q-34 -4 -46 -27t-15 -71q-2 -55 -2 -373zM848 1452q0 -4 -10 -4q-24 0 -160.5 76t-218.5 133q-31 24 -29 31q0 9 21 16q60 26 94 31q18 3 24 -0.5t25 -22.5
q9 -9 57 -59.5t95 -97t85 -78.5q17 -14 17 -25z" />
    <glyph glyph-name="uacute" unicode="&#xfa;" horiz-adv-x="1488" 
d="M383 807v-244q0 -178 31 -273.5t94 -152.5q106 -94 270 -94q178 0 281 119q57 65 78.5 171.5t21.5 256.5v217q0 316 -4 371q-3 50 -16.5 71.5t-59.5 28.5q-28 4 -57 4q-21 0 -21 12q0 17 29 17q39 0 86.5 -1.5t79.5 -3t33 -1.5q3 0 30 1.5t63.5 3t61.5 1.5q29 0 29 -15
q0 -14 -20 -14q-17 0 -37 -2q-40 -4 -53.5 -28t-16.5 -74q-2 -55 -2 -371v-182q0 -109 -10 -194.5t-49 -182t-107 -154.5q-89 -76 -179 -99.5t-196 -23.5q-250 0 -383 123q-73 68 -112 174.5t-39 284.5v254q0 318 -6 373q-2 46 -17 69t-59 29q-24 4 -53 4q-23 0 -23 12
q0 17 31 17q39 0 88.5 -1.5t85 -3t39.5 -1.5q3 0 81.5 3t110.5 3q29 0 29 -15q0 -14 -24 -14q-14 0 -46 -4q-34 -4 -46 -27t-15 -71q-2 -55 -2 -373zM975 1718q47 -37 67 -71q7 -13 4.5 -19t-10.5 -6q-1 0 -14.5 -3.5t-30.5 -9t-30 -10.5q-133 -62 -263 -141l-6 -4l-11 -5.5
t-11.5 -5t-10.5 -1t-4 7.5q0 10 15 25q8 8 63 66.5t94 98t60 56.5q44 35 53 35q20 0 35 -13z" />
    <glyph glyph-name="ucircumflex" unicode="&#xfb;" horiz-adv-x="1488" 
d="M383 807v-244q0 -178 31 -273.5t94 -152.5q106 -94 270 -94q178 0 281 119q57 65 78.5 171.5t21.5 256.5v217q0 316 -4 371q-3 50 -16.5 71.5t-59.5 28.5q-28 4 -57 4q-21 0 -21 12q0 17 29 17q39 0 86.5 -1.5t79.5 -3t33 -1.5q3 0 30 1.5t63.5 3t61.5 1.5q29 0 29 -15
q0 -14 -20 -14q-17 0 -37 -2q-40 -4 -53.5 -28t-16.5 -74q-2 -55 -2 -371v-182q0 -109 -10 -194.5t-49 -182t-107 -154.5q-89 -76 -179 -99.5t-196 -23.5q-250 0 -383 123q-73 68 -112 174.5t-39 284.5v254q0 318 -6 373q-2 46 -17 69t-59 29q-24 4 -53 4q-23 0 -23 12
q0 17 31 17q39 0 88.5 -1.5t85 -3t39.5 -1.5q3 0 81.5 3t110.5 3q29 0 29 -15q0 -14 -24 -14q-14 0 -46 -4q-34 -4 -46 -27t-15 -71q-2 -55 -2 -373zM760 1737q5 0 35 -15q10 -7 66.5 -45.5t108 -74t66.5 -46.5q23 -16 23 -22q0 -4 -6 -7q-2 -2 -4 -3l-72 -45q-13 -8 -21 0
q-35 31 -102 77t-98 62q-13 8 -25 8q-9 0 -29 -10q-60 -33 -219 -127q-26 -16 -39 -16t-9 10q3 7 14 14q130 97 276 221q28 19 35 19z" />
    <glyph glyph-name="udieresis" unicode="&#xfc;" horiz-adv-x="1488" 
d="M383 807v-244q0 -178 31 -273.5t94 -152.5q106 -94 270 -94q178 0 281 119q57 65 78.5 171.5t21.5 256.5v217q0 316 -4 371q-3 50 -16.5 71.5t-59.5 28.5q-28 4 -57 4q-21 0 -21 12q0 17 29 17q39 0 86.5 -1.5t79.5 -3t33 -1.5q3 0 30 1.5t63.5 3t61.5 1.5q29 0 29 -15
q0 -14 -20 -14q-17 0 -37 -2q-40 -4 -53.5 -28t-16.5 -74q-2 -55 -2 -371v-182q0 -109 -10 -194.5t-49 -182t-107 -154.5q-89 -76 -179 -99.5t-196 -23.5q-250 0 -383 123q-73 68 -112 174.5t-39 284.5v254q0 318 -6 373q-2 46 -17 69t-59 29q-24 4 -53 4q-23 0 -23 12
q0 17 31 17q39 0 88.5 -1.5t85 -3t39.5 -1.5q3 0 81.5 3t110.5 3q29 0 29 -15q0 -14 -24 -14q-14 0 -46 -4q-34 -4 -46 -27t-15 -71q-2 -55 -2 -373zM981 1516q-38 0 -59 24t-21 55q0 29 21.5 54.5t60.5 25.5q34 0 56 -21t22 -55q0 -37 -21 -60t-59 -23zM524 1516
q-39 0 -58.5 24t-19.5 55t20.5 55.5t59.5 24.5q34 0 56 -21t22 -55q0 -37 -22 -60t-58 -23z" />
    <glyph glyph-name="yacute" unicode="&#xfd;" horiz-adv-x="1185" 
d="M516 291v149q0 70 -10 108t-35 81q-13 24 -142 231.5t-171 265.5q-67 95 -105 125q-41 28 -96 31q-23 0 -23 16q0 13 25 13q15 0 62 -1.5t88.5 -3t42.5 -1.5q3 0 26.5 1.5t59.5 3t69 1.5q27 0 27 -13q0 -10 -23 -16q-20 -4 -26 -11.5t-6 -21.5q0 -17 26 -67
q12 -23 85 -142.5t155 -252.5t88 -142q15 32 80 143t134 226t77 129q30 52 38.5 71.5t8.5 36.5q0 6 -1 10t-4.5 7t-5.5 5t-8 3.5t-8.5 2l-10 2t-9.5 1.5q-23 3 -23 16t25 13q26 0 68 -3t57 -3q13 0 87 3t93 3q24 0 24 -13q0 -16 -24 -16q-68 -3 -103 -27q-8 -5 -14.5 -10.5
t-11 -9.5t-11.5 -13t-10 -13l-13.5 -18t-14.5 -20q-84 -116 -203.5 -313t-144.5 -256q-6 -15 -10 -31t-6.5 -26.5t-3.5 -28.5t-1 -24v-27v-25v-149q0 -90 4 -164q2 -30 6 -45.5t20 -30t46 -20.5q36 -8 76 -8q22 0 22 -13q0 -16 -24 -16q-29 0 -63 0.5t-63 1.5t-53.5 2
t-40 1.5t-16.5 0.5l-34 -2q-35 -1 -80 -2.5t-70 -1.5q-29 0 -29 16q0 13 21 13q27 0 51 6q46 8 53 98q6 74 6 164zM852 1720q48 -39 68 -71q7 -13 4 -19t-11 -6q-1 0 -14.5 -3.5t-30.5 -8.5t-30 -10q-126 -59 -263 -142l-6 -4l-11 -5.5t-11.5 -5t-10.5 -1t-4 7.5q0 10 15 25
q8 8 63 66.5t94 98t60 56.5q44 35 53 35q20 0 35 -13z" />
    <glyph glyph-name="thorn" unicode="&#xfe;" horiz-adv-x="1173" 
d="M481 500q0 -303 8 -377q5 -42 20.5 -66t53.5 -28q35 -6 68 -6q26 0 26 -15q0 -14 -28 -14q-46 0 -100 1.5t-90 3t-38 1.5q-1 0 -35.5 -1.5t-79 -3t-69.5 -1.5q-33 0 -33 14q0 15 25 15q31 0 45 4q26 4 38 27.5t17 70.5q8 74 8 375v307q0 318 -4 373q-6 85 -53 96
q-40 8 -55 8q-21 0 -21 10q0 17 31 17q28 0 73 -1.5t78.5 -3t34.5 -1.5q2 0 42.5 1.5t91 3t75.5 1.5q29 0 29 -15q0 -6 -7 -10t-14 -4t-53 -4q-48 -6 -64 -26.5t-18 -73.5q-2 -72 -2 -154q59 6 154 6q76 0 135.5 -9.5t98 -26.5t55.5 -28t37 -27q4 -3 6 -5q37 -32 64.5 -90
t27.5 -139q0 -171 -126.5 -284.5t-318.5 -113.5q-31 0 -39 2q-18 4 -18 15q0 9 10 12.5t39 3.5q126 0 212.5 80.5t86.5 208.5q0 76 -17 135.5t-69 112.5q-56 59 -114.5 77.5t-141.5 18.5q-47 0 -67 -10q-15 -6 -15 -33v-430z" />
    <glyph glyph-name="ydieresis" unicode="&#xff;" horiz-adv-x="1185" 
d="M516 291v149q0 70 -10 108t-35 81q-13 24 -142 231.5t-171 265.5q-67 95 -105 125q-41 28 -96 31q-23 0 -23 16q0 13 25 13q15 0 62 -1.5t88.5 -3t42.5 -1.5q3 0 26.5 1.5t59.5 3t69 1.5q27 0 27 -13q0 -10 -23 -16q-20 -4 -26 -11.5t-6 -21.5q0 -17 26 -67
q12 -23 85 -142.5t155 -252.5t88 -142q15 32 80 143t134 226t77 129q30 52 38.5 71.5t8.5 36.5q0 6 -1 10t-4.5 7t-5.5 5t-8 3.5t-8.5 2l-10 2t-9.5 1.5q-23 3 -23 16t25 13q26 0 68 -3t57 -3q13 0 87 3t93 3q24 0 24 -13q0 -16 -24 -16q-68 -3 -103 -27q-8 -5 -14.5 -10.5
t-11 -9.5t-11.5 -13t-10 -13l-13.5 -18t-14.5 -20q-84 -116 -203.5 -313t-144.5 -256q-6 -15 -10 -31t-6.5 -26.5t-3.5 -28.5t-1 -24v-27v-25v-149q0 -90 4 -164q2 -30 6 -45.5t20 -30t46 -20.5q36 -8 76 -8q22 0 22 -13q0 -16 -24 -16q-29 0 -63 0.5t-63 1.5t-53.5 2
t-40 1.5t-16.5 0.5l-34 -2q-35 -1 -80 -2.5t-70 -1.5q-29 0 -29 16q0 13 21 13q27 0 51 6q46 8 53 98q6 74 6 164zM834 1516q-38 0 -59 24t-21 55q0 29 21.5 54.5t60.5 25.5q34 0 55.5 -21t21.5 -55q0 -38 -21 -60.5t-58 -22.5zM377 1516q-39 0 -58.5 24t-19.5 55t20.5 55.5
t59.5 24.5q34 0 56 -21t22 -55q0 -37 -22 -60t-58 -23z" />
    <glyph glyph-name="Amacron" unicode="&#x100;" horiz-adv-x="1433" 
d="M899 598h-440q-15 0 -21 -16l-123 -363q-28 -79 -28 -137q0 -29 22 -44t51 -15h19q27 0 27 -13q0 -16 -37 -16q-28 0 -87 3t-67 3q-2 0 -88 -3t-143 -3q-39 0 -39 16q0 13 28 13q18 0 50 4q65 8 102.5 55.5t69.5 136.5l464 1272q18 49 27.5 64.5t18.5 15.5t18 -14t27 -60
q9 -23 104 -271t206.5 -537.5t166.5 -426.5q26 -65 51.5 -110t48.5 -68t40 -33.5t36 -15.5q37 -12 80 -12q22 0 22 -13q0 -16 -41 -16q-180 0 -321 4q-55 3 -60 9q-2 2 -2 5q0 11 15 15q11 4 15 17t-3 38l-190 504q-6 12 -19 12zM481 672h391q12 0 9 14l-195 553
q-16 48 -31 0l-180 -553q-6 -14 6 -14zM446 1798h543q11 0 15.5 -6t1.5 -14l-17 -56q-3 -12 -18 -12h-543q-12 0 -16.5 3t-3.5 11l16 62q2 12 22 12z" />
    <glyph glyph-name="amacron" unicode="&#x101;" horiz-adv-x="1261" 
d="M780 494h-372q-14 0 -21 -17l-90 -256q-35 -100 -35 -145q0 -53 68 -53h14q25 0 25 -15q0 -14 -31 -14q-25 0 -89 3t-73 3q-2 0 -73.5 -3t-122.5 -3q-33 0 -33 14q0 15 24 15q29 0 41 2q60 5 93.5 44.5t64.5 116.5l410 1080q17 44 25 56.5t18 12.5q8 0 16.5 -12.5
t24.5 -52.5q5 -11 178 -449.5t237 -589.5q71 -169 156 -198q27 -10 70 -10q24 0 24 -15q0 -14 -31 -14q-174 0 -311 4q-31 2 -41 4.5t-10 9.5q0 12 14 15q21 11 8 45l-161 411q-7 11 -17 11zM428 565h328q10 0 6 13l-162 452q-8 22 -11 22t-11 -22l-154 -452q-6 -13 4 -13z
M369 1593h542q11 0 15.5 -7t1.5 -15l-17 -49q-3 -13 -18 -13h-543q-11 0 -16 3t-4 12l16 57q2 12 23 12z" />
    <glyph glyph-name="Abreve" unicode="&#x102;" horiz-adv-x="1433" 
d="M899 598h-440q-15 0 -21 -16l-123 -363q-28 -79 -28 -137q0 -29 22 -44t51 -15h19q27 0 27 -13q0 -16 -37 -16q-28 0 -87 3t-67 3q-2 0 -88 -3t-143 -3q-39 0 -39 16q0 13 28 13q18 0 50 4q65 8 102.5 55.5t69.5 136.5l464 1272q18 49 27.5 64.5t18.5 15.5t18 -14t27 -60
q9 -23 104 -271t206.5 -537.5t166.5 -426.5q26 -65 51.5 -110t48.5 -68t40 -33.5t36 -15.5q37 -12 80 -12q22 0 22 -13q0 -16 -41 -16q-180 0 -321 4q-55 3 -60 9q-2 2 -2 5q0 11 15 15q11 4 15 17t-3 38l-190 504q-6 12 -19 12zM481 672h391q12 0 9 14l-195 553
q-16 48 -31 0l-180 -553q-6 -14 6 -14zM375 1841q0 11 12 21q13 15 35 33t29 18t12 -10q29 -54 101 -96t175 -42q97 0 164.5 29t126.5 94q20 23 31 23q14 0 -5 -35q-3 -6 -7 -12q-64 -82 -159 -130t-198 -48q-156 0 -256 73q-61 45 -61 82z" />
    <glyph glyph-name="abreve" unicode="&#x103;" horiz-adv-x="1261" 
d="M780 494h-372q-14 0 -21 -17l-90 -256q-35 -100 -35 -145q0 -53 68 -53h14q25 0 25 -15q0 -14 -31 -14q-25 0 -89 3t-73 3q-2 0 -73.5 -3t-122.5 -3q-33 0 -33 14q0 15 24 15q29 0 41 2q60 5 93.5 44.5t64.5 116.5l410 1080q17 44 25 56.5t18 12.5q8 0 16.5 -12.5
t24.5 -52.5q5 -11 178 -449.5t237 -589.5q71 -169 156 -198q27 -10 70 -10q24 0 24 -15q0 -14 -31 -14q-174 0 -311 4q-31 2 -41 4.5t-10 9.5q0 12 14 15q21 11 8 45l-161 411q-7 11 -17 11zM428 565h328q10 0 6 13l-162 452q-8 22 -11 22t-11 -22l-154 -452q-6 -13 4 -13z
M311 1645q0 8 11 22q12 13 32 29t27 16t10 -10q27 -48 95.5 -85.5t162.5 -37.5q92 0 153.5 25.5t115.5 85.5q18 20 28 20q11 0 -2 -26q-4 -9 -10 -17q-133 -170 -330 -170q-140 0 -244 74q-49 38 -49 74z" />
    <glyph glyph-name="Aogonek" unicode="&#x104;" horiz-adv-x="1433" 
d="M195 219l464 1272q18 49 27.5 64.5t18.5 15.5t18 -14t27 -60q9 -23 104 -271t206.5 -537.5t166.5 -426.5q26 -65 51.5 -110t48.5 -68t40 -33.5t36 -15.5q37 -12 80 -12q22 0 22 -13q0 -16 -41 -16h-106q-75 -47 -119.5 -108.5t-44.5 -123.5q0 -54 31 -81t80 -27
q54 0 94 22q28 16 28 0q0 -9 -14 -26q-68 -78 -192 -78q-75 0 -119.5 42t-44.5 105q0 72 75 148.5t177 126.5q-26 1 -82 2t-84 2q-55 3 -60 9q-2 2 -2 5q0 11 15 15q11 4 15 17t-3 38l-190 504q-6 12 -19 12h-440q-15 0 -21 -16l-123 -363q-28 -79 -28 -137q0 -29 22 -44
t51 -15h19q27 0 27 -13q0 -16 -37 -16q-28 0 -87 3t-67 3q-2 0 -88 -3t-143 -3q-39 0 -39 16q0 13 28 13q18 0 50 4q65 8 102.5 55.5t69.5 136.5zM481 672h391q12 0 9 14l-195 553q-16 48 -31 0l-180 -553q-6 -14 6 -14z" />
    <glyph glyph-name="aogonek" unicode="&#x105;" horiz-adv-x="1261" 
d="M170 186l410 1080q17 44 25 56.5t18 12.5q8 0 16.5 -12.5t24.5 -52.5q5 -11 178 -449.5t237 -589.5q71 -169 156 -198q27 -10 70 -10q24 0 24 -15q0 -14 -31 -14h-110q-73 -46 -115.5 -108t-42.5 -124q0 -55 28.5 -81.5t76.5 -26.5q54 0 94 22q28 16 28 0q0 -9 -14 -26
q-68 -78 -192 -78q-75 0 -119.5 42t-44.5 105q0 72 75.5 148.5t178.5 126.5q-25 1 -77 2t-77 2q-31 2 -41 4.5t-10 9.5q0 12 14 15q21 11 8 45l-161 411q-7 11 -17 11h-372q-14 0 -21 -17l-90 -256q-35 -100 -35 -145q0 -53 68 -53h14q25 0 25 -15q0 -14 -31 -14
q-25 0 -89 3t-73 3q-2 0 -73.5 -3t-122.5 -3q-33 0 -33 14q0 15 24 15q29 0 41 2q60 5 93.5 44.5t64.5 116.5zM428 565h328q10 0 6 13l-162 452q-8 22 -11 22t-11 -22l-154 -452q-6 -13 4 -13z" />
    <glyph glyph-name="Cacute" unicode="&#x106;" horiz-adv-x="1648" 
d="M1055 -35q-226 0 -389 55t-287 166q-248 222 -248 607q0 57 11 121t35 140t71 154.5t112 143.5q219 219 625 219q158 0 297 -25q30 -5 217 -30q19 -3 19 -23q0 -6 -2 -19t-4.5 -38.5t-4.5 -57.5q-2 -38 -3.5 -118.5t-2.5 -92.5q-3 -43 -18 -43q-17 0 -17 43
q0 61 -23.5 118.5t-62.5 90.5q-58 49 -169.5 83t-239.5 34q-317 0 -471 -150q-105 -100 -145 -230t-40 -304q0 -146 55 -282t150 -239.5t235 -166t300 -62.5q127 0 212.5 22t143.5 81q29 30 49.5 82.5t26.5 89.5q5 31 20 31t15 -31q0 -16 -16 -116t-29 -146
q-9 -29 -17.5 -38.5t-36.5 -21.5q-117 -47 -368 -47zM1178 1964q45 -40 65 -82q6 -15 3 -21t-11 -6q-40 0 -84 -16q-112 -41 -291 -125q-28 -12 -33 -12q-3 0 -7.5 2.5t-4.5 5.5q0 9 16 25q54 50 135 119.5t117 93.5q46 32 60 32q19 0 35 -16z" />
    <glyph glyph-name="cacute" unicode="&#x107;" horiz-adv-x="1452" 
d="M932 -29q-200 0 -345 46t-255 141q-219 191 -219 522q0 66 16.5 139.5t65.5 167t124 166.5q191 182 551 182q114 0 271 -22q141 -21 180 -23q18 0 18 -20q0 -6 -4 -34.5t-6 -66.5q-1 -26 -2 -100.5t-2 -87.5q-3 -39 -16 -39q-17 0 -17 39q0 47 -22 98.5t-58 79.5
q-49 43 -149.5 74t-212.5 31q-261 0 -393 -119q-94 -85 -129 -193t-35 -256q0 -126 49.5 -243t133.5 -204t203 -139.5t251 -52.5q115 0 188.5 17.5t124.5 66.5q52 54 68 148q6 30 22 30q10 0 10 -28q0 -15 -15.5 -106.5t-24.5 -121.5q-9 -24 -17.5 -33t-30.5 -18
q-95 -41 -323 -41zM1018 1741q45 -36 67 -72q7 -13 4.5 -18.5t-10.5 -5.5q-1 0 -14.5 -3.5t-30.5 -9t-30 -10.5q-133 -62 -263 -141l-6 -3q-6 -4 -11 -6.5t-11.5 -5t-10.5 -1t-4 7.5q0 9 15 24q8 8 63 66.5t94 98t60 56.5q44 35 53 35q21 0 35 -12z" />
    <glyph glyph-name="Ccircumflex" unicode="&#x108;" horiz-adv-x="1648" 
d="M1055 -35q-226 0 -389 55t-287 166q-248 222 -248 607q0 57 11 121t35 140t71 154.5t112 143.5q219 219 625 219q158 0 297 -25q30 -5 217 -30q19 -3 19 -23q0 -6 -2 -19t-4.5 -38.5t-4.5 -57.5q-2 -38 -3.5 -118.5t-2.5 -92.5q-3 -43 -18 -43q-17 0 -17 43
q0 61 -23.5 118.5t-62.5 90.5q-58 49 -169.5 83t-239.5 34q-317 0 -471 -150q-105 -100 -145 -230t-40 -304q0 -146 55 -282t150 -239.5t235 -166t300 -62.5q127 0 212.5 22t143.5 81q29 30 49.5 82.5t26.5 89.5q5 31 20 31t15 -31q0 -16 -16 -116t-29 -146
q-9 -29 -17.5 -38.5t-36.5 -21.5q-117 -47 -368 -47zM956 1956q11 0 39 -17q10 -7 73 -48.5t119.5 -79.5t72.5 -50q24 -17 24 -24q0 -6 -10 -13l-70 -38q-12 -8 -24 0q-38 31 -110 79t-107 66q-17 10 -23 10q-2 0 -33 -14q-156 -80 -243 -129q-34 -19 -43 -19q-12 0 -10 12
q2 11 16 21q238 175 293 223q30 21 36 21z" />
    <glyph glyph-name="ccircumflex" unicode="&#x109;" horiz-adv-x="1452" 
d="M932 -29q-200 0 -345 46t-255 141q-219 191 -219 522q0 66 16.5 139.5t65.5 167t124 166.5q191 182 551 182q114 0 271 -22q141 -21 180 -23q18 0 18 -20q0 -6 -4 -34.5t-6 -66.5q-1 -26 -2 -100.5t-2 -87.5q-3 -39 -16 -39q-17 0 -17 39q0 47 -22 98.5t-58 79.5
q-49 43 -149.5 74t-212.5 31q-261 0 -393 -119q-94 -85 -129 -193t-35 -256q0 -126 49.5 -243t133.5 -204t203 -139.5t251 -52.5q115 0 188.5 17.5t124.5 66.5q52 54 68 148q6 30 22 30q10 0 10 -28q0 -15 -15.5 -106.5t-24.5 -121.5q-9 -24 -17.5 -33t-30.5 -18
q-95 -41 -323 -41zM823 1737q5 0 35 -15q2 -2 112 -76.5t130 -89.5q22 -15 22 -22q0 -4 -6 -7q-2 -2 -4 -3l-72 -45q-12 -8 -20 0q-35 31 -102.5 77t-98.5 62q-13 8 -24 8q-9 0 -29 -10q-60 -33 -219 -127q-26 -16 -39 -16q-14 0 -9 10q2 7 13 14q130 97 276 221
q28 19 35 19z" />
    <glyph glyph-name="Cdotaccent" unicode="&#x10a;" horiz-adv-x="1648" 
d="M1055 -35q-226 0 -389 55t-287 166q-248 222 -248 607q0 57 11 121t35 140t71 154.5t112 143.5q219 219 625 219q158 0 297 -25q30 -5 217 -30q19 -3 19 -23q0 -6 -2 -19t-4.5 -38.5t-4.5 -57.5q-2 -38 -3.5 -118.5t-2.5 -92.5q-3 -43 -18 -43q-17 0 -17 43
q0 61 -23.5 118.5t-62.5 90.5q-58 49 -169.5 83t-239.5 34q-317 0 -471 -150q-105 -100 -145 -230t-40 -304q0 -146 55 -282t150 -239.5t235 -166t300 -62.5q127 0 212.5 22t143.5 81q29 30 49.5 82.5t26.5 89.5q5 31 20 31t15 -31q0 -16 -16 -116t-29 -146
q-9 -29 -17.5 -38.5t-36.5 -21.5q-117 -47 -368 -47zM944 1737q-40 0 -63 25.5t-23 58.5q0 32 23.5 60t62.5 28q37 0 62.5 -24.5t25.5 -61.5q0 -35 -24.5 -60.5t-63.5 -25.5z" />
    <glyph glyph-name="cdotaccent" unicode="&#x10b;" horiz-adv-x="1452" 
d="M932 -29q-200 0 -345 46t-255 141q-219 191 -219 522q0 66 16.5 139.5t65.5 167t124 166.5q191 182 551 182q114 0 271 -22q141 -21 180 -23q18 0 18 -20q0 -6 -4 -34.5t-6 -66.5q-1 -26 -2 -100.5t-2 -87.5q-3 -39 -16 -39q-17 0 -17 39q0 47 -22 98.5t-58 79.5
q-49 43 -149.5 74t-212.5 31q-261 0 -393 -119q-94 -85 -129 -193t-35 -256q0 -126 49.5 -243t133.5 -204t203 -139.5t251 -52.5q115 0 188.5 17.5t124.5 66.5q52 54 68 148q6 30 22 30q10 0 10 -28q0 -15 -15.5 -106.5t-24.5 -121.5q-9 -24 -17.5 -33t-30.5 -18
q-95 -41 -323 -41zM805 1532q-40 0 -63 25.5t-23 58.5q0 32 23.5 60t62.5 28q37 0 62.5 -24.5t25.5 -61.5q0 -35 -24.5 -60.5t-63.5 -25.5z" />
    <glyph glyph-name="Ccaron" unicode="&#x10c;" horiz-adv-x="1648" 
d="M1055 -35q-226 0 -389 55t-287 166q-248 222 -248 607q0 57 11 121t35 140t71 154.5t112 143.5q219 219 625 219q158 0 297 -25q30 -5 217 -30q19 -3 19 -23q0 -6 -2 -19t-4.5 -38.5t-4.5 -57.5q-2 -38 -3.5 -118.5t-2.5 -92.5q-3 -43 -18 -43q-17 0 -17 43
q0 61 -23.5 118.5t-62.5 90.5q-58 49 -169.5 83t-239.5 34q-317 0 -471 -150q-105 -100 -145 -230t-40 -304q0 -146 55 -282t150 -239.5t235 -166t300 -62.5q127 0 212.5 22t143.5 81q29 30 49.5 82.5t26.5 89.5q5 31 20 31t15 -31q0 -16 -16 -116t-29 -146
q-9 -29 -17.5 -38.5t-36.5 -21.5q-117 -47 -368 -47zM948 1692q-12 0 -39 16q-5 3 -122.5 80.5t-139.5 93.5q-24 17 -24 25q0 5 10 12l65 43q13 8 23 0q40 -34 114.5 -86t108.5 -70q17 -10 25 -10t32 12q92 51 238 140q30 18 43 18q12 0 12 -9t-16 -20q-58 -42 -163.5 -123
t-129.5 -102q-29 -20 -37 -20z" />
    <glyph glyph-name="ccaron" unicode="&#x10d;" horiz-adv-x="1452" 
d="M932 -29q-200 0 -345 46t-255 141q-219 191 -219 522q0 66 16.5 139.5t65.5 167t124 166.5q191 182 551 182q114 0 271 -22q141 -21 180 -23q18 0 18 -20q0 -6 -4 -34.5t-6 -66.5q-1 -26 -2 -100.5t-2 -87.5q-3 -39 -16 -39q-17 0 -17 39q0 47 -22 98.5t-58 79.5
q-49 43 -149.5 74t-212.5 31q-261 0 -393 -119q-94 -85 -129 -193t-35 -256q0 -126 49.5 -243t133.5 -204t203 -139.5t251 -52.5q115 0 188.5 17.5t124.5 66.5q52 54 68 148q6 30 22 30q10 0 10 -28q0 -15 -15.5 -106.5t-24.5 -121.5q-9 -24 -17.5 -33t-30.5 -18
q-95 -41 -323 -41zM807 1460q-5 0 -35 15q-7 5 -114 76.5t-126 86.5q-22 15 -22 23q0 4 6 7q2 2 4 3l72 45q12 8 20 0q35 -31 103.5 -78t99.5 -63q13 -8 25 -8q8 0 28 10q60 33 219 127q21 16 39 16q14 0 9 -10q-2 -7 -13 -14q-52 -38 -154 -117t-126 -100q-29 -19 -35 -19z
" />
    <glyph glyph-name="Dcaron" unicode="&#x10e;" horiz-adv-x="1878" 
d="M365 588v360q0 360 -5 443q-3 57 -18 81.5t-63 34.5q-24 6 -70 6q-23 0 -23 13q0 16 33 16q41 0 96 -1.5t94.5 -3t41.5 -1.5l101 3q101 3 175 3h40q63 1 98.5 0.5t106.5 -4.5t119.5 -12.5t117.5 -25.5t122 -41t111.5 -62.5t105.5 -87.5q199 -207 199 -521
q0 -180 -62.5 -328t-158.5 -249q-226 -236 -621 -236q-93 0 -284 13q-37 2 -79.5 5.5t-64.5 5t-26 1.5q-39 0 -82 -2q-22 0 -63.5 -2t-55.5 -2q-33 0 -33 16q0 13 21 13q34 3 57 8q28 5 40 32.5t19 79.5q11 95 11 445zM537 981v-254q0 -366 4 -444q5 -132 22 -156
q57 -82 348 -82q142 0 269.5 50t218.5 141q77 76 120.5 210t43.5 279q0 92 -18 176t-49.5 148t-62.5 109t-67 83q-70 73 -149.5 121.5t-168.5 71.5t-169 31t-183 8q-33 0 -77.5 -4.5t-55.5 -10.5q-24 -11 -24 -41q-2 -70 -2 -436zM903 1667q-12 0 -39 16q-12 8 -72.5 48
t-117 77.5t-72.5 49.5q-24 17 -24 24q0 5 10 12l65 43q13 8 23 0q39 -34 114 -85.5t109 -69.5q17 -10 25 -10t32 12q107 59 238 139q32 19 43 19q12 0 12 -9t-16 -20q-58 -42 -163.5 -123t-129.5 -102q-30 -21 -37 -21z" />
    <glyph glyph-name="dcaron" unicode="&#x10f;" 
d="M317 504v303q0 322 -4 375q-3 43 -20 65t-60 31q-24 4 -59 4q-8 0 -14 4t-6 8q0 17 30 17q37 0 90 -1.5t91 -3.5l38 -1q3 0 39 1.5t91 3t106 1.5h38q56 1 88 0.5t95 -4t106.5 -10.5t104.5 -21.5t108.5 -35.5t99 -54.5t93.5 -75.5q174 -174 174 -440q0 -152 -55 -278.5
t-139 -211.5q-200 -200 -547 -200q-126 0 -256 10q-34 2 -70 4.5t-56 4t-22 1.5q-30 0 -69 -2q-20 0 -62 -2t-57 -2q-29 0 -29 14q0 5 6 10t17 5q23 0 47 6q41 7 53 94q10 63 10 381zM485 840v-207q0 -81 0.5 -167t1 -142.5t0.5 -65.5q4 -115 21 -137q51 -78 301 -78
q266 0 426 160q66 66 99.5 173t33.5 234q0 82 -17 155.5t-45.5 127.5t-55.5 91t-58 67q-63 63 -133 103.5t-147.5 59t-143.5 25t-154 6.5q-25 0 -60.5 -4t-43.5 -10q-23 -11 -23 -35q-2 -59 -2 -356zM809 1460q-5 0 -35 15q-5 4 -112 76t-127 87q-23 16 -23 23q0 4 6 7
q2 2 4 3l72 45q12 8 20 0q35 -31 103.5 -78t99.5 -63q13 -8 25 -8q8 0 28 10q75 41 220 127q21 16 38 16q14 0 9 -10q-2 -7 -13 -14q-52 -38 -154 -117t-126 -100q-28 -19 -35 -19z" />
    <glyph glyph-name="Dcroat" unicode="&#x110;" horiz-adv-x="1898" 
d="M385 829v119q0 377 -4 443q-3 57 -18.5 81.5t-63.5 34.5q-24 6 -70 6q-22 0 -22 13q0 16 33 16q41 0 96 -1.5t94 -3t41 -1.5l101 3q102 3 176 3h40q63 1 98.5 0.5t106.5 -4.5t119.5 -12.5t117.5 -25.5t122 -41t111.5 -62.5t105.5 -87.5q198 -206 198 -521
q0 -180 -62.5 -328t-158.5 -249q-226 -236 -620 -236q-94 0 -285 13q-37 2 -79.5 5.5t-64.5 5t-26 1.5q-39 0 -82 -2q-22 0 -63.5 -2t-55.5 -2q-32 0 -32 16q0 13 20 13q34 3 57 8q28 5 40.5 32.5t19.5 79.5q10 86 10 445v166h-205q-12 0 -15 3t-1 13q3 27 10 47q3 8 8.5 10
t26.5 2h176zM557 754v-27q0 -366 4 -444q5 -130 23 -156q57 -82 348 -82q142 0 269 50t218 141q77 76 120.5 210t43.5 279q0 92 -18 176t-49.5 148t-62.5 109t-67 83q-70 73 -149.5 121.5t-168.5 71.5t-168.5 31t-182.5 8q-33 0 -77.5 -4.5t-55.5 -10.5q-25 -11 -25 -41
q-2 -70 -2 -436v-152h395q12 0 15.5 -3t1.5 -11q-5 -31 -15 -51q-5 -10 -30 -10h-367z" />
    <glyph glyph-name="dcroat" unicode="&#x111;" 
d="M317 709v98q0 322 -4 375q-3 43 -20 65t-60 31q-24 4 -59 4q-8 0 -14 4t-6 8q0 17 30 17q37 0 90 -1.5t91 -3.5l38 -1q3 0 39 1.5t91 3t106 1.5h38q56 1 88 0.5t95 -4t106.5 -10.5t104.5 -21.5t108.5 -35.5t99 -54.5t93.5 -75.5q174 -174 174 -440q0 -152 -55 -278.5
t-139 -211.5q-200 -200 -547 -200q-126 0 -256 10q-34 2 -70 4.5t-56 4t-22 1.5q-30 0 -69 -2q-20 0 -62 -2t-57 -2q-29 0 -29 14q0 5 6 10t17 5q23 0 47 6q41 7 53 94q10 63 10 381v137h-157q-11 0 -13.5 2.5t-1.5 11.5q11 37 13 43q1 5 2.5 6.5t8 3t19.5 1.5h129zM485 641
v-8q0 -81 0.5 -167t1 -142.5t0.5 -65.5q4 -115 21 -137q51 -78 301 -78q266 0 426 160q66 66 99.5 173t33.5 234q0 82 -17 155.5t-45.5 127.5t-55.5 91t-58 67q-63 63 -133 103.5t-147.5 59t-143.5 25t-154 6.5q-25 0 -60.5 -4t-43.5 -10q-23 -11 -23 -35q-2 -59 -2 -356
v-131h353q10 0 13 -3t1 -10q-8 -39 -14 -47q-5 -8 -27 -8h-326z" />
    <glyph glyph-name="Emacron" unicode="&#x112;" horiz-adv-x="1249" 
d="M365 588v360q0 360 -5 443q-3 55 -21 80.5t-67 35.5q-6 2 -16.5 3t-23.5 1.5t-19 1.5q-27 4 -27 13q0 16 33 16q103 0 232 -6q422 0 469 2q77 3 94 12q18 9 22 9q8 0 8 -19q0 -4 -7 -33.5t-9 -62.5q-8 -117 -8 -123q-4 -35 -16 -35q-17 0 -17 27q0 40 -10 67
q-10 35 -45 52.5t-103 23.5q-52 6 -280 6q-12 0 -12 -20v-565q0 -21 12 -21q278 0 325 4q44 3 66.5 10t36.5 25q17 20 24 20q11 0 11 -16q0 -4 -3 -18.5t-7 -41t-7 -55.5q-4 -38 -6 -87.5t-2 -51.5q-3 -31 -14 -31q-15 0 -15 33q0 34 -8 58q-15 57 -106 67q-92 10 -293 10
q-14 0 -14 -14v-180q0 -18 -0.5 -105.5t-0.5 -156.5t1 -88q3 -68 17 -102t50 -48q45 -18 170 -18q122 0 184 18q48 14 70 48.5t35 103.5q5 30 18 30t13 -30q0 -14 -10 -92t-17 -107q-10 -38 -28.5 -45.5t-82.5 -7.5q-59 0 -299 6q-246 6 -256 6q-20 0 -71 -3.5t-80 -2.5
q-33 0 -33 16q0 9 23 13q40 4 47 6q36 8 53 46t20 146q5 200 5 367zM397 1825h543q11 0 15 -6.5t1 -14.5l-16 -55q-3 -12 -18 -12h-543q-12 0 -17 3t-4 11l17 61q3 13 22 13z" />
    <glyph glyph-name="emacron" unicode="&#x113;" horiz-adv-x="1110" 
d="M317 500v307q0 318 -4 373q-3 45 -19 67t-58 31q-24 4 -50 4q-10 0 -18 3.5t-8 8.5q0 17 30 17q18 0 83.5 -2.5t127.5 -3.5q375 0 416 2q61 3 80 10q18 6 23 6q8 0 8 -14q0 -3 -7.5 -32.5t-9.5 -59.5q-5 -87 -6 -107q0 -31 -14 -31t-14 23q-2 35 -15 65q-9 32 -34.5 45
t-98.5 17q-54 4 -233 4q-11 0 -11 -16v-465q0 -21 13 -21q212 0 276 6q75 3 94 31q11 16 23 16q8 0 8 -12q0 -4 -2 -18t-5.5 -39.5t-6.5 -50.5q-4 -34 -6 -79t-2 -46q-3 -23 -15 -23t-12 27q0 25 -6 49q-5 17 -12 27t-29 20.5t-58 13.5q-106 9 -245 9q-15 0 -15 -15v-149
v-279q3 -60 15 -90t43 -43q40 -18 149 -18q112 0 156 12q43 13 61 42.5t31 92.5q6 29 18 29q13 0 13 -31q0 -10 -9 -80.5t-14 -97.5q-6 -30 -22 -37.5t-68 -7.5q-75 0 -155.5 2t-108.5 2q-216 6 -242 6q-23 0 -66.5 -3t-68.5 -3q-29 0 -29 14q0 6 5.5 10.5t13.5 4.5
q20 0 41 6q31 7 46.5 39.5t18.5 121.5q4 140 4 310zM309 1589h543q11 0 15 -7t1 -15l-16 -49q-3 -13 -18 -13h-543q-11 0 -16.5 3.5t-4.5 11.5l17 57q2 12 22 12z" />
    <glyph glyph-name="Ebreve" unicode="&#x114;" horiz-adv-x="1249" 
d="M365 588v360q0 360 -5 443q-3 55 -21 80.5t-67 35.5q-6 2 -16.5 3t-23.5 1.5t-19 1.5q-27 4 -27 13q0 16 33 16q103 0 232 -6q422 0 469 2q77 3 94 12q18 9 22 9q8 0 8 -19q0 -4 -7 -33.5t-9 -62.5q-8 -117 -8 -123q-4 -35 -16 -35q-17 0 -17 27q0 40 -10 67
q-10 35 -45 52.5t-103 23.5q-52 6 -280 6q-12 0 -12 -20v-565q0 -21 12 -21q278 0 325 4q44 3 66.5 10t36.5 25q17 20 24 20q11 0 11 -16q0 -4 -3 -18.5t-7 -41t-7 -55.5q-4 -38 -6 -87.5t-2 -51.5q-3 -31 -14 -31q-15 0 -15 33q0 34 -8 58q-15 57 -106 67q-92 10 -293 10
q-14 0 -14 -14v-180q0 -18 -0.5 -105.5t-0.5 -156.5t1 -88q3 -68 17 -102t50 -48q45 -18 170 -18q122 0 184 18q48 14 70 48.5t35 103.5q5 30 18 30t13 -30q0 -14 -10 -92t-17 -107q-10 -38 -28.5 -45.5t-82.5 -7.5q-59 0 -299 6q-246 6 -256 6q-20 0 -71 -3.5t-80 -2.5
q-33 0 -33 16q0 9 23 13q40 4 47 6q36 8 53 46t20 146q5 200 5 367zM332 1855q0 11 12 21q13 15 35 33t29 18t12 -10q29 -54 101 -95.5t175 -41.5q97 0 164.5 29t126.5 94q20 22 31 22q14 0 -5 -35q-3 -6 -7 -12q-64 -82 -159 -130t-198 -48q-154 0 -256 74q-61 45 -61 81z
" />
    <glyph glyph-name="ebreve" unicode="&#x115;" horiz-adv-x="1110" 
d="M317 500v307q0 318 -4 373q-3 45 -19 67t-58 31q-24 4 -50 4q-10 0 -18 3.5t-8 8.5q0 17 30 17q18 0 83.5 -2.5t127.5 -3.5q375 0 416 2q61 3 80 10q18 6 23 6q8 0 8 -14q0 -3 -7.5 -32.5t-9.5 -59.5q-5 -87 -6 -107q0 -31 -14 -31t-14 23q-2 35 -15 65q-9 32 -34.5 45
t-98.5 17q-54 4 -233 4q-11 0 -11 -16v-465q0 -21 13 -21q212 0 276 6q75 3 94 31q11 16 23 16q8 0 8 -12q0 -4 -2 -18t-5.5 -39.5t-6.5 -50.5q-4 -34 -6 -79t-2 -46q-3 -23 -15 -23t-12 27q0 25 -6 49q-5 17 -12 27t-29 20.5t-58 13.5q-106 9 -245 9q-15 0 -15 -15v-149
v-279q3 -60 15 -90t43 -43q40 -18 149 -18q112 0 156 12q43 13 61 42.5t31 92.5q6 29 18 29q13 0 13 -31q0 -10 -9 -80.5t-14 -97.5q-6 -30 -22 -37.5t-68 -7.5q-75 0 -155.5 2t-108.5 2q-216 6 -242 6q-23 0 -66.5 -3t-68.5 -3q-29 0 -29 14q0 6 5.5 10.5t13.5 4.5
q20 0 41 6q31 7 46.5 39.5t18.5 121.5q4 140 4 310zM283 1620q0 10 10 22q12 13 32 29.5t27 16.5t10 -11q27 -48 96 -85.5t163 -37.5q92 0 153 25.5t115 85.5q18 21 29 21t-4 -29q-4 -7 -9 -15q-132 -169 -330 -169q-140 0 -243 73q-49 38 -49 74z" />
    <glyph glyph-name="Edotaccent" unicode="&#x116;" horiz-adv-x="1249" 
d="M365 588v360q0 360 -5 443q-3 55 -21 80.5t-67 35.5q-6 2 -16.5 3t-23.5 1.5t-19 1.5q-27 4 -27 13q0 16 33 16q103 0 232 -6q422 0 469 2q77 3 94 12q18 9 22 9q8 0 8 -19q0 -4 -7 -33.5t-9 -62.5q-8 -117 -8 -123q-4 -35 -16 -35q-17 0 -17 27q0 40 -10 67
q-10 35 -45 52.5t-103 23.5q-52 6 -280 6q-12 0 -12 -20v-565q0 -21 12 -21q278 0 325 4q44 3 66.5 10t36.5 25q17 20 24 20q11 0 11 -16q0 -4 -3 -18.5t-7 -41t-7 -55.5q-4 -38 -6 -87.5t-2 -51.5q-3 -31 -14 -31q-15 0 -15 33q0 34 -8 58q-15 57 -106 67q-92 10 -293 10
q-14 0 -14 -14v-180q0 -18 -0.5 -105.5t-0.5 -156.5t1 -88q3 -68 17 -102t50 -48q45 -18 170 -18q122 0 184 18q48 14 70 48.5t35 103.5q5 30 18 30t13 -30q0 -14 -10 -92t-17 -107q-10 -38 -28.5 -45.5t-82.5 -7.5q-59 0 -299 6q-246 6 -256 6q-20 0 -71 -3.5t-80 -2.5
q-33 0 -33 16q0 9 23 13q40 4 47 6q36 8 53 46t20 146q5 200 5 367zM668 1716q-40 0 -63 25.5t-23 58.5q0 32 23.5 60t62.5 28q37 0 62.5 -24.5t25.5 -61.5q0 -35 -24.5 -60.5t-63.5 -25.5z" />
    <glyph glyph-name="edotaccent" unicode="&#x117;" horiz-adv-x="1110" 
d="M317 500v307q0 318 -4 373q-3 45 -19 67t-58 31q-24 4 -50 4q-10 0 -18 3.5t-8 8.5q0 17 30 17q18 0 83.5 -2.5t127.5 -3.5q375 0 416 2q61 3 80 10q18 6 23 6q8 0 8 -14q0 -3 -7.5 -32.5t-9.5 -59.5q-5 -87 -6 -107q0 -31 -14 -31t-14 23q-2 35 -15 65q-9 32 -34.5 45
t-98.5 17q-54 4 -233 4q-11 0 -11 -16v-465q0 -21 13 -21q212 0 276 6q75 3 94 31q11 16 23 16q8 0 8 -12q0 -4 -2 -18t-5.5 -39.5t-6.5 -50.5q-4 -34 -6 -79t-2 -46q-3 -23 -15 -23t-12 27q0 25 -6 49q-5 17 -12 27t-29 20.5t-58 13.5q-106 9 -245 9q-15 0 -15 -15v-149
v-279q3 -60 15 -90t43 -43q40 -18 149 -18q112 0 156 12q43 13 61 42.5t31 92.5q6 29 18 29q13 0 13 -31q0 -10 -9 -80.5t-14 -97.5q-6 -30 -22 -37.5t-68 -7.5q-75 0 -155.5 2t-108.5 2q-216 6 -242 6q-23 0 -66.5 -3t-68.5 -3q-29 0 -29 14q0 6 5.5 10.5t13.5 4.5
q20 0 41 6q31 7 46.5 39.5t18.5 121.5q4 140 4 310zM594 1511q-40 0 -63 25.5t-23 58.5q0 32 23.5 60t62.5 28q37 0 62.5 -24.5t25.5 -61.5q0 -35 -24.5 -60.5t-63.5 -25.5z" />
    <glyph glyph-name="Eogonek" unicode="&#x118;" horiz-adv-x="1249" 
d="M537 768v-180q0 -18 -0.5 -105.5t-0.5 -156.5t1 -88q3 -68 17 -102t50 -48q45 -18 170 -18q122 0 184 18q48 14 70 48.5t35 103.5q5 30 18 30t13 -30q0 -14 -10 -92t-17 -107q-10 -37 -26.5 -45t-71.5 -8q-70 -47 -112 -107t-42 -119q0 -54 31 -81t80 -27q54 0 94 22
q29 16 29 0q0 -8 -15 -26q-68 -78 -192 -78q-75 0 -119.5 42t-44.5 105q0 71 70 144.5t170 124.5q-45 0 -261 6q-246 6 -256 6q-20 0 -71 -3.5t-80 -2.5q-33 0 -33 16q0 9 23 13q40 4 47 6q36 8 53 46t20 146q5 200 5 367v360q0 360 -5 443q-3 55 -21 80.5t-67 35.5
q-6 2 -16.5 3t-23.5 1.5t-19 1.5q-27 4 -27 13q0 16 33 16q103 0 232 -6q422 0 469 2q77 3 94 12q18 9 22 9q8 0 8 -19q0 -4 -7 -33.5t-9 -62.5q-8 -117 -8 -123q-4 -35 -16 -35q-17 0 -17 27q0 40 -10 67q-10 35 -45 52.5t-103 23.5q-52 6 -280 6q-12 0 -12 -20v-565
q0 -21 12 -21q278 0 325 4q44 3 66.5 10t36.5 25q17 20 24 20q11 0 11 -16q0 -4 -3 -18.5t-7 -41t-7 -55.5q-4 -38 -6 -87.5t-2 -51.5q-3 -31 -14 -31q-15 0 -15 33q0 34 -8 58q-15 57 -106 67q-92 10 -293 10q-14 0 -14 -14z" />
    <glyph glyph-name="eogonek" unicode="&#x119;" horiz-adv-x="1110" 
d="M485 647v-149v-279q3 -60 15 -90t43 -43q40 -18 149 -18q112 0 156 12q43 13 61 42.5t31 92.5q6 29 18 29q13 0 13 -31q0 -10 -9 -80.5t-14 -97.5q-6 -29 -21.5 -37t-62.5 -8q-71 -46 -111 -106.5t-40 -121.5q0 -55 28 -81.5t76 -26.5q54 0 94 22q29 16 29 0
q0 -9 -14 -26q-68 -78 -193 -78q-75 0 -119.5 42t-44.5 105q0 71 71.5 145t172.5 126q-57 0 -125 2t-94 2q-216 6 -242 6q-23 0 -66.5 -3t-68.5 -3q-29 0 -29 14q0 6 5.5 10.5t13.5 4.5q20 0 41 6q31 7 46.5 39.5t18.5 121.5q4 140 4 310v307q0 318 -4 373q-3 45 -19 67
t-58 31q-24 4 -50 4q-10 0 -18 3.5t-8 8.5q0 17 30 17q18 0 83.5 -2.5t127.5 -3.5q375 0 416 2q61 3 80 10q18 6 23 6q8 0 8 -14q0 -3 -7.5 -32.5t-9.5 -59.5q-5 -87 -6 -107q0 -31 -14 -31t-14 23q-2 35 -15 65q-9 32 -34.5 45t-98.5 17q-54 4 -233 4q-11 0 -11 -16v-465
q0 -21 13 -21q212 0 276 6q75 3 94 31q11 16 23 16q8 0 8 -12q0 -4 -2 -18t-5.5 -39.5t-6.5 -50.5q-4 -34 -6 -79t-2 -46q-3 -23 -15 -23t-12 27q0 25 -6 49q-5 17 -12 27t-29 20.5t-58 13.5q-106 9 -245 9q-15 0 -15 -15z" />
    <glyph glyph-name="Ecaron" unicode="&#x11a;" horiz-adv-x="1249" 
d="M365 588v360q0 360 -5 443q-3 55 -21 80.5t-67 35.5q-6 2 -16.5 3t-23.5 1.5t-19 1.5q-27 4 -27 13q0 16 33 16q103 0 232 -6q422 0 469 2q77 3 94 12q18 9 22 9q8 0 8 -19q0 -4 -7 -33.5t-9 -62.5q-8 -117 -8 -123q-4 -35 -16 -35q-17 0 -17 27q0 40 -10 67
q-10 35 -45 52.5t-103 23.5q-52 6 -280 6q-12 0 -12 -20v-565q0 -21 12 -21q278 0 325 4q44 3 66.5 10t36.5 25q17 20 24 20q11 0 11 -16q0 -4 -3 -18.5t-7 -41t-7 -55.5q-4 -38 -6 -87.5t-2 -51.5q-3 -31 -14 -31q-15 0 -15 33q0 34 -8 58q-15 57 -106 67q-92 10 -293 10
q-14 0 -14 -14v-180q0 -18 -0.5 -105.5t-0.5 -156.5t1 -88q3 -68 17 -102t50 -48q45 -18 170 -18q122 0 184 18q48 14 70 48.5t35 103.5q5 30 18 30t13 -30q0 -14 -10 -92t-17 -107q-10 -38 -28.5 -45.5t-82.5 -7.5q-59 0 -299 6q-246 6 -256 6q-20 0 -71 -3.5t-80 -2.5
q-33 0 -33 16q0 9 23 13q40 4 47 6q36 8 53 46t20 146q5 200 5 367zM666 1665q-12 0 -39 16q-5 3 -122.5 80.5t-139.5 93.5q-25 17 -25 25q0 5 10 12l66 43q12 8 22 0q39 -33 114 -85t110 -70q18 -11 24 -11q7 0 33 13q98 54 237 139q30 18 43 18t12 -9t-16 -19
q-58 -42 -163.5 -123t-129.5 -102q-30 -21 -36 -21z" />
    <glyph glyph-name="ecaron" unicode="&#x11b;" horiz-adv-x="1110" 
d="M317 500v307q0 318 -4 373q-3 45 -19 67t-58 31q-24 4 -50 4q-10 0 -18 3.5t-8 8.5q0 17 30 17q18 0 83.5 -2.5t127.5 -3.5q375 0 416 2q61 3 80 10q18 6 23 6q8 0 8 -14q0 -3 -7.5 -32.5t-9.5 -59.5q-5 -87 -6 -107q0 -31 -14 -31t-14 23q-2 35 -15 65q-9 32 -34.5 45
t-98.5 17q-54 4 -233 4q-11 0 -11 -16v-465q0 -21 13 -21q212 0 276 6q75 3 94 31q11 16 23 16q8 0 8 -12q0 -4 -2 -18t-5.5 -39.5t-6.5 -50.5q-4 -34 -6 -79t-2 -46q-3 -23 -15 -23t-12 27q0 25 -6 49q-5 17 -12 27t-29 20.5t-58 13.5q-106 9 -245 9q-15 0 -15 -15v-149
v-279q3 -60 15 -90t43 -43q40 -18 149 -18q112 0 156 12q43 13 61 42.5t31 92.5q6 29 18 29q13 0 13 -31q0 -10 -9 -80.5t-14 -97.5q-6 -30 -22 -37.5t-68 -7.5q-75 0 -155.5 2t-108.5 2q-216 6 -242 6q-23 0 -66.5 -3t-68.5 -3q-29 0 -29 14q0 6 5.5 10.5t13.5 4.5
q20 0 41 6q31 7 46.5 39.5t18.5 121.5q4 140 4 310zM588 1460q-5 0 -35 15q-7 5 -114 76.5t-126 86.5q-22 15 -22 23q0 4 6 7q2 2 4 3l72 45q12 8 20 0q35 -31 103.5 -78t99.5 -63q13 -8 25 -8q8 0 28 10q60 33 219 127q21 16 39 16q14 0 9 -10q-2 -7 -13 -14
q-52 -38 -154 -117t-126 -100q-29 -19 -35 -19z" />
    <glyph glyph-name="Gcircumflex" unicode="&#x11c;" horiz-adv-x="1765" 
d="M1509 397v-229q0 -69 -3.5 -85t-22.5 -26q-90 -48 -209.5 -70t-224.5 -22q-424 0 -674 219q-102 89 -173 246t-71 338q0 232 96.5 406t245.5 268q124 77 259 103t286 26q142 0 313 -35q70 -16 166 -20q25 -2 25 -19q0 -7 -4 -38.5t-7.5 -97t-3.5 -155.5q0 -25 -4 -34
t-14 -9q-11 0 -14 31q-5 75 -43 135q-43 66 -170.5 116t-311.5 50q-79 0 -138.5 -7t-143 -38.5t-156.5 -89.5q-92 -73 -147.5 -209t-55.5 -311q0 -102 23 -199t59 -169t70 -121t65 -79q225 -219 537 -219q159 0 233 43q41 21 41 72v348q0 124 -15 159t-77 52q-24 6 -69 6
q-17 0 -17 12q0 17 33 17q41 0 96 -1.5t94 -3t41 -1.5q3 0 41 1.5t85.5 3t74.5 1.5q33 0 33 -17q0 -12 -17 -12q-14 0 -51 -6q-40 -7 -56.5 -34t-19.5 -83q-4 -66 -4 -213zM936 1974q12 0 39 -16q8 -6 72 -48.5t120 -80t72 -49.5q25 -17 25 -25q0 -5 -11 -12l-69 -39
q-12 -8 -25 0q-38 31 -110 79t-107 66q-18 11 -22 11q-2 0 -6 -2l-12 -6t-15 -7q-166 -84 -244 -129q-32 -18 -43 -18q-12 0 -10 12q2 11 16 21q238 175 293 223q29 20 37 20z" />
    <glyph glyph-name="gcircumflex" unicode="&#x11d;" horiz-adv-x="1558" 
d="M1335 330v-185q0 -61 -3.5 -74t-20.5 -22q-78 -39 -184 -58.5t-193 -19.5q-378 0 -600 185q-94 78 -157.5 206.5t-63.5 290.5q0 198 86.5 347.5t222.5 230.5q179 104 457 104q119 0 292 -28q87 -16 156 -19q16 0 16 -16q0 -6 -3.5 -36t-7 -90.5t-3.5 -139.5
q0 -22 -3 -29.5t-13 -7.5q-11 0 -15 24q0 22 -9 60t-29 67q-40 57 -152.5 100.5t-271.5 43.5q-71 0 -119.5 -4.5t-121 -30.5t-136.5 -74q-80 -61 -126 -175t-46 -263q0 -86 21 -168.5t53 -143t60 -100.5t52 -63q197 -191 465 -191q129 0 195 35q34 20 34 61v295
q0 103 -14.5 134t-67.5 38q-24 4 -49 4q-11 0 -17.5 5t-6.5 10q0 14 30 14q36 0 86 -1t86 -2t37 -1q2 0 37 1t79.5 2t68.5 1q28 0 28 -14q0 -15 -24 -15q-19 0 -35 -2q-35 -4 -49 -29t-17 -73q-4 -59 -4 -184zM815 1737q5 0 35 -15q2 -2 112 -76.5t130 -89.5q22 -15 22 -22
q0 -4 -6 -7q-2 -2 -4 -3l-72 -45q-12 -8 -20 0q-35 31 -102.5 77t-98.5 62q-13 8 -25 8q-8 0 -28 -10q-60 -33 -219 -127q-26 -16 -39 -16q-14 0 -9 10q2 7 13 14q130 97 276 221q28 19 35 19z" />
    <glyph glyph-name="Gbreve" unicode="&#x11e;" horiz-adv-x="1765" 
d="M1509 397v-229q0 -69 -3.5 -85t-22.5 -26q-90 -48 -209.5 -70t-224.5 -22q-424 0 -674 219q-102 89 -173 246t-71 338q0 232 96.5 406t245.5 268q124 77 259 103t286 26q142 0 313 -35q70 -16 166 -20q25 -2 25 -19q0 -7 -4 -38.5t-7.5 -97t-3.5 -155.5q0 -25 -4 -34
t-14 -9q-11 0 -14 31q-5 75 -43 135q-43 66 -170.5 116t-311.5 50q-79 0 -138.5 -7t-143 -38.5t-156.5 -89.5q-92 -73 -147.5 -209t-55.5 -311q0 -102 23 -199t59 -169t70 -121t65 -79q225 -219 537 -219q159 0 233 43q41 21 41 72v348q0 124 -15 159t-77 52q-24 6 -69 6
q-17 0 -17 12q0 17 33 17q41 0 96 -1.5t94 -3t41 -1.5q3 0 41 1.5t85.5 3t74.5 1.5q33 0 33 -17q0 -12 -17 -12q-14 0 -51 -6q-40 -7 -56.5 -34t-19.5 -83q-4 -66 -4 -213zM598 1896q0 11 12 21q13 15 35 33t29 18t12 -10q29 -54 101.5 -95.5t175.5 -41.5q97 0 164 29
t126 94q20 22 31 22q14 0 -5 -35q-3 -6 -7 -12q-64 -82 -159 -130t-198 -48q-154 0 -256 74q-61 45 -61 81z" />
    <glyph glyph-name="gbreve" unicode="&#x11f;" horiz-adv-x="1558" 
d="M1335 330v-185q0 -61 -3.5 -74t-20.5 -22q-78 -39 -184 -58.5t-193 -19.5q-378 0 -600 185q-94 78 -157.5 206.5t-63.5 290.5q0 198 86.5 347.5t222.5 230.5q179 104 457 104q119 0 292 -28q87 -16 156 -19q16 0 16 -16q0 -6 -3.5 -36t-7 -90.5t-3.5 -139.5
q0 -22 -3 -29.5t-13 -7.5q-11 0 -15 24q0 22 -9 60t-29 67q-40 57 -152.5 100.5t-271.5 43.5q-71 0 -119.5 -4.5t-121 -30.5t-136.5 -74q-80 -61 -126 -175t-46 -263q0 -86 21 -168.5t53 -143t60 -100.5t52 -63q197 -191 465 -191q129 0 195 35q34 20 34 61v295
q0 103 -14.5 134t-67.5 38q-24 4 -49 4q-11 0 -17.5 5t-6.5 10q0 14 30 14q36 0 86 -1t86 -2t37 -1q2 0 37 1t79.5 2t68.5 1q28 0 28 -14q0 -15 -24 -15q-19 0 -35 -2q-35 -4 -49 -29t-17 -73q-4 -59 -4 -184zM479 1645q0 9 10 22q11 13 32 29t28 16t10 -10
q27 -48 95.5 -85.5t162.5 -37.5q92 0 153 25.5t115 85.5q17 20 29 20q11 0 -2 -26q-4 -9 -10 -17q-133 -170 -330 -170q-140 0 -244 74q-49 38 -49 74z" />
    <glyph glyph-name="Gdotaccent" unicode="&#x120;" horiz-adv-x="1765" 
d="M1509 397v-229q0 -69 -3.5 -85t-22.5 -26q-90 -48 -209.5 -70t-224.5 -22q-424 0 -674 219q-102 89 -173 246t-71 338q0 232 96.5 406t245.5 268q124 77 259 103t286 26q142 0 313 -35q70 -16 166 -20q25 -2 25 -19q0 -7 -4 -38.5t-7.5 -97t-3.5 -155.5q0 -25 -4 -34
t-14 -9q-11 0 -14 31q-5 75 -43 135q-43 66 -170.5 116t-311.5 50q-79 0 -138.5 -7t-143 -38.5t-156.5 -89.5q-92 -73 -147.5 -209t-55.5 -311q0 -102 23 -199t59 -169t70 -121t65 -79q225 -219 537 -219q159 0 233 43q41 21 41 72v348q0 124 -15 159t-77 52q-24 6 -69 6
q-17 0 -17 12q0 17 33 17q41 0 96 -1.5t94 -3t41 -1.5q3 0 41 1.5t85.5 3t74.5 1.5q33 0 33 -17q0 -12 -17 -12q-14 0 -51 -6q-40 -7 -56.5 -34t-19.5 -83q-4 -66 -4 -213zM940 1716q-40 0 -63 25.5t-23 58.5q0 32 23.5 60t62.5 28q37 0 62.5 -24.5t25.5 -61.5
q0 -35 -24.5 -60.5t-63.5 -25.5z" />
    <glyph glyph-name="gdotaccent" unicode="&#x121;" horiz-adv-x="1558" 
d="M1335 330v-185q0 -61 -3.5 -74t-20.5 -22q-78 -39 -184 -58.5t-193 -19.5q-378 0 -600 185q-94 78 -157.5 206.5t-63.5 290.5q0 198 86.5 347.5t222.5 230.5q179 104 457 104q119 0 292 -28q87 -16 156 -19q16 0 16 -16q0 -6 -3.5 -36t-7 -90.5t-3.5 -139.5
q0 -22 -3 -29.5t-13 -7.5q-11 0 -15 24q0 22 -9 60t-29 67q-40 57 -152.5 100.5t-271.5 43.5q-71 0 -119.5 -4.5t-121 -30.5t-136.5 -74q-80 -61 -126 -175t-46 -263q0 -86 21 -168.5t53 -143t60 -100.5t52 -63q197 -191 465 -191q129 0 195 35q34 20 34 61v295
q0 103 -14.5 134t-67.5 38q-24 4 -49 4q-11 0 -17.5 5t-6.5 10q0 14 30 14q36 0 86 -1t86 -2t37 -1q2 0 37 1t79.5 2t68.5 1q28 0 28 -14q0 -15 -24 -15q-19 0 -35 -2q-35 -4 -49 -29t-17 -73q-4 -59 -4 -184zM817 1532q-40 0 -63 25.5t-23 58.5q0 32 23.5 60t62.5 28
q37 0 62.5 -24.5t25.5 -61.5q0 -35 -24.5 -60.5t-63.5 -25.5z" />
    <glyph glyph-name="uni0122" unicode="&#x122;" horiz-adv-x="1765" 
d="M1509 397v-229q0 -69 -3.5 -85t-22.5 -26q-90 -48 -209.5 -70t-224.5 -22q-424 0 -674 219q-102 89 -173 246t-71 338q0 232 96.5 406t245.5 268q124 77 259 103t286 26q142 0 313 -35q70 -16 166 -20q25 -2 25 -19q0 -7 -4 -38.5t-7.5 -97t-3.5 -155.5q0 -25 -4 -34
t-14 -9q-11 0 -14 31q-5 75 -43 135q-43 66 -170.5 116t-311.5 50q-79 0 -138.5 -7t-143 -38.5t-156.5 -89.5q-92 -73 -147.5 -209t-55.5 -311q0 -102 23 -199t59 -169t70 -121t65 -79q225 -219 537 -219q159 0 233 43q41 21 41 72v348q0 124 -15 159t-77 52q-24 6 -69 6
q-17 0 -17 12q0 17 33 17q41 0 96 -1.5t94 -3t41 -1.5q3 0 41 1.5t85.5 3t74.5 1.5q33 0 33 -17q0 -12 -17 -12q-14 0 -51 -6q-40 -7 -56.5 -34t-19.5 -83q-4 -66 -4 -213zM854 -229q0 18 46.5 58t90.5 40q23 0 44.5 -36t21.5 -87q0 -60 -39 -132t-121 -134q-52 -37 -55 -15
q0 11 14 25q51 50 67.5 85.5t16.5 74.5q0 31 -19 54.5t-59 49.5q-8 5 -8 17z" />
    <glyph glyph-name="uni0123" unicode="&#x123;" horiz-adv-x="1558" 
d="M1335 330v-185q0 -61 -3.5 -74t-20.5 -22q-78 -39 -184 -58.5t-193 -19.5q-378 0 -600 185q-94 78 -157.5 206.5t-63.5 290.5q0 198 86.5 347.5t222.5 230.5q179 104 457 104q119 0 292 -28q87 -16 156 -19q16 0 16 -16q0 -6 -3.5 -36t-7 -90.5t-3.5 -139.5
q0 -22 -3 -29.5t-13 -7.5q-11 0 -15 24q0 22 -9 60t-29 67q-40 57 -152.5 100.5t-271.5 43.5q-71 0 -119.5 -4.5t-121 -30.5t-136.5 -74q-80 -61 -126 -175t-46 -263q0 -86 21 -168.5t53 -143t60 -100.5t52 -63q197 -191 465 -191q129 0 195 35q34 20 34 61v295
q0 103 -14.5 134t-67.5 38q-24 4 -49 4q-11 0 -17.5 5t-6.5 10q0 14 30 14q36 0 86 -1t86 -2t37 -1q2 0 37 1t79.5 2t68.5 1q28 0 28 -14q0 -15 -24 -15q-19 0 -35 -2q-35 -4 -49 -29t-17 -73q-4 -59 -4 -184zM799 -240q0 18 46.5 58.5t90.5 40.5q23 0 44 -36t21 -87
q0 -60 -38.5 -132t-120.5 -134q-48 -37 -55 -19q-1 1 -1 4q0 10 15 25q51 50 67.5 85.5t16.5 74.5q0 31 -19 54.5t-59 49.5q-8 5 -8 16z" />
    <glyph glyph-name="Hcircumflex" unicode="&#x124;" horiz-adv-x="1961" 
d="M549 893h868q13 0 13 12v43q0 360 -5 443q-3 55 -21 80.5t-67 35.5q-24 6 -69 6q-17 0 -17 13q0 16 33 16q41 0 96 -1.5t94.5 -3t41.5 -1.5q3 0 40.5 1.5t85 3t74.5 1.5q33 0 33 -16q0 -13 -16 -13q-15 0 -52 -6q-40 -7 -56 -33.5t-19 -82.5q-4 -66 -4 -443v-360
q0 -359 10 -445q5 -51 21.5 -78.5t58.5 -33.5q58 -8 92 -8q16 0 16 -13q0 -16 -33 -16q-50 0 -110 1.5t-100 3t-41 1.5q-3 0 -41 -1.5t-85.5 -3t-74.5 -1.5q-33 0 -33 16q0 13 16 13q26 0 62 8q28 5 40 32.5t19 79.5q11 95 11 445v215q0 12 -13 12h-868q-12 0 -12 -12v-215
q0 -359 10 -445q5 -51 21.5 -78.5t58.5 -33.5q58 -8 92 -8q16 0 16 -13q0 -16 -33 -16q-50 0 -110 1.5t-100 3t-41 1.5q-3 0 -41 -1.5t-85.5 -3t-74.5 -1.5q-33 0 -33 16q0 13 16 13q26 0 62 8q28 5 40 32.5t19 79.5q11 95 11 445v360q0 360 -5 443q-3 55 -21 80.5t-67 35.5
q-24 6 -69 6q-17 0 -17 13q0 16 33 16q41 0 96 -1.5t94.5 -3t41.5 -1.5q3 0 40.5 1.5t85 3t74.5 1.5q33 0 33 -16q0 -13 -16 -13q-14 0 -52 -6q-40 -7 -56 -33.5t-19 -82.5q-4 -66 -4 -443v-43q0 -12 12 -12zM995 1968q12 0 39 -16q8 -6 72 -48.5t120 -80t72 -49.5
q25 -17 25 -25q0 -5 -10 -12l-70 -39q-12 -8 -24 0q-37 30 -110 78t-108 67q-17 10 -22 10q-1 0 -33 -14q-166 -84 -244 -129q-32 -18 -43 -18q-12 0 -9 12q2 10 16 20q62 46 166.5 126t125.5 98q29 20 37 20z" />
    <glyph glyph-name="hcircumflex" unicode="&#x125;" horiz-adv-x="1732" 
d="M498 762h741q12 0 12 10v37q0 318 -4 373q-3 46 -18 67t-62 29q-28 4 -51 4q-24 0 -24 14q0 15 28 15q38 0 89.5 -1.5t88 -3t37.5 -1.5q2 0 36 1.5t78 3t71 1.5q32 0 32 -15q0 -14 -22 -14q-17 0 -41 -4q-38 -6 -51.5 -28t-16.5 -70q-2 -55 -2 -373v-307q0 -301 8 -375
q5 -44 19.5 -68t50.5 -28q41 -6 72 -6q26 0 26 -15q0 -14 -30 -14q-45 0 -100.5 1.5t-92.5 3t-39 1.5t-36.5 -1.5t-78 -3t-67.5 -1.5q-31 0 -31 16q0 13 23 13q31 0 47 4q24 4 35 29.5t16 68.5q10 74 10 369v182q0 12 -12 12h-743q-11 0 -11 -12v-182q0 -292 11 -373
q4 -27 9 -43.5t20 -31t40 -17.5q41 -6 74 -6q10 0 17.5 -4.5t7.5 -10.5q0 -14 -27 -14q-46 0 -102 1.5t-94 3t-40 1.5q-1 0 -36.5 -1.5t-80 -3t-67.5 -1.5q-33 0 -33 14q0 15 23 15q25 0 49 6q13 3 22.5 11t15 21.5t8 26.5t5.5 33q10 62 10 379v303q0 324 -4 379
q-3 45 -19.5 69.5t-57.5 28.5q-36 4 -56 4q-22 0 -22 12q0 15 30 15q52 0 129.5 -3t83.5 -3q2 0 36.5 1.5t79 3t69.5 1.5q30 0 30 -15q0 -12 -20 -12q-18 0 -41 -4q-36 -6 -50.5 -29.5t-17.5 -70.5q-2 -55 -2 -371v-37q0 -10 13 -10zM887 1737q5 0 35 -15q10 -7 66.5 -45.5
t108 -74t66.5 -46.5q23 -16 23 -22q0 -4 -6 -7q-2 -2 -4 -3l-72 -45q-13 -8 -21 0q-35 31 -102 77t-98 62q-13 8 -25 8q-9 0 -29 -10q-60 -33 -219 -127q-26 -16 -39 -16q-14 0 -9 10q2 7 13 14q49 36 149 116.5t128 104.5q28 19 35 19z" />
    <glyph glyph-name="Hbar" unicode="&#x126;" horiz-adv-x="1966" 
d="M1602 948v-360q0 -359 10 -445q5 -51 21.5 -78.5t58.5 -33.5q58 -8 92 -8q16 0 16 -13q0 -16 -33 -16q-50 0 -110 1.5t-100 3t-41 1.5q-3 0 -41 -1.5t-85.5 -3t-74.5 -1.5q-33 0 -33 16q0 13 16 13q26 0 62 8q28 5 40 32.5t19 79.5q11 95 11 445v174q0 12 -13 12h-868
q-12 0 -12 -12v-174q0 -359 10 -445q5 -51 21.5 -78.5t58.5 -33.5q58 -8 92 -8q16 0 16 -13q0 -16 -33 -16q-50 0 -110 1.5t-100 3t-41 1.5q-3 0 -41 -1.5t-85.5 -3t-74.5 -1.5q-33 0 -33 16q0 13 16 13q26 0 62 8q28 5 40 32.5t19 79.5q11 95 11 445v360v164h-129
q-29 0 -42.5 1t-17 2.5t-4.5 4.5q-2 6 4 28t10 26q6 6 60 6h119q0 98 -5 211q-3 55 -21 80.5t-67 35.5q-24 6 -69 6q-17 0 -17 13q0 16 33 16q41 0 96 -1.5t94.5 -3t41.5 -1.5q3 0 40.5 1.5t85 3t74.5 1.5q33 0 33 -16q0 -13 -16 -13q-14 0 -52 -6q-40 -7 -56 -33.5
t-19 -82.5q-4 -90 -4 -211h893q0 98 -5 211q-3 55 -21 80.5t-67 35.5q-24 6 -69 6q-17 0 -17 13q0 16 33 16q41 0 96 -1.5t94.5 -3t41.5 -1.5q3 0 40.5 1.5t85 3t74.5 1.5q33 0 33 -16q0 -13 -16 -13q-15 0 -52 -6q-40 -7 -56 -33.5t-19 -82.5q-4 -90 -4 -211h139
q56 0 59 -6q3 -7 -0.5 -26t-9.5 -30q-4 -6 -33 -6h-155v-164zM1430 864v84v164h-893v-164v-84q0 -12 12 -12h868q13 0 13 12z" />
    <glyph glyph-name="hbar" unicode="&#x127;" horiz-adv-x="1732" 
d="M1419 807v-307q0 -301 8 -375q5 -44 19.5 -68t50.5 -28q41 -6 72 -6q26 0 26 -15q0 -14 -30 -14q-45 0 -100.5 1.5t-92.5 3t-39 1.5t-36.5 -1.5t-78 -3t-67.5 -1.5q-31 0 -31 16q0 13 23 13q31 0 47 4q24 4 35 29.5t16 68.5q10 74 10 369v145q0 12 -12 12h-743
q-11 0 -11 -12v-145q0 -292 11 -373q4 -27 9 -43.5t20 -31t40 -17.5q41 -6 74 -6q10 0 17.5 -4.5t7.5 -10.5q0 -14 -27 -14q-46 0 -102 1.5t-94 3t-40 1.5q-1 0 -36.5 -1.5t-80 -3t-67.5 -1.5q-33 0 -33 14q0 15 23 15q25 0 49 6q13 3 22.5 11t15 21.5t8 26.5t5.5 33
q10 62 10 379v303v143h-98q-45 0 -45 8q0 5 3.5 22t6.5 21q4 7 47 7h86q0 104 -4 178q-3 45 -19.5 69.5t-57.5 28.5q-36 4 -56 4q-22 0 -22 12q0 15 30 15q52 0 129.5 -3t83.5 -3q2 0 36.5 1.5t79 3t69.5 1.5q30 0 30 -15q0 -12 -20 -12q-18 0 -41 -4q-36 -6 -50.5 -29.5
t-17.5 -70.5q-2 -39 -2 -176h766q0 100 -4 178q-3 46 -18 67t-62 29q-28 4 -51 4q-24 0 -24 14q0 15 28 15q38 0 89.5 -1.5t88 -3t37.5 -1.5q2 0 36 1.5t78 3t71 1.5q32 0 32 -15q0 -14 -22 -14q-17 0 -41 -4q-38 -6 -51.5 -28t-16.5 -70q-2 -37 -2 -176h90q31 0 38 -1t9 -6
q2 -6 -2 -23.5t-8 -21.5q-3 -6 -28 -6h-99v-139zM1251 735v74v137h-766v-137v-74q0 -10 13 -10h741q12 0 12 10z" />
    <glyph glyph-name="Itilde" unicode="&#x128;" horiz-adv-x="901" 
d="M365 588v360q0 360 -5 443q-3 53 -19 80t-50 34q-31 8 -64 8q-16 0 -16 13q0 16 33 16q30 0 79 -1.5t87 -3t41 -1.5t40.5 1.5t85 3t74.5 1.5q33 0 33 -16q0 -13 -16 -13q-14 0 -52 -6q-40 -7 -56 -33.5t-19 -82.5q-4 -66 -4 -443v-360q0 -359 10 -445q5 -51 21.5 -78.5
t58.5 -33.5q58 -8 84 -8q24 0 24 -13q0 -16 -30 -16q-50 0 -110.5 1.5t-101.5 3t-42 1.5q-3 0 -41 -1.5t-85.5 -3t-74.5 -1.5q-33 0 -33 16q0 13 23 13q26 0 53 6q28 6 41 34t20 80q11 95 11 445zM594 1694q-43 0 -162.5 46t-167.5 46q-44 0 -74.5 -15t-58.5 -49
q-18 -20 -31 -20q-3 0 -5 3.5t-0.5 11t7.5 16.5q43 69 96.5 109t104.5 40q58 0 186 -51q93 -37 140 -37q50 0 81 15.5t70 58.5q15 18 25 18q20 0 2 -31q-104 -161 -213 -161z" />
    <glyph glyph-name="itilde" unicode="&#x129;" horiz-adv-x="802" 
d="M317 500v307q0 320 -4 375q-3 44 -15.5 66t-43.5 28q-11 2 -27 3.5t-20 2.5q-23 3 -23 14q0 15 31 15q28 0 73 -1.5t78.5 -3t34.5 -1.5q2 0 36.5 1.5t79 3t69.5 1.5q30 0 30 -15q0 -11 -22 -14q-6 -1 -18 -2t-19 -2q-41 -6 -54 -27t-16 -71q-2 -28 -2 -373v-307
q0 -308 9 -375q6 -48 18.5 -66.5t50.5 -27.5q36 -8 78 -8q23 -3 23 -15q0 -14 -29 -14q-46 0 -101.5 1.5t-93 3t-39.5 1.5q-1 0 -35.5 -1.5t-79 -3t-69.5 -1.5q-33 0 -33 14q0 15 27 15q25 0 49 6q13 3 21.5 11t13.5 23.5t7 28t5 35.5q10 74 10 373zM545 1479q-41 0 -151 44
t-154 44q-40 0 -68 -14t-57 -46q-14 -18 -27 -18q-3 0 -5 3.5t-0.5 10.5t7.5 15q42 65 90.5 103t93.5 38q62 0 179 -47q87 -35 125 -35q44 0 75 16t68 54q13 16 22 16q6 0 7 -9t-5 -18q-98 -157 -200 -157z" />
    <glyph glyph-name="Imacron" unicode="&#x12a;" horiz-adv-x="901" 
d="M365 588v360q0 360 -5 443q-3 53 -19 80t-50 34q-31 8 -64 8q-16 0 -16 13q0 16 33 16q30 0 79 -1.5t87 -3t41 -1.5t40.5 1.5t85 3t74.5 1.5q33 0 33 -16q0 -13 -16 -13q-14 0 -52 -6q-40 -7 -56 -33.5t-19 -82.5q-4 -66 -4 -443v-360q0 -359 10 -445q5 -51 21.5 -78.5
t58.5 -33.5q58 -8 84 -8q24 0 24 -13q0 -16 -30 -16q-50 0 -110.5 1.5t-101.5 3t-42 1.5q-3 0 -41 -1.5t-85.5 -3t-74.5 -1.5q-33 0 -33 16q0 13 23 13q26 0 53 6q28 6 41 34t20 80q11 95 11 445zM193 1815h542q11 0 15.5 -6.5t1.5 -14.5l-17 -55q-3 -13 -18 -13h-543
q-11 0 -16 3t-4 12l16 61q3 13 23 13z" />
    <glyph glyph-name="imacron" unicode="&#x12b;" horiz-adv-x="802" 
d="M317 500v307q0 320 -4 375q-3 44 -15.5 66t-43.5 28q-11 2 -27 3.5t-20 2.5q-23 3 -23 14q0 15 31 15q28 0 73 -1.5t78.5 -3t34.5 -1.5q2 0 36.5 1.5t79 3t69.5 1.5q30 0 30 -15q0 -11 -22 -14q-6 -1 -18 -2t-19 -2q-41 -6 -54 -27t-16 -71q-2 -28 -2 -373v-307
q0 -308 9 -375q6 -48 18.5 -66.5t50.5 -27.5q36 -8 78 -8q23 -3 23 -15q0 -14 -29 -14q-46 0 -101.5 1.5t-93 3t-39.5 1.5q-1 0 -35.5 -1.5t-79 -3t-69.5 -1.5q-33 0 -33 14q0 15 27 15q25 0 49 6q13 3 21.5 11t13.5 23.5t7 28t5 35.5q10 74 10 373zM139 1593h543
q11 0 15 -7t1 -15l-16 -49q-3 -13 -18 -13h-543q-12 0 -17 3.5t-4 11.5l17 57q2 12 22 12z" />
    <glyph glyph-name="Iogonek" unicode="&#x12e;" horiz-adv-x="901" 
d="M537 948v-360q0 -359 10 -445q5 -51 21.5 -78.5t58.5 -33.5q58 -8 84 -8q24 0 24 -13q0 -16 -30 -16q-95 0 -197 4q-90 -110 -90 -227q0 -53 32 -82t80 -29q54 0 105 35q24 15 24 0q0 -8 -14 -27q-25 -36 -81.5 -66t-119.5 -30q-76 0 -117.5 42.5t-41.5 106.5
q0 72 54 148t126 131h-14q-3 0 -41 -1.5t-85.5 -3t-74.5 -1.5q-33 0 -33 16q0 13 23 13q26 0 53 6q28 6 41 34t20 80q11 95 11 445v360q0 360 -5 443q-3 53 -19 80t-50 34q-31 8 -64 8q-16 0 -16 13q0 16 33 16q30 0 79 -1.5t87 -3t41 -1.5t40.5 1.5t85 3t74.5 1.5
q33 0 33 -16q0 -13 -16 -13q-14 0 -52 -6q-40 -7 -56 -33.5t-19 -82.5q-4 -66 -4 -443z" />
    <glyph glyph-name="iogonek" unicode="&#x12f;" horiz-adv-x="802" 
d="M485 807v-307q0 -308 9 -375q6 -48 18.5 -66.5t50.5 -27.5q36 -8 78 -8q23 -3 23 -15q0 -14 -29 -14h-80q-74 -46 -117 -108t-43 -124q0 -55 28.5 -81.5t76.5 -26.5q54 0 94 22q29 16 29 0q0 -8 -15 -26q-68 -78 -192 -78q-75 0 -119.5 42t-44.5 105q0 73 75 149t181 128
q-24 1 -50.5 2t-40 1.5t-16.5 0.5q-1 0 -35.5 -1.5t-79 -3t-69.5 -1.5q-33 0 -33 14q0 15 27 15q25 0 49 6q13 3 21.5 11t13.5 23.5t7 28t5 35.5q10 74 10 373v307q0 320 -4 375q-3 44 -15.5 66t-43.5 28q-11 2 -27 3.5t-20 2.5q-23 3 -23 14q0 15 31 15q28 0 73 -1.5
t78.5 -3t34.5 -1.5q2 0 36.5 1.5t79 3t69.5 1.5q30 0 30 -15q0 -11 -22 -14q-6 -1 -18 -2t-19 -2q-41 -6 -54 -27t-16 -71q-2 -28 -2 -373z" />
    <glyph glyph-name="Idotaccent" unicode="&#x130;" horiz-adv-x="901" 
d="M365 588v360q0 360 -5 443q-3 53 -19 80t-50 34q-31 8 -64 8q-16 0 -16 13q0 16 33 16q30 0 79 -1.5t87 -3t41 -1.5t40.5 1.5t85 3t74.5 1.5q33 0 33 -16q0 -13 -16 -13q-14 0 -52 -6q-40 -7 -56 -33.5t-19 -82.5q-4 -66 -4 -443v-360q0 -359 10 -445q5 -51 21.5 -78.5
t58.5 -33.5q58 -8 84 -8q24 0 24 -13q0 -16 -30 -16q-50 0 -110.5 1.5t-101.5 3t-42 1.5q-3 0 -41 -1.5t-85.5 -3t-74.5 -1.5q-33 0 -33 16q0 13 23 13q26 0 53 6q28 6 41 34t20 80q11 95 11 445zM449 1716q-40 0 -63.5 25.5t-23.5 58.5q0 32 24 60t63 28q37 0 62.5 -24.5
t25.5 -61.5q0 -35 -24.5 -60.5t-63.5 -25.5z" />
    <glyph glyph-name="dotlessi" unicode="&#x131;" horiz-adv-x="802" 
d="M317 500v307q0 320 -4 375q-3 44 -15.5 66t-43.5 28q-11 2 -27 3.5t-20 2.5q-23 3 -23 14q0 15 31 15q28 0 73 -1.5t78.5 -3t34.5 -1.5q2 0 36.5 1.5t79 3t69.5 1.5q30 0 30 -15q0 -11 -22 -14q-6 -1 -18 -2t-19 -2q-41 -6 -54 -27t-16 -71q-2 -28 -2 -373v-307
q0 -308 9 -375q6 -48 18.5 -66.5t50.5 -27.5q36 -8 78 -8q23 -3 23 -15q0 -14 -29 -14q-46 0 -101.5 1.5t-93 3t-39.5 1.5q-1 0 -35.5 -1.5t-79 -3t-69.5 -1.5q-33 0 -33 14q0 15 27 15q25 0 49 6q13 3 21.5 11t13.5 23.5t7 28t5 35.5q10 74 10 373z" />
    <glyph glyph-name="Jcircumflex" unicode="&#x134;" horiz-adv-x="847" 
d="M537 948v-491q0 -278 -9.5 -390.5t-52.5 -213.5q-33 -77 -104.5 -153t-194.5 -161q-66 -44 -80 -51q-8 -4 -14 -4q-14 0 -14 12t28 31q34 19 72 57q57 58 88 105t59 131.5t39 212.5t11 323v592q0 360 -5 443q-3 55 -21 80.5t-67 35.5q-24 6 -63 6q-23 0 -23 15
q0 14 31 14q41 0 96.5 -1.5t95.5 -3t42 -1.5q3 0 40.5 1.5t85 3t74.5 1.5q33 0 33 -16q0 -13 -22 -13q-14 0 -50 -4q-39 -4 -53.5 -31.5t-17.5 -86.5q-4 -66 -4 -443zM455 1935q12 0 39 -16q8 -6 72 -48.5t120 -80t72 -49.5q24 -17 24 -25q0 -5 -10 -12l-70 -39
q-12 -8 -24 0q-38 31 -110 79t-107 66q-18 11 -23 11q-2 0 -5.5 -2t-11.5 -6t-15 -7q-166 -84 -244 -129q-32 -18 -43 -18q-12 0 -10 12q2 11 16 21q238 175 293 223q29 20 37 20z" />
    <glyph glyph-name="jcircumflex" unicode="&#x135;" horiz-adv-x="761" 
d="M487 807v-391q0 -185 -1.5 -252t-13.5 -146t-40 -143q-28 -67 -93.5 -132t-184.5 -144q-11 -6 -36.5 -22.5t-35.5 -20.5q-2 -2 -12 -2q-15 0 -15 10q0 4 2.5 8t5.5 6t9 5.5t10 6.5q28 14 57 43q53 51 81.5 90.5t55 113t36.5 185.5t10 285v500q0 304 -5 373
q-3 43 -20.5 65.5t-58.5 32.5q-24 4 -62 4q-5 0 -9.5 4t-4.5 8q0 17 31 17q38 0 88.5 -1.5t86.5 -3.5l35 -1q2 0 37 1.5t80 3t70 1.5q28 0 28 -17q0 -4 -4.5 -8t-7.5 -4q-1 0 -47 -4q-34 -7 -49 -30.5t-18 -69.5q-5 -69 -5 -371zM410 1714q6 0 34 -14q2 -2 112 -76.5
t130 -89.5q23 -16 23 -23q0 -3 -1 -4.5t-4.5 -3t-5.5 -2.5l-71 -45q-13 -8 -21 0q-35 31 -102 77t-98 62q-15 9 -25 9q-7 0 -29 -11q-60 -33 -219 -127q-26 -16 -39 -16t-10 10q3 7 14 15q49 36 149 116.5t128 104.5q27 18 35 18z" />
    <glyph glyph-name="uni0136" unicode="&#x136;" horiz-adv-x="1583" 
d="M528 948v-131q28 27 113.5 116t198.5 206t155 161q85 88 108 120t23 53q0 28 -26 38q-19 8 -19 19q0 12 31 12q28 0 57.5 -3t65.5 -3q35 0 119.5 3t97.5 3q35 0 35 -14q0 -12 -23 -15q-61 -6 -104 -24q-41 -16 -83.5 -47.5t-129.5 -116.5q-374 -362 -467 -465
q94 -102 308.5 -321t289.5 -289q125 -117 194.5 -162t143.5 -59q27 -6 59 -6q29 0 29 -15q0 -14 -31 -14h-151q-129 0 -188 19t-134 79q-88 68 -308 301.5t-364 405.5v-211q0 -350 11 -445q5 -52 21 -79t58 -33q58 -8 82 -8q25 0 25 -15q0 -14 -31 -14q-50 0 -110 1.5
t-100.5 3t-41.5 1.5q-3 0 -38.5 -1.5t-81 -3t-72.5 -1.5q-33 0 -33 14q0 15 23 15q26 0 53 6q28 6 41 34t20 80q11 95 11 445v360q0 360 -5 443q-3 53 -19 80t-50 34q-31 8 -74 8q-22 0 -22 13q0 16 32 16q30 0 81 -1.5t91 -3t43 -1.5t41 1.5t85.5 3t74.5 1.5q33 0 33 -14
q0 -12 -23 -15q-38 -3 -45 -4q-40 -4 -56.5 -32.5t-19.5 -85.5q-4 -66 -4 -443zM915 -141q23 0 44.5 -36t21.5 -87q0 -60 -39 -132t-121 -134q-52 -37 -55 -15q0 11 14 25q51 50 67.5 85.5t16.5 74.5q0 31 -19 54.5t-59 49.5q-8 5 -8 16q0 18 46.5 58.5t90.5 40.5z" />
    <glyph glyph-name="uni0137" unicode="&#x137;" horiz-adv-x="1409" 
d="M485 807v-96q80 71 213 199t197 198q75 84 90.5 104t15.5 37q0 23 -32 33q-23 7 -23 16q0 13 21 13q3 0 24.5 -1.5t53.5 -3t61 -1.5q35 0 113.5 3t87.5 3q32 0 32 -13t-22 -16q-59 -4 -100 -20q-35 -11 -67 -35.5t-116 -100.5q-85 -77 -235.5 -219.5t-182.5 -171.5
q85 -88 275.5 -275.5t253.5 -244.5q103 -94 166.5 -133t128.5 -53q11 -2 47 -6q29 -3 29 -17q0 -12 -33 -12h-133q-114 0 -165.5 15t-117.5 61q-68 49 -263 248t-319 344v-162q0 -308 9 -375q6 -48 18.5 -66.5t50.5 -27.5q36 -8 78 -8q23 -3 23 -15q0 -14 -29 -14
q-46 0 -101.5 1.5t-93 3t-39.5 1.5q-1 0 -35.5 -1.5t-79 -3t-69.5 -1.5q-33 0 -33 14q0 15 27 15q25 0 49 6q13 3 21.5 11t13.5 23.5t7 28t5 35.5q10 74 10 373v307q0 320 -4 375q-3 44 -15.5 66t-43.5 28q-11 2 -27 3.5t-20 2.5q-23 3 -23 14q0 15 31 15q28 0 73 -1.5
t78.5 -3t34.5 -1.5q2 0 36.5 1.5t79 3t69.5 1.5q30 0 30 -15q0 -11 -22 -14q-6 -1 -18 -2t-19 -2q-41 -6 -54 -27t-16 -71q-2 -28 -2 -373zM881 -141q23 0 44 -36t21 -87q0 -60 -39 -132t-121 -134q-52 -37 -55 -15q0 11 14 25q51 50 67.5 85.5t16.5 74.5q0 31 -19 54.5
t-58 49.5q-9 6 -9 16q0 18 47 58.5t91 40.5z" />
    <glyph glyph-name="kgreenlandic" unicode="&#x138;" horiz-adv-x="1409" 
d="M485 807v-96q80 71 213 199t197 198q75 84 90.5 104t15.5 37q0 23 -32 33q-23 7 -23 16q0 13 21 13q3 0 24.5 -1.5t53.5 -3t61 -1.5q35 0 113.5 3t87.5 3q32 0 32 -13t-22 -16q-59 -4 -100 -20q-35 -11 -67 -35.5t-116 -100.5q-85 -77 -235.5 -219.5t-182.5 -171.5
q85 -88 275.5 -275.5t253.5 -244.5q103 -94 166.5 -133t128.5 -53q11 -2 47 -6q29 -3 29 -17q0 -12 -33 -12h-133q-114 0 -165.5 15t-117.5 61q-68 49 -263 248t-319 344v-162q0 -308 9 -375q6 -48 18.5 -66.5t50.5 -27.5q36 -8 78 -8q23 -3 23 -15q0 -14 -29 -14
q-46 0 -101.5 1.5t-93 3t-39.5 1.5q-1 0 -35.5 -1.5t-79 -3t-69.5 -1.5q-33 0 -33 14q0 15 27 15q25 0 49 6q13 3 21.5 11t13.5 23.5t7 28t5 35.5q10 74 10 373v307q0 320 -4 375q-3 44 -15.5 66t-43.5 28q-11 2 -27 3.5t-20 2.5q-23 3 -23 14q0 15 31 15q28 0 73 -1.5
t78.5 -3t34.5 -1.5q2 0 36.5 1.5t79 3t69.5 1.5q30 0 30 -15q0 -11 -22 -14q-6 -1 -18 -2t-19 -2q-41 -6 -54 -27t-16 -71q-2 -28 -2 -373z" />
    <glyph glyph-name="Lacute" unicode="&#x139;" horiz-adv-x="1212" 
d="M537 948v-364q0 -236 9 -339t36 -130q26 -26 77.5 -36.5t167.5 -10.5q68 0 105 2.5t78.5 16.5t64.5 42q42 51 53 123q3 27 19 27q12 0 12 -31q0 -21 -10 -93t-21 -112q-8 -26 -16.5 -36t-32.5 -14.5t-80 -4.5q-85 0 -265.5 6t-282.5 6q-30 0 -95.5 -3t-105.5 -3
q-33 0 -33 16q0 13 16 13q26 0 62 8q28 5 40 32.5t19 79.5q11 95 11 445v360q0 360 -5 443q-3 55 -21 80.5t-67 35.5q-24 6 -69 6q-17 0 -17 13q0 16 33 16q41 0 96 -1.5t94.5 -3t41.5 -1.5q3 0 46 1.5t95.5 3t79.5 1.5q33 0 33 -16q0 -13 -17 -13q-30 0 -67 -6
q-43 -7 -60 -33.5t-20 -82.5q-4 -66 -4 -443zM715 1923q45 -40 65 -82q6 -15 3 -20.5t-11 -5.5q-37 0 -84 -17q-112 -41 -291 -125q-28 -12 -32 -12q-3 0 -8 2.5t-5 5.5q0 8 17 25q54 50 135 119.5t117 93.5q46 32 59 32q19 0 35 -16z" />
    <glyph glyph-name="lacute" unicode="&#x13a;" horiz-adv-x="1073" 
d="M485 807v-311q0 -187 9 -275t34 -112q26 -23 69.5 -32t145.5 -9q59 0 89.5 2t69 15t59.5 40q31 48 38 102q3 25 17 25q12 0 12 -27q0 -19 -8 -85.5t-16 -98.5q-7 -25 -12.5 -32.5t-26.5 -13t-70 -5.5q-61 0 -224 5t-274 5q-33 0 -88 -3t-92 -3q-33 0 -33 16q0 13 23 13
q33 0 49 4q42 7 53 96q3 22 5 52t3 71t1 73.5t-0.5 90t-0.5 90.5v307q0 316 -4 371q-3 50 -18.5 73t-63.5 29q-12 2 -51 2q-22 0 -22 14q0 15 30 15q24 0 54.5 -0.5t57 -1.5t49.5 -2t37 -1.5t15 -0.5q11 0 95 3t116 3q27 0 27 -15q0 -14 -23 -14q-15 0 -55 -4
q-40 -6 -55.5 -29t-18.5 -71q-2 -27 -2 -371zM686 1720q48 -39 68 -71q7 -13 4.5 -19t-10.5 -6q-1 0 -14.5 -3.5t-31 -8.5t-30.5 -10q-122 -57 -262 -142l-6 -4l-11 -5.5t-11.5 -5t-10.5 -1t-4 7.5q0 11 14 25q8 8 63 66.5t94 98t60 56.5q44 35 53 35q20 0 35 -13z" />
    <glyph glyph-name="uni013B" unicode="&#x13b;" horiz-adv-x="1212" 
d="M537 948v-364q0 -236 9 -339t36 -130q26 -26 77.5 -36.5t167.5 -10.5q68 0 105 2.5t78.5 16.5t64.5 42q42 51 53 123q3 27 19 27q12 0 12 -31q0 -21 -10 -93t-21 -112q-8 -26 -16.5 -36t-32.5 -14.5t-80 -4.5q-85 0 -265.5 6t-282.5 6q-30 0 -95.5 -3t-105.5 -3
q-33 0 -33 16q0 13 16 13q26 0 62 8q28 5 40 32.5t19 79.5q11 95 11 445v360q0 360 -5 443q-3 55 -21 80.5t-67 35.5q-24 6 -69 6q-17 0 -17 13q0 16 33 16q41 0 96 -1.5t94.5 -3t41.5 -1.5q3 0 46 1.5t95.5 3t79.5 1.5q33 0 33 -16q0 -13 -17 -13q-30 0 -67 -6
q-43 -7 -60 -33.5t-20 -82.5q-4 -66 -4 -443zM627 -240q0 18 46.5 58.5t90.5 40.5q23 0 44 -36t21 -87q0 -60 -38.5 -132t-120.5 -134q-48 -37 -55 -19q-1 1 -1 4q0 10 15 25q51 50 67.5 85.5t16.5 74.5q0 31 -19 54.5t-59 49.5q-8 5 -8 16z" />
    <glyph glyph-name="uni013C" unicode="&#x13c;" horiz-adv-x="1073" 
d="M485 807v-311q0 -187 9 -275t34 -112q26 -23 69.5 -32t145.5 -9q59 0 89.5 2t69 15t59.5 40q31 48 38 102q3 25 17 25q12 0 12 -27q0 -19 -8 -85.5t-16 -98.5q-7 -25 -12.5 -32.5t-26.5 -13t-70 -5.5q-61 0 -224 5t-274 5q-33 0 -88 -3t-92 -3q-33 0 -33 16q0 13 23 13
q33 0 49 4q42 7 53 96q3 22 5 52t3 71t1 73.5t-0.5 90t-0.5 90.5v307q0 316 -4 371q-3 50 -18.5 73t-63.5 29q-12 2 -51 2q-22 0 -22 14q0 15 30 15q24 0 54.5 -0.5t57 -1.5t49.5 -2t37 -1.5t15 -0.5q11 0 95 3t116 3q27 0 27 -15q0 -14 -23 -14q-15 0 -55 -4
q-40 -6 -55.5 -29t-18.5 -71q-2 -27 -2 -371zM616 -219q0 18 47 58t91 40q23 0 44 -36t21 -87q0 -60 -39 -132t-121 -134q-49 -34 -55 -14q0 10 14 24q51 50 67.5 85.5t16.5 74.5q0 31 -19 54.5t-58 49.5q-9 6 -9 17z" />
    <glyph glyph-name="Lcaron" unicode="&#x13d;" horiz-adv-x="1212" 
d="M537 948v-364q0 -236 9 -339t36 -130q26 -26 77.5 -36.5t167.5 -10.5q68 0 105 2.5t78.5 16.5t64.5 42q42 51 53 123q3 27 19 27q12 0 12 -31q0 -21 -10 -93t-21 -112q-8 -26 -16.5 -36t-32.5 -14.5t-80 -4.5q-85 0 -265.5 6t-282.5 6q-30 0 -95.5 -3t-105.5 -3
q-33 0 -33 16q0 13 16 13q26 0 62 8q28 5 40 32.5t19 79.5q11 95 11 445v360q0 360 -5 443q-3 55 -21 80.5t-67 35.5q-24 6 -69 6q-17 0 -17 13q0 16 33 16q41 0 96 -1.5t94.5 -3t41.5 -1.5q3 0 46 1.5t95.5 3t79.5 1.5q33 0 33 -16q0 -13 -17 -13q-30 0 -67 -6
q-43 -7 -60 -33.5t-20 -82.5q-4 -66 -4 -443zM1065 1071q-11 -82 -31 -82q-17 0 -22 66q-10 123 -27 268.5t-27 177.5q-4 11 5 15q20 13 63.5 25.5t60.5 12.5q10 0 14.5 -8t4.5 -33q0 -46 -14 -194t-27 -248z" />
    <glyph glyph-name="lcaron" unicode="&#x13e;" horiz-adv-x="1073" 
d="M485 807v-311q0 -187 9 -275t34 -112q26 -23 69.5 -32t145.5 -9q59 0 89.5 2t69 15t59.5 40q31 48 38 102q3 25 17 25q12 0 12 -27q0 -19 -8 -85.5t-16 -98.5q-7 -25 -12.5 -32.5t-26.5 -13t-70 -5.5q-61 0 -224 5t-274 5q-33 0 -88 -3t-92 -3q-33 0 -33 16q0 13 23 13
q33 0 49 4q42 7 53 96q3 22 5 52t3 71t1 73.5t-0.5 90t-0.5 90.5v307q0 316 -4 371q-3 50 -18.5 73t-63.5 29q-12 2 -51 2q-22 0 -22 14q0 15 30 15q24 0 54.5 -0.5t57 -1.5t49.5 -2t37 -1.5t15 -0.5q11 0 95 3t116 3q27 0 27 -15q0 -14 -23 -14q-15 0 -55 -4
q-40 -6 -55.5 -29t-18.5 -71q-2 -27 -2 -371zM981 846q-11 -82 -31 -82q-17 0 -22 65q-10 123 -27 269t-27 178q-3 10 5 14q20 13 64.5 26t60.5 13q10 0 14 -8t4 -33q0 -46 -14 -194t-27 -248z" />
    <glyph glyph-name="Ldot" unicode="&#x13f;" horiz-adv-x="1212" 
d="M537 948v-364q0 -236 9 -339t36 -130q26 -26 77.5 -36.5t167.5 -10.5q68 0 105 2.5t78.5 16.5t64.5 42q42 51 53 123q3 27 19 27q12 0 12 -31q0 -21 -10 -93t-21 -112q-8 -26 -16.5 -36t-32.5 -14.5t-80 -4.5q-85 0 -265.5 6t-282.5 6q-30 0 -95.5 -3t-105.5 -3
q-33 0 -33 16q0 13 16 13q26 0 62 8q28 5 40 32.5t19 79.5q11 95 11 445v360q0 360 -5 443q-3 55 -21 80.5t-67 35.5q-24 6 -69 6q-17 0 -17 13q0 16 33 16q41 0 96 -1.5t94.5 -3t41.5 -1.5q3 0 46 1.5t95.5 3t79.5 1.5q33 0 33 -16q0 -13 -17 -13q-30 0 -67 -6
q-43 -7 -60 -33.5t-20 -82.5q-4 -66 -4 -443zM940 1016q44 0 193 -33q43 -9 43 -25q0 -6 -11 -28q-9 -14 -18 -27t-22 -27.5t-20.5 -23.5t-25 -25t-22.5 -21t-26.5 -24t-24.5 -22q-26 -21 -29 -21q-2 0 -5 3t-3 6q0 8 10 28q14 49 14 115q0 71 -49 96q-20 10 -20 17
q0 12 16 12z" />
    <glyph glyph-name="ldot" unicode="&#x140;" horiz-adv-x="1073" 
d="M485 807v-311q0 -187 9 -275t34 -112q26 -23 69.5 -32t145.5 -9q59 0 89.5 2t69 15t59.5 40q31 48 38 102q3 25 17 25q12 0 12 -27q0 -19 -8 -85.5t-16 -98.5q-7 -25 -12.5 -32.5t-26.5 -13t-70 -5.5q-61 0 -224 5t-274 5q-33 0 -88 -3t-92 -3q-33 0 -33 16q0 13 23 13
q33 0 49 4q42 7 53 96q3 22 5 52t3 71t1 73.5t-0.5 90t-0.5 90.5v307q0 316 -4 371q-3 50 -18.5 73t-63.5 29q-12 2 -51 2q-22 0 -22 14q0 15 30 15q24 0 54.5 -0.5t57 -1.5t49.5 -2t37 -1.5t15 -0.5q11 0 95 3t116 3q27 0 27 -15q0 -14 -23 -14q-15 0 -55 -4
q-40 -6 -55.5 -29t-18.5 -71q-2 -27 -2 -371zM807 915q48 0 192 -32q43 -9 43 -25q0 -9 -10 -29q-10 -16 -23 -33.5t-22.5 -28.5t-29 -30t-26 -25t-31 -28t-28.5 -25q-25 -20 -28 -20q-2 0 -5 2.5t-3 5.5q0 9 10 29q14 49 14 115q0 71 -49 96q-2 1 -6.5 3t-6 3t-4 2.5
t-3 3.5t-0.5 4q0 12 16 12z" />
    <glyph glyph-name="Lslash" unicode="&#x141;" horiz-adv-x="1232" 
d="M557 745v-161q0 -236 9 -339t36 -130q26 -26 78 -36.5t168 -10.5q68 0 105 2.5t78.5 16.5t64.5 42q42 51 53 123q3 27 18 27q13 0 13 -31q0 -21 -10 -93t-21 -112q-8 -26 -16.5 -36t-32.5 -14.5t-80 -4.5q-85 0 -266 6t-283 6q-30 0 -95.5 -3t-105.5 -3q-32 0 -32 16
q0 13 16 13q25 0 61 8q28 5 40.5 32.5t19.5 79.5q10 86 10 445v65l-180 -96q-9 -6 -15 2q-7 9 -12.5 31t-5.5 31q0 6 4 10l209 112v205q0 377 -4 443q-3 55 -21 80.5t-67 35.5q-24 6 -70 6q-16 0 -16 13q0 16 33 16q41 0 96 -1.5t94 -3t41 -1.5q3 0 46 1.5t95.5 3t79.5 1.5
q33 0 33 -16q0 -13 -16 -13q-31 0 -68 -6q-43 -7 -60 -33.5t-20 -82.5q-4 -66 -4 -443v-110l317 172q7 4 13 -2q16 -23 26 -62q0 -9 -2 -10z" />
    <glyph glyph-name="lslash" unicode="&#x142;" horiz-adv-x="1091" 
d="M502 635v-139q0 -187 9 -275t34 -112q26 -23 69.5 -32t145.5 -9q59 0 89 2t68.5 15t59.5 40q32 50 39 102q3 25 16 25q12 0 12 -27q0 -19 -8 -85.5t-16 -98.5q-7 -25 -12.5 -32.5t-26.5 -13t-70 -5.5q-61 0 -223.5 5t-273.5 5q-34 0 -89 -3t-92 -3q-32 0 -32 16
q0 13 22 13q33 0 49 4q43 7 54 96q3 22 5 52t3 71t1 73.5t-0.5 90t-0.5 90.5v49l-156 -82q-7 -5 -12 2q-6 8 -11 28.5t-5 30.5q0 5 4 9l180 94v176q0 316 -4 371q-3 50 -18.5 73t-63.5 29q-12 2 -51 2q-23 0 -23 14q0 15 31 15q24 0 54.5 -0.5t57 -1.5t49.5 -2t37 -1.5
t15 -0.5q11 0 95 3t116 3q26 0 26 -15q0 -14 -22 -14q-15 0 -55 -4q-40 -6 -55.5 -29t-18.5 -71q-2 -27 -2 -371v-88l278 147q8 4 11 -2q17 -20 26 -57q2 -6 -2 -8z" />
    <glyph glyph-name="Nacute" unicode="&#x143;" horiz-adv-x="1939" 
d="M297 295v303q0 308 1 465.5t1.5 166.5t-0.5 238q0 58 5.5 80.5t17.5 22.5q7 0 19.5 -11t29.5 -30.5t22 -24.5q62 -70 651 -702q108 -115 285 -309.5t207 -225.5l-23 1041q-2 102 -17.5 142t-61.5 52q-46 10 -88 10q-29 0 -29 15q0 14 41 14q55 0 132.5 -3t80.5 -3
q4 0 64 3t110 3q37 0 37 -14q0 -12 -23 -15q-14 -2 -53 -8q-43 -9 -57.5 -44.5t-14.5 -139.5l-4 -1196q0 -51 -0.5 -79.5t-3 -43.5t-5.5 -18.5t-9 -3.5q-12 0 -40 24.5t-110 106.5q-21 18 -203.5 207t-330.5 348q-282 303 -535 587l27 -981q3 -124 20.5 -174.5t59.5 -62.5
q47 -12 102 -12q16 0 16 -13q0 -16 -36 -16q-52 0 -101.5 1.5t-80 3t-35.5 1.5t-36 -1.5t-76 -3t-85 -1.5q-33 0 -33 16q0 13 17 13q47 0 84 12q37 10 49 63.5t12 196.5zM1200 1923q46 -42 66 -82q6 -15 2.5 -20.5t-11.5 -5.5q-36 0 -83 -17q-112 -41 -291 -125
q-28 -12 -33 -12q-3 0 -7.5 2.5t-4.5 5.5q0 9 16 25q54 50 135 119.5t117 93.5q46 32 59 32q19 0 35 -16z" />
    <glyph glyph-name="nacute" unicode="&#x144;" horiz-adv-x="1718" 
d="M262 250q0 482 1 739t-1 262q0 84 23 84q4 0 10.5 -4t14 -11.5l14 -14t14 -14.5t10.5 -11q18 -21 590 -604q83 -81 238 -236.5t180 -179.5l-23 852q-2 85 -15.5 118.5t-53.5 43.5q-47 8 -80 8q-25 0 -25 16q0 13 37 13q53 0 123 -3l70 -3q3 0 59 3t104 3q29 0 29 -13
t-18 -16q-4 -1 -21.5 -2.5t-30.5 -3.5q-37 -8 -49 -36.5t-12 -117.5l-4 -1028q0 -50 -2 -74.5t-5.5 -31t-11.5 -6.5q-11 0 -37.5 20.5t-97.5 87.5q-4 2 -78.5 75t-201 198t-191.5 188q-237 246 -469 487l27 -800q3 -110 16.5 -154t50.5 -53q33 -8 84 -8q25 0 25 -15
q0 -14 -33 -14q-49 0 -95 1.5t-73 3t-30 1.5q-4 0 -31 -1.5t-68 -3t-80 -1.5q-30 0 -30 14q0 15 28 15q37 0 64 8q33 10 44 56.5t11 162.5zM1069 1700q47 -38 68 -72q7 -14 4 -19t-11 -5q-1 0 -14.5 -3.5t-30.5 -9t-30 -10.5q-129 -60 -262 -141l-6 -4l-11 -5.5t-11.5 -5
t-10.5 -1t-4 7.5q0 10 14 24q8 8 63 66.5t94 98t60 56.5q44 35 53 35q21 0 35 -12z" />
    <glyph glyph-name="uni0145" unicode="&#x145;" horiz-adv-x="1939" 
d="M297 295v303q0 308 1 465.5t1.5 166.5t-0.5 238q0 58 5.5 80.5t17.5 22.5q7 0 19.5 -11t29.5 -30.5t22 -24.5q62 -70 651 -702q108 -115 285 -309.5t207 -225.5l-23 1041q-2 102 -17.5 142t-61.5 52q-46 10 -88 10q-29 0 -29 15q0 14 41 14q55 0 132.5 -3t80.5 -3
q4 0 64 3t110 3q37 0 37 -14q0 -12 -23 -15q-14 -2 -53 -8q-43 -9 -57.5 -44.5t-14.5 -139.5l-4 -1196q0 -51 -0.5 -79.5t-3 -43.5t-5.5 -18.5t-9 -3.5q-12 0 -40 24.5t-110 106.5q-21 18 -203.5 207t-330.5 348q-282 303 -535 587l27 -981q3 -124 20.5 -174.5t59.5 -62.5
q47 -12 102 -12q16 0 16 -13q0 -16 -36 -16q-52 0 -101.5 1.5t-80 3t-35.5 1.5t-36 -1.5t-76 -3t-85 -1.5q-33 0 -33 16q0 13 17 13q47 0 84 12q37 10 49 63.5t12 196.5zM872 -233q0 18 47 58t91 40q23 0 44 -36t21 -87q0 -60 -39 -132t-121 -134q-52 -37 -55 -15
q0 11 14 25q51 50 67.5 85.5t16.5 74.5q0 31 -19 54.5t-58 49.5q-9 6 -9 17z" />
    <glyph glyph-name="uni0146" unicode="&#x146;" horiz-adv-x="1718" 
d="M262 250q0 482 1 739t-1 262q0 84 23 84q4 0 10.5 -4t14 -11.5l14 -14t14 -14.5t10.5 -11q18 -21 590 -604q83 -81 238 -236.5t180 -179.5l-23 852q-2 85 -15.5 118.5t-53.5 43.5q-47 8 -80 8q-25 0 -25 16q0 13 37 13q53 0 123 -3l70 -3q3 0 59 3t104 3q29 0 29 -13
t-18 -16q-4 -1 -21.5 -2.5t-30.5 -3.5q-37 -8 -49 -36.5t-12 -117.5l-4 -1028q0 -50 -2 -74.5t-5.5 -31t-11.5 -6.5q-11 0 -37.5 20.5t-97.5 87.5q-4 2 -78.5 75t-201 198t-191.5 188q-237 246 -469 487l27 -800q3 -110 16.5 -154t50.5 -53q33 -8 84 -8q25 0 25 -15
q0 -14 -33 -14q-49 0 -95 1.5t-73 3t-30 1.5q-4 0 -31 -1.5t-68 -3t-80 -1.5q-30 0 -30 14q0 15 28 15q37 0 64 8q33 10 44 56.5t11 162.5zM831 -219q0 18 47 58t91 40q23 0 44 -36t21 -87q0 -60 -39 -132t-121 -134q-49 -34 -55 -14q0 9 15 24q51 50 67.5 85.5t16.5 74.5
q0 31 -19 54.5t-59 49.5q-9 6 -9 17z" />
    <glyph glyph-name="Ncaron" unicode="&#x147;" horiz-adv-x="1939" 
d="M297 295v303q0 308 1 465.5t1.5 166.5t-0.5 238q0 58 5.5 80.5t17.5 22.5q7 0 19.5 -11t29.5 -30.5t22 -24.5q62 -70 651 -702q108 -115 285 -309.5t207 -225.5l-23 1041q-2 102 -17.5 142t-61.5 52q-46 10 -88 10q-29 0 -29 15q0 14 41 14q55 0 132.5 -3t80.5 -3
q4 0 64 3t110 3q37 0 37 -14q0 -12 -23 -15q-14 -2 -53 -8q-43 -9 -57.5 -44.5t-14.5 -139.5l-4 -1196q0 -51 -0.5 -79.5t-3 -43.5t-5.5 -18.5t-9 -3.5q-12 0 -40 24.5t-110 106.5q-21 18 -203.5 207t-330.5 348q-282 303 -535 587l27 -981q3 -124 20.5 -174.5t59.5 -62.5
q47 -12 102 -12q16 0 16 -13q0 -16 -36 -16q-52 0 -101.5 1.5t-80 3t-35.5 1.5t-36 -1.5t-76 -3t-85 -1.5q-33 0 -33 16q0 13 17 13q47 0 84 12q37 10 49 63.5t12 196.5zM975 1642q-11 0 -39 17q-5 3 -122.5 80.5t-139.5 93.5q-25 17 -25 25q0 5 10 12l66 43q13 8 23 0
q40 -34 114.5 -86t108.5 -70q17 -10 24 -10q9 0 33 12q107 59 238 139q32 19 43 19q12 0 12 -9t-16 -20q-58 -42 -163.5 -123t-129.5 -102q-30 -21 -37 -21z" />
    <glyph glyph-name="ncaron" unicode="&#x148;" horiz-adv-x="1718" 
d="M262 250q0 482 1 739t-1 262q0 84 23 84q4 0 10.5 -4t14 -11.5l14 -14t14 -14.5t10.5 -11q18 -21 590 -604q83 -81 238 -236.5t180 -179.5l-23 852q-2 85 -15.5 118.5t-53.5 43.5q-47 8 -80 8q-25 0 -25 16q0 13 37 13q53 0 123 -3l70 -3q3 0 59 3t104 3q29 0 29 -13
t-18 -16q-4 -1 -21.5 -2.5t-30.5 -3.5q-37 -8 -49 -36.5t-12 -117.5l-4 -1028q0 -50 -2 -74.5t-5.5 -31t-11.5 -6.5q-11 0 -37.5 20.5t-97.5 87.5q-4 2 -78.5 75t-201 198t-191.5 188q-237 246 -469 487l27 -800q3 -110 16.5 -154t50.5 -53q33 -8 84 -8q25 0 25 -15
q0 -14 -33 -14q-49 0 -95 1.5t-73 3t-30 1.5q-4 0 -31 -1.5t-68 -3t-80 -1.5q-30 0 -30 14q0 15 28 15q37 0 64 8q33 10 44 56.5t11 162.5zM858 1430q-7 0 -35 14q-2 1 -110.5 75t-128.5 89q-23 16 -23 22q0 4 6 7q2 2 4 3l72 46q13 8 21 0q36 -31 104 -78.5t98 -63.5
q13 -8 25 -8q9 0 29 10q60 33 219 127q23 17 39 17q13 0 10 -10q-3 -7 -14 -15q-52 -38 -155 -117.5t-126 -99.5q-27 -18 -35 -18z" />
    <glyph glyph-name="Omacron" unicode="&#x14c;" horiz-adv-x="1873" 
d="M926 -35q-162 0 -297.5 48.5t-225.5 128.5t-153 185.5t-91 217t-28 225.5q0 103 29 211t93.5 214.5t156 189.5t228.5 134.5t300 51.5q231 0 412.5 -91.5t287 -267.5t105.5 -409q0 -171 -59 -324.5t-163.5 -267t-259 -180t-335.5 -66.5zM981 43q44 0 89.5 7.5t102.5 28
t108 53t100.5 87.5t85 126t57.5 174t22 226q0 179 -51.5 325t-138.5 238.5t-198 142.5t-234 50q-130 0 -238 -43t-189 -125t-126 -211.5t-45 -294.5q0 -233 87 -413t235.5 -275.5t332.5 -95.5zM666 1845h542q11 0 15.5 -6t1.5 -14l-17 -56q-3 -12 -18 -12h-543q-11 0 -16 3
t-4 12l16 61q2 12 23 12z" />
    <glyph glyph-name="omacron" unicode="&#x14d;" 
d="M819 -29q-145 0 -265.5 41.5t-200.5 109.5t-135.5 158t-80 184.5t-24.5 190.5q0 85 25 175.5t82 181.5t137.5 162t203.5 116t268 45q152 0 283 -44.5t227 -127t150.5 -206.5t54.5 -275q0 -195 -89 -356.5t-256 -258t-380 -96.5zM870 41q34 0 70 5t85 21t92.5 42t87.5 72
t75.5 105.5t51.5 148.5t20 196q0 150 -44 273.5t-118.5 202.5t-170.5 122t-202 43q-109 0 -201 -34t-162.5 -101.5t-110.5 -177t-40 -250.5q0 -302 155 -485t412 -183zM567 1593h543q11 0 15 -7t1 -15l-16 -49q-3 -13 -18 -13h-543q-11 0 -16.5 3.5t-4.5 11.5l17 57
q2 12 22 12z" />
    <glyph glyph-name="Ohungarumlaut" unicode="&#x150;" horiz-adv-x="1873" 
d="M926 -35q-162 0 -297.5 48.5t-225.5 128.5t-153 185.5t-91 217t-28 225.5q0 103 29 211t93.5 214.5t156 189.5t228.5 134.5t300 51.5q231 0 412.5 -91.5t287 -267.5t105.5 -409q0 -171 -59 -324.5t-163.5 -267t-259 -180t-335.5 -66.5zM981 43q44 0 89.5 7.5t102.5 28
t108 53t100.5 87.5t85 126t57.5 174t22 226q0 179 -51.5 325t-138.5 238.5t-198 142.5t-234 50q-130 0 -238 -43t-189 -125t-126 -211.5t-45 -294.5q0 -233 87 -413t235.5 -275.5t332.5 -95.5zM838 1917q31 39 39 39q13 0 28 -6q70 -31 90 -45q6 -4 8.5 -7.5t1.5 -6t-4 -3.5
q-20 -10 -57 -33q-133 -85 -207 -153q-17 -19 -32 -19q-5 0 -6.5 5.5t1.5 11.5q5 13 60.5 99t77.5 118zM1217 1919q34 37 38 37q18 0 31 -8q40 -18 88 -47q8 -8 7.5 -14.5t-5.5 -8.5q-6 -2 -59 -27q-144 -82 -221 -151q-19 -17 -31 -17q-4 0 -6 4.5t2 10.5q3 13 62.5 95.5
t93.5 125.5z" />
    <glyph glyph-name="ohungarumlaut" unicode="&#x151;" 
d="M819 -29q-145 0 -265.5 41.5t-200.5 109.5t-135.5 158t-80 184.5t-24.5 190.5q0 85 25 175.5t82 181.5t137.5 162t203.5 116t268 45q152 0 283 -44.5t227 -127t150.5 -206.5t54.5 -275q0 -195 -89 -356.5t-256 -258t-380 -96.5zM870 41q34 0 70 5t85 21t92.5 42t87.5 72
t75.5 105.5t51.5 148.5t20 196q0 150 -44 273.5t-118.5 202.5t-170.5 122t-202 43q-109 0 -201 -34t-162.5 -101.5t-110.5 -177t-40 -250.5q0 -302 155 -485t412 -183zM731 1671q31 39 39 39q14 0 29 -6q70 -31 90 -45q6 -4 8.5 -7.5t1.5 -6t-4 -3.5q-28 -14 -57 -32
q-129 -83 -207 -154q-16 -18 -33 -18q-4 0 -5.5 5t1.5 11q5 13 60.5 100t76.5 117zM1110 1673q34 37 39 37q18 0 31 -8q40 -18 88 -47q8 -8 7.5 -14.5t-5.5 -8.5q-13 -3 -60 -26q-140 -81 -221 -152q-18 -16 -31 -16q-4 0 -6 4t2 10q3 13 62.5 95.5t93.5 125.5z" />
    <glyph glyph-name="OE" unicode="&#x152;" horiz-adv-x="2430" 
d="M326 827q0 -233 87 -413t235 -275.5t331 -95.5q44 0 90 7.5t103 28t108 53t100.5 87.5t85.5 126t58 174t22 226q0 144 -33.5 267t-92.5 212t-138 152t-170.5 94t-189.5 31q-129 0 -237 -43t-188.5 -125t-125.5 -211.5t-45 -294.5zM1632 1536q422 0 469 2q77 3 94 12
q18 9 23 9q8 0 8 -19q0 -4 -7 -33.5t-9 -62.5q-8 -117 -8 -123q-4 -35 -17 -35q-16 0 -16 27q0 40 -10 67q-10 34 -44.5 51t-103.5 25q-53 6 -289 6q-12 0 -12 -20v-565q0 -21 12 -21q287 0 334 4q44 3 66.5 10t36.5 25q17 20 24 20q10 0 10 -16q0 -4 -2.5 -18.5t-6.5 -41
t-7 -55.5q-4 -38 -6 -87.5t-2 -51.5q-3 -31 -15 -31q-14 0 -14 33q0 34 -8 58q-15 57 -107 67t-301 10q-14 0 -14 -14v-180q0 -18 -0.5 -105.5t-0.5 -156.5t1 -88q3 -67 17.5 -101.5t50.5 -48.5q45 -18 178 -18q122 0 184 18q48 14 70 48.5t35 103.5q5 30 18 30q12 0 12 -30
q0 -15 -9.5 -92.5t-16.5 -106.5q-10 -38 -28.5 -45.5t-82.5 -7.5q-67 0 -307 6q-28 1 -93 3.5t-108 2.5q-11 0 -32.5 -3t-34.5 -3q-21 0 -21 14q10 100 10 248q-60 -67 -78 -84q-218 -207 -548 -207q-136 0 -253 33.5t-202 92.5t-151.5 136t-107 168t-61 184.5t-20.5 188.5
q0 87 21.5 177.5t63 181t110.5 170t156.5 141t208.5 97.5t259 36q116 0 216 -24t171.5 -65t119 -81t83.5 -86q2 -3 4 -3.5t3 0.5t1 3q0 73 -1 121.5t-2 67t-1 20.5q0 8 6 13t15 5q8 0 31 -3t36 -3z" />
    <glyph glyph-name="oe" unicode="&#x153;" horiz-adv-x="2146" 
d="M303 709q0 -157 44.5 -285t121.5 -211t178.5 -127.5t218.5 -44.5q41 0 83 7t91 25t93 46t85 74.5t70.5 105.5t47.5 143.5t18 184.5q0 150 -43.5 273.5t-118 203.5t-172 124t-207.5 44q-108 0 -199.5 -35t-161.5 -102.5t-109.5 -176.5t-39.5 -249zM1436 0q-44 0 -74 -6
q-7 -1 -8.5 2.5t-1.5 9.5q2 7 5 68.5t3 111.5q-4 -3 -33.5 -28.5t-54.5 -45t-74.5 -48t-100 -47t-124.5 -32.5t-154 -14q-144 0 -263.5 41t-200 108.5t-136.5 157t-81 184.5t-25 193q0 90 26 182t84 181.5t140.5 159.5t206 113t270.5 44q326 2 508 -196q3 -3 5 -3t3 1.5
t2 1.5q0 23 -1 59t-2 63.5t-1 30.5q0 17 16 17q8 0 31 -2t33 -2q378 0 419 2q65 3 80 12q16 8 25 8q6 0 6 -14q0 -3 -7 -34.5t-9 -61.5q0 -9 -2.5 -44.5t-3.5 -58.5q0 -31 -15 -31q-11 0 -14 23q-7 48 -10 55q-10 33 -37.5 48.5t-100.5 19.5q-54 4 -233 4q-10 0 -10 -16
v-465q0 -21 12 -21q212 0 276 6q76 3 95 31q11 16 22 16q8 0 8 -12q0 -4 -2 -18t-5.5 -39.5t-6.5 -50.5q-4 -34 -6 -79t-2 -46q-3 -23 -15 -23t-12 27q0 25 -6 49q-5 17 -11.5 27t-28.5 20.5t-58 13.5q-106 9 -246 9q-14 0 -14 -15v-149v-279q2 -59 14 -89.5t43 -43.5
q40 -18 150 -18q111 0 155 12q43 13 61 42.5t31 92.5q6 29 19 29q12 0 12 -31q0 -10 -8.5 -81t-13.5 -97q-6 -30 -22 -37.5t-69 -7.5q-75 0 -155.5 2t-108.5 2q-16 0 -83 3t-111 3z" />
    <glyph glyph-name="Racute" unicode="&#x154;" horiz-adv-x="1544" 
d="M365 588v360q0 360 -5 443q-3 55 -21 80.5t-67 35.5q-24 6 -69 6q-17 0 -17 13q0 16 33 16q41 0 96 -1.5t94.5 -3t41.5 -1.5q7 0 106 3t135 3q116 0 208.5 -18.5t166.5 -71.5q51 -37 96 -110.5t45 -167.5q0 -120 -57.5 -236t-189.5 -238q19 -24 93.5 -119.5t98.5 -126.5
t76 -95.5t87.5 -105t69.5 -77.5q120 -127 250 -147q39 -6 80 -6q7 0 13 -4t6 -9q0 -16 -49 -16h-146q-85 0 -132 8.5t-87 30.5q-39 21 -83.5 64.5t-73 79.5t-97.5 127q-15 20 -23 30q-47 62 -126 171t-97 132q-12 12 -26 12l-252 4q-15 0 -15 -16v-49q0 -350 11 -445
q5 -52 21 -79t58 -33q58 -8 93 -8q16 0 16 -13q0 -16 -33 -16q-50 0 -110 1.5t-100.5 3t-41.5 1.5h-14q-15 -1 -37 -2t-47 -2t-51 -1.5t-43 -0.5q-33 0 -33 16q0 13 16 13q26 0 62 8q28 5 40 32.5t19 79.5q11 95 11 445zM528 1440v-670q0 -16 15 -25q23 -14 85.5 -23
t129.5 -9q97 0 153 39q56 38 90.5 120t34.5 195q0 192 -94.5 301t-259.5 109q-94 0 -137 -13q-17 -7 -17 -24zM983 1927q46 -42 66 -82q6 -15 2.5 -20.5t-11.5 -5.5q-37 0 -84 -17q-108 -39 -290 -125q-28 -12 -33 -12q-3 0 -7.5 2.5t-4.5 5.5q0 9 16 25q54 50 135 119.5
t117 93.5q48 33 59 33q18 0 35 -17z" />
    <glyph glyph-name="racute" unicode="&#x155;" horiz-adv-x="1366" 
d="M319 500v307q0 320 -4 375q-3 44 -20 66.5t-62 31.5q-24 4 -49 4q-22 0 -22 12q0 15 24 15q25 0 56 -0.5t58 -1.5t50 -2t37.5 -1.5t15.5 -0.5q4 0 93 3t122 3q226 0 336 -78q18 -14 36 -33t39.5 -50t34.5 -74.5t13 -92.5q0 -94 -51.5 -194.5t-165.5 -192.5
q274 -336 377 -444q66 -68 115 -93t102 -32q28 -4 64 -4q22 0 22 -15q0 -14 -37 -14h-143q-126 0 -186 24q-18 8 -35 18.5t-35.5 27.5t-31.5 30.5t-35 40.5t-34.5 42.5t-40.5 52.5t-42 55q-46 56 -116 147t-81 105q-12 12 -25 12l-211 2q-10 0 -10 -10v-29q0 -313 10 -387
q3 -23 6 -35.5t10.5 -28t23.5 -23.5t40 -11q40 -4 60 -4q26 0 26 -13q0 -16 -28 -16q-47 0 -102 1.5t-91 3t-37 1.5q-14 0 -81 -3t-97 -3q-29 0 -29 16q0 5 8 9t17 4q29 0 45 4q26 4 37 21.5t16 55.5q8 59 8 396zM477 1219v-557q0 -20 10 -25q21 -11 75 -19t108 -8
q91 0 137 31q47 30 74.5 97t27.5 163q0 165 -81 255.5t-220 90.5q-77 0 -119 -10q-12 -4 -12 -18zM883 1720q47 -37 67 -71q7 -13 4.5 -19t-10.5 -6q-1 0 -14.5 -3.5t-31 -8.5t-30.5 -10q-122 -57 -262 -142l-6 -4l-11 -5.5t-11.5 -5t-10.5 -1t-4 7.5q0 10 15 25
q8 8 63 66.5t94 98t60 56.5q44 35 53 35q20 0 35 -13z" />
    <glyph glyph-name="uni0156" unicode="&#x156;" horiz-adv-x="1544" 
d="M365 588v360q0 360 -5 443q-3 55 -21 80.5t-67 35.5q-24 6 -69 6q-17 0 -17 13q0 16 33 16q41 0 96 -1.5t94.5 -3t41.5 -1.5q7 0 106 3t135 3q116 0 208.5 -18.5t166.5 -71.5q51 -37 96 -110.5t45 -167.5q0 -120 -57.5 -236t-189.5 -238q19 -24 93.5 -119.5t98.5 -126.5
t76 -95.5t87.5 -105t69.5 -77.5q120 -127 250 -147q39 -6 80 -6q7 0 13 -4t6 -9q0 -16 -49 -16h-146q-85 0 -132 8.5t-87 30.5q-39 21 -83.5 64.5t-73 79.5t-97.5 127q-15 20 -23 30q-47 62 -126 171t-97 132q-12 12 -26 12l-252 4q-15 0 -15 -16v-49q0 -350 11 -445
q5 -52 21 -79t58 -33q58 -8 93 -8q16 0 16 -13q0 -16 -33 -16q-50 0 -110 1.5t-100.5 3t-41.5 1.5h-14q-15 -1 -37 -2t-47 -2t-51 -1.5t-43 -0.5q-33 0 -33 16q0 13 16 13q26 0 62 8q28 5 40 32.5t19 79.5q11 95 11 445zM528 1440v-670q0 -16 15 -25q23 -14 85.5 -23
t129.5 -9q97 0 153 39q56 38 90.5 120t34.5 195q0 192 -94.5 301t-259.5 109q-94 0 -137 -13q-17 -7 -17 -24zM752 -240q0 18 46.5 58.5t90.5 40.5q23 0 44 -36t21 -87q0 -60 -38.5 -132t-120.5 -134q-48 -37 -55 -19q-1 1 -1 4q0 10 15 25q51 50 67.5 85.5t16.5 74.5
q0 31 -19 54.5t-59 49.5q-8 5 -8 16z" />
    <glyph glyph-name="uni0157" unicode="&#x157;" horiz-adv-x="1366" 
d="M319 500v307q0 320 -4 375q-3 44 -20 66.5t-62 31.5q-24 4 -49 4q-22 0 -22 12q0 15 24 15q25 0 56 -0.5t58 -1.5t50 -2t37.5 -1.5t15.5 -0.5q4 0 93 3t122 3q226 0 336 -78q18 -14 36 -33t39.5 -50t34.5 -74.5t13 -92.5q0 -94 -51.5 -194.5t-165.5 -192.5
q274 -336 377 -444q66 -68 115 -93t102 -32q28 -4 64 -4q22 0 22 -15q0 -14 -37 -14h-143q-126 0 -186 24q-18 8 -35 18.5t-35.5 27.5t-31.5 30.5t-35 40.5t-34.5 42.5t-40.5 52.5t-42 55q-46 56 -116 147t-81 105q-12 12 -25 12l-211 2q-10 0 -10 -10v-29q0 -313 10 -387
q3 -23 6 -35.5t10.5 -28t23.5 -23.5t40 -11q40 -4 60 -4q26 0 26 -13q0 -16 -28 -16q-47 0 -102 1.5t-91 3t-37 1.5q-14 0 -81 -3t-97 -3q-29 0 -29 16q0 5 8 9t17 4q29 0 45 4q26 4 37 21.5t16 55.5q8 59 8 396zM477 1219v-557q0 -20 10 -25q21 -11 75 -19t108 -8
q91 0 137 31q47 30 74.5 97t27.5 163q0 165 -81 255.5t-220 90.5q-77 0 -119 -10q-12 -4 -12 -18zM680 -219q0 18 46.5 58t90.5 40q23 0 44.5 -36t21.5 -87q0 -60 -39 -132t-121 -134q-49 -34 -55 -14q0 10 14 24q51 50 67.5 85.5t16.5 74.5q0 31 -19 54.5t-59 49.5
q-8 5 -8 17z" />
    <glyph glyph-name="Rcaron" unicode="&#x158;" horiz-adv-x="1544" 
d="M365 588v360q0 360 -5 443q-3 55 -21 80.5t-67 35.5q-24 6 -69 6q-17 0 -17 13q0 16 33 16q41 0 96 -1.5t94.5 -3t41.5 -1.5q7 0 106 3t135 3q116 0 208.5 -18.5t166.5 -71.5q51 -37 96 -110.5t45 -167.5q0 -120 -57.5 -236t-189.5 -238q19 -24 93.5 -119.5t98.5 -126.5
t76 -95.5t87.5 -105t69.5 -77.5q120 -127 250 -147q39 -6 80 -6q7 0 13 -4t6 -9q0 -16 -49 -16h-146q-85 0 -132 8.5t-87 30.5q-39 21 -83.5 64.5t-73 79.5t-97.5 127q-15 20 -23 30q-47 62 -126 171t-97 132q-12 12 -26 12l-252 4q-15 0 -15 -16v-49q0 -350 11 -445
q5 -52 21 -79t58 -33q58 -8 93 -8q16 0 16 -13q0 -16 -33 -16q-50 0 -110 1.5t-100.5 3t-41.5 1.5h-14q-15 -1 -37 -2t-47 -2t-51 -1.5t-43 -0.5q-33 0 -33 16q0 13 16 13q26 0 62 8q28 5 40 32.5t19 79.5q11 95 11 445zM528 1440v-670q0 -16 15 -25q23 -14 85.5 -23
t129.5 -9q97 0 153 39q56 38 90.5 120t34.5 195q0 192 -94.5 301t-259.5 109q-94 0 -137 -13q-17 -7 -17 -24zM702 1671q-10 0 -38 17q-6 4 -123.5 81t-139.5 93q-24 17 -24 24q0 5 10 12l66 44q12 8 22 0q40 -34 114.5 -86t108.5 -70q17 -10 25 -10q9 0 33 12
q98 54 237 139q32 19 43 19q12 0 12 -9t-16 -20q-58 -42 -163.5 -123t-129.5 -102q-30 -21 -37 -21z" />
    <glyph glyph-name="rcaron" unicode="&#x159;" horiz-adv-x="1366" 
d="M319 500v307q0 320 -4 375q-3 44 -20 66.5t-62 31.5q-24 4 -49 4q-22 0 -22 12q0 15 24 15q25 0 56 -0.5t58 -1.5t50 -2t37.5 -1.5t15.5 -0.5q4 0 93 3t122 3q226 0 336 -78q18 -14 36 -33t39.5 -50t34.5 -74.5t13 -92.5q0 -94 -51.5 -194.5t-165.5 -192.5
q274 -336 377 -444q66 -68 115 -93t102 -32q28 -4 64 -4q22 0 22 -15q0 -14 -37 -14h-143q-126 0 -186 24q-18 8 -35 18.5t-35.5 27.5t-31.5 30.5t-35 40.5t-34.5 42.5t-40.5 52.5t-42 55q-46 56 -116 147t-81 105q-12 12 -25 12l-211 2q-10 0 -10 -10v-29q0 -313 10 -387
q3 -23 6 -35.5t10.5 -28t23.5 -23.5t40 -11q40 -4 60 -4q26 0 26 -13q0 -16 -28 -16q-47 0 -102 1.5t-91 3t-37 1.5q-14 0 -81 -3t-97 -3q-29 0 -29 16q0 5 8 9t17 4q29 0 45 4q26 4 37 21.5t16 55.5q8 59 8 396zM477 1219v-557q0 -20 10 -25q21 -11 75 -19t108 -8
q91 0 137 31q47 30 74.5 97t27.5 163q0 165 -81 255.5t-220 90.5q-77 0 -119 -10q-12 -4 -12 -18zM643 1460q-5 0 -35 15q-5 4 -112 76t-127 87q-23 16 -23 23q0 4 6 7q2 2 4 3l72 45q13 8 21 0q35 -31 103 -78t99 -63q13 -8 25 -8q9 0 29 10q60 33 219 127q21 16 39 16
q13 0 9 -10q-3 -7 -14 -14q-52 -38 -154 -117t-126 -100q-28 -19 -35 -19z" />
    <glyph glyph-name="Sacute" unicode="&#x15a;" horiz-adv-x="1167" 
d="M508 -35q-162 0 -275 55q-21 10 -25.5 22.5t-4.5 55.5q0 52 10 217q3 33 16 33q15 0 15 -22q0 -47 6 -76q22 -107 106 -158t197 -51q94 0 162.5 41.5t99.5 102t31 128.5q0 104 -50.5 181t-185.5 188l-92 76q-153 126 -209.5 228t-56.5 216q0 166 115 267.5t309 101.5
q101 0 190 -21q49 -10 72 -10q20 0 20 -14q0 -1 -2 -27t-4 -77t-2 -113q0 -47 -14 -47q-13 0 -16 26q-2 20 -10 53.5t-17 49.5q-5 10 -13 20.5t-28.5 27t-46.5 29t-70.5 22t-97.5 9.5q-109 0 -180.5 -64t-71.5 -173q0 -88 51 -158.5t199 -185.5l57 -46q173 -136 236 -243.5
t63 -237.5q0 -82 -40 -177.5t-134 -162.5q-124 -86 -309 -86zM866 1964q46 -42 66 -82q6 -15 3 -21t-11 -6q-40 0 -84 -16q-112 -41 -291 -125q-28 -12 -33 -12q-3 0 -7.5 2.5t-4.5 5.5q0 9 16 25q54 50 135 119.5t117 93.5q46 32 59 32q19 0 35 -16z" />
    <glyph glyph-name="sacute" unicode="&#x15b;" horiz-adv-x="1048" 
d="M459 -29q-144 0 -244 45q-19 9 -23 20t-4 50q0 62 9 193q3 28 16 28q14 0 14 -20q0 -37 6 -62q19 -93 94 -138.5t173 -45.5q119 0 185.5 67t66.5 152q0 86 -44 151t-159 158l-82 64q-139 111 -188.5 199t-49.5 188q0 141 104 228t275 87q94 0 166 -16q49 -10 70 -10
q18 0 18 -13l-2 -26q-2 -25 -4 -72t-2 -100q0 -43 -14 -43q-12 0 -15 22q-7 64 -24 97q-7 12 -17.5 23.5t-35.5 30.5t-71 30.5t-106 11.5q-94 0 -154.5 -53.5t-60.5 -143.5q0 -71 45 -129t174 -156l48 -36q154 -119 211 -211.5t57 -206.5q0 -71 -36 -152t-120 -139
q-113 -72 -276 -72zM780 1724q48 -39 68 -71q7 -13 4.5 -19t-10.5 -6q-1 0 -14.5 -3.5t-31 -8.5t-30.5 -10q-122 -57 -262 -142l-6 -4l-11 -5.5t-11.5 -5t-10.5 -1t-4 7.5q0 11 14 25q8 8 63 66.5t94 98t60 56.5q44 35 53 35q20 0 35 -13z" />
    </font>
</defs>
</svg>
