<?xml version="1.0" standalone="no"?>
<!DOCTYPE svg PUBLIC "-//W3C//DTD SVG 1.1//EN" "http://www.w3.org/Graphics/SVG/1.1/DTD/svg11.dtd" >
<svg xmlns="http://www.w3.org/2000/svg" xmlns:xlink="http://www.w3.org/1999/xlink" version="1.1">
<metadata>
Created by FontForge 20201107 at Thu Feb 20 18:54:31 2014
 By 
extracted by PdfGrabber (extracted by PdfGrabber)
</metadata>
<defs>
<font id="TrajanPro3ExtraLight" horiz-adv-x="500" >
  <font-face 
    font-family="Trajan Pro 3"
    font-weight="200"
    font-stretch="normal"
    units-per-em="1000"
    panose-1="0 0 0 0 0 0 0 0 0 0"
    ascent="800"
    descent="-200"
    x-height="640"
    cap-height="753"
    bbox="-149 -422 1978 1027"
    underline-thickness="0"
    underline-position="50"
    unicode-range="U+0020-25CA"
  />
<missing-glyph horiz-adv-x="504" 
d="M0 0v710h504v-710h-504zM81 51h342l-171 258zM282 355l171 -259v518zM51 614v-518l171 259zM81 659l171 -258l171 258h-342z" />
    <glyph glyph-name=".notdef" horiz-adv-x="504" 
d="M0 0v710h504v-710h-504zM81 51h342l-171 258zM282 355l171 -259v518zM51 614v-518l171 259zM81 659l171 -258l171 258h-342z" />
    <glyph glyph-name=".null" horiz-adv-x="0" 
 />
    <glyph glyph-name="nonmarkingreturn" horiz-adv-x="333" 
 />
    <glyph glyph-name="space" unicode=" " horiz-adv-x="325" 
 />
    <glyph glyph-name="space" unicode="&#xb7;" horiz-adv-x="325" 
 />
    <glyph glyph-name="exclam" unicode="!" horiz-adv-x="370" 
d="M206 180q-3 0 -5 32q-5 131 -7 260q-2 119 -7 228q0 6 -0.5 12t-1 9.5t-0.5 6.5q0 4 7 12q5 6 17.5 16.5t17.5 10.5q4 0 3 -5q-4 -15 -8 -105q0 -90 -10 -445q-1 -32 -6 -32zM209 -17q-15 0 -23 9.5t-8 22.5q0 11 8.5 21t23.5 10q12 0 20.5 -9t8.5 -22q0 -14 -8.5 -23
t-21.5 -9z" />
    <glyph glyph-name="quotedbl" unicode="&#x22;" horiz-adv-x="301" 
d="M82 820q21 0 21 -7q0 -2 -1.5 -8.5t-3.5 -20t-4.5 -34t-4.5 -55.5t-3 -77q0 -18 -4 -18q-5 0 -5 17q-1 42 -3 77.5t-4.5 55.5t-4 34t-3 21t-1.5 8q0 7 21 7zM219 820q21 0 21 -7q0 -2 -1.5 -8.5t-3.5 -20t-4.5 -34t-4.5 -55.5t-3 -77q0 -18 -4 -18q-5 0 -5 17
q-1 42 -3 77.5t-4.5 55.5t-4 34t-3 21t-1.5 8q0 7 21 7z" />
    <glyph glyph-name="numbersign" unicode="#" horiz-adv-x="565" 
d="M514 475h-118l-27 -186h113v-26h-117l-39 -263h-23l39 263h-151l-39 -263h-23l39 263h-126v26h130l27 186h-123v25h127l37 254h23l-37 -254h151l37 254h23l-37 -254h114v-25zM346 289l27 186h-151l-27 -186h151z" />
    <glyph glyph-name="dollar" unicode="$" horiz-adv-x="528" 
d="M339 852l-10 -93q51 -2 116 -19q5 -1 5 -8q-3 -36 -3 -84q0 -16 -5 -16q-3 0 -3 17q-1 46 -27.5 68t-83.5 25l-34 -330q73 -52 108.5 -100t35.5 -118q0 -91 -57 -140t-129 -54l-9 -83q-1 -7 -4 -8l-15 -4q-4 0 -4 4l9 91q-76 2 -137 32q-15 8 -18 12.5t-3 16.5q0 37 5 70
q3 18 5 18q3 0 3 -17q0 -45 20 -70q14 -18 50 -30.5t77 -14.5l38 373q-1 0 -3 2q-81 56 -110.5 101t-29.5 100q0 73 50 118t131 48l9 83q1 6 3 7l16 6q4 1 4 -3zM273 426l33 317q-64 0 -108 -35t-44 -106q0 -52 23 -87.5t96 -88.5zM290 375l-37 -358q76 3 116.5 47t40.5 116
q0 63 -26 104.5t-94 90.5z" />
    <glyph glyph-name="percent" unicode="%" horiz-adv-x="854" 
d="M639 0q-74 0 -113 54t-39 122q0 77 41 134t118 57q73 0 112.5 -54t39.5 -122q0 -77 -40.5 -134t-118.5 -57zM648 17q64 0 92.5 44.5t28.5 115.5q0 69 -35 121t-99 52q-61 0 -90 -44.5t-29 -115.5q0 -67 35.5 -120t96.5 -53zM271 -6l-24 -5q-5 -2 -6 2q0 1 1 2
q74 170 325 757q-127 -11 -280 -18v-2q78 -50 78 -157q0 -76 -40 -133.5t-117 -57.5q-74 0 -113 54t-39 122q0 77 42 134.5t121 57.5q69 0 202.5 8.5t171.5 14.5q4 0 4 -3q0 -2 -11 -30l-309 -741q-2 -4 -6 -5zM216 399q62 0 91.5 45t29.5 115q0 68 -34 121t-94 53
q-64 0 -94 -45t-30 -116q0 -69 35 -121t96 -52z" />
    <glyph glyph-name="ampersand" unicode="&#x26;" horiz-adv-x="797" 
d="M302 -17q-105 0 -171 68t-66 162q0 136 147 236q-45 66 -45 138t53 126t138 54q67 0 104 -22q19 -11 19 -30q0 -24 -3 -69q-1 -21 -5 -21t-4 11q0 59 -32 83q-32 26 -94 26q-64 0 -107 -36t-43 -107q0 -59 32 -115t145 -176q148 -148 191 -183q30 37 53.5 99.5
t23.5 107.5q0 41 -18 54q-17 13 -54 17q-13 1 -13 4t13 3q53 0 93 -10q12 -3 12 -21q0 -64 -31.5 -141t-67.5 -123q64 -52 125 -85q53 -28 118 -28q14 0 14 -3q0 -5 -14 -5q-33 -1 -78 -1q-22 0 -39 4t-55.5 27t-91.5 68l-7 -9l-14.5 -14.5t-20.5 -17.5t-27.5 -20t-33.5 -19
t-41 -16.5t-48.5 -11t-56.5 -4.5zM324 8q75 0 125.5 25t91.5 71q-111 99 -204 199q-67 72 -117 134q-126 -77 -126 -202q0 -108 67 -167.5t163 -59.5z" />
    <glyph glyph-name="quotesingle" unicode="'" horiz-adv-x="206" 
d="M102 820q21 0 21 -7q0 -2 -1.5 -8.5t-3.5 -20t-4.5 -34t-4.5 -55.5t-3 -77q0 -18 -5 -18t-5 17q-1 42 -3 77.5t-4 55.5t-4 34l-3 21t-1 8q0 7 21 7z" />
    <glyph glyph-name="parenleft" unicode="(" horiz-adv-x="400" 
d="M126 355q0 -264 165 -442q4 -4 6 -7t-1 -5q-2 0 -11 7q-71 62 -130 176.5t-59 260.5q0 76 20.5 150.5t52 130t61.5 94.5t58 63q8 6 10 6q7 0 -7 -14q-165 -179 -165 -420z" />
    <glyph glyph-name="parenright" unicode=")" horiz-adv-x="400" 
d="M274 335q0 264 -165 442q-4 4 -6 7t1 5q2 0 11 -7q71 -62 130 -176.5t59 -260.5q0 -76 -20.5 -150.5t-52 -130t-61.5 -94.5t-58 -63q-8 -6 -10 -6q-5 0 7 14q165 181 165 420z" />
    <glyph glyph-name="plus" unicode="+" horiz-adv-x="642" 
d="M547 351h-212v-227h-26v227h-214v24h213v219h26v-219h213v-24z" />
    <glyph glyph-name="comma" unicode="," horiz-adv-x="150" 
d="M59 39q0 8 11.5 22.5t21.5 14.5q6 0 12 -13.5t6 -32.5q0 -72 -64 -148q-16 -20 -22 -20q-4 0 2 8l2 2l1 2q51 65 51 109q0 21 -17 47q-4 7 -4 9z" />
    <glyph glyph-name="hyphen" unicode="-" horiz-adv-x="319" 
d="M64 351h192q23 0 23 -5q0 -4 -25 -5q-95 -7 -178 -20q-6 -1 -14 -3.5t-13 -4.5l-5 -2q-6 0 -2 9l10 24q4 7 12 7z" />
    <glyph glyph-name="period" unicode="." horiz-adv-x="141" 
d="M71 -8q-15 0 -23 9.5t-8 22.5q0 11 8 21t23 10q12 0 21 -9t9 -22q0 -14 -8.5 -23t-21.5 -9z" />
    <glyph glyph-name="slash" unicode="/" horiz-adv-x="440" 
d="M57 -10l304 776q3 5 6 5q8 0 17 -6q2 -2 -2 -12l-305 -776q-2 -5 -5 -5q-7 0 -15 8q-3 3 0 10z" />
    <glyph glyph-name="zero" unicode="0" horiz-adv-x="586" 
d="M516 407q0 -119 -24 -212.5t-78 -152.5t-131 -59q-94 0 -153.5 105.5t-59.5 273.5q0 192 63 298.5t170 106.5q56 0 99.5 -35.5t67 -91.5t35 -115.5t11.5 -117.5zM488 371q0 172 -53 273.5t-148 101.5q-88 0 -138.5 -93t-50.5 -264q0 -169 53.5 -277t151.5 -108
q82 0 133.5 98.5t51.5 268.5z" />
    <glyph glyph-name="one" unicode="1" horiz-adv-x="361" 
d="M174 301v377q0 37 -7 37q-11 0 -52.5 -20.5t-47.5 -20.5q-4 0 -4 3t7 7q52 29 114 71q16 12 20 12q3 0 3 -21l-1 -8v-25.5t-1 -40.5t-1.5 -60.5t-0.5 -80t-0.5 -103.5t-0.5 -127q0 -150 2 -238q1 -29 10 -41t31 -14q14 -2 27 -2t13 -4q0 -5 -13 -5q-20 0 -45 1.5t-30 1.5
q-4 0 -40 -1.5t-56 -1.5q-14 0 -14 5q0 4 13 4q15 0 23 1q28 3 36.5 13t11.5 46q3 44 3 235z" />
    <glyph glyph-name="two" unicode="2" horiz-adv-x="507" 
d="M400 -1q-60 0 -178 0.5t-178 0.5q-17 0 -17 6q0 5 20 22q199 179 278 294t79 234q0 91 -53.5 142t-128.5 51q-76 0 -112 -24q-33 -22 -33 -87q0 -11 -3 -11t-5 10q-6 54 -6 85q0 8 8 12q72 33 160 33q97 0 150 -57t53 -148q0 -39 -10.5 -79.5t-23.5 -72.5t-42.5 -74.5
t-49.5 -68t-64 -72t-65.5 -67.5t-74.5 -72q-21 -20 -31 -30q-4 -4 3 -4h95q131 0 201 3q41 1 58.5 20.5t28.5 68.5q2 8 5 8q2 0 2 -7q0 -11 -8 -46.5t-16 -55.5q-4 -10 -10.5 -12t-31.5 -2z" />
    <glyph glyph-name="three" unicode="3" horiz-adv-x="516" 
d="M177 -18q-69 0 -105 25q-16 12 -16 28q0 39 6 83q1 11 4 11t3 -10q0 -15 1 -36q3 -44 36.5 -62t102.5 -18q87 0 147.5 54.5t60.5 146.5q0 48 -19 86t-50.5 60.5t-68 35t-76.5 15.5q-22 2 -22 7t30 10q76 14 126 57t50 124q0 23 -7 46t-23 47.5t-49.5 40t-79.5 15.5
q-62 0 -96 -23.5t-33 -83.5q0 -11 -2 -11q-3 0 -4 10q-5 38 -5 72q0 16 12 23q58 31 140 31q48 0 84.5 -15t55.5 -39.5t28 -49.5t9 -50q0 -70 -43 -118t-105 -75q-3 -1 0 -3q27 -8 53 -20t56.5 -34.5t49.5 -59t19 -81.5q0 -102 -75.5 -170.5t-194.5 -68.5z" />
    <glyph glyph-name="four" unicode="4" horiz-adv-x="562" 
d="M365 251q-254 0 -313 4q-19 1 -19 6t9 19q48 72 338 478q7 9 11 9t4 -17q0 -4 -0.5 -64t-0.5 -86v-324q64 0 98 2q24 1 36 16q3 3 4 1.5t0 -4.5q-4 -12 -9 -26q-5 -9 -7.5 -11.5t-11.5 -2.5h-110q0 -166 1 -188q2 -40 11 -48.5t54 -10.5q11 0 11 -4q0 -3 -12 -3
q-31 0 -52.5 1.5t-25.5 1.5q-3 0 -28 -1.5t-55 -1.5q-12 0 -12 3q0 4 12 4q41 0 52 10t13 50q2 44 2 187zM365 276v429q-29 -39 -157.5 -222.5t-139.5 -205.5q7 -1 297 -1z" />
    <glyph glyph-name="five" unicode="5" horiz-adv-x="515" 
d="M341 729h-181l-28 -214q43 -10 75.5 -19t79 -30.5t76.5 -47.5t52.5 -69.5t22.5 -96.5q0 -108 -74.5 -188.5t-200.5 -80.5q-65 0 -96 20q-13 8 -13 22q0 24 4 76q1 13 4 13t3 -12q0 -56 30 -77t97 -21q87 0 152 62.5t65 166.5q0 59 -21.5 103.5t-63.5 74.5t-92 49t-118 34
q-7 1 -6 11l32 236q1 9 7 9h218q55 0 62 1q6 1 20 3q3 1 4 0t0 -4q-8 -32 -13 -93q-1 -9 -4 -9t-3 11q1 47 -13 58.5t-77 11.5z" />
    <glyph glyph-name="six" unicode="6" horiz-adv-x="566" 
d="M277 -17q-93 0 -150 80.5t-57 196.5q0 98 31 183t84 145t111 101.5t122 67.5q23 10 30 10q4 0 4 -3q0 -4 -23 -14q-59 -25 -113 -64t-104.5 -96.5t-81 -139.5t-30.5 -177q0 -116 53 -192t146 -76q79 0 125 53.5t46 145.5q0 107 -50.5 157t-122.5 50q-65 0 -114 -32
q-8 -4 -8 0q0 3 5 7q19 14 59.5 30t81.5 16q45 0 80.5 -19.5t56 -50t30.5 -64t10 -65.5q0 -111 -61 -180.5t-160 -69.5z" />
    <glyph glyph-name="seven" unicode="7" horiz-adv-x="490" 
d="M112 750h346q9 0 9 -4q0 -2 -12 -22q-66 -116 -159.5 -337t-114.5 -331q-3 -17 -3 -34q0 -6 -20 -22.5t-24 -16.5q-5 0 -5 8q0 9 5 27q78 271 300 711h-261q-72 0 -90 -14q-24 -20 -31 -71q-1 -10 -5 -10q-3 0 -2 12q0 6 5.5 48t6.5 51q1 10 6 10q1 0 6.5 -1.5t16.5 -2.5
t26 -1z" />
    <glyph glyph-name="eight" unicode="8" horiz-adv-x="549" 
d="M301 409q86 -46 121 -81q57 -58 57 -132q0 -89 -60.5 -151t-152.5 -62q-80 0 -138 51.5t-58 137.5q0 76 50.5 129.5t131.5 99.5q-67 37 -106.5 80t-39.5 109q0 70 51.5 123.5t135.5 53.5q66 0 113 -43.5t47 -111.5q0 -37 -14 -69.5t-41 -58.5t-46.5 -40.5t-50.5 -34.5z
M266 394q-80 -46 -123 -96t-43 -118q0 -75 49.5 -125t132.5 -50q81 0 124 48t43 126q0 34 -10 63t-24 48.5t-41 39.5t-48.5 32.5t-59.5 31.5zM286 416q65 38 101 82t36 102q0 63 -39.5 105.5t-104.5 42.5q-74 0 -109.5 -42t-35.5 -101q0 -38 10.5 -67t35.5 -51.5t46 -36
t60 -34.5z" />
    <glyph glyph-name="nine" unicode="9" horiz-adv-x="560" 
d="M282 767q95 0 151.5 -79.5t56.5 -200.5q0 -86 -24 -164t-61 -133.5t-84 -100t-89 -70.5t-79 -38q-8 -3 -12.5 -3.5t-5.5 1.5q0 4 7 7q61 24 115 65t101 100t74.5 143t27.5 181q0 134 -56.5 202.5t-140.5 68.5t-126 -54.5t-42 -125.5q0 -59 19.5 -102t49.5 -63.5t56.5 -29
t50.5 -8.5q59 0 100 24q6 3 9 3q7 0 -6 -9q-52 -39 -123 -39q-87 0 -135 62t-48 136q0 98 61 162.5t153 64.5z" />
    <glyph glyph-name="colon" unicode=":" horiz-adv-x="261" 
d="M131 -8q-15 0 -23 9.5t-8 22.5q0 11 8.5 21t23.5 10q12 0 20.5 -9t8.5 -22q0 -14 -8.5 -23t-21.5 -9zM131 401q-15 0 -23 9.5t-8 22.5q0 11 8.5 21t23.5 10q12 0 20.5 -9t8.5 -22q0 -14 -8.5 -23t-21.5 -9z" />
    <glyph glyph-name="semicolon" unicode=";" horiz-adv-x="201" 
d="M101 401q-15 0 -23 9.5t-8 22.5q0 11 8.5 21t23.5 10q12 0 20.5 -9t8.5 -22q0 -14 -8.5 -23t-21.5 -9zM79 39q0 8 11.5 22.5t21.5 14.5q6 0 12 -13.5t6 -32.5q0 -72 -64 -148q-16 -20 -22 -20q-4 0 2 8l2 2l1 2q51 65 51 109q0 21 -17 47q-4 7 -4 9z" />
    <glyph glyph-name="less" unicode="&#x3c;" horiz-adv-x="600" 
d="M505 105l-410 232v25l410 230v-27l-385 -215l385 -218v-27z" />
    <glyph glyph-name="equal" unicode="=" horiz-adv-x="642" 
d="M547 239h-452v26h452v-26zM547 437h-452v26h452v-26z" />
    <glyph glyph-name="greater" unicode="&#x3e;" horiz-adv-x="600" 
d="M95 595l410 -232v-25l-410 -230v27l385 215l-385 218v27z" />
    <glyph glyph-name="question" unicode="?" horiz-adv-x="541" 
d="M279 767q72 0 115 -46t43 -114q0 -22 -2.5 -40.5t-11.5 -40t-15 -33.5t-25.5 -38.5t-28.5 -38t-39.5 -47.5t-44.5 -53q-32 -38 -32 -72q0 -33 21 -60q11 -14 11 -15q0 -2 -2 -2q-7 0 -22.5 17.5t-20.5 28.5q-13 27 -13 46q0 22 24 51q18 24 72 89q60 72 79.5 115.5
t19.5 95.5q0 57 -37 99t-102 42q-77 0 -108 -39q-22 -24 -23 -78q0 -8 -2 -8q-3 0 -4 8q-3 22 -3 80q0 9 11 16q58 37 140 37zM262 -16q-15 0 -23 9.5t-8 22.5q0 11 8 21t23 10q12 0 21 -9t9 -22q0 -14 -8.5 -23t-21.5 -9z" />
    <glyph glyph-name="bracketleft" unicode="@" horiz-adv-x="390" 
d="M156 663v-625q0 -103 6 -108q12 -9 116 -9q11 0 11 -4t-12 -4h-138q-6 0 -7.5 2.5t-1.5 13.5v842q0 10 7 10h141q12 0 12 -4t-13 -4q-103 -3 -114 -10q-7 -8 -7 -100z" />
    <glyph glyph-name="A" unicode="A" horiz-adv-x="683" 
d="M469 325h-273q-4 0 -6 -6l-71 -212q-20 -62 -20 -79q0 -11 4.5 -16.5t16.5 -6.5q6 -1 20 -1q12 0 12 -3q0 -4 -11 -4q-12 0 -38 1.5t-29 1.5q-2 0 -26 -1.5t-49 -1.5q-13 0 -13 4q0 3 12 3q17 0 25 2q23 5 35.5 23.5t32.5 77.5l223 629q11 31 15 31q3 0 15 -31
q4 -11 51 -131.5t107 -274t90 -232.5q13 -32 17.5 -43t14.5 -25.5t21 -19t30 -5.5q13 -1 23 -1t10 -3q0 -4 -9 -4q-68 0 -122 4q-8 0 -8 3q0 2 7 3q18 3 9 24l-111 289q-2 5 -5 5zM204 348h257q4 0 2 5l-134 347q-4 9 -6 1l-121 -349q-1 -4 2 -4z" />
    <glyph glyph-name="B" unicode="B" horiz-adv-x="643" 
d="M182 285v178q0 185 -1 217q-1 36 -5.5 46.5t-21.5 15.5q-18 4 -41 4q-9 0 -9 3q0 4 10 4q20 0 48 -1.5t32 -1.5q3 0 20.5 1t42.5 1.5t46 0.5q42 0 74.5 -11t51.5 -28t31.5 -39t16.5 -41t4 -38q0 -109 -92 -179q27 -8 53.5 -23t53.5 -39.5t44 -63t17 -84.5
q0 -82 -60.5 -147.5t-173.5 -65.5q-42 0 -81 3q-6 0 -17 1t-18 1.5t-9 0.5q-4 0 -35 -1.5t-42 -1.5q-10 0 -10 4q0 3 8 3q28 0 35 2q10 2 15 9t6 13.5t3 24.5q4 41 4 232zM211 719v-284q0 -7 8 -9q17 -5 97 -5q35 0 50.5 3t30.5 16q53 46 53 134q0 74 -40 118.5t-120 44.5
q-53 0 -73 -7q-6 -2 -6 -11zM211 399v-113v-208q1 -40 18 -49q31 -16 114 -16q77 0 130 43t53 136q0 118 -92 179q-39 26 -120 33q-52 4 -94 1q-9 -1 -9 -6z" />
    <glyph glyph-name="C" unicode="C" horiz-adv-x="796" 
d="M500 -17q-197 0 -315 108q-66 59 -93.5 139t-27.5 155q0 159 99 265q104 117 301 117q92 0 155 -12q17 -3 41.5 -8t39.5 -8t21 -3t6 -4q0 -2 -1 -9.5t-2.5 -20t-2.5 -24.5q-2 -33 -2 -60q0 -12 -4 -12t-4 12q0 32 -5 51t-10.5 26t-16.5 14q-60 39 -215 39q-80 0 -141 -18
t-87.5 -37t-54.5 -48q-87 -91 -87 -254q0 -68 23 -133t69.5 -123t129 -93.5t190.5 -35.5q62 0 104 7.5t70 31.5q34 34 44 92q2 9 5 9q4 0 2 -11q-1 -16 -9 -54t-12 -49q-4 -12 -8 -15.5t-18 -10.5q-60 -23 -184 -23z" />
    <glyph glyph-name="D" unicode="D" horiz-adv-x="886" 
d="M182 277v189q0 174 -1 215q-1 38 -7 49t-29 14q-16 2 -33 2q-11 0 -11 4q0 3 12 3q22 0 49 -1l26 -2q17 0 81 2.5t84 1.5q252 5 368 -110q44 -43 72.5 -110.5t28.5 -149.5q0 -166 -110 -284q-39 -42 -119 -77.5t-185 -35.5q-57 0 -120 5q-18 2 -40 4t-34 3t-19 1
q-16 0 -44 -2q-15 -1 -31 -1q-9 0 -9 4q0 3 11 3q14 0 23 1q21 2 26.5 13.5t7.5 49.5q3 57 3 209zM211 462v-165q0 -63 0.5 -133.5t0.5 -74.5q0 -45 16 -57q38 -25 186 -25q152 0 249 73q52 38 89 113.5t37 176.5q0 150 -87 247q-58 66 -149.5 92t-222.5 26q-78 0 -108 -7
q-10 -2 -10 -15q-1 -34 -1 -251z" />
    <glyph glyph-name="E" unicode="E" horiz-adv-x="569" 
d="M182 287v176q0 190 -1 222q-2 34 -7 44t-24 14q-18 3 -41 3q-11 0 -11 4q0 3 10 3q14 0 47.5 -1.5t40.5 -1.5q194 0 219 1q43 0 50 3q3 1 5 1q4 0 2 -5q-3 -16 -4 -23q-4 -26 -4 -66q0 -13 -4 -13q-3 0 -3 14q0 34 -8 47q-11 18 -51 19q-44 3 -181 3q-6 0 -6 -10v-309
q0 -3 3 -3q171 0 194 1t31.5 5t12.5 14q3 8 5 8q3 0 1 -8l-3 -14q-3 -14 -4 -23q-3 -24 -3 -62q0 -10 -4 -10q-3 0 -3 10q-1 23 -4 33q-6 20 -38 23q-35 3 -185 3q-3 0 -3 -3v-98q0 -172 3 -214q1 -28 7.5 -40t28.5 -14q42 -4 83 -4q96 0 120 9q30 12 39 74q1 8 4 8
q2 0 2 -8q0 -33 -12 -81q-4 -16 -12 -20t-42 -4q-95 0 -173 4q-39 2 -63 2q-6 0 -34.5 -1.5t-38.5 -1.5q-12 0 -12 4q0 3 11 3q15 0 29 2q17 3 22.5 17.5t6.5 70.5q2 82 2 193z" />
    <glyph glyph-name="F" unicode="F" horiz-adv-x="557" 
d="M182 287v176q0 190 -1 222q-1 26 -3 35.5t-10 16t-26 7.5q-10 1 -29 1q-9 0 -9 4t10 4q16 0 48.5 -1.5t42.5 -1.5q213 0 236 1q24 0 42 2q2 0 6 1l4 1q3 0 2 -6q-4 -23 -4 -25q-4 -37 -4 -65q0 -11 -4 -11t-4 11q0 31 -5 43q-5 14 -15 19.5t-37 6.5q-64 3 -206 3
q-5 0 -5 -5v-313q0 -4 3 -4h9q9 0 23.5 0.5t31 0.5h36.5h36q71 0 90.5 3t26.5 18q3 6 5 6q3 0 1 -7q0 -2 -3 -15t-4 -22q-5 -30 -5 -70q0 -11 -3 -11q-4 0 -4 10q1 38 -7.5 50t-37.5 14q-53 3 -195 3q-3 0 -3 -4v-99q0 -177 3 -231q2 -29 8 -38t28 -12q8 -1 30 -1
q12 0 12 -4q0 -3 -12 -3q-28 0 -73 3h-8q-5 0 -29 -1.5t-41 -1.5q-12 0 -12 4q0 3 12 3q17 0 24 1q16 2 21 16t6 57q2 86 2 209z" />
    <glyph glyph-name="G" unicode="G" horiz-adv-x="835" 
d="M714 224v-147q0 -30 -1 -37t-6 -10q-89 -47 -234 -47q-76 0 -156.5 27t-137.5 82q-115 108 -115 286q0 196 144 305q111 84 290 84q78 0 154 -16q61 -13 75 -14q5 0 5 -6q0 -3 -2 -14t-3.5 -35.5t-1.5 -61.5q0 -14 -4 -14t-4 14q-1 51 -13 72q-14 25 -78 40.5t-167 15.5
q-59 0 -124.5 -18.5t-116.5 -58.5q-54 -42 -89 -114.5t-35 -161.5q0 -187 129 -300q44 -38 107 -60.5t101 -27t71 -4.5q117 0 163 27q20 12 20 36v175q0 82 -6 100.5t-32 21.5q-16 2 -38 2q-12 0 -12 4t12 4q23 0 56.5 -1t35.5 -1q1 0 28 1t40 1q12 0 12 -4t-12 -4
q-11 0 -22 -1q-17 -1 -23 -11t-8 -38q-2 -34 -2 -91z" />
    <glyph glyph-name="H" unicode="H" horiz-adv-x="927" 
d="M214 434h499q3 0 3 6v21q0 188 -1 220q-2 39 -7.5 50t-28.5 13q-20 2 -33 2q-12 0 -12 4q0 3 13 3q14 0 47 -1.5t36 -1.5q2 0 32 1.5t36 1.5q12 0 12 -3q0 -4 -11 -4q-8 0 -15 -1q-24 -2 -30 -12.5t-8 -47.5q-1 -32 -1 -222v-176q0 -187 3 -229q2 -30 9 -39.5t30 -12.5
q14 -2 32 -2q11 0 11 -4q0 -3 -12 -3q-17 0 -37 0.5t-33 1.5t-14 1l-30 -2q-29 -1 -44 -1q-12 0 -12 3q0 4 12 4q17 0 26 2q8 2 12.5 4.5t9 13t5.5 29.5q3 42 3 251v101q0 6 -3 6h-498q-4 0 -4 -4v-103q0 -176 3 -239q1 -23 3 -33t10 -17t24 -9q22 -2 32 -2q12 0 12 -3
q0 -4 -12 -4q-17 0 -37.5 0.5t-34.5 1.5t-15 1q-2 0 -26 -1.5t-43 -1.5q-13 0 -13 4q0 3 13 3q11 0 24 1q15 2 21 14.5t7 49.5q3 63 3 218v180q0 183 -1 215q-1 28 -3.5 39t-10.5 17t-27 7q-16 1 -26 1t-10 4q0 3 10 3q14 0 46 -1.5t36 -1.5q3 0 30.5 1.5t38.5 1.5t11 -4
q0 -3 -9 -3q-6 0 -17 -1q-22 -2 -29.5 -13t-8.5 -46q-1 -32 -1 -225v-19q0 -8 3 -8z" />
    <glyph glyph-name="I" unicode="I" horiz-adv-x="395" 
d="M182 287v177q0 185 -1 217q-1 18 -1.5 25t-2.5 16.5t-6 12t-11 5.5t-19 4q-5 0 -11.5 1t-10.5 1q-11 1 -11 4t11 3q12 0 42.5 -1.5t34.5 -1.5q5 0 31.5 1.5t38.5 1.5q11 0 11 -3t-10 -4l-22 -2q-22 -3 -27 -14t-6 -45q-1 -32 -1 -222v-176q0 -165 3 -228q2 -28 9 -39
t28 -14q16 -2 30 -2q11 0 11 -3q0 -4 -12 -4q-15 0 -35 0.5t-34 1.5t-15 1q-3 0 -28 -1.5t-40 -1.5q-12 0 -12 4q0 3 11 3q10 0 19 1q19 1 24.5 12t7.5 38q4 56 4 232z" />
    <glyph glyph-name="J" unicode="J" horiz-adv-x="331" 
d="M188 463v-342q0 -126 -26 -193q-27 -68 -93 -122q-21 -16 -32 -23q-7 -4 -11 -4q-3 0 -3 2t10 9q36 26 58 51q37 42 52.5 110t15.5 209v303q0 153 -2 217q-2 40 -7.5 52t-30.5 13q-16 1 -26 1t-10 4q0 3 12 3q19 0 47 -1.5t31 -1.5t26 1.5t37 1.5q10 0 10 -3q0 -4 -10 -4
h-9q-24 -1 -30.5 -13t-7.5 -48q-1 -32 -1 -222z" />
    <glyph glyph-name="K" unicode="K" horiz-adv-x="713" 
d="M520 750q0 3 12 3q9 0 32 -1t34 -1q6 0 37 1t41 1q12 0 12 -3q0 -4 -14 -4q-23 0 -43 -11q-18 -9 -103 -89q-137 -137 -257 -251q54 -60 148.5 -155.5t130.5 -127.5q69 -64 100 -83t70 -23q22 -2 39 -2q12 0 12 -3q0 -4 -14 -4h-60q-51 0 -79 15t-78 63q-60 59 -302 311
q-3 3 1 7q26 16 239 232q61 62 76.5 79.5t15.5 25.5q0 15 -38 16q-12 0 -12 4zM182 287v177q0 185 -1 217q-1 29 -3 39t-10 16.5t-27 8.5q-9 1 -23 1q-10 0 -10 4q0 3 10 3q12 0 43 -1.5t35 -1.5q5 0 32 1.5t39 1.5q10 0 10 -4q0 -3 -9 -3q-14 0 -21 -1q-23 -4 -28.5 -15
t-6.5 -45q-1 -32 -1 -222v-176q0 -165 3 -228q2 -28 9 -39t28 -14q16 -2 30 -2q11 0 11 -3q0 -4 -12 -4q-15 0 -35 0.5t-34 1.5t-15 1q-3 0 -28 -1.5t-40 -1.5q-12 0 -12 4q0 3 10 3q12 0 26 2q15 2 19.5 13t6.5 36q4 56 4 232z" />
    <glyph glyph-name="L" unicode="L" horiz-adv-x="556" 
d="M211 462v-175q0 -169 1 -208t8 -48q11 -15 129 -15q98 0 123 7q20 6 30.5 24.5t16.5 58.5q2 12 6 12q2 0 2 -8q0 -29 -17 -93q-5 -20 -18 -23q-6 -1 -36 -1q-40 0 -80.5 0.5t-69.5 1.5t-52 2t-36 1l-13 1q-8 0 -35.5 -1.5t-36.5 -1.5q-13 0 -13 4t10 4q11 0 19 1
q16 2 21.5 13.5t7.5 35.5q4 66 4 232v176q0 191 -1 223q-2 35 -8.5 46.5t-29.5 13.5q-10 1 -21 1t-11 3q0 4 10 4q14 0 41 -1.5t34 -1.5q4 0 30 1.5t38 1.5q9 0 9 -3q0 -4 -10 -4q-5 0 -16 -1q-20 -2 -27 -14.5t-8 -45.5q-1 -32 -1 -223z" />
    <glyph glyph-name="M" unicode="M" horiz-adv-x="1037" 
d="M848 741l43 -615q5 -67 12 -87.5t34 -28.5q12 -3 61 -6q11 -1 11 -4t-12 -3q-88 0 -133 5q-13 1 -13 5q0 1 6 5q8 5 7 32l-38 640l-293 -650q-16 -34 -20 -34t-10 14q-14 29 -120 268q-105 233 -179 406l-39 -577q-2 -28 -2 -55q0 -44 28 -49q15 -3 39 -3q9 0 9 -4
q0 -3 -10 -3q-18 0 -48.5 1.5t-34.5 1.5q-2 0 -30.5 -1.5t-41.5 -1.5q-12 0 -12 4q0 3 10 3q15 0 28 2q18 2 25.5 20.5t13.5 81.5l49 648q1 12 5 12q2 0 10 -14l314 -698l317 700q4 11 8 11t6 -26z" />
    <glyph glyph-name="N" unicode="N" horiz-adv-x="907" 
d="M146 142q3 248 1 560q0 65 6 65q3 0 30 -32q21 -25 58 -71.5t95 -119t103 -128.5q96 -120 187.5 -232t109.5 -134l-5 591q0 66 -7 82.5t-35 20.5q-18 2 -26 2q-10 0 -10 4q0 3 10 3q15 0 45 -1.5t33 -1.5q4 0 34.5 1.5t42.5 1.5q10 0 10 -3t-9 -4q-5 0 -12 -1t-12 -1
q-25 -2 -30.5 -19.5t-6.5 -68.5v-7l1 -546q0 -116 -6 -116q-4 0 -48 55q-222 272 -270 333q-57 71 -159 199t-107 134l6 -598q1 -33 1.5 -45.5t3 -28t7.5 -19.5t13 -7.5t23 -4.5q9 -1 17 -1q12 0 12 -3q0 -4 -12 -4q-15 0 -42.5 1.5t-32.5 1.5t-31 -1.5t-43 -1.5
q-11 0 -11 4q0 3 10 3q8 0 22 1q15 1 21.5 10t9 36.5t3.5 90.5z" />
    <glyph glyph-name="O" unicode="O" horiz-adv-x="889" 
d="M438 -17q-91 0 -164 33t-118 88.5t-68.5 123.5t-23.5 142q0 76 25.5 146.5t73 127t122 90t165.5 33.5q167 0 271 -105.5t104 -266.5q0 -172 -108 -292t-279 -120zM457 5q144 0 241 97.5t97 275.5q0 92 -31 165t-82 116t-112.5 65t-127.5 22q-169 0 -258.5 -101
t-89.5 -257q0 -180 104 -281.5t259 -101.5z" />
    <glyph glyph-name="P" unicode="P" horiz-adv-x="600" 
d="M182 287v177q0 187 -1 219q-1 37 -9 48.5t-33 13.5q-9 1 -25 1q-10 0 -10 4q0 3 11 3q14 0 44 -1.5t34 -1.5q3 0 23 1t47 1.5t47 0.5q57 0 99 -13.5t53 -22.5t27 -25q48 -48 48 -126q0 -97 -67 -162t-174 -65q-13 0 -20 1q-9 2 -9 4q0 4 13 4q108 0 167.5 55t59.5 140
q0 125 -98 173q-42 21 -119 21q-40 0 -64 -6q-15 -4 -15 -22v-441q0 -147 3 -210q2 -29 8.5 -40t29.5 -13q14 -1 30 -1q10 0 10 -4q0 -3 -10 -3q-15 0 -35.5 0.5t-35 1.5t-15.5 1q-3 0 -27 -1.5t-39 -1.5q-13 0 -13 3t11 3q16 0 25 2q14 3 18.5 14t6.5 35q4 56 4 233z" />
    <glyph glyph-name="Q" unicode="Q" horiz-adv-x="889" 
d="M616 24q-80 -41 -177 -41q-74 0 -137 23.5t-106 62t-73.5 88.5t-44.5 102.5t-14 105.5q0 76 24.5 147t71 128.5t122 92t168.5 34.5q165 0 270 -105t105 -271q0 -106 -46.5 -197.5t-131.5 -150.5l165 -83q140 -71 250 -106.5t219 -35.5q119 0 225 42q11 4 15 4q3 0 3 -2
q0 -4 -8 -7q-128 -58 -289 -58q-86 0 -185.5 30.5t-245.5 105.5zM459 5q56 0 112 20.5t107.5 61.5t84 115.5t32.5 170.5q0 79 -21.5 144t-56.5 106.5t-81.5 70t-94.5 40.5t-97 12q-87 0 -155 -28.5t-109.5 -78t-63 -113t-21.5 -137.5q0 -96 31 -172t83 -121t115.5 -68
t134.5 -23z" />
    <glyph glyph-name="R" unicode="R" horiz-adv-x="699" 
d="M182 287v177q0 183 -1 215q-1 36 -8 48.5t-24 15.5q-16 3 -36 3q-9 0 -9 4q0 3 10 3q11 0 40 -1.5t39 -1.5q7 0 53.5 1.5t61.5 1.5q103 0 154 -35q80 -55 80 -155q0 -124 -121 -224q131 -184 201 -258q36 -39 64 -56t65 -20q13 -1 23 -1q11 0 11 -3q0 -4 -12 -4h-33
q-54 0 -81 10.5t-52 37.5q-24 24 -95 118q-16 21 -57.5 79.5t-54.5 74.5q-8 9 -15 9l-170 2q-4 0 -4 -6v-87q0 -114 3 -177q2 -28 8.5 -38.5t28.5 -13.5q22 -2 34 -2q11 0 11 -4q0 -3 -11 -3q-15 0 -36 0.5t-36.5 1t-16.5 0.5q-3 0 -26.5 -1t-38.5 -1q-11 0 -11 3q0 4 9 4
q8 0 17 1q29 2 32 49q4 56 4 233zM211 713v-353q0 -4 5 -5q40 -11 142 -11q46 0 73 22q33 27 56 74t23 102q0 85 -51.5 139.5t-154.5 54.5q-63 0 -83 -8q-10 -4 -10 -15z" />
    <glyph glyph-name="S" unicode="S" horiz-adv-x="497" 
d="M203 -17q-73 0 -122 26q-13 7 -13 27q0 62 3 84q1 11 5 11q3 0 3 -11q0 -30 4 -49q17 -69 144 -69q74 0 118.5 48t44.5 119q0 61 -24.5 101t-102.5 101l-50 38q-118 90 -118 187q0 76 50 123.5t140 47.5q40 0 86 -10q16 -4 32 -5q4 0 4 -4q0 -1 -1 -10.5t-2 -30.5t-1 -49
q0 -12 -4 -12t-4 9q0 41 -11 56q-29 39 -119 39q-60 0 -100.5 -37t-40.5 -106q0 -49 26.5 -91t103.5 -98l37 -27q79 -61 104 -106.5t25 -100.5q0 -34 -17 -80t-60 -79q-54 -42 -140 -42z" />
    <glyph glyph-name="T" unicode="T" horiz-adv-x="652" 
d="M342 731v-444q0 -166 3 -229q1 -21 3 -29t9.5 -14.5t24.5 -8.5q14 -2 39 -2q8 0 8 -3q0 -4 -10 -4q-15 0 -37 0.5t-38 1.5t-17 1q-3 0 -30 -1.5t-42 -1.5q-10 0 -10 4q0 3 10 3q19 0 28 2q14 3 19 13.5t7 34.5q4 56 4 233v444q-153 0 -187 -1q-45 -2 -62 -8t-24 -25
q-2 -5 -8 -26q-3 -11 -6 -11q-4 0 -1 12q9 36 15 72q3 15 8 15q1 0 2 -0.5t2.5 -1t3.5 -0.5q25 -7 117 -7h317q99 0 121 5q2 0 5 1q4 1 5 1q3 0 3 -15q0 -4 -1.5 -34.5t-1.5 -41.5t-4 -11q-3 0 -3 11v14q0 26 -11 36t-43 12q-37 3 -218 3z" />
    <glyph glyph-name="U" unicode="U" horiz-adv-x="828" 
d="M167 463v-147q0 -97 20.5 -152t56.5 -92q34 -35 85.5 -52t102.5 -17q114 0 172 69q64 76 64 258v133q0 175 -3 223q-2 31 -9.5 43.5t-32.5 14.5q-16 2 -25 2q-11 0 -11 4q0 3 12 3q17 0 47 -1.5t34 -1.5q5 0 29 1.5t36 1.5q11 0 11 -4q0 -3 -11 -3h-9q-25 -1 -32 -13
t-9 -47q-1 -32 -1 -223v-127q0 -100 -18.5 -169.5t-71.5 -118.5q-70 -65 -198 -65q-115 0 -186 71q-41 41 -61.5 98t-20.5 158v153q0 185 -1 217q-1 37 -6.5 48.5t-22.5 14.5t-38 3q-11 0 -11 4q0 3 12 3t44.5 -1.5t36.5 -1.5t32.5 1.5t40.5 1.5q11 0 11 -3q0 -4 -11 -4
q-4 0 -20 -2q-21 -2 -28.5 -15t-8.5 -45t-1 -221z" />
    <glyph glyph-name="V" unicode="V" horiz-adv-x="706" 
d="M330 17l-244 639q-23 61 -33 72q-13 14 -40 17q-11 1 -16 1q-11 0 -11 4q0 3 12 3q14 0 38.5 -1t30.5 -1q7 0 35.5 1t30.5 1q11 0 11 -4q0 -3 -9 -3q-6 0 -18 -1q-21 -2 -21 -17q0 -14 30 -96l228 -595q54 128 143.5 355t107.5 282q10 28 10 48q0 12 -5.5 16.5t-26.5 6.5
q-10 1 -19 1q-7 0 -7 4q0 3 9 3q17 0 46 -1.5t32 -1.5t30 1.5t43 1.5q12 0 12 -4q0 -3 -11 -3q-34 0 -52 -14q-16 -14 -50 -100q-93 -239 -104 -267q-80 -197 -145 -349q-15 -33 -19 -33q-5 0 -18 34z" />
    <glyph glyph-name="W" unicode="W" horiz-adv-x="1075" 
d="M286 12l-189 643q-18 63 -27 73q-11 14 -32 16q-18 2 -28 2t-10 4q0 3 11 3q5 0 39.5 -1.5t42.5 -1.5q7 0 32 1.5t36 1.5q10 0 10 -4q0 -3 -10 -3q-12 0 -24 -2q-14 -2 -17.5 -7t-3.5 -18q0 -16 22 -102q9 -36 85 -289.5t81 -271.5l232 675q8 19 12 19t10 -21l204 -676
q8 25 74.5 222t95.5 291q41 130 41 150q0 10 -2 15t-13 9.5t-34 5.5q-10 0 -10 4q0 3 11 3q10 0 36.5 -1.5t32.5 -1.5q4 0 36 1.5t48 1.5q9 0 9 -3q0 -4 -8 -4q-13 0 -21 -1q-30 -3 -42 -20t-28 -68q-4 -12 -6 -19q-42 -128 -212 -633q-7 -22 -13 -22q-4 0 -11 21l-203 678
q-91 -268 -228 -670q-11 -29 -16 -29t-13 29z" />
    <glyph glyph-name="X" unicode="X" horiz-adv-x="625" 
d="M118 94l178 301l-156 260q-33 57 -48.5 72t-46.5 18q-11 1 -22 1q-8 0 -8 3q0 4 9 4q21 0 50.5 -1.5t32.5 -1.5q4 0 30 1.5t37 1.5q9 0 9 -3t-10 -4q-21 -2 -25 -3q-12 -3 -12 -13q0 -9 12 -31q62 -113 165 -278q21 31 88.5 142.5t73.5 123.5q17 34 17 42q0 13 -24 16
q-9 1 -18 1q-8 0 -8 4q0 3 9 3q13 0 37 -1.5t29 -1.5q3 0 32 1.5t42 1.5q10 0 10 -3q0 -4 -9 -4q-11 0 -20 -1q-23 -3 -35 -15t-51 -68l-161 -260q5 -10 98.5 -167t105.5 -174q23 -33 33.5 -42t34.5 -13q16 -2 29 -2t13 -3q0 -4 -10 -4q-97 0 -122 4q-8 1 -8 4q0 1 6 3
q16 5 -1 35q-190 321 -197 332l-171 -298q-18 -31 -20 -51q-1 -14 9 -18q8 -4 19 -4q12 0 12 -4q0 -3 -10 -3q-12 0 -37 1.5t-30 1.5q-11 0 -39.5 -1.5t-38.5 -1.5t-10 4q0 3 10 3q16 0 36 4q22 6 38.5 24t42.5 62z" />
    <glyph glyph-name="Y" unicode="Y" horiz-adv-x="595" 
d="M288 196v81q0 45 -14 69q-120 212 -183 308q-5 7 -15 23.5t-15.5 24t-14 18t-17 15.5t-17.5 7q-10 2 -32 4q-10 1 -10 4t12 3q9 0 29.5 -1.5t33.5 -1.5q9 0 34 1.5t30 1.5q8 0 8 -3t-9 -4q-16 -1 -20.5 -5t-4.5 -12q0 -6 25 -50q8 -12 98 -164.5t101 -168.5
q72 116 183 313q32 57 32 69q0 9 -6 12.5t-29 5.5q-8 1 -8 4t9 3q10 0 32 -1.5t28 -1.5q20 0 43 1.5t31 1.5q10 0 10 -3t-10 -4q-20 -2 -28 -3q-18 -3 -30 -16.5t-38 -52.5q-48 -70 -187 -315q-16 -28 -19 -38.5t-3 -44.5v-80q0 -99 2 -141q1 -27 9 -36.5t31 -12.5
q14 -2 35 -2q9 0 9 -4q0 -3 -10 -3q-27 0 -54 1.5t-32 1.5q-8 0 -36 -1.5t-40 -1.5q-9 0 -9 4q0 3 9 3q15 0 29 3t18.5 12.5t6.5 33.5q3 42 3 143z" />
    <glyph glyph-name="Z" unicode="Z" horiz-adv-x="666" 
d="M101 18h328q92 0 118.5 4t40.5 18q19 19 29 75q1 9 5 9q2 0 2 -9q0 -33 -20 -104q-3 -10 -6 -13t-11 -3q-86 0 -261.5 2.5t-247.5 2.5q-19 0 -19 5q0 6 14 25q286 402 484 701h-268q-100 0 -131.5 -2t-42.5 -10q-18 -13 -29 -64q-3 -16 -7 -16t-2 9q0 1 3 20.5t6.5 42
t5.5 36.5q1 10 5 10q2 0 4 -0.5t6.5 -1.5t8.5 -2q17 -3 191 -3h266q25 0 25 -3t-3 -8q-81 -121 -250.5 -366.5t-243.5 -354.5z" />
    <glyph glyph-name="circumflex.cyr" unicode="[" 
d="M415 762q0 -5 -4 -11q-10 -16 -17 -16q-2 0 -4 5q-6 28 -41.5 49.5t-92.5 21.5q-88 0 -148 -65q-8 -9 -11 -9q-1 0 -1 2t2.5 6t6.5 9q66 78 173 78q66 0 108 -30q29 -23 29 -40z" />
    <glyph glyph-name="backslash" unicode="\" horiz-adv-x="440" 
d="M82 758l301 -769q3 -7 0 -10q-7 -7 -15 -7q-2 0 -6 7l-304 774q-4 8 0 12q9 6 15 6q4 0 9 -13z" />
    <glyph glyph-name="bracketright" unicode="]" horiz-adv-x="390" 
d="M234 33v623q0 102 -6 107q-16 10 -116 10q-11 0 -11 4t12 4h138q6 0 7.5 -2.5t1.5 -13.5v-842q0 -10 -7 -10h-141q-12 0 -12 4t13 4q103 3 114 10q7 8 7 102z" />
    <glyph glyph-name="asciicircum" unicode="^" horiz-adv-x="535" 
d="M254 750h26l185 -366h-29l-170 340l-168 -340h-28z" />
    <glyph glyph-name="underscore" unicode="_" 
d="M0 -75h500v-50h-500v50z" />
    <glyph glyph-name="grave" unicode="`" 
d="M296 721q0 -3 -4 -1q-14 2 -158 102q-9 8 -9 10q2 3 11 5q16 2 29 2q11 0 18 -7q58 -61 102 -99q11 -10 11 -12z" />
    <glyph glyph-name="a" unicode="a" horiz-adv-x="619" 
d="M419 273h-236q-3 0 -6 -6l-62 -178q-16 -48 -16 -63q0 -18 25 -21q8 -1 13 -1q9 0 9 -3q0 -4 -8 -4q-11 0 -35 1.5t-27 1.5q-2 0 -30 -1.5t-50 -1.5q-11 0 -11 4q0 3 11 3q19 0 31 2q22 5 33 20t28 63l197 536q9 27 13 27q3 0 14 -27q72 -187 218 -539q13 -30 17 -38.5
t13 -21.5t18 -16.5t25 -4.5q15 -1 22 -1q9 0 9 -3q0 -4 -10 -4q-70 0 -111 3q-7 0 -7 3q0 1 6 3q14 5 8 21l-96 240q-2 6 -5 6zM190 294h220q4 0 2 4l-114 287q-3 10 -6 1l-104 -289q-2 -3 2 -3z" />
    <glyph glyph-name="b" unicode="b" horiz-adv-x="576" 
d="M165 242v152q0 156 -1 183q-1 29 -6.5 38.5t-21.5 14.5q-12 3 -32 3q-10 0 -10 3q0 4 10 4q18 0 44 -1.5t30 -1.5l34 1q35 2 61 2q46 0 79.5 -14t50 -36t23.5 -42.5t7 -40.5q0 -90 -82 -152q55 -16 102 -61t47 -118q0 -70 -54 -125.5t-155 -55.5q-22 0 -70 2
q-6 0 -15.5 1t-16 1.5t-8.5 0.5q-5 0 -31.5 -1.5t-36.5 -1.5q-11 0 -11 4q0 3 9 3q16 0 27 3q9 2 13.5 7t6 11.5t3.5 20.5q4 35 4 196zM194 610v-239q0 -7 8 -9q12 -3 80 -3q54 0 74 16q45 42 45 111q0 64 -35.5 102t-104.5 38q-42 0 -60 -6q-7 -2 -7 -10zM194 335v-88v-177
q1 -36 18 -45q27 -13 98 -13q63 0 110.5 36t47.5 114q0 101 -83 153q-33 22 -102 28q-58 4 -81 -1q-8 -2 -8 -7z" />
    <glyph glyph-name="c" unicode="c" horiz-adv-x="704" 
d="M443 -14q-173 0 -277 91q-105 93 -105 250q0 134 88 226q95 99 263 99q77 0 134 -10q82 -15 89 -16q6 0 6 -4q0 -2 -1 -8.5t-2.5 -17t-2.5 -21.5q-1 -28 -1 -56q0 -12 -4 -12t-4 12q-1 60 -27 79q-52 36 -188 36q-68 0 -120 -15t-75 -30.5t-47 -39.5q-77 -77 -77 -217
q0 -61 20.5 -116.5t61.5 -103.5t111.5 -76.5t162.5 -28.5q113 0 152 34q28 26 36 77q2 10 6 10t2 -12q0 -12 -17 -86q-3 -10 -7 -14.5t-17 -10.5q-49 -19 -160 -19z" />
    <glyph glyph-name="d" unicode="d" horiz-adv-x="789" 
d="M165 236v160q0 149 -1 183q-1 30 -6 38.5t-25 12.5q-18 3 -32 3q-9 0 -9 4q0 3 11 3q1 0 29.5 -1.5t40.5 -1.5q16 0 70.5 2t70.5 2q43 0 74.5 -2t80.5 -10t92.5 -29t76.5 -53q38 -37 63.5 -94t25.5 -127q0 -140 -95 -241q-34 -36 -102.5 -66t-164.5 -30q-38 0 -106 4
q-74 7 -80 7q-13 0 -39 -2q-13 -1 -29 -1q-9 0 -9 3q0 4 10 4t18 1q19 1 24.5 11.5t7.5 40.5q3 50 3 179zM194 394v-136q0 -54 1 -114.5t1 -63.5q0 -40 14 -50q31 -23 162 -23q135 0 217 63q45 33 75 95t30 148q0 126 -77 211q-51 56 -130.5 77.5t-191.5 21.5q-62 0 -88 -7
q-11 -3 -11 -13q-2 -29 -2 -209z" />
    <glyph glyph-name="e" unicode="e" horiz-adv-x="508" 
d="M165 244v150q0 161 -1 189q-2 27 -7 35.5t-21 11.5t-36 3q-9 0 -9 4q0 3 9 3q12 0 41.5 -1.5t38.5 -1.5q6 0 94 0.5t100 0.5q28 0 41 3l8 2q3 0 1 -6q-3 -11 -4 -24q-3 -19 -3 -54q0 -11 -3 -11q-4 0 -4 9q0 30 -7 41q-9 15 -46 18q-75 3 -156 3q-7 0 -7 -9v-257
q0 -4 4 -4q146 0 166 1q35 3 41 17q4 6 6 6q3 0 1 -7q-4 -22 -6 -34q-3 -21 -3 -57q0 -9 -3 -9q-4 0 -4 9q-2 24 -4 32q-6 19 -34 20q-30 3 -160 3q-4 0 -4 -3v-82q0 -109 3 -178q2 -24 7.5 -34.5t24.5 -12.5q34 -4 74 -4q82 0 105 8q26 10 33 63q1 8 4 8q2 0 2 -8
q0 -29 -10 -71q-3 -13 -11 -17t-37 -4q-45 0 -150 3q-35 2 -61 2q-6 0 -32 -1.5t-34 -1.5q-10 0 -10 5q0 4 9 4q8 0 24 2q15 2 21 14t7 59q2 70 2 163z" />
    <glyph glyph-name="f" unicode="f" horiz-adv-x="499" 
d="M165 244v150q0 160 -1 188q-2 28 -9.5 37.5t-32.5 11.5q-9 1 -17 1q-10 0 -10 4t9 4q14 0 43.5 -1.5t39.5 -1.5q181 0 209 1q33 2 38 3q6 2 8 2q4 0 3 -6l-1 -9q-2 -9 -3 -14q-4 -31 -4 -57q0 -10 -4 -10q-3 0 -3 9q0 24 -6 38q-9 20 -43 22q-56 3 -181 3q-6 0 -6 -5
v-262q0 -4 4 -4h21t49 0.5t51 0.5q60 0 76 2.5t22 14.5q3 7 6 7t1 -8q-3 -14 -6 -33q-3 -21 -3 -61q0 -9 -4 -9q-3 0 -3 8q0 32 -8 43.5t-33 12.5q-45 3 -169 3q-4 0 -4 -4v-83q0 -146 3 -192q2 -25 9 -33.5t27 -10.5q22 -2 28 -2q11 0 11 -4q0 -3 -11 -3q-34 0 -73 3h-8
q-5 0 -26 -1.5t-36 -1.5q-10 0 -10 4q0 3 10 3t16 1q16 2 22 14.5t7 47.5q2 74 2 177z" />
    <glyph glyph-name="g" unicode="g" horiz-adv-x="743" 
d="M631 188v-123q0 -35 -6 -40q-76 -39 -203 -39q-68 0 -138.5 22t-121.5 70q-101 90 -101 243q0 93 37.5 158t90.5 103q95 70 249 70q57 0 137 -15q62 -12 66 -12q5 0 5 -5q0 -2 -1.5 -12t-3 -32t-1.5 -54q0 -12 -4 -12t-4 12q-1 42 -15 63q-32 48 -211 48q-126 0 -208 -64
q-47 -35 -77 -95.5t-30 -136.5q0 -159 110 -252q92 -79 243 -79q96 0 138 21q19 11 19 29v150q0 65 -5.5 81.5t-28.5 20.5q-12 2 -33 2q-10 0 -10 4q0 3 10 3q21 0 52 -1t32 -1t26.5 1t37.5 1q9 0 9 -3q0 -4 -9 -4q-11 0 -21 -1q-15 -1 -20.5 -10t-7.5 -32q-2 -30 -2 -79z
" />
    <glyph glyph-name="h" unicode="h" horiz-adv-x="827" 
d="M198 370h433q4 0 4 5v18q0 148 -1 185q-2 30 -7.5 40.5t-25.5 12.5q-18 2 -29 2q-10 0 -10 4q0 3 11 3q14 0 43 -1.5t31 -1.5q1 0 30.5 1.5t35.5 1.5q9 0 9 -3q0 -4 -9 -4q-7 0 -15 -1q-20 -2 -25 -10.5t-7 -39.5q-2 -29 -2 -188v-150q0 -158 2 -194q2 -25 8.5 -33.5
t25.5 -10.5q13 -2 35 -2q9 0 9 -3q0 -4 -10 -4q-15 0 -34.5 0.5t-33.5 1.5t-15 1t-13.5 -0.5t-28.5 -1.5t-26 -1q-9 0 -9 4q0 3 10 3t23 2q11 2 16.5 9.5t7.5 30.5q4 35 4 211v86q0 5 -4 5h-431q-6 0 -6 -5v-86q0 -154 4 -202q1 -19 3 -27.5t9 -14.5t21 -7q18 -2 29 -2
q9 0 9 -3q0 -4 -9 -4q-15 0 -34 0.5t-32 1.5t-14 1t-25 -1.5t-41 -1.5q-10 0 -10 4q0 3 9 3q14 0 25 2q13 2 17.5 12t6.5 40q3 54 3 186v153q0 155 -1 182q-2 32 -8.5 42t-31.5 11q-10 1 -20 1q-9 0 -9 4q0 3 9 3q13 0 43 -1.5t33 -1.5q2 0 27.5 1.5t35.5 1.5q11 0 11 -4
q0 -3 -10 -3q-7 0 -16 -1q-19 -2 -24.5 -11.5t-7.5 -38.5q-2 -27 -2 -189v-16q0 -7 4 -7z" />
    <glyph glyph-name="i" unicode="i" horiz-adv-x="359" 
d="M165 244v150q0 158 -1 185q-2 31 -8 41t-30 12q-10 1 -18 1q-9 0 -9 3q0 4 9 4q11 0 40 -1.5t33 -1.5q3 0 27 1.5t35 1.5q9 0 9 -3q0 -4 -9 -4q-8 0 -15 -1q-19 -3 -24.5 -12.5t-7.5 -36.5q-2 -56 -2 -189v-150q0 -153 3 -193q2 -24 8 -34t25 -12q9 -1 25 -1q10 0 10 -4
q0 -3 -11 -3q-14 0 -31.5 0.5t-29 1.5t-12.5 1q-3 0 -28 -1.5t-38 -1.5q-9 0 -9 4q0 3 8 3q14 0 24 2q14 3 18 11.5t6 29.5q3 42 3 197z" />
    <glyph glyph-name="j" unicode="j" horiz-adv-x="319" 
d="M187 394v-283q0 -115 -23 -172q-25 -64 -84 -107q-17 -13 -30 -19q-6 -3 -9 -3t-3 2t8 7q26 15 54 45q34 36 46.5 93t12.5 182v255q0 129 -2 183q-1 23 -3 32.5t-8 14.5t-20 7q-20 2 -30 2t-10 3q0 4 10 4q17 0 45.5 -1.5t30.5 -1.5t25 1.5t36 1.5q10 0 10 -3q0 -4 -8 -4
q-13 0 -19 -1q-19 -3 -23 -12t-5 -38q-1 -28 -1 -188z" />
    <glyph glyph-name="k" unicode="k" horiz-adv-x="637" 
d="M463 637q0 3 10 3q9 0 29 -1t30 -1q6 0 34 1t37 1q10 0 10 -3q0 -4 -10 -4q-25 -1 -42 -10q-17 -8 -87 -72q-8 -7 -113.5 -107t-114.5 -108q48 -50 133.5 -133t115.5 -109q60 -53 88.5 -70t63.5 -19q16 -1 34 -1q8 0 8 -3q0 -4 -10 -4h-57q-46 0 -70.5 12.5t-67.5 51.5
q-59 56 -268 267q-4 4 0 7q26 18 210 197q77 75 77 86q0 14 -30 15q-10 0 -10 4zM165 244v150q0 158 -1 185q-2 31 -8 41t-30 12q-10 1 -18 1q-9 0 -9 3q0 4 9 4q11 0 40 -1.5t33 -1.5q3 0 27 1.5t35 1.5q9 0 9 -3q0 -4 -9 -4q-8 0 -15 -1q-19 -3 -24.5 -12.5t-7.5 -36.5
q-2 -56 -2 -189v-150q0 -153 3 -193q2 -24 8 -34t25 -12q9 -1 25 -1q10 0 10 -4q0 -3 -11 -3q-14 0 -31.5 0.5t-29 1.5t-12.5 1q-3 0 -28 -1.5t-38 -1.5q-9 0 -9 4q0 3 8 3q14 0 24 2q14 3 18 11.5t6 29.5q3 42 3 197z" />
    <glyph glyph-name="l" unicode="l" horiz-adv-x="501" 
d="M194 393v-149q0 -135 1.5 -171t8.5 -44q12 -13 114 -13q84 0 105 8q18 7 27.5 23.5t14.5 48.5q1 8 4 8t3 -7q0 -28 -15 -82q-4 -15 -11.5 -18t-36.5 -3q-54 0 -107.5 1.5t-85.5 2.5l-31 2q-5 0 -31 -1.5t-36 -1.5q-11 0 -11 4q0 3 10 3q12 0 22 2q9 2 14 8.5t6 11.5t2 21
q4 58 4 196v150q0 161 -1 189q-2 29 -8 39t-27 11q-13 1 -23 1q-8 0 -8 4q0 3 8 3q14 0 40.5 -1t32.5 -1q8 0 29.5 1t31.5 1q9 0 9 -3q0 -4 -9 -4q-8 0 -15 -1q-17 -2 -22 -11.5t-7 -36.5q-2 -30 -2 -191z" />
    <glyph glyph-name="m" unicode="m" horiz-adv-x="924" 
d="M752 630l38 -523q4 -53 11.5 -71t31.5 -25q27 -7 59 -7q9 0 9 -3q0 -4 -11 -4q-50 0 -128 6q-11 1 -11 3t5 5q8 3 7 27l-33 535l-255 -542q-14 -31 -18 -31t-12 14q-88 183 -104 225q-98 209 -154 336l-36 -485q-2 -24 -2 -47q0 -18 5 -25.5t19 -10.5q15 -3 33 -3
q9 0 9 -4q0 -3 -11 -3q-16 0 -42.5 1.5t-28.5 1.5q-5 0 -30 -1.5t-36 -1.5q-9 0 -9 4q0 3 8 3q13 0 25 2q16 2 23.5 17t11.5 66l46 551q1 13 5 13t9 -12l274 -587l278 588q4 10 8 10t6 -22z" />
    <glyph glyph-name="n" unicode="n" horiz-adv-x="828" 
d="M141 120q-1 87 -0.5 249.5t0.5 228.5q0 54 6 54q3 0 27 -27q20 -23 99.5 -118t130.5 -156q81 -97 161.5 -189.5t95.5 -110.5l-4 494q-1 51 -7 67.5t-26 18.5t-26 2q-9 0 -9 4q0 3 9 3q14 0 39.5 -1t28.5 -1t29.5 1t37.5 1q10 0 10 -3t-8 -4q-15 -1 -19 -2
q-23 -4 -28.5 -19.5t-5.5 -59.5l1 -468q0 -68 -1 -81.5t-5 -13.5q-2 0 -44 49q-188 219 -236 276q-50 59 -135.5 162t-99.5 119l6 -500q1 -56 9 -71.5t38 -18.5q9 -1 17 -1q10 0 10 -3q0 -4 -11 -4q-15 0 -42.5 1.5t-31.5 1.5q-3 0 -27 -1.5t-40 -1.5q-10 0 -10 4q0 3 9 3
t20 1q19 2 26 22.5t6 92.5z" />
    <glyph glyph-name="o" unicode="o" horiz-adv-x="783" 
d="M385 -14q-77 0 -140.5 28.5t-102.5 75.5t-60 105t-21 120q0 135 89.5 236t244.5 101q145 0 236 -89.5t91 -226.5q0 -149 -93 -249.5t-244 -100.5zM403 5q56 0 107 19t92.5 56.5t66 99.5t24.5 141q0 76 -27 137t-71 98.5t-97.5 57t-109.5 19.5q-143 0 -220.5 -84
t-77.5 -218q0 -150 90.5 -238t222.5 -88z" />
    <glyph glyph-name="p" unicode="p" horiz-adv-x="539" 
d="M161 244v150q0 160 -2 187q-1 30 -8 39.5t-33 11.5q-10 1 -19 1q-10 0 -10 4q0 3 11 3q13 0 42 -1.5t32 -1.5l39 1q39 2 64 2q107 0 159 -52q42 -42 42 -108q0 -84 -59 -138t-154 -54q-13 0 -19 1t-6 3q0 4 12 4q90 0 143 46.5t53 117.5q0 106 -83 146q-34 19 -107 19
q-36 0 -56 -6q-12 -3 -12 -18v-372q0 -124 3 -178q1 -22 8.5 -32.5t26.5 -12.5q16 -2 29 -2q10 0 10 -4q0 -3 -10 -3q-14 0 -33.5 0.5t-33.5 1.5t-15 1q-2 0 -26.5 -1.5t-37.5 -1.5q-10 0 -10 4q0 3 8 3q9 0 25 2q20 3 23 41q4 48 4 197z" />
    <glyph glyph-name="q" unicode="q" horiz-adv-x="783" 
d="M538 20q-68 -34 -152 -34q-80 0 -144.5 30t-102.5 78t-58 104t-20 113q0 51 13 99.5t40.5 92.5t66 77t94 52.5t120.5 19.5q144 0 235.5 -89t91.5 -231q0 -94 -41 -169.5t-114 -125.5l146 -73q236 -119 401 -119q103 0 193 37q9 3 12 3t3 -2q0 -3 -9 -7q-114 -49 -250 -49
q-146 0 -371 115zM404 5q47 0 94.5 16.5t92.5 51t73.5 98t28.5 145.5q0 80 -28 143.5t-73.5 100t-97 55t-104.5 18.5q-146 0 -223 -85t-77 -217q0 -154 93 -240t221 -86z" />
    <glyph glyph-name="r" unicode="r" horiz-adv-x="645" 
d="M161 244v150q0 131 -2 185q-1 29 -8.5 39.5t-23.5 12.5q-18 2 -31 2q-10 0 -10 4q0 3 12 3q11 0 39.5 -1.5t35.5 -1.5q6 0 46 1.5t54 1.5q91 0 137 -31q32 -21 51.5 -56.5t19.5 -75.5q0 -106 -104 -189q117 -158 177 -219q32 -34 58 -49t61 -16h16q9 0 9 -3q0 -4 -11 -4
h-34q-45 0 -67.5 8.5t-45.5 30.5q-32 31 -88 103q-15 19 -51 68t-47 62q-7 7 -15 7l-146 2q-3 0 -3 -5v-69q0 -118 2 -154q1 -22 8.5 -31.5t28.5 -12.5q20 -2 25 -2q10 0 10 -3q0 -4 -11 -4q-14 0 -32.5 0.5t-31.5 1.5t-14 1q-7 0 -27 -1.5t-32 -1.5q-11 0 -11 4q0 3 9 3
t17 1q11 1 17 7t7.5 12.5t2.5 21.5q3 36 3 198zM190 605v-297q0 -5 4 -6q32 -10 122 -10q36 0 65 18q31 20 50 59t19 88q0 72 -46.5 119.5t-134.5 47.5q-51 0 -71 -6q-8 -3 -8 -13z" />
    <glyph glyph-name="s" unicode="s" horiz-adv-x="445" 
d="M184 -14q-68 0 -110 22q-12 5 -12 23q0 52 3 73q1 11 4 11t3 -10q0 -27 3 -38q15 -65 127 -65q67 0 105.5 39t38.5 101q0 51 -21 85t-89 85l-43 32q-107 79 -107 162q0 65 43 105.5t122 40.5q36 0 81 -9q8 -2 28 -4q4 0 4 -3q0 -1 -1 -9.5t-1.5 -26.5t-0.5 -42
q0 -13 -3 -13q-4 0 -4 9q-2 33 -11 47q-25 35 -108 35q-57 0 -89 -30t-32 -89q0 -42 23.5 -76.5t92.5 -83.5l31 -22q70 -53 92.5 -93t22.5 -88q0 -81 -69 -133q-47 -35 -123 -35z" />
    <glyph glyph-name="t" unicode="t" horiz-adv-x="583" 
d="M310 619v-375q0 -122 2 -194q2 -23 9 -32.5t28 -11.5q24 -2 34 -2q9 0 9 -3q0 -4 -8 -4q-15 0 -36.5 0.5t-37.5 1.5t-17 1q-2 0 -27 -1.5t-39 -1.5q-9 0 -9 4q0 3 8 3q13 0 27 2q10 2 15 7.5t6.5 11.5t2.5 21q4 48 4 198v375q-103 0 -162 -1q-39 -2 -54 -7t-22 -20
q-5 -12 -9 -28q-2 -6 -5 -6q-4 0 -1 13q2 11 7 32.5t6 27.5q3 16 7 16q1 0 9 -2q22 -7 101 -7h284q80 0 102 5q5 1 10 1q3 0 3 -11q0 -6 -1.5 -33t-1.5 -36q0 -10 -3 -10q-4 0 -4 10v11q-1 22 -10.5 31.5t-40.5 10.5q-34 3 -186 3z" />
    <glyph glyph-name="u" unicode="u" horiz-adv-x="741" 
d="M157 394v-125q0 -139 69 -208q58 -57 162 -57q97 0 151 61q56 63 56 216v113q0 105 -3 186q-1 19 -3.5 28.5t-11 16t-25.5 7.5q-7 1 -18 1q-9 0 -9 4q0 3 9 3q22 0 47 -1.5t26 -1.5q5 0 28 1.5t34 1.5q8 0 8 -3q0 -4 -8 -4q-9 0 -15 -1q-18 -2 -24.5 -12t-7.5 -41
q-1 -27 -1 -185v-105q0 -87 -15.5 -146.5t-61.5 -100.5q-62 -56 -171 -56q-110 0 -173 60q-35 35 -53.5 83.5t-18.5 134.5v130q0 156 -1 183q-1 30 -7.5 41t-21.5 13q-10 2 -30 2q-10 0 -10 4q0 3 10 3q12 0 42 -1.5t34 -1.5q3 0 28 1.5t36 1.5q8 0 8 -3q0 -4 -8 -4
q-6 0 -15 -1q-22 -2 -28 -12.5t-7 -38.5t-1 -187z" />
    <glyph glyph-name="v" unicode="v" horiz-adv-x="641" 
d="M302 17l-217 546q-12 30 -16.5 40t-15 18.5t-28.5 10.5q-8 1 -22 1q-9 0 -9 4q0 3 12 3q14 0 39 -1.5t29 -1.5q6 0 33 1.5t31 1.5q10 0 10 -3q0 -4 -8 -4q-7 0 -23 -2t-16 -14q0 -15 25 -78l199 -501q45 103 124 296t95 241q9 25 9 37q0 10 -5.5 14.5t-22.5 5.5
q-7 1 -16 1q-8 0 -8 4q0 3 9 3q16 0 42 -1t29 -1t25 1t36 1q9 0 9 -3q0 -4 -9 -4q-25 0 -41 -11q-15 -11 -44 -85q-10 -24 -38 -94.5t-54 -132.5q-63 -151 -127 -293q-14 -31 -19 -31t-17 31z" />
    <glyph glyph-name="w" unicode="w" horiz-adv-x="977" 
d="M267 14l-166 542q-13 42 -23.5 56.5t-34.5 18.5q-14 2 -21 2q-10 0 -10 4q0 3 8 3q7 0 39.5 -1.5t38.5 -1.5t29 1.5t34 1.5q10 0 10 -4q0 -3 -9 -3q-4 0 -14 -1q-15 -1 -20 -6t-5 -16q0 -13 20 -86q8 -28 73.5 -241.5t70.5 -231.5l201 565q7 21 12 21q4 0 10 -21
l179 -566q10 30 67 195.5t82 241.5q33 101 33 119q0 14 -8.5 20t-40.5 7q-9 0 -9 4q0 3 9 3q19 0 43 -1.5t27 -1.5q4 0 33.5 1.5t44.5 1.5q8 0 8 -3q0 -4 -8 -4q-11 0 -20 -1q-26 -3 -38 -21.5t-30 -71.5q-16 -48 -48.5 -140t-74 -211.5t-61.5 -177.5q-9 -24 -14 -24
q-2 0 -12 21l-177 562q-28 -76 -199 -557q-9 -26 -15 -26q-5 0 -14 28z" />
    <glyph glyph-name="x" unicode="x" horiz-adv-x="570" 
d="M113 81l157 254l-138 221q-35 56 -47 65q-11 9 -32 11q-8 1 -23 1q-8 0 -8 4q0 3 11 3q18 0 44.5 -1t28.5 -1q3 0 25.5 1t35.5 1q10 0 10 -3q0 -4 -9 -4q-5 0 -21 -2q-14 -2 -14 -12q0 -8 11 -27q54 -95 143 -233q18 26 75.5 119t64.5 106q14 24 14 33q0 11 -17 14
q-13 2 -24 2q-10 0 -10 4q0 3 8 3q12 0 38 -1t30 -1q2 0 27.5 1t38.5 1q9 0 9 -3q0 -4 -9 -4q-10 0 -17 -1q-21 -3 -32 -14t-43 -56l-141 -220q4 -9 86 -141t93 -148q14 -20 20 -27t15.5 -12.5t23.5 -7.5t29 -2q8 0 8 -3q0 -4 -9 -4q-93 0 -113 4q-6 1 -6 3q0 3 4 4
q15 5 1 30q-98 159 -170 278l-150 -250q-19 -31 -19 -44q0 -10 10 -15q12 -3 20 -3q10 0 10 -3q0 -4 -9 -4q-10 0 -34.5 1.5t-29.5 1.5q-8 0 -35 -1.5t-37 -1.5q-9 0 -9 4q0 3 9 3q18 0 34 4q20 5 34.5 20t37.5 53z" />
    <glyph glyph-name="y" unicode="y" horiz-adv-x="556" 
d="M270 165v69q0 39 -13 62q-105 180 -160 260q-3 4 -13.5 19.5t-14 20.5t-11.5 14.5t-15 13.5t-15 6q-14 3 -29 3q-9 0 -9 4q0 3 10 3q9 0 29.5 -1t30.5 -1q2 0 26 1t32 1q7 0 7 -2q0 -4 -9 -5q-20 -2 -20 -13q0 -2 20 -42q6 -9 85.5 -138.5t89.5 -143.5q132 219 159 265
q27 49 27 55q0 9 -6 12.5t-25 4.5q-9 0 -9 4q0 3 8 3q10 0 31 -1t26 -1q16 0 38 1t28 1q8 0 8 -3q0 -4 -8 -4q-21 -2 -28 -4q-5 -1 -10 -3.5t-8.5 -4.5t-8.5 -8t-7.5 -9.5l-10 -14t-11.5 -15.5q-17 -23 -79.5 -126.5t-85.5 -142.5q-14 -24 -16.5 -33.5t-2.5 -38.5v-68
q0 -81 2 -117q1 -21 9.5 -30t29.5 -12q14 -2 32 -2q10 0 10 -3q0 -4 -10 -4q-24 0 -53 1.5t-33 1.5q-6 0 -32.5 -1.5t-37.5 -1.5q-9 0 -9 3q0 4 9 4q16 0 26 2q22 4 25 41q2 35 2 118z" />
    <glyph glyph-name="z" unicode="z" horiz-adv-x="597" 
d="M94 18h287q79 0 103.5 4t36.5 17q16 14 26 65q1 8 4 8t3 -8q0 -26 -19 -93q-3 -10 -6 -12.5t-11 -2.5q-75 0 -229.5 2t-218.5 2q-17 0 -17 4q0 7 12 23q283 385 424 592h-233q-85 0 -111.5 -2t-36.5 -9q-22 -15 -32 -68q-1 -10 -5 -10q-3 0 -3 7q0 3 2.5 20.5t7 43
t5.5 33.5q1 9 5 9q2 0 18 -3q22 -3 167 -3h236q22 0 22 -2q0 -4 -3 -8q-69 -99 -216.5 -303.5t-217.5 -305.5z" />
    <glyph glyph-name="breve.cyr" unicode="{" 
d="M95 806q0 5 4 11q10 16 17 16q2 0 4 -5q6 -28 41.5 -49.5t92.5 -21.5q88 0 148 65q8 9 11 9q1 0 1 -2t-2.5 -6t-6.5 -9q-66 -78 -173 -78q-66 0 -108 30q-29 23 -29 40z" />
    <glyph glyph-name="bar" unicode="|" 
d="M263 -250h-27v1000h27v-1000z" />
    <glyph glyph-name="braceright" unicode="}" horiz-adv-x="401" 
d="M286 367q-80 28 -80 125q0 12 3 57t2 70q-1 43 -11.5 74t-28 47.5t-31 23.5t-30.5 12q-10 3 -10 5t5 2q13 0 39 -11t46 -32q32 -33 40.5 -68t8.5 -84q0 -25 -3 -68.5t-3 -57.5q0 -42 19 -62t59 -26q10 -1 10 -6q0 -3 -15 -6q-73 -16 -73 -101q0 -15 3 -77t3 -73
q0 -49 -12 -87t-28.5 -59.5t-37 -35t-34 -18t-22.5 -4.5q-4 0 -4 2t7 4q103 33 103 147q0 19 -2.5 80t-2.5 77q0 119 80 150z" />
    <glyph glyph-name="asciitilde" unicode="~" horiz-adv-x="642" 
d="M118 286h-25q-1 61 26 93.5t74 32.5q32 0 57.5 -11.5t75.5 -42.5q72 -47 115 -47q39 0 54.5 25t16.5 75h24q3 -126 -102 -126q-29 0 -56 12t-73 42q-71 47 -112 47q-38 0 -56 -23.5t-19 -76.5z" />
    <glyph glyph-name="exclamdown" unicode="&#xa1;" horiz-adv-x="363" 
d="M154 570q3 0 5 -32q5 -131 7 -260q2 -119 7 -228q0 -6 0.5 -12t1 -9.5t0.5 -6.5q0 -4 -7 -12q-5 -6 -17.5 -16.5t-17.5 -10.5q-4 0 -3 5q4 15 8 105q0 90 10 445q1 32 6 32zM151 767q15 0 23 -9.5t8 -22.5q0 -11 -8.5 -21t-23.5 -10q-12 0 -20.5 9t-8.5 22q0 14 8.5 23
t21.5 9z" />
    <glyph glyph-name="cent" unicode="&#xa2;" horiz-adv-x="528" 
d="M348 616l-50 -480q22 -2 34 -2q121 0 139 84q3 15 7 15q3 0 2 -12q-5 -38 -14 -69q-4 -15 -13 -17q-63 -19 -135 -19q-15 0 -22 1l-13 -128q0 -7 -5 -9l-14 -5q-5 0 -4 9l14 135q-98 14 -160.5 84t-62.5 178q0 64 24 112.5t53 73.5q76 67 196 67h3l10 102q1 7 4 8l16 6
q2 1 3 0t1 -4l-12 -113q28 -2 55 -7.5t49.5 -12t25.5 -7.5q6 -1 6 -9q0 -39 -6 -81q-1 -11 -5 -11q-3 0 -3 11q0 40 -15 59q-25 32 -108 41zM276 139l49 479h-8q-102 3 -169 -55.5t-67 -165.5q0 -97 50.5 -168.5t144.5 -89.5z" />
    <glyph glyph-name="sterling" unicode="&#xa3;" horiz-adv-x="528" 
d="M159 0h-179q-20 0 -20 5t20 9q36 8 62 31.5t41.5 61t24 74t14.5 84.5l11 100h-75q-17 0 -21 -1q-3 -1 -4 1t1 5l7 9q6 7 14 7h81l11 91q25 180 102 246q50 44 132 44q31 0 71 -10q5 -1 12.5 -3t11.5 -3q5 -1 5 -10q0 -29 -5 -94q-1 -9 -4 -9q-4 0 -4 12q0 51 -16 70
q-23 29 -95 29q-77 0 -119.5 -67.5t-55.5 -169.5l-14 -126h118q38 0 50 4q5 2 4 -2q0 -3 -2 -6l-8 -10q-5 -8 -16 -8h-149l-5 -42q-8 -65 -16 -105.5t-34.5 -99t-67.5 -91.5l1 -2l328 2q47 1 68.5 15.5t29.5 65.5q1 12 6 12q3 0 2 -12q-1 -11 -4 -28.5t-7.5 -37t-5.5 -26.5
q-2 -12 -11 -14.5t-50 -2.5q-17 0 -105.5 1.5t-134.5 0.5z" />
    <glyph glyph-name="currency" unicode="&#xa4;" horiz-adv-x="528" 
d="M473 529l-73 -66q37 -44 37 -121q0 -78 -39 -133l70 -66l-22 -24l-67 75q-47 -53 -119 -53q-76 0 -123 50l-61 -71l-19 23l66 64q-18 20 -29.5 55.5t-11.5 71.5q0 76 43 130l-70 65l22 25l62 -74q48 50 124 50q77 0 121 -50l68 72zM412 337q0 73 -41.5 122t-111.5 49
q-68 0 -110 -48t-42 -124q0 -83 46.5 -127.5t106.5 -44.5t106 44t46 129z" />
    <glyph glyph-name="yen" unicode="&#xa5;" horiz-adv-x="528" 
d="M106 394h132q-11 20 -65 124t-72 137q-32 58 -42.5 71t-33.5 17q-14 3 -25 3q-10 0 -10 4q0 3 10 3q9 0 30.5 -1.5t34.5 -1.5q3 0 25 1.5t29 1.5q10 0 10 -3q0 -4 -11 -4q-23 -1 -23 -14q0 -9 22 -51q9 -16 70.5 -135.5t71.5 -136.5q69 126 131 251q26 52 26 68
q0 9 -6 13t-27 5q-11 0 -11 4q0 3 12 3q10 0 31.5 -1.5t27.5 -1.5q19 0 39.5 1.5t28.5 1.5q10 0 10 -3q0 -4 -10 -4q-31 -1 -46.5 -14t-41.5 -57q-13 -23 -41.5 -75.5t-63 -117.5t-47.5 -88h139q6 0 5 -5l-3 -10q-1 -4 -6 -4h-137v-87h141q6 0 4 -6l-3 -9q-2 -4 -9 -4h-133
v-72q0 -75 3 -138q2 -28 9 -39.5t28 -13.5q18 -2 28 -2q11 0 11 -3q0 -4 -12 -4q-15 0 -34.5 0.5t-33 1.5t-14.5 1q-3 0 -29 -1.5t-41 -1.5q-9 0 -9 4q0 3 11 3q9 0 23 2q16 2 20.5 13t6.5 36q4 56 4 141v73h-138q-5 0 -6 1t0 4l4 10q2 4 6 4h134v87h-142q-5 0 -2 6l4 9
q2 4 6 4z" />
    <glyph glyph-name="brokenbar" unicode="&#xa6;" 
d="M263 325h-27v350h27v-350zM263 -175h-27v350h27v-350z" />
    <glyph glyph-name="uni0424.alt" unicode="&#xa7;" horiz-adv-x="881" 
d="M461 702v-645q0 -1 3 -1q140 2 231.5 86t91.5 244q0 149 -89.5 232.5t-233.5 86.5q-3 0 -3 -3zM433 57v645q0 3 -3 3q-90 -2 -157.5 -28.5t-105 -70.5t-55.5 -94t-18 -106q0 -153 92 -247.5t244 -102.5q3 0 3 1zM432 -3v38q0 3 -4 3q-95 3 -167.5 34.5t-114 82.5
t-62 110.5t-20.5 126.5q0 62 21.5 118.5t64 103.5t114.5 76t164 32q4 0 4 6v27q0 51 -6 65.5t-22 19.5q-11 3 -40 3q-10 0 -10 3q0 4 13 4q12 0 44 -1.5t36 -1.5t32 1.5t40 1.5t12 -3q0 -2 -8 -4q-4 0 -11.5 -0.5t-11.5 -1.5q-23 -3 -31 -17.5t-8 -67.5v-29q0 -5 2 -5
q168 -6 261 -91.5t93 -228.5q0 -165 -93.5 -260t-258.5 -103q-3 0 -3 -2v-40q1 -54 8.5 -73.5t28.5 -21.5q15 -2 27 -2t12 -3q0 -4 -12 -4q-16 0 -39 1.5t-40 1.5q-9 0 -34 -1.5t-39 -1.5q-12 0 -12 4q0 3 12 3q23 0 35 4q14 5 18 24.5t5 68.5z" />
    <glyph glyph-name="dieresis" unicode="&#xa8;" 
d="M355 749q-27 0 -27 27q0 10 6.5 18.5t21.5 8.5q27 0 27 -25q0 -29 -28 -29zM144 749q-14 0 -20.5 8.5t-6.5 18.5q0 28 28 28q27 0 27 -25q0 -30 -28 -30z" />
    <glyph glyph-name="uni040F.alt" unicode="&#xa9;" horiz-adv-x="913" 
d="M720 0h-251q-2 0 -2 -3q-1 -52 7 -94t17 -56q1 -2 -1 -6q-6 -11 -20 -25.5t-19 -14.5t-6 10q-4 60 7 186q0 3 -4 3h-260l-64 -3h-1q-13 0 -13 4q0 3 10 3q23 0 33 3q12 3 17.5 10.5t6.5 15.5t2 35q3 96 3 215v180q0 187 -1 219q-2 37 -7 48t-24 14q-15 3 -35 3q-8 0 -8 3
t9 3q14 0 45 -1.5t35 -1.5q3 0 31.5 1.5t39.5 1.5q10 0 10 -3t-9 -3q-10 -1 -18 -2q-23 -3 -30 -13.5t-8 -45.5q-1 -32 -1 -240v-164q0 -217 3 -247q1 -11 10 -12q24 -2 116 -2h159q164 0 194 3q6 0 6 7q3 15 3 250v180q0 188 -1 220q-2 35 -8 47.5t-27 15.5q-18 2 -32 2
q-9 0 -9 3q0 4 9 4q19 0 49.5 -1.5t32.5 -1.5q1 0 14 1t30.5 1.5t30.5 0.5q10 0 10 -4q0 -3 -10 -3q-14 0 -24 -1q-20 -2 -27 -13.5t-8 -46.5q-1 -32 -1 -222v-176q0 -187 3 -229q2 -30 10 -40t31 -12q24 -2 39 -2q11 0 11 -3q0 -4 -12 -4q-15 0 -37 0.5t-38.5 1.5t-17.5 1z
" />
    <glyph glyph-name="ordfeminine" unicode="&#xaa;" horiz-adv-x="414" 
d="M300 559l-2 -142q0 -41 8 -56.5t27 -16.5q14 0 22 3q5 2 5 -1q0 -2 -4 -6q-14 -12 -33 -12q-48 0 -51 52q-15 -21 -46 -38t-64 -17q-43 0 -67.5 25.5t-24.5 63.5q0 26 16 46t47 33t63 21t78 15v36q0 49 -23 84.5t-72 35.5q-80 0 -85 -74q0 -7 -4 -7q-3 0 -3 6
q0 5 0.5 27.5t0.5 25.5q0 7 5 9q8 4 36 16q34 13 65 13q57 0 82 -40t24 -102zM272 408l2 107q-101 -13 -138.5 -37.5t-37.5 -61.5q0 -34 23.5 -52t53.5 -18q65 0 94 50q3 4 3 12z" />
    <glyph glyph-name="guillemotleft" unicode="&#xab;" horiz-adv-x="515" 
d="M250 123l-14 -13q-2 -2 -5 -2t-13 11q-93 108 -142 161q-16 16 -16 20q0 3 15 16q32 28 93.5 89.5t80.5 84.5q10 11 13 11q1 -1 1 -2t-2 -4.5t-3.5 -6t-3.5 -6.5l-3 -3q-28 -35 -90.5 -101.5t-69.5 -74.5q35 -45 148 -161l5.5 -5.5l4 -4l2.5 -2.5l1.5 -1.5t0.5 -1.5
t-3 -4zM442 123l-14 -13q-2 -2 -5 -2t-13 11q-93 108 -142 161q-16 16 -16 20q0 3 15 16q32 28 93.5 89.5t80.5 84.5q10 11 13 11q0 -2 0.5 -3t-3 -7t-4.5 -7.5l-3 -4.5q-28 -35 -90.5 -101t-70.5 -75q35 -45 148 -161l5.5 -5.5l4 -4l2.5 -2.5l1.5 -1.5t0.5 -1.5t-3 -4z" />
    <glyph glyph-name="logicalnot" unicode="&#xac;" horiz-adv-x="642" 
d="M547 152h-25v199h-428v26h453v-225z" />
    <glyph glyph-name="braceleft" unicode="&#xad;" horiz-adv-x="401" 
d="M115 368q80 -28 80 -125q0 -13 -2.5 -62t-2.5 -80q0 -54 10 -91t29 -56t30 -25.5t31 -13.5q11 -5 11 -6q0 -2 -4 -2q-13 0 -38.5 11t-45.5 32q-33 33 -42 71t-9 98q0 10 3 64t3 90q0 78 -78 89q-10 1 -10 5q0 3 15 6q73 15 73 92q0 21 -3 65t-3 54q0 58 17.5 100.5t42 62
t43.5 28t31 8.5q4 0 4 -2t-6 -4q-16 -4 -30.5 -12t-33 -24.5t-29.5 -46t-11 -68.5q0 -16 2.5 -54t2.5 -54q0 -119 -80 -150z" />
    <glyph glyph-name="uni04F2.alt" unicode="&#xae;" horiz-adv-x="713" 
d="M197 -135q-13 0 -13 4t13 4q50 2 73.5 18.5t50.5 72.5q13 28 37 82q3 8 0 16q-134 315 -264 605q-22 49 -37.5 63.5t-61.5 15.5q-10 0 -10 4q0 3 11 3q10 0 34 -1.5t37 -1.5q7 0 29 1.5t28 1.5q8 0 8 -3t-9 -4q-24 -2 -24 -16q0 -7 15 -39q8 -18 127.5 -292t133.5 -305
q126 307 221 567q20 52 20 68q0 13 -20 15q-10 1 -10 4t11 3q10 0 24.5 -0.5t20.5 -0.5q20 0 44 1.5t31 1.5q10 0 10 -3t-9 -4q-24 -2 -37 -6q-18 -6 -27.5 -20t-23.5 -46q-43 -104 -152.5 -383t-134.5 -341q-14 -35 -21 -62q0 -3 -1 -5.5t-2 -5.5q-1 -6 -6 -8
q-14 -4 -116 -4zM324 921q12 16 15 16q5 0 12 -3q18 -8 21 -10q7 -6 3 -8q-16 -8 -25 -15q-32 -24 -80 -72q-9 -9 -12 -9q-4 0 0 8q2 6 30.5 45.5t35.5 47.5zM491 921q15 16 17 16q6 0 12 -3q11 -6 19 -12q9 -6 1 -9q-6 -2 -24 -14q-47 -32 -88 -71q-8 -8 -11 -8q-4 0 0 7
q3 5 35 45.5t39 48.5z" />
    <glyph glyph-name="breve.cyrcap" unicode="&#xaf;" 
d="M95 888q0 5 4 11q10 16 17 16q2 0 4 -5q6 -28 41 -48.5t93 -20.5q86 0 146 65q8 9 11 9q1 0 1 -2t-2 -6t-6 -9q-68 -81 -172 -81q-65 0 -108 31q-29 23 -29 40z" />
    <glyph glyph-name="circumflex.cyrcap" unicode="&#xb0;" 
d="M415 844q0 -5 -4 -11q-10 -16 -17 -16q-2 0 -4 5q-6 28 -41 48.5t-93 20.5q-86 0 -146 -65q-8 -9 -11 -9q-1 0 -1 2t2 6t6 9q68 81 172 81q65 0 108 -31q29 -23 29 -40z" />
    <glyph glyph-name="plusminus" unicode="&#xb1;" horiz-adv-x="642" 
d="M547 95h-451l-1 24h452v-24zM547 421h-212v-217h-26v217h-214v24h213v209h26v-209h213v-24z" />
    <glyph glyph-name="twosuperior" unicode="&#xb2;" horiz-adv-x="348" 
d="M275 478q-39 0 -117.5 0.5t-117.5 0.5q-10 0 -10 4q0 3 12 12q123 102 173.5 172.5t50.5 139.5q0 53 -30.5 79t-78.5 26q-41 0 -68 -20q-26 -19 -26 -53q0 -9 -3 -9q-4 0 -4 6q0 1 -1.5 27t-1.5 37q0 4 5 6q63 22 104 22q63 0 97.5 -33t34.5 -86q0 -32 -12 -64t-24.5 -54
t-46 -58t-50 -51.5t-63.5 -57.5q-15 -14 -23 -21q-4 -2 1 -2h46q75 0 133 2q26 1 36 11.5t17 40.5q1 8 6 8q3 0 3 -6q0 -7 -5.5 -32.5t-10.5 -37.5q-4 -9 -26 -9z" />
    <glyph glyph-name="threesuperior" unicode="&#xb3;" horiz-adv-x="339" 
d="M120 471q-48 0 -70 14q-10 6 -10 16q0 42 4 59q1 7 4 7t3 -10q0 -36 20.5 -52.5t67.5 -16.5q55 0 91 30.5t36 82.5q0 54 -37 81.5t-94 30.5q-15 2 -15 6q0 5 19 7q44 5 75 30.5t31 71.5q0 34 -20 60.5t-75 26.5q-36 0 -59.5 -19.5t-22.5 -55.5q0 -9 -3 -9t-4 7
q-4 28 -4 56q0 11 8 14q45 20 92 20q58 0 86.5 -29.5t28.5 -64.5q0 -75 -90 -109q-6 -1 0 -3q40 -9 76.5 -35.5t36.5 -74.5q0 -60 -49.5 -100.5t-125.5 -40.5z" />
    <glyph glyph-name="acute" unicode="&#xb4;" 
d="M362 837q10 -8 16 -15q2 -2 1.5 -4.5t-2.5 -2.5q-9 0 -29 -13q-68 -39 -125 -80q-11 -6 -11 -3q0 4 6 9q19 18 105 95q20 17 27 18q7 0 12 -4z" />
    <glyph glyph-name="uni00B5" unicode="&#xb5;" horiz-adv-x="636" 
d="M121 160v45q0 222 -4 273q0 4 3 4q19 0 28 3q2 1 3 0t1 -4q-3 -38 -3 -257v-61q0 -145 126 -145q67 0 117 49t50 97v41q0 222 -4 273q0 4 3 4q19 0 28 3q2 1 3 0t1 -4q-3 -38 -3 -245v-125q0 -55 15 -78.5t47 -23.5q19 0 34 8q7 4 7 2q0 -3 -4 -7q-21 -25 -59 -25
q-31 0 -49.5 25t-18.5 96q-78 -118 -182 -118q-82 0 -118 68q1 -232 18 -274q2 -4 -4 -10q-19 -19 -33 -19q-5 0 -5 18q0 87 1.5 204t1.5 183z" />
    <glyph glyph-name="cedilla" unicode="&#xb8;" 
d="M261 1h21q-8 -8 -30.5 -31.5t-27.5 -28.5q91 -21 91 -73q0 -31 -24 -51t-47.5 -26t-42.5 -6q-9 0 -9 4t16 7q69 14 69 65q0 43 -75 64q-8 3 -8 6q0 5 10 13z" />
    <glyph glyph-name="onesuperior" unicode="&#xb9;" horiz-adv-x="243" 
d="M119 657v197q0 40 -7 40q-8 0 -57 -21q-2 -2 -7.5 -3.5t-6.5 1.5q0 3 6 6q29 14 76 41q17 10 22 10q2 0 2 -13q0 -1 -0.5 -10t-0.5 -24t-0.5 -33.5t-1 -41t-0.5 -42.5v-107q0 -89 2 -139q1 -29 25 -32q18 -2 28 -2q8 0 8 -4q0 -3 -10 -3q-13 0 -38 1t-28 1q-2 0 -26.5 -1
t-36.5 -1q-10 0 -10 4q0 3 9 3q14 0 27 2q12 2 17 8.5t6 24.5q2 27 2 138z" />
    <glyph glyph-name="ordmasculine" unicode="&#xba;" horiz-adv-x="461" 
d="M227 325q-80 0 -126.5 55t-46.5 133q0 72 46.5 130t131.5 58q74 0 124.5 -52t50.5 -131q0 -85 -50 -139t-130 -54zM380 507q0 83 -45 130.5t-109 47.5q-67 0 -106 -41.5t-39 -120.5q0 -86 46 -133.5t111 -47.5q56 0 99 39t43 126z" />
    <glyph glyph-name="guillemotright" unicode="&#xbb;" horiz-adv-x="515" 
d="M265 485l14 13q2 2 5 2t13 -11q93 -108 142 -161q16 -16 16 -20q0 -3 -15 -16q-32 -28 -93.5 -89.5t-80.5 -84.5q-10 -11 -13 -11q-1 1 -1 2t2 4.5t3.5 6t4.5 6.5l2 3q28 35 90.5 101.5t69.5 74.5q-35 45 -148 161l-5.5 5.5l-4 4l-2.5 2.5l-1.5 1.5t-0.5 1.5t3 4zM73 485
l14 13q2 2 5 2t13 -11q93 -108 142 -161q16 -16 16 -20q0 -3 -15 -16q-32 -28 -93.5 -89.5t-80.5 -84.5q-10 -11 -13 -11q0 2 -0.5 3t3 7t4.5 7.5l3 4.5q28 35 90.5 101t70.5 75q-35 45 -148 161l-5.5 5.5l-4 4l-2.5 2.5l-1.5 1.5t-0.5 1.5t3 4z" />
    <glyph glyph-name="onequarter" unicode="&#xbc;" horiz-adv-x="817" 
d="M666 775l9 -9q3 -3 -1 -7l-545 -774q-3 -4 -6 -1l-11 10q-2 2 0 6l548 774q4 4 6 1zM143 496v197q0 40 -7 40q-8 0 -57 -21q-2 -2 -7.5 -4t-6.5 2q0 3 6 6q29 14 76 41q17 10 22 10q2 0 2 -13q0 -1 -0.5 -10t-0.5 -24t-0.5 -33.5t-1 -41t-0.5 -42.5v-107q0 -89 2 -139
q1 -29 25 -32q18 -2 28 -2q8 0 8 -4q0 -3 -10 -3q-13 0 -38 1t-28 1q-2 0 -26.5 -1t-36.5 -1q-10 0 -10 4q0 3 9 3q14 0 27 2q12 2 17 8.5t6 24.5q2 27 2 138zM662 339v-185q37 0 61 1q16 0 24 11q2 2 3.5 1t0.5 -4q-6 -18 -8 -22q-4 -5 -8 -5q-9 -1 -73 -1q0 -83 1 -108
q2 -17 6 -23.5t17 -9.5q12 -2 22 -2q7 0 7 -3q0 -4 -9 -4q-20 0 -38 1t-21 1q-2 0 -19 -1t-33 -1q-11 0 -11 4q0 3 8 3t17 1q14 1 19.5 8.5t7.5 25.5q1 26 1 108q-143 0 -199 2q-12 2 -12 4q0 4 6 11q8 11 99.5 126.5t121.5 152.5q3 5 7 5q3 0 3 -10q0 -2 -0.5 -37t-0.5 -50
zM637 154v232q-165 -202 -181 -232h181z" />
    <glyph glyph-name="onehalf" unicode="&#xbd;" horiz-adv-x="834" 
d="M645 775l9 -9q3 -3 -1 -7l-545 -774q-3 -4 -6 -1l-11 10q-2 2 0 6l548 774q3 4 6 1zM143 496v197q0 40 -7 40q-8 0 -57 -21q-2 -2 -7.5 -4t-6.5 2q0 3 6 6q29 14 76 41q17 10 22 10q2 0 2 -13q0 -1 -0.5 -10t-0.5 -24t-0.5 -33.5t-1 -41t-0.5 -42.5v-107q0 -89 2 -139
q1 -29 25 -32q18 -2 28 -2q8 0 8 -4q0 -3 -10 -3q-13 0 -38 1t-28 1q-2 0 -26.5 -1t-36.5 -1q-10 0 -10 4q0 3 9 3q14 0 27 2q12 2 17 8.5t6 24.5q2 27 2 138zM727 -14q-39 0 -117.5 0.5t-117.5 0.5q-10 0 -10 4q0 3 12 12q123 102 173.5 172.5t50.5 139.5q0 53 -30.5 79
t-78.5 26q-41 0 -68 -20q-26 -19 -26 -53q0 -9 -3 -9q-4 0 -4 6q0 1 -1.5 27t-1.5 37q0 4 5 6q63 22 104 22q63 0 97.5 -33t34.5 -86q0 -32 -12 -64t-24.5 -54t-46 -58t-50 -51.5t-63.5 -57.5q-15 -14 -23 -21q-4 -2 1 -2h46q75 0 133 2q26 1 36 11.5t17 40.5q1 8 6 8
q3 0 3 -6q0 -7 -5.5 -32.5t-10.5 -37.5q-4 -9 -26 -9z" />
    <glyph glyph-name="threequarters" unicode="&#xbe;" horiz-adv-x="863" 
d="M719 775l9 -9q3 -3 -1 -7l-545 -774q-3 -4 -6 -1l-11 10q-2 2 0 6l548 774q3 4 6 1zM708 339v-185q37 0 61 1q16 0 24 11q2 2 3.5 1t0.5 -4q-6 -18 -8 -22q-4 -5 -8 -5q-9 -1 -73 -1q0 -83 1 -108q2 -17 6 -23.5t17 -9.5q12 -2 22 -2q7 0 7 -3q0 -4 -9 -4q-20 0 -38 1
t-21 1q-2 0 -19 -1t-33 -1q-11 0 -11 4q0 3 8 3t17 1q14 1 19.5 8.5t7.5 25.5q1 26 1 108q-143 0 -199 2q-12 2 -12 4q0 4 6 11q8 11 99.5 126.5t121.5 152.5q3 5 7 5q3 0 3 -10q0 -2 -0.5 -37t-0.5 -50zM683 154v232q-165 -202 -181 -232h181zM145 310q-48 0 -70 14
q-10 6 -10 16q0 42 4 59q1 7 4 7t3 -10q0 -36 20.5 -52.5t67.5 -16.5q55 0 91 30.5t36 82.5q0 54 -37 81.5t-94 30.5q-15 2 -15 6q0 5 19 7q44 5 75 30.5t31 71.5q0 34 -20 60.5t-75 26.5q-36 0 -59.5 -19.5t-22.5 -55.5q0 -9 -3 -9t-4 7q-4 28 -4 56q0 11 8 14q45 20 92 20
q58 0 86.5 -29.5t28.5 -64.5q0 -75 -90 -109q-6 -2 0 -3q40 -9 76.5 -35.5t36.5 -74.5q0 -60 -49.5 -100.5t-125.5 -40.5z" />
    <glyph glyph-name="questiondown" unicode="&#xbf;" horiz-adv-x="491" 
d="M255 -17q-72 0 -115 46t-43 114q0 22 2.5 40.5t11.5 40t15 33.5t25.5 38.5t28.5 38t39.5 47.5t44.5 53q32 38 32 72q0 33 -21 60q-11 14 -11 15q0 2 2 2q7 0 22.5 -17.5t20.5 -28.5q13 -27 13 -46q0 -22 -24 -51q-18 -24 -72 -89q-60 -72 -79.5 -115.5t-19.5 -95.5
q0 -57 37 -99t102 -42q77 0 108 39q22 24 23 78q0 8 2 8q3 0 4 -8q3 -23 3 -80q0 -9 -11 -16q-58 -37 -140 -37zM272 766q15 0 23 -9.5t8 -22.5q0 -11 -8 -21t-23 -10q-12 0 -21 9t-9 22q0 14 8.5 23t21.5 9z" />
    <glyph glyph-name="Agrave" unicode="&#xc0;" horiz-adv-x="683" 
d="M469 325h-273q-4 0 -6 -6l-71 -212q-20 -62 -20 -79q0 -11 4.5 -16.5t16.5 -6.5q6 -1 20 -1q12 0 12 -3q0 -4 -11 -4q-12 0 -38 1.5t-29 1.5q-2 0 -26 -1.5t-49 -1.5q-13 0 -13 4q0 3 12 3q17 0 25 2q23 5 35.5 23.5t32.5 77.5l223 629q11 31 15 31q3 0 15 -31
q4 -11 51 -131.5t107 -274t90 -232.5q13 -32 17.5 -43t14.5 -25.5t21 -19t30 -5.5q13 -1 23 -1t10 -3q0 -4 -9 -4q-68 0 -122 4q-8 0 -8 3q0 2 7 3q18 3 9 24l-111 289q-2 5 -5 5zM204 348h257q4 0 2 5l-134 347q-4 9 -6 1l-121 -349q-1 -4 2 -4zM354 816q0 -2 -4 -2
q-13 0 -169 82q-10 6 -10 9t10 6q14 3 26 5q5 1 12 1q4 0 9 -5q15 -15 113 -85q13 -9 13 -11z" />
    <glyph glyph-name="Aacute" unicode="&#xc1;" horiz-adv-x="683" 
d="M469 325h-273q-4 0 -6 -6l-71 -212q-20 -62 -20 -79q0 -11 4.5 -16.5t16.5 -6.5q6 -1 20 -1q12 0 12 -3q0 -4 -11 -4q-12 0 -38 1.5t-29 1.5q-2 0 -26 -1.5t-49 -1.5q-13 0 -13 4q0 3 12 3q17 0 25 2q23 5 35.5 23.5t32.5 77.5l223 629q11 31 15 31q3 0 15 -31
q4 -11 51 -131.5t107 -274t90 -232.5q13 -32 17.5 -43t14.5 -25.5t21 -19t30 -5.5q13 -1 23 -1t10 -3q0 -4 -9 -4q-68 0 -122 4q-8 0 -8 3q0 2 7 3q18 3 9 24l-111 289q-2 5 -5 5zM204 348h257q4 0 2 5l-134 347q-4 9 -6 1l-121 -349q-1 -4 2 -4zM452 917q6 -5 15 -17
q5 -8 -4 -8q-5 0 -25 -9q-77 -33 -132 -63q-10 -6 -14 -6q-3 0 -3 2q0 3 8 9q47 36 115 82q22 15 29 15q6 0 11 -5z" />
    <glyph glyph-name="Acircumflex" unicode="&#xc2;" horiz-adv-x="683" 
d="M469 325h-273q-4 0 -6 -6l-71 -212q-20 -62 -20 -79q0 -11 4.5 -16.5t16.5 -6.5q6 -1 20 -1q12 0 12 -3q0 -4 -11 -4q-12 0 -38 1.5t-29 1.5q-2 0 -26 -1.5t-49 -1.5q-13 0 -13 4q0 3 12 3q17 0 25 2q23 5 35.5 23.5t32.5 77.5l223 629q11 31 15 31q3 0 15 -31
q4 -11 51 -131.5t107 -274t90 -232.5q13 -32 17.5 -43t14.5 -25.5t21 -19t30 -5.5q13 -1 23 -1t10 -3q0 -4 -9 -4q-68 0 -122 4q-8 0 -8 3q0 2 7 3q18 3 9 24l-111 289q-2 5 -5 5zM204 348h257q4 0 2 5l-134 347q-4 9 -6 1l-121 -349q-1 -4 2 -4zM334 916q4 0 12 -5
q14 -9 115 -83q7 -6 7 -7q0 -2 -2 -4l-15 -11q-5 -3 -7 -1q-76 61 -107 79q-4 3 -7 3q-4 0 -12 -5q-15 -9 -104 -68q-14 -9 -20 -9q-6 1 6 11q20 14 67 50.5t55 42.5q8 7 12 7z" />
    <glyph glyph-name="Atilde" unicode="&#xc3;" horiz-adv-x="683" 
d="M469 325h-273q-4 0 -6 -6l-71 -212q-20 -62 -20 -79q0 -11 4.5 -16.5t16.5 -6.5q6 -1 20 -1q12 0 12 -3q0 -4 -11 -4q-12 0 -38 1.5t-29 1.5q-2 0 -26 -1.5t-49 -1.5q-13 0 -13 4q0 3 12 3q17 0 25 2q23 5 35.5 23.5t32.5 77.5l223 629q11 31 15 31q3 0 15 -31
q4 -11 51 -131.5t107 -274t90 -232.5q13 -32 17.5 -43t14.5 -25.5t21 -19t30 -5.5q13 -1 23 -1t10 -3q0 -4 -9 -4q-68 0 -122 4q-8 0 -8 3q0 2 7 3q18 3 9 24l-111 289q-2 5 -5 5zM204 348h257q4 0 2 5l-134 347q-4 9 -6 1l-121 -349q-1 -4 2 -4zM388 823q-20 0 -69.5 20.5
t-64.5 20.5q-31 0 -58 -28q-7 -7 -9 -7q-1 0 -1.5 0.5t0 3t2.5 5.5q11 18 33 35t41 17q7 0 12 -0.5t13.5 -3.5t13.5 -4.5t20.5 -8t25.5 -10.5q31 -12 51 -12q34 0 64 31q5 5 8 5t-2 -9q-11 -18 -34 -36.5t-46 -18.5z" />
    <glyph glyph-name="Adieresis" unicode="&#xc4;" horiz-adv-x="683" 
d="M469 325h-273q-4 0 -6 -6l-71 -212q-20 -62 -20 -79q0 -11 4.5 -16.5t16.5 -6.5q6 -1 20 -1q12 0 12 -3q0 -4 -11 -4q-12 0 -38 1.5t-29 1.5q-2 0 -26 -1.5t-49 -1.5q-13 0 -13 4q0 3 12 3q17 0 25 2q23 5 35.5 23.5t32.5 77.5l223 629q11 31 15 31q3 0 15 -31
q4 -11 51 -131.5t107 -274t90 -232.5q13 -32 17.5 -43t14.5 -25.5t21 -19t30 -5.5q13 -1 23 -1t10 -3q0 -4 -9 -4q-68 0 -122 4q-8 0 -8 3q0 2 7 3q18 3 9 24l-111 289q-2 5 -5 5zM204 348h257q4 0 2 5l-134 347q-4 9 -6 1l-121 -349q-1 -4 2 -4zM422 828q-27 0 -27 27
q0 10 6.5 18.5t21.5 8.5q27 0 27 -25q0 -29 -28 -29zM231 828q-14 0 -20.5 8.5t-6.5 18.5q0 28 28 28q27 0 27 -25q0 -30 -28 -30z" />
    <glyph glyph-name="Aring" unicode="&#xc5;" horiz-adv-x="683" 
d="M469 325h-273q-4 0 -6 -6l-71 -212q-20 -62 -20 -79q0 -11 4.5 -16.5t16.5 -6.5q6 -1 20 -1q12 0 12 -3q0 -4 -11 -4q-12 0 -38 1.5t-29 1.5q-2 0 -26 -1.5t-49 -1.5q-13 0 -13 4q0 3 12 3q17 0 25 2q23 5 35.5 23.5t32.5 77.5l223 629q11 31 15 31q3 0 15 -31
q4 -11 51 -131.5t107 -274t90 -232.5q13 -32 17.5 -43t14.5 -25.5t21 -19t30 -5.5q13 -1 23 -1t10 -3q0 -4 -9 -4q-68 0 -122 4q-8 0 -8 3q0 2 7 3q18 3 9 24l-111 289q-2 5 -5 5zM204 348h257q4 0 2 5l-134 347q-4 9 -6 1l-121 -349q-1 -4 2 -4zM313 796q-30 0 -47 16
t-17 40q0 30 26.5 52t66.5 22q30 0 47 -14.5t17 -38.5q0 -34 -28 -55.5t-65 -21.5zM272 860q0 -21 15.5 -34t34.5 -13q28 0 43 14t15 36q0 20 -13 33t-38 13q-22 0 -39.5 -12.5t-17.5 -36.5z" />
    <glyph glyph-name="AE" unicode="&#xc6;" horiz-adv-x="885" 
d="M531 750q175 0 200 1q43 0 50 3q3 1 5 1q3 0 2 -4q-3 -16 -4 -23q-4 -26 -4 -67q0 -13 -3 -13q-4 0 -4 14q0 33 -8 46q-11 19 -50 20q-44 3 -182 3q-6 0 -6 -10v-340q0 -3 3 -3q180 0 192 1q37 2 44 17q5 10 7 10q3 0 1 -8l-3 -14q-3 -14 -4 -23q-3 -24 -3 -67
q0 -9 -3 -9q-4 0 -4 9q-2 29 -5 38q-7 20 -38 23q-35 3 -184 3q-3 0 -3 -3v-98q0 -141 3 -183q1 -28 7.5 -40t28.5 -14q42 -4 83 -4q96 0 120 9q30 12 39 74q1 10 5 10q2 0 2 -10q0 -25 -13 -81q-3 -15 -11.5 -19.5t-42.5 -4.5q-95 0 -173 4q-39 2 -63 2q-6 0 -34.5 -1.5
t-38.5 -1.5q-12 0 -12 4q0 3 11 3q15 0 29 2q17 3 22.5 17t6.5 69q2 82 2 195v63q0 8 -6 8h-206q-8 0 -16 -10q-22 -28 -127 -203q-4 -7 -10.5 -18t-10 -17t-9 -15t-8.5 -14.5t-6.5 -13t-5.5 -12t-4 -10t-3 -9.5t-1 -8q0 -12 11.5 -17.5t42.5 -6.5q16 0 16 -4q0 -3 -15 -3
q-20 0 -49 1.5t-36 1.5q-14 0 -44 -1.5t-37 -1.5q-10 0 -10 4q0 3 10 3q30 0 49.5 14t49.5 59q28 42 99 154t163.5 257.5t139.5 219.5q19 29 19 42q0 4 4 3q13 -3 33 -3zM294 378h198q6 0 6 5v311q0 8 -2 9q-2 0 -3 -2q-13 -20 -101.5 -159t-100.5 -159q-3 -5 3 -5z" />
    <glyph glyph-name="Ccedilla" unicode="&#xc7;" horiz-adv-x="796" 
d="M414 -56l40 40q-164 10 -269 107q-66 59 -93.5 139t-27.5 155q0 159 99 265q104 117 301 117q92 0 155 -12q17 -3 41.5 -8t39.5 -8t21 -3t6 -4q0 -2 -1 -9.5t-2.5 -20t-2.5 -24.5q-2 -33 -2 -60q0 -12 -4 -12t-4 12q0 32 -5 51t-10.5 26t-16.5 14q-60 39 -215 39
q-80 0 -141 -18t-87.5 -37t-54.5 -48q-87 -91 -87 -254q0 -68 23 -133t69.5 -123t129 -93.5t190.5 -35.5q62 0 104 7.5t70 31.5q34 34 44 92q2 9 5 9q4 0 2 -11q-1 -16 -9 -54t-12 -49q-4 -12 -8 -15.5t-18 -10.5q-60 -23 -184 -23h-25q-35 -35 -41 -42q91 -21 91 -73
q0 -31 -24 -51t-47.5 -26t-42.5 -6q-9 0 -9 3q0 4 11 5q38 6 58 25t20 43q0 48 -79 64q-8 1 -8 6t10 13z" />
    <glyph glyph-name="Egrave" unicode="&#xc8;" horiz-adv-x="569" 
d="M182 287v176q0 190 -1 222q-2 34 -7 44t-24 14q-18 3 -41 3q-11 0 -11 4q0 3 10 3q14 0 47.5 -1.5t40.5 -1.5q194 0 219 1q43 0 50 3q3 1 5 1q4 0 2 -5q-3 -16 -4 -23q-4 -26 -4 -66q0 -13 -4 -13q-3 0 -3 14q0 34 -8 47q-11 18 -51 19q-44 3 -181 3q-6 0 -6 -10v-309
q0 -3 3 -3q171 0 194 1t31.5 5t12.5 14q3 8 5 8q3 0 1 -8l-3 -14q-3 -14 -4 -23q-3 -24 -3 -62q0 -10 -4 -10q-3 0 -3 10q-1 23 -4 33q-6 20 -38 23q-35 3 -185 3q-3 0 -3 -3v-98q0 -172 3 -214q1 -28 7.5 -40t28.5 -14q42 -4 83 -4q96 0 120 9q30 12 39 74q1 8 4 8
q2 0 2 -8q0 -33 -12 -81q-4 -16 -12 -20t-42 -4q-95 0 -173 4q-39 2 -63 2q-6 0 -34.5 -1.5t-38.5 -1.5q-12 0 -12 4q0 3 11 3q15 0 29 2q17 3 22.5 17.5t6.5 70.5q2 82 2 193zM342 819q0 -2 -4 -2q-13 0 -169 82q-10 6 -10 9t10 6q14 4 26 5q5 1 12 1q4 0 9 -5
q15 -15 113 -85q13 -9 13 -11z" />
    <glyph glyph-name="Eacute" unicode="&#xc9;" horiz-adv-x="569" 
d="M182 287v176q0 190 -1 222q-2 34 -7 44t-24 14q-18 3 -41 3q-11 0 -11 4q0 3 10 3q14 0 47.5 -1.5t40.5 -1.5q194 0 219 1q43 0 50 3q3 1 5 1q4 0 2 -5q-3 -16 -4 -23q-4 -26 -4 -66q0 -13 -4 -13q-3 0 -3 14q0 34 -8 47q-11 18 -51 19q-44 3 -181 3q-6 0 -6 -10v-309
q0 -3 3 -3q171 0 194 1t31.5 5t12.5 14q3 8 5 8q3 0 1 -8l-3 -14q-3 -14 -4 -23q-3 -24 -3 -62q0 -10 -4 -10q-3 0 -3 10q-1 23 -4 33q-6 20 -38 23q-35 3 -185 3q-3 0 -3 -3v-98q0 -172 3 -214q1 -28 7.5 -40t28.5 -14q42 -4 83 -4q96 0 120 9q30 12 39 74q1 8 4 8
q2 0 2 -8q0 -33 -12 -81q-4 -16 -12 -20t-42 -4q-95 0 -173 4q-39 2 -63 2q-6 0 -34.5 -1.5t-38.5 -1.5q-12 0 -12 4q0 3 11 3q15 0 29 2q17 3 22.5 17.5t6.5 70.5q2 82 2 193zM440 910q6 -5 15 -17q5 -8 -4 -8q-6 0 -25 -9q-77 -33 -132 -63q-10 -6 -14 -6q-3 0 -3 2
q0 3 8 9q47 36 115 82q22 15 29 15q6 0 11 -5z" />
    <glyph glyph-name="Ecircumflex" unicode="&#xca;" horiz-adv-x="569" 
d="M182 287v176q0 190 -1 222q-2 34 -7 44t-24 14q-18 3 -41 3q-11 0 -11 4q0 3 10 3q14 0 47.5 -1.5t40.5 -1.5q194 0 219 1q43 0 50 3q3 1 5 1q4 0 2 -5q-3 -16 -4 -23q-4 -26 -4 -66q0 -13 -4 -13q-3 0 -3 14q0 34 -8 47q-11 18 -51 19q-44 3 -181 3q-6 0 -6 -10v-309
q0 -3 3 -3q171 0 194 1t31.5 5t12.5 14q3 8 5 8q3 0 1 -8l-3 -14q-3 -14 -4 -23q-3 -24 -3 -62q0 -10 -4 -10q-3 0 -3 10q-1 23 -4 33q-6 20 -38 23q-35 3 -185 3q-3 0 -3 -3v-98q0 -172 3 -214q1 -28 7.5 -40t28.5 -14q42 -4 83 -4q96 0 120 9q30 12 39 74q1 8 4 8
q2 0 2 -8q0 -33 -12 -81q-4 -16 -12 -20t-42 -4q-95 0 -173 4q-39 2 -63 2q-6 0 -34.5 -1.5t-38.5 -1.5q-12 0 -12 4q0 3 11 3q15 0 29 2q17 3 22.5 17.5t6.5 70.5q2 82 2 193zM310 920q4 0 12 -5q14 -9 115 -83q7 -6 7 -7q0 -2 -2 -4l-15 -11q-5 -3 -7 -1q-76 61 -107 79
q-4 3 -7 3q-4 0 -12 -5q-15 -9 -104 -68q-14 -9 -20 -9q-6 1 6 11q20 14 67 50.5t55 42.5q8 7 12 7z" />
    <glyph glyph-name="Edieresis" unicode="&#xcb;" horiz-adv-x="569" 
d="M182 287v176q0 190 -1 222q-2 34 -7 44t-24 14q-18 3 -41 3q-11 0 -11 4q0 3 10 3q14 0 47.5 -1.5t40.5 -1.5q194 0 219 1q43 0 50 3q3 1 5 1q4 0 2 -5q-3 -16 -4 -23q-4 -26 -4 -66q0 -13 -4 -13q-3 0 -3 14q0 34 -8 47q-11 18 -51 19q-44 3 -181 3q-6 0 -6 -10v-309
q0 -3 3 -3q171 0 194 1t31.5 5t12.5 14q3 8 5 8q3 0 1 -8l-3 -14q-3 -14 -4 -23q-3 -24 -3 -62q0 -10 -4 -10q-3 0 -3 10q-1 23 -4 33q-6 20 -38 23q-35 3 -185 3q-3 0 -3 -3v-98q0 -172 3 -214q1 -28 7.5 -40t28.5 -14q42 -4 83 -4q96 0 120 9q30 12 39 74q1 8 4 8
q2 0 2 -8q0 -33 -12 -81q-4 -16 -12 -20t-42 -4q-95 0 -173 4q-39 2 -63 2q-6 0 -34.5 -1.5t-38.5 -1.5q-12 0 -12 4q0 3 11 3q15 0 29 2q17 3 22.5 17.5t6.5 70.5q2 82 2 193zM402 838q-27 0 -27 27q0 10 6.5 18.5t21.5 8.5q27 0 27 -25q0 -29 -28 -29zM211 838
q-14 0 -20.5 8.5t-6.5 18.5q0 28 28 28q27 0 27 -25q0 -30 -28 -30z" />
    <glyph glyph-name="Igrave" unicode="&#xcc;" horiz-adv-x="395" 
d="M182 287v177q0 185 -1 217q-1 18 -1.5 25t-2.5 16.5t-6 12t-11 5.5t-19 4q-5 0 -11.5 1t-10.5 1q-11 1 -11 4t11 3q12 0 42.5 -1.5t34.5 -1.5q5 0 31.5 1.5t38.5 1.5q11 0 11 -3t-10 -4l-22 -2q-22 -3 -27 -14t-6 -45q-1 -32 -1 -222v-176q0 -165 3 -228q2 -28 9 -39
t28 -14q16 -2 30 -2q11 0 11 -3q0 -4 -12 -4q-15 0 -35 0.5t-34 1.5t-15 1q-3 0 -28 -1.5t-40 -1.5q-12 0 -12 4q0 3 11 3q10 0 19 1q19 1 24.5 12t7.5 38q4 56 4 232zM235 819q0 -2 -4 -2q-13 0 -169 82q-10 6 -10 9t10 6q14 4 26 5q5 1 12 1q4 0 9 -5q15 -15 113 -85
q13 -9 13 -11z" />
    <glyph glyph-name="Iacute" unicode="&#xcd;" horiz-adv-x="395" 
d="M182 287v177q0 185 -1 217q-1 18 -1.5 25t-2.5 16.5t-6 12t-11 5.5t-19 4q-5 0 -11.5 1t-10.5 1q-11 1 -11 4t11 3q12 0 42.5 -1.5t34.5 -1.5q5 0 31.5 1.5t38.5 1.5q11 0 11 -3t-10 -4l-22 -2q-22 -3 -27 -14t-6 -45q-1 -32 -1 -222v-176q0 -165 3 -228q2 -28 9 -39
t28 -14q16 -2 30 -2q11 0 11 -3q0 -4 -12 -4q-15 0 -35 0.5t-34 1.5t-15 1q-3 0 -28 -1.5t-40 -1.5q-12 0 -12 4q0 3 11 3q10 0 19 1q19 1 24.5 12t7.5 38q4 56 4 232zM335 919q6 -5 15 -17q5 -8 -4 -8q-6 0 -25 -9q-77 -33 -132 -63q-11 -6 -14 -6t-3 2q0 3 8 9
q47 36 115 82q22 15 29 15q6 0 11 -5z" />
    <glyph glyph-name="Icircumflex" unicode="&#xce;" horiz-adv-x="395" 
d="M182 287v177q0 185 -1 217q-1 18 -1.5 25t-2.5 16.5t-6 12t-11 5.5t-19 4q-5 0 -11.5 1t-10.5 1q-11 1 -11 4t11 3q12 0 42.5 -1.5t34.5 -1.5q5 0 31.5 1.5t38.5 1.5q11 0 11 -3t-10 -4l-22 -2q-22 -3 -27 -14t-6 -45q-1 -32 -1 -222v-176q0 -165 3 -228q2 -28 9 -39
t28 -14q16 -2 30 -2q11 0 11 -3q0 -4 -12 -4q-15 0 -35 0.5t-34 1.5t-15 1q-3 0 -28 -1.5t-40 -1.5q-12 0 -12 4q0 3 11 3q10 0 19 1q19 1 24.5 12t7.5 38q4 56 4 232zM203 923q4 0 12 -5q14 -9 115 -83q7 -6 7 -7q0 -2 -2 -4l-15 -11q-5 -3 -7 -1q-76 61 -107 79q-5 3 -7 3
q-5 0 -12 -5q-15 -9 -104 -68q-13 -9 -20 -9q-6 1 6 11q20 14 67 50.5t55 42.5q8 7 12 7z" />
    <glyph glyph-name="Idieresis" unicode="&#xcf;" horiz-adv-x="395" 
d="M182 287v177q0 185 -1 217q-1 18 -1.5 25t-2.5 16.5t-6 12t-11 5.5t-19 4q-5 0 -11.5 1t-10.5 1q-11 1 -11 4t11 3q12 0 42.5 -1.5t34.5 -1.5q5 0 31.5 1.5t38.5 1.5q11 0 11 -3t-10 -4l-22 -2q-22 -3 -27 -14t-6 -45q-1 -32 -1 -222v-176q0 -165 3 -228q2 -28 9 -39
t28 -14q16 -2 30 -2q11 0 11 -3q0 -4 -12 -4q-15 0 -35 0.5t-34 1.5t-15 1q-3 0 -28 -1.5t-40 -1.5q-12 0 -12 4q0 3 11 3q10 0 19 1q19 1 24.5 12t7.5 38q4 56 4 232zM292 833q-27 0 -27 27q0 10 6.5 18.5t21.5 8.5q27 0 27 -25q0 -29 -28 -29zM101 833q-14 0 -20.5 8.5
t-6.5 18.5q0 28 28 28q27 0 27 -25q0 -30 -28 -30z" />
    <glyph glyph-name="periodcentered" unicode="&#xd0;" horiz-adv-x="221" 
d="M76 376q27 0 59 -11q10 -4 10 -7q0 -2 -2 -8q-14 -30 -50 -53q-7 -5 -9 -5q-3 0 -3 2q0 1 1 4l2 6q5 14 5 34q0 22 -15 30q-6 2 -6 5t8 3z" />
    <glyph glyph-name="Ntilde" unicode="&#xd1;" horiz-adv-x="907" 
d="M146 142q3 248 1 560q0 65 6 65q3 0 30 -32q21 -25 58 -71.5t95 -119t103 -128.5q96 -120 187.5 -232t109.5 -134l-5 591q0 66 -7 82.5t-35 20.5q-18 2 -26 2q-10 0 -10 4q0 3 10 3q15 0 45 -1.5t33 -1.5q4 0 34.5 1.5t42.5 1.5q10 0 10 -3t-9 -4q-5 0 -12 -1t-12 -1
q-25 -2 -30.5 -19.5t-6.5 -68.5v-7l1 -546q0 -116 -6 -116q-4 0 -48 55q-222 272 -270 333q-57 71 -159 199t-107 134l6 -598q1 -33 1.5 -45.5t3 -28t7.5 -19.5t13 -7.5t23 -4.5q9 -1 17 -1q12 0 12 -3q0 -4 -12 -4q-15 0 -42.5 1.5t-32.5 1.5t-31 -1.5t-43 -1.5
q-11 0 -11 4q0 3 10 3q8 0 22 1q15 1 21.5 10t9 36.5t3.5 90.5zM528 830q-20 0 -69.5 20.5t-64.5 20.5q-31 0 -58 -28q-7 -7 -9 -7q-1 0 -1.5 0.5t0 3t2.5 5.5q11 18 33 35t41 17q7 0 12 -0.5t13.5 -3.5t13.5 -4.5t20.5 -8t25.5 -10.5q31 -12 51 -12q34 0 64 31q5 5 8 5
t-2 -9q-11 -18 -34 -36.5t-46 -18.5z" />
    <glyph glyph-name="Ograve" unicode="&#xd2;" horiz-adv-x="889" 
d="M438 -17q-91 0 -164 33t-118 88.5t-68.5 123.5t-23.5 142q0 76 25.5 146.5t73 127t122 90t165.5 33.5q167 0 271 -105.5t104 -266.5q0 -172 -108 -292t-279 -120zM457 5q144 0 241 97.5t97 275.5q0 92 -31 165t-82 116t-112.5 65t-127.5 22q-169 0 -258.5 -101
t-89.5 -257q0 -180 104 -281.5t259 -101.5zM489 829q0 -2 -4 -2q-13 0 -169 82q-10 6 -10 9t10 6q14 4 26 5q5 1 12 1q4 0 9 -5q15 -15 113 -85q13 -9 13 -11z" />
    <glyph glyph-name="Oacute" unicode="&#xd3;" horiz-adv-x="889" 
d="M438 -17q-91 0 -164 33t-118 88.5t-68.5 123.5t-23.5 142q0 76 25.5 146.5t73 127t122 90t165.5 33.5q167 0 271 -105.5t104 -266.5q0 -172 -108 -292t-279 -120zM457 5q144 0 241 97.5t97 275.5q0 92 -31 165t-82 116t-112.5 65t-127.5 22q-169 0 -258.5 -101
t-89.5 -257q0 -180 104 -281.5t259 -101.5zM546 937q6 -5 15 -17q5 -8 -4 -8q-5 0 -25 -9q-77 -33 -132 -63q-10 -6 -14 -6q-3 0 -3 2q0 3 8 9q47 36 115 82q22 15 29 15q6 0 11 -5z" />
    <glyph glyph-name="Ocircumflex" unicode="&#xd4;" horiz-adv-x="889" 
d="M438 -17q-91 0 -164 33t-118 88.5t-68.5 123.5t-23.5 142q0 76 25.5 146.5t73 127t122 90t165.5 33.5q167 0 271 -105.5t104 -266.5q0 -172 -108 -292t-279 -120zM457 5q144 0 241 97.5t97 275.5q0 92 -31 165t-82 116t-112.5 65t-127.5 22q-169 0 -258.5 -101
t-89.5 -257q0 -180 104 -281.5t259 -101.5zM448 933q4 0 12 -5q14 -9 115 -83q7 -6 7 -7q0 -2 -2 -4l-15 -11q-5 -3 -7 -1q-76 61 -107 79q-5 3 -7 3q-4 0 -12 -5q-15 -9 -104 -68q-14 -9 -20 -9q-6 1 6 11q20 14 67 50.5t55 42.5q8 7 12 7z" />
    <glyph glyph-name="Otilde" unicode="&#xd5;" horiz-adv-x="889" 
d="M438 -17q-91 0 -164 33t-118 88.5t-68.5 123.5t-23.5 142q0 76 25.5 146.5t73 127t122 90t165.5 33.5q167 0 271 -105.5t104 -266.5q0 -172 -108 -292t-279 -120zM457 5q144 0 241 97.5t97 275.5q0 92 -31 165t-82 116t-112.5 65t-127.5 22q-169 0 -258.5 -101
t-89.5 -257q0 -180 104 -281.5t259 -101.5zM501 852q-20 0 -69.5 20.5t-64.5 20.5q-31 0 -58 -28q-7 -7 -9 -7q-1 0 -1.5 0.5t0 3t2.5 5.5q11 18 33 35t41 17q7 0 12 -0.5t13.5 -3.5t13.5 -4.5t20.5 -8t25.5 -10.5q31 -12 51 -12q34 0 64 31q5 5 8 5t-2 -9
q-11 -18 -34 -36.5t-46 -18.5z" />
    <glyph glyph-name="Odieresis" unicode="&#xd6;" horiz-adv-x="889" 
d="M438 -17q-91 0 -164 33t-118 88.5t-68.5 123.5t-23.5 142q0 76 25.5 146.5t73 127t122 90t165.5 33.5q167 0 271 -105.5t104 -266.5q0 -172 -108 -292t-279 -120zM457 5q144 0 241 97.5t97 275.5q0 92 -31 165t-82 116t-112.5 65t-127.5 22q-169 0 -258.5 -101
t-89.5 -257q0 -180 104 -281.5t259 -101.5zM538 848q-27 0 -27 27q0 10 6.5 18.5t21.5 8.5q27 0 27 -25q0 -29 -28 -29zM347 848q-14 0 -20.5 8.5t-6.5 18.5q0 28 28 28q27 0 27 -25q0 -30 -28 -30z" />
    <glyph glyph-name="multiply" unicode="&#xd7;" horiz-adv-x="642" 
d="M491 174l-169 169l-170 -170l-20 19l171 170l-171 171l19 19l170 -171l170 170l18 -19l-169 -170l170 -169z" />
    <glyph glyph-name="Oslash" unicode="&#xd8;" horiz-adv-x="889" 
d="M784 749l-71 -80q112 -106 112 -274q0 -172 -108 -292t-279 -120q-153 0 -253 92l-80 -90q-2 -2 -5 0q-8 6 -12 12q-1 3 1 5l79 89q-104 110 -104 279q0 76 25.5 146.5t73 127t122 90t165.5 33.5q145 0 246 -83l71 79q2 2 5 1q6 -3 12 -9q3 -3 0 -6zM190 115l487 547
q-97 84 -235 84q-169 0 -258.5 -101t-89.5 -257q0 -169 96 -273zM694 647l-488 -548q100 -94 251 -94q144 0 241 97.5t97 275.5q0 168 -101 269z" />
    <glyph glyph-name="Ugrave" unicode="&#xd9;" horiz-adv-x="828" 
d="M167 463v-147q0 -97 20.5 -152t56.5 -92q34 -35 85.5 -52t102.5 -17q114 0 172 69q64 76 64 258v133q0 175 -3 223q-2 31 -9.5 43.5t-32.5 14.5q-16 2 -25 2q-11 0 -11 4q0 3 12 3q17 0 47 -1.5t34 -1.5q5 0 29 1.5t36 1.5q11 0 11 -4q0 -3 -11 -3h-9q-25 -1 -32 -13
t-9 -47q-1 -32 -1 -223v-127q0 -100 -18.5 -169.5t-71.5 -118.5q-70 -65 -198 -65q-115 0 -186 71q-41 41 -61.5 98t-20.5 158v153q0 185 -1 217q-1 37 -6.5 48.5t-22.5 14.5t-38 3q-11 0 -11 4q0 3 12 3t44.5 -1.5t36.5 -1.5t32.5 1.5t40.5 1.5q11 0 11 -3q0 -4 -11 -4
q-4 0 -20 -2q-21 -2 -28.5 -15t-8.5 -45t-1 -221zM466 819q0 -2 -4 -2q-13 0 -169 82q-10 6 -10 9t10 6q14 4 26 5q5 1 12 1q4 0 9 -5q15 -15 113 -85q13 -9 13 -11z" />
    <glyph glyph-name="Uacute" unicode="&#xda;" horiz-adv-x="828" 
d="M167 463v-147q0 -97 20.5 -152t56.5 -92q34 -35 85.5 -52t102.5 -17q114 0 172 69q64 76 64 258v133q0 175 -3 223q-2 31 -9.5 43.5t-32.5 14.5q-16 2 -25 2q-11 0 -11 4q0 3 12 3q17 0 47 -1.5t34 -1.5q5 0 29 1.5t36 1.5q11 0 11 -4q0 -3 -11 -3h-9q-25 -1 -32 -13
t-9 -47q-1 -32 -1 -223v-127q0 -100 -18.5 -169.5t-71.5 -118.5q-70 -65 -198 -65q-115 0 -186 71q-41 41 -61.5 98t-20.5 158v153q0 185 -1 217q-1 37 -6.5 48.5t-22.5 14.5t-38 3q-11 0 -11 4q0 3 12 3t44.5 -1.5t36.5 -1.5t32.5 1.5t40.5 1.5q11 0 11 -3q0 -4 -11 -4
q-4 0 -20 -2q-21 -2 -28.5 -15t-8.5 -45t-1 -221zM539 928q6 -5 15 -17q5 -8 -4 -8q-6 0 -25 -9q-77 -33 -132 -63q-11 -6 -14 -6t-3 2q0 3 8 9q47 36 115 82q23 15 29 15t11 -5z" />
    <glyph glyph-name="Ucircumflex" unicode="&#xdb;" horiz-adv-x="828" 
d="M167 463v-147q0 -97 20.5 -152t56.5 -92q34 -35 85.5 -52t102.5 -17q114 0 172 69q64 76 64 258v133q0 175 -3 223q-2 31 -9.5 43.5t-32.5 14.5q-16 2 -25 2q-11 0 -11 4q0 3 12 3q17 0 47 -1.5t34 -1.5q5 0 29 1.5t36 1.5q11 0 11 -4q0 -3 -11 -3h-9q-25 -1 -32 -13
t-9 -47q-1 -32 -1 -223v-127q0 -100 -18.5 -169.5t-71.5 -118.5q-70 -65 -198 -65q-115 0 -186 71q-41 41 -61.5 98t-20.5 158v153q0 185 -1 217q-1 37 -6.5 48.5t-22.5 14.5t-38 3q-11 0 -11 4q0 3 12 3t44.5 -1.5t36.5 -1.5t32.5 1.5t40.5 1.5q11 0 11 -3q0 -4 -11 -4
q-4 0 -20 -2q-21 -2 -28.5 -15t-8.5 -45t-1 -221zM428 932q4 0 12 -5q14 -9 115 -83q7 -6 7 -7q0 -2 -2 -4l-15 -11q-5 -3 -7 -1q-76 61 -107 79q-5 3 -7 3q-5 0 -12 -5q-15 -9 -104 -68q-14 -9 -20 -9q-6 1 6 11q20 14 67 50.5t55 42.5q8 7 12 7z" />
    <glyph glyph-name="Udieresis" unicode="&#xdc;" horiz-adv-x="828" 
d="M167 463v-147q0 -97 20.5 -152t56.5 -92q34 -35 85.5 -52t102.5 -17q114 0 172 69q64 76 64 258v133q0 175 -3 223q-2 31 -9.5 43.5t-32.5 14.5q-16 2 -25 2q-11 0 -11 4q0 3 12 3q17 0 47 -1.5t34 -1.5q5 0 29 1.5t36 1.5q11 0 11 -4q0 -3 -11 -3h-9q-25 -1 -32 -13
t-9 -47q-1 -32 -1 -223v-127q0 -100 -18.5 -169.5t-71.5 -118.5q-70 -65 -198 -65q-115 0 -186 71q-41 41 -61.5 98t-20.5 158v153q0 185 -1 217q-1 37 -6.5 48.5t-22.5 14.5t-38 3q-11 0 -11 4q0 3 12 3t44.5 -1.5t36.5 -1.5t32.5 1.5t40.5 1.5q11 0 11 -3q0 -4 -11 -4
q-4 0 -20 -2q-21 -2 -28.5 -15t-8.5 -45t-1 -221zM516 838q-27 0 -27 27q0 10 6.5 18.5t21.5 8.5q27 0 27 -25q0 -29 -28 -29zM325 838q-14 0 -20.5 8.5t-6.5 18.5q0 28 28 28q27 0 27 -25q0 -30 -28 -30z" />
    <glyph glyph-name="Yacute" unicode="&#xdd;" horiz-adv-x="595" 
d="M288 196v81q0 45 -14 69q-120 212 -183 308q-5 7 -15 23.5t-15.5 24t-14 18t-17 15.5t-17.5 7q-10 2 -32 4q-10 1 -10 4t12 3q9 0 29.5 -1.5t33.5 -1.5q9 0 34 1.5t30 1.5q8 0 8 -3t-9 -4q-16 -1 -20.5 -5t-4.5 -12q0 -6 25 -50q8 -12 98 -164.5t101 -168.5
q72 116 183 313q32 57 32 69q0 9 -6 12.5t-29 5.5q-8 1 -8 4t9 3q10 0 32 -1.5t28 -1.5q20 0 43 1.5t31 1.5q10 0 10 -3t-10 -4q-20 -2 -28 -3q-18 -3 -30 -16.5t-38 -52.5q-48 -70 -187 -315q-16 -28 -19 -38.5t-3 -44.5v-80q0 -99 2 -141q1 -27 9 -36.5t31 -12.5
q14 -2 35 -2q9 0 9 -4q0 -3 -10 -3q-27 0 -54 1.5t-32 1.5q-8 0 -36 -1.5t-40 -1.5q-9 0 -9 4q0 3 9 3q15 0 29 3t18.5 12.5t6.5 33.5q3 42 3 143zM441 917q6 -5 15 -17q5 -8 -4 -8q-6 0 -25 -9q-77 -33 -132 -63q-11 -6 -14 -6t-3 2q0 3 8 9q47 36 115 82q22 15 29 15
q6 0 11 -5z" />
    <glyph glyph-name="Thorn" unicode="&#xde;" horiz-adv-x="609" 
d="M212 685q-1 -46 -1 -95q36 4 96 4q57 0 101 -14.5t55.5 -23.5t28.5 -25q19 -18 34 -52t15 -71q0 -100 -67.5 -157t-175.5 -57q-15 0 -22 1q-9 2 -9 5t17 3q102 0 164 51t62 132q0 122 -94 168q-48 24 -119 24q-52 0 -76 -6q-7 -2 -8.5 -6t-1.5 -16v-263q0 -165 3 -228
q2 -28 9 -39t28 -14q16 -2 36 -2q11 0 11 -3q0 -4 -12 -4q-15 0 -36.5 0.5t-37 1.5t-16.5 1q-3 0 -30.5 -1.5t-42.5 -1.5q-12 0 -12 4q0 3 11 3q15 0 29 2q16 2 20.5 13t6.5 36q4 56 4 232v177q0 185 -1 217q-2 46 -9 54t-29 10q-11 1 -28 1q-11 0 -11 4q0 3 11 3
q12 0 44.5 -1.5t36.5 -1.5q5 0 33.5 1.5t40.5 1.5q11 0 11 -3q0 -4 -12 -4t-24 -1q-22 -1 -27 -13t-6 -47z" />
    <glyph glyph-name="germandbls" unicode="&#xdf;" horiz-adv-x="651" 
d="M159 244v218q0 124 -3 161q0 5 3 6q65 13 141 13q108 0 159.5 -38.5t51.5 -89.5q0 -101 -151 -147q123 -52 168.5 -102.5t45.5 -111.5q0 -80 -64 -126q-53 -40 -132 -40q-57 0 -88 17q-12 5 -12 21q0 29 3 65q1 11 4 11t3 -9q0 -24 4 -39q13 -47 104 -47q72 0 110 38
t38 97q0 91 -99 152q-65 41 -133 65q-7 3 -7 6q0 4 9 6q92 17 129 51.5t37 84.5q0 51 -51.5 84.5t-152.5 33.5q-47 0 -80 -7q-4 -1 -4 -6q-4 -36 -4 -158v-209q0 -221 10 -241q2 -4 -3 -4q-3 0 -12.5 0.5t-11.5 0.5t-26 -1.5t-38 -1.5q-10 0 -10 4q0 3 9 3q6 0 22 2
q25 4 28 40q3 54 3 198z" />
    <glyph glyph-name="agrave" unicode="&#xe0;" horiz-adv-x="619" 
d="M419 273h-236q-3 0 -6 -6l-62 -178q-16 -48 -16 -63q0 -18 25 -21q8 -1 13 -1q9 0 9 -3q0 -4 -8 -4q-11 0 -35 1.5t-27 1.5q-2 0 -30 -1.5t-50 -1.5q-11 0 -11 4q0 3 11 3q19 0 31 2q22 5 33 20t28 63l197 536q9 27 13 27q3 0 14 -27q72 -187 218 -539q13 -30 17 -38.5
t13 -21.5t18 -16.5t25 -4.5q15 -1 22 -1q9 0 9 -3q0 -4 -10 -4q-70 0 -111 3q-7 0 -7 3q0 1 6 3q14 5 8 21l-96 240q-2 6 -5 6zM190 294h220q4 0 2 4l-114 287q-3 10 -6 1l-104 -289q-2 -3 2 -3zM333 721q0 -3 -4 -1q-14 2 -158 102q-9 8 -9 10q2 3 11 5q16 2 29 2
q11 0 18 -7q58 -61 102 -99q11 -10 11 -12z" />
    <glyph glyph-name="aacute" unicode="&#xe1;" horiz-adv-x="619" 
d="M419 273h-236q-3 0 -6 -6l-62 -178q-16 -48 -16 -63q0 -18 25 -21q8 -1 13 -1q9 0 9 -3q0 -4 -8 -4q-11 0 -35 1.5t-27 1.5q-2 0 -30 -1.5t-50 -1.5q-11 0 -11 4q0 3 11 3q19 0 31 2q22 5 33 20t28 63l197 536q9 27 13 27q3 0 14 -27q72 -187 218 -539q13 -30 17 -38.5
t13 -21.5t18 -16.5t25 -4.5q15 -1 22 -1q9 0 9 -3q0 -4 -10 -4q-70 0 -111 3q-7 0 -7 3q0 1 6 3q14 5 8 21l-96 240q-2 6 -5 6zM190 294h220q4 0 2 4l-114 287q-3 10 -6 1l-104 -289q-2 -3 2 -3zM425 831q10 -8 16 -15q2 -2 1.5 -4.5t-2.5 -2.5q-10 0 -29 -13
q-68 -39 -125 -80q-11 -6 -11 -3q0 4 6 9q19 18 105 95q20 17 27 18q7 0 12 -4z" />
    <glyph glyph-name="acircumflex" unicode="&#xe2;" horiz-adv-x="619" 
d="M419 273h-236q-3 0 -6 -6l-62 -178q-16 -48 -16 -63q0 -18 25 -21q8 -1 13 -1q9 0 9 -3q0 -4 -8 -4q-11 0 -35 1.5t-27 1.5q-2 0 -30 -1.5t-50 -1.5q-11 0 -11 4q0 3 11 3q19 0 31 2q22 5 33 20t28 63l197 536q9 27 13 27q3 0 14 -27q72 -187 218 -539q13 -30 17 -38.5
t13 -21.5t18 -16.5t25 -4.5q15 -1 22 -1q9 0 9 -3q0 -4 -10 -4q-70 0 -111 3q-7 0 -7 3q0 1 6 3q14 5 8 21l-96 240q-2 6 -5 6zM190 294h220q4 0 2 4l-114 287q-3 10 -6 1l-104 -289q-2 -3 2 -3zM301 814q5 0 12 -5q14 -9 115 -83q7 -6 7 -7q0 -2 -2 -4l-15 -11q-5 -3 -7 -1
q-76 61 -107 79q-5 3 -7 3q-5 0 -12 -5q-27 -15 -104 -67q-15 -10 -20 -10q-8 0 5 9q20 14 67.5 51.5t55.5 43.5q8 7 12 7z" />
    <glyph glyph-name="atilde" unicode="&#xe3;" horiz-adv-x="619" 
d="M419 273h-236q-3 0 -6 -6l-62 -178q-16 -48 -16 -63q0 -18 25 -21q8 -1 13 -1q9 0 9 -3q0 -4 -8 -4q-11 0 -35 1.5t-27 1.5q-2 0 -30 -1.5t-50 -1.5q-11 0 -11 4q0 3 11 3q19 0 31 2q22 5 33 20t28 63l197 536q9 27 13 27q3 0 14 -27q72 -187 218 -539q13 -30 17 -38.5
t13 -21.5t18 -16.5t25 -4.5q15 -1 22 -1q9 0 9 -3q0 -4 -10 -4q-70 0 -111 3q-7 0 -7 3q0 1 6 3q14 5 8 21l-96 240q-2 6 -5 6zM190 294h220q4 0 2 4l-114 287q-3 10 -6 1l-104 -289q-2 -3 2 -3zM362 728q-20 0 -69.5 20.5t-64.5 20.5q-30 0 -58 -28q-8 -8 -10 -8q-4 0 2 10
q11 18 33 35t41 17q7 0 12 -0.5t13.5 -3.5t13.5 -4.5t20.5 -8t25.5 -10.5q31 -12 51 -12q34 0 64 31q6 6 8 6q4 0 -2 -10q-11 -18 -34 -36.5t-46 -18.5z" />
    <glyph glyph-name="adieresis" unicode="&#xe4;" horiz-adv-x="619" 
d="M419 273h-236q-3 0 -6 -6l-62 -178q-16 -48 -16 -63q0 -18 25 -21q8 -1 13 -1q9 0 9 -3q0 -4 -8 -4q-11 0 -35 1.5t-27 1.5q-2 0 -30 -1.5t-50 -1.5q-11 0 -11 4q0 3 11 3q19 0 31 2q22 5 33 20t28 63l197 536q9 27 13 27q3 0 14 -27q72 -187 218 -539q13 -30 17 -38.5
t13 -21.5t18 -16.5t25 -4.5q15 -1 22 -1q9 0 9 -3q0 -4 -10 -4q-70 0 -111 3q-7 0 -7 3q0 1 6 3q14 5 8 21l-96 240q-2 6 -5 6zM190 294h220q4 0 2 4l-114 287q-3 10 -6 1l-104 -289q-2 -3 2 -3zM403 740q-27 0 -27 27q0 10 6.5 18.5t21.5 8.5q27 0 27 -25q0 -29 -28 -29z
M192 740q-14 0 -20.5 8.5t-6.5 18.5q0 28 28 28q27 0 27 -25q0 -30 -28 -30z" />
    <glyph glyph-name="aring" unicode="&#xe5;" horiz-adv-x="619" 
d="M419 273h-236q-3 0 -6 -6l-62 -178q-16 -48 -16 -63q0 -18 25 -21q8 -1 13 -1q9 0 9 -3q0 -4 -8 -4q-11 0 -35 1.5t-27 1.5q-2 0 -30 -1.5t-50 -1.5q-11 0 -11 4q0 3 11 3q19 0 31 2q22 5 33 20t28 63l197 536q9 27 13 27q3 0 14 -27q72 -187 218 -539q13 -30 17 -38.5
t13 -21.5t18 -16.5t25 -4.5q15 -1 22 -1q9 0 9 -3q0 -4 -10 -4q-70 0 -111 3q-7 0 -7 3q0 1 6 3q14 5 8 21l-96 240q-2 6 -5 6zM190 294h220q4 0 2 4l-114 287q-3 10 -6 1l-104 -289q-2 -3 2 -3zM280 696q-30 0 -47 16t-17 40q0 30 26.5 52t66.5 22q30 0 47 -14.5t17 -38.5
q0 -34 -28 -55.5t-65 -21.5zM239 760q0 -21 15.5 -34t34.5 -13q28 0 43 14t15 36q0 20 -13 33t-38 13q-22 0 -39.5 -12.5t-17.5 -36.5z" />
    <glyph glyph-name="ae" unicode="&#xe6;" horiz-adv-x="779" 
d="M466 637q157 0 179 1q27 0 41 3l8 2q3 0 1 -6q-3 -11 -4 -24q-3 -20 -3 -54q0 -11 -4 -11q-3 0 -3 9q0 30 -7 41q-9 15 -46 18q-75 3 -156 3q-7 0 -7 -9v-285q0 -4 4 -4q147 0 167 1q34 2 40 17q4 6 6 6q3 0 1 -7q-4 -22 -6 -34q-3 -21 -3 -57q0 -9 -3 -9q-4 0 -4 9
q-2 24 -4 32q-6 19 -34 20q-30 3 -160 3q-4 0 -4 -3v-54q0 -109 3 -178q2 -24 7.5 -34.5t24.5 -12.5q34 -4 74 -4q82 0 105 8q26 10 33 63q1 8 4 8t3 -8q0 -30 -10 -72q-3 -13 -11 -16.5t-38 -3.5q-46 0 -151 3q-35 2 -61 2q-6 0 -31 -1.5t-34 -1.5q-10 0 -10 5q0 4 9 4
q8 0 24 2t22 14.5t7 58.5q1 35 1 162v52q0 7 -5 7h-180q-9 0 -14 -7q-8 -10 -53.5 -81t-56.5 -90q-50 -81 -50 -98q0 -22 53 -22q9 0 9 -3q0 -4 -9 -4q-19 0 -47.5 1.5t-34.5 1.5q-10 0 -38 -1.5t-36 -1.5t-8 4q0 3 8 3q27 0 45 13.5t46 52.5q19 27 43 65.5t101 156.5
t207 310q17 25 17 35q0 4 4 3q12 -3 29 -3zM260 321h169q7 0 7 7v257q-2 6 -4 6q-68 -96 -174 -265q-2 -4 -2 -4.5t4 -0.5z" />
    <glyph glyph-name="ccedilla" unicode="&#xe7;" horiz-adv-x="704" 
d="M358 -56l43 43q-142 9 -235 90q-105 93 -105 250q0 134 88 226q95 99 263 99q77 0 134 -10q82 -15 89 -16q6 0 6 -4q0 -2 -1 -8.5t-2.5 -17t-2.5 -21.5q-1 -28 -1 -56q0 -12 -4 -12t-4 12q-1 60 -27 79q-52 36 -188 36q-68 0 -120 -15t-75 -30.5t-47 -39.5
q-77 -77 -77 -217q0 -61 20.5 -116.5t61.5 -103.5t111.5 -76.5t162.5 -28.5q113 0 152 34q28 26 36 77q2 10 6 10t2 -12q0 -12 -17 -86q-3 -10 -7 -14.5t-17 -10.5q-49 -19 -160 -19h-21q-37 -37 -44 -45q91 -21 91 -73q0 -31 -24 -51t-47.5 -26t-42.5 -6q-9 0 -9 4t16 7
q69 14 69 65q0 43 -75 64q-8 3 -8 6q0 5 10 13z" />
    <glyph glyph-name="egrave" unicode="&#xe8;" horiz-adv-x="508" 
d="M165 244v150q0 161 -1 189q-2 27 -7 35.5t-21 11.5t-36 3q-9 0 -9 4q0 3 9 3q12 0 41.5 -1.5t38.5 -1.5q6 0 94 0.5t100 0.5q28 0 41 3l8 2q3 0 1 -6q-3 -11 -4 -24q-3 -19 -3 -54q0 -11 -3 -11q-4 0 -4 9q0 30 -7 41q-9 15 -46 18q-75 3 -156 3q-7 0 -7 -9v-257
q0 -4 4 -4q146 0 166 1q35 3 41 17q4 6 6 6q3 0 1 -7q-4 -22 -6 -34q-3 -21 -3 -57q0 -9 -3 -9q-4 0 -4 9q-2 24 -4 32q-6 19 -34 20q-30 3 -160 3q-4 0 -4 -3v-82q0 -109 3 -178q2 -24 7.5 -34.5t24.5 -12.5q34 -4 74 -4q82 0 105 8q26 10 33 63q1 8 4 8q2 0 2 -8
q0 -29 -10 -71q-3 -13 -11 -17t-37 -4q-45 0 -150 3q-35 2 -61 2q-6 0 -32 -1.5t-34 -1.5q-10 0 -10 5q0 4 9 4q8 0 24 2q15 2 21 14t7 59q2 70 2 163zM311 709q0 -3 -4 -1q-14 2 -158 102q-9 8 -9 10q2 3 11 5q16 2 29 2q11 0 18 -7q58 -62 102 -99q11 -10 11 -12z" />
    <glyph glyph-name="eacute" unicode="&#xe9;" horiz-adv-x="508" 
d="M165 244v150q0 161 -1 189q-2 27 -7 35.5t-21 11.5t-36 3q-9 0 -9 4q0 3 9 3q12 0 41.5 -1.5t38.5 -1.5q6 0 94 0.5t100 0.5q28 0 41 3l8 2q3 0 1 -6q-3 -11 -4 -24q-3 -19 -3 -54q0 -11 -3 -11q-4 0 -4 9q0 30 -7 41q-9 15 -46 18q-75 3 -156 3q-7 0 -7 -9v-257
q0 -4 4 -4q146 0 166 1q35 3 41 17q4 6 6 6q3 0 1 -7q-4 -22 -6 -34q-3 -21 -3 -57q0 -9 -3 -9q-4 0 -4 9q-2 24 -4 32q-6 19 -34 20q-30 3 -160 3q-4 0 -4 -3v-82q0 -109 3 -178q2 -24 7.5 -34.5t24.5 -12.5q34 -4 74 -4q82 0 105 8q26 10 33 63q1 8 4 8q2 0 2 -8
q0 -29 -10 -71q-3 -13 -11 -17t-37 -4q-45 0 -150 3q-35 2 -61 2q-6 0 -32 -1.5t-34 -1.5q-10 0 -10 5q0 4 9 4q8 0 24 2q15 2 21 14t7 59q2 70 2 163zM399 821q10 -8 16 -15q2 -2 1.5 -4.5t-2.5 -2.5q-10 0 -29 -13q-68 -39 -125 -80q-11 -6 -11 -3q0 4 6 9q19 18 105 95
q20 17 27 18q7 0 12 -4z" />
    <glyph glyph-name="ecircumflex" unicode="&#xea;" horiz-adv-x="508" 
d="M165 244v150q0 161 -1 189q-2 27 -7 35.5t-21 11.5t-36 3q-9 0 -9 4q0 3 9 3q12 0 41.5 -1.5t38.5 -1.5q6 0 94 0.5t100 0.5q28 0 41 3l8 2q3 0 1 -6q-3 -11 -4 -24q-3 -19 -3 -54q0 -11 -3 -11q-4 0 -4 9q0 30 -7 41q-9 15 -46 18q-75 3 -156 3q-7 0 -7 -9v-257
q0 -4 4 -4q146 0 166 1q35 3 41 17q4 6 6 6q3 0 1 -7q-4 -22 -6 -34q-3 -21 -3 -57q0 -9 -3 -9q-4 0 -4 9q-2 24 -4 32q-6 19 -34 20q-30 3 -160 3q-4 0 -4 -3v-82q0 -109 3 -178q2 -24 7.5 -34.5t24.5 -12.5q34 -4 74 -4q82 0 105 8q26 10 33 63q1 8 4 8q2 0 2 -8
q0 -29 -10 -71q-3 -13 -11 -17t-37 -4q-45 0 -150 3q-35 2 -61 2q-6 0 -32 -1.5t-34 -1.5q-10 0 -10 5q0 4 9 4q8 0 24 2q15 2 21 14t7 59q2 70 2 163zM279 818q5 0 12 -5q14 -9 115 -83q7 -6 7 -7q0 -2 -2 -4l-15 -11q-5 -3 -7 -1q-76 61 -107 79q-4 3 -7 3q-5 0 -12 -5
q-27 -15 -104 -67q-15 -10 -20 -10q-8 0 5 9q20 14 67.5 51.5t55.5 43.5q8 7 12 7z" />
    <glyph glyph-name="edieresis" unicode="&#xeb;" horiz-adv-x="508" 
d="M165 244v150q0 161 -1 189q-2 27 -7 35.5t-21 11.5t-36 3q-9 0 -9 4q0 3 9 3q12 0 41.5 -1.5t38.5 -1.5q6 0 94 0.5t100 0.5q28 0 41 3l8 2q3 0 1 -6q-3 -11 -4 -24q-3 -19 -3 -54q0 -11 -3 -11q-4 0 -4 9q0 30 -7 41q-9 15 -46 18q-75 3 -156 3q-7 0 -7 -9v-257
q0 -4 4 -4q146 0 166 1q35 3 41 17q4 6 6 6q3 0 1 -7q-4 -22 -6 -34q-3 -21 -3 -57q0 -9 -3 -9q-4 0 -4 9q-2 24 -4 32q-6 19 -34 20q-30 3 -160 3q-4 0 -4 -3v-82q0 -109 3 -178q2 -24 7.5 -34.5t24.5 -12.5q34 -4 74 -4q82 0 105 8q26 10 33 63q1 8 4 8q2 0 2 -8
q0 -29 -10 -71q-3 -13 -11 -17t-37 -4q-45 0 -150 3q-35 2 -61 2q-6 0 -32 -1.5t-34 -1.5q-10 0 -10 5q0 4 9 4q8 0 24 2q15 2 21 14t7 59q2 70 2 163zM381 731q-27 0 -27 27q0 10 6.5 18.5t21.5 8.5q27 0 27 -25q0 -29 -28 -29zM170 731q-14 0 -20.5 8.5t-6.5 18.5
q0 28 28 28q27 0 27 -25q0 -30 -28 -30z" />
    <glyph glyph-name="igrave" unicode="&#xec;" horiz-adv-x="359" 
d="M165 244v150q0 158 -1 185q-2 31 -8 41t-30 12q-10 1 -18 1q-9 0 -9 3q0 4 9 4q11 0 40 -1.5t33 -1.5q3 0 27 1.5t35 1.5q9 0 9 -3q0 -4 -9 -4q-8 0 -15 -1q-19 -3 -24.5 -12.5t-7.5 -36.5q-2 -56 -2 -189v-150q0 -153 3 -193q2 -24 8 -34t25 -12q9 -1 25 -1q10 0 10 -4
q0 -3 -11 -3q-14 0 -31.5 0.5t-29 1.5t-12.5 1q-3 0 -28 -1.5t-38 -1.5q-9 0 -9 4q0 3 8 3q14 0 24 2q14 3 18 11.5t6 29.5q3 42 3 197zM208 712q0 -3 -4 -1q-14 2 -158 102q-9 7 -9 10q2 3 11 5q16 2 29 2q11 0 18 -7q58 -62 102 -99q11 -10 11 -12z" />
    <glyph glyph-name="iacute" unicode="&#xed;" horiz-adv-x="359" 
d="M165 244v150q0 158 -1 185q-2 31 -8 41t-30 12q-10 1 -18 1q-9 0 -9 3q0 4 9 4q11 0 40 -1.5t33 -1.5q3 0 27 1.5t35 1.5q9 0 9 -3q0 -4 -9 -4q-8 0 -15 -1q-19 -3 -24.5 -12.5t-7.5 -36.5q-2 -56 -2 -189v-150q0 -153 3 -193q2 -24 8 -34t25 -12q9 -1 25 -1q10 0 10 -4
q0 -3 -11 -3q-14 0 -31.5 0.5t-29 1.5t-12.5 1q-3 0 -28 -1.5t-38 -1.5q-9 0 -9 4q0 3 8 3q14 0 24 2q14 3 18 11.5t6 29.5q3 42 3 197zM304 824q10 -8 16 -15q2 -1 1.5 -4t-2.5 -3q-9 0 -29 -13q-68 -39 -125 -80q-11 -5 -11 -3q0 4 6 9q19 18 105 95q20 17 27 18
q7 0 12 -4z" />
    <glyph glyph-name="icircumflex" unicode="&#xee;" horiz-adv-x="359" 
d="M165 244v150q0 158 -1 185q-2 31 -8 41t-30 12q-10 1 -18 1q-9 0 -9 3q0 4 9 4q11 0 40 -1.5t33 -1.5q3 0 27 1.5t35 1.5q9 0 9 -3q0 -4 -9 -4q-8 0 -15 -1q-19 -3 -24.5 -12.5t-7.5 -36.5q-2 -56 -2 -189v-150q0 -153 3 -193q2 -24 8 -34t25 -12q9 -1 25 -1q10 0 10 -4
q0 -3 -11 -3q-14 0 -31.5 0.5t-29 1.5t-12.5 1q-3 0 -28 -1.5t-38 -1.5q-9 0 -9 4q0 3 8 3q14 0 24 2q14 3 18 11.5t6 29.5q3 42 3 197zM185 823q4 0 12 -5q14 -9 115 -83q7 -6 7 -7q0 -2 -2 -4l-15 -11q-5 -3 -7 -1q-76 61 -107 79q-4 3 -7 3q-5 0 -12 -5q-27 -15 -104 -67
q-15 -10 -20 -10q-8 0 5 9q20 14 67.5 51.5t55.5 43.5q8 7 12 7z" />
    <glyph glyph-name="idieresis" unicode="&#xef;" horiz-adv-x="359" 
d="M165 244v150q0 158 -1 185q-2 31 -8 41t-30 12q-10 1 -18 1q-9 0 -9 3q0 4 9 4q11 0 40 -1.5t33 -1.5q3 0 27 1.5t35 1.5q9 0 9 -3q0 -4 -9 -4q-8 0 -15 -1q-19 -3 -24.5 -12.5t-7.5 -36.5q-2 -56 -2 -189v-150q0 -153 3 -193q2 -24 8 -34t25 -12q9 -1 25 -1q10 0 10 -4
q0 -3 -11 -3q-14 0 -31.5 0.5t-29 1.5t-12.5 1q-3 0 -28 -1.5t-38 -1.5q-9 0 -9 4q0 3 8 3q14 0 24 2q14 3 18 11.5t6 29.5q3 42 3 197zM285 732q-27 0 -27 27q0 10 6.5 18.5t21.5 8.5q27 0 27 -25q0 -29 -28 -29zM74 732q-14 0 -20.5 8.5t-6.5 18.5q0 28 28 28q27 0 27 -25
q0 -30 -28 -30z" />
    <glyph glyph-name="macron" unicode="&#xf0;" 
d="M136 781h234q4 0 3 -5l-4 -14q-1 -4 -6 -4h-232q-6 0 -5 5l3 13q1 5 7 5z" />
    <glyph glyph-name="ntilde" unicode="&#xf1;" horiz-adv-x="828" 
d="M141 120q-1 87 -0.5 249.5t0.5 228.5q0 54 6 54q3 0 27 -27q20 -23 99.5 -118t130.5 -156q81 -97 161.5 -189.5t95.5 -110.5l-4 494q-1 51 -7 67.5t-26 18.5t-26 2q-9 0 -9 4q0 3 9 3q14 0 39.5 -1t28.5 -1t29.5 1t37.5 1q10 0 10 -3t-8 -4q-15 -1 -19 -2
q-23 -4 -28.5 -19.5t-5.5 -59.5l1 -468q0 -68 -1 -81.5t-5 -13.5q-2 0 -44 49q-188 219 -236 276q-50 59 -135.5 162t-99.5 119l6 -500q1 -56 9 -71.5t38 -18.5q9 -1 17 -1q10 0 10 -3q0 -4 -11 -4q-15 0 -42.5 1.5t-31.5 1.5q-3 0 -27 -1.5t-40 -1.5q-10 0 -10 4q0 3 9 3
t20 1q19 2 26 22.5t6 92.5zM467 730q-20 0 -69.5 20.5t-64.5 20.5q-30 0 -58 -28q-8 -8 -10 -8q-4 0 2 10q11 18 33 35t41 17q7 0 12 -0.5t13.5 -3.5t13.5 -4.5t20.5 -8t25.5 -10.5q31 -12 51 -12q34 0 64 31q6 6 8 6q4 0 -2 -10q-11 -18 -34 -36.5t-46 -18.5z" />
    <glyph glyph-name="ograve" unicode="&#xf2;" horiz-adv-x="783" 
d="M385 -14q-77 0 -140.5 28.5t-102.5 75.5t-60 105t-21 120q0 135 89.5 236t244.5 101q145 0 236 -89.5t91 -226.5q0 -149 -93 -249.5t-244 -100.5zM403 5q56 0 107 19t92.5 56.5t66 99.5t24.5 141q0 76 -27 137t-71 98.5t-97.5 57t-109.5 19.5q-143 0 -220.5 -84
t-77.5 -218q0 -150 90.5 -238t222.5 -88zM437 716q0 -3 -4 -1q-14 2 -158 102q-9 8 -9 10q2 3 11 5q16 2 29 2q11 0 18 -7q58 -62 102 -99q11 -10 11 -12z" />
    <glyph glyph-name="oacute" unicode="&#xf3;" horiz-adv-x="783" 
d="M385 -14q-77 0 -140.5 28.5t-102.5 75.5t-60 105t-21 120q0 135 89.5 236t244.5 101q145 0 236 -89.5t91 -226.5q0 -149 -93 -249.5t-244 -100.5zM403 5q56 0 107 19t92.5 56.5t66 99.5t24.5 141q0 76 -27 137t-71 98.5t-97.5 57t-109.5 19.5q-143 0 -220.5 -84
t-77.5 -218q0 -150 90.5 -238t222.5 -88zM503 837q10 -8 16 -15q2 -2 1.5 -4.5t-2.5 -2.5q-10 0 -29 -13q-68 -39 -125 -80q-11 -6 -11 -3q0 4 6 9q19 18 105 95q20 17 27 18q7 0 12 -4z" />
    <glyph glyph-name="ocircumflex" unicode="&#xf4;" horiz-adv-x="783" 
d="M385 -14q-77 0 -140.5 28.5t-102.5 75.5t-60 105t-21 120q0 135 89.5 236t244.5 101q145 0 236 -89.5t91 -226.5q0 -149 -93 -249.5t-244 -100.5zM403 5q56 0 107 19t92.5 56.5t66 99.5t24.5 141q0 76 -27 137t-71 98.5t-97.5 57t-109.5 19.5q-143 0 -220.5 -84
t-77.5 -218q0 -150 90.5 -238t222.5 -88zM396 823q4 0 12 -5q14 -9 115 -83q7 -6 7 -7q0 -2 -2 -4l-15 -11q-5 -3 -7 -1q-76 61 -107 79q-5 3 -7 3q-4 0 -12 -5q-27 -15 -104 -67q-15 -10 -20 -10q-8 0 5 9q20 14 67.5 51.5t55.5 43.5q8 7 12 7z" />
    <glyph glyph-name="otilde" unicode="&#xf5;" horiz-adv-x="783" 
d="M385 -14q-77 0 -140.5 28.5t-102.5 75.5t-60 105t-21 120q0 135 89.5 236t244.5 101q145 0 236 -89.5t91 -226.5q0 -149 -93 -249.5t-244 -100.5zM403 5q56 0 107 19t92.5 56.5t66 99.5t24.5 141q0 76 -27 137t-71 98.5t-97.5 57t-109.5 19.5q-143 0 -220.5 -84
t-77.5 -218q0 -150 90.5 -238t222.5 -88zM451 737q-20 0 -69.5 20.5t-64.5 20.5q-30 0 -58 -28q-8 -8 -10 -8q-4 0 2 10q11 18 33 35t41 17q7 0 12 -0.5t13.5 -3.5t13.5 -4.5t20.5 -8t25.5 -10.5q31 -12 51 -12q34 0 64 31q6 6 8 6q4 0 -2 -10q-11 -18 -34 -36.5t-46 -18.5z
" />
    <glyph glyph-name="odieresis" unicode="&#xf6;" horiz-adv-x="783" 
d="M385 -14q-77 0 -140.5 28.5t-102.5 75.5t-60 105t-21 120q0 135 89.5 236t244.5 101q145 0 236 -89.5t91 -226.5q0 -149 -93 -249.5t-244 -100.5zM403 5q56 0 107 19t92.5 56.5t66 99.5t24.5 141q0 76 -27 137t-71 98.5t-97.5 57t-109.5 19.5q-143 0 -220.5 -84
t-77.5 -218q0 -150 90.5 -238t222.5 -88zM496 742q-27 0 -27 27q0 10 6.5 18.5t21.5 8.5q27 0 27 -25q0 -29 -28 -29zM285 742q-14 0 -20.5 8.5t-6.5 18.5q0 28 28 28q27 0 27 -25q0 -30 -28 -30z" />
    <glyph glyph-name="divide" unicode="&#xf7;" horiz-adv-x="642" 
d="M321 510q-10 0 -16.5 6.5t-6.5 16.5q0 24 22 24q24 0 24 -23q0 -24 -23 -24zM320 215q10 0 17 -6.5t7 -16.5q0 -25 -24 -25q-10 0 -16 7t-6 17q0 11 6 17.5t16 6.5zM547 350h-451l-1 24h452v-24z" />
    <glyph glyph-name="oslash" unicode="&#xf8;" horiz-adv-x="783" 
d="M693 636l-65 -71q94 -89 94 -229q0 -149 -93 -249.5t-244 -100.5q-131 0 -219 80l-73 -80q-1 -1 -4 0q-8 5 -12 11q-1 3 0 5l74 79q-90 95 -90 234q0 135 89.5 236t244.5 101q129 0 218 -73l65 70q1 1 4 0q7 -2 11 -8q3 -3 0 -5zM171 103l422 455q-86 75 -205 75
q-143 0 -220.5 -84t-77.5 -218q0 -139 81 -228zM608 544l-421 -457q88 -82 216 -82q56 0 107 19t92.5 56.5t66 99.5t24.5 141q0 138 -85 223z" />
    <glyph glyph-name="ugrave" unicode="&#xf9;" horiz-adv-x="741" 
d="M157 394v-125q0 -139 69 -208q58 -57 162 -57q97 0 151 61q56 63 56 216v113q0 105 -3 186q-1 19 -3.5 28.5t-11 16t-25.5 7.5q-7 1 -18 1q-9 0 -9 4q0 3 9 3q22 0 47 -1.5t26 -1.5q5 0 28 1.5t34 1.5q8 0 8 -3q0 -4 -8 -4q-9 0 -15 -1q-18 -2 -24.5 -12t-7.5 -41
q-1 -27 -1 -185v-105q0 -87 -15.5 -146.5t-61.5 -100.5q-62 -56 -171 -56q-110 0 -173 60q-35 35 -53.5 83.5t-18.5 134.5v130q0 156 -1 183q-1 30 -7.5 41t-21.5 13q-10 2 -30 2q-10 0 -10 4q0 3 10 3q12 0 42 -1.5t34 -1.5q3 0 28 1.5t36 1.5q8 0 8 -3q0 -4 -8 -4
q-6 0 -15 -1q-22 -2 -28 -12.5t-7 -38.5t-1 -187zM413 711q0 -3 -4 -1q-14 2 -158 102q-9 8 -9 10q2 3 11 5q16 2 29 2q11 0 18 -7q58 -61 102 -99q11 -10 11 -12z" />
    <glyph glyph-name="uacute" unicode="&#xfa;" horiz-adv-x="741" 
d="M157 394v-125q0 -139 69 -208q58 -57 162 -57q97 0 151 61q56 63 56 216v113q0 105 -3 186q-1 19 -3.5 28.5t-11 16t-25.5 7.5q-7 1 -18 1q-9 0 -9 4q0 3 9 3q22 0 47 -1.5t26 -1.5q5 0 28 1.5t34 1.5q8 0 8 -3q0 -4 -8 -4q-9 0 -15 -1q-18 -2 -24.5 -12t-7.5 -41
q-1 -27 -1 -185v-105q0 -87 -15.5 -146.5t-61.5 -100.5q-62 -56 -171 -56q-110 0 -173 60q-35 35 -53.5 83.5t-18.5 134.5v130q0 156 -1 183q-1 30 -7.5 41t-21.5 13q-10 2 -30 2q-10 0 -10 4q0 3 10 3q12 0 42 -1.5t34 -1.5q3 0 28 1.5t36 1.5q8 0 8 -3q0 -4 -8 -4
q-6 0 -15 -1q-22 -2 -28 -12.5t-7 -38.5t-1 -187zM486 825q10 -8 16 -15q2 -2 1.5 -4.5t-2.5 -2.5q-10 0 -29 -13q-68 -39 -125 -80q-11 -6 -11 -3q0 4 6 9q19 18 105 95q20 17 27 18q7 0 12 -4z" />
    <glyph glyph-name="ucircumflex" unicode="&#xfb;" horiz-adv-x="741" 
d="M157 394v-125q0 -139 69 -208q58 -57 162 -57q97 0 151 61q56 63 56 216v113q0 105 -3 186q-1 19 -3.5 28.5t-11 16t-25.5 7.5q-7 1 -18 1q-9 0 -9 4q0 3 9 3q22 0 47 -1.5t26 -1.5q5 0 28 1.5t34 1.5q8 0 8 -3q0 -4 -8 -4q-9 0 -15 -1q-18 -2 -24.5 -12t-7.5 -41
q-1 -27 -1 -185v-105q0 -87 -15.5 -146.5t-61.5 -100.5q-62 -56 -171 -56q-110 0 -173 60q-35 35 -53.5 83.5t-18.5 134.5v130q0 156 -1 183q-1 30 -7.5 41t-21.5 13q-10 2 -30 2q-10 0 -10 4q0 3 10 3q12 0 42 -1.5t34 -1.5q3 0 28 1.5t36 1.5q8 0 8 -3q0 -4 -8 -4
q-6 0 -15 -1q-22 -2 -28 -12.5t-7 -38.5t-1 -187zM379 823q4 0 12 -5q14 -9 115 -83q7 -6 7 -7q0 -2 -2 -4l-15 -11q-5 -3 -7 -1q-76 61 -107 79q-4 3 -7 3q-5 0 -12 -5q-27 -15 -104 -67q-15 -10 -20 -10q-8 0 5 9q20 14 67.5 51.5t55.5 43.5q8 7 12 7z" />
    <glyph glyph-name="udieresis" unicode="&#xfc;" horiz-adv-x="741" 
d="M157 394v-125q0 -139 69 -208q58 -57 162 -57q97 0 151 61q56 63 56 216v113q0 105 -3 186q-1 19 -3.5 28.5t-11 16t-25.5 7.5q-7 1 -18 1q-9 0 -9 4q0 3 9 3q22 0 47 -1.5t26 -1.5q5 0 28 1.5t34 1.5q8 0 8 -3q0 -4 -8 -4q-9 0 -15 -1q-18 -2 -24.5 -12t-7.5 -41
q-1 -27 -1 -185v-105q0 -87 -15.5 -146.5t-61.5 -100.5q-62 -56 -171 -56q-110 0 -173 60q-35 35 -53.5 83.5t-18.5 134.5v130q0 156 -1 183q-1 30 -7.5 41t-21.5 13q-10 2 -30 2q-10 0 -10 4q0 3 10 3q12 0 42 -1.5t34 -1.5q3 0 28 1.5t36 1.5q8 0 8 -3q0 -4 -8 -4
q-6 0 -15 -1q-22 -2 -28 -12.5t-7 -38.5t-1 -187zM479 739q-27 0 -27 27q0 10 6.5 18.5t21.5 8.5q27 0 27 -25q0 -29 -28 -29zM268 739q-14 0 -20.5 8.5t-6.5 18.5q0 28 28 28q27 0 27 -25q0 -30 -28 -30z" />
    <glyph glyph-name="yacute" unicode="&#xfd;" horiz-adv-x="556" 
d="M270 165v69q0 39 -13 62q-105 180 -160 260q-3 4 -13.5 19.5t-14 20.5t-11.5 14.5t-15 13.5t-15 6q-14 3 -29 3q-9 0 -9 4q0 3 10 3q9 0 29.5 -1t30.5 -1q2 0 26 1t32 1q7 0 7 -2q0 -4 -9 -5q-20 -2 -20 -13q0 -2 20 -42q6 -9 85.5 -138.5t89.5 -143.5q132 219 159 265
q27 49 27 55q0 9 -6 12.5t-25 4.5q-9 0 -9 4q0 3 8 3q10 0 31 -1t26 -1q16 0 38 1t28 1q8 0 8 -3q0 -4 -8 -4q-21 -2 -28 -4q-5 -1 -10 -3.5t-8.5 -4.5t-8.5 -8t-7.5 -9.5l-10 -14t-11.5 -15.5q-17 -23 -79.5 -126.5t-85.5 -142.5q-14 -24 -16.5 -33.5t-2.5 -38.5v-68
q0 -81 2 -117q1 -21 9.5 -30t29.5 -12q14 -2 32 -2q10 0 10 -3q0 -4 -10 -4q-24 0 -53 1.5t-33 1.5q-6 0 -32.5 -1.5t-37.5 -1.5q-9 0 -9 3q0 4 9 4q16 0 26 2q22 4 25 41q2 35 2 118zM407 818q10 -8 16 -15q2 -1 1.5 -4t-2.5 -3q-10 0 -29 -13q-68 -39 -125 -80
q-11 -5 -11 -3q0 4 6 9q19 18 105 95q20 17 27 18q7 0 12 -4z" />
    <glyph glyph-name="thorn" unicode="&#xfe;" horiz-adv-x="546" 
d="M171 583q-1 -40 -1 -81q30 3 85 3q104 0 162 -54q43 -41 43 -104q0 -85 -59 -134.5t-154 -49.5q-13 0 -19 1q-8 2 -8 4q0 4 16 4q90 0 141.5 42.5t51.5 111.5q0 99 -79 141q-42 23 -105 23q-44 0 -66 -5q-9 -2 -9 -18v-223q0 -140 3 -193q2 -24 8.5 -33t25.5 -12
q14 -2 28 -2q9 0 9 -3q0 -4 -10 -4q-14 0 -32.5 0.5t-31.5 1.5t-14 1q-3 0 -27 -1.5t-37 -1.5q-10 0 -10 3q0 4 9 4q11 0 20 1q23 2 26 42q4 48 4 197v150q0 158 -1 185q-1 25 -2.5 32.5t-8.5 14t-23 7.5q-10 1 -22 1q-10 0 -10 3t10 3q11 0 38.5 -1.5t31.5 -1.5q3 0 27 1.5
t35 1.5q9 0 9 -3t-9 -3q-6 0 -15 -1q-18 -2 -23.5 -12.5t-6.5 -37.5z" />
    <glyph glyph-name="ydieresis" unicode="&#xff;" horiz-adv-x="556" 
d="M270 165v69q0 39 -13 62q-105 180 -160 260q-3 4 -13.5 19.5t-14 20.5t-11.5 14.5t-15 13.5t-15 6q-14 3 -29 3q-9 0 -9 4q0 3 10 3q9 0 29.5 -1t30.5 -1q2 0 26 1t32 1q7 0 7 -2q0 -4 -9 -5q-20 -2 -20 -13q0 -2 20 -42q6 -9 85.5 -138.5t89.5 -143.5q132 219 159 265
q27 49 27 55q0 9 -6 12.5t-25 4.5q-9 0 -9 4q0 3 8 3q10 0 31 -1t26 -1q16 0 38 1t28 1q8 0 8 -3q0 -4 -8 -4q-21 -2 -28 -4q-5 -1 -10 -3.5t-8.5 -4.5t-8.5 -8t-7.5 -9.5l-10 -14t-11.5 -15.5q-17 -23 -79.5 -126.5t-85.5 -142.5q-14 -24 -16.5 -33.5t-2.5 -38.5v-68
q0 -81 2 -117q1 -21 9.5 -30t29.5 -12q14 -2 32 -2q10 0 10 -3q0 -4 -10 -4q-24 0 -53 1.5t-33 1.5q-6 0 -32.5 -1.5t-37.5 -1.5q-9 0 -9 3q0 4 9 4q16 0 26 2q22 4 25 41q2 35 2 118zM385 731q-27 0 -27 27q0 10 6.5 18.5t21.5 8.5q27 0 27 -25q0 -29 -28 -29zM174 731
q-14 0 -20.5 8.5t-6.5 18.5q0 28 28 28q27 0 27 -25q0 -30 -28 -30z" />
    <glyph glyph-name="Amacron" unicode="&#x100;" horiz-adv-x="683" 
d="M469 325h-273q-4 0 -6 -6l-71 -212q-20 -62 -20 -79q0 -11 4.5 -16.5t16.5 -6.5q6 -1 20 -1q12 0 12 -3q0 -4 -11 -4q-12 0 -38 1.5t-29 1.5q-2 0 -26 -1.5t-49 -1.5q-13 0 -13 4q0 3 12 3q17 0 25 2q23 5 35.5 23.5t32.5 77.5l223 629q11 31 15 31q3 0 15 -31
q4 -11 51 -131.5t107 -274t90 -232.5q13 -32 17.5 -43t14.5 -25.5t21 -19t30 -5.5q13 -1 23 -1t10 -3q0 -4 -9 -4q-68 0 -122 4q-8 0 -8 3q0 2 7 3q18 3 9 24l-111 289q-2 5 -5 5zM204 348h257q4 0 2 5l-134 347q-4 9 -6 1l-121 -349q-1 -4 2 -4zM206 865h254q4 0 3 -5
l-4 -16q-1 -4 -6 -4h-252q-6 0 -5 5l3 15q1 5 7 5z" />
    <glyph glyph-name="amacron" unicode="&#x101;" horiz-adv-x="619" 
d="M419 273h-236q-3 0 -6 -6l-62 -178q-16 -48 -16 -63q0 -18 25 -21q8 -1 13 -1q9 0 9 -3q0 -4 -8 -4q-11 0 -35 1.5t-27 1.5q-2 0 -30 -1.5t-50 -1.5q-11 0 -11 4q0 3 11 3q19 0 31 2q22 5 33 20t28 63l197 536q9 27 13 27q3 0 14 -27q72 -187 218 -539q13 -30 17 -38.5
t13 -21.5t18 -16.5t25 -4.5q15 -1 22 -1q9 0 9 -3q0 -4 -10 -4q-70 0 -111 3q-7 0 -7 3q0 1 6 3q14 5 8 21l-96 240q-2 6 -5 6zM190 294h220q4 0 2 4l-114 287q-3 10 -6 1l-104 -289q-2 -3 2 -3zM188 771h234q4 0 3 -5l-4 -14q-1 -4 -6 -4h-232q-6 0 -5 5l3 13q1 5 7 5z" />
    <glyph glyph-name="Abreve" unicode="&#x102;" horiz-adv-x="683" 
d="M469 325h-273q-4 0 -6 -6l-71 -212q-20 -62 -20 -79q0 -11 4.5 -16.5t16.5 -6.5q6 -1 20 -1q12 0 12 -3q0 -4 -11 -4q-12 0 -38 1.5t-29 1.5q-2 0 -26 -1.5t-49 -1.5q-13 0 -13 4q0 3 12 3q17 0 25 2q23 5 35.5 23.5t32.5 77.5l223 629q11 31 15 31q3 0 15 -31
q4 -11 51 -131.5t107 -274t90 -232.5q13 -32 17.5 -43t14.5 -25.5t21 -19t30 -5.5q13 -1 23 -1t10 -3q0 -4 -9 -4q-68 0 -122 4q-8 0 -8 3q0 2 7 3q18 3 9 24l-111 289q-2 5 -5 5zM204 348h257q4 0 2 5l-134 347q-4 9 -6 1l-121 -349q-1 -4 2 -4zM184 890q0 4 4 8
q13 13 18 13q4 0 5 -4q13 -27 45.5 -42.5t75.5 -15.5q86 0 136 55q7 7 10 7q4 0 -5 -13q-61 -72 -160 -72q-59 0 -101 28q-28 22 -28 36z" />
    <glyph glyph-name="abreve" unicode="&#x103;" horiz-adv-x="619" 
d="M419 273h-236q-3 0 -6 -6l-62 -178q-16 -48 -16 -63q0 -18 25 -21q8 -1 13 -1q9 0 9 -3q0 -4 -8 -4q-11 0 -35 1.5t-27 1.5q-2 0 -30 -1.5t-50 -1.5q-11 0 -11 4q0 3 11 3q19 0 31 2q22 5 33 20t28 63l197 536q9 27 13 27q3 0 14 -27q72 -187 218 -539q13 -30 17 -38.5
t13 -21.5t18 -16.5t25 -4.5q15 -1 22 -1q9 0 9 -3q0 -4 -10 -4q-70 0 -111 3q-7 0 -7 3q0 1 6 3q14 5 8 21l-96 240q-2 6 -5 6zM190 294h220q4 0 2 4l-114 287q-3 10 -6 1l-104 -289q-2 -3 2 -3zM165 786q0 4 4 8q13 13 18 13q4 0 5 -4q26 -54 110 -54q79 0 128 50q6 7 10 7
q5 0 -7 -15q-55 -64 -149 -64q-55 0 -93 26q-26 20 -26 33z" />
    <glyph glyph-name="Aogonek" unicode="&#x104;" horiz-adv-x="683" 
d="M91 107l223 629q11 31 15 31q3 0 15 -31q4 -11 51 -131.5t107 -274t90 -232.5q13 -32 17.5 -43t14.5 -25.5t21 -19t30 -5.5q13 -1 23 -1t10 -3q0 -4 -9 -4h-29q-80 -55 -80 -118q0 -27 16.5 -40.5t37.5 -13.5q26 0 48 12q9 5 9 2t-5 -8q-30 -28 -71 -28q-31 0 -50 20
t-19 47q0 33 28.5 67.5t70.5 60.5q-27 0 -78 3q-8 0 -8 3q0 2 7 3q18 3 9 24l-111 289q-2 5 -5 5h-273q-4 0 -6 -6l-71 -212q-20 -62 -20 -79q0 -11 4.5 -16.5t16.5 -6.5q6 -1 20 -1q12 0 12 -3q0 -4 -11 -4q-12 0 -38 1.5t-29 1.5q-2 0 -26 -1.5t-49 -1.5q-13 0 -13 4
q0 3 12 3q17 0 25 2q23 5 35.5 23.5t32.5 77.5zM204 348h257q4 0 2 5l-134 347q-4 9 -6 1l-121 -349q-1 -4 2 -4z" />
    <glyph glyph-name="aogonek" unicode="&#x105;" horiz-adv-x="619" 
d="M88 89l197 536q9 27 13 27q3 0 14 -27q72 -187 218 -539q13 -30 17 -38.5t13 -21.5t18 -16.5t25 -4.5q15 -1 22 -1q9 0 9 -3q0 -4 -10 -4q-28 0 -45 1q-80 -56 -80 -119q0 -27 16 -40t37 -13q28 0 49 13q10 6 10 1q0 -2 -7 -9q-30 -28 -70 -28q-31 0 -50 20t-19 47
q0 33 28.5 67.5t70.5 60.5q-25 0 -51 2q-7 0 -7 3q0 1 6 3q14 5 8 21l-96 240q-2 6 -5 6h-236q-3 0 -6 -6l-62 -178q-16 -48 -16 -63q0 -18 25 -21q8 -1 13 -1q9 0 9 -3q0 -4 -8 -4q-11 0 -35 1.5t-27 1.5q-2 0 -30 -1.5t-50 -1.5q-11 0 -11 4q0 3 11 3q19 0 31 2
q22 5 33 20t28 63zM190 294h220q4 0 2 4l-114 287q-3 10 -6 1l-104 -289q-2 -3 2 -3z" />
    <glyph glyph-name="Cacute" unicode="&#x106;" horiz-adv-x="796" 
d="M500 -17q-197 0 -315 108q-66 59 -93.5 139t-27.5 155q0 159 99 265q104 117 301 117q92 0 155 -12q17 -3 41.5 -8t39.5 -8t21 -3t6 -4q0 -2 -1 -9.5t-2.5 -20t-2.5 -24.5q-2 -33 -2 -60q0 -12 -4 -12t-4 12q0 32 -5 51t-10.5 26t-16.5 14q-60 39 -215 39q-80 0 -141 -18
t-87.5 -37t-54.5 -48q-87 -91 -87 -254q0 -68 23 -133t69.5 -123t129 -93.5t190.5 -35.5q62 0 104 7.5t70 31.5q34 34 44 92q2 9 5 9q4 0 2 -11q-1 -16 -9 -54t-12 -49q-4 -12 -8 -15.5t-18 -10.5q-60 -23 -184 -23zM563 931q6 -5 15 -17q5 -8 -4 -8q-6 0 -25 -9
q-77 -33 -132 -63q-11 -6 -14 -6t-3 2q0 3 8 9q47 36 115 82q23 15 29 15t11 -5z" />
    <glyph glyph-name="cacute" unicode="&#x107;" horiz-adv-x="704" 
d="M443 -14q-173 0 -277 91q-105 93 -105 250q0 134 88 226q95 99 263 99q77 0 134 -10q82 -15 89 -16q6 0 6 -4q0 -2 -1 -8.5t-2.5 -17t-2.5 -21.5q-1 -28 -1 -56q0 -12 -4 -12t-4 12q-1 60 -27 79q-52 36 -188 36q-68 0 -120 -15t-75 -30.5t-47 -39.5q-77 -77 -77 -217
q0 -61 20.5 -116.5t61.5 -103.5t111.5 -76.5t162.5 -28.5q113 0 152 34q28 26 36 77q2 10 6 10t2 -12q0 -12 -17 -86q-3 -10 -7 -14.5t-17 -10.5q-49 -19 -160 -19zM504 837q10 -8 16 -15q2 -2 1.5 -4.5t-2.5 -2.5q-10 0 -29 -13q-68 -39 -125 -80q-11 -6 -11 -3q0 4 6 9
q19 18 105 95q20 17 27 18q7 0 12 -4z" />
    <glyph glyph-name="Ccircumflex" unicode="&#x108;" horiz-adv-x="796" 
d="M500 -17q-197 0 -315 108q-66 59 -93.5 139t-27.5 155q0 159 99 265q104 117 301 117q92 0 155 -12q17 -3 41.5 -8t39.5 -8t21 -3t6 -4q0 -2 -1 -9.5t-2.5 -20t-2.5 -24.5q-2 -33 -2 -60q0 -12 -4 -12t-4 12q0 32 -5 51t-10.5 26t-16.5 14q-60 39 -215 39q-80 0 -141 -18
t-87.5 -37t-54.5 -48q-87 -91 -87 -254q0 -68 23 -133t69.5 -123t129 -93.5t190.5 -35.5q62 0 104 7.5t70 31.5q34 34 44 92q2 9 5 9q4 0 2 -11q-1 -16 -9 -54t-12 -49q-4 -12 -8 -15.5t-18 -10.5q-60 -23 -184 -23zM463 946q4 0 12 -5q14 -9 115 -83q7 -6 7 -7q0 -2 -2 -4
l-15 -11q-5 -3 -7 -1q-76 61 -107 79q-5 3 -7 3q-5 0 -12 -5q-15 -9 -104 -68q-14 -9 -20 -9q-6 1 6 11q20 14 67 50.5t55 42.5q8 7 12 7z" />
    <glyph glyph-name="ccircumflex" unicode="&#x109;" horiz-adv-x="704" 
d="M443 -14q-173 0 -277 91q-105 93 -105 250q0 134 88 226q95 99 263 99q77 0 134 -10q82 -15 89 -16q6 0 6 -4q0 -2 -1 -8.5t-2.5 -17t-2.5 -21.5q-1 -28 -1 -56q0 -12 -4 -12t-4 12q-1 60 -27 79q-52 36 -188 36q-68 0 -120 -15t-75 -30.5t-47 -39.5q-77 -77 -77 -217
q0 -61 20.5 -116.5t61.5 -103.5t111.5 -76.5t162.5 -28.5q113 0 152 34q28 26 36 77q2 10 6 10t2 -12q0 -12 -17 -86q-3 -10 -7 -14.5t-17 -10.5q-49 -19 -160 -19zM392 823q4 0 12 -5q14 -9 115 -83q7 -6 7 -7q0 -2 -2 -4l-15 -11q-5 -3 -7 -1q-76 61 -107 79q-5 3 -7 3
q-4 0 -12 -5q-27 -15 -104 -67q-15 -10 -20 -10q-8 0 5 9q20 14 67.5 51.5t55.5 43.5q8 7 12 7z" />
    <glyph glyph-name="Cdotaccent" unicode="&#x10a;" horiz-adv-x="796" 
d="M500 -17q-197 0 -315 108q-66 59 -93.5 139t-27.5 155q0 159 99 265q104 117 301 117q92 0 155 -12q17 -3 41.5 -8t39.5 -8t21 -3t6 -4q0 -2 -1 -9.5t-2.5 -20t-2.5 -24.5q-2 -33 -2 -60q0 -12 -4 -12t-4 12q0 32 -5 51t-10.5 26t-16.5 14q-60 39 -215 39q-80 0 -141 -18
t-87.5 -37t-54.5 -48q-87 -91 -87 -254q0 -68 23 -133t69.5 -123t129 -93.5t190.5 -35.5q62 0 104 7.5t70 31.5q34 34 44 92q2 9 5 9q4 0 2 -11q-1 -16 -9 -54t-12 -49q-4 -12 -8 -15.5t-18 -10.5q-60 -23 -184 -23zM459 856q-14 0 -21 8.5t-7 19.5q0 10 7 19t21 9
q12 0 20.5 -7.5t8.5 -19.5t-8 -20.5t-21 -8.5z" />
    <glyph glyph-name="cdotaccent" unicode="&#x10b;" horiz-adv-x="704" 
d="M443 -14q-173 0 -277 91q-105 93 -105 250q0 134 88 226q95 99 263 99q77 0 134 -10q82 -15 89 -16q6 0 6 -4q0 -2 -1 -8.5t-2.5 -17t-2.5 -21.5q-1 -28 -1 -56q0 -12 -4 -12t-4 12q-1 60 -27 79q-52 36 -188 36q-68 0 -120 -15t-75 -30.5t-47 -39.5q-77 -77 -77 -217
q0 -61 20.5 -116.5t61.5 -103.5t111.5 -76.5t162.5 -28.5q113 0 152 34q28 26 36 77q2 10 6 10t2 -12q0 -12 -17 -86q-3 -10 -7 -14.5t-17 -10.5q-49 -19 -160 -19zM391 748q-14 0 -21 8.5t-7 19.5q0 10 7 19t21 9q12 0 20.5 -7.5t8.5 -19.5t-8 -20.5t-21 -8.5z" />
    <glyph glyph-name="Ccaron" unicode="&#x10c;" horiz-adv-x="796" 
d="M500 -17q-197 0 -315 108q-66 59 -93.5 139t-27.5 155q0 159 99 265q104 117 301 117q92 0 155 -12q17 -3 41.5 -8t39.5 -8t21 -3t6 -4q0 -2 -1 -9.5t-2.5 -20t-2.5 -24.5q-2 -33 -2 -60q0 -12 -4 -12t-4 12q0 32 -5 51t-10.5 26t-16.5 14q-60 39 -215 39q-80 0 -141 -18
t-87.5 -37t-54.5 -48q-87 -91 -87 -254q0 -68 23 -133t69.5 -123t129 -93.5t190.5 -35.5q62 0 104 7.5t70 31.5q34 34 44 92q2 9 5 9q4 0 2 -11q-1 -16 -9 -54t-12 -49q-4 -12 -8 -15.5t-18 -10.5q-60 -23 -184 -23zM465 831q-5 0 -12 5q-14 9 -115 83q-7 6 -7 7q0 2 2 4
l15 11q5 3 7 1q76 -61 107 -79q4 -3 7 -3q4 0 12 5q30 18 106 68q13 9 18 9t-4 -8q-1 -2 -3 -3q-20 -14 -66.5 -50.5t-54.5 -42.5q-8 -7 -12 -7z" />
    <glyph glyph-name="ccaron" unicode="&#x10d;" horiz-adv-x="704" 
d="M443 -14q-173 0 -277 91q-105 93 -105 250q0 134 88 226q95 99 263 99q77 0 134 -10q82 -15 89 -16q6 0 6 -4q0 -2 -1 -8.5t-2.5 -17t-2.5 -21.5q-1 -28 -1 -56q0 -12 -4 -12t-4 12q-1 60 -27 79q-52 36 -188 36q-68 0 -120 -15t-75 -30.5t-47 -39.5q-77 -77 -77 -217
q0 -61 20.5 -116.5t61.5 -103.5t111.5 -76.5t162.5 -28.5q113 0 152 34q28 26 36 77q2 10 6 10t2 -12q0 -12 -17 -86q-3 -10 -7 -14.5t-17 -10.5q-49 -19 -160 -19zM396 710q-4 0 -12 5q-14 9 -115 83q-7 6 -7 7q0 2 2 4l15 11q5 3 7 1q76 -61 107 -79q5 -3 7 -3q4 0 12 5
q30 18 106 68q14 9 18 9q5 0 0 -6l-4 -3q-20 -14 -68 -51.5t-56 -43.5q-8 -7 -12 -7z" />
    <glyph glyph-name="Dcaron" unicode="&#x10e;" horiz-adv-x="886" 
d="M182 277v189q0 174 -1 215q-1 38 -7 49t-29 14q-16 2 -33 2q-11 0 -11 4q0 3 12 3q22 0 49 -1l26 -2q17 0 81 2.5t84 1.5q252 5 368 -110q44 -43 72.5 -110.5t28.5 -149.5q0 -166 -110 -284q-39 -42 -119 -77.5t-185 -35.5q-57 0 -120 5q-18 2 -40 4t-34 3t-19 1
q-16 0 -44 -2q-15 -1 -31 -1q-9 0 -9 4q0 3 11 3q14 0 23 1q21 2 26.5 13.5t7.5 49.5q3 57 3 209zM211 462v-165q0 -63 0.5 -133.5t0.5 -74.5q0 -45 16 -57q38 -25 186 -25q152 0 249 73q52 38 89 113.5t37 176.5q0 150 -87 247q-58 66 -149.5 92t-222.5 26q-78 0 -108 -7
q-10 -2 -10 -15q-1 -34 -1 -251zM421 819q-5 0 -12 5q-14 9 -115 83q-7 6 -7 7q0 2 2 4l15 11q5 3 7 1q76 -61 107 -79q4 -3 7 -3q5 0 12 5q30 18 106 68q13 9 18 9t-4 -8q-1 -2 -3 -3q-20 -14 -66.5 -50.5t-54.5 -42.5q-8 -7 -12 -7z" />
    <glyph glyph-name="dcaron" unicode="&#x10f;" horiz-adv-x="789" 
d="M165 236v160q0 149 -1 183q-1 30 -6 38.5t-25 12.5q-18 3 -32 3q-9 0 -9 4q0 3 11 3q1 0 29.5 -1.5t40.5 -1.5q16 0 70.5 2t70.5 2q43 0 74.5 -2t80.5 -10t92.5 -29t76.5 -53q38 -37 63.5 -94t25.5 -127q0 -140 -95 -241q-34 -36 -102.5 -66t-164.5 -30q-38 0 -106 4
q-74 7 -80 7q-13 0 -39 -2q-13 -1 -29 -1q-9 0 -9 3q0 4 10 4t18 1q19 1 24.5 11.5t7.5 40.5q3 50 3 179zM194 394v-136q0 -54 1 -114.5t1 -63.5q0 -40 14 -50q31 -23 162 -23q135 0 217 63q45 33 75 95t30 148q0 126 -77 211q-51 56 -130.5 77.5t-191.5 21.5q-62 0 -88 -7
q-11 -3 -11 -13q-2 -29 -2 -209zM388 710q-4 0 -12 5q-14 9 -115 83q-7 6 -7 7q0 2 2 4l15 11q5 3 7 1q76 -61 107 -79q4 -3 7 -3q4 0 12 5q30 18 106 68q14 9 18 9q5 0 0 -6l-4 -3q-20 -14 -68 -51.5t-56 -43.5q-8 -7 -12 -7z" />
    <glyph glyph-name="Dcroat" unicode="&#x110;" horiz-adv-x="896" 
d="M192 390v76q0 174 -1 215q-1 38 -7 49t-29 14q-16 2 -33 2q-11 0 -11 4q0 3 12 3q22 0 49 -1l26 -2q17 0 81 2.5t84 1.5q252 5 368 -110q44 -43 72.5 -110.5t28.5 -149.5q0 -166 -110 -284q-39 -42 -119 -77.5t-185 -35.5q-57 0 -120 5q-18 2 -40 4t-34 3t-19 1
q-16 0 -44 -2q-15 -1 -31 -1q-9 0 -9 4q0 3 11 3q14 0 23 1q21 2 26.5 13.5t7.5 49.5q3 57 3 209v93h-113q-8 0 -8 4q0 5 2 13q1 3 11 3h108zM221 370v-73q0 -63 0.5 -133.5t0.5 -74.5q0 -45 16 -57q38 -25 186 -25q152 0 249 73q52 38 89 113.5t37 176.5q0 150 -87 247
q-58 66 -149.5 92t-222.5 26q-78 0 -108 -7q-10 -2 -10 -15q-1 -34 -1 -251v-72h243q8 0 8 -5q0 -3 -2 -11q-1 -4 -12 -4h-237z" />
    <glyph glyph-name="dcroat" unicode="&#x111;" horiz-adv-x="788" 
d="M165 332v64q0 149 -1 183q-1 30 -6 38.5t-25 12.5q-18 3 -32 3q-9 0 -9 4q0 3 11 3q1 0 29.5 -1.5t40.5 -1.5q16 0 70.5 2t70.5 2q43 0 74.5 -2t80.5 -10t92.5 -29t76.5 -53q38 -37 63.5 -94t25.5 -127q0 -140 -95 -241q-34 -36 -102.5 -66t-164.5 -30q-38 0 -106 4
q-74 7 -80 7q-13 0 -39 -2q-13 -1 -29 -1q-9 0 -9 3q0 4 10 4t18 1q19 1 24.5 11.5t7.5 40.5q3 50 3 179v78h-95q-7 0 -7 4t2 12q1 2 11 2h89zM194 314v-56q0 -54 1 -114.5t1 -63.5q0 -40 14 -50q31 -23 162 -23q135 0 217 63q45 33 75 95t30 148q0 126 -77 211
q-51 56 -130.5 77.5t-191.5 21.5q-62 0 -88 -7q-11 -3 -11 -13q-2 -29 -2 -209v-62h214q7 0 7 -4q0 -1 -0.5 -4.5t-0.5 -5.5q-3 -4 -12 -4h-208z" />
    <glyph glyph-name="Emacron" unicode="&#x112;" horiz-adv-x="569" 
d="M182 287v176q0 190 -1 222q-2 34 -7 44t-24 14q-18 3 -41 3q-11 0 -11 4q0 3 10 3q14 0 47.5 -1.5t40.5 -1.5q194 0 219 1q43 0 50 3q3 1 5 1q4 0 2 -5q-3 -16 -4 -23q-4 -26 -4 -66q0 -13 -4 -13q-3 0 -3 14q0 34 -8 47q-11 18 -51 19q-44 3 -181 3q-6 0 -6 -10v-309
q0 -3 3 -3q171 0 194 1t31.5 5t12.5 14q3 8 5 8q3 0 1 -8l-3 -14q-3 -14 -4 -23q-3 -24 -3 -62q0 -10 -4 -10q-3 0 -3 10q-1 23 -4 33q-6 20 -38 23q-35 3 -185 3q-3 0 -3 -3v-98q0 -172 3 -214q1 -28 7.5 -40t28.5 -14q42 -4 83 -4q96 0 120 9q30 12 39 74q1 8 4 8
q2 0 2 -8q0 -33 -12 -81q-4 -16 -12 -20t-42 -4q-95 0 -173 4q-39 2 -63 2q-6 0 -34.5 -1.5t-38.5 -1.5q-12 0 -12 4q0 3 11 3q15 0 29 2q17 3 22.5 17.5t6.5 70.5q2 82 2 193zM188 863h254q4 0 3 -5l-4 -16q-1 -4 -6 -4h-252q-6 0 -5 5l3 15q1 5 7 5z" />
    <glyph glyph-name="emacron" unicode="&#x113;" horiz-adv-x="508" 
d="M165 244v150q0 161 -1 189q-2 27 -7 35.5t-21 11.5t-36 3q-9 0 -9 4q0 3 9 3q12 0 41.5 -1.5t38.5 -1.5q6 0 94 0.5t100 0.5q28 0 41 3l8 2q3 0 1 -6q-3 -11 -4 -24q-3 -19 -3 -54q0 -11 -3 -11q-4 0 -4 9q0 30 -7 41q-9 15 -46 18q-75 3 -156 3q-7 0 -7 -9v-257
q0 -4 4 -4q146 0 166 1q35 3 41 17q4 6 6 6q3 0 1 -7q-4 -22 -6 -34q-3 -21 -3 -57q0 -9 -3 -9q-4 0 -4 9q-2 24 -4 32q-6 19 -34 20q-30 3 -160 3q-4 0 -4 -3v-82q0 -109 3 -178q2 -24 7.5 -34.5t24.5 -12.5q34 -4 74 -4q82 0 105 8q26 10 33 63q1 8 4 8q2 0 2 -8
q0 -29 -10 -71q-3 -13 -11 -17t-37 -4q-45 0 -150 3q-35 2 -61 2q-6 0 -32 -1.5t-34 -1.5q-10 0 -10 5q0 4 9 4q8 0 24 2q15 2 21 14t7 59q2 70 2 163zM157 771h234q4 0 3 -5l-4 -14q-1 -4 -6 -4h-232q-6 0 -5 5l3 13q1 5 7 5z" />
    <glyph glyph-name="Ebreve" unicode="&#x114;" horiz-adv-x="569" 
d="M182 287v176q0 190 -1 222q-2 34 -7 44t-24 14q-18 3 -41 3q-11 0 -11 4q0 3 10 3q14 0 47.5 -1.5t40.5 -1.5q194 0 219 1q43 0 50 3q3 1 5 1q4 0 2 -5q-3 -16 -4 -23q-4 -26 -4 -66q0 -13 -4 -13q-3 0 -3 14q0 34 -8 47q-11 18 -51 19q-44 3 -181 3q-6 0 -6 -10v-309
q0 -3 3 -3q171 0 194 1t31.5 5t12.5 14q3 8 5 8q3 0 1 -8l-3 -14q-3 -14 -4 -23q-3 -24 -3 -62q0 -10 -4 -10q-3 0 -3 10q-1 23 -4 33q-6 20 -38 23q-35 3 -185 3q-3 0 -3 -3v-98q0 -172 3 -214q1 -28 7.5 -40t28.5 -14q42 -4 83 -4q96 0 120 9q30 12 39 74q1 8 4 8
q2 0 2 -8q0 -33 -12 -81q-4 -16 -12 -20t-42 -4q-95 0 -173 4q-39 2 -63 2q-6 0 -34.5 -1.5t-38.5 -1.5q-12 0 -12 4q0 3 11 3q15 0 29 2q17 3 22.5 17.5t6.5 70.5q2 82 2 193zM167 895q0 4 4 8q13 13 18 13q4 0 5 -4q13 -27 45.5 -42.5t75.5 -15.5q87 0 136 55q7 7 10 7
q4 0 -5 -13q-61 -72 -160 -72q-59 0 -101 28q-28 22 -28 36z" />
    <glyph glyph-name="ebreve" unicode="&#x115;" horiz-adv-x="508" 
d="M165 244v150q0 161 -1 189q-2 27 -7 35.5t-21 11.5t-36 3q-9 0 -9 4q0 3 9 3q12 0 41.5 -1.5t38.5 -1.5q6 0 94 0.5t100 0.5q28 0 41 3l8 2q3 0 1 -6q-3 -11 -4 -24q-3 -19 -3 -54q0 -11 -3 -11q-4 0 -4 9q0 30 -7 41q-9 15 -46 18q-75 3 -156 3q-7 0 -7 -9v-257
q0 -4 4 -4q146 0 166 1q35 3 41 17q4 6 6 6q3 0 1 -7q-4 -22 -6 -34q-3 -21 -3 -57q0 -9 -3 -9q-4 0 -4 9q-2 24 -4 32q-6 19 -34 20q-30 3 -160 3q-4 0 -4 -3v-82q0 -109 3 -178q2 -24 7.5 -34.5t24.5 -12.5q34 -4 74 -4q82 0 105 8q26 10 33 63q1 8 4 8q2 0 2 -8
q0 -29 -10 -71q-3 -13 -11 -17t-37 -4q-45 0 -150 3q-35 2 -61 2q-6 0 -32 -1.5t-34 -1.5q-10 0 -10 5q0 4 9 4q8 0 24 2q15 2 21 14t7 59q2 70 2 163zM136 786q0 4 4 8q13 13 18 13q4 0 5 -4q26 -54 110 -54q79 0 128 50q6 7 10 7q5 0 -7 -15q-55 -64 -149 -64
q-55 0 -93 26q-26 20 -26 33z" />
    <glyph glyph-name="Edotaccent" unicode="&#x116;" horiz-adv-x="569" 
d="M182 287v176q0 190 -1 222q-2 34 -7 44t-24 14q-18 3 -41 3q-11 0 -11 4q0 3 10 3q14 0 47.5 -1.5t40.5 -1.5q194 0 219 1q43 0 50 3q3 1 5 1q4 0 2 -5q-3 -16 -4 -23q-4 -26 -4 -66q0 -13 -4 -13q-3 0 -3 14q0 34 -8 47q-11 18 -51 19q-44 3 -181 3q-6 0 -6 -10v-309
q0 -3 3 -3q171 0 194 1t31.5 5t12.5 14q3 8 5 8q3 0 1 -8l-3 -14q-3 -14 -4 -23q-3 -24 -3 -62q0 -10 -4 -10q-3 0 -3 10q-1 23 -4 33q-6 20 -38 23q-35 3 -185 3q-3 0 -3 -3v-98q0 -172 3 -214q1 -28 7.5 -40t28.5 -14q42 -4 83 -4q96 0 120 9q30 12 39 74q1 8 4 8
q2 0 2 -8q0 -33 -12 -81q-4 -16 -12 -20t-42 -4q-95 0 -173 4q-39 2 -63 2q-6 0 -34.5 -1.5t-38.5 -1.5q-12 0 -12 4q0 3 11 3q15 0 29 2q17 3 22.5 17.5t6.5 70.5q2 82 2 193zM312 838q-14 0 -21 8.5t-7 19.5q0 10 7 19t21 9q12 0 20.5 -7.5t8.5 -19.5t-8 -20.5t-21 -8.5z
" />
    <glyph glyph-name="edotaccent" unicode="&#x117;" horiz-adv-x="508" 
d="M165 244v150q0 161 -1 189q-2 27 -7 35.5t-21 11.5t-36 3q-9 0 -9 4q0 3 9 3q12 0 41.5 -1.5t38.5 -1.5q6 0 94 0.5t100 0.5q28 0 41 3l8 2q3 0 1 -6q-3 -11 -4 -24q-3 -19 -3 -54q0 -11 -3 -11q-4 0 -4 9q0 30 -7 41q-9 15 -46 18q-75 3 -156 3q-7 0 -7 -9v-257
q0 -4 4 -4q146 0 166 1q35 3 41 17q4 6 6 6q3 0 1 -7q-4 -22 -6 -34q-3 -21 -3 -57q0 -9 -3 -9q-4 0 -4 9q-2 24 -4 32q-6 19 -34 20q-30 3 -160 3q-4 0 -4 -3v-82q0 -109 3 -178q2 -24 7.5 -34.5t24.5 -12.5q34 -4 74 -4q82 0 105 8q26 10 33 63q1 8 4 8q2 0 2 -8
q0 -29 -10 -71q-3 -13 -11 -17t-37 -4q-45 0 -150 3q-35 2 -61 2q-6 0 -32 -1.5t-34 -1.5q-10 0 -10 5q0 4 9 4q8 0 24 2q15 2 21 14t7 59q2 70 2 163zM277 731q-14 0 -21 8.5t-7 19.5q0 10 7 19t21 9q12 0 20.5 -7.5t8.5 -19.5t-8 -20.5t-21 -8.5z" />
    <glyph glyph-name="Eogonek" unicode="&#x118;" horiz-adv-x="569" 
d="M211 386v-98q0 -172 3 -214q1 -28 7.5 -40t28.5 -14q42 -4 83 -4q96 0 120 9q30 12 39 74q1 8 4 8q2 0 2 -8q0 -33 -12 -81l-4 -12t-6.5 -6.5t-16.5 -4.5q-76 -54 -76 -116q0 -27 16.5 -40.5t37.5 -13.5q26 0 48 12q9 5 9 2t-5 -8q-30 -28 -71 -28q-31 0 -50 20t-19 47
q0 63 93 124h-10q-95 0 -173 4q-39 2 -63 2q-6 0 -34.5 -1.5t-38.5 -1.5q-12 0 -12 4q0 3 11 3q15 0 29 2q17 3 22.5 17.5t6.5 70.5q2 82 2 193v176q0 190 -1 222q-2 34 -7 44t-24 14q-18 3 -41 3q-11 0 -11 4q0 3 10 3q14 0 47.5 -1.5t40.5 -1.5q194 0 219 1q43 0 50 3
q3 1 5 1q4 0 2 -5q-3 -16 -4 -23q-4 -26 -4 -66q0 -13 -4 -13q-3 0 -3 14q0 34 -8 47q-11 18 -51 19q-44 3 -181 3q-6 0 -6 -10v-309q0 -3 3 -3q171 0 194 1t31.5 5t12.5 14q3 8 5 8q3 0 1 -8l-3 -14q-3 -14 -4 -23q-3 -24 -3 -62q0 -10 -4 -10q-3 0 -3 10q-1 23 -4 33
q-6 20 -38 23q-35 3 -185 3q-3 0 -3 -3z" />
    <glyph glyph-name="eogonek" unicode="&#x119;" horiz-adv-x="508" 
d="M194 327v-82q0 -109 3 -178q2 -24 7.5 -34.5t24.5 -12.5q34 -4 74 -4q82 0 105 8q26 10 33 63q1 8 4 8q2 0 2 -8q0 -29 -10 -71q-3 -12 -9 -16t-27 -5q-77 -54 -77 -116q0 -27 16 -40t37 -13q28 0 49 13q10 6 10 1q0 -2 -7 -9q-30 -28 -70 -28q-31 0 -50 20t-19 47
q0 32 27 65.5t67 59.5q-43 0 -145 3q-35 2 -61 2q-6 0 -32 -1.5t-34 -1.5q-10 0 -10 5q0 4 9 4q8 0 24 2q15 2 21 14t7 59q2 70 2 163v150q0 161 -1 189q-2 27 -7 35.5t-21 11.5t-36 3q-9 0 -9 4q0 3 9 3q12 0 41.5 -1.5t38.5 -1.5q6 0 94 0.5t100 0.5q28 0 41 3l8 2
q3 0 1 -6q-3 -11 -4 -24q-3 -19 -3 -54q0 -11 -3 -11q-4 0 -4 9q0 30 -7 41q-9 15 -46 18q-75 3 -156 3q-7 0 -7 -9v-257q0 -4 4 -4q146 0 166 1q35 3 41 17q4 6 6 6q3 0 1 -7q-4 -22 -6 -34q-3 -21 -3 -57q0 -9 -3 -9q-4 0 -4 9q-2 24 -4 32q-6 19 -34 20q-30 3 -160 3
q-4 0 -4 -3z" />
    <glyph glyph-name="Ecaron" unicode="&#x11a;" horiz-adv-x="569" 
d="M182 287v176q0 190 -1 222q-2 34 -7 44t-24 14q-18 3 -41 3q-11 0 -11 4q0 3 10 3q14 0 47.5 -1.5t40.5 -1.5q194 0 219 1q43 0 50 3q3 1 5 1q4 0 2 -5q-3 -16 -4 -23q-4 -26 -4 -66q0 -13 -4 -13q-3 0 -3 14q0 34 -8 47q-11 18 -51 19q-44 3 -181 3q-6 0 -6 -10v-309
q0 -3 3 -3q171 0 194 1t31.5 5t12.5 14q3 8 5 8q3 0 1 -8l-3 -14q-3 -14 -4 -23q-3 -24 -3 -62q0 -10 -4 -10q-3 0 -3 10q-1 23 -4 33q-6 20 -38 23q-35 3 -185 3q-3 0 -3 -3v-98q0 -172 3 -214q1 -28 7.5 -40t28.5 -14q42 -4 83 -4q96 0 120 9q30 12 39 74q1 8 4 8
q2 0 2 -8q0 -33 -12 -81q-4 -16 -12 -20t-42 -4q-95 0 -173 4q-39 2 -63 2q-6 0 -34.5 -1.5t-38.5 -1.5q-12 0 -12 4q0 3 11 3q15 0 29 2q17 3 22.5 17.5t6.5 70.5q2 82 2 193zM310 811q-4 0 -12 5q-14 9 -115 83q-7 6 -7 7q0 2 2 4l15 11q5 3 7 1q76 -61 107 -79q5 -3 7 -3
q4 0 12 5q30 18 106 68q14 9 18 9q5 0 -4 -8q-1 -2 -3 -3q-20 -14 -66.5 -50.5t-54.5 -42.5q-8 -7 -12 -7z" />
    <glyph glyph-name="ecaron" unicode="&#x11b;" horiz-adv-x="508" 
d="M165 244v150q0 161 -1 189q-2 27 -7 35.5t-21 11.5t-36 3q-9 0 -9 4q0 3 9 3q12 0 41.5 -1.5t38.5 -1.5q6 0 94 0.5t100 0.5q28 0 41 3l8 2q3 0 1 -6q-3 -11 -4 -24q-3 -19 -3 -54q0 -11 -3 -11q-4 0 -4 9q0 30 -7 41q-9 15 -46 18q-75 3 -156 3q-7 0 -7 -9v-257
q0 -4 4 -4q146 0 166 1q35 3 41 17q4 6 6 6q3 0 1 -7q-4 -22 -6 -34q-3 -21 -3 -57q0 -9 -3 -9q-4 0 -4 9q-2 24 -4 32q-6 19 -34 20q-30 3 -160 3q-4 0 -4 -3v-82q0 -109 3 -178q2 -24 7.5 -34.5t24.5 -12.5q34 -4 74 -4q82 0 105 8q26 10 33 63q1 8 4 8q2 0 2 -8
q0 -29 -10 -71q-3 -13 -11 -17t-37 -4q-45 0 -150 3q-35 2 -61 2q-6 0 -32 -1.5t-34 -1.5q-10 0 -10 5q0 4 9 4q8 0 24 2q15 2 21 14t7 59q2 70 2 163zM277 708q-5 0 -12 5q-14 9 -115 83q-7 6 -7 7q0 2 2 4l15 11q5 3 7 1q76 -61 107 -79q4 -3 7 -3q5 0 12 5q30 18 106 68
q13 9 18 9t0 -6l-4 -3q-20 -14 -68 -51.5t-56 -43.5q-8 -7 -12 -7z" />
    <glyph glyph-name="Gcircumflex" unicode="&#x11c;" horiz-adv-x="835" 
d="M714 224v-147q0 -30 -1 -37t-6 -10q-89 -47 -234 -47q-76 0 -156.5 27t-137.5 82q-115 108 -115 286q0 196 144 305q111 84 290 84q78 0 154 -16q61 -13 75 -14q5 0 5 -6q0 -3 -2 -14t-3.5 -35.5t-1.5 -61.5q0 -14 -4 -14t-4 14q-1 51 -13 72q-14 25 -78 40.5t-167 15.5
q-59 0 -124.5 -18.5t-116.5 -58.5q-54 -42 -89 -114.5t-35 -161.5q0 -187 129 -300q44 -38 107 -60.5t101 -27t71 -4.5q117 0 163 27q20 12 20 36v175q0 82 -6 100.5t-32 21.5q-16 2 -38 2q-12 0 -12 4t12 4q23 0 56.5 -1t35.5 -1q1 0 28 1t40 1q12 0 12 -4t-12 -4
q-11 0 -22 -1q-17 -1 -23 -11t-8 -38q-2 -34 -2 -91zM455 943q5 0 12 -5q14 -9 115 -83q7 -6 7 -7q0 -2 -2 -4l-15 -11q-5 -3 -7 -1q-76 61 -107 79q-5 3 -7 3q-5 0 -12 -5q-15 -9 -104 -68q-14 -9 -20 -9q-6 1 6 11q20 14 67 50.5t55 42.5q8 7 12 7z" />
    <glyph glyph-name="gcircumflex" unicode="&#x11d;" horiz-adv-x="743" 
d="M631 188v-123q0 -35 -6 -40q-76 -39 -203 -39q-68 0 -138.5 22t-121.5 70q-101 90 -101 243q0 93 37.5 158t90.5 103q95 70 249 70q57 0 137 -15q62 -12 66 -12q5 0 5 -5q0 -2 -1.5 -12t-3 -32t-1.5 -54q0 -12 -4 -12t-4 12q-1 42 -15 63q-32 48 -211 48q-126 0 -208 -64
q-47 -35 -77 -95.5t-30 -136.5q0 -159 110 -252q92 -79 243 -79q96 0 138 21q19 11 19 29v150q0 65 -5.5 81.5t-28.5 20.5q-12 2 -33 2q-10 0 -10 4q0 3 10 3q21 0 52 -1t32 -1t26.5 1t37.5 1q9 0 9 -3q0 -4 -9 -4q-11 0 -21 -1q-15 -1 -20.5 -10t-7.5 -32q-2 -30 -2 -79z
M386 823q4 0 12 -5q14 -9 115 -83q7 -6 7 -7q0 -2 -2 -4l-15 -11q-5 -3 -7 -1q-76 61 -107 79q-5 3 -7 3q-4 0 -12 -5q-27 -15 -104 -67q-15 -10 -20 -10q-8 0 5 9q20 14 67.5 51.5t55.5 43.5q8 7 12 7z" />
    <glyph glyph-name="Gbreve" unicode="&#x11e;" horiz-adv-x="835" 
d="M714 224v-147q0 -30 -1 -37t-6 -10q-89 -47 -234 -47q-76 0 -156.5 27t-137.5 82q-115 108 -115 286q0 196 144 305q111 84 290 84q78 0 154 -16q61 -13 75 -14q5 0 5 -6q0 -3 -2 -14t-3.5 -35.5t-1.5 -61.5q0 -14 -4 -14t-4 14q-1 51 -13 72q-14 25 -78 40.5t-167 15.5
q-59 0 -124.5 -18.5t-116.5 -58.5q-54 -42 -89 -114.5t-35 -161.5q0 -187 129 -300q44 -38 107 -60.5t101 -27t71 -4.5q117 0 163 27q20 12 20 36v175q0 82 -6 100.5t-32 21.5q-16 2 -38 2q-12 0 -12 4t12 4q23 0 56.5 -1t35.5 -1q1 0 28 1t40 1q12 0 12 -4t-12 -4
q-11 0 -22 -1q-17 -1 -23 -11t-8 -38q-2 -34 -2 -91zM309 917q0 4 4 8q13 13 18 13q4 0 5 -4q13 -27 45.5 -42.5t75.5 -15.5q87 0 136 55q7 7 10 7q4 0 -5 -13q-61 -72 -160 -72q-59 0 -101 28q-28 22 -28 36z" />
    <glyph glyph-name="gbreve" unicode="&#x11f;" horiz-adv-x="743" 
d="M631 188v-123q0 -35 -6 -40q-76 -39 -203 -39q-68 0 -138.5 22t-121.5 70q-101 90 -101 243q0 93 37.5 158t90.5 103q95 70 249 70q57 0 137 -15q62 -12 66 -12q5 0 5 -5q0 -2 -1.5 -12t-3 -32t-1.5 -54q0 -12 -4 -12t-4 12q-1 42 -15 63q-32 48 -211 48q-126 0 -208 -64
q-47 -35 -77 -95.5t-30 -136.5q0 -159 110 -252q92 -79 243 -79q96 0 138 21q19 11 19 29v150q0 65 -5.5 81.5t-28.5 20.5q-12 2 -33 2q-10 0 -10 4q0 3 10 3q21 0 52 -1t32 -1t26.5 1t37.5 1q9 0 9 -3q0 -4 -9 -4q-11 0 -21 -1q-15 -1 -20.5 -10t-7.5 -32q-2 -30 -2 -79z
M246 786q0 4 4 8q13 13 18 13q4 0 5 -4q26 -54 110 -54q79 0 128 50q6 7 10 7q5 0 -7 -15q-55 -64 -149 -64q-55 0 -93 26q-26 20 -26 33z" />
    <glyph glyph-name="Gdotaccent" unicode="&#x120;" horiz-adv-x="835" 
d="M714 224v-147q0 -30 -1 -37t-6 -10q-89 -47 -234 -47q-76 0 -156.5 27t-137.5 82q-115 108 -115 286q0 196 144 305q111 84 290 84q78 0 154 -16q61 -13 75 -14q5 0 5 -6q0 -3 -2 -14t-3.5 -35.5t-1.5 -61.5q0 -14 -4 -14t-4 14q-1 51 -13 72q-14 25 -78 40.5t-167 15.5
q-59 0 -124.5 -18.5t-116.5 -58.5q-54 -42 -89 -114.5t-35 -161.5q0 -187 129 -300q44 -38 107 -60.5t101 -27t71 -4.5q117 0 163 27q20 12 20 36v175q0 82 -6 100.5t-32 21.5q-16 2 -38 2q-12 0 -12 4t12 4q23 0 56.5 -1t35.5 -1q1 0 28 1t40 1q12 0 12 -4t-12 -4
q-11 0 -22 -1q-17 -1 -23 -11t-8 -38q-2 -34 -2 -91zM449 848q-14 0 -21 8.5t-7 19.5q0 10 7 19t21 9q12 0 20.5 -7.5t8.5 -19.5t-8 -20.5t-21 -8.5z" />
    <glyph glyph-name="gdotaccent" unicode="&#x121;" horiz-adv-x="743" 
d="M631 188v-123q0 -35 -6 -40q-76 -39 -203 -39q-68 0 -138.5 22t-121.5 70q-101 90 -101 243q0 93 37.5 158t90.5 103q95 70 249 70q57 0 137 -15q62 -12 66 -12q5 0 5 -5q0 -2 -1.5 -12t-3 -32t-1.5 -54q0 -12 -4 -12t-4 12q-1 42 -15 63q-32 48 -211 48q-126 0 -208 -64
q-47 -35 -77 -95.5t-30 -136.5q0 -159 110 -252q92 -79 243 -79q96 0 138 21q19 11 19 29v150q0 65 -5.5 81.5t-28.5 20.5q-12 2 -33 2q-10 0 -10 4q0 3 10 3q21 0 52 -1t32 -1t26.5 1t37.5 1q9 0 9 -3q0 -4 -9 -4q-11 0 -21 -1q-15 -1 -20.5 -10t-7.5 -32q-2 -30 -2 -79z
M390 748q-14 0 -21 8.5t-7 19.5q0 10 7 19t21 9q12 0 20.5 -7.5t8.5 -19.5t-8 -20.5t-21 -8.5z" />
    <glyph glyph-name="uni0122" unicode="&#x122;" horiz-adv-x="835" 
d="M714 224v-147q0 -30 -1 -37t-6 -10q-89 -47 -234 -47q-76 0 -156.5 27t-137.5 82q-115 108 -115 286q0 196 144 305q111 84 290 84q78 0 154 -16q61 -13 75 -14q5 0 5 -6q0 -3 -2 -14t-3.5 -35.5t-1.5 -61.5q0 -14 -4 -14t-4 14q-1 51 -13 72q-14 25 -78 40.5t-167 15.5
q-59 0 -124.5 -18.5t-116.5 -58.5q-54 -42 -89 -114.5t-35 -161.5q0 -187 129 -300q44 -38 107 -60.5t101 -27t71 -4.5q117 0 163 27q20 12 20 36v175q0 82 -6 100.5t-32 21.5q-16 2 -38 2q-12 0 -12 4t12 4q23 0 56.5 -1t35.5 -1q1 0 28 1t40 1q12 0 12 -4t-12 -4
q-11 0 -22 -1q-17 -1 -23 -11t-8 -38q-2 -34 -2 -91zM436 -101q0 7 11.5 19t21.5 12q4 0 9.5 -5.5t10 -18t4.5 -28.5q0 -57 -58 -108q-17 -14 -17 -8q0 3 10 12q36 33 36 75q0 24 -24 42q-4 3 -4 8z" />
    <glyph glyph-name="uni0123" unicode="&#x123;" horiz-adv-x="743" 
d="M631 188v-123q0 -35 -6 -40q-76 -39 -203 -39q-68 0 -138.5 22t-121.5 70q-101 90 -101 243q0 93 37.5 158t90.5 103q95 70 249 70q57 0 137 -15q62 -12 66 -12q5 0 5 -5q0 -2 -1.5 -12t-3 -32t-1.5 -54q0 -12 -4 -12t-4 12q-1 42 -15 63q-32 48 -211 48q-126 0 -208 -64
q-47 -35 -77 -95.5t-30 -136.5q0 -159 110 -252q92 -79 243 -79q96 0 138 21q19 11 19 29v150q0 65 -5.5 81.5t-28.5 20.5q-12 2 -33 2q-10 0 -10 4q0 3 10 3q21 0 52 -1t32 -1t26.5 1t37.5 1q9 0 9 -3q0 -4 -9 -4q-11 0 -21 -1q-15 -1 -20.5 -10t-7.5 -32q-2 -30 -2 -79z
M388 -102q0 7 11.5 19t21.5 12q4 0 9.5 -5.5t10 -18t4.5 -28.5q0 -57 -57 -107q-6 -5 -10 -7.5t-6 -2.5t-2 1q0 2 10 11q36 33 36 76q0 24 -24 42q-4 3 -4 8z" />
    <glyph glyph-name="Hcircumflex" unicode="&#x124;" horiz-adv-x="927" 
d="M214 434h499q3 0 3 6v21q0 188 -1 220q-2 39 -7.5 50t-28.5 13q-20 2 -33 2q-12 0 -12 4q0 3 13 3q14 0 47 -1.5t36 -1.5q2 0 32 1.5t36 1.5q12 0 12 -3q0 -4 -11 -4q-8 0 -15 -1q-24 -2 -30 -12.5t-8 -47.5q-1 -32 -1 -222v-176q0 -187 3 -229q2 -30 9 -39.5t30 -12.5
q14 -2 32 -2q11 0 11 -4q0 -3 -12 -3q-17 0 -37 0.5t-33 1.5t-14 1l-30 -2q-29 -1 -44 -1q-12 0 -12 3q0 4 12 4q17 0 26 2q8 2 12.5 4.5t9 13t5.5 29.5q3 42 3 251v101q0 6 -3 6h-498q-4 0 -4 -4v-103q0 -176 3 -239q1 -23 3 -33t10 -17t24 -9q22 -2 32 -2q12 0 12 -3
q0 -4 -12 -4q-17 0 -37.5 0.5t-34.5 1.5t-15 1q-2 0 -26 -1.5t-43 -1.5q-13 0 -13 4q0 3 13 3q11 0 24 1q15 2 21 14.5t7 49.5q3 63 3 218v180q0 183 -1 215q-1 28 -3.5 39t-10.5 17t-27 7q-16 1 -26 1t-10 4q0 3 10 3q14 0 46 -1.5t36 -1.5q3 0 30.5 1.5t38.5 1.5t11 -4
q0 -3 -9 -3q-6 0 -17 -1q-22 -2 -29.5 -13t-8.5 -46q-1 -32 -1 -225v-19q0 -8 3 -8zM474 930q4 0 12 -5q14 -9 115 -83q7 -6 7 -7q0 -2 -2 -4l-15 -11q-5 -3 -7 -1q-76 61 -107 79q-5 3 -7 3q-4 0 -12 -5q-15 -9 -104 -68q-14 -9 -20 -9q-6 1 6 11q20 14 67 50.5t55 42.5
q8 7 12 7z" />
    <glyph glyph-name="hcircumflex" unicode="&#x125;" horiz-adv-x="827" 
d="M198 370h433q4 0 4 5v18q0 148 -1 185q-2 30 -7.5 40.5t-25.5 12.5q-18 2 -29 2q-10 0 -10 4q0 3 11 3q14 0 43 -1.5t31 -1.5q1 0 30.5 1.5t35.5 1.5q9 0 9 -3q0 -4 -9 -4q-7 0 -15 -1q-20 -2 -25 -10.5t-7 -39.5q-2 -29 -2 -188v-150q0 -158 2 -194q2 -25 8.5 -33.5
t25.5 -10.5q13 -2 35 -2q9 0 9 -3q0 -4 -10 -4q-15 0 -34.5 0.5t-33.5 1.5t-15 1t-13.5 -0.5t-28.5 -1.5t-26 -1q-9 0 -9 4q0 3 10 3t23 2q11 2 16.5 9.5t7.5 30.5q4 35 4 211v86q0 5 -4 5h-431q-6 0 -6 -5v-86q0 -154 4 -202q1 -19 3 -27.5t9 -14.5t21 -7q18 -2 29 -2
q9 0 9 -3q0 -4 -9 -4q-15 0 -34 0.5t-32 1.5t-14 1t-25 -1.5t-41 -1.5q-10 0 -10 4q0 3 9 3q14 0 25 2q13 2 17.5 12t6.5 40q3 54 3 186v153q0 155 -1 182q-2 32 -8.5 42t-31.5 11q-10 1 -20 1q-9 0 -9 4q0 3 9 3q13 0 43 -1.5t33 -1.5q2 0 27.5 1.5t35.5 1.5q11 0 11 -4
q0 -3 -10 -3q-7 0 -16 -1q-19 -2 -24.5 -11.5t-7.5 -38.5q-2 -27 -2 -189v-16q0 -7 4 -7zM418 823q4 0 12 -5q14 -9 115 -83q7 -6 7 -7q0 -2 -2 -4l-15 -11q-5 -3 -7 -1q-76 61 -107 79q-5 3 -7 3q-4 0 -12 -5q-27 -15 -104 -67q-15 -10 -20 -10q-8 0 5 9q20 14 67.5 51.5
t55.5 43.5q8 7 12 7z" />
    <glyph glyph-name="Hbar" unicode="&#x126;" horiz-adv-x="927" 
d="M745 463v-176q0 -187 3 -229q2 -30 9 -39.5t30 -12.5q14 -2 32 -2q11 0 11 -4q0 -3 -12 -3q-17 0 -37 0.5t-33 1.5t-14 1l-30 -2q-29 -1 -44 -1q-12 0 -12 3q0 4 12 4q17 0 26 2q8 2 12.5 4.5t9 13t5.5 29.5q3 42 3 251v81q0 6 -3 6h-498q-4 0 -4 -4v-83q0 -176 3 -239
q1 -23 3 -33t10 -17t24 -9q22 -2 32 -2q12 0 12 -3q0 -4 -12 -4q-17 0 -37.5 0.5t-34.5 1.5t-15 1q-2 0 -26 -1.5t-43 -1.5q-13 0 -13 4q0 3 13 3q11 0 24 1q15 2 21 14.5t7 49.5q3 63 3 218v180v81h-56q-21 0 -21 3q0 9 4 15q1 3 23 3h50q0 90 -1 113q-1 28 -3.5 39
t-10.5 17t-27 7q-16 1 -26 1t-10 4q0 3 10 3q14 0 46 -1.5t36 -1.5q3 0 30.5 1.5t38.5 1.5t11 -4q0 -3 -9 -3q-6 0 -17 -1q-22 -2 -29.5 -13t-8.5 -46q-1 -23 -1 -117h505q0 89 -1 112q-2 39 -7.5 50t-28.5 13q-20 2 -33 2q-12 0 -12 4q0 3 13 3q14 0 47 -1.5t36 -1.5
q2 0 32 1.5t36 1.5q12 0 12 -3q0 -4 -11 -4q-6 0 -15 -1q-24 -2 -30 -12.5t-8 -47.5q-1 -23 -1 -116h66q21 0 22 -3q3 -8 -5 -16q-2 -2 -14 -2h-69v-85zM716 420v41v87h-505v-87v-39q0 -8 3 -8h499q3 0 3 6z" />
    <glyph glyph-name="hbar" unicode="&#x127;" horiz-adv-x="827" 
d="M198 370h433q4 0 4 5v18q0 148 -1 185q-2 30 -7.5 40.5t-25.5 12.5q-18 2 -29 2q-10 0 -10 4q0 3 11 3q14 0 43 -1.5t31 -1.5q1 0 30.5 1.5t35.5 1.5q9 0 9 -3q0 -4 -9 -4q-7 0 -15 -1q-20 -2 -25 -10.5t-7 -39.5q-2 -29 -2 -188v-150q0 -158 2 -194q2 -25 8.5 -33.5
t25.5 -10.5q13 -2 35 -2q9 0 9 -3q0 -4 -10 -4q-15 0 -34.5 0.5t-33.5 1.5t-15 1t-13.5 -0.5t-28.5 -1.5t-26 -1q-9 0 -9 4q0 3 10 3t23 2q11 2 16.5 9.5t7.5 30.5q4 35 4 211v86q0 5 -4 5h-431q-6 0 -6 -5v-86q0 -154 4 -202q1 -19 3 -27.5t9 -14.5t21 -7q18 -2 29 -2
q9 0 9 -3q0 -4 -9 -4q-15 0 -34 0.5t-32 1.5t-14 1t-25 -1.5t-41 -1.5q-10 0 -10 4q0 3 9 3q14 0 25 2q13 2 17.5 12t6.5 40q3 54 3 186v153q0 155 -1 182q-2 32 -8.5 42t-31.5 11q-10 1 -20 1q-9 0 -9 4q0 3 9 3q13 0 43 -1.5t33 -1.5q2 0 27.5 1.5t35.5 1.5q11 0 11 -4
q0 -3 -10 -3q-7 0 -16 -1q-19 -2 -24.5 -11.5t-7.5 -38.5q-2 -27 -2 -189v-16q0 -7 4 -7zM299 781h234q4 0 3 -5l-4 -14q-1 -4 -6 -4h-232q-6 0 -5 5l3 13q1 5 7 5z" />
    <glyph glyph-name="Itilde" unicode="&#x128;" horiz-adv-x="395" 
d="M182 287v177q0 185 -1 217q-1 18 -1.5 25t-2.5 16.5t-6 12t-11 5.5t-19 4q-5 0 -11.5 1t-10.5 1q-11 1 -11 4t11 3q12 0 42.5 -1.5t34.5 -1.5q5 0 31.5 1.5t38.5 1.5q11 0 11 -3t-10 -4l-22 -2q-22 -3 -27 -14t-6 -45q-1 -32 -1 -222v-176q0 -165 3 -228q2 -28 9 -39
t28 -14q16 -2 30 -2q11 0 11 -3q0 -4 -12 -4q-15 0 -35 0.5t-34 1.5t-15 1q-3 0 -28 -1.5t-40 -1.5q-12 0 -12 4q0 3 11 3q10 0 19 1q19 1 24.5 12t7.5 38q4 56 4 232zM263 830q-20 0 -69.5 20.5t-64.5 20.5q-31 0 -58 -28q-7 -7 -9 -7q-1 0 -1.5 0.5t0 3t2.5 5.5
q11 18 33 35t41 17q7 0 12 -0.5t13.5 -3.5t13.5 -4.5t20.5 -8t25.5 -10.5q31 -12 51 -12q34 0 64 31q5 5 8 5t-2 -9q-11 -18 -34 -36.5t-46 -18.5z" />
    <glyph glyph-name="itilde" unicode="&#x129;" horiz-adv-x="359" 
d="M165 244v150q0 158 -1 185q-2 31 -8 41t-30 12q-10 1 -18 1q-9 0 -9 3q0 4 9 4q11 0 40 -1.5t33 -1.5q3 0 27 1.5t35 1.5q9 0 9 -3q0 -4 -9 -4q-8 0 -15 -1q-19 -3 -24.5 -12.5t-7.5 -36.5q-2 -56 -2 -189v-150q0 -153 3 -193q2 -24 8 -34t25 -12q9 -1 25 -1q10 0 10 -4
q0 -3 -11 -3q-14 0 -31.5 0.5t-29 1.5t-12.5 1q-3 0 -28 -1.5t-38 -1.5q-9 0 -9 4q0 3 8 3q14 0 24 2q14 3 18 11.5t6 29.5q3 42 3 197zM240 728q-20 0 -69.5 20.5t-64.5 20.5q-30 0 -58 -28q-8 -8 -10 -8q-4 0 2 10q11 18 33 35t41 17q7 0 12 -0.5t13.5 -3.5t13.5 -4.5
t20.5 -8t25.5 -10.5q31 -12 51 -12q34 0 64 31q6 6 8 6q4 0 -2 -10q-11 -18 -34 -36.5t-46 -18.5z" />
    <glyph glyph-name="Imacron" unicode="&#x12a;" horiz-adv-x="395" 
d="M182 287v177q0 185 -1 217q-1 18 -1.5 25t-2.5 16.5t-6 12t-11 5.5t-19 4q-5 0 -11.5 1t-10.5 1q-11 1 -11 4t11 3q12 0 42.5 -1.5t34.5 -1.5q5 0 31.5 1.5t38.5 1.5q11 0 11 -3t-10 -4l-22 -2q-22 -3 -27 -14t-6 -45q-1 -32 -1 -222v-176q0 -165 3 -228q2 -28 9 -39
t28 -14q16 -2 30 -2q11 0 11 -3q0 -4 -12 -4q-15 0 -35 0.5t-34 1.5t-15 1q-3 0 -28 -1.5t-40 -1.5q-12 0 -12 4q0 3 11 3q10 0 19 1q19 1 24.5 12t7.5 38q4 56 4 232zM78 873h254q4 0 3 -5l-4 -16q-1 -4 -6 -4h-252q-6 0 -5 5l3 15q1 5 7 5z" />
    <glyph glyph-name="imacron" unicode="&#x12b;" horiz-adv-x="359" 
d="M165 244v150q0 158 -1 185q-2 31 -8 41t-30 12q-10 1 -18 1q-9 0 -9 3q0 4 9 4q11 0 40 -1.5t33 -1.5q3 0 27 1.5t35 1.5q9 0 9 -3q0 -4 -9 -4q-8 0 -15 -1q-19 -3 -24.5 -12.5t-7.5 -36.5q-2 -56 -2 -189v-150q0 -153 3 -193q2 -24 8 -34t25 -12q9 -1 25 -1q10 0 10 -4
q0 -3 -11 -3q-14 0 -31.5 0.5t-29 1.5t-12.5 1q-3 0 -28 -1.5t-38 -1.5q-9 0 -9 4q0 3 8 3q14 0 24 2q14 3 18 11.5t6 29.5q3 42 3 197zM66 761h234q4 0 3 -5l-4 -14q-1 -4 -6 -4h-232q-6 0 -5 5l3 13q1 5 7 5z" />
    <glyph glyph-name="degree" unicode="&#x12c;" horiz-adv-x="295" 
d="M245 595q-1 -44 -30.5 -73t-68.5 -29q-44 0 -71 29t-27 69q0 43 29 72.5t72 29.5q44 0 70.5 -29t25.5 -69zM221 595q0 32 -19.5 56t-56.5 24q-34 0 -54 -25t-20 -57q0 -34 21 -57t54 -23q34 0 54.5 23t20.5 59z" />
    <glyph glyph-name="uni02C60301.cap" unicode="&#x12d;" 
d="M476 976q11 -8 17 -16q4 -6 -3 -8q-9 -2 -29 -10q-57 -24 -89 -40l-13 -5q-3 0 -3 2t8 9q45 37 70 56q23 17 29 17q5 0 13 -5zM254 915q2 0 13 -7q37 -24 100 -76q7 -6 7 -8q0 -1 -2 -3l-17 -12q-3 -3 -5 0q-19 17 -50.5 42t-41.5 30q-3 2 -8 2q-4 0 -11 -5
q-33 -19 -92 -61q-13 -9 -19 -9t5 10q3 3 53.5 43.5t55.5 45.5q10 8 12 8z" />
    <glyph glyph-name="Iogonek" unicode="&#x12e;" horiz-adv-x="395" 
d="M211 463v-176q0 -165 3 -228q2 -28 9 -39t28 -14q16 -2 30 -2q11 0 11 -3q0 -4 -12 -4q-27 0 -61 2q-55 -63 -55 -119q0 -28 15.5 -40t33.5 -12q30 0 52 16q10 8 10 2q0 -3 -6 -9q-32 -34 -74 -34q-32 0 -49 19.5t-17 45.5q0 56 76 132h-9q-3 0 -28 -1.5t-40 -1.5
q-12 0 -12 4q0 3 11 3q10 0 19 1q19 1 24.5 12t7.5 38q4 56 4 232v177q0 185 -1 217q-1 18 -1.5 25t-2.5 16.5t-6 12t-11 5.5t-19 4q-5 0 -11.5 1t-10.5 1q-11 1 -11 4t11 3q12 0 42.5 -1.5t34.5 -1.5q5 0 31.5 1.5t38.5 1.5q11 0 11 -3t-10 -4l-22 -2q-22 -3 -27 -14
t-6 -45q-1 -32 -1 -222z" />
    <glyph glyph-name="iogonek" unicode="&#x12f;" horiz-adv-x="359" 
d="M194 394v-150q0 -153 3 -193q2 -24 8 -34t25 -12q9 -1 25 -1q10 0 10 -4q0 -3 -11 -3q-18 0 -27 1q-80 -56 -80 -119q0 -27 16 -40t37 -13q28 0 49 13q10 6 10 1q0 -2 -7 -9q-30 -28 -70 -28q-31 0 -50 20t-19 47q0 34 28.5 67.5t70.5 60.5q-6 0 -14 0.5t-12 1t-5 0.5
q-3 0 -28 -1.5t-38 -1.5q-9 0 -9 4q0 3 8 3q14 0 24 2q14 3 18 11.5t6 29.5q3 42 3 197v150q0 158 -1 185q-2 31 -8 41t-30 12q-10 1 -18 1q-9 0 -9 3q0 4 9 4q11 0 40 -1.5t33 -1.5q3 0 27 1.5t35 1.5q9 0 9 -3q0 -4 -9 -4q-8 0 -15 -1q-19 -3 -24.5 -12.5t-7.5 -36.5
q-2 -56 -2 -189z" />
    <glyph glyph-name="Idotaccent" unicode="&#x130;" horiz-adv-x="395" 
d="M182 287v177q0 185 -1 217q-1 18 -1.5 25t-2.5 16.5t-6 12t-11 5.5t-19 4q-5 0 -11.5 1t-10.5 1q-11 1 -11 4t11 3q12 0 42.5 -1.5t34.5 -1.5q5 0 31.5 1.5t38.5 1.5q11 0 11 -3t-10 -4l-22 -2q-22 -3 -27 -14t-6 -45q-1 -32 -1 -222v-176q0 -165 3 -228q2 -28 9 -39
t28 -14q16 -2 30 -2q11 0 11 -3q0 -4 -12 -4q-15 0 -35 0.5t-34 1.5t-15 1q-3 0 -28 -1.5t-40 -1.5q-12 0 -12 4q0 3 11 3q10 0 19 1q19 1 24.5 12t7.5 38q4 56 4 232zM202 848q-14 0 -21 8.5t-7 19.5q0 10 7 19t21 9q12 0 20.5 -7.5t8.5 -19.5t-8 -20.5t-21 -8.5z" />
    <glyph glyph-name="dotlessi" unicode="&#x131;" horiz-adv-x="359" 
d="M165 244v150q0 158 -1 185q-2 31 -8 41t-30 12q-10 1 -18 1q-9 0 -9 3q0 4 9 4q11 0 40 -1.5t33 -1.5q3 0 27 1.5t35 1.5q9 0 9 -3q0 -4 -9 -4q-8 0 -15 -1q-19 -3 -24.5 -12.5t-7.5 -36.5q-2 -56 -2 -189v-150q0 -153 3 -193q2 -24 8 -34t25 -12q9 -1 25 -1q10 0 10 -4
q0 -3 -11 -3q-14 0 -31.5 0.5t-29 1.5t-12.5 1q-3 0 -28 -1.5t-38 -1.5q-9 0 -9 4q0 3 8 3q14 0 24 2q14 3 18 11.5t6 29.5q3 42 3 197z" />
    <glyph glyph-name="uni02D80303.cap" unicode="&#x132;" 
d="M313 924q-20 0 -71.5 19t-65.5 19q-32 0 -59 -27q-6 -6 -9 -6q-4 0 2 9q13 16 35 33t38 17q17 0 88 -27q33 -11 52 -11q31 0 58 24q7 6 9 6q2 -1 1 -3.5t-4 -6.5q-12 -15 -33 -30.5t-41 -15.5zM112 874q0 2 6 5q16 9 24 9q3 0 6 -3q31 -41 106 -41q69 0 120 43q7 5 9 5
q6 0 -3 -10l-3 -3q-61 -59 -145 -59q-50 0 -89 23q-31 19 -31 31z" />
    <glyph glyph-name="uni02D80309.cap" unicode="&#x133;" 
d="M262 1014q26 0 43 -14t17 -37q0 -20 -20 -39.5t-55 -32.5q-13 -5 -13 0q0 3 9 8q40 27 40 60q0 31 -35 31q-33 0 -54 -16q-9 -5 -9 -2q0 4 5 9q31 33 72 33zM112 870q0 3 6 6q19 9 22 9t6 -4q14 -21 42.5 -34.5t64.5 -13.5q69 0 121 49q8 7 11 7q1 0 0.5 -2t-2.5 -5.5
t-6 -7.5q-59 -64 -145 -64q-50 0 -89 26q-14 9 -22.5 19.5t-8.5 14.5z" />
    <glyph glyph-name="Jcircumflex" unicode="&#x134;" horiz-adv-x="331" 
d="M188 463v-342q0 -126 -26 -193q-27 -68 -93 -122q-21 -16 -32 -23q-7 -4 -11 -4q-3 0 -3 2t10 9q36 26 58 51q37 42 52.5 110t15.5 209v303q0 153 -2 217q-2 40 -7.5 52t-30.5 13q-16 1 -26 1t-10 4q0 3 12 3q19 0 47 -1.5t31 -1.5t26 1.5t37 1.5q10 0 10 -3q0 -4 -10 -4
h-9q-24 -1 -30.5 -13t-7.5 -48q-1 -32 -1 -222zM180 923q4 0 12 -5q14 -9 115 -83q7 -6 7 -7q0 -2 -2 -4l-15 -11q-5 -3 -7 -1q-76 61 -107 79q-5 3 -7 3q-4 0 -12 -5q-15 -9 -104 -68q-14 -9 -20 -9q-6 1 6 11q20 14 67 50.5t55 42.5q8 7 12 7z" />
    <glyph glyph-name="jcircumflex" unicode="&#x135;" horiz-adv-x="319" 
d="M187 394v-283q0 -115 -23 -172q-25 -64 -84 -107q-17 -13 -30 -19q-6 -3 -9 -3t-3 2t8 7q26 15 54 45q34 36 46.5 93t12.5 182v255q0 129 -2 183q-1 23 -3 32.5t-8 14.5t-20 7q-20 2 -30 2t-10 3q0 4 10 4q17 0 45.5 -1.5t30.5 -1.5t25 1.5t36 1.5q10 0 10 -3q0 -4 -8 -4
q-13 0 -19 -1q-19 -3 -23 -12t-5 -38q-1 -28 -1 -188zM178 813q4 0 12 -5q14 -9 115 -83q7 -6 7 -7q0 -2 -2 -4l-15 -11q-5 -3 -7 -1q-76 61 -107 79q-5 3 -7 3q-4 0 -12 -5q-27 -15 -104 -67q-15 -10 -20 -10q-8 0 5 9q20 14 67.5 51.5t55.5 43.5q8 7 12 7z" />
    <glyph glyph-name="uni0136" unicode="&#x136;" horiz-adv-x="713" 
d="M520 750q0 3 12 3q9 0 32 -1t34 -1q6 0 37 1t41 1q12 0 12 -3q0 -4 -14 -4q-23 0 -43 -11q-18 -9 -103 -89q-137 -137 -257 -251q54 -60 148.5 -155.5t130.5 -127.5q69 -64 100 -83t70 -23q22 -2 39 -2q12 0 12 -3q0 -4 -14 -4h-60q-51 0 -79 15t-78 63q-60 59 -302 311
q-3 3 1 7q26 16 239 232q61 62 76.5 79.5t15.5 25.5q0 15 -38 16q-12 0 -12 4zM182 287v177q0 185 -1 217q-1 29 -3 39t-10 16.5t-27 8.5q-9 1 -23 1q-10 0 -10 4q0 3 10 3q12 0 43 -1.5t35 -1.5q5 0 32 1.5t39 1.5q10 0 10 -4q0 -3 -9 -3q-14 0 -21 -1q-23 -4 -28.5 -15
t-6.5 -45q-1 -32 -1 -222v-176q0 -165 3 -228q2 -28 9 -39t28 -14q16 -2 30 -2q11 0 11 -3q0 -4 -12 -4q-15 0 -35 0.5t-34 1.5t-15 1q-3 0 -28 -1.5t-40 -1.5q-12 0 -12 4q0 3 10 3q12 0 26 2q15 2 19.5 13t6.5 36q4 56 4 232zM384 -105q0 7 11.5 19t21.5 12q4 0 9.5 -5.5
t10 -18t4.5 -28.5q0 -57 -58 -108q-17 -14 -17 -8q0 3 10 12q36 33 36 75q0 24 -24 42q-4 3 -4 8z" />
    <glyph glyph-name="uni0137" unicode="&#x137;" horiz-adv-x="637" 
d="M463 637q0 3 10 3q9 0 29 -1t30 -1q6 0 34 1t37 1q10 0 10 -3q0 -4 -10 -4q-25 -1 -42 -10q-17 -8 -87 -72q-8 -7 -113.5 -107t-114.5 -108q48 -50 133.5 -133t115.5 -109q60 -53 88.5 -70t63.5 -19q16 -1 34 -1q8 0 8 -3q0 -4 -10 -4h-57q-46 0 -70.5 12.5t-67.5 51.5
q-59 56 -268 267q-4 4 0 7q26 18 210 197q77 75 77 86q0 14 -30 15q-10 0 -10 4zM165 244v150q0 158 -1 185q-2 31 -8 41t-30 12q-10 1 -18 1q-9 0 -9 3q0 4 9 4q11 0 40 -1.5t33 -1.5q3 0 27 1.5t35 1.5q9 0 9 -3q0 -4 -9 -4q-8 0 -15 -1q-19 -3 -24.5 -12.5t-7.5 -36.5
q-2 -56 -2 -189v-150q0 -153 3 -193q2 -24 8 -34t25 -12q9 -1 25 -1q10 0 10 -4q0 -3 -11 -3q-14 0 -31.5 0.5t-29 1.5t-12.5 1q-3 0 -28 -1.5t-38 -1.5q-9 0 -9 4q0 3 8 3q14 0 24 2q14 3 18 11.5t6 29.5q3 42 3 197zM336 -95q0 7 11.5 19t21.5 12q4 0 9.5 -5.5t10 -18
t4.5 -28.5q0 -57 -57 -107q-6 -5 -10 -7.5t-6 -2.5t-2 1q0 2 10 11q36 33 36 76q0 24 -24 42q-4 3 -4 8z" />
    <glyph glyph-name="kgreenlandic" unicode="&#x138;" horiz-adv-x="637" 
d="M463 637q0 3 10 3q9 0 29 -1t30 -1q6 0 34 1t37 1q10 0 10 -3q0 -4 -10 -4q-25 -1 -42 -10q-17 -8 -87 -72q-8 -7 -113.5 -107t-114.5 -108q48 -50 133.5 -133t115.5 -109q60 -53 88.5 -70t63.5 -19q16 -1 34 -1q8 0 8 -3q0 -4 -10 -4h-57q-46 0 -70.5 12.5t-67.5 51.5
q-59 56 -268 267q-4 4 0 7q26 18 210 197q77 75 77 86q0 14 -30 15q-10 0 -10 4zM165 244v150q0 158 -1 185q-2 31 -8 41t-30 12q-10 1 -18 1q-9 0 -9 3q0 4 9 4q11 0 40 -1.5t33 -1.5q3 0 27 1.5t35 1.5q9 0 9 -3q0 -4 -9 -4q-8 0 -15 -1q-19 -3 -24.5 -12.5t-7.5 -36.5
q-2 -56 -2 -189v-150q0 -153 3 -193q2 -24 8 -34t25 -12q9 -1 25 -1q10 0 10 -4q0 -3 -11 -3q-14 0 -31.5 0.5t-29 1.5t-12.5 1q-3 0 -28 -1.5t-38 -1.5q-9 0 -9 4q0 3 8 3q14 0 24 2q14 3 18 11.5t6 29.5q3 42 3 197z" />
    <glyph glyph-name="Lacute" unicode="&#x139;" horiz-adv-x="556" 
d="M211 462v-175q0 -169 1 -208t8 -48q11 -15 129 -15q98 0 123 7q20 6 30.5 24.5t16.5 58.5q2 12 6 12q2 0 2 -8q0 -29 -17 -93q-5 -20 -18 -23q-6 -1 -36 -1q-40 0 -80.5 0.5t-69.5 1.5t-52 2t-36 1l-13 1q-8 0 -35.5 -1.5t-36.5 -1.5q-13 0 -13 4t10 4q11 0 19 1
q16 2 21.5 13.5t7.5 35.5q4 66 4 232v176q0 191 -1 223q-2 35 -8.5 46.5t-29.5 13.5q-10 1 -21 1t-11 3q0 4 10 4q14 0 41 -1.5t34 -1.5q4 0 30 1.5t38 1.5q9 0 9 -3q0 -4 -10 -4q-5 0 -16 -1q-20 -2 -27 -14.5t-8 -45.5q-1 -32 -1 -223zM336 917q6 -5 15 -17q5 -8 -4 -8
q-5 0 -25 -9q-77 -33 -132 -63q-11 -6 -14 -6t-3 2q0 3 8 9q47 36 115 82q22 15 29 15q6 0 11 -5z" />
    <glyph glyph-name="lacute" unicode="&#x13a;" horiz-adv-x="501" 
d="M194 393v-149q0 -135 1.5 -171t8.5 -44q12 -13 114 -13q84 0 105 8q18 7 27.5 23.5t14.5 48.5q1 8 4 8t3 -7q0 -28 -15 -82q-4 -15 -11.5 -18t-36.5 -3q-54 0 -107.5 1.5t-85.5 2.5l-31 2q-5 0 -31 -1.5t-36 -1.5q-11 0 -11 4q0 3 10 3q12 0 22 2q9 2 14 8.5t6 11.5t2 21
q4 58 4 196v150q0 161 -1 189q-2 29 -8 39t-27 11q-13 1 -23 1q-8 0 -8 4q0 3 8 3q14 0 40.5 -1t32.5 -1q8 0 29.5 1t31.5 1q9 0 9 -3q0 -4 -9 -4q-8 0 -15 -1q-17 -2 -22 -11.5t-7 -36.5q-2 -30 -2 -191zM312 821q10 -8 16 -15q2 -2 1.5 -4.5t-2.5 -2.5q-9 0 -29 -13
q-68 -39 -125 -80q-11 -6 -11 -3q0 4 6 9q19 18 105 95q20 17 27 18q7 0 12 -4z" />
    <glyph glyph-name="uni013B" unicode="&#x13b;" horiz-adv-x="556" 
d="M211 462v-175q0 -169 1 -208t8 -48q11 -15 129 -15q98 0 123 7q20 6 30.5 24.5t16.5 58.5q2 12 6 12q2 0 2 -8q0 -29 -17 -93q-5 -20 -18 -23q-6 -1 -36 -1q-40 0 -80.5 0.5t-69.5 1.5t-52 2t-36 1l-13 1q-8 0 -35.5 -1.5t-36.5 -1.5q-13 0 -13 4t10 4q11 0 19 1
q16 2 21.5 13.5t7.5 35.5q4 66 4 232v176q0 191 -1 223q-2 35 -8.5 46.5t-29.5 13.5q-10 1 -21 1t-11 3q0 4 10 4q14 0 41 -1.5t34 -1.5q4 0 30 1.5t38 1.5q9 0 9 -3q0 -4 -10 -4q-5 0 -16 -1q-20 -2 -27 -14.5t-8 -45.5q-1 -32 -1 -223zM319 -95q0 7 11.5 19t21.5 12
q4 0 9.5 -5.5t10 -18t4.5 -28.5q0 -57 -58 -108q-17 -14 -17 -8q0 3 10 12q36 33 36 75q0 24 -24 42q-4 3 -4 8z" />
    <glyph glyph-name="uni013C" unicode="&#x13c;" horiz-adv-x="501" 
d="M194 393v-149q0 -135 1.5 -171t8.5 -44q12 -13 114 -13q84 0 105 8q18 7 27.5 23.5t14.5 48.5q1 8 4 8t3 -7q0 -28 -15 -82q-4 -15 -11.5 -18t-36.5 -3q-54 0 -107.5 1.5t-85.5 2.5l-31 2q-5 0 -31 -1.5t-36 -1.5q-11 0 -11 4q0 3 10 3q12 0 22 2q9 2 14 8.5t6 11.5t2 21
q4 58 4 196v150q0 161 -1 189q-2 29 -8 39t-27 11q-13 1 -23 1q-8 0 -8 4q0 3 8 3q14 0 40.5 -1t32.5 -1q8 0 29.5 1t31.5 1q9 0 9 -3q0 -4 -9 -4q-8 0 -15 -1q-17 -2 -22 -11.5t-7 -36.5q-2 -30 -2 -191zM290 -95q0 7 11.5 19t21.5 12q4 0 9.5 -5.5t10 -18t4.5 -28.5
q0 -57 -57 -107q-6 -5 -10 -7.5t-6 -2.5t-2 1q0 2 10 11q36 33 36 76q0 24 -24 42q-4 3 -4 8z" />
    <glyph glyph-name="Lcaron" unicode="&#x13d;" horiz-adv-x="556" 
d="M211 462v-175q0 -169 1 -208t8 -48q11 -15 129 -15q98 0 123 7q20 6 30.5 24.5t16.5 58.5q2 12 6 12q2 0 2 -8q0 -29 -17 -93q-5 -20 -18 -23q-6 -1 -36 -1q-40 0 -80.5 0.5t-69.5 1.5t-52 2t-36 1l-13 1q-8 0 -35.5 -1.5t-36.5 -1.5q-13 0 -13 4t10 4q11 0 19 1
q16 2 21.5 13.5t7.5 35.5q4 66 4 232v176q0 191 -1 223q-2 35 -8.5 46.5t-29.5 13.5q-10 1 -21 1t-11 3q0 4 10 4q14 0 41 -1.5t34 -1.5q4 0 30 1.5t38 1.5q9 0 9 -3q0 -4 -10 -4q-5 0 -16 -1q-20 -2 -27 -14.5t-8 -45.5q-1 -32 -1 -223zM489 553q-1 -22 -6 -22q-4 0 -5 22
q-8 164 -13 189q0 3 1 4q4 4 14.5 9t14.5 5q5 0 5 -15q0 -16 -11 -192z" />
    <glyph glyph-name="lcaron" unicode="&#x13e;" horiz-adv-x="501" 
d="M194 393v-149q0 -135 1.5 -171t8.5 -44q12 -13 114 -13q84 0 105 8q18 7 27.5 23.5t14.5 48.5q1 8 4 8t3 -7q0 -28 -15 -82q-4 -15 -11.5 -18t-36.5 -3q-54 0 -107.5 1.5t-85.5 2.5l-31 2q-5 0 -31 -1.5t-36 -1.5q-11 0 -11 4q0 3 10 3q12 0 22 2q9 2 14 8.5t6 11.5t2 21
q4 58 4 196v150q0 161 -1 189q-2 29 -8 39t-27 11q-13 1 -23 1q-8 0 -8 4q0 3 8 3q14 0 40.5 -1t32.5 -1q8 0 29.5 1t31.5 1q9 0 9 -3q0 -4 -9 -4q-8 0 -15 -1q-17 -2 -22 -11.5t-7 -36.5q-2 -30 -2 -191zM439 443q-1 -22 -6 -22q-4 0 -5 22q-8 164 -13 189q0 3 1 4
q4 4 14.5 9t14.5 5q5 0 5 -15q0 -16 -11 -192z" />
    <glyph glyph-name="Ldot" unicode="&#x13f;" horiz-adv-x="556" 
d="M211 462v-175q0 -169 1 -208t8 -48q11 -15 129 -15q98 0 123 7q20 6 30.5 24.5t16.5 58.5q2 12 6 12q2 0 2 -8q0 -29 -17 -93q-5 -20 -18 -23q-6 -1 -36 -1q-40 0 -80.5 0.5t-69.5 1.5t-52 2t-36 1l-13 1q-8 0 -35.5 -1.5t-36.5 -1.5q-13 0 -13 4t10 4q11 0 19 1
q16 2 21.5 13.5t7.5 35.5q4 66 4 232v176q0 191 -1 223q-2 35 -8.5 46.5t-29.5 13.5q-10 1 -21 1t-11 3q0 4 10 4q14 0 41 -1.5t34 -1.5q4 0 30 1.5t38 1.5q9 0 9 -3q0 -4 -10 -4q-5 0 -16 -1q-20 -2 -27 -14.5t-8 -45.5q-1 -32 -1 -223zM446 456q27 0 59 -11q10 -4 10 -7
q0 -2 -2 -8q-14 -30 -50 -53q-7 -5 -9 -5q-3 0 -3 2q0 1 1 4l2 6q5 14 5 34q0 22 -15 30q-6 2 -6 5t8 3z" />
    <glyph glyph-name="ldot" unicode="&#x140;" horiz-adv-x="501" 
d="M194 393v-149q0 -135 1.5 -171t8.5 -44q12 -13 114 -13q84 0 105 8q18 7 27.5 23.5t14.5 48.5q1 8 4 8t3 -7q0 -28 -15 -82q-4 -15 -11.5 -18t-36.5 -3q-54 0 -107.5 1.5t-85.5 2.5l-31 2q-5 0 -31 -1.5t-36 -1.5q-11 0 -11 4q0 3 10 3q12 0 22 2q9 2 14 8.5t6 11.5t2 21
q4 58 4 196v150q0 161 -1 189q-2 29 -8 39t-27 11q-13 1 -23 1q-8 0 -8 4q0 3 8 3q14 0 40.5 -1t32.5 -1q8 0 29.5 1t31.5 1q9 0 9 -3q0 -4 -9 -4q-8 0 -15 -1q-17 -2 -22 -11.5t-7 -36.5q-2 -30 -2 -191zM386 390q27 0 59 -11q10 -4 10 -7q0 -2 -2 -8q-14 -30 -50 -53
q-7 -5 -9 -5q-3 0 -3 2q0 1 1 4l2 6q5 14 5 34q0 22 -15 30q-6 2 -6 5t8 3z" />
    <glyph glyph-name="Lslash" unicode="&#x141;" horiz-adv-x="566" 
d="M221 353v-66q0 -169 1 -208t8 -48q11 -15 129 -15q98 0 123 7q20 6 30.5 24.5t16.5 58.5q2 12 6 12q2 0 2 -8q0 -29 -17 -93q-5 -20 -18 -23q-6 -1 -36 -1q-40 0 -80.5 0.5t-69.5 1.5t-52 2t-36 1l-13 1q-8 0 -35.5 -1.5t-36.5 -1.5q-13 0 -13 4t10 4q11 0 19 1
q16 2 21.5 13.5t7.5 35.5q4 66 4 232v52l-88 -44q-4 -3 -7 0q-2 3 -5 12q-1 2 2 5l98 49v102q0 191 -1 223q-2 35 -8.5 46.5t-29.5 13.5q-10 1 -21 1t-11 3q0 4 10 4q14 0 41 -1.5t34 -1.5q4 0 30 1.5t38 1.5q9 0 9 -3q0 -4 -10 -4q-5 0 -16 -1q-20 -2 -27 -14.5t-8 -45.5
q-1 -32 -1 -223v-87l171 85q4 2 5 -1q4 -6 6 -12q0 -3 -1 -4z" />
    <glyph glyph-name="lslash" unicode="&#x142;" horiz-adv-x="511" 
d="M204 303v-59q0 -135 1.5 -171t8.5 -44q12 -13 114 -13q84 0 105 8q18 7 27.5 23.5t14.5 48.5q1 8 4 8t3 -7q0 -28 -15 -82q-4 -15 -11.5 -18t-36.5 -3q-54 0 -107.5 1.5t-85.5 2.5l-31 2q-5 0 -31 -1.5t-36 -1.5q-11 0 -11 4q0 3 10 3q12 0 22 2q9 2 14 8.5t6 11.5t2 21
q4 58 4 196v45l-83 -40q-4 -3 -7 0q-2 3 -5 12q-1 3 2 4l93 45v84q0 161 -1 189q-2 29 -8 39t-27 11q-13 1 -23 1q-8 0 -8 4q0 3 8 3q14 0 40.5 -1t32.5 -1q8 0 29.5 1t31.5 1q9 0 9 -3q0 -4 -9 -4q-8 0 -15 -1q-17 -2 -22 -11.5t-7 -36.5q-2 -30 -2 -191v-69l144 70
q4 0 5 -1q2 -3 5 -12q1 -3 -1 -4z" />
    <glyph glyph-name="Nacute" unicode="&#x143;" horiz-adv-x="907" 
d="M146 142q3 248 1 560q0 65 6 65q3 0 30 -32q21 -25 58 -71.5t95 -119t103 -128.5q96 -120 187.5 -232t109.5 -134l-5 591q0 66 -7 82.5t-35 20.5q-18 2 -26 2q-10 0 -10 4q0 3 10 3q15 0 45 -1.5t33 -1.5q4 0 34.5 1.5t42.5 1.5q10 0 10 -3t-9 -4q-5 0 -12 -1t-12 -1
q-25 -2 -30.5 -19.5t-6.5 -68.5v-7l1 -546q0 -116 -6 -116q-4 0 -48 55q-222 272 -270 333q-57 71 -159 199t-107 134l6 -598q1 -33 1.5 -45.5t3 -28t7.5 -19.5t13 -7.5t23 -4.5q9 -1 17 -1q12 0 12 -3q0 -4 -12 -4q-15 0 -42.5 1.5t-32.5 1.5t-31 -1.5t-43 -1.5
q-11 0 -11 4q0 3 10 3q8 0 22 1q15 1 21.5 10t9 36.5t3.5 90.5zM581 917q6 -5 15 -17q5 -8 -4 -8q-6 0 -25 -9q-77 -33 -132 -63q-11 -6 -14 -6t-3 2q0 3 8 9q47 36 115 82q23 15 29 15t11 -5z" />
    <glyph glyph-name="nacute" unicode="&#x144;" horiz-adv-x="828" 
d="M141 120q-1 87 -0.5 249.5t0.5 228.5q0 54 6 54q3 0 27 -27q20 -23 99.5 -118t130.5 -156q81 -97 161.5 -189.5t95.5 -110.5l-4 494q-1 51 -7 67.5t-26 18.5t-26 2q-9 0 -9 4q0 3 9 3q14 0 39.5 -1t28.5 -1t29.5 1t37.5 1q10 0 10 -3t-8 -4q-15 -1 -19 -2
q-23 -4 -28.5 -19.5t-5.5 -59.5l1 -468q0 -68 -1 -81.5t-5 -13.5q-2 0 -44 49q-188 219 -236 276q-50 59 -135.5 162t-99.5 119l6 -500q1 -56 9 -71.5t38 -18.5q9 -1 17 -1q10 0 10 -3q0 -4 -11 -4q-15 0 -42.5 1.5t-31.5 1.5q-3 0 -27 -1.5t-40 -1.5q-10 0 -10 4q0 3 9 3
t20 1q19 2 26 22.5t6 92.5zM513 817q10 -8 16 -15q2 -2 1.5 -4.5t-2.5 -2.5q-10 0 -29 -13q-68 -39 -125 -80q-11 -6 -11 -3q0 4 6 9q19 18 105 95q20 17 27 18q7 0 12 -4z" />
    <glyph glyph-name="uni0145" unicode="&#x145;" horiz-adv-x="907" 
d="M146 142q3 248 1 560q0 65 6 65q3 0 30 -32q21 -25 58 -71.5t95 -119t103 -128.5q96 -120 187.5 -232t109.5 -134l-5 591q0 66 -7 82.5t-35 20.5q-18 2 -26 2q-10 0 -10 4q0 3 10 3q15 0 45 -1.5t33 -1.5q4 0 34.5 1.5t42.5 1.5q10 0 10 -3t-9 -4q-5 0 -12 -1t-12 -1
q-25 -2 -30.5 -19.5t-6.5 -68.5v-7l1 -546q0 -116 -6 -116q-4 0 -48 55q-222 272 -270 333q-57 71 -159 199t-107 134l6 -598q1 -33 1.5 -45.5t3 -28t7.5 -19.5t13 -7.5t23 -4.5q9 -1 17 -1q12 0 12 -3q0 -4 -12 -4q-15 0 -42.5 1.5t-32.5 1.5t-31 -1.5t-43 -1.5
q-11 0 -11 4q0 3 10 3q8 0 22 1q15 1 21.5 10t9 36.5t3.5 90.5zM428 -105q0 7 11.5 19t21.5 12q4 0 9.5 -5.5t10 -18t4.5 -28.5q0 -57 -58 -108q-17 -14 -17 -8q0 3 10 12q36 33 36 75q0 24 -24 42q-4 3 -4 8z" />
    <glyph glyph-name="uni0146" unicode="&#x146;" horiz-adv-x="828" 
d="M141 120q-1 87 -0.5 249.5t0.5 228.5q0 54 6 54q3 0 27 -27q20 -23 99.5 -118t130.5 -156q81 -97 161.5 -189.5t95.5 -110.5l-4 494q-1 51 -7 67.5t-26 18.5t-26 2q-9 0 -9 4q0 3 9 3q14 0 39.5 -1t28.5 -1t29.5 1t37.5 1q10 0 10 -3t-8 -4q-15 -1 -19 -2
q-23 -4 -28.5 -19.5t-5.5 -59.5l1 -468q0 -68 -1 -81.5t-5 -13.5q-2 0 -44 49q-188 219 -236 276q-50 59 -135.5 162t-99.5 119l6 -500q1 -56 9 -71.5t38 -18.5q9 -1 17 -1q10 0 10 -3q0 -4 -11 -4q-15 0 -42.5 1.5t-31.5 1.5q-3 0 -27 -1.5t-40 -1.5q-10 0 -10 4q0 3 9 3
t20 1q19 2 26 22.5t6 92.5zM382 -95q0 7 11.5 19t21.5 12q4 0 9.5 -5.5t10 -18t4.5 -28.5q0 -57 -57 -107q-6 -5 -10 -7.5t-6 -2.5t-2 1q0 2 10 11q36 33 36 76q0 24 -24 42q-4 3 -4 8z" />
    <glyph glyph-name="Ncaron" unicode="&#x147;" horiz-adv-x="907" 
d="M146 142q3 248 1 560q0 65 6 65q3 0 30 -32q21 -25 58 -71.5t95 -119t103 -128.5q96 -120 187.5 -232t109.5 -134l-5 591q0 66 -7 82.5t-35 20.5q-18 2 -26 2q-10 0 -10 4q0 3 10 3q15 0 45 -1.5t33 -1.5q4 0 34.5 1.5t42.5 1.5q10 0 10 -3t-9 -4q-5 0 -12 -1t-12 -1
q-25 -2 -30.5 -19.5t-6.5 -68.5v-7l1 -546q0 -116 -6 -116q-4 0 -48 55q-222 272 -270 333q-57 71 -159 199t-107 134l6 -598q1 -33 1.5 -45.5t3 -28t7.5 -19.5t13 -7.5t23 -4.5q9 -1 17 -1q12 0 12 -3q0 -4 -12 -4q-15 0 -42.5 1.5t-32.5 1.5t-31 -1.5t-43 -1.5
q-11 0 -11 4q0 3 10 3q8 0 22 1q15 1 21.5 10t9 36.5t3.5 90.5zM463 810q-5 0 -12 5q-14 9 -115 83q-7 6 -7 7q0 2 2 4l15 11q5 3 7 1q76 -61 107 -79q4 -3 7 -3q5 0 12 5q30 18 106 68q13 9 18 9t-4 -8q-1 -2 -3 -3q-20 -14 -66.5 -50.5t-54.5 -42.5q-8 -7 -12 -7z" />
    <glyph glyph-name="ncaron" unicode="&#x148;" horiz-adv-x="828" 
d="M141 120q-1 87 -0.5 249.5t0.5 228.5q0 54 6 54q3 0 27 -27q20 -23 99.5 -118t130.5 -156q81 -97 161.5 -189.5t95.5 -110.5l-4 494q-1 51 -7 67.5t-26 18.5t-26 2q-9 0 -9 4q0 3 9 3q14 0 39.5 -1t28.5 -1t29.5 1t37.5 1q10 0 10 -3t-8 -4q-15 -1 -19 -2
q-23 -4 -28.5 -19.5t-5.5 -59.5l1 -468q0 -68 -1 -81.5t-5 -13.5q-2 0 -44 49q-188 219 -236 276q-50 59 -135.5 162t-99.5 119l6 -500q1 -56 9 -71.5t38 -18.5q9 -1 17 -1q10 0 10 -3q0 -4 -11 -4q-15 0 -42.5 1.5t-31.5 1.5q-3 0 -27 -1.5t-40 -1.5q-10 0 -10 4q0 3 9 3
t20 1q19 2 26 22.5t6 92.5zM412 700q-5 0 -12 5q-14 9 -115 83q-7 6 -7 7q0 2 2 4l15 11q5 3 7 1q76 -61 107 -79q4 -3 7 -3q4 0 12 5q30 18 106 68q14 9 18 9q5 0 0 -6l-4 -3q-20 -14 -68 -51.5t-56 -43.5q-8 -7 -12 -7z" />
    <glyph glyph-name="uni02D80300.cap" unicode="&#x149;" 
d="M215 992q6 -7 28.5 -41.5t24.5 -40.5q4 -8 0 -8q-3 0 -13 10q-32 32 -69 58q-20 14 -22 15q-5 3 3 9q9 6 22 12q5 2 11 2q3 0 15 -16zM112 880q0 3 6 6q19 9 22 9t6 -4q14 -21 42.5 -34.5t64.5 -13.5q69 0 121 49q8 7 11 7q1 0 0.5 -2t-2.5 -5.5t-6 -7.5
q-59 -64 -145 -64q-50 0 -89 26q-14 9 -22.5 19.5t-8.5 14.5z" />
    <glyph glyph-name="uni02D80301.cap" unicode="&#x14a;" 
d="M112 880q0 3 6 6q19 9 22 9t6 -4q14 -21 42.5 -34.5t64.5 -13.5q69 0 121 49q8 7 11 7q1 0 0.5 -2t-2.5 -5.5t-6 -7.5q-59 -64 -145 -64q-50 0 -89 26q-14 9 -22.5 19.5t-8.5 14.5zM285 982q12 16 15 16q6 0 11 -2q13 -6 22 -12q7 -6 3 -8q-2 -1 -4.5 -3t-7.5 -5.5
t-10 -7.5q-37 -26 -70 -59q-9 -9 -13 -9q-1 0 -1 2.5t2 5.5q2 6 24.5 40.5t28.5 41.5z" />
    <glyph glyph-name="uni0302" unicode="&#x14b;" horiz-adv-x="0" 
d="M5 823q4 0 12 -5q14 -9 115 -83q7 -6 7 -7q0 -2 -2 -4l-15 -11q-5 -3 -7 -1q-76 61 -107 79q-4 3 -7 3q-4 0 -12 -5q-27 -15 -104 -67q-15 -10 -20 -10q-8 0 5 9q20 14 67.5 51.5t55.5 43.5q8 7 12 7z" />
    <glyph glyph-name="Omacron" unicode="&#x14c;" horiz-adv-x="889" 
d="M438 -17q-91 0 -164 33t-118 88.5t-68.5 123.5t-23.5 142q0 76 25.5 146.5t73 127t122 90t165.5 33.5q167 0 271 -105.5t104 -266.5q0 -172 -108 -292t-279 -120zM457 5q144 0 241 97.5t97 275.5q0 92 -31 165t-82 116t-112.5 65t-127.5 22q-169 0 -258.5 -101
t-89.5 -257q0 -180 104 -281.5t259 -101.5zM318 891h254q4 0 3 -5l-4 -16q-1 -4 -6 -4h-252q-6 0 -5 5l3 15q1 5 7 5z" />
    <glyph glyph-name="omacron" unicode="&#x14d;" horiz-adv-x="783" 
d="M385 -14q-77 0 -140.5 28.5t-102.5 75.5t-60 105t-21 120q0 135 89.5 236t244.5 101q145 0 236 -89.5t91 -226.5q0 -149 -93 -249.5t-244 -100.5zM403 5q56 0 107 19t92.5 56.5t66 99.5t24.5 141q0 76 -27 137t-71 98.5t-97.5 57t-109.5 19.5q-143 0 -220.5 -84
t-77.5 -218q0 -150 90.5 -238t222.5 -88zM277 781h234q4 0 3 -5l-4 -14q-1 -4 -6 -4h-232q-6 0 -5 5l3 13q1 5 7 5z" />
    <glyph glyph-name="uni02C60300.cap" unicode="&#x14e;" 
d="M356 987q8 3 14 2q9 -3 24 -24q25 -30 55 -71q6 -8 5 -11q-1 -1 -5.5 1t-5.5 3q-66 53 -80 63q-25 17 -26 17q-5 2 -1 6q12 10 20 14zM254 915q2 0 13 -7q37 -24 100 -76q7 -6 7 -8q0 -1 -2 -3l-17 -12q-3 -3 -5 0q-19 17 -50.5 42t-41.5 30q-3 2 -8 2q-4 0 -11 -5
q-33 -19 -92 -61q-13 -9 -19 -9t5 10q3 3 53.5 43.5t55.5 45.5q10 8 12 8z" />
    <glyph glyph-name="uni02C60309.cap" unicode="&#x14f;" 
d="M402 1018q26 0 43 -14t17 -37q0 -44 -77 -73q-13 -5 -13 0q0 3 8 8q14 10 21.5 16t15.5 18.5t8 26.5q0 12 -8.5 21.5t-28.5 9.5q-28 0 -54 -16q-11 -6 -11 -3q0 4 5 9q34 34 74 34zM254 915q2 0 13 -7q37 -24 100 -76q7 -6 7 -8q0 -1 -2 -3l-17 -12q-3 -3 -5 0
q-19 17 -50.5 42t-41.5 30q-3 2 -8 2q-4 0 -11 -5q-33 -19 -92 -61q-13 -9 -19 -9t5 10q3 3 53.5 43.5t55.5 45.5q10 8 12 8z" />
    <glyph glyph-name="Ohungarumlaut" unicode="&#x150;" horiz-adv-x="889" 
d="M438 -17q-91 0 -164 33t-118 88.5t-68.5 123.5t-23.5 142q0 76 25.5 146.5t73 127t122 90t165.5 33.5q167 0 271 -105.5t104 -266.5q0 -172 -108 -292t-279 -120zM457 5q144 0 241 97.5t97 275.5q0 92 -31 165t-82 116t-112.5 65t-127.5 22q-169 0 -258.5 -101
t-89.5 -257q0 -180 104 -281.5t259 -101.5zM407 923q12 16 15 16q5 0 12 -3q17 -8 21 -10q7 -6 3 -8q-16 -8 -25 -15q-32 -24 -80 -72q-9 -9 -12 -9q-4 0 0 8q2 6 30.5 45.5t35.5 47.5zM574 923q15 16 17 16q6 0 12 -3q11 -6 19 -12q9 -6 1 -9q-6 -2 -24 -14
q-47 -32 -88 -71q-8 -8 -11 -8q-4 0 0 7q3 5 35 45.5t39 48.5z" />
    <glyph glyph-name="ohungarumlaut" unicode="&#x151;" horiz-adv-x="783" 
d="M385 -14q-77 0 -140.5 28.5t-102.5 75.5t-60 105t-21 120q0 135 89.5 236t244.5 101q145 0 236 -89.5t91 -226.5q0 -149 -93 -249.5t-244 -100.5zM403 5q56 0 107 19t92.5 56.5t66 99.5t24.5 141q0 76 -27 137t-71 98.5t-97.5 57t-109.5 19.5q-143 0 -220.5 -84
t-77.5 -218q0 -150 90.5 -238t222.5 -88zM355 803q12 16 17 16t12 -3q13 -5 19 -10q7 -6 3 -8q-16 -8 -25 -15q-32 -24 -80 -72q-9 -9 -12 -9q-1 0 -1 2.5t2 5.5q2 6 30 46t35 47zM522 803q15 16 17 16q6 0 12 -3q11 -6 19 -12q9 -6 1 -9q-6 -2 -24 -14q-47 -32 -88 -71
q-8 -8 -11 -8q-1 0 -1 2t2 5q1 5 32 44t41 50z" />
    <glyph glyph-name="OE" unicode="&#x152;" horiz-adv-x="1169" 
d="M93 386q0 -171 100.5 -275.5t267.5 -104.5q17 0 34.5 1.5t51.5 9.5t63 22t62 43t56.5 68t39 100.5t15.5 137.5q0 78 -22 141.5t-56.5 102.5t-80.5 65.5t-90.5 37t-88.5 10.5q-166 0 -259 -99t-93 -260zM807 750q182 0 207 1q42 0 50 3q3 1 5 1q4 0 2 -5q-3 -16 -4 -23
q-4 -26 -4 -66q0 -13 -4 -13q-3 0 -3 14q0 34 -8 47q-6 11 -16.5 14t-34.5 5q-87 3 -181 3q-6 0 -6 -10v-309q0 -3 3 -3q171 0 194 1t31.5 5t12.5 14q3 8 5 8q3 0 1 -8l-3 -14q-3 -14 -4 -23q-3 -24 -3 -62q0 -10 -4 -10q-3 0 -3 10q-1 23 -4 33q-6 20 -38 23q-35 3 -185 3
q-3 0 -3 -3v-98q0 -172 3 -214q1 -28 7.5 -40t28.5 -14q42 -4 83 -4q96 0 120 9q30 12 39 74q1 8 4 8q2 0 2 -8q0 -33 -12 -81q-4 -16 -12 -20t-42 -4q-95 0 -173 4q-38 2 -55 2q-2 0 -9.5 -0.5t-10.5 -0.5q-5 0 -5 5q5 60 8 236q-7 -28 -21 -58t-42.5 -67t-65 -65
t-94.5 -47.5t-127 -19.5q-75 0 -138.5 23.5t-105.5 62.5t-71.5 89.5t-43 103.5t-13.5 107q0 51 12.5 104t42 106.5t73 94.5t111 67t150.5 26q115 0 200.5 -58t127.5 -151h1q0 122 -4 186q0 7 4 7q1 0 10 -0.5t15 -0.5z" />
    <glyph glyph-name="oe" unicode="&#x153;" horiz-adv-x="1026" 
d="M90 330q0 -145 87.5 -234.5t228.5 -89.5q21 0 45.5 3.5t69 22t78 49.5t59.5 95.5t26 151.5q0 81 -28.5 143t-74 95.5t-93.5 49.5t-97 16q-142 0 -221.5 -83t-79.5 -219zM708 0q-6 0 -14 -0.5t-10 -0.5q-5 0 -5 4q0 145 7 191q-9 -29 -27.5 -60t-53 -67t-92 -58.5
t-129.5 -22.5q-66 0 -120.5 20t-91.5 53t-62.5 76t-37 88.5t-11.5 90.5q0 44 11 88.5t36.5 90t63 80.5t96.5 57t130 22q99 0 170.5 -45t111.5 -120q1 -2 1 0q0 4 -0.5 71.5t-0.5 73.5t4 6q2 0 6.5 -0.5t5.5 -0.5q174 0 196 1q28 0 41 3l8 2q3 0 1 -6q-3 -11 -4 -24
q-3 -34 -3 -54q0 -10 -3 -10q-4 0 -4 8q0 30 -7 41q-9 15 -46 18q-75 3 -158 3q-7 0 -7 -9v-257q0 -4 4 -4q149 0 169 1q34 2 40 17q4 6 6 6q3 0 1 -7q-4 -22 -6 -34q-3 -21 -3 -57q0 -9 -3 -9q-4 0 -4 9q-2 24 -4 32q-6 19 -34 20q-30 3 -162 3q-4 0 -4 -3v-82
q0 -143 3 -178q1 -23 7 -34t25 -13q34 -4 76 -4q82 0 105 8q26 10 33 63q1 8 5 8q2 0 2 -8q0 -25 -11 -71q-3 -13 -11 -17t-37 -4q-45 0 -150 3q-35 2 -49 2z" />
    <glyph glyph-name="Racute" unicode="&#x154;" horiz-adv-x="699" 
d="M182 287v177q0 183 -1 215q-1 36 -8 48.5t-24 15.5q-16 3 -36 3q-9 0 -9 4q0 3 10 3q11 0 40 -1.5t39 -1.5q7 0 53.5 1.5t61.5 1.5q103 0 154 -35q80 -55 80 -155q0 -124 -121 -224q131 -184 201 -258q36 -39 64 -56t65 -20q13 -1 23 -1q11 0 11 -3q0 -4 -12 -4h-33
q-54 0 -81 10.5t-52 37.5q-24 24 -95 118q-16 21 -57.5 79.5t-54.5 74.5q-8 9 -15 9l-170 2q-4 0 -4 -6v-87q0 -114 3 -177q2 -28 8.5 -38.5t28.5 -13.5q22 -2 34 -2q11 0 11 -4q0 -3 -11 -3q-15 0 -36 0.5t-36.5 1t-16.5 0.5q-3 0 -26.5 -1t-38.5 -1q-11 0 -11 3q0 4 9 4
q8 0 17 1q29 2 32 49q4 56 4 233zM211 713v-353q0 -4 5 -5q40 -11 142 -11q46 0 73 22q33 27 56 74t23 102q0 85 -51.5 139.5t-154.5 54.5q-63 0 -83 -8q-10 -4 -10 -15zM450 917q6 -5 15 -17q5 -8 -4 -8q-5 0 -25 -9q-77 -33 -132 -63q-11 -6 -14 -6t-3 2q0 3 8 9
q47 36 115 82q22 15 29 15q6 0 11 -5z" />
    <glyph glyph-name="racute" unicode="&#x155;" horiz-adv-x="645" 
d="M161 244v150q0 131 -2 185q-1 29 -8.5 39.5t-23.5 12.5q-18 2 -31 2q-10 0 -10 4q0 3 12 3q11 0 39.5 -1.5t35.5 -1.5q6 0 46 1.5t54 1.5q91 0 137 -31q32 -21 51.5 -56.5t19.5 -75.5q0 -106 -104 -189q117 -158 177 -219q32 -34 58 -49t61 -16h16q9 0 9 -3q0 -4 -11 -4
h-34q-45 0 -67.5 8.5t-45.5 30.5q-32 31 -88 103q-15 19 -51 68t-47 62q-7 7 -15 7l-146 2q-3 0 -3 -5v-69q0 -118 2 -154q1 -22 8.5 -31.5t28.5 -12.5q20 -2 25 -2q10 0 10 -3q0 -4 -11 -4q-14 0 -32.5 0.5t-31.5 1.5t-14 1q-7 0 -27 -1.5t-32 -1.5q-11 0 -11 4q0 3 9 3
t17 1q11 1 17 7t7.5 12.5t2.5 21.5q3 36 3 198zM190 605v-297q0 -5 4 -6q32 -10 122 -10q36 0 65 18q31 20 50 59t19 88q0 72 -46.5 119.5t-134.5 47.5q-51 0 -71 -6q-8 -3 -8 -13zM417 824q10 -8 16 -15q2 -1 1.5 -4t-2.5 -3q-10 0 -29 -13q-68 -39 -125 -80q-11 -5 -11 -3
q0 4 6 9q19 18 105 95q20 17 27 18q7 0 12 -4z" />
    <glyph glyph-name="uni0156" unicode="&#x156;" horiz-adv-x="699" 
d="M182 287v177q0 183 -1 215q-1 36 -8 48.5t-24 15.5q-16 3 -36 3q-9 0 -9 4q0 3 10 3q11 0 40 -1.5t39 -1.5q7 0 53.5 1.5t61.5 1.5q103 0 154 -35q80 -55 80 -155q0 -124 -121 -224q131 -184 201 -258q36 -39 64 -56t65 -20q13 -1 23 -1q11 0 11 -3q0 -4 -12 -4h-33
q-54 0 -81 10.5t-52 37.5q-24 24 -95 118q-16 21 -57.5 79.5t-54.5 74.5q-8 9 -15 9l-170 2q-4 0 -4 -6v-87q0 -114 3 -177q2 -28 8.5 -38.5t28.5 -13.5q22 -2 34 -2q11 0 11 -4q0 -3 -11 -3q-15 0 -36 0.5t-36.5 1t-16.5 0.5q-3 0 -26.5 -1t-38.5 -1q-11 0 -11 3q0 4 9 4
q8 0 17 1q29 2 32 49q4 56 4 233zM211 713v-353q0 -4 5 -5q40 -11 142 -11q46 0 73 22q33 27 56 74t23 102q0 85 -51.5 139.5t-154.5 54.5q-63 0 -83 -8q-10 -4 -10 -15zM371 -98q0 7 11.5 19t21.5 12q4 0 9.5 -5.5t10 -18t4.5 -28.5q0 -57 -58 -108q-17 -14 -17 -8
q0 3 10 12q36 33 36 75q0 24 -24 42q-4 3 -4 8z" />
    <glyph glyph-name="uni0157" unicode="&#x157;" horiz-adv-x="645" 
d="M161 244v150q0 131 -2 185q-1 29 -8.5 39.5t-23.5 12.5q-18 2 -31 2q-10 0 -10 4q0 3 12 3q11 0 39.5 -1.5t35.5 -1.5q6 0 46 1.5t54 1.5q91 0 137 -31q32 -21 51.5 -56.5t19.5 -75.5q0 -106 -104 -189q117 -158 177 -219q32 -34 58 -49t61 -16h16q9 0 9 -3q0 -4 -11 -4
h-34q-45 0 -67.5 8.5t-45.5 30.5q-32 31 -88 103q-15 19 -51 68t-47 62q-7 7 -15 7l-146 2q-3 0 -3 -5v-69q0 -118 2 -154q1 -22 8.5 -31.5t28.5 -12.5q20 -2 25 -2q10 0 10 -3q0 -4 -11 -4q-14 0 -32.5 0.5t-31.5 1.5t-14 1q-7 0 -27 -1.5t-32 -1.5q-11 0 -11 4q0 3 9 3
t17 1q11 1 17 7t7.5 12.5t2.5 21.5q3 36 3 198zM190 605v-297q0 -5 4 -6q32 -10 122 -10q36 0 65 18q31 20 50 59t19 88q0 72 -46.5 119.5t-134.5 47.5q-51 0 -71 -6q-8 -3 -8 -13zM322 -85q0 7 11.5 19t21.5 12q4 0 9.5 -5.5t10 -18t4.5 -28.5q0 -57 -57 -107
q-6 -5 -10 -7.5t-6 -2.5t-2 1q0 2 10 11q36 33 36 76q0 24 -24 42q-4 3 -4 8z" />
    <glyph glyph-name="Rcaron" unicode="&#x158;" horiz-adv-x="699" 
d="M182 287v177q0 183 -1 215q-1 36 -8 48.5t-24 15.5q-16 3 -36 3q-9 0 -9 4q0 3 10 3q11 0 40 -1.5t39 -1.5q7 0 53.5 1.5t61.5 1.5q103 0 154 -35q80 -55 80 -155q0 -124 -121 -224q131 -184 201 -258q36 -39 64 -56t65 -20q13 -1 23 -1q11 0 11 -3q0 -4 -12 -4h-33
q-54 0 -81 10.5t-52 37.5q-24 24 -95 118q-16 21 -57.5 79.5t-54.5 74.5q-8 9 -15 9l-170 2q-4 0 -4 -6v-87q0 -114 3 -177q2 -28 8.5 -38.5t28.5 -13.5q22 -2 34 -2q11 0 11 -4q0 -3 -11 -3q-15 0 -36 0.5t-36.5 1t-16.5 0.5q-3 0 -26.5 -1t-38.5 -1q-11 0 -11 3q0 4 9 4
q8 0 17 1q29 2 32 49q4 56 4 233zM211 713v-353q0 -4 5 -5q40 -11 142 -11q46 0 73 22q33 27 56 74t23 102q0 85 -51.5 139.5t-154.5 54.5q-63 0 -83 -8q-10 -4 -10 -15zM314 811q-4 0 -12 5q-14 9 -115 83q-7 6 -7 7q0 2 2 4l15 11q5 3 7 1q76 -61 107 -79q4 -3 7 -3
q4 0 12 5q30 18 106 68q13 9 18 9t-4 -8q-1 -2 -3 -3q-20 -14 -66.5 -50.5t-54.5 -42.5q-8 -7 -12 -7z" />
    <glyph glyph-name="rcaron" unicode="&#x159;" horiz-adv-x="645" 
d="M161 244v150q0 131 -2 185q-1 29 -8.5 39.5t-23.5 12.5q-18 2 -31 2q-10 0 -10 4q0 3 12 3q11 0 39.5 -1.5t35.5 -1.5q6 0 46 1.5t54 1.5q91 0 137 -31q32 -21 51.5 -56.5t19.5 -75.5q0 -106 -104 -189q117 -158 177 -219q32 -34 58 -49t61 -16h16q9 0 9 -3q0 -4 -11 -4
h-34q-45 0 -67.5 8.5t-45.5 30.5q-32 31 -88 103q-15 19 -51 68t-47 62q-7 7 -15 7l-146 2q-3 0 -3 -5v-69q0 -118 2 -154q1 -22 8.5 -31.5t28.5 -12.5q20 -2 25 -2q10 0 10 -3q0 -4 -11 -4q-14 0 -32.5 0.5t-31.5 1.5t-14 1q-7 0 -27 -1.5t-32 -1.5q-11 0 -11 4q0 3 9 3
t17 1q11 1 17 7t7.5 12.5t2.5 21.5q3 36 3 198zM190 605v-297q0 -5 4 -6q32 -10 122 -10q36 0 65 18q31 20 50 59t19 88q0 72 -46.5 119.5t-134.5 47.5q-51 0 -71 -6q-8 -3 -8 -13zM292 707q-4 0 -12 5q-14 9 -115 83q-7 6 -7 7q0 2 2 4l15 11q5 3 7 1q76 -61 107 -79
q4 -3 7 -3q4 0 12 5q30 18 106 68q14 9 18 9q5 0 0 -6l-4 -3q-20 -14 -68 -51.5t-56 -43.5q-8 -7 -12 -7z" />
    <glyph glyph-name="Sacute" unicode="&#x15a;" horiz-adv-x="497" 
d="M203 -17q-73 0 -122 26q-13 7 -13 27q0 62 3 84q1 11 5 11q3 0 3 -11q0 -30 4 -49q17 -69 144 -69q74 0 118.5 48t44.5 119q0 61 -24.5 101t-102.5 101l-50 38q-118 90 -118 187q0 76 50 123.5t140 47.5q40 0 86 -10q16 -4 32 -5q4 0 4 -4q0 -1 -1 -10.5t-2 -30.5t-1 -49
q0 -12 -4 -12t-4 9q0 41 -11 56q-29 39 -119 39q-60 0 -100.5 -37t-40.5 -106q0 -49 26.5 -91t103.5 -98l37 -27q79 -61 104 -106.5t25 -100.5q0 -34 -17 -80t-60 -79q-54 -42 -140 -42zM378 927q6 -5 15 -17q5 -8 -4 -8q-5 0 -25 -9q-77 -33 -132 -63q-11 -6 -14 -6t-3 2
q0 3 8 9q47 36 115 82q22 15 29 15q6 0 11 -5z" />
    <glyph glyph-name="sacute" unicode="&#x15b;" horiz-adv-x="445" 
d="M184 -14q-68 0 -110 22q-12 5 -12 23q0 52 3 73q1 11 4 11t3 -10q0 -27 3 -38q15 -65 127 -65q67 0 105.5 39t38.5 101q0 51 -21 85t-89 85l-43 32q-107 79 -107 162q0 65 43 105.5t122 40.5q36 0 81 -9q8 -2 28 -4q4 0 4 -3q0 -1 -1 -9.5t-1.5 -26.5t-0.5 -42
q0 -13 -3 -13q-4 0 -4 9q-2 33 -11 47q-25 35 -108 35q-57 0 -89 -30t-32 -89q0 -42 23.5 -76.5t92.5 -83.5l31 -22q70 -53 92.5 -93t22.5 -88q0 -81 -69 -133q-47 -35 -123 -35zM352 837q10 -8 16 -15q2 -2 1.5 -4.5t-2.5 -2.5q-9 0 -29 -13q-68 -39 -125 -80
q-11 -6 -11 -3q0 4 6 9q19 18 105 95q20 17 27 18q7 0 12 -4z" />
    <glyph glyph-name="Scircumflex" unicode="&#x15c;" horiz-adv-x="497" 
d="M203 -17q-73 0 -122 26q-13 7 -13 27q0 62 3 84q1 11 5 11q3 0 3 -11q0 -30 4 -49q17 -69 144 -69q74 0 118.5 48t44.5 119q0 61 -24.5 101t-102.5 101l-50 38q-118 90 -118 187q0 76 50 123.5t140 47.5q40 0 86 -10q16 -4 32 -5q4 0 4 -4q0 -1 -1 -10.5t-2 -30.5t-1 -49
q0 -12 -4 -12t-4 9q0 41 -11 56q-29 39 -119 39q-60 0 -100.5 -37t-40.5 -106q0 -49 26.5 -91t103.5 -98l37 -27q79 -61 104 -106.5t25 -100.5q0 -34 -17 -80t-60 -79q-54 -42 -140 -42zM266 937q4 0 12 -5q14 -9 115 -83q7 -6 7 -7q0 -2 -2 -4l-15 -11q-5 -3 -7 -1
q-76 61 -107 79q-5 3 -7 3q-4 0 -12 -5q-15 -9 -104 -68q-13 -9 -20 -9q-6 1 6 11q20 14 67 50.5t55 42.5q8 7 12 7z" />
    <glyph glyph-name="scircumflex" unicode="&#x15d;" horiz-adv-x="445" 
d="M184 -14q-68 0 -110 22q-12 5 -12 23q0 52 3 73q1 11 4 11t3 -10q0 -27 3 -38q15 -65 127 -65q67 0 105.5 39t38.5 101q0 51 -21 85t-89 85l-43 32q-107 79 -107 162q0 65 43 105.5t122 40.5q36 0 81 -9q8 -2 28 -4q4 0 4 -3q0 -1 -1 -9.5t-1.5 -26.5t-0.5 -42
q0 -13 -3 -13q-4 0 -4 9q-2 33 -11 47q-25 35 -108 35q-57 0 -89 -30t-32 -89q0 -42 23.5 -76.5t92.5 -83.5l31 -22q70 -53 92.5 -93t22.5 -88q0 -81 -69 -133q-47 -35 -123 -35zM237 823q5 0 12 -5q14 -9 115 -83q7 -6 7 -7q0 -2 -2 -4l-15 -11q-5 -3 -7 -1q-76 61 -107 79
q-4 3 -7 3q-5 0 -12 -5q-27 -15 -104 -67q-15 -10 -20 -10q-8 0 5 9q20 14 67.5 51.5t55.5 43.5q8 7 12 7z" />
    <glyph glyph-name="uni015E" unicode="&#x15e;" horiz-adv-x="497" 
d="M254 418l37 -27q79 -61 104 -106.5t25 -100.5q0 -34 -17 -80t-60 -79q-35 -28 -87 -37q-7 -8 -25 -26.5t-22 -22.5q91 -21 91 -73q0 -31 -24 -51t-47.5 -26t-42.5 -6q-9 0 -9 3q0 4 11 5q38 6 58 25t20 43q0 48 -79 64q-8 1 -8 6t10 13l42 42q-9 -1 -28 -1q-73 0 -122 26
q-13 7 -13 27q0 62 3 84q1 11 5 11q3 0 3 -11q0 -30 4 -49q17 -69 144 -69q74 0 118.5 48t44.5 119q0 61 -24.5 101t-102.5 101l-50 38q-118 90 -118 187q0 76 50 123.5t140 47.5q40 0 86 -10q16 -4 32 -5q4 0 4 -4q0 -1 -1 -10.5t-2 -30.5t-1 -49q0 -12 -4 -12t-4 9
q0 41 -11 56q-29 39 -119 39q-60 0 -100.5 -37t-40.5 -106q0 -49 26.5 -91t103.5 -98z" />
    <glyph glyph-name="uni015F" unicode="&#x15f;" horiz-adv-x="445" 
d="M230 357l31 -22q70 -53 92.5 -93t22.5 -88q0 -81 -69 -133q-31 -24 -74 -31q-7 -8 -25 -26.5t-22 -22.5q91 -21 91 -73q0 -31 -24 -51t-47.5 -26t-42.5 -6q-9 0 -9 4t16 7q69 14 69 65q0 43 -75 64q-8 3 -8 6q0 5 10 13l43 43q-8 -1 -25 -1q-68 0 -110 22q-12 5 -12 23
q0 52 3 73q1 11 4 11t3 -10q0 -27 3 -38q15 -65 127 -65q67 0 105.5 39t38.5 101q0 51 -21 85t-89 85l-43 32q-107 79 -107 162q0 65 43 105.5t122 40.5q36 0 81 -9q8 -2 28 -4q4 0 4 -3q0 -1 -1 -9.5t-1.5 -26.5t-0.5 -42q0 -13 -3 -13q-4 0 -4 9q-2 33 -11 47
q-25 35 -108 35q-57 0 -89 -30t-32 -89q0 -42 23.5 -76.5t92.5 -83.5z" />
    <glyph glyph-name="Scaron" unicode="&#x160;" horiz-adv-x="497" 
d="M203 -17q-73 0 -122 26q-13 7 -13 27q0 62 3 84q1 11 5 11q3 0 3 -11q0 -30 4 -49q17 -69 144 -69q74 0 118.5 48t44.5 119q0 61 -24.5 101t-102.5 101l-50 38q-118 90 -118 187q0 76 50 123.5t140 47.5q40 0 86 -10q16 -4 32 -5q4 0 4 -4q0 -1 -1 -10.5t-2 -30.5t-1 -49
q0 -12 -4 -12t-4 9q0 41 -11 56q-29 39 -119 39q-60 0 -100.5 -37t-40.5 -106q0 -49 26.5 -91t103.5 -98l37 -27q79 -61 104 -106.5t25 -100.5q0 -34 -17 -80t-60 -79q-54 -42 -140 -42zM255 832q-5 0 -12 5q-14 9 -115 83q-7 6 -7 7q0 2 2 4l15 11q5 3 7 1q76 -61 107 -79
q4 -3 7 -3q5 0 12 5q30 18 106 68q13 9 18 9t-4 -8q-1 -2 -3 -3q-20 -14 -66.5 -50.5t-54.5 -42.5q-8 -7 -12 -7z" />
    <glyph glyph-name="scaron" unicode="&#x161;" horiz-adv-x="445" 
d="M184 -14q-68 0 -110 22q-12 5 -12 23q0 52 3 73q1 11 4 11t3 -10q0 -27 3 -38q15 -65 127 -65q67 0 105.5 39t38.5 101q0 51 -21 85t-89 85l-43 32q-107 79 -107 162q0 65 43 105.5t122 40.5q36 0 81 -9q8 -2 28 -4q4 0 4 -3q0 -1 -1 -9.5t-1.5 -26.5t-0.5 -42
q0 -13 -3 -13q-4 0 -4 9q-2 33 -11 47q-25 35 -108 35q-57 0 -89 -30t-32 -89q0 -42 23.5 -76.5t92.5 -83.5l31 -22q70 -53 92.5 -93t22.5 -88q0 -81 -69 -133q-47 -35 -123 -35zM228 710q-4 0 -12 5q-14 9 -115 83q-7 6 -7 7q0 2 2 4l15 11q5 3 7 1q76 -61 107 -79
q5 -3 7 -3q4 0 12 5q30 18 106 68q13 9 18 9t0 -6l-4 -3q-20 -14 -68 -51.5t-56 -43.5q-8 -7 -12 -7z" />
    <glyph glyph-name="uni0162" unicode="&#x162;" horiz-adv-x="652" 
d="M173 750h317q99 0 121 5q2 0 5 1q4 1 5 1q3 0 3 -15q0 -4 -1.5 -34.5t-1.5 -41.5t-4 -11q-3 0 -3 11v14q0 26 -11 36t-43 12q-37 3 -218 3v-444q0 -166 3 -229q1 -21 3 -29t9.5 -14.5t24.5 -8.5q14 -2 39 -2q8 0 8 -3q0 -4 -10 -4q-24 0 -60 2q-8 -8 -29.5 -30.5
t-26.5 -27.5q91 -21 91 -73q0 -31 -24 -51t-47.5 -26t-42.5 -6q-9 0 -9 3q0 4 11 5q38 6 58 25t20 43q0 48 -79 64q-8 1 -8 6t10 13l56 56h-12q-3 0 -30 -1.5t-42 -1.5q-10 0 -10 4q0 3 10 3q19 0 28 2q14 3 19 13.5t7 34.5q4 56 4 233v444q-153 0 -187 -1q-45 -2 -62 -8
t-24 -25q-2 -5 -8 -26q-3 -11 -6 -11q-4 0 -1 12q9 36 15 72q3 15 8 15q1 0 2 -0.5t2.5 -1t3.5 -0.5q25 -7 117 -7z" />
    <glyph glyph-name="uni0163" unicode="&#x163;" horiz-adv-x="583" 
d="M158 637h284q80 0 102 5q5 1 10 1q3 0 3 -11q0 -6 -1.5 -33t-1.5 -36q0 -10 -3 -10q-4 0 -4 10v11q-1 22 -10.5 31.5t-40.5 10.5q-34 3 -186 3v-375q0 -122 2 -194q2 -23 9 -32.5t28 -11.5q24 -2 34 -2q9 0 9 -3q0 -4 -8 -4q-25 0 -63 2q-8 -8 -29.5 -30.5t-26.5 -27.5
q91 -21 91 -73q0 -31 -24 -51t-47.5 -26t-42.5 -6q-9 0 -9 4t16 7q69 14 69 65q0 43 -75 64q-8 3 -8 6q0 5 10 13l56 56h-8q-2 0 -27 -1.5t-39 -1.5q-9 0 -9 4q0 3 8 3q13 0 27 2q10 2 15 7.5t6.5 11.5t2.5 21q4 48 4 198v375q-103 0 -162 -1q-39 -2 -54 -7t-22 -20
q-5 -12 -9 -28q-2 -6 -5 -6q-4 0 -1 13q2 11 7 32.5t6 27.5q3 16 7 16q1 0 9 -2q22 -7 101 -7z" />
    <glyph glyph-name="Tcaron" unicode="&#x164;" horiz-adv-x="652" 
d="M342 731v-444q0 -166 3 -229q1 -21 3 -29t9.5 -14.5t24.5 -8.5q14 -2 39 -2q8 0 8 -3q0 -4 -10 -4q-15 0 -37 0.5t-38 1.5t-17 1q-3 0 -30 -1.5t-42 -1.5q-10 0 -10 4q0 3 10 3q19 0 28 2q14 3 19 13.5t7 34.5q4 56 4 233v444q-153 0 -187 -1q-45 -2 -62 -8t-24 -25
q-2 -5 -8 -26q-3 -11 -6 -11q-4 0 -1 12q9 36 15 72q3 15 8 15q1 0 2 -0.5t2.5 -1t3.5 -0.5q25 -7 117 -7h317q99 0 121 5q2 0 5 1q4 1 5 1q3 0 3 -15q0 -4 -1.5 -34.5t-1.5 -41.5t-4 -11q-3 0 -3 11v14q0 26 -11 36t-43 12q-37 3 -218 3zM323 810q-5 0 -12 5q-14 9 -115 83
q-7 6 -7 7q0 2 2 4l15 11q5 3 7 1q76 -61 107 -79q4 -3 7 -3q5 0 12 5q30 18 106 68q13 9 18 9t-4 -8q-1 -2 -3 -3q-20 -14 -66.5 -50.5t-54.5 -42.5q-8 -7 -12 -7z" />
    <glyph glyph-name="tcaron" unicode="&#x165;" horiz-adv-x="583" 
d="M310 619v-375q0 -122 2 -194q2 -23 9 -32.5t28 -11.5q24 -2 34 -2q9 0 9 -3q0 -4 -8 -4q-15 0 -36.5 0.5t-37.5 1.5t-17 1q-2 0 -27 -1.5t-39 -1.5q-9 0 -9 4q0 3 8 3q13 0 27 2q10 2 15 7.5t6.5 11.5t2.5 21q4 48 4 198v375q-103 0 -162 -1q-39 -2 -54 -7t-22 -20
q-5 -12 -9 -28q-2 -6 -5 -6q-4 0 -1 13q2 11 7 32.5t6 27.5q3 16 7 16q1 0 9 -2q22 -7 101 -7h284q80 0 102 5q5 1 10 1q3 0 3 -11q0 -6 -1.5 -33t-1.5 -36q0 -10 -3 -10q-4 0 -4 10v11q-1 22 -10.5 31.5t-40.5 10.5q-34 3 -186 3zM293 703q-5 0 -12 5q-14 9 -115 83
q-7 6 -7 7q0 2 2 4l15 11q5 3 7 1q76 -61 107 -79q4 -3 7 -3q5 0 12 5q30 18 106 68q13 9 18 9t0 -6l-4 -3q-20 -14 -68 -51.5t-56 -43.5q-8 -7 -12 -7z" />
    <glyph glyph-name="uni02C60303.cap" unicode="&#x166;" 
d="M313 927q-20 0 -70.5 16.5t-60.5 16.5q-15 0 -27.5 -4.5t-18 -8t-19.5 -14.5q-6 -5 -9 -5q-4 0 2 9q12 15 35.5 32t39.5 17q19 0 86 -22q30 -10 50 -10q32 0 58 26q6 6 10 6q2 -1 0.5 -4t-4.5 -7q-36 -48 -72 -48zM249 894q5 0 15 -5q81 -40 111 -59q8 -5 8 -6t-3 -4
l-21 -12q-3 -2 -5 -1q-17 11 -53 30.5t-48 24.5q-4 2 -9 2q-4 0 -12 -4q-60 -27 -95 -45q-19 -8 -21 -8q-10 0 5 9q13 11 116 72q11 6 12 6z" />
    <glyph glyph-name="uni00200323.cap" unicode="&#x167;" 
d="M249 -143q-14 0 -21 8.5t-7 19.5q0 10 7 19t21 9q12 0 20.5 -7.5t8.5 -19.5t-8 -20.5t-21 -8.5z" />
    <glyph glyph-name="Utilde" unicode="&#x168;" horiz-adv-x="828" 
d="M167 463v-147q0 -97 20.5 -152t56.5 -92q34 -35 85.5 -52t102.5 -17q114 0 172 69q64 76 64 258v133q0 175 -3 223q-2 31 -9.5 43.5t-32.5 14.5q-16 2 -25 2q-11 0 -11 4q0 3 12 3q17 0 47 -1.5t34 -1.5q5 0 29 1.5t36 1.5q11 0 11 -4q0 -3 -11 -3h-9q-25 -1 -32 -13
t-9 -47q-1 -32 -1 -223v-127q0 -100 -18.5 -169.5t-71.5 -118.5q-70 -65 -198 -65q-115 0 -186 71q-41 41 -61.5 98t-20.5 158v153q0 185 -1 217q-1 37 -6.5 48.5t-22.5 14.5t-38 3q-11 0 -11 4q0 3 12 3t44.5 -1.5t36.5 -1.5t32.5 1.5t40.5 1.5q11 0 11 -3q0 -4 -11 -4
q-4 0 -20 -2q-21 -2 -28.5 -15t-8.5 -45t-1 -221zM505 828q-20 0 -69.5 20.5t-64.5 20.5q-31 0 -58 -28q-7 -7 -9 -7q-1 0 -1.5 0.5t0 3t2.5 5.5q11 18 33 35t41 17q7 0 12 -0.5t13.5 -3.5t13.5 -4.5t20.5 -8t25.5 -10.5q31 -12 51 -12q34 0 64 31q5 5 8 5t-2 -9
q-11 -18 -34 -36.5t-46 -18.5z" />
    <glyph glyph-name="utilde" unicode="&#x169;" horiz-adv-x="741" 
d="M157 394v-125q0 -139 69 -208q58 -57 162 -57q97 0 151 61q56 63 56 216v113q0 105 -3 186q-1 19 -3.5 28.5t-11 16t-25.5 7.5q-7 1 -18 1q-9 0 -9 4q0 3 9 3q22 0 47 -1.5t26 -1.5q5 0 28 1.5t34 1.5q8 0 8 -3q0 -4 -8 -4q-9 0 -15 -1q-18 -2 -24.5 -12t-7.5 -41
q-1 -27 -1 -185v-105q0 -87 -15.5 -146.5t-61.5 -100.5q-62 -56 -171 -56q-110 0 -173 60q-35 35 -53.5 83.5t-18.5 134.5v130q0 156 -1 183q-1 30 -7.5 41t-21.5 13q-10 2 -30 2q-10 0 -10 4q0 3 10 3q12 0 42 -1.5t34 -1.5q3 0 28 1.5t36 1.5q8 0 8 -3q0 -4 -8 -4
q-6 0 -15 -1q-22 -2 -28 -12.5t-7 -38.5t-1 -187zM434 724q-20 0 -69.5 20.5t-64.5 20.5q-30 0 -58 -28q-8 -8 -10 -8q-4 0 2 10q11 18 33 35t41 17q7 0 12 -0.5t13.5 -3.5t13.5 -4.5t20.5 -8t25.5 -10.5q31 -12 51 -12q34 0 64 31q6 6 8 6q4 0 -2 -10q-11 -18 -34 -36.5
t-46 -18.5z" />
    <glyph glyph-name="Umacron" unicode="&#x16a;" horiz-adv-x="828" 
d="M167 463v-147q0 -97 20.5 -152t56.5 -92q34 -35 85.5 -52t102.5 -17q114 0 172 69q64 76 64 258v133q0 175 -3 223q-2 31 -9.5 43.5t-32.5 14.5q-16 2 -25 2q-11 0 -11 4q0 3 12 3q17 0 47 -1.5t34 -1.5q5 0 29 1.5t36 1.5q11 0 11 -4q0 -3 -11 -3h-9q-25 -1 -32 -13
t-9 -47q-1 -32 -1 -223v-127q0 -100 -18.5 -169.5t-71.5 -118.5q-70 -65 -198 -65q-115 0 -186 71q-41 41 -61.5 98t-20.5 158v153q0 185 -1 217q-1 37 -6.5 48.5t-22.5 14.5t-38 3q-11 0 -11 4q0 3 12 3t44.5 -1.5t36.5 -1.5t32.5 1.5t40.5 1.5q11 0 11 -3q0 -4 -11 -4
q-4 0 -20 -2q-21 -2 -28.5 -15t-8.5 -45t-1 -221zM319 872h254q4 0 3 -5l-4 -16q-1 -4 -6 -4h-252q-6 0 -5 5l3 15q1 5 7 5z" />
    <glyph glyph-name="umacron" unicode="&#x16b;" horiz-adv-x="741" 
d="M157 394v-125q0 -139 69 -208q58 -57 162 -57q97 0 151 61q56 63 56 216v113q0 105 -3 186q-1 19 -3.5 28.5t-11 16t-25.5 7.5q-7 1 -18 1q-9 0 -9 4q0 3 9 3q22 0 47 -1.5t26 -1.5q5 0 28 1.5t34 1.5q8 0 8 -3q0 -4 -8 -4q-9 0 -15 -1q-18 -2 -24.5 -12t-7.5 -41
q-1 -27 -1 -185v-105q0 -87 -15.5 -146.5t-61.5 -100.5q-62 -56 -171 -56q-110 0 -173 60q-35 35 -53.5 83.5t-18.5 134.5v130q0 156 -1 183q-1 30 -7.5 41t-21.5 13q-10 2 -30 2q-10 0 -10 4q0 3 10 3q12 0 42 -1.5t34 -1.5q3 0 28 1.5t36 1.5q8 0 8 -3q0 -4 -8 -4
q-6 0 -15 -1q-22 -2 -28 -12.5t-7 -38.5t-1 -187zM261 761h234q4 0 3 -5l-4 -14q-1 -4 -6 -4h-232q-6 0 -5 5l3 13q1 5 7 5z" />
    <glyph glyph-name="Ubreve" unicode="&#x16c;" horiz-adv-x="828" 
d="M167 463v-147q0 -97 20.5 -152t56.5 -92q34 -35 85.5 -52t102.5 -17q114 0 172 69q64 76 64 258v133q0 175 -3 223q-2 31 -9.5 43.5t-32.5 14.5q-16 2 -25 2q-11 0 -11 4q0 3 12 3q17 0 47 -1.5t34 -1.5q5 0 29 1.5t36 1.5q11 0 11 -4q0 -3 -11 -3h-9q-25 -1 -32 -13
t-9 -47q-1 -32 -1 -223v-127q0 -100 -18.5 -169.5t-71.5 -118.5q-70 -65 -198 -65q-115 0 -186 71q-41 41 -61.5 98t-20.5 158v153q0 185 -1 217q-1 37 -6.5 48.5t-22.5 14.5t-38 3q-11 0 -11 4q0 3 12 3t44.5 -1.5t36.5 -1.5t32.5 1.5t40.5 1.5q11 0 11 -3q0 -4 -11 -4
q-4 0 -20 -2q-21 -2 -28.5 -15t-8.5 -45t-1 -221zM283 886q0 4 4 8q13 13 18 13q4 0 5 -4q13 -27 45.5 -42.5t75.5 -15.5q87 0 136 55q7 7 10 7q4 0 -5 -13q-61 -72 -160 -72q-59 0 -101 28q-28 22 -28 36z" />
    <glyph glyph-name="ubreve" unicode="&#x16d;" horiz-adv-x="741" 
d="M157 394v-125q0 -139 69 -208q58 -57 162 -57q97 0 151 61q56 63 56 216v113q0 105 -3 186q-1 19 -3.5 28.5t-11 16t-25.5 7.5q-7 1 -18 1q-9 0 -9 4q0 3 9 3q22 0 47 -1.5t26 -1.5q5 0 28 1.5t34 1.5q8 0 8 -3q0 -4 -8 -4q-9 0 -15 -1q-18 -2 -24.5 -12t-7.5 -41
q-1 -27 -1 -185v-105q0 -87 -15.5 -146.5t-61.5 -100.5q-62 -56 -171 -56q-110 0 -173 60q-35 35 -53.5 83.5t-18.5 134.5v130q0 156 -1 183q-1 30 -7.5 41t-21.5 13q-10 2 -30 2q-10 0 -10 4q0 3 10 3q12 0 42 -1.5t34 -1.5q3 0 28 1.5t36 1.5q8 0 8 -3q0 -4 -8 -4
q-6 0 -15 -1q-22 -2 -28 -12.5t-7 -38.5t-1 -187zM238 776q0 4 4 8q13 13 18 13q4 0 5 -4q26 -54 110 -54q79 0 128 50q6 7 10 7q5 0 -7 -15q-55 -64 -149 -64q-55 0 -93 26q-26 20 -26 33z" />
    <glyph glyph-name="Uring" unicode="&#x16e;" horiz-adv-x="828" 
d="M167 463v-147q0 -97 20.5 -152t56.5 -92q34 -35 85.5 -52t102.5 -17q114 0 172 69q64 76 64 258v133q0 175 -3 223q-2 31 -9.5 43.5t-32.5 14.5q-16 2 -25 2q-11 0 -11 4q0 3 12 3q17 0 47 -1.5t34 -1.5q5 0 29 1.5t36 1.5q11 0 11 -4q0 -3 -11 -3h-9q-25 -1 -32 -13
t-9 -47q-1 -32 -1 -223v-127q0 -100 -18.5 -169.5t-71.5 -118.5q-70 -65 -198 -65q-115 0 -186 71q-41 41 -61.5 98t-20.5 158v153q0 185 -1 217q-1 37 -6.5 48.5t-22.5 14.5t-38 3q-11 0 -11 4q0 3 12 3t44.5 -1.5t36.5 -1.5t32.5 1.5t40.5 1.5q11 0 11 -3q0 -4 -11 -4
q-4 0 -20 -2q-21 -2 -28.5 -15t-8.5 -45t-1 -221zM427 799q-30 0 -47 16t-17 40q0 30 26.5 52t66.5 22q30 0 47 -14.5t17 -38.5q0 -34 -28 -55.5t-65 -21.5zM386 863q0 -21 15.5 -34t34.5 -13q28 0 43 14t15 36q0 20 -13 33t-38 13q-22 0 -39.5 -12.5t-17.5 -36.5z" />
    <glyph glyph-name="uring" unicode="&#x16f;" horiz-adv-x="741" 
d="M157 394v-125q0 -139 69 -208q58 -57 162 -57q97 0 151 61q56 63 56 216v113q0 105 -3 186q-1 19 -3.5 28.5t-11 16t-25.5 7.5q-7 1 -18 1q-9 0 -9 4q0 3 9 3q22 0 47 -1.5t26 -1.5q5 0 28 1.5t34 1.5q8 0 8 -3q0 -4 -8 -4q-9 0 -15 -1q-18 -2 -24.5 -12t-7.5 -41
q-1 -27 -1 -185v-105q0 -87 -15.5 -146.5t-61.5 -100.5q-62 -56 -171 -56q-110 0 -173 60q-35 35 -53.5 83.5t-18.5 134.5v130q0 156 -1 183q-1 30 -7.5 41t-21.5 13q-10 2 -30 2q-10 0 -10 4q0 3 10 3q12 0 42 -1.5t34 -1.5q3 0 28 1.5t36 1.5q8 0 8 -3q0 -4 -8 -4
q-6 0 -15 -1q-22 -2 -28 -12.5t-7 -38.5t-1 -187zM362 687q-30 0 -47 16t-17 40q0 30 26.5 52t66.5 22q30 0 47 -14.5t17 -38.5q0 -34 -28 -55.5t-65 -21.5zM321 751q0 -21 15.5 -34t34.5 -13q28 0 43 14t15 36q0 20 -13 33t-38 13q-22 0 -39.5 -12.5t-17.5 -36.5z" />
    <glyph glyph-name="Uhungarumlaut" unicode="&#x170;" horiz-adv-x="828" 
d="M167 463v-147q0 -97 20.5 -152t56.5 -92q34 -35 85.5 -52t102.5 -17q114 0 172 69q64 76 64 258v133q0 175 -3 223q-2 31 -9.5 43.5t-32.5 14.5q-16 2 -25 2q-11 0 -11 4q0 3 12 3q17 0 47 -1.5t34 -1.5q5 0 29 1.5t36 1.5q11 0 11 -4q0 -3 -11 -3h-9q-25 -1 -32 -13
t-9 -47q-1 -32 -1 -223v-127q0 -100 -18.5 -169.5t-71.5 -118.5q-70 -65 -198 -65q-115 0 -186 71q-41 41 -61.5 98t-20.5 158v153q0 185 -1 217q-1 37 -6.5 48.5t-22.5 14.5t-38 3q-11 0 -11 4q0 3 12 3t44.5 -1.5t36.5 -1.5t32.5 1.5t40.5 1.5q11 0 11 -3q0 -4 -11 -4
q-4 0 -20 -2q-21 -2 -28.5 -15t-8.5 -45t-1 -221zM401 913q12 16 15 16q4 0 12 -3q18 -7 21 -10q7 -6 3 -8q-16 -8 -25 -15q-32 -24 -80 -72q-9 -9 -12 -9q-4 0 0 8q2 6 30.5 45.5t35.5 47.5zM568 913q15 16 17 16q6 0 12 -3q11 -6 19 -12q9 -6 1 -9q-6 -2 -24 -14
q-47 -32 -88 -71q-8 -8 -11 -8q-4 0 0 7q3 5 35 45.5t39 48.5z" />
    <glyph glyph-name="uhungarumlaut" unicode="&#x171;" horiz-adv-x="741" 
d="M157 394v-125q0 -139 69 -208q58 -57 162 -57q97 0 151 61q56 63 56 216v113q0 105 -3 186q-1 19 -3.5 28.5t-11 16t-25.5 7.5q-7 1 -18 1q-9 0 -9 4q0 3 9 3q22 0 47 -1.5t26 -1.5q5 0 28 1.5t34 1.5q8 0 8 -3q0 -4 -8 -4q-9 0 -15 -1q-18 -2 -24.5 -12t-7.5 -41
q-1 -27 -1 -185v-105q0 -87 -15.5 -146.5t-61.5 -100.5q-62 -56 -171 -56q-110 0 -173 60q-35 35 -53.5 83.5t-18.5 134.5v130q0 156 -1 183q-1 30 -7.5 41t-21.5 13q-10 2 -30 2q-10 0 -10 4q0 3 10 3q12 0 42 -1.5t34 -1.5q3 0 28 1.5t36 1.5q8 0 8 -3q0 -4 -8 -4
q-6 0 -15 -1q-22 -2 -28 -12.5t-7 -38.5t-1 -187zM338 803q12 16 17 16t12 -3q13 -5 19 -10q7 -6 3 -8q-16 -8 -25 -15q-32 -24 -80 -72q-9 -9 -12 -9q-1 0 -1 2.5t2 5.5q2 6 30 46t35 47zM505 803q15 16 17 16q6 0 12 -3q11 -6 19 -12q9 -6 1 -9q-6 -2 -24 -14
q-47 -32 -88 -71q-8 -8 -11 -8q-1 0 -1 2t2 5q1 5 32 44t41 50z" />
    <glyph glyph-name="Uogonek" unicode="&#x172;" horiz-adv-x="884" 
d="M693 330v133q0 175 -3 223q-2 31 -9.5 43.5t-32.5 14.5q-16 2 -25 2q-11 0 -11 4q0 3 12 3q17 0 47 -1.5t34 -1.5q5 0 29 1.5t36 1.5q11 0 11 -4q0 -3 -11 -3h-9q-25 -1 -32 -13t-9 -47q-1 -32 -1 -223v-127q0 -100 -18.5 -169.5t-71.5 -118.5q-16 -16 -35 -27
q-126 -71 -126 -136q0 -26 16 -37.5t37 -11.5q29 0 49 10q10 6 10 2q0 -3 -6 -9q-34 -26 -74 -26q-31 0 -48.5 18.5t-17.5 43.5q0 57 98 120q-41 -12 -101 -12q-115 0 -186 71q-41 41 -61.5 98t-20.5 158v153q0 185 -1 217q-1 37 -6.5 48.5t-22.5 14.5t-38 3q-11 0 -11 4
q0 3 12 3t44.5 -1.5t36.5 -1.5t32.5 1.5t40.5 1.5q11 0 11 -3q0 -4 -11 -4q-4 0 -20 -2q-21 -2 -28.5 -15t-8.5 -45t-1 -221v-147q0 -97 20.5 -152t56.5 -92q34 -35 85.5 -52t102.5 -17q114 0 172 69q64 76 64 258z" />
    <glyph glyph-name="uogonek" unicode="&#x173;" horiz-adv-x="741" 
d="M595 281v113q0 105 -3 186q-1 19 -3.5 28.5t-11 16t-25.5 7.5q-7 1 -18 1q-9 0 -9 4q0 3 9 3q22 0 47 -1.5t26 -1.5q5 0 28 1.5t34 1.5q8 0 8 -3q0 -4 -8 -4q-9 0 -15 -1q-18 -2 -24.5 -12t-7.5 -41q-1 -27 -1 -185v-105q0 -87 -15.5 -146.5t-61.5 -100.5
q-28 -25 -60 -37q-80 -56 -80 -119q0 -27 16 -40t37 -13q28 0 49 13q10 6 10 1q0 -2 -7 -9q-30 -28 -70 -28q-31 0 -50 20t-19 47q0 58 84 118q-37 -9 -81 -9q-110 0 -173 60q-35 35 -53.5 83.5t-18.5 134.5v130q0 156 -1 183q-1 30 -7.5 41t-21.5 13q-10 2 -30 2
q-10 0 -10 4q0 3 10 3q12 0 42 -1.5t34 -1.5q3 0 28 1.5t36 1.5q8 0 8 -3q0 -4 -8 -4q-6 0 -15 -1q-22 -2 -28 -12.5t-7 -38.5t-1 -187v-125q0 -139 69 -208q58 -57 162 -57q97 0 151 61q56 63 56 216z" />
    <glyph glyph-name="Wcircumflex" unicode="&#x174;" horiz-adv-x="1075" 
d="M286 12l-189 643q-18 63 -27 73q-11 14 -32 16q-18 2 -28 2t-10 4q0 3 11 3q5 0 39.5 -1.5t42.5 -1.5q7 0 32 1.5t36 1.5q10 0 10 -4q0 -3 -10 -3q-12 0 -24 -2q-14 -2 -17.5 -7t-3.5 -18q0 -16 22 -102q9 -36 85 -289.5t81 -271.5l232 675q8 19 12 19t10 -21l204 -676
q8 25 74.5 222t95.5 291q41 130 41 150q0 10 -2 15t-13 9.5t-34 5.5q-10 0 -10 4q0 3 11 3q10 0 36.5 -1.5t32.5 -1.5q4 0 36 1.5t48 1.5q9 0 9 -3q0 -4 -8 -4q-13 0 -21 -1q-30 -3 -42 -20t-28 -68q-4 -12 -6 -19q-42 -128 -212 -633q-7 -22 -13 -22q-4 0 -11 21l-203 678
q-91 -268 -228 -670q-11 -29 -16 -29t-13 29zM570 918q4 0 12 -5q14 -9 115 -83q7 -6 7 -7q0 -2 -2 -4l-15 -11q-5 -3 -7 -1q-76 61 -107 79q-5 3 -7 3q-4 0 -12 -5q-15 -9 -104 -68q-14 -9 -20 -9q-6 1 6 11q20 14 67 50.5t55 42.5q8 7 12 7z" />
    <glyph glyph-name="wcircumflex" unicode="&#x175;" horiz-adv-x="977" 
d="M267 14l-166 542q-13 42 -23.5 56.5t-34.5 18.5q-14 2 -21 2q-10 0 -10 4q0 3 8 3q7 0 39.5 -1.5t38.5 -1.5t29 1.5t34 1.5q10 0 10 -4q0 -3 -9 -3q-4 0 -14 -1q-15 -1 -20 -6t-5 -16q0 -13 20 -86q8 -28 73.5 -241.5t70.5 -231.5l201 565q7 21 12 21q4 0 10 -21
l179 -566q10 30 67 195.5t82 241.5q33 101 33 119q0 14 -8.5 20t-40.5 7q-9 0 -9 4q0 3 9 3q19 0 43 -1.5t27 -1.5q4 0 33.5 1.5t44.5 1.5q8 0 8 -3q0 -4 -8 -4q-11 0 -20 -1q-26 -3 -38 -21.5t-30 -71.5q-16 -48 -48.5 -140t-74 -211.5t-61.5 -177.5q-9 -24 -14 -24
q-2 0 -12 21l-177 562q-28 -76 -199 -557q-9 -26 -15 -26q-5 0 -14 28zM498 813q4 0 12 -5q14 -9 115 -83q7 -6 7 -7q0 -2 -2 -4l-15 -11q-5 -3 -7 -1q-76 61 -107 79q-5 3 -7 3q-4 0 -12 -5q-27 -15 -104 -67q-15 -10 -20 -10q-8 0 5 9q20 14 67.5 51.5t55.5 43.5q8 7 12 7
z" />
    <glyph glyph-name="Ycircumflex" unicode="&#x176;" horiz-adv-x="595" 
d="M288 196v81q0 45 -14 69q-120 212 -183 308q-5 7 -15 23.5t-15.5 24t-14 18t-17 15.5t-17.5 7q-10 2 -32 4q-10 1 -10 4t12 3q9 0 29.5 -1.5t33.5 -1.5q9 0 34 1.5t30 1.5q8 0 8 -3t-9 -4q-16 -1 -20.5 -5t-4.5 -12q0 -6 25 -50q8 -12 98 -164.5t101 -168.5
q72 116 183 313q32 57 32 69q0 9 -6 12.5t-29 5.5q-8 1 -8 4t9 3q10 0 32 -1.5t28 -1.5q20 0 43 1.5t31 1.5q10 0 10 -3t-10 -4q-20 -2 -28 -3q-18 -3 -30 -16.5t-38 -52.5q-48 -70 -187 -315q-16 -28 -19 -38.5t-3 -44.5v-80q0 -99 2 -141q1 -27 9 -36.5t31 -12.5
q14 -2 35 -2q9 0 9 -4q0 -3 -10 -3q-27 0 -54 1.5t-32 1.5q-8 0 -36 -1.5t-40 -1.5q-9 0 -9 4q0 3 9 3q15 0 29 3t18.5 12.5t6.5 33.5q3 42 3 143zM329 930q5 0 12 -5q14 -9 115 -83q7 -6 7 -7q0 -2 -2 -4l-15 -11q-5 -3 -7 -1q-76 61 -107 79q-5 3 -7 3q-5 0 -12 -5
q-15 -9 -104 -68q-14 -9 -20 -9q-6 1 6 11q20 14 67 50.5t55 42.5q8 7 12 7z" />
    <glyph glyph-name="ycircumflex" unicode="&#x177;" horiz-adv-x="556" 
d="M270 165v69q0 39 -13 62q-105 180 -160 260q-3 4 -13.5 19.5t-14 20.5t-11.5 14.5t-15 13.5t-15 6q-14 3 -29 3q-9 0 -9 4q0 3 10 3q9 0 29.5 -1t30.5 -1q2 0 26 1t32 1q7 0 7 -2q0 -4 -9 -5q-20 -2 -20 -13q0 -2 20 -42q6 -9 85.5 -138.5t89.5 -143.5q132 219 159 265
q27 49 27 55q0 9 -6 12.5t-25 4.5q-9 0 -9 4q0 3 8 3q10 0 31 -1t26 -1q16 0 38 1t28 1q8 0 8 -3q0 -4 -8 -4q-21 -2 -28 -4q-5 -1 -10 -3.5t-8.5 -4.5t-8.5 -8t-7.5 -9.5l-10 -14t-11.5 -15.5q-17 -23 -79.5 -126.5t-85.5 -142.5q-14 -24 -16.5 -33.5t-2.5 -38.5v-68
q0 -81 2 -117q1 -21 9.5 -30t29.5 -12q14 -2 32 -2q10 0 10 -3q0 -4 -10 -4q-24 0 -53 1.5t-33 1.5q-6 0 -32.5 -1.5t-37.5 -1.5q-9 0 -9 3q0 4 9 4q16 0 26 2q22 4 25 41q2 35 2 118zM289 819q5 0 12 -5q14 -9 115 -83q7 -6 7 -7q0 -2 -2 -4l-15 -11q-5 -3 -7 -1
q-76 61 -107 79q-5 3 -7 3q-5 0 -12 -5q-27 -15 -104 -67q-15 -10 -20 -10q-8 0 5 9q20 14 67.5 51.5t55.5 43.5q8 7 12 7z" />
    <glyph glyph-name="Ydieresis" unicode="&#x178;" horiz-adv-x="595" 
d="M288 196v81q0 45 -14 69q-120 212 -183 308q-5 7 -15 23.5t-15.5 24t-14 18t-17 15.5t-17.5 7q-10 2 -32 4q-10 1 -10 4t12 3q9 0 29.5 -1.5t33.5 -1.5q9 0 34 1.5t30 1.5q8 0 8 -3t-9 -4q-16 -1 -20.5 -5t-4.5 -12q0 -6 25 -50q8 -12 98 -164.5t101 -168.5
q72 116 183 313q32 57 32 69q0 9 -6 12.5t-29 5.5q-8 1 -8 4t9 3q10 0 32 -1.5t28 -1.5q20 0 43 1.5t31 1.5q10 0 10 -3t-10 -4q-20 -2 -28 -3q-18 -3 -30 -16.5t-38 -52.5q-48 -70 -187 -315q-16 -28 -19 -38.5t-3 -44.5v-80q0 -99 2 -141q1 -27 9 -36.5t31 -12.5
q14 -2 35 -2q9 0 9 -4q0 -3 -10 -3q-27 0 -54 1.5t-32 1.5q-8 0 -36 -1.5t-40 -1.5q-9 0 -9 4q0 3 9 3q15 0 29 3t18.5 12.5t6.5 33.5q3 42 3 143zM404 840q-27 0 -27 27q0 10 6.5 18.5t21.5 8.5q27 0 27 -25q0 -29 -28 -29zM213 840q-14 0 -20.5 8.5t-6.5 18.5q0 28 28 28
q27 0 27 -25q0 -30 -28 -30z" />
    <glyph glyph-name="Zacute" unicode="&#x179;" horiz-adv-x="666" 
d="M101 18h328q92 0 118.5 4t40.5 18q19 19 29 75q1 9 5 9q2 0 2 -9q0 -33 -20 -104q-3 -10 -6 -13t-11 -3q-86 0 -261.5 2.5t-247.5 2.5q-19 0 -19 5q0 6 14 25q286 402 484 701h-268q-100 0 -131.5 -2t-42.5 -10q-18 -13 -29 -64q-3 -16 -7 -16t-2 9q0 1 3 20.5t6.5 42
t5.5 36.5q1 10 5 10q2 0 4 -0.5t6.5 -1.5t8.5 -2q17 -3 191 -3h266q25 0 25 -3t-3 -8q-81 -121 -250.5 -366.5t-243.5 -354.5zM460 927q6 -5 15 -17q5 -8 -4 -8q-5 0 -25 -9q-77 -33 -132 -63q-10 -6 -14 -6q-3 0 -3 2q0 3 8 9q47 36 115 82q22 15 29 15q6 0 11 -5z" />
    <glyph glyph-name="zacute" unicode="&#x17a;" horiz-adv-x="597" 
d="M94 18h287q79 0 103.5 4t36.5 17q16 14 26 65q1 8 4 8t3 -8q0 -26 -19 -93q-3 -10 -6 -12.5t-11 -2.5q-75 0 -229.5 2t-218.5 2q-17 0 -17 4q0 7 12 23q283 385 424 592h-233q-85 0 -111.5 -2t-36.5 -9q-22 -15 -32 -68q-1 -10 -5 -10q-3 0 -3 7q0 3 2.5 20.5t7 43
t5.5 33.5q1 9 5 9q2 0 18 -3q22 -3 167 -3h236q22 0 22 -2q0 -4 -3 -8q-69 -99 -216.5 -303.5t-217.5 -305.5zM420 831q10 -8 16 -15q2 -2 1.5 -4.5t-2.5 -2.5q-10 0 -29 -13q-68 -39 -125 -80q-11 -6 -11 -3q0 4 6 9q19 18 105 95q20 17 27 18q7 0 12 -4z" />
    <glyph glyph-name="Zdotaccent" unicode="&#x17b;" horiz-adv-x="666" 
d="M101 18h328q92 0 118.5 4t40.5 18q19 19 29 75q1 9 5 9q2 0 2 -9q0 -33 -20 -104q-3 -10 -6 -13t-11 -3q-86 0 -261.5 2.5t-247.5 2.5q-19 0 -19 5q0 6 14 25q286 402 484 701h-268q-100 0 -131.5 -2t-42.5 -10q-18 -13 -29 -64q-3 -16 -7 -16t-2 9q0 1 3 20.5t6.5 42
t5.5 36.5q1 10 5 10q2 0 4 -0.5t6.5 -1.5t8.5 -2q17 -3 191 -3h266q25 0 25 -3t-3 -8q-81 -121 -250.5 -366.5t-243.5 -354.5zM333 841q-14 0 -21 8.5t-7 19.5q0 10 7 19t21 9q12 0 20.5 -7.5t8.5 -19.5t-8 -20.5t-21 -8.5z" />
    <glyph glyph-name="zdotaccent" unicode="&#x17c;" horiz-adv-x="597" 
d="M94 18h287q79 0 103.5 4t36.5 17q16 14 26 65q1 8 4 8t3 -8q0 -26 -19 -93q-3 -10 -6 -12.5t-11 -2.5q-75 0 -229.5 2t-218.5 2q-17 0 -17 4q0 7 12 23q283 385 424 592h-233q-85 0 -111.5 -2t-36.5 -9q-22 -15 -32 -68q-1 -10 -5 -10q-3 0 -3 7q0 3 2.5 20.5t7 43
t5.5 33.5q1 9 5 9q2 0 18 -3q22 -3 167 -3h236q22 0 22 -2q0 -4 -3 -8q-69 -99 -216.5 -303.5t-217.5 -305.5zM297 740q-14 0 -21 8.5t-7 19.5q0 10 7 19t21 9q12 0 20.5 -7.5t8.5 -19.5t-8 -20.5t-21 -8.5z" />
    <glyph glyph-name="Zcaron" unicode="&#x17d;" horiz-adv-x="666" 
d="M101 18h328q92 0 118.5 4t40.5 18q19 19 29 75q1 9 5 9q2 0 2 -9q0 -33 -20 -104q-3 -10 -6 -13t-11 -3q-86 0 -261.5 2.5t-247.5 2.5q-19 0 -19 5q0 6 14 25q286 402 484 701h-268q-100 0 -131.5 -2t-42.5 -10q-18 -13 -29 -64q-3 -16 -7 -16t-2 9q0 1 3 20.5t6.5 42
t5.5 36.5q1 10 5 10q2 0 4 -0.5t6.5 -1.5t8.5 -2q17 -3 191 -3h266q25 0 25 -3t-3 -8q-81 -121 -250.5 -366.5t-243.5 -354.5zM340 818q-4 0 -12 5q-14 9 -115 83q-7 6 -7 7q0 2 2 4l15 11q5 3 7 1q76 -61 107 -79q5 -3 7 -3q4 0 12 5q30 18 106 68q14 9 18 9q5 0 -4 -8
q-1 -2 -3 -3q-20 -14 -66.5 -50.5t-54.5 -42.5q-8 -7 -12 -7z" />
    <glyph glyph-name="zcaron" unicode="&#x17e;" horiz-adv-x="597" 
d="M94 18h287q79 0 103.5 4t36.5 17q16 14 26 65q1 8 4 8t3 -8q0 -26 -19 -93q-3 -10 -6 -12.5t-11 -2.5q-75 0 -229.5 2t-218.5 2q-17 0 -17 4q0 7 12 23q283 385 424 592h-233q-85 0 -111.5 -2t-36.5 -9q-22 -15 -32 -68q-1 -10 -5 -10q-3 0 -3 7q0 3 2.5 20.5t7 43
t5.5 33.5q1 9 5 9q2 0 18 -3q22 -3 167 -3h236q22 0 22 -2q0 -4 -3 -8q-69 -99 -216.5 -303.5t-217.5 -305.5zM292 710q-4 0 -12 5q-14 9 -115 83q-7 6 -7 7q0 2 2 4l15 11q5 3 7 1q76 -61 107 -79q4 -3 7 -3q4 0 12 5q30 18 106 68q14 9 18 9q5 0 0 -6l-4 -3
q-20 -14 -68 -51.5t-56 -43.5q-8 -7 -12 -7z" />
    <glyph glyph-name="uni00200309.cap" unicode="&#x17f;" 
d="M264 958q30 0 50.5 -16t20.5 -43q0 -26 -23 -49t-60 -38q-5 -2 -8.5 -2.5t-5.5 -0.5t-2 2t9 8q55 35 55 75q0 15 -12 27.5t-36 12.5q-36 0 -65 -21q-4 -3 -6.5 -4t-4 -0.5t-1.5 1.5q0 4 5 9q39 39 84 39z" />
    <glyph glyph-name="uni00A80300.cap" unicode="&#x180;" 
d="M365 811q-12 0 -18.5 7.5t-6.5 17.5q0 9 6 17t20 8q11 0 18 -6.5t7 -16.5q0 -27 -26 -27zM134 811q-12 0 -18.5 8t-6.5 17q0 26 26 26q11 0 18 -6.5t7 -16.5q0 -12 -7 -20t-19 -8zM213 974q6 -6 30 -46.5t26 -46.5q4 -8 -1 -8q-2 0 -13 12q-36 37 -71 65q-20 16 -23 17
q-4 2 3 8q11 8 23 13q5 2 11 2q3 0 15 -16z" />
    <glyph glyph-name="uni00A80301.cap" unicode="&#x181;" 
d="M291 973q12 16 15 16q6 0 11 -2q12 -5 23 -13q7 -6 3 -8q-3 -1 -23 -17q-21 -16 -70 -68q-8 -9 -14 -9q-5 0 -1 8q2 6 26 46.5t30 46.5zM345 811q-12 0 -18.5 7.5t-6.5 17.5q0 9 6 17t20 8q11 0 18 -6.5t7 -16.5q0 -27 -26 -27zM154 811q-12 0 -18.5 8t-6.5 17
q0 26 26 26q11 0 18 -6.5t7 -16.5q0 -12 -7 -20t-19 -8z" />
    <glyph glyph-name="uni00A8030C.cap" unicode="&#x182;" 
d="M246 878q-6 0 -15 6q-79 50 -99 67q-7 6 -7 7q0 2 3 5l15 10q3 3 6 1q16 -13 48.5 -34.5t43.5 -27.5q3 -2 8 -2q1 0 11 5q20 10 90 51q13 9 19 9q9 0 -4 -12q-3 -3 -108 -79q-7 -6 -11 -6zM345 811q-12 0 -18.5 7.5t-6.5 17.5q0 9 6 17t20 8q11 0 18 -6.5t7 -16.5
q0 -27 -26 -27zM154 811q-12 0 -18.5 8t-6.5 17q0 26 26 26q11 0 18 -6.5t7 -16.5q0 -12 -7 -20t-19 -8z" />
    <glyph glyph-name="uni00A80304.cap" unicode="&#x183;" 
d="M341 811q-12 0 -18.5 7.5t-6.5 17.5q0 9 6 17t20 8q11 0 18 -6.5t7 -16.5q0 -27 -26 -27zM158 811q-12 0 -18.5 8t-6.5 17q0 26 26 26q11 0 18 -6.5t7 -16.5q0 -12 -7 -20t-19 -8zM140 940h227q4 0 3 -5l-4 -14q-1 -4 -6 -4h-225q-6 0 -5 5l3 13q1 5 7 5z" />
    <glyph glyph-name="uni031B" unicode="&#x184;" horiz-adv-x="400" 
d="M164 668l-12 11q54 25 54 68q0 22 -20 42q-3 3 0 10q4 9 13.5 17.5t15.5 8.5q5 0 11 -8q10 -15 10 -38q0 -72 -72 -111z" />
    <glyph glyph-name="uni032E" unicode="&#x185;" horiz-adv-x="0" 
d="M-149 -114q0 4 4 8q13 13 18 13q4 0 5 -4q13 -27 45.5 -42.5t75.5 -15.5q87 0 136 55q7 7 10 7q4 0 -5 -13q-61 -72 -160 -72q-59 0 -101 28q-28 22 -28 36z" />
    <glyph glyph-name="uni0331" unicode="&#x186;" horiz-adv-x="0" 
d="M-124 -113h254q4 0 3 -5l-4 -16q-1 -4 -6 -4h-252q-6 0 -5 5l3 15q1 5 7 5z" />
    <glyph glyph-name="Q.alt" unicode="&#x187;" horiz-adv-x="889" 
d="M601 16q-86 -33 -162 -33q-74 0 -137 23.5t-106 62t-73.5 88.5t-44.5 102.5t-14 105.5q0 79 25.5 151t73 128t122 89.5t165.5 33.5q163 0 269 -104t106 -272q0 -113 -51.5 -206.5t-145.5 -153.5l140 -96q275 -189 456.5 -261.5t332.5 -72.5q53 0 88 2.5t92.5 12
t113.5 35.5t109 67q12 9 16 9q2 0 2 -2q0 -3 -12 -13q-169 -134 -418 -134q-61 0 -106.5 4t-119 23t-149 53t-185 98t-238.5 155zM459 6q41 0 84 11t89 38.5t82 68t59 105.5t23 144t-21.5 144t-57 106.5t-82 69.5t-94.5 40t-97 12q-165 0 -257.5 -99t-92.5 -258
q0 -96 31 -171.5t83.5 -120t116 -67.5t134.5 -23z" />
    <glyph glyph-name="ampersand.alt1" unicode="&#x188;" horiz-adv-x="783" 
d="M806 4q14 0 14 -3q0 -4 -19 -4h-85q-51 0 -101 35q-29 19 -75 58q-107 -107 -248 -107q-103 0 -164 55.5t-61 138.5q0 59 30.5 102.5t104.5 96.5l21 14t22 15q-64 89 -64 178q0 72 44 124q50 60 124 60q50 0 87 -34.5t37 -99.5q0 -53 -39 -100t-143 -115q-8 -6 -13 -8
q27 -34 48 -58q127 -146 226 -230q17 18 36 46q29 42 51 105t22 103q0 41 -18 54q-17 13 -54 17q-13 1 -13 4t13 3q54 0 94 -10q12 -3 12 -21q0 -64 -29.5 -139t-64.5 -123q-19 -25 -38 -47q39 -32 74 -57q75 -53 169 -53zM208 588q0 -80 62 -166q1 1 3.5 2.5t4.5 3t4 2.5
q97 65 130 110.5t33 91.5q0 48 -31 81t-77 33q-59 0 -94 -39t-35 -119zM297 8q142 0 233 91q-99 86 -232 240q-19 21 -44 54q-19 -12 -38 -26q-68 -48 -93.5 -90t-25.5 -96q0 -71 58 -122t142 -51z" />
    <glyph glyph-name="ampersand.alt2" unicode="&#x189;" horiz-adv-x="905" 
d="M876 452q3 0 3 -10q0 -16 -5.5 -39.5t-12.5 -33.5l-3 -4.5t-3 -3t-3.5 -2.5t-4.5 -2t-4 -1.5t-5.5 -1t-6 -0.5t-7 -0.5t-8.5 -0.5q-25 -2 -91 -2q-3 -34 -18 -78q-94 -290 -376 -290q-117 0 -191 64.5t-74 161.5q0 151 195 225q5 2 1 4q-9 4 -17.5 8.5t-25 17t-28.5 27.5
t-21.5 40t-9.5 53q0 83 63.5 133t153.5 50q74 0 112 -19q3 -1 5 -3t3 -2.5t1 -3v-3t-1 -4t-1 -4.5q-7 -32 -10 -75q-1 -12 -5 -12q-3 0 -3 10q1 45 -11 64q-23 33 -114 33q-74 0 -120 -46t-44 -111q1 -57 35 -92.5t92 -47.5q18 -4 79 -4q20 0 20 -6q0 -7 -19 -7
q-61 0 -99 -7q-17 -3 -37 -9t-50.5 -22t-54 -38t-41 -58.5t-17.5 -81.5q0 -86 66.5 -149.5t194.5 -63.5q67 0 122.5 21.5t92.5 56t64 81t41.5 92.5t20.5 95q-19 -1 -53 -1q-88 -1 -128 -25.5t-50 -73.5q-3 -15 -6 -15q-4 0 -3 15q12 113 162 123q22 1 96 3t93 4
q21 2 30.5 5.5t18 16.5t13.5 40q2 9 4 9z" />
    <glyph glyph-name="uni00470303" unicode="&#x18a;" horiz-adv-x="835" 
d="M714 224v-147q0 -30 -1 -37t-6 -10q-89 -47 -234 -47q-76 0 -156.5 27t-137.5 82q-115 108 -115 286q0 196 144 305q111 84 290 84q78 0 154 -16q61 -13 75 -14q5 0 5 -6q0 -3 -2 -14t-3.5 -35.5t-1.5 -61.5q0 -14 -4 -14t-4 14q-1 51 -13 72q-14 25 -78 40.5t-167 15.5
q-59 0 -124.5 -18.5t-116.5 -58.5q-54 -42 -89 -114.5t-35 -161.5q0 -187 129 -300q44 -38 107 -60.5t101 -27t71 -4.5q117 0 163 27q20 12 20 36v175q0 82 -6 100.5t-32 21.5q-16 2 -38 2q-12 0 -12 4t12 4q23 0 56.5 -1t35.5 -1q1 0 28 1t40 1q12 0 12 -4t-12 -4
q-11 0 -22 -1q-17 -1 -23 -11t-8 -38q-2 -34 -2 -91zM500 843q-20 0 -69.5 20.5t-64.5 20.5q-31 0 -58 -28q-7 -7 -9 -7q-1 0 -1.5 0.5t0 3t2.5 5.5q11 18 33 35t41 17q7 0 12 -0.5t13.5 -3.5t13.5 -4.5t20.5 -8t25.5 -10.5q31 -12 51 -12q34 0 64 31q5 5 8 5t-2 -9
q-11 -18 -34 -36.5t-46 -18.5z" />
    <glyph glyph-name="one.inferior" unicode="&#x18b;" horiz-adv-x="243" 
d="M119 79v197q0 40 -7 40q-8 0 -57 -21q-2 -2 -7.5 -3.5t-6.5 1.5q0 3 6 6q29 14 76 41q17 10 22 10q2 0 2 -13q0 -1 -0.5 -10t-0.5 -24t-0.5 -33.5t-1 -41t-0.5 -42.5v-107q0 -89 2 -139q1 -29 25 -32q18 -2 28 -2q8 0 8 -4q0 -3 -10 -3q-13 0 -38 1t-28 1q-2 0 -26.5 -1
t-36.5 -1q-10 0 -10 4q0 3 9 3q14 0 27 2q12 2 17 8.5t6 24.5q2 27 2 138z" />
    <glyph glyph-name="uni02D80301" unicode="&#x18c;" 
d="M112 772q0 3 6 6q19 9 22 9t6 -4q14 -21 42.5 -34.5t64.5 -13.5q69 0 121 49q8 7 10 7q4 -2 -7 -14q-60 -65 -145 -65q-50 0 -89 26q-14 9 -22.5 19.5t-8.5 14.5zM285 874q12 16 15 16q6 0 11 -2q13 -6 22 -12q7 -6 3 -8q-2 -1 -4.5 -3t-7.5 -5.5t-10 -7.5
q-34 -24 -69 -59q-9 -9 -14 -9q-1 0 -1 2.5t2 5.5q2 6 24.5 40.5t28.5 41.5z" />
    <glyph glyph-name="uni00200323" unicode="&#x18d;" 
d="M249 -172q-13 0 -20.5 8.5t-7.5 19.5q0 10 7.5 19t20.5 9q12 0 20.5 -7.5t8.5 -19.5t-8 -20.5t-21 -8.5z" />
    <glyph glyph-name="uni0303" unicode="&#x18e;" horiz-adv-x="0" 
d="M60 740q-20 0 -69.5 20.5t-64.5 20.5q-30 0 -58 -28q-8 -8 -10 -8q-4 0 2 10q11 18 33 35t41 17q7 0 12 -0.5t13.5 -3.5t13.5 -4.5t20.5 -8t25.5 -10.5q31 -12 51 -12q34 0 64 31q6 6 8 6q4 0 -2 -10q-11 -18 -34 -36.5t-46 -18.5z" />
    <glyph glyph-name="uni018F" unicode="&#x18f;" horiz-adv-x="821" 
d="M312 328h400q6 0 7 5q2 16 2 46q0 167 -94 267t-250 100q-147 0 -255 -83q-15 -11 -17 -4q0 3 13 14q119 94 283 94q71 0 130 -22t99 -59t68 -86.5t40.5 -103t12.5 -110.5q0 -91 -31.5 -172.5t-89.5 -136.5q-97 -89 -240 -89q-80 0 -143.5 28.5t-100.5 74t-56.5 97.5
t-19.5 104q0 14 1 22q1 9 8 11q20 3 233 3zM712 309h-437q-150 0 -164 -2q-5 -1 -6.5 -5.5t-1.5 -22.5q0 -47 19.5 -94t56 -87t95 -64.5t129.5 -24.5q133 0 214.5 81.5t97.5 213.5q0 5 -3 5z" />
    <glyph glyph-name="uni00670303" unicode="&#x190;" horiz-adv-x="743" 
d="M631 188v-123q0 -35 -6 -40q-76 -39 -203 -39q-68 0 -138.5 22t-121.5 70q-101 90 -101 243q0 93 37.5 158t90.5 103q95 70 249 70q57 0 137 -15q62 -12 66 -12q5 0 5 -5q0 -2 -1.5 -12t-3 -32t-1.5 -54q0 -12 -4 -12t-4 12q-1 42 -15 63q-32 48 -211 48q-126 0 -208 -64
q-47 -35 -77 -95.5t-30 -136.5q0 -159 110 -252q92 -79 243 -79q96 0 138 21q19 11 19 29v150q0 65 -5.5 81.5t-28.5 20.5q-12 2 -33 2q-10 0 -10 4q0 3 10 3q21 0 52 -1t32 -1t26.5 1t37.5 1q9 0 9 -3q0 -4 -9 -4q-11 0 -21 -1q-15 -1 -20.5 -10t-7.5 -32q-2 -30 -2 -79z
M441 740q-20 0 -69.5 20.5t-64.5 20.5q-30 0 -58 -28q-8 -8 -10 -8q-4 0 2 10q11 18 33 35t41 17q7 0 12 -0.5t13.5 -3.5t13.5 -4.5t20.5 -8t25.5 -10.5q31 -12 51 -12q34 0 64 31q6 6 8 6q4 0 -2 -10q-11 -18 -34 -36.5t-46 -18.5z" />
    <glyph glyph-name="phi.alt2" unicode="&#x191;" horiz-adv-x="787" 
d="M413 595v-543q0 -3 3 -3q122 2 202 73.5t80 208.5q0 122 -79 192.5t-203 74.5q-3 0 -3 -3zM385 52v543q0 3 -7 3q-78 -3 -136 -26t-90 -59.5t-47 -77.5t-15 -87q0 -131 81.5 -212.5t211.5 -86.5q2 0 2 3zM448 -99q-38 0 -57 3q-9 1 -9 16q0 3 1.5 55t1.5 54q0 3 -3 3
q-83 3 -147 30t-101 70t-55 93.5t-18 107.5q0 113 80.5 194t239.5 87q4 0 4 3v32q-1 41 -7.5 53.5t-28.5 13.5q-7 0 -7 3t10 3q26 0 48 -2q12 -2 13 -7q1 -3 1 -27q0 -5 -0.5 -32.5t-0.5 -36.5q0 -3 3 -3q148 -6 229.5 -79t81.5 -195q0 -139 -82 -219.5t-228 -87.5
q-2 0 -2 -2q0 -7 0.5 -29.5t0.5 -27.5q2 -39 7.5 -51.5t25.5 -14.5q8 -1 8 -4t-9 -3z" />
    <glyph glyph-name="florin" unicode="&#x192;" horiz-adv-x="528" 
d="M256 346h-73q-6 -40 -19.5 -161.5t-16.5 -146.5q-19 -143 -60 -206.5t-111 -63.5q-30 0 -30 7q0 3 25 3q66 2 98.5 61.5t51.5 222.5l32 285h-29q-73 0 -90 -1q-10 0 -11 2q-1 1 1 4l12 13q3 3 6 3q6 -1 47 -1h67q13 116 30 188t47 119q58 93 164 93q60 0 98 -21
q7 -4 7 -10q0 -3 -11 -86q-1 -12 -6 -12t-4 12q4 44 -6 63q-20 36 -87 36q-43 0 -74 -17t-52 -46t-36 -80t-23.5 -104.5t-16.5 -134.5h113q20 0 36 0.5t25 0.5h11q5 0 2 -5l-11 -16q-2 -3 -11 -3l-37 1q-38 1 -58 1z" />
    <glyph glyph-name="nu_nu" unicode="&#x193;" horiz-adv-x="1319" 
d="M670 592l1 -508q0 -68 -1 -81.5t-5 -13.5q-2 0 -44 49q-115 134 -236 277q-50 59 -135.5 162t-99.5 119l6 -501q1 -56 9 -71.5t38 -18.5q9 -1 17 -1q10 0 10 -3q0 -4 -11 -4q-15 0 -42.5 1.5t-31.5 1.5q-3 0 -27 -1.5t-40 -1.5q-10 0 -10 4q0 3 9 3t20 1q19 2 25.5 22.5
t6.5 92.5q1 82 1 162t-0.5 171.5t-0.5 144.5q0 54 6 54q3 0 27 -27q20 -23 99.5 -118t130.5 -156q81 -97 161.5 -189.5t95.5 -110.5l-3 547q0 54 6 54q3 0 27 -27q20 -23 99.5 -118t130.5 -156q82 -97 162.5 -189.5t94.5 -109.5l-4 493q-1 49 -8.5 67t-28.5 20q-10 1 -20 1
q-11 0 -11 4q0 3 11 3q14 0 38.5 -1.5t27.5 -1.5t29.5 1.5t37.5 1.5q10 0 10 -3q0 -4 -8 -4q-9 0 -19 -1q-22 -4 -28 -20t-6 -60l1 -468q0 -68 -1 -81.5t-5 -13.5q-2 0 -44 49q-115 134 -236 277q-49 57 -132 157t-100 120z" />
    <glyph glyph-name="comma.denominator" unicode="&#x194;" horiz-adv-x="120" 
d="M39 24q0 8 10 18t18 10q3 0 7.5 -4t8 -14t3.5 -23q0 -43 -41 -84q-12 -13 -18 -13q-2 0 -2 2t4 6q32 32 32 63q0 14 -20 34q-2 2 -2 5z" />
    <glyph glyph-name="dollar.denominator" unicode="&#x195;" horiz-adv-x="331" 
d="M154 -2l-5 -48q0 -1 -4 -5l-10 -2q-4 0 -3 6l6 49q-50 0 -88 22q-10 6 -10 16q0 28 4 64q0 7 4 7q3 0 3 -8q0 -35 14 -54q11 -15 33.5 -23.5t41.5 -8.5l22 207q-52 33 -72 59.5t-20 60.5q0 45 33.5 73t85.5 27l5 43q1 12 4 13l11 3q3 1 3 -2l-7 -57q21 -1 58 -9
q14 -3 19 -3q3 0 3 -3q0 -7 0.5 -33.5t0.5 -30.5q0 -9 -3 -9t-4 9q-3 29 -18 43q-21 19 -59 22l-22 -185q53 -33 76.5 -59.5t23.5 -68.5q0 -38 -23 -65.5t-50.5 -38t-52.5 -11.5zM165 248l22 179q-37 2 -66 -17t-29 -62q0 -26 15 -48.5t58 -51.5zM177 212l-21 -199
q44 0 71.5 24t27.5 66q0 33 -17 57.5t-61 51.5z" />
    </font>
</defs>
</svg>
