<?xml version="1.0" standalone="no"?>
<!DOCTYPE svg PUBLIC "-//W3C//DTD SVG 1.1//EN" "http://www.w3.org/Graphics/SVG/1.1/DTD/svg11.dtd" >
<svg xmlns="http://www.w3.org/2000/svg" xmlns:xlink="http://www.w3.org/1999/xlink" version="1.1">
<metadata>
Created by FontForge 20201107 at Fri Oct 25 12:48:04 2024
 By 
(c) 2011 Adobe Systems Incorporated. All rights reserved.
</metadata>
<defs>
<font id="TrajanPro3-Bold" horiz-adv-x="1404" >
  <font-face 
    font-family="Trajan Pro 3"
    font-weight="700"
    font-stretch="normal"
    units-per-em="2048"
    panose-1="2 2 8 2 5 5 3 2 3 1"
    ascent="1536"
    descent="-512"
    x-height="1335"
    cap-height="1542"
    bbox="-490.5 -889.013 3856 2265"
    underline-thickness="102"
    underline-position="-204"
    unicode-range="U+0020-FB02"
  />
<missing-glyph horiz-adv-x="1083" 
d="M0 0v1454h1083v-1454h-1083zM174 104h735l-368 529zM606 727l367 -530v1060zM109 1257v-1060l368 530zM174 1350l367 -529l368 529h-735z" />
    <glyph glyph-name=".notdef" horiz-adv-x="1083" 
d="M0 0v1454h1083v-1454h-1083zM174 104h735l-368 529zM606 727l367 -530v1060zM109 1257v-1060l368 530zM174 1350l367 -529l368 529h-735z" />
    <glyph glyph-name=".null" horiz-adv-x="0" 
 />
    <glyph glyph-name="nonmarkingreturn" horiz-adv-x="682" 
 />
    <glyph glyph-name="space" unicode=" " horiz-adv-x="573" 
 />
    <glyph glyph-name="exclam" unicode="!" horiz-adv-x="839" 
d="M483 449q-27 0 -39 65q-4 25 -15.5 96.5t-25 153t-28.5 156.5q-28 156 -70 331q-5 23 -23 75t-20 60q-5 16 2 27q38 51 175.5 104.5t226.5 53.5q26 0 26 -25q0 -23 -41 -266q-24 -131 -65 -398.5t-58 -349.5q-10 -47 -20.5 -65t-24.5 -18zM483 -35q-86 0 -130 54.5
t-44 121.5q0 71 44 122.5t130 51.5q76 0 125 -47t49 -121q0 -77 -49 -129.5t-125 -52.5z" />
    <glyph glyph-name="quotedbl" unicode="&#x22;" horiz-adv-x="917" 
d="M248 1679q60 0 107.5 -10t47.5 -31q0 -10 -22.5 -71.5t-54 -183t-47.5 -265.5q-5 -61 -29 -61t-29 61q-11 116 -32.5 218t-41.5 156.5t-35.5 95t-15.5 50.5q0 21 47 31t105 10zM651 1679q58 0 106 -10t48 -31q0 -7 -10 -32.5t-25 -69t-32 -100t-32.5 -141.5t-23.5 -177
q-5 -61 -29 -61q-13 0 -19.5 12t-10.5 49q-10 95 -26.5 181t-33 142t-31.5 98.5t-24.5 67t-9.5 31.5q0 21 47 31t106 10z" />
    <glyph glyph-name="numbersign" unicode="#" horiz-adv-x="1388" 
d="M1264 934h-254l-41 -275h241v-223h-274l-66 -436h-155l63 436h-286l-64 -436h-160l64 436h-236v223h269l41 275h-252v227h284l58 383h157l-55 -383h287l57 383h158l-58 -383h222v-227zM811 659l41 275h-287l-41 -275h287z" />
    <glyph glyph-name="dollar" unicode="$" horiz-adv-x="1366" 
d="M535 -174l18 174q-36 0 -134 16t-149 39q-48 23 -62.5 42.5t-14.5 70.5q-1 63 10.5 145t21.5 119q12 45 31 45q16 0 16 -47q-5 -119 60 -199q50 -58 119.5 -85t109.5 -27l57 518q-208 132 -291 244t-83 266q1 96 41 174t108 127.5t152.5 76.5t177.5 29l18 164q3 12 19 15
l88 18q8 2 11.5 -1.5t2.5 -10.5l-22 -185q102 -6 184 -26q25 -5 96 -25q27 -12 27 -39q0 -41 -12.5 -134.5t-20.5 -129.5q-8 -37 -24 -37q-19 0 -19 43q0 60 -21 102.5t-67 80.5q-29 25 -81 42t-71 17l-55 -494q207 -115 303.5 -231t96.5 -264q0 -98 -33.5 -178t-86 -131
t-120.5 -86t-134 -49.5t-130 -14.5l-19 -166q-3 -12 -20 -16l-84 -13q-17 -3 -14 21zM664 1030l45 418q-72 0 -135.5 -50t-63.5 -143q0 -27 4.5 -49.5t17.5 -44.5t21.5 -34.5t33.5 -34.5t34.5 -29.5t42.5 -32.5zM735 559l-47 -440q88 6 145.5 56.5t57.5 143.5q1 55 -20.5 99
t-50.5 71.5t-85 69.5z" />
    <glyph glyph-name="percent" unicode="%" horiz-adv-x="1978" 
d="M1479 0q-95 0 -172.5 35t-124.5 90.5t-72 120.5t-25 129q0 77 23.5 147t70.5 129t126.5 94t181.5 35q96 0 173 -34.5t122 -90t68.5 -119.5t23.5 -130q0 -75 -23 -145t-68.5 -129.5t-124 -95.5t-179.5 -36zM1489 92q83 0 122.5 80t39.5 207q0 78 -18 146t-60 115.5
t-100 47.5q-84 0 -124 -80t-40 -207q0 -120 49.5 -214.5t130.5 -94.5zM733 -8l-131 -17q-19 -3 -23.5 0.5t1.5 22.5q89 202 244 561t264.5 614t123.5 289q-344 -21 -432 -30v-5q47 -40 80 -112.5t33 -155.5q0 -75 -25 -145.5t-72 -129t-126 -94.5t-178 -36q-77 0 -142.5 23
t-110 61.5t-75.5 87.5t-45.5 101t-14.5 103q0 76 25.5 147t74.5 129.5t130.5 94t183.5 35.5q173 0 369 12t326 23.5t143 11.5q20 0 20 -12q0 -5 -22 -62l-600 -1493q-6 -14 -10 -18.5t-11 -5.5zM508 846q84 0 123 78.5t39 208.5q0 137 -46 224t-128 87q-56 0 -94.5 -41
t-55 -104t-16.5 -142q0 -77 18.5 -146t60.5 -117t99 -48z" />
    <glyph glyph-name="ampersand" unicode="&#x26;" horiz-adv-x="1886" 
d="M702 -35q-134 0 -239.5 30.5t-169.5 78t-106 111t-58 124.5t-16 123q0 284 346 449q-97 136 -97 301q0 75 33.5 143.5t97.5 124t168.5 88.5t235.5 33q174 0 285 -47q24 -10 32.5 -23.5t8.5 -36.5q0 -38 -23 -280q-5 -41 -24 -41q-21 0 -21 41q-3 100 -70 178
q-34 39 -89.5 66.5t-121.5 27.5q-32 0 -61.5 -8.5t-57.5 -28t-44.5 -58.5t-16.5 -93q0 -72 40 -152t82 -132t147 -171q27 -31 41 -47q15 -18 52.5 -56t82 -83t84.5 -84.5t73 -72t35 -34.5q50 79 77.5 152.5t27.5 159.5q0 70 -54 98q-29 17 -75 22q-37 9 -37 25q0 18 45 18
q163 0 295 -20q35 -7 50.5 -20t16.5 -48q2 -100 -62.5 -234t-170.5 -247q159 -142 272 -217q62 -41 103.5 -59.5t93.5 -22.5q41 -5 41 -27t-58 -22q-14 0 -173.5 2t-172.5 2q-137 0 -218 24.5t-171 92.5q-192 -150 -459 -150zM840 150q131 0 219 55q-266 249 -524 567
q-58 -67 -58 -213q0 -185 106 -297t257 -112z" />
    <glyph glyph-name="quotesingle" unicode="'" horiz-adv-x="514" 
d="M256 1679q60 0 108 -10t48 -31q0 -10 -23 -71.5t-54.5 -183t-47.5 -265.5q-5 -61 -29 -61t-29 61q-11 116 -32.5 218t-41.5 156.5t-35.5 95t-15.5 50.5q0 21 47 31t105 10z" />
    <glyph glyph-name="parenleft" unicode="(" horiz-adv-x="860" 
d="M403 727q0 -297 73.5 -523.5t240.5 -393.5q20 -20 20 -35q0 -6 -5 -10.5t-11 -4.5q-13 0 -35 13q-45 27 -87 56.5t-99.5 79t-105.5 103t-98 129t-84.5 156.5t-56.5 185t-22 216q0 109 23 212.5t58.5 185.5t87 159.5t100 133t107 108t98.5 83t83 58.5q17 13 31 13
q10 0 10 -11q0 -12 -16 -28q-155 -158 -233.5 -385.5t-78.5 -499.5z" />
    <glyph glyph-name="parenright" unicode=")" horiz-adv-x="860" 
d="M457 686q0 298 -73 526.5t-241 391.5q-20 27 -20 32q0 15 16 15q13 0 35 -13q45 -27 86.5 -56t99.5 -78.5t106 -103t98 -128.5t84.5 -156t56.5 -185t22 -216q0 -109 -23 -213t-58.5 -185.5t-87 -159t-100 -133t-107 -108.5t-98.5 -83.5t-83 -59.5q-17 -13 -29 -13t-12 13
q0 8 16 28q155 158 233.5 385.5t78.5 499.5z" />
    <glyph glyph-name="asterisk" unicode="*" horiz-adv-x="823" 
d="M494 1626q0 -48 -20 -125t-50 -147q-6 -13 -1.5 -18t13.5 1q56 20 110.5 60.5t80.5 68.5q4 3 9.5 9t8.5 8t8 2q13 0 40.5 -64t27.5 -100q0 -11 -6 -16.5t-23 -8.5q-54 -9 -243 4q-11 0 -14 -5.5t3 -14.5q21 -32 87.5 -76t95.5 -51q28 -10 28 -25q0 -30 -53 -78.5
t-80 -48.5q-20 0 -37 35q-27 51 -76 213q-14 21 -22 4q-8 -16 -29 -71t-28 -80q-13 -51 -15 -68q-1 -8 -7 -10t-23 -2q-60 0 -111 13t-51 28q0 17 18 37q58 72 215 178q5 3 4.5 12.5t-10.5 9.5q-112 15 -188 3q-9 -1 -19.5 -4t-11.5 -3q-14 0 -20.5 64.5t-2.5 105.5
q3 23 27 23q12 0 26.5 -4t30.5 -12t31 -17t33 -21.5t31 -22t29.5 -23.5t24.5 -20.5t21 -18.5l13 -11q16 -13 16 13t-26 95t-42 103q-10 20 -10 29q0 19 65 46.5t101 27.5q21 0 21 -27z" />
    <glyph glyph-name="plus" unicode="+" horiz-adv-x="1419" 
d="M1229 639h-416v-438h-203v438h-422v201h420v426h203v-426h418v-201z" />
    <glyph glyph-name="comma" unicode="," horiz-adv-x="606" 
d="M131 170q0 43 76 111.5t147 68.5q49 0 85 -66.5t36 -144.5q0 -218 -262 -450q-56 -49 -80 -49q-14 0 -14 14q0 12 35 47q71 81 93.5 141t22.5 117q0 87 -108 174q-31 24 -31 37z" />
    <glyph glyph-name="hyphen" unicode="-" horiz-adv-x="829" 
d="M156 750h516q36 0 55.5 -3t25 -7.5t5.5 -12.5q0 -14 -25 -26.5t-92 -30.5q-317 -80 -440 -129q-23 -10 -48.5 -23t-40 -19.5t-24.5 -6.5q-13 0 -15 11.5t3 28.5l30 179q4 27 12.5 33t37.5 6z" />
    <glyph glyph-name="period" unicode="." horiz-adv-x="606" 
d="M301 -14q-83 0 -129.5 55t-46.5 123q0 72 46.5 127t131.5 55q77 0 127.5 -49.5t50.5 -126.5q0 -78 -52.5 -131t-127.5 -53z" />
    <glyph glyph-name="slash" unicode="/" horiz-adv-x="1114" 
d="M131 55l727 1489q16 31 29 31q14 0 48 -18t50 -33q12 -9 -2 -35l-737 -1507q-8 -15 -12 -19t-11 -4t-45.5 20.5t-50.5 32.5t4 43z" />
    <glyph glyph-name="zero" unicode="0" horiz-adv-x="1476" 
d="M1362 817q0 -407 -171 -629.5t-466 -222.5q-100 0 -185.5 28.5t-147 76t-110.5 112.5t-79.5 134.5t-51 146t-28.5 143.5t-8 129q0 246 70.5 432t216.5 295t352 109q119 0 219.5 -41t171 -112.5t120.5 -167.5t73.5 -205.5t23.5 -227.5zM997 743q0 114 -9 214t-30 191.5
t-53 157t-81 104t-111 38.5q-37 0 -68.5 -16.5t-62.5 -60.5t-52.5 -114t-35 -184t-13.5 -262q0 -130 16 -252.5t48 -231.5t90.5 -175t134.5 -66q112 0 169.5 175.5t57.5 481.5z" />
    <glyph glyph-name="one" unicode="1" horiz-adv-x="946" 
d="M668 1018v-402q0 -390 8 -456q7 -56 25 -83t65 -34q18 -2 47 -3.5t35 -2.5q33 -3 33 -23t-39 -20q-68 0 -150.5 1.5t-138 3t-59.5 1.5t-71 -1.5t-155.5 -3t-146.5 -1.5q-39 0 -39 20q0 18 33 23q54 3 100 8q54 7 72.5 37t21.5 94q6 135 6 440v560q0 48 -6.5 70t-25.5 22
q-29 0 -129 -31q-43 -16 -56 -16q-18 0 -18 14q0 16 22 29q121 68 504 305q36 24 53 24q19 0 19 -34q0 -3 -1 -31.5t-2.5 -77t-3 -110.5t-2.5 -148t-1 -174z" />
    <glyph glyph-name="two" unicode="2" horiz-adv-x="1314" 
d="M928 0h-844q-35 0 -35 27q0 5 2.5 10t9.5 12l12 12t18.5 15.5t21.5 17.5q16 14 69 57t94.5 78t104.5 95t110.5 114t100 128.5t87 147t57 160t22.5 175.5q0 74 -10 134.5t-26.5 101t-40.5 71t-47.5 47.5t-52.5 27t-51 13t-47 3q-131 0 -207 -82q-62 -71 -69 -176
q-5 -58 -27 -58q-19 0 -22 52q-2 17 -7.5 119.5t-5.5 138.5q0 20 5 30t20 21q172 80 416 80q144 0 251.5 -34t173 -96t97 -143t31.5 -182q0 -61 -13 -121t-32 -110.5t-53.5 -104t-64.5 -93.5t-78 -88.5t-81.5 -79t-88.5 -73.5t-84.5 -64.5t-83.5 -60.5t-73 -53
q-8 -6 -5.5 -10t10.5 -4h112q205 0 361 16q101 10 145 48.5t66 115.5q8 37 26 37q19 0 19 -39q0 -30 -21 -177t-37 -194q-8 -21 -19.5 -32.5t-40 -18.5t-65.5 -8.5t-110 -1.5z" />
    <glyph glyph-name="three" unicode="3" horiz-adv-x="1339" 
d="M508 -35q-247 0 -344 55q-47 20 -51 72q-3 58 2 148t10 131q6 41 25 41t22 -37q3 -84 50 -150.5t119.5 -101.5t156.5 -35q150 0 245 84.5t95 253.5q0 91 -27 160.5t-74.5 112.5t-102 67.5t-120.5 36.5q-65 12 -65 41q0 18 38 28q67 14 116.5 35t92 56.5t64.5 91t22 129.5
q0 124 -67.5 192t-198.5 68q-135 0 -204.5 -65.5t-80.5 -153.5q-3 -45 -24 -45q-18 0 -21 43q-14 115 -14 219q0 22 7.5 31.5t29.5 19.5q66 29 180.5 53.5t247.5 24.5q118 0 210 -21t146.5 -54t90 -78.5t48.5 -88.5t13 -90q0 -60 -25 -113.5t-62 -89.5t-85 -65t-89 -45
t-79 -25q-8 -4 0 -8q57 -11 110.5 -29.5t109 -52t96.5 -75.5t67 -105t26 -137q0 -103 -49.5 -198.5t-138.5 -169t-224 -117.5t-294 -44z" />
    <glyph glyph-name="four" unicode="4" horiz-adv-x="1419" 
d="M745 371q-450 0 -606 8q-69 6 -69 33t45 84q79 108 388.5 486.5t430.5 502.5q63 68 81 78q13 8 25 8q17 0 23 -16.5t6 -67.5q0 -9 -0.5 -42t-1 -90.5t-0.5 -125.5v-656h115q121 3 153 21q27 11 27 -14q2 -19 -15.5 -82.5t-33.5 -91.5q-9 -18 -23 -24.5t-47 -6.5
q-49 -4 -176 -4q0 -56 6 -203q2 -25 4 -36t7 -29.5t13.5 -27.5t24 -18t37.5 -12q39 -8 74 -8q33 -4 33 -21q0 -22 -37 -22q-67 0 -192 3t-138 3q-32 0 -143 -3t-172 -3q-39 0 -39 20q0 19 33 23q32 0 65 4q26 2 44.5 11t28 18.5t15 28.5t7 31.5t3.5 37.5q4 57 4 203z
M745 573v492q-200 -250 -380 -490q39 -2 380 -2z" />
    <glyph glyph-name="five" unicode="5" horiz-adv-x="1280" 
d="M803 1262h-430l-25 -189q190 -21 333.5 -60.5t252 -104.5t165 -162.5t56.5 -225.5q0 -82 -26.5 -160t-85.5 -150.5t-145.5 -126t-216.5 -86t-288 -32.5q-150 0 -239 35q-29 16 -37 34.5t-8 59.5q0 135 8 275q6 43 24 43q10 0 16.5 -11.5t6.5 -27.5q3 -128 89.5 -204.5
t215.5 -76.5q62 0 118 18t105 54.5t78 101.5t29 150q0 63 -22.5 117.5t-56 93t-86 72t-97.5 53.5t-107 38t-98.5 26.5t-85.5 17.5q-25 3 -36.5 13.5t-10.5 33.5l67 612q2 25 9 34t26 9h596q81 0 121 6q8 1 21 3.5t16 2.5q7 0 10 -0.5t8 -3t6.5 -9.5t1.5 -19q0 -52 -9.5 -162
t-22.5 -185q-7 -36 -23 -36q-10 0 -14.5 7t-7.5 27q-5 53 -45 74t-156 21z" />
    <glyph glyph-name="six" unicode="6" horiz-adv-x="1439" 
d="M745 -35q-132 0 -245.5 40.5t-199.5 117t-135.5 197t-49.5 270.5q0 180 75.5 343t207.5 286.5t310 212.5t384 131q27 8 57 8q25 0 25 -17q0 -20 -64 -45q-105 -41 -194 -96.5t-168 -135.5t-133.5 -178t-86.5 -227t-32 -278q0 -233 71 -375.5t201 -142.5q42 0 76.5 16
t63.5 51t45 99t16 153q0 194 -79.5 297t-207.5 103q-54 0 -104 -13q-31 -6 -31 13q0 14 26 34q154 111 334 111q99 0 180.5 -36.5t134 -97t81 -136t28.5 -156.5q0 -123 -47.5 -227t-127.5 -174t-186.5 -109t-224.5 -39z" />
    <glyph glyph-name="seven" unicode="7" horiz-adv-x="1241" 
d="M516 1536h649q44 0 57 -4t13 -16q0 -17 -12 -35q-142 -222 -316.5 -660.5t-191.5 -634.5q-3 -38 0 -84q1 -25 -57 -57.5t-141.5 -56t-149.5 -23.5q-22 0 -30.5 6.5t-8.5 20.5q0 26 18 82q51 158 230.5 509t375.5 677h-514q-174 0 -229 -39q-24 -15 -43.5 -49t-26.5 -76
q-7 -37 -26 -37t-19 41q0 51 17.5 239.5t17.5 190.5q0 24 21 24q2 0 13 -2t35 -4.5t61 -5t104.5 -4.5t152.5 -2z" />
    <glyph glyph-name="eight" unicode="8" horiz-adv-x="1396" 
d="M913 899q87 -46 148.5 -88.5t115.5 -98t81.5 -123.5t27.5 -149q0 -97 -42 -183.5t-118.5 -151.5t-191.5 -102.5t-252 -37.5q-265 0 -419 112t-154 298q0 60 20.5 112t52 90t80.5 73t94 58t105 48q-139 73 -211 176.5t-72 226.5q0 60 18 117t60 111t104 94.5t157 65
t212 24.5q218 0 353 -92.5t135 -241.5q0 -52 -14 -96.5t-41 -78t-54.5 -58.5t-67.5 -46.5t-65 -33t-62 -25.5zM559 702q-62 -54 -101.5 -126.5t-39.5 -184.5q0 -134 87.5 -222.5t209.5 -88.5q48 0 90 13t76.5 39.5t54.5 73t20 107.5q0 35 -10.5 67.5t-26 59t-46.5 56
t-57.5 50.5t-75.5 51.5t-83.5 50t-97.5 54.5zM805 954q119 93 119 260q0 110 -68.5 177t-163.5 67q-100 0 -155.5 -55.5t-55.5 -136.5q0 -85 77.5 -159t246.5 -153z" />
    <glyph glyph-name="nine" unicode="9" horiz-adv-x="1402" 
d="M702 1571q120 0 219 -34.5t166 -93t113 -137t67 -165.5t21 -180q0 -165 -57.5 -315t-150.5 -261.5t-213 -201t-244 -143t-244 -77.5q-40 -8 -55 -8q-27 0 -27 14q0 13 39 31q261 130 418 387.5t157 546.5q0 253 -65 388.5t-189 135.5q-93 0 -146.5 -80.5t-53.5 -222.5
q0 -100 22.5 -177t60.5 -121t82.5 -65.5t92.5 -21.5q46 0 73 8q36 8 43 8q17 0 17 -12q0 -10 -10 -20q-46 -51 -124 -87t-177 -36q-198 0 -313 119t-115 307q0 100 41 192.5t115 164t187.5 114.5t249.5 43z" />
    <glyph glyph-name="colon" unicode=":" horiz-adv-x="688" 
d="M342 -35q-84 0 -130 53.5t-46 124.5q0 72 46.5 127.5t131.5 55.5q77 0 127.5 -49.5t50.5 -126.5q0 -83 -51.5 -134t-128.5 -51zM342 692q-83 0 -129.5 56t-46.5 124q0 71 47 127t131 56q77 0 127.5 -49.5t50.5 -128.5q0 -78 -52.5 -131.5t-127.5 -53.5z" />
    <glyph glyph-name="semicolon" unicode=";" horiz-adv-x="688" 
d="M342 692q-83 0 -129.5 56t-46.5 124q0 71 47 127t131 56q77 0 127.5 -49.5t50.5 -128.5q0 -78 -52.5 -131.5t-127.5 -53.5zM156 170q0 43 76.5 111.5t148.5 68.5q48 0 83.5 -65.5t35.5 -145.5q0 -222 -262 -450q-56 -49 -78 -49q-15 0 -15 14q0 8 33 47q71 81 94 141.5
t23 118.5q0 87 -109 172q-30 21 -30 37z" />
    <glyph glyph-name="less" unicode="&#x3c;" horiz-adv-x="1286" 
d="M1096 160l-908 467v182l908 463v-219l-695 -336l695 -340v-217z" />
    <glyph glyph-name="equal" unicode="=" horiz-adv-x="1419" 
d="M1229 348h-1041v203h1041v-203zM1229 809h-1041v201h1041v-201z" />
    <glyph glyph-name="greater" unicode="&#x3e;" horiz-adv-x="1286" 
d="M188 1274l908 -467v-182l-908 -463v219l697 336l-697 340v217z" />
    <glyph glyph-name="question" unicode="?" horiz-adv-x="1267" 
d="M664 1571q100 0 180 -15.5t132 -43t88.5 -60.5t55.5 -73t27 -75.5t8 -72.5q0 -70 -18 -127t-68.5 -118.5t-87 -97t-125.5 -113.5q-30 -26 -45 -40q-127 -112 -127 -174q0 -31 23 -82q12 -24 12 -37q0 -4 -5.5 -9t-13.5 -5q-38 0 -135 66q-119 85 -119 172q0 41 37 100
q16 25 35 48.5t32.5 38t36 39t34.5 38.5q103 120 139.5 184t36.5 137q0 87 -53.5 139t-155.5 52q-68 0 -126.5 -27t-96.5 -72q-60 -69 -74 -174q-6 -32 -23 -32t-20 34q-10 85 -10 271q0 21 24 35q60 36 163 65t239 29zM635 -35q-84 0 -127 53.5t-43 120.5q0 66 44.5 121
t129.5 55q75 0 123.5 -45.5t48.5 -119.5q0 -78 -49.5 -131.5t-126.5 -53.5z" />
    <glyph glyph-name="at" unicode="@" horiz-adv-x="1937" 
d="M1507 395q-75 -55 -154.5 -83.5t-146.5 -28.5q-97 0 -139.5 83.5t-19.5 247.5q-91 -130 -215 -230.5t-220 -100.5q-38 0 -64.5 20.5t-38 53.5t-16 59.5t-4.5 52.5q0 161 81 318t216 257q73 54 170.5 92t178.5 38q55 0 106 -11q1 1 24 10.5t37.5 15t36 12t35.5 7.5
q16 1 21 -5t2 -19q-42 -117 -80.5 -284.5t-38.5 -299.5q0 -162 106 -162q36 0 76.5 17.5t81 56t73 92.5t53 134.5t20.5 174.5q0 114 -42.5 216t-119.5 179.5t-195 123t-260 45.5q-162 0 -301.5 -62t-242.5 -174.5t-161.5 -280.5t-58.5 -370q0 -298 167.5 -469.5
t447.5 -171.5q182 0 314 46.5t243 141.5q42 34 53 17q2 -4 2 -9q0 -23 -45 -65q-93 -95 -267 -166.5t-360 -71.5q-116 0 -222 28.5t-197 88t-157.5 144.5t-104.5 205t-38 263q0 203 83.5 389.5t218 318t309 210t352.5 78.5q166 0 298 -46.5t216.5 -130.5t129 -197.5
t44.5 -250.5q0 -166 -75.5 -306.5t-211.5 -240.5zM1153 1049q-13 13 -50.5 22.5t-74.5 9.5q-79 0 -130 -40t-91 -144q-49 -133 -49 -297q0 -123 51 -123q48 0 125 92.5t133 221.5q8 19 37 112.5t49 145.5z" />
    <glyph glyph-name="A" unicode="A" horiz-adv-x="1523" 
d="M899 418h-469q-12 0 -18 -15l-64 -167q-33 -87 -33 -132q0 -29 15 -43.5t47 -17.5q14 -2 42 -5t30 -3q36 0 36 -21q0 -20 -43 -20q-44 0 -128.5 3t-141.5 3q-2 0 -100.5 -3t-159.5 -3q-41 0 -41 20q0 21 39 21q42 3 65 8q51 10 85.5 52.5t70.5 123.5l547 1237
q29 66 48 92.5t36 26.5q15 0 31 -22.5t43 -79.5q28 -60 249 -562t287 -649q52 -118 92 -164.5t95 -54.5q5 -1 65 -8q39 0 39 -21q0 -20 -53 -20q-173 0 -566 6q-45 0 -45 18q0 19 29 25q35 6 25 37l-138 326q-3 12 -16 12zM489 582h351q15 0 10 10l-180 438q-8 18 -15 0
l-174 -438q-3 -10 8 -10z" />
    <glyph glyph-name="B" unicode="B" horiz-adv-x="1595" 
d="M319 645v303q0 292 -4 424q-1 62 -23 90t-67 33q-8 1 -24 2t-28.5 2t-22.5 2q-37 2 -37 21q0 20 41 20q66 0 173 -3t154 -3q74 0 188.5 3t147.5 3q123 0 218.5 -22t149.5 -55t88.5 -77.5t46 -83t11.5 -77.5q0 -212 -250 -342q85 -26 153.5 -63t125.5 -90.5t88 -127.5
t31 -164q0 -87 -40.5 -167t-116 -144t-196 -102.5t-268.5 -38.5q-40 0 -195 6t-184 6q-42 0 -140.5 -3t-156.5 -3q-43 0 -43 20q0 21 41 21q43 3 62 8q57 9 65 113q12 170 12 489zM674 1382v-456q0 -17 18 -21q44 -8 129 -8t123 33q68 55 68 194q0 131 -64 218.5t-180 87.5
q-45 0 -74 -11q-7 -2 -10.5 -5t-6.5 -10.5t-3 -21.5zM674 766v-166q0 -277 4 -346q3 -52 13 -75.5t40 -37.5q53 -32 135 -32q42 0 81.5 15t74.5 46.5t56.5 87.5t21.5 129q0 202 -121 315q-73 71 -191 78q-64 4 -102 0q-12 0 -12 -14z" />
    <glyph glyph-name="C" unicode="C" horiz-adv-x="1679" 
d="M1114 -35q-223 0 -408 49.5t-335 175.5q-141 121 -199.5 272t-58.5 331q0 59 11.5 124.5t37.5 144t79 157.5t126 141q131 112 292 161.5t385 49.5q124 0 291 -25q162 -25 203 -26q11 -1 16 -5.5t6 -9t1 -12.5q0 -6 -2 -24.5t-4.5 -49.5t-4.5 -61q-2 -34 -3 -124t-3 -116
q-3 -49 -24 -49q-22 0 -25 43q-5 122 -78 201q-56 59 -162.5 94t-250.5 35q-189 0 -302 -99q-180 -157 -180 -518q0 -316 158 -510t416 -194q138 0 217 20.5t135 83.5q45 48 68 137q8 34 14 46t18 12q17 0 17 -37q0 -27 -15 -133t-30 -178q-3 -23 -15.5 -37t-38.5 -23
q-117 -47 -352 -47z" />
    <glyph glyph-name="D" unicode="D" horiz-adv-x="1937" 
d="M319 588v360q0 358 -4 424q-2 26 -5.5 43.5t-12.5 36.5t-27.5 29.5t-46.5 13.5q-7 1 -31 2.5t-45 3.5q-38 2 -38 23q0 18 47 18q21 0 150 -3t179 -3q30 0 72.5 0.5t118 1.5t141.5 2q288 -2 484 -52.5t327 -184.5q87 -87 142 -218.5t55 -302.5q0 -174 -65 -321.5
t-161 -239.5q-239 -244 -700 -244q-117 0 -219 9q-140 14 -203 14q-98 0 -155 -2q-114 -4 -142 -4q-41 0 -41 20q0 21 39 21q31 2 64 8q31 4 46.5 34.5t20.5 90.5q10 163 10 420zM682 981v-262q0 -319 4 -397q3 -65 10.5 -98t24.5 -50q28 -34 85.5 -54t125.5 -20
q116 0 206 32t167 112q133 133 133 481q0 132 -42.5 253.5t-111.5 215.5q-50 66 -112.5 112t-126.5 69t-119.5 32.5t-112.5 9.5q-82 0 -111 -16q-18 -9 -18 -37q1 -38 -0.5 -174t-1.5 -209z" />
    <glyph glyph-name="E" unicode="E" horiz-adv-x="1400" 
d="M319 588v360q0 342 -6 441q-3 46 -19.5 71.5t-53.5 34.5q-11 2 -38 4t-30 2q-37 3 -37 23q0 18 45 18q62 0 162.5 -3t142.5 -3q23 0 293 1t285 1q71 0 111 8q28 8 32 8q13 0 13 -18q0 -4 -1.5 -13.5t-4 -30.5t-5.5 -46q-6 -40 -16 -219q0 -12 -6 -20.5t-15 -8.5
q-17 0 -20 29q0 35 -10 71q-8 38 -36.5 57t-98.5 25q-125 11 -308 11q-16 0 -16 -21v-450q0 -25 16 -25q97 -3 297 2q77 3 105 11.5t45 35.5q18 27 29 27q12 0 12 -25q0 -8 -3 -34t-7 -66t-7 -74q-2 -47 -2 -170q0 -39 -18 -39q-16 0 -23 33q-1 8 -3 23.5t-3 23.5
q-6 47 -36 71.5t-101 28.5q-128 9 -289 9q-12 0 -12 -27v-141v-269q1 -58 9 -88.5t36 -52.5t76.5 -28.5t136.5 -6.5q128 0 190 25q42 17 64.5 54t36.5 108q6 36 24 36q19 0 19 -45q0 -55 -12 -147t-21 -127q-10 -38 -27.5 -46.5t-76.5 -8.5q-150 0 -351.5 6t-300.5 6
q-46 0 -141 -3t-154 -3q-49 0 -49 20q0 21 41 21q44 4 62 8q40 6 53 55.5t16 159.5q6 123 6 330z" />
    <glyph glyph-name="F" unicode="F" horiz-adv-x="1323" 
d="M319 588v360q0 325 -6 424q-3 58 -19.5 85t-57.5 36q-17 3 -70 8q-41 0 -41 21q0 12 10.5 16t36.5 4q63 0 167.5 -3t145.5 -3q24 0 305 1t297 1q60 0 105 10q21 6 39 6q6 0 9.5 -5.5t2.5 -12.5q-13 -90 -14 -104q-13 -148 -15 -197q-1 -20 -6 -27.5t-16 -7.5
q-18 0 -21 33q-3 40 -8 63q-20 77 -135 84q-139 11 -330 11q-16 0 -16 -23v-465q0 -24 16 -24q86 -3 283 2q90 3 118.5 10.5t47.5 36.5q17 26 29 26q14 0 14 -26q0 -8 -7 -67t-9 -99q-5 -113 -5 -172q0 -41 -18 -41q-21 0 -21 35q-3 21 -6 45q-7 45 -36.5 69.5t-98.5 30.5
q-88 6 -295 6q-12 0 -12 -26v-142q0 -325 10 -411q5 -51 23.5 -78t70.5 -35q26 -4 70 -8q45 0 45 -19q0 -22 -45 -22t-135.5 3t-210.5 3q-84 0 -193.5 -3t-123.5 -3q-43 0 -43 20q0 19 36 21q19 2 54 8q38 6 52 39.5t19 105.5q8 111 8 400z" />
    <glyph glyph-name="G" unicode="G" horiz-adv-x="1871" 
d="M1630 338v-148q0 -64 -3 -90.5t-10.5 -37.5t-27.5 -19q-84 -33 -225.5 -55.5t-276.5 -22.5q-218 0 -395 49.5t-307 147t-201 252t-71 354.5q0 123 30 232t83 190.5t116.5 142t138.5 103.5q75 44 156 73t161.5 41.5t139.5 16.5t131 4q150 0 332 -29q17 -2 89.5 -12.5
t106.5 -11.5q24 0 21 -27q-23 -115 -23 -377q0 -43 -22 -43q-10 0 -16.5 10t-8.5 23q-8 63 -24 102q-30 107 -163.5 172.5t-342.5 65.5q-236 0 -367 -148q-129 -145 -129 -442q0 -113 21.5 -220t68.5 -205.5t116 -171.5t172 -117t228 -44q81 0 115 25q25 19 25 55v125
q0 164 -2 240q0 87 -22 124.5t-75 45.5q-12 2 -25.5 3.5t-32 3.5t-30.5 3q-13 0 -22.5 5.5t-9.5 14.5q0 21 43 21q76 0 202 -3t144 -3q32 0 144.5 3t172.5 3q47 0 47 -21q0 -17 -33 -20q-3 0 -12.5 -1t-22 -2.5t-20.5 -2.5q-38 -8 -56 -30.5t-22 -74.5q-6 -99 -6 -272z" />
    <glyph glyph-name="H" unicode="H" horiz-adv-x="2019" 
d="M694 911h639q13 0 13 15v43q0 335 -5 417q-3 48 -21.5 73.5t-66.5 35.5q-7 1 -71 6q-20 0 -29.5 6.5t-9.5 14.5q0 20 41 20q52 0 128 -1.5t132.5 -3t62.5 -1.5l145 3q144 3 197 3q41 0 41 -20q0 -8 -8 -14.5t-22 -6.5q-11 -1 -34.5 -3.5t-37.5 -4.5q-38 -6 -54.5 -31.5
t-21.5 -77.5q-4 -66 -4 -436v-360q0 -346 10 -432q5 -54 22.5 -80t61.5 -33q17 -2 52 -5t38 -3q35 0 35 -21q0 -20 -41 -20q-84 0 -232 3t-153 3q-8 0 -121.5 -3t-171.5 -3q-45 0 -45 22q0 19 39 19q51 5 64 8q35 7 48.5 34t18.5 81q13 140 13 409v166q0 12 -13 12h-639
q-12 0 -12 -12v-213q0 -256 10 -366q5 -48 24 -75t62 -34q48 -7 86 -10q39 0 39 -21q0 -20 -41 -20q-51 0 -141 1.5t-161 3t-77 1.5q-3 0 -131.5 -3t-167.5 -3q-45 0 -45 18q0 23 35 23q22 2 64 8q64 8 71 121q10 143 10 424v356q0 331 -6 430q-3 57 -24.5 85.5t-73.5 35.5
q-14 2 -57 6q-41 2 -41 23q0 18 45 18q69 0 188.5 -3t134.5 -3q38 0 165.5 3t172.5 3q43 0 43 -20q0 -8 -9.5 -14.5t-27.5 -6.5q-52 -4 -71 -8q-38 -8 -52.5 -37.5t-17.5 -81.5q-6 -66 -6 -405v-43q0 -15 12 -15z" />
    <glyph glyph-name="I" unicode="I" horiz-adv-x="1001" 
d="M319 588v360q0 377 -6 443q-6 91 -71 102q-16 5 -62 8q-39 0 -39 23q0 18 45 18q36 0 107 -1.5t129 -3t63 -1.5q2 0 146 3t188 3q45 0 45 -20q0 -21 -39 -21q-57 -6 -59 -6q-40 -8 -57.5 -32t-20.5 -79q-6 -66 -6 -436v-360q0 -330 10 -438q3 -45 19.5 -70t58.5 -35
q23 -5 90 -10q43 0 43 -21q0 -20 -43 -20q-61 0 -151 1.5t-156 3t-70 1.5q-3 0 -62.5 -1.5t-130.5 -3t-102 -1.5q-49 0 -49 20q0 21 41 21q42 4 64 8q52 7 63 111q12 129 12 434z" />
    <glyph glyph-name="J" unicode="J" horiz-adv-x="948" 
d="M690 948v-391q0 -129 -2 -209.5t-14 -183.5t-35 -168q-95 -265 -416 -453q-42 -26 -106 -53q-21 -12 -45 -12q-19 0 -19 16q0 18 47 45q62 40 109 92q79 88 99 230.5t20 562.5v524q0 375 -6 441q-7 93 -84 104q-17 2 -82 8q-39 0 -39 23q0 18 45 18q39 0 118 -1.5t144 -3
t70 -1.5l146 3q146 3 191 3q48 0 48 -18q0 -13 -9 -17t-32 -6l-60 -6q-47 -8 -63 -37t-19 -86q-6 -99 -6 -424z" />
    <glyph glyph-name="K" unicode="K" horiz-adv-x="1726" 
d="M674 948v-123q165 152 442 463q107 123 107 168q0 18 -11.5 28t-46.5 17q-35 4 -35 21q0 18 33 18q43 0 99 -2t118 -2q71 0 182 2t113 2q26 0 34.5 -3.5t8.5 -14.5q0 -18 -37 -21q-50 -6 -73 -12q-68 -14 -122.5 -53t-142.5 -123q-63 -60 -194.5 -196t-183.5 -191
q59 -92 254.5 -330t300.5 -348q161 -164 215 -187q47 -20 94 -26q43 -3 43 -23q0 -18 -41 -18h-201q-204 0 -298 27.5t-171 113.5q-86 94 -230.5 281t-256.5 352v-180q0 -324 10 -432q4 -47 22 -76.5t66 -36.5q23 -3 88 -8q35 0 35 -21q0 -20 -39 -20q-60 0 -148.5 1.5
t-154.5 3t-70 1.5q-3 0 -67 -1.5t-139 -3t-105 -1.5q-41 0 -41 20q0 21 37 21q2 0 25.5 2t37.5 4q23 4 37.5 14t22 28.5t10.5 33.5t6 43q12 129 12 428v360q0 375 -6 441q-6 90 -75 104q-2 0 -78 8q-43 0 -43 23q0 18 55 18q39 0 113 -1.5t134 -3t64 -1.5q2 0 149 3t191 3
q43 0 43 -18q0 -20 -37 -23q-5 -1 -24 -2.5t-37 -3.5q-50 -7 -67.5 -36.5t-20.5 -86.5q-6 -99 -6 -424z" />
    <glyph glyph-name="L" unicode="L" horiz-adv-x="1374" 
d="M682 928v-342v-66v-63v-56t0.5 -52.5t2 -44.5t3.5 -40.5t5 -31.5t7.5 -26.5t10.5 -17.5q22 -30 67 -39.5t170 -9.5q97 0 147 6t89 27q73 34 106 172q5 21 10.5 30t16.5 9q10 0 13 -8t3 -31q0 -41 -14.5 -150.5t-28.5 -150.5q-12 -38 -31 -46.5t-83 -8.5q-150 0 -370.5 6
t-320.5 6q-46 0 -153 -3t-166 -3q-45 0 -45 22q0 19 41 19q43 3 69 8q53 9 65 45t17 168q6 123 6 332v360q0 337 -6 436q-3 46 -18 71.5t-51 35.5q-18 6 -80 10q-43 0 -43 21q0 20 61 20q63 0 165.5 -3t137.5 -3q2 0 152 3t194 3q50 0 50 -18q0 -23 -50 -23q-59 -6 -69 -8
q-39 -7 -55 -35.5t-19 -85.5q-6 -99 -6 -444z" />
    <glyph glyph-name="M" unicode="M" horiz-adv-x="2164" 
d="M1761 1495l168 -1237q12 -103 33.5 -146.5t71.5 -58.5q43 -13 116 -18q39 0 39 -21q0 -20 -49 -20q-336 0 -569 12q-47 2 -47 25q0 14 22 20q25 9 29 28.5t-2 88.5l-74 733l-422 -790q-39 -74 -55 -95.5t-29 -21.5q-16 0 -30.5 18t-61.5 92q-39 63 -140 243.5t-134 236.5
q-21 35 -89 160t-75 137l-60 -578q-8 -88 -8 -164q0 -44 16.5 -65t55.5 -29q37 -7 76 -10q37 0 37 -19q0 -12 -8.5 -17t-32.5 -5q-49 0 -143.5 3t-121.5 3q-30 0 -112.5 -3t-122.5 -3q-45 0 -45 20q0 21 41 21q4 1 26 2.5t35 3.5q44 9 65 50.5t36 144.5l186 1259
q10 80 43 80q16 0 30 -15.5t50 -68.5l586 -981l561 991q26 42 40.5 58t28.5 16q30 0 39 -80z" />
    <glyph glyph-name="N" unicode="N" horiz-adv-x="1931" 
d="M264 295q4 180 8 608t11 572q3 98 34 98q12 0 26.5 -8.5t53.5 -40.5q25 -21 54 -46.5t83.5 -75.5t111 -102t175.5 -161.5t238 -218.5q89 -82 180.5 -168.5t147 -138.5t77.5 -72l-12 768q-3 95 -20.5 133.5t-75.5 48.5q-27 6 -90 10q-37 0 -37 21q0 20 41 20t148.5 -3
t148.5 -3q17 0 101 3t132 3q45 0 45 -18q0 -9 -9 -16t-26 -7q-41 -3 -51 -6q-51 -6 -70.5 -40.5t-23.5 -129.5q-7 -184 -11.5 -387t-7.5 -459.5t-6 -386.5q0 -74 -9.5 -100.5t-31.5 -26.5q-24 0 -74.5 37t-154.5 129q-268 237 -442 397q-166 150 -469 443l20 -699
q3 -117 16 -163t54 -60q15 -5 108 -14q41 -3 41 -21q0 -20 -49 -20q-37 0 -120 2.5t-144 3.5q-19 0 -127 -3t-152 -3q-45 0 -45 20q0 21 39 21q5 1 30 2.5t38 3.5q58 9 74.5 57t21.5 197z" />
    <glyph glyph-name="O" unicode="O" horiz-adv-x="1947" 
d="M975 -35q-146 0 -273 33.5t-219.5 92.5t-164.5 136.5t-116 167.5t-66.5 182t-22.5 185q0 125 32.5 241.5t103 220.5t171.5 180.5t247.5 121.5t321.5 45q190 0 350.5 -61t268 -165t167.5 -243t60 -295q0 -179 -59.5 -333t-168.5 -267t-272 -177.5t-360 -64.5zM1036 96
q32 0 62 4.5t70.5 20t74.5 41.5t68.5 73.5t59 111t39.5 158.5t15 212q0 87 -12.5 172t-37.5 167.5t-66 152t-95 122.5t-129 83t-163 30q-50 0 -95 -10.5t-92 -34.5t-84 -68.5t-67 -107.5t-46 -157.5t-16 -211.5q0 -118 19.5 -227.5t60.5 -206.5t100.5 -168.5t145 -113.5
t188.5 -42z" />
    <glyph glyph-name="P" unicode="P" horiz-adv-x="1492" 
d="M319 588v360q0 375 -6 441q-6 91 -71 104q-12 3 -78 8q-37 0 -37 21q0 10 9 15t36 5q51 0 186 -3t146 -3q50 0 155 3t152 3q344 0 496 -141q44 -42 77 -111t33 -162q0 -92 -32 -171t-87.5 -136t-128.5 -97.5t-155 -60.5t-168 -20q-43 0 -64 6q-22 7 -22 21q0 20 45 20
q123 0 187.5 87t64.5 231q0 224 -101 333q-78 84 -194 84q-31 0 -55 -4q-25 -6 -25 -51v-782q0 -346 10 -432q3 -49 20 -76t60 -35q22 -5 90 -10q23 0 31 -5.5t8 -17.5q0 -18 -41 -18q-62 0 -151.5 1.5t-155.5 3t-70 1.5q-3 0 -64.5 -1.5t-134.5 -3t-104 -1.5q-41 0 -41 20
q0 21 39 21q44 4 62 8q31 6 46 31.5t21 83.5q12 129 12 430z" />
    <glyph glyph-name="Q" unicode="Q" horiz-adv-x="1925" 
d="M1212 -2q-139 -33 -262 -33q-126 0 -237 26t-196 71t-155 107.5t-118 134t-81 151.5t-48 160t-15 159q0 118 32.5 231t103 216t171 180.5t247 123.5t321.5 46q157 0 293.5 -41t237 -113t172.5 -168.5t108.5 -209.5t36.5 -234q0 -217 -91 -386.5t-241 -281.5l377 -205
q486 -249 850 -249q226 0 374 67q36 12 43 12q15 0 15 -12q0 -15 -33 -39q-325 -211 -735 -211q-205 0 -395.5 66t-438.5 221zM1026 96q33 0 63 4.5t70.5 20t74 41.5t68 74t58 111.5t38.5 159t15 212.5q0 107 -18 209t-58 196.5t-97.5 165t-142.5 112.5t-188 42
q-63 0 -117 -15t-107.5 -55.5t-91 -105t-60.5 -170.5t-23 -244q0 -152 32.5 -287t95 -241t162.5 -168t226 -62z" />
    <glyph glyph-name="R" unicode="R" horiz-adv-x="1658" 
d="M319 588v360q0 226 -6 424q-3 61 -21 87t-56 34q-14 3 -30 4.5t-31 2t-21 1.5q-37 3 -37 23q0 18 45 18q51 0 178.5 -3t134.5 -3q13 0 144.5 3t185.5 3q296 0 418 -69q81 -44 133.5 -124t52.5 -190q0 -241 -274 -411q11 -16 53.5 -77.5t60 -86t55.5 -79t61.5 -85.5
t55.5 -74t59.5 -77t53.5 -64q80 -89 125.5 -123.5t89.5 -40.5q14 -2 31.5 -4t19.5 -2q35 0 35 -21q0 -20 -41 -20h-184q-154 0 -235.5 15.5t-137.5 51.5q-47 28 -96.5 90t-114.5 166q-35 58 -76.5 128t-63 106t-38.5 61q-9 13 -25 13h-135q-16 0 -16 -17v-104
q0 -258 10 -344q3 -46 20.5 -74.5t59.5 -38.5q17 -5 92 -12q23 -1 30 -7t7 -16q0 -18 -43 -18q-60 0 -150 1.5t-156.5 3t-68.5 1.5q-7 0 -129.5 -3t-163.5 -3t-41 20q0 21 37 21q56 6 70 8q30 7 44 35t19 82q10 108 10 428zM672 1380v-569q0 -22 18 -31q51 -26 158 -26
q87 0 129 32q35 27 57.5 94t22.5 164q0 83 -20.5 149.5t-51.5 106t-71 65.5t-76.5 36t-71.5 10q-63 0 -82 -8q-12 -6 -12 -23z" />
    <glyph glyph-name="S" unicode="S" horiz-adv-x="1179" 
d="M498 -35q-217 0 -342 58q-45 18 -45 81q0 188 12 302q5 49 24 49q15 0 19 -35q4 -38 10 -64q25 -122 124 -193t224 -71q70 0 121.5 17t79 45t40.5 60t13 67q0 37 -5.5 63.5t-24 61t-58 71.5t-102.5 80l-127 88q-180 127 -250 242.5t-70 257.5q0 183 142 304.5t381 121.5
q122 0 235 -21q52 -9 100 -24q27 -8 27 -29q-8 -132 -8 -289q0 -51 -23 -51q-17 0 -22 39q-7 70 -37 119q-33 56 -106 95.5t-175 39.5q-117 0 -173 -54.5t-56 -133.5q0 -62 34.5 -121t129.5 -123l104 -70q215 -142 296 -255t81 -269q0 -112 -53.5 -209t-163.5 -162
q-145 -88 -356 -88z" />
    <glyph glyph-name="T" unicode="T" horiz-adv-x="1525" 
d="M940 1391v-803q0 -350 10 -436q3 -45 20.5 -72.5t59.5 -34.5q12 -2 88 -10q41 -2 41 -23q0 -18 -47 -18q-83 0 -225.5 3t-145.5 3q-13 0 -138 -3t-163 -3q-26 0 -36.5 4t-10.5 16q0 21 41 21q47 5 66 8q31 6 45.5 34.5t19.5 78.5q13 140 13 432v803q-225 0 -310 -5
q-86 -4 -126 -27t-60 -77q-14 -33 -19 -47q-8 -33 -24 -33q-12 0 -15 9.5t-1 31.5q3 29 9 68.5t11 68.5t13.5 74t11.5 62q7 51 22 51q6 0 13 -2t22.5 -6.5t34.5 -8.5q65 -14 227 -14h891q71 0 129 8q13 2 27 5.5t22 5t14 1.5q13 0 17 -12t4 -51q0 -16 -6.5 -133t-7.5 -137
q-3 -41 -21 -41q-11 0 -15.5 8.5t-6.5 28.5q-3 37 -4 41q-7 53 -41.5 83.5t-118.5 36.5q-125 11 -330 11z" />
    <glyph glyph-name="U" unicode="U" horiz-adv-x="1792" 
d="M618 948v-307q0 -209 35 -314.5t121 -166.5q89 -58 205 -58q135 0 225 76q33 28 56 74t34.5 89.5t17 115.5t6.5 116t1 129v246q0 354 -4 420q-3 61 -21 88.5t-67 36.5q-8 1 -76 8q-37 0 -37 21q0 20 47 20q69 0 169 -3t106 -3q11 0 111.5 3t158.5 3q43 0 43 -20
q0 -18 -35 -21q-42 -4 -63 -8q-41 -7 -57 -34t-21 -91q-6 -99 -6 -420v-200q0 -70 -2 -119t-8 -115.5t-20 -117.5t-36 -106.5t-58.5 -103t-84.5 -86.5q-162 -135 -426 -135q-331 0 -488 137q-90 74 -140 200.5t-50 334.5v311q0 375 -6 441q-3 44 -16.5 66t-47.5 32
q-18 6 -88 14q-43 3 -43 23q0 18 56 18q53 0 183 -3l130 -3q1 0 145.5 3t188.5 3q45 0 45 -18q0 -12 -8 -16.5t-29 -6.5q-63 -7 -68 -8q-40 -8 -54 -36.5t-17 -84.5q-7 -116 -7 -424z" />
    <glyph glyph-name="V" unicode="V" horiz-adv-x="1513" 
d="M645 88l-536 1247q-42 93 -69 121t-81 39q-24 6 -47 6q-33 6 -33 23q0 18 43 18q59 0 166.5 -3t144.5 -3q25 0 138 3t204 3q48 0 48 -20q0 -9 -9 -15t-22 -6q-44 -3 -55 -6q-62 -9 -62 -51q0 -38 47 -156q48 -125 160 -399.5t158 -394.5q75 169 196.5 459.5t167.5 422.5
q17 39 17 68q0 21 -11.5 32t-38.5 15q-19 5 -81 10q-37 3 -37 21q0 20 45 20q80 0 172 -3t94 -3q12 0 102 3t125 3q45 0 45 -20q0 -21 -37 -21q-63 -5 -90 -18q-32 -15 -59 -54t-70 -131q-32 -69 -272 -602q-176 -391 -272 -583q-44 -89 -65 -118.5t-42 -29.5t-37 24.5
t-47 98.5z" />
    <glyph glyph-name="W" unicode="W" horiz-adv-x="2283" 
d="M594 92l-455 1249q-27 73 -48 105.5t-54 42.5q-16 5 -39 8t-27 4q-32 3 -32 23q0 18 43 18q76 0 185 -3t112 -3q17 0 129.5 3t175.5 3q43 0 43 -20q0 -21 -33 -21q-33 -3 -51 -8q-37 -6 -37 -45q0 -25 49 -184q35 -112 117.5 -363t126.5 -364l362 927q28 74 58 74
q8 0 14.5 -3.5t13 -14t11 -18.5t14 -28t16.5 -32l410 -907q112 326 223 722q41 138 41 175q0 34 -23 48t-102 21q-14 0 -24.5 6t-10.5 13q0 11 8 16.5t35 5.5q58 0 117 -1.5t96 -3t41 -1.5t47.5 1t98 2t86.5 1q41 0 41 -18q0 -21 -33 -21q-44 -4 -66 -10q-42 -9 -71.5 -55.5
t-71.5 -161.5q-17 -48 -81.5 -228t-113 -315t-117 -320.5t-120.5 -320.5q-16 -43 -25.5 -65t-25 -41t-31.5 -19q-19 0 -34 21.5t-42 81.5l-410 878q-217 -539 -368 -864q-28 -62 -47.5 -89.5t-42.5 -27.5q-19 0 -33.5 25t-44.5 102z" />
    <glyph glyph-name="X" unicode="X" horiz-adv-x="1546" 
d="M213 190l401 551l-352 576q-53 90 -90.5 127.5t-105.5 48.5q-15 2 -34 4.5t-26 3.5q-31 2 -31 23q0 18 45 18q11 0 48.5 -1.5t110 -3t167.5 -1.5q10 0 133 3t187 3q45 0 45 -18q0 -20 -35 -23q-41 -5 -51 -8q-29 -9 -29 -35q0 -25 41 -96q49 -87 125.5 -214.5
t89.5 -150.5q121 176 242 375q34 50 34 84q0 29 -47 37q-23 5 -69 8q-12 0 -21.5 6t-9.5 15q0 20 41 20q45 0 135.5 -3t110.5 -3q22 0 107 3t136 3q39 0 39 -18q0 -23 -39 -23q-36 -3 -53 -8q-45 -11 -80.5 -43t-103.5 -125l-338 -461q104 -173 259 -421.5t206 -317.5
q53 -68 123 -80q31 -7 73 -10q35 0 35 -21q0 -20 -41 -20q-408 0 -606 10q-41 2 -41 21q0 13 25 20q38 11 18 49q-40 77 -157 278.5t-128 221.5l-274 -432q-33 -54 -33 -82q3 -33 51 -39l54 -6q39 0 39 -23q0 -20 -41 -20q-19 0 -135 4t-158 4q-39 0 -131.5 -3t-102.5 -3
q-39 0 -39 20q0 21 35 21q41 0 68 8q44 10 85 42t93 105z" />
    <glyph glyph-name="Y" unicode="Y" horiz-adv-x="1445" 
d="M545 367v157q0 53 -8.5 94t-17.5 60.5t-32 64.5q-58 106 -177 305.5t-171 276.5q-61 93 -89.5 122t-76.5 44q-16 5 -53 10q-31 3 -31 23q0 18 41 18q43 0 160.5 -3t155.5 -3q6 0 111.5 3t181.5 3q39 0 39 -16q0 -12 -8.5 -17t-32.5 -10q-64 -7 -64 -43q0 -18 21 -59
q287 -512 321 -576q262 495 275 522q32 69 32 105q0 19 -15 31.5t-58 19.5q-35 8 -35 25q0 18 45 18q43 0 118 -3t113 -3q13 0 114 3t122 3q41 0 41 -18q0 -23 -41 -23q-39 -3 -80 -16q-14 -6 -26.5 -13.5t-20 -13t-19 -18t-15.5 -17t-17 -21.5t-17 -22q-53 -65 -211 -337
t-180 -336q-33 -92 -33 -195v-145q0 -117 6 -203q2 -26 4.5 -39t10.5 -32t25 -30t44 -16q22 -5 65.5 -8.5t47.5 -3.5q33 -3 33 -23q0 -18 -41 -18q-83 0 -222 3t-163 3q-25 0 -146.5 -3t-171.5 -3q-41 0 -41 22q0 19 37 19q66 8 72 10q37 10 52 36.5t18 74.5q8 115 8 211z
" />
    <glyph glyph-name="Z" unicode="Z" horiz-adv-x="1513" 
d="M594 150h401q176 0 256 33.5t107 113.5q14 38 20 68q8 32 25 32q18 0 18 -43q0 -42 -20 -149t-37 -160q-5 -18 -9.5 -27.5t-16 -17.5t-29.5 -8q-154 0 -529.5 5t-629.5 5q-37 0 -37 21q0 18 34 71q417 655 807 1299h-348q-116 0 -180 -8.5t-107 -30.5q-79 -40 -116 -170
q-12 -39 -29 -39q-10 0 -13 8t-3 29q0 17 8 80.5t20 148.5t15 107q5 38 22 38q5 0 31.5 -6.5t52.5 -7.5q146 -6 400 -6h677q31 0 31 -20q0 -19 -24 -60q-364 -615 -797 -1306z" />
    <glyph glyph-name="bracketleft" unicode="[" horiz-adv-x="862" 
d="M471 1360v-1286q0 -164 14 -193q34 -32 199 -47q53 -4 53 -22q0 -19 -45 -19h-411q-23 0 -28 5t-5 28v1767q0 17 5 22t23 5h420q22 0 32.5 -3.5t10.5 -17.5q0 -18 -51 -22q-97 -11 -143 -19t-62 -22q-12 -21 -12 -176z" />
    <glyph glyph-name="backslash" unicode="\" horiz-adv-x="1114" 
d="M254 1544l727 -1489q16 -32 2 -43q-11 -12 -49 -32.5t-45 -20.5q-10 0 -23 23l-735 1505q-14 26 -2 35q15 14 50.5 33.5t45.5 19.5q13 0 29 -31z" />
    <glyph glyph-name="bracketright" unicode="]" horiz-adv-x="862" 
d="M391 51v1286q0 164 -14 193q-34 32 -199 47q-53 4 -53 22q0 19 45 19h412q23 0 27.5 -5t4.5 -28v-1767q0 -18 -5 -22.5t-23 -4.5h-420q-22 0 -32.5 3.5t-10.5 17.5q0 18 51 22q97 11 143 19t62 22q12 21 12 176z" />
    <glyph glyph-name="asciicircum" unicode="^" horiz-adv-x="1265" 
d="M528 1536h211l404 -799h-234l-278 594l-275 -594h-231z" />
    <glyph glyph-name="underscore" unicode="_" horiz-adv-x="1024" 
d="M0 -154h1024v-102h-1024v102z" />
    <glyph glyph-name="grave" unicode="`" horiz-adv-x="819" 
d="M528 1477q2 -7 -4 -13t-18 -6q-41 0 -192 71t-263 140q-57 37 -55 57q-2 9 24 25q57 37 148 64q27 10 41 10q13 0 35 -39q25 -39 250 -264q4 -4 11 -10.5t10.5 -10t7 -8t5 -8.5t0.5 -8z" />
    <glyph glyph-name="a" unicode="a" 
d="M819 332h-424q-14 0 -20 -19l-43 -104q-31 -77 -31 -109q0 -55 115 -64q7 -1 10 -1q33 -2 33 -19q0 -22 -35 -22q-43 0 -122.5 3t-133.5 3q-2 0 -88.5 -3t-138.5 -3q-37 0 -37 20q0 21 33 21q71 8 110.5 38.5t77.5 116.5l491 1049q32 70 50.5 95.5t35.5 25.5
q15 0 30 -20.5t42 -75.5q17 -37 217 -461t269 -576q50 -103 82.5 -142t82.5 -46q32 -4 41 -4q16 0 25.5 -6.5t9.5 -14.5q0 -20 -37 -20q-425 4 -528 6q-37 0 -37 18q0 13 25 21q2 1 6.5 2.5t7 2.5t6 2.5t4.5 3.5t2 5t0.5 6.5t-2.5 8.5l-112 252q-3 10 -17 10zM453 494h307
q8 0 10 2.5t0 5.5l-162 366q-5 6 -5.5 6t-2.5 -5q-1 -2 -2 -3l-152 -364q-3 -8 7 -8z" />
    <glyph glyph-name="b" unicode="b" horiz-adv-x="1470" 
d="M287 569v252q0 251 -4 365q-1 53 -21 74.5t-63 27.5q-31 3 -64 6q-17 0 -25 6.5t-8 14.5q0 20 37 20q60 0 156 -3t145 -3q73 0 182 3t138 3q115 0 203.5 -19t139 -47.5t82 -67.5t42 -72t10.5 -68q0 -185 -229 -291q360 -106 360 -387q0 -76 -38 -145.5t-108.5 -125
t-180.5 -89t-244 -33.5q-34 0 -186 5t-171 5q-41 0 -132 -3t-144 -3q-41 0 -41 20q0 21 33 21q43 4 51 6q34 5 49 25t18 71q13 133 13 432zM627 1184v-375q0 -18 20 -18q25 -7 111 -7q83 0 114 27q58 45 58 160q0 114 -56.5 184t-160.5 70q-49 0 -68 -8q-18 -9 -18 -33z
M627 655v-145q0 -222 6 -293q2 -33 9.5 -50.5t31.5 -31.5q46 -26 121 -26q82 0 143 57.5t61 175.5q0 167 -92 252q-68 68 -174 76q-60 3 -96 -2q-10 0 -10 -13z" />
    <glyph glyph-name="c" unicode="c" horiz-adv-x="1540" 
d="M1014 -31q-201 0 -368.5 42.5t-305.5 152.5q-129 106 -181.5 235t-52.5 287q0 51 10.5 108.5t35 126t72.5 137.5t114 122q119 96 265 138t347 42q115 0 262 -21q135 -22 179 -22q20 -2 20 -25q0 -7 -8 -125q-7 -195 -8 -213q-3 -43 -25 -43q-19 0 -22 39q-6 109 -68 176
q-103 111 -367 111q-158 0 -254 -80q-159 -125 -159 -438q0 -268 136.5 -436t367.5 -168q119 0 186.5 17t118.5 71q40 44 59 129q6 27 12 35t17 8q18 0 18 -31q0 -36 -39 -276q-9 -46 -49 -60q-97 -39 -313 -39z" />
    <glyph glyph-name="d" unicode="d" horiz-adv-x="1748" 
d="M287 510v311q0 298 -4 355q-2 25 -4.5 38t-11 32t-27 29t-47.5 13l-60 6q-31 4 -31 23q0 18 39 18q10 0 130 -3t171 -3q17 0 111 2t190 2q261 0 434 -47t289 -160q176 -172 176 -450q0 -149 -58.5 -276.5t-145.5 -209.5q-33 -32 -64.5 -56.5t-87.5 -55t-118.5 -50.5
t-156 -34t-202.5 -14q-52 0 -196.5 10t-178.5 10q-43 0 -137 -3t-137 -3q-37 0 -37 20q0 8 9.5 14.5t23.5 6.5q12 0 53 6q55 5 67 78t11 299v92zM633 846v-225q0 -264 4 -334q3 -59 10 -85t23 -44q25 -28 76.5 -44t103.5 -16q99 0 171.5 23t137.5 92q113 113 113 401
q0 231 -123 406q-54 76 -130 122.5t-139.5 60.5t-131.5 14q-73 0 -97 -17q-7 -6 -9.5 -13.5t-5 -45.5t-3 -100.5t-0.5 -194.5z" />
    <glyph glyph-name="e" unicode="e" horiz-adv-x="1286" 
d="M287 510v311q0 299 -6 385q-6 71 -66 82q-7 2 -16.5 3t-21 1.5t-17.5 1.5q-31 2 -31 23q0 18 39 18q60 0 149.5 -3t124.5 -3q17 0 268 1t265 1q63 0 104 8q21 7 29 7q16 0 12 -19q-13 -73 -14 -86q-2 -39 -10 -192q0 -11 -6 -20t-15 -9q-17 0 -20 24q-9 59 -11 66
q-8 34 -33 51t-87 23q-136 8 -275 8q-14 0 -14 -18v-375q0 -17 14 -17q182 0 254 2q76 3 103.5 11t44.5 34q11 23 24 23q15 0 15 -23q0 -6 -7 -65.5t-8 -97.5q-4 -78 -4 -154q0 -31 -18 -31t-21 29q-1 5 -2 17t-2 18q-8 46 -34 68t-93 26q-86 6 -254 6q-12 0 -12 -14v-129
q0 -18 -0.5 -62t-0.5 -82.5t1 -70.5q1 -51 7.5 -77.5t31.5 -46t69 -25t125 -5.5q110 0 170 21q37 15 56.5 48t31.5 97q6 31 25 31q16 0 16 -37q0 -53 -9.5 -139t-16.5 -117q-10 -32 -26.5 -39.5t-70.5 -7.5q-147 0 -329.5 5t-270.5 5q-41 0 -132.5 -3t-145.5 -3
q-43 0 -43 22q0 19 37 19q52 6 53 6q41 7 54 52.5t18 152.5q0 30 1 120.5t1 143.5z" />
    <glyph glyph-name="f" unicode="f" horiz-adv-x="1210" 
d="M287 510v311q0 283 -6 365q-3 48 -19.5 72t-52.5 28q-17 4 -66 8q-34 8 -34 21q0 20 47 20q57 0 154.5 -3t131.5 -3q17 0 277.5 1t273.5 1q55 0 103 12q27 9 30 9q17 0 13 -17q-1 -4 -4 -20.5t-6 -37t-5 -38.5q-8 -92 -10 -184q-1 -18 -6 -24.5t-16 -6.5q-17 0 -21 29
q-3 37 -8 57q-8 34 -33.5 51t-87.5 23q-132 8 -291 8q-16 0 -16 -18v-390q0 -20 14 -20q81 -3 256 2q79 3 104.5 11t43.5 38q13 19 24 19q13 0 13 -25q0 -9 -2.5 -32.5t-6.5 -60.5t-6 -63q-1 -17 -1 -49.5t0.5 -66.5t0.5 -37q0 -35 -18 -35t-21 31q-1 6 -3 17t-3 17
q-5 46 -29.5 67t-91.5 24q-118 8 -262 8q-12 0 -12 -15v-129q0 -276 10 -352q3 -43 20.5 -64t67.5 -28q37 -6 64 -6q41 -3 41 -21q0 -20 -41 -20q-33 0 -115 3t-213 3q-89 0 -193.5 -3t-111.5 -3q-37 0 -37 18q0 19 31 23q4 1 22 2.5t33 3.5q34 4 47.5 35t18.5 96
q8 102 8 338z" />
    <glyph glyph-name="g" unicode="g" horiz-adv-x="1701" 
d="M1479 289v-113q0 -87 -6.5 -109.5t-34.5 -31.5q-76 -26 -203.5 -46t-245.5 -20q-201 0 -362.5 43.5t-278 129t-179.5 219t-63 305.5q0 108 27.5 202t76.5 164.5t106.5 122t125.5 88.5q67 39 141.5 64t148.5 35.5t127.5 14t117.5 3.5q120 0 289 -23q24 -3 62.5 -8.5
t67.5 -9t52 -4.5q27 0 16 -29l-3 -16q-3 -17 -5.5 -40.5t-6 -60t-5.5 -93.5t-2 -124q0 -39 -23 -39q-15 0 -20 33q-9 49 -17 72q-17 104 -137.5 163.5t-318.5 59.5q-215 0 -322 -131q-104 -129 -104 -367q0 -94 16.5 -184t55 -175.5t95 -149.5t142.5 -103t192 -39
q84 0 109 25q18 12 18 43v90q0 137 2 205q0 82 -20 115.5t-72 39.5q-30 5 -80 8q-13 1 -20.5 9t-7.5 16q0 16 39 16q73 0 189 -2t130 -2q31 0 137 2t168 2q41 0 41 -18q0 -15 -28 -23q-22 0 -50 -4q-36 -5 -51 -23t-18 -63q-8 -61 -8 -239z" />
    <glyph glyph-name="h" unicode="h" horiz-adv-x="1828" 
d="M645 797h541q12 0 12 10v37q0 299 -4 356q-3 38 -20 59.5t-60 28.5q-9 1 -63 6q-17 0 -26 7.5t-9 13.5q0 20 37 20q48 0 119.5 -1.5t124 -3t53.5 -1.5t64 1.5t140.5 3t112.5 1.5q23 0 30 -5t7 -15q0 -21 -29 -21q-40 -5 -57 -8q-34 -4 -48.5 -25t-19.5 -65
q-6 -57 -6 -375v-311q0 -281 10 -371q5 -48 21.5 -70t56.5 -28q14 -2 42.5 -3.5t33.5 -2.5q35 -3 35 -23q0 -18 -41 -18q-75 0 -214.5 3t-141.5 3q-6 0 -110 -3t-159 -3q-39 0 -39 20q0 7 8.5 14t24.5 7q44 4 53 6q32 6 45.5 29.5t18.5 70.5q10 93 10 348v136q0 12 -12 12
h-541q-12 0 -12 -12v-189q0 -206 10 -299q10 -86 84 -94q16 -4 42.5 -6t27.5 -2q34 -3 34 -23q0 -18 -34 -18q-45 0 -131 1.5t-154 3t-70 1.5t-60.5 -1.5t-126 -3t-91.5 -1.5q-39 0 -39 18q0 21 31 23q44 4 53 6q60 8 67 106q11 104 11 363v305q0 285 -6 371q-3 48 -21 71.5
t-67 30.5q-18 3 -56 6q-31 2 -31 23q0 18 39 18q63 0 182.5 -3t131.5 -3q38 0 147.5 3t149.5 3q24 0 31.5 -5.5t7.5 -16.5q0 -16 -33 -19q-37 -3 -57 -8q-36 -7 -49 -32t-17 -68q-6 -57 -6 -342v-37q0 -10 12 -10z" />
    <glyph glyph-name="i" unicode="i" horiz-adv-x="919" 
d="M287 510v311q0 324 -6 379q-3 39 -16.5 60.5t-45.5 25.5q-14 5 -57 8q-35 3 -35 21q0 20 41 20q32 0 98.5 -1.5t120.5 -3t55 -1.5q2 0 66 1.5t139.5 3t106.5 1.5q23 0 30 -5t7 -15q0 -18 -37 -21q-25 -3 -41 -6q-37 -8 -52.5 -26.5t-21.5 -63.5q-6 -57 -6 -377v-311
q0 -284 10 -379q3 -37 18 -58.5t54 -29.5q3 -1 76 -8q38 0 38 -23q0 -18 -38 -18q-56 0 -140.5 1.5t-146 3t-62.5 1.5l-57 -2q-57 -1 -124.5 -2.5t-92.5 -1.5q-43 0 -43 20q0 8 8.5 14.5t22.5 6.5q5 1 25 2.5t34 3.5q52 11 59 96q13 96 13 373z" />
    <glyph glyph-name="j" unicode="j" horiz-adv-x="878" 
d="M643 821v-344v-40v-46.5t-0.5 -46t-1.5 -52t-2.5 -49.5t-3.5 -53t-5.5 -48t-8 -50t-10.5 -43.5t-13 -42.5q-81 -226 -389 -399q-52 -30 -94 -47q-26 -11 -41 -11q-19 0 -19 17q0 16 37 37q68 40 105 82q65 72 81.5 194.5t16.5 501.5v440q0 295 -6 381q-3 44 -22 61.5
t-62 22.5q-19 2 -38.5 5t-23.5 3q-37 3 -37 21q0 20 41 20q21 0 59.5 -0.5t79 -1.5t78 -2t62 -1.5t25.5 -0.5q3 0 69.5 1.5t144.5 3t107 1.5q39 0 39 -18q0 -11 -7 -15.5t-28 -7.5q-5 -1 -21.5 -2.5t-31.5 -3.5q-41 -7 -56.5 -32t-17.5 -70q-6 -86 -6 -365z" />
    <glyph glyph-name="k" unicode="k" horiz-adv-x="1581" 
d="M629 821v-104q194 179 395 401q92 99 92 135q0 17 -9.5 26t-41.5 15q-35 4 -35 21q0 18 33 18q39 0 88.5 -2t108.5 -2q68 0 170 2l102 2q41 0 41 -18t-35 -21q-45 -7 -59 -10q-35 -6 -65 -17.5t-64 -35.5t-53 -40t-64 -56q-122 -113 -326 -326q49 -75 220 -282t274 -316
q115 -119 170 -148q33 -18 92 -28q21 -1 29 -6.5t8 -16.5q0 -18 -37 -18h-184q-185 0 -272.5 24t-159.5 93q-148 144 -418 546v-147q0 -299 6 -373q4 -40 21.5 -65.5t62.5 -30.5q15 -2 44.5 -4t33.5 -2q30 -3 30 -21q0 -20 -34 -20q-56 0 -141 1.5t-147 3t-63 1.5l-59 -2
q-59 -1 -129 -2.5t-96 -1.5q-37 0 -37 18q0 20 37 23q29 4 41 6q43 5 57 30t18 72q13 120 13 367v311q0 326 -6 383q-3 36 -18 55.5t-52 26.5q-25 3 -68 8q-37 4 -37 23q0 18 48 18q32 0 102 -1.5t127.5 -3t58.5 -1.5q3 0 67 1.5t138.5 3t102.5 1.5q24 0 31 -5t7 -15
q0 -18 -34 -21q-7 -1 -23.5 -3t-21.5 -3q-46 -5 -60 -30.5t-16 -75.5q-4 -57 -4 -361z" />
    <glyph glyph-name="l" unicode="l" horiz-adv-x="1269" 
d="M633 799v-291q0 -27 -0.5 -68.5t-0.5 -65.5t0.5 -56t2 -51t3.5 -39.5t6.5 -34t10.5 -21.5q20 -28 58.5 -35.5t154.5 -7.5q143 0 203 21q83 32 113 161q7 37 26 37q17 0 17 -37q0 -36 -16 -136.5t-29 -137.5q-11 -34 -27 -40.5t-70 -6.5q-148 0 -351 5t-290 5
q-41 0 -134.5 -3t-147.5 -3q-43 0 -43 22q0 7 9 13t26 6q10 1 22 2t21 2q38 6 55 24t23.5 55.5t9.5 125.5q0 31 1 122t1 144v311q0 287 -6 373q-6 74 -64 90q-29 7 -67 10q-37 4 -37 21q0 20 51 20q60 0 151.5 -3t126.5 -3q3 0 68 1.5t141 3t105 1.5q41 0 41 -18
q0 -23 -33 -23q-35 -3 -55 -8q-37 -6 -52 -30t-18 -74q-6 -86 -6 -383z" />
    <glyph glyph-name="m" unicode="m" horiz-adv-x="1953" 
d="M1604 1286l145 -1063q11 -87 32 -125.5t66 -50.5q28 -8 84 -12q33 -5 33 -23q0 -11 -8 -14.5t-31 -3.5q-327 0 -530 10q-37 0 -37 23q0 11 18 18q27 9 31.5 25t-0.5 82l-55 598l-373 -654q-35 -63 -51.5 -82.5t-28.5 -19.5q-14 0 -27 15.5t-59 82.5q-39 61 -126 206
t-128 210q-6 9 -61 104.5t-72 120.5l-45 -448q-6 -88 -6 -150q0 -42 14.5 -63.5t50.5 -28.5q29 -5 66 -8q35 0 35 -19q0 -22 -41 -22q-43 0 -129 3t-113 3q-30 0 -107 -3t-114 -3t-37 22q0 16 33 19q9 1 26 2t27 2q42 8 63 43t35 133l162 1069q13 76 41 76q13 0 28.5 -16
t45.5 -60l532 -811l504 821q47 66 68 66q16 0 24 -17t15 -57z" />
    <glyph glyph-name="n" unicode="n" horiz-adv-x="1736" 
d="M236 254q5 187 9.5 543t8.5 473q2 48 9 69t26 21q18 0 69 -39q70 -55 252.5 -211.5t345.5 -300.5q115 -101 224.5 -195.5t128.5 -111.5l-11 626q-3 80 -21.5 115t-74.5 43q-28 5 -74 8q-32 3 -32 21q0 20 34 20q32 0 133 -3t144 -3q19 0 96.5 3t118.5 3q39 0 39 -18
q0 -21 -31 -23q-36 -3 -41 -4q-47 -6 -65.5 -35t-22.5 -112q-20 -428 -24 -1053q0 -73 -8.5 -97t-30.5 -24q-23 0 -76 36.5t-164 127.5q-219 182 -360 311q-34 30 -179 158t-235 209l18 -575q3 -102 14 -140.5t50 -48.5q40 -9 92 -12q39 -5 39 -21q0 -20 -45 -20
q-23 0 -95 2.5t-141 3.5q-24 0 -127 -3t-135 -3q-41 0 -41 20q0 18 33 21q10 1 25.5 2t25.5 2q57 7 75.5 49t23.5 166z" />
    <glyph glyph-name="o" unicode="o" horiz-adv-x="1765" 
d="M887 -31q-158 0 -290 41.5t-221 110.5t-151.5 159t-90.5 185t-28 192q0 113 30 215.5t94 192t156.5 155t224 103t288.5 37.5q170 0 315 -54.5t241 -146t150 -211t54 -250.5q0 -156 -53.5 -289.5t-151 -231t-243.5 -153t-324 -55.5zM936 92q29 0 54.5 3.5t60 16.5t63 34.5
t58 61.5t49.5 93.5t32.5 134.5t12.5 180q0 86 -12.5 169t-44 167t-78.5 147t-123 102.5t-172 39.5q-336 0 -336 -496q0 -101 15.5 -194t50 -177.5t84.5 -146.5t123.5 -98.5t162.5 -36.5z" />
    <glyph glyph-name="p" unicode="p" horiz-adv-x="1386" 
d="M287 510v311q0 322 -6 379q-3 38 -16.5 58.5t-49.5 27.5q-27 4 -63 8q-33 3 -33 19q0 22 41 22q42 0 168.5 -3t134.5 -3q46 0 140.5 3t135.5 3q334 0 469 -125q105 -100 105 -239q0 -83 -31 -154t-83 -120t-121 -83.5t-144 -50.5t-152 -16q-41 0 -59 6q-21 7 -21 18
q0 21 39 21q115 0 167.5 72t52.5 196q0 199 -89 291q-62 74 -170 74q-13 0 -25.5 -1t-14.5 -1q-29 -7 -29 -47v-666q0 -248 10 -371q3 -41 20 -65t56 -31q9 -2 76 -8q36 -2 36 -23q0 -18 -38 -18q-55 0 -140 1.5t-147.5 3t-63.5 1.5l-58 -2q-58 -1 -126.5 -2.5t-93.5 -1.5
q-41 0 -41 20q0 17 37 21q8 1 27 2t28 2q28 6 41.5 28t17.5 74q13 96 13 369z" />
    <glyph glyph-name="q" unicode="q" horiz-adv-x="1765" 
d="M1096 -4q-135 -27 -224 -27q-157 0 -288 43t-217.5 113.5t-147 162.5t-87 187.5t-26.5 192.5q0 106 29.5 205t93 188t155 155t223.5 105t290 39q177 0 324 -56.5t241.5 -149.5t146.5 -211t52 -245q0 -184 -76.5 -329.5t-214.5 -247.5l326 -176q452 -219 764 -219
q192 0 329 61q28 14 43 14t15 -16q0 -8 -8.5 -18.5t-20.5 -16.5q-120 -81 -291.5 -137.5t-386.5 -56.5q-183 0 -354.5 57.5t-388.5 193.5zM938 92q328 0 328 524q0 87 -12.5 170t-44 167t-79.5 146.5t-124 102t-172 39.5q-334 0 -334 -498q0 -101 15 -193t49 -176.5
t83.5 -146.5t124 -98.5t166.5 -36.5z" />
    <glyph glyph-name="r" unicode="r" horiz-adv-x="1527" 
d="M287 510v311q0 275 -6 361q-5 97 -76 104q-20 4 -41.5 6t-22.5 2q-30 0 -30 21q0 20 36 20q43 0 161.5 -3t123.5 -3q8 0 135 3t181 3q279 0 385 -59q79 -40 126.5 -109t47.5 -168q0 -192 -244 -348q214 -327 340 -467q68 -79 108.5 -108t85.5 -35q11 -2 29 -4t21 -2
q13 -1 20.5 -8t7.5 -15q0 -18 -37 -18h-159q-154 0 -235 14.5t-134 48.5q-74 49 -176 213q-35 58 -67.5 114.5t-51 87.5t-33.5 54q-4 11 -20 11l-123 2q-14 0 -14 -15v-108q0 -167 8 -273q4 -40 17.5 -63t51.5 -33q20 -6 84 -12q15 -1 23 -5t9 -7.5t1 -10.5q0 -18 -35 -18
q-55 0 -140.5 1.5t-148 3t-63.5 1.5q-5 0 -121.5 -3t-150.5 -3q-37 0 -37 22q0 8 9 13.5t24 5.5q4 1 27.5 2.5t35.5 3.5q27 6 40.5 30t16.5 72q11 102 11 367zM625 1184v-473q0 -15 16 -27q49 -25 152 -25q70 0 112 29q27 21 45.5 75.5t18.5 135.5q0 72 -19 128.5t-47.5 90
t-65.5 55t-69 29.5t-63 8q-58 0 -68 -6q-12 -6 -12 -20z" />
    <glyph glyph-name="s" unicode="s" horiz-adv-x="1079" 
d="M446 -31q-191 0 -309 51q-41 15 -41 72q0 183 10 275q5 39 25 39q16 0 19 -27q6 -46 6 -47q18 -111 111.5 -176.5t211.5 -65.5q114 0 165.5 43.5t51.5 106.5q0 60 -35.5 110t-144.5 123l-113 76q-159 110 -218.5 208t-59.5 226q2 159 131.5 268t345.5 109q113 0 223 -21
q78 -16 93 -20q13 -3 17.5 -9t4.5 -18q-6 -198 -6 -260q0 -43 -21 -43q-19 0 -24 35q-5 51 -29 98q-30 53 -99 90t-157 37q-106 0 -154.5 -48t-48.5 -114q0 -59 32 -103t108 -91l104 -66q197 -124 267.5 -217t70.5 -227q0 -109 -51 -197t-154 -145q-129 -72 -332 -72z" />
    <glyph glyph-name="t" unicode="t" horiz-adv-x="1394" 
d="M864 1192v-682q0 -268 8 -369q8 -88 74 -98q29 -5 74 -8q41 -5 41 -25q0 -16 -43 -16q-76 0 -210.5 3t-135.5 3q-10 0 -129 -3t-150 -3q-43 0 -43 18q0 19 37 23q3 0 24 2t35 4q29 6 42 29t18 65q8 76 8 375v682q-218 0 -278 -4q-74 -4 -107.5 -26t-50.5 -77
q-8 -24 -15 -38q-9 -27 -22 -27q-20 0 -16 37q7 62 41 260q6 39 24 39q4 0 20.5 -5.5t32.5 -7.5q21 -5 89.5 -9.5t119.5 -4.5h819q61 0 111 8q14 2 27.5 5t20.5 4.5t11 1.5q14 0 16.5 -9.5t2.5 -45.5v-7q0 -9 -3 -61t-6.5 -111t-4.5 -76q-3 -37 -23 -37q-17 0 -20 31
q0 13 -1.5 26.5t-1.5 16.5q-5 46 -31 72t-93 33q-198 12 -312 12z" />
    <glyph glyph-name="u" unicode="u" horiz-adv-x="1624" 
d="M582 821v-268q0 -183 30 -271.5t111 -140.5q76 -43 168 -43q115 0 188 58q25 20 44 47t30 65.5t18 70t9.5 84t3 82.5t0.5 89v18v209q0 300 -4 357q-3 53 -19 77t-59 31q-18 3 -68 8q-33 2 -33 23q0 18 41 18q63 0 154 -3t102 -3q9 0 101 3t147 3q39 0 39 -20
q0 -16 -31 -21q-44 -5 -57 -8q-37 -6 -50.5 -28.5t-16.5 -79.5q-7 -100 -7 -357v-170q0 -76 -2 -125.5t-12.5 -119.5t-30 -120t-57 -104.5t-90.5 -95.5q-151 -117 -381 -117q-297 0 -444 119q-82 64 -127.5 173.5t-45.5 289.5v270q0 322 -4 379q-3 37 -14.5 56t-40.5 26
q-4 1 -80 12q-33 5 -33 23t45 18q33 0 102 -1.5t124.5 -3t56.5 -1.5q3 0 68.5 1.5t142 3t105.5 1.5q45 0 45 -18t-31 -23q-5 -1 -19 -2t-26.5 -2.5t-20.5 -3.5q-36 -7 -50 -32.5t-17 -71.5q-4 -57 -4 -361z" />
    <glyph glyph-name="v" unicode="v" horiz-adv-x="1398" 
d="M600 76l-487 1077q-38 83 -60.5 105t-70.5 30q0 1 -8 2t-19.5 2t-15.5 2q-25 3 -25 21q0 20 35 20q53 0 150.5 -3t131.5 -3q24 0 131.5 3t196.5 3q41 0 41 -20q0 -8 -7.5 -14t-19.5 -7q-11 -1 -24 -3t-21 -3q-61 -4 -61 -43q0 -34 41 -131q48 -120 151 -360.5t125 -294.5
q96 200 303 698q27 69 27 88t-10 27.5t-37 11.5q-28 5 -74 10q-35 5 -35 21q0 20 39 20q77 0 162 -3t86 -3q11 0 95.5 3t117.5 3q41 0 41 -20q0 -18 -35 -21q-56 -5 -78 -14q-31 -13 -54.5 -45t-63.5 -111q-61 -126 -250 -530q-127 -268 -246 -500q-39 -75 -59 -100t-39 -25
q-18 0 -32.5 21.5t-41.5 85.5z" />
    <glyph glyph-name="w" unicode="w" horiz-adv-x="2072" 
d="M539 90l-414 1067q-26 65 -45.5 92.5t-52.5 34.5q-11 3 -29.5 5.5t-24.5 4.5q-28 5 -28 23t39 18q68 0 169.5 -3t106.5 -3q21 0 129 3t164 3q39 0 39 -20q0 -9 -9 -15t-22 -6q-29 -3 -45 -6q-39 -6 -39 -39q0 -24 47 -157q18 -59 94 -274t119 -322l318 774q24 61 51 61
q6 0 10.5 -1.5t9 -6t8 -8.5t8 -12.5t8 -15.5t9 -19t10.5 -21l365 -758q84 234 190 586q39 136 39 156q0 29 -21 43t-91 20q-15 0 -25 5.5t-10 13.5q0 22 37 22q54 0 109.5 -1.5t89.5 -3t38 -1.5t45 1t93 2t81 1q39 0 39 -18q0 -19 -30 -21q-42 -5 -58 -8q-42 -8 -70.5 -46.5
t-64.5 -139.5q-258 -686 -391 -1014q-3 -6 -8 -19t-8 -19.5t-8 -17.5t-8 -17t-8 -14.5t-9 -12.5l-8.5 -8.5t-10 -6.5t-10.5 -2q-19 0 -33.5 19.5t-38.5 70.5l-364 727q-64 -152 -320 -712q-26 -53 -46 -79t-40 -26q-18 0 -31.5 23.5t-43.5 97.5z" />
    <glyph glyph-name="x" unicode="x" horiz-adv-x="1386" 
d="M178 162l363 475l-316 500q-27 44 -40.5 63t-35.5 41t-45.5 32t-58.5 15q-27 2 -49 6q-29 4 -29 23q0 18 39 18q9 0 38 -1.5t94.5 -3t162.5 -1.5q9 0 128.5 3t178.5 3q41 0 41 -20q0 -18 -31 -21q-34 -5 -45 -8q-26 -6 -26 -29q0 -10 6 -24t17.5 -33.5t15.5 -28.5
q43 -72 107.5 -174.5t78.5 -126.5q64 91 209 314q29 44 29 69t-39 33q-14 3 -66 8q-12 0 -20 6t-8 15q0 20 34 20q40 0 126 -3t106 -3q21 0 100.5 3t126.5 3q14 0 23.5 -5.5t9.5 -12.5q0 -20 -33 -23q-17 -2 -43 -6q-44 -10 -77.5 -35.5t-96.5 -107.5l-303 -391
q90 -146 230 -362.5t190 -280.5q49 -61 108 -70q8 -1 70 -6q33 -2 33 -23q0 -18 -37 -18q-424 0 -584 10q-16 1 -24.5 7.5t-8.5 13.5q0 14 23 22q38 8 22 39q-30 55 -130.5 220.5t-118.5 197.5l-240 -363q-27 -41 -27 -63q0 -14 12.5 -25t34.5 -14q6 -1 26.5 -2t29.5 -2
q28 0 28 -21q0 -20 -36 -20q-15 0 -124.5 3t-150.5 3q-40 0 -126 -3t-87 -3q-37 0 -37 20q0 21 31 21q37 0 55 6q43 8 81 34t85 87z" />
    <glyph glyph-name="y" unicode="y" horiz-adv-x="1318" 
d="M487 317v138q0 46 -8 80.5t-15 50t-30 57.5q-63 111 -163.5 275t-145.5 227q-55 84 -82 107t-74 32q-9 3 -39 8q-26 5 -26 23q0 20 37 20q45 0 153 -3t142 -3q3 0 105.5 3t174.5 3q35 0 35 -18t-33 -25q-67 -7 -67 -35q0 -15 18 -49q134 -236 281 -487q176 312 237 442
q4 9 12 25.5t10.5 22.5t5.5 16t3 18q0 19 -14 30t-58 17q-28 4 -28 23q0 20 40 20q39 0 109.5 -3t108.5 -3q10 0 103 3t112 3q34 0 34 -16q0 -22 -34 -25q-34 -2 -70 -12q-25 -9 -45 -23.5t-30.5 -26.5t-31.5 -38q-46 -55 -188.5 -294t-161.5 -294q-28 -79 -28 -164v-125
q0 -89 4 -165q5 -55 19 -74q17 -25 56 -33q23 -5 105 -10q14 0 22.5 -6.5t8.5 -14.5q0 -20 -33 -20q-76 0 -210 3t-157 3q-22 0 -136 -3t-161 -3q-37 0 -37 22q0 19 35 19q44 3 64 8q35 9 49 32t16 64q6 76 6 178z" />
    <glyph glyph-name="z" unicode="z" horiz-adv-x="1363" 
d="M559 135h334q110 0 177 14.5t102 43t53 79.5q6 13 16 54q9 26 27 26q16 0 16 -30q0 -37 -19 -137t-36 -146q-3 -11 -5 -17t-7.5 -13.5t-14.5 -11t-22 -3.5q-137 0 -475.5 4t-575.5 4q-33 0 -33 18q0 17 31 64q411 627 707 1108h-293q-112 0 -167.5 -7t-90.5 -26
q-66 -35 -101 -151q-10 -33 -30 -33q-19 0 -19 31q0 14 8.5 74.5t19 133.5t13.5 101q5 33 23 33q3 0 26.5 -6t48.5 -7q174 -6 361 -6h618q27 0 27 -16q0 -18 -23 -58q-190 -312 -696 -1120z" />
    <glyph glyph-name="braceleft" unicode="{" horiz-adv-x="915" 
d="M270 748q41 -8 79.5 -21t81 -39.5t73 -61.5t51 -89.5t20.5 -120.5q0 -20 -2 -106t-2 -173q0 -162 43.5 -232t149.5 -85q10 -2 19.5 -7.5t9.5 -11.5q0 -22 -43 -22q-94 0 -181 24t-143 76q-52 50 -84.5 125t-32.5 207q0 66 9.5 183t9.5 167q0 83 -37.5 116.5t-116.5 41.5
q-43 7 -43 24q0 22 47 27q34 5 53.5 11t45.5 23t38.5 52t12.5 88q0 45 -9.5 138.5t-9.5 152.5q0 78 27.5 145t73 112.5t104.5 78.5t121 48t123 15q33 0 33 -18q0 -4 -7 -11t-20 -10q-48 -11 -79 -26.5t-59 -45t-41.5 -80t-13.5 -124.5q0 -60 2 -125t2 -84q0 -153 -86.5 -245
t-218.5 -117z" />
    <glyph glyph-name="bar" unicode="|" horiz-adv-x="997" 
d="M571 -512h-139v2048h139v-2048z" />
    <glyph glyph-name="braceright" unicode="}" horiz-adv-x="915" 
d="M645 741q-41 8 -79.5 21t-81 39.5t-73 61.5t-51 89.5t-20.5 120.5q0 20 2 77t2 144q0 80 -11 133t-37.5 86t-59 50.5t-86.5 31.5q-27 9 -27 19q0 20 45 20q82 0 174 -24.5t145 -75.5q27 -25 43 -44.5t36 -56t30 -89.5t10 -123q0 -66 -9 -153.5t-9 -137.5q0 -83 38 -119.5
t107 -44.5q43 -8 48 -16q1 -2 1 -5q0 -4 -2 -7t-5.5 -4.5l-7 -3t-9 -2.5t-9.5 -1.5t-10 -1t-8 -0.5q-25 -4 -44 -11.5t-44.5 -26.5t-40 -58.5t-14.5 -96.5q0 -33 9 -156.5t9 -197.5q0 -78 -27 -145t-71.5 -112.5t-102 -78.5t-119 -48t-122.5 -15q-39 0 -39 20q0 14 31 21
q188 23 188 274q0 58 -2 156.5t-2 124.5q0 124 93 231.5t212 134.5z" />
    <glyph glyph-name="asciitilde" unicode="~" horiz-adv-x="1411" 
d="M362 524l-180 -2q-10 181 62.5 277t212.5 96q65 0 118 -17.5t158 -72.5q24 -11 66.5 -31t59 -27t40 -14t43.5 -8q52 -2 80 35t29 133h178q4 -102 -15.5 -177t-57 -116.5t-84.5 -60.5t-105 -19q-72 0 -128 17t-157 71q-66 35 -89.5 46.5t-60 23.5t-65.5 12
q-100 0 -105 -166z" />
    <glyph glyph-name="uni00A0" unicode="&#xa0;" horiz-adv-x="573" 
 />
    <glyph glyph-name="exclamdown" unicode="&#xa1;" horiz-adv-x="790" 
d="M356 1087q27 0 39 -65q3 -17 26.5 -161.5t41.5 -244.5q40 -211 69 -331q2 -6 46 -135q6 -16 -5 -27q-36 -50 -174 -104t-227 -54q-27 0 -27 25q0 11 43 266q24 131 65 398.5t58 349.5q9 48 19 65.5t26 17.5zM356 1571q86 0 130 -54.5t44 -121.5q0 -71 -44 -122.5
t-130 -51.5q-76 0 -125 47t-49 121q0 78 48.5 130t125.5 52z" />
    <glyph glyph-name="cent" unicode="&#xa2;" horiz-adv-x="1366" 
d="M924 1180l-95 -818q36 -8 74 -8q86 0 157.5 50t92.5 143q7 37 27 37q14 0 14 -31q0 -12 -12.5 -112.5t-18.5 -127.5q-8 -32 -33 -43q-41 -19 -119.5 -31t-150.5 -12q-31 0 -47 2l-29 -262q-3 -19 -16 -22q-45 -15 -90 -15q-19 0 -16 17l34 291q-83 12 -156.5 37.5
t-142.5 70t-118.5 104t-79 144.5t-29.5 186q0 229 178 371q83 69 214 109.5t257 37.5l23 205q1 5 1 5.5t1.5 4t3 4.5t4.5 2.5t8 2.5q40 8 92 8q13 0 11 -12l-27 -222q145 -13 246 -51q10 -6 12 -10.5t2 -17.5q0 -82 -12 -256q-3 -35 -19 -35q-19 0 -22 35q-11 95 -41 133
q-29 35 -68.5 57t-109.5 29zM713 393l92 789q-146 -13 -214.5 -116t-68.5 -257q0 -324 191 -416z" />
    <glyph glyph-name="sterling" unicode="&#xa3;" horiz-adv-x="1366" 
d="M377 205l534 6q144 1 205.5 43.5t79.5 140.5q2 11 9 20t14 9t12.5 -10t5.5 -27q0 -24 -16 -164.5t-27 -191.5q-6 -28 -24 -34.5t-101 -6.5q-66 0 -255.5 5.5t-276.5 4.5h-465q-60 0 -60 20q0 27 45 37q106 32 155.5 137.5t78.5 331.5l24 207h-24q-101 0 -168 -6
q-12 -1 -17 6t0 19q4 11 37 88q10 18 29 18q2 0 53 -1t92 -1h13l10 96q24 171 82.5 294t163.5 206q148 119 383 119q136 0 207 -23q44 -9 55 -10q14 -3 14 -29q0 -217 -10 -284q-2 -11 -8 -21t-13 -10q-8 0 -15 10.5t-7 26.5q0 27 -13.5 68.5t-35.5 70.5q-67 94 -197 94
q-116 0 -173 -81t-81 -269l-12.5 -125t-13.5 -133h137q85 0 178 6q12 2 16 -4.5t-2 -26.5q-16 -48 -39 -88q-8 -13 -15 -16.5t-28 -3.5q-3 0 -42 2t-95 4t-100 2h-25q-2 -13 -5 -38.5t-5 -37.5q-16 -121 -83 -239.5t-185 -206.5z" />
    <glyph glyph-name="currency" unicode="&#xa4;" horiz-adv-x="1296" 
d="M1192 1214l-180 -161q78 -109 78 -271q3 -176 -82 -282l176 -170l-107 -107l-153 180q-49 -48 -124 -71t-153 -23q-164 3 -262 84l-154 -170l-102 107l168 159q-37 49 -59.5 123t-22.5 156q0 167 84 285l-174 161l106 113l156 -176q105 88 270 88q78 0 149 -22.5
t118 -63.5l161 174zM915 780q0 84 -27.5 153t-89 114t-147.5 45q-128 0 -197 -90t-69 -230q0 -153 77.5 -233t188.5 -80q113 0 188.5 80t75.5 241z" />
    <glyph glyph-name="yen" unicode="&#xa5;" horiz-adv-x="1366" 
d="M410 825h73q-198 363 -288 502q-66 101 -93 129.5t-73 40.5q-7 2 -37 6q-33 6 -33 21q0 18 41 18q47 0 152.5 -3t142.5 -3q3 0 108.5 3t182.5 3q39 0 39 -16q0 -21 -41 -27q-70 -9 -70 -43q0 -7 10 -26.5t15 -32.5q14 -35 50 -104.5t68 -128t75.5 -137t51.5 -93.5
q100 180 199 409q27 65 27 107q0 40 -80 51q-37 4 -37 25q0 16 43 16q44 0 118.5 -3t112.5 -3q13 0 96.5 3t104.5 3q41 0 41 -16q0 -20 -43 -23q-64 -7 -100 -34.5t-74 -88.5q-136 -230 -307 -555h92q118 0 180 4q23 0 12 -28q-16 -52 -24 -66q-7 -12 -14.5 -15t-24.5 -3
q-3 0 -43 0.5t-96.5 1t-100.5 0.5v-146h111q103 0 180 5q23 0 12 -31q-12 -41 -30 -66q-4 -8 -9.5 -11.5t-10.5 -4t-17 -0.5q-3 0 -42 0.5t-94.5 1t-99.5 0.5q3 -193 13 -317q3 -45 19 -70t58 -35q25 -5 86 -10q43 0 43 -21q0 -20 -43 -20q-61 0 -149 1.5t-153 3t-70 1.5
q-3 0 -62.5 -1.5t-130 -3t-100.5 -1.5q-51 0 -51 20q0 21 41 21q40 4 63 8q53 7 64 111q13 119 10 313h-115q-129 0 -168 -4q-12 -1 -16.5 6t0.5 18q7 22 31 70q10 18 28 18q3 0 55.5 -1t92.5 -1h92v146h-115q-123 0 -168 -4q-12 -1 -16.5 6t0.5 18q23 59 31 70q10 18 26 18
q3 0 55.5 -1t92.5 -1z" />
    <glyph glyph-name="brokenbar" unicode="&#xa6;" horiz-adv-x="997" 
d="M571 666h-139v716h139v-716zM571 -358h-139v716h139v-716z" />
    <glyph glyph-name="section" unicode="&#xa7;" horiz-adv-x="1216" 
d="M322 973q-68 67 -92.5 124.5t-24.5 133.5q0 142 118 241t320 99q97 0 201 -17q68 -12 90 -10q9 1 13.5 -4t4.5 -14q0 -6 -7 -94t-7 -177q0 -38 -20 -38q-16 0 -19 28q-13 98 -51 139q-82 86 -223 86q-87 0 -131.5 -43t-44.5 -110q0 -57 38 -97.5t113 -86.5q65 -40 70 -43
q13 -8 54.5 -33.5t56 -35t50.5 -33.5t50.5 -37t43 -38t40.5 -43t30.5 -45.5t26 -53.5t14 -58t6.5 -66q0 -120 -54.5 -209.5t-143.5 -146.5q57 -61 78.5 -115.5t21.5 -124.5q0 -163 -129 -272t-375 -109q-72 0 -154.5 14.5t-135.5 39.5q-33 15 -33 59q0 195 12 262
q5 41 25 41q16 0 16 -33q0 -2 6 -71q14 -96 102 -150.5t201 -54.5q101 0 155 48.5t54 115.5q0 68 -40.5 114.5t-158.5 126.5l-34 25q-73 47 -119.5 81t-94 77t-73.5 83t-42.5 91t-16.5 110q0 110 64 196t149 128zM383 928q-80 -63 -80 -154q0 -59 48 -109t181 -141l70 -47
q133 -77 180 -121q27 19 44.5 57.5t17.5 80.5q0 31 -7.5 55t-31.5 57.5t-74 75.5t-131 98l-68 43q-66 40 -149 105z" />
    <glyph glyph-name="dieresis" unicode="&#xa8;" horiz-adv-x="819" 
d="M637 1511q-54 0 -83.5 35.5t-29.5 79.5q0 40 31.5 75.5t81.5 35.5q48 0 79.5 -30t31.5 -77q0 -52 -30.5 -85.5t-80.5 -33.5zM178 1511q-52 0 -79 35.5t-27 79.5q0 42 29 75.5t79 33.5q48 0 80.5 -30t32.5 -77q0 -52 -31.5 -84.5t-83.5 -32.5z" />
    <glyph glyph-name="copyright" unicode="&#xa9;" horiz-adv-x="1894" 
d="M920 -35q-240 0 -424 101t-284.5 283t-100.5 417q0 164 62.5 312.5t169.5 257t257.5 172t319.5 63.5q238 0 421.5 -103t283 -286t99.5 -416q0 -165 -62.5 -313t-169.5 -255t-256.5 -170t-315.5 -63zM201 768q0 -154 57 -291.5t153.5 -235t229 -154t279.5 -56.5
q217 0 379.5 95.5t247.5 262t85 379.5q0 152 -54 288t-147 235.5t-226.5 157.5t-284.5 58q-156 0 -289.5 -54.5t-228 -151t-148 -234.5t-53.5 -299zM1032 332q-270 0 -416 121q-145 123 -145 335q0 73 32.5 160.5t108.5 151.5q140 117 381 117q49 0 162 -15q89 -14 109 -14
q12 0 12 -17q0 -1 -4 -75q-1 -18 -2 -71.5t-2 -68.5q-3 -26 -17 -26q-7 0 -12.5 6.5t-5.5 17.5q0 74 -43 119q-68 72 -209 72q-93 0 -154 -55q-48 -40 -73 -114.5t-25 -166.5q0 -169 80 -280t215 -111q66 0 102.5 13t69.5 46q25 28 41 88q7 27 23 27q10 0 10 -23
q0 -45 -27 -178q-3 -25 -29 -33q-65 -26 -182 -26z" />
    <glyph glyph-name="ordfeminine" unicode="&#xaa;" horiz-adv-x="1032" 
d="M817 1114l-4 -258q0 -104 66 -104q33 0 43 4q22 7 22 -11q0 -8 -12 -24q-60 -68 -178 -68q-138 0 -162 103q-90 -103 -219 -103q-102 0 -160.5 61t-58.5 150q0 211 436 269v22q0 156 -162 156q-166 0 -192 -125q-7 -23 -21 -23t-14 27q0 16 3 73t3 78q0 24 4 31t18 12
q49 22 95 37q91 29 184 29q309 0 309 -336zM586 885l4 151q-213 -31 -213 -141q0 -47 31 -71.5t71 -24.5q56 0 88 35q19 19 19 51z" />
    <glyph glyph-name="guillemotleft" unicode="&#xab;" horiz-adv-x="1300" 
d="M639 303l-100 -115q-2 -2 -6 -6.5t-6 -6t-4.5 -3.5t-5 -3t-5.5 -1q-7 0 -23.5 18.5t-66.5 79.5q-73 84 -301 312q-39 39 -39 51t41 47q4 4 101.5 87.5t198.5 168t165 133.5q39 27 47 27q12 0 12 -11q0 -15 -26 -41q-15 -18 -101.5 -116t-147 -170t-69.5 -92
q18 -28 74.5 -83.5t131.5 -125.5t107 -103q31 -29 31 -33q0 -6 -8 -14zM1161 303l-100 -115q-3 -3 -7 -6.5t-6.5 -5.5l-5 -4t-5 -3t-5.5 -1q-7 0 -72 76q-11 14 -18 22q-35 40 -143 152t-156 160q-39 39 -39 51q0 11 39 47q4 4 102 87.5t199 168t164 133.5q39 27 49 27
t10 -11q0 -17 -24 -41q-11 -13 -56.5 -64t-81.5 -92t-78.5 -90.5t-70 -84t-33.5 -47.5q18 -28 75.5 -83.5t132.5 -125.5t108 -103q30 -30 30 -33q0 -6 -8 -14z" />
    <glyph glyph-name="logicalnot" unicode="&#xac;" horiz-adv-x="1419" 
d="M1229 256h-197v389h-844v201h1041v-590z" />
    <glyph glyph-name="uni00AD" unicode="&#xad;" horiz-adv-x="829" 
d="M156 750h516q36 0 55.5 -3t25 -7.5t5.5 -12.5q0 -14 -25 -26.5t-92 -30.5q-317 -80 -440 -129q-23 -10 -48.5 -23t-40 -19.5t-24.5 -6.5q-13 0 -15 11.5t3 28.5l30 179q4 27 12.5 33t37.5 6z" />
    <glyph glyph-name="registered" unicode="&#xae;" horiz-adv-x="421" 
d="M211 1198q-81 0 -134.5 53.5t-53.5 132.5q0 82 53 134.5t135 52.5t135 -52.5t53 -134.5q0 -79 -53.5 -132.5t-134.5 -53.5zM213 1231q65 0 108.5 44t43.5 111q0 68 -43.5 111t-110.5 43t-110.5 -43t-43.5 -111q0 -67 44 -111t112 -44zM141 1372v41q0 41 -2 51
q-3 13 -20 15q-10 3 -10 6q0 4 10 4q8 0 24.5 -1t18.5 -1q8 0 24.5 1t24.5 1q72 0 72 -53q0 -34 -37 -52l24 -34q25 -36 49 -43q9 -3 9 -7q0 -6 -23 -6q-16 0 -24 1.5t-21 9.5t-27 26l-26 39h-23v-6q0 -19 2 -39q0 -15 21 -18q12 0 12 -4q0 -7 -12 -7q-6 0 -22 1t-21 1
q-2 0 -19.5 -1t-25.5 -1q-10 0 -10 4q0 7 10 7q22 0 22 20v45zM184 1468v-77q6 -2 19 -2t22 6q13 10 13 28q0 21 -10.5 34t-30.5 13q-9 0 -13 -2z" />
    <glyph glyph-name="macron" unicode="&#xaf;" horiz-adv-x="819" 
d="M694 1542h-612q-10 0 -10 17q2 19 9.5 54t14.5 46q4 14 19 14h616q15 0 12 -16q-8 -69 -22 -98q-9 -17 -27 -17z" />
    <glyph glyph-name="degree" unicode="&#xb0;" horiz-adv-x="675" 
d="M584 1219q-1 -105 -76 -174.5t-174 -69.5q-106 0 -174 69t-68 166q0 103 71.5 173.5t176.5 70.5q110 0 177 -68.5t67 -166.5zM477 1219q0 59 -37 105t-108 46q-64 0 -101.5 -48t-37.5 -108q0 -61 41 -104t100 -43q61 0 102 44t41 108z" />
    <glyph glyph-name="plusminus" unicode="&#xb1;" horiz-adv-x="1419" 
d="M1229 43h-1041v199h1041v-199zM1229 756h-416v-418h-203v418h-422v200h420v406h203v-406h418v-200z" />
    <glyph glyph-name="twosuperior" unicode="&#xb2;" horiz-adv-x="833" 
d="M606 987h-559q-20 0 -20 17q0 11 39 47q4 3 42.5 32t58.5 44.5t62 52t67 65t58.5 72.5t52.5 84.5t32.5 91.5t13.5 102q0 69 -13.5 114.5t-39 66t-50.5 27.5t-59 7q-73 0 -121 -51q-40 -43 -43 -112q-2 -33 -18 -33t-19 28q-6 36 -6 185q0 21 16 28q111 48 267 48
q180 0 276 -72.5t96 -192.5q0 -59 -20 -113.5t-46.5 -92t-74.5 -80t-80 -65t-89.5 -60t-78.5 -51.5q-4 -3 -3.5 -6t5.5 -3h72q94 0 207 11q62 7 88 29.5t39 68.5q7 27 22 27t15 -29q0 -16 -16 -120.5t-25 -131.5q-4 -23 -32.5 -29t-115.5 -6z" />
    <glyph glyph-name="threesuperior" unicode="&#xb3;" horiz-adv-x="866" 
d="M328 967q-155 0 -217 32q-16 6 -24.5 17.5t-8.5 23.5q-3 39 -1 103t5 86q3 24 20 24q15 0 15 -24q5 -83 57.5 -131.5t144.5 -48.5q90 0 142.5 50.5t52.5 155.5q0 94 -47 140t-133 59q-49 8 -49 25q0 6 8.5 12.5t19.5 7.5q91 14 128.5 49t37.5 119q0 63 -41 105.5
t-114 42.5q-157 0 -174 -173q0 -28 -19 -28q-16 0 -16 26q0 21 -3 98t-3 89q0 13 4.5 18t17.5 10q120 48 281 48q91 0 160 -18t106.5 -47.5t55.5 -62t18 -67.5q0 -50 -25.5 -90t-67.5 -63.5t-80.5 -36.5t-78.5 -19q-3 -3 0 -6q299 -46 299 -231q0 -124 -127.5 -209.5
t-343.5 -85.5z" />
    <glyph glyph-name="acute" unicode="&#xb4;" horiz-adv-x="819" 
d="M678 1804q70 -75 96 -145q10 -35 -10 -35q-33 4 -119 -25q-170 -53 -303 -118q-32 -16 -47 -19q-16 4 -16 15t18 36q59 69 146.5 158.5t125.5 118.5q42 37 66 37q14 0 43 -23z" />
    <glyph glyph-name="uni00B5" unicode="&#xb5;" horiz-adv-x="1495" 
d="M268 295v31q0 131 -5.5 357t-10.5 294q0 13 3.5 17.5t14.5 4.5q217 0 324 13q8 1 11 -4t1 -15q-14 -229 -14 -518v-106q0 -96 30.5 -144.5t102.5 -48.5t117 56.5t45 144.5v63q0 288 -17 537q-3 22 19 22q221 0 323 13q10 1 14.5 -4t2.5 -15q-17 -208 -17 -493v-238
q0 -164 111 -164q32 0 76 13q16 5 22 0t2 -15t-14 -20q-106 -96 -283 -96q-187 0 -221 159q-52 -83 -116 -121t-148 -38q-38 0 -79 13.5t-66 41.5q23 -253 84 -361q14 -23 -7 -39q-72 -60 -159 -91t-123 -31q-22 0 -30.5 16t-8.5 57q0 56 8 340t8 369z" />
    <glyph glyph-name="paragraph" unicode="&#xb6;" horiz-adv-x="1634" 
d="M840 152v1212q0 33 -1.5 46.5t-12 24.5t-33.5 11q-88 0 -142 -86q-65 -101 -65 -305q0 -316 112 -389q13 -8 30.5 -15t24.5 -12.5t7 -15.5q0 -31 -92 -31q-223 0 -371 130.5t-147 340.5q0 100 38.5 182t98.5 139q166 158 516 158q8 0 111 -3t157 -3h66q7 0 134.5 3
t178.5 3q43 0 43 -20q0 -19 -35 -21q-8 -1 -34 -3t-35 -3q-50 -7 -69 -30t-22 -74q-4 -66 -4 -443v-805q0 -334 4 -391q0 -26 -61 -58t-100 -32q-13 0 -13 10q0 5 1.5 14.5t3.5 27.5t4 40q12 122 12 389v1223q0 20 -1.5 31.5t-7 24t-19 18.5t-34.5 6q-39 0 -65 -18.5
t-29 -57.5q-2 -40 -2 -422v-796q0 -414 6 -478q4 -23 -59.5 -55.5t-102.5 -32.5q-7 0 -12 3t-4 10q2 7 8 86q17 195 17 467z" />
    <glyph glyph-name="periodcentered" unicode="&#xb7;" horiz-adv-x="606" 
d="M160 831q103 0 274 -49q45 -15 45 -32q0 -24 -10 -37q-66 -113 -217 -238q-39 -29 -53 -29q-11 0 -11 13q0 6 13 43q28 71 28 160q0 34 -7 58.5t-20.5 39.5t-22 21t-23.5 14q-23 10 -23 22q0 14 27 14z" />
    <glyph glyph-name="cedilla" unicode="&#xb8;" horiz-adv-x="819" 
d="M451 2h102q-101 -70 -174 -125q79 -8 132.5 -24t89.5 -53t36 -93q0 -24 -9 -48t-36.5 -52.5t-70.5 -50t-118.5 -36t-173.5 -14.5q-15 0 -27 6t-12 15q0 14 46 20q33 5 62.5 15t59 27t47 45t17.5 63q0 50 -39.5 83t-132.5 34q-33 5 -33 16q0 6 27 29z" />
    <glyph glyph-name="onesuperior" unicode="&#xb9;" horiz-adv-x="677" 
d="M260 1354v299q0 32 -6 43.5t-23 11.5q-29 0 -94 -20q-37 -11 -39 -11q-20 0 -20 17q0 15 20 22q87 38 210.5 97t180.5 90q27 16 33 16q13 0 13 -21q0 -2 -1 -19t-2.5 -45.5t-2.5 -65t-2 -87t-1 -100.5v-227q0 -211 9 -273q5 -26 16.5 -40t40.5 -17q50 -5 59 -6
q25 -3 25 -17q0 -18 -31 -18q-41 0 -105.5 1t-113 2t-49.5 1t-48 -1t-109 -2t-99 -1q-31 0 -31 16q0 8 8 13.5t21 5.5q6 1 29.5 2.5t41.5 3.5q36 4 49 20t15 48q6 80 6 262z" />
    <glyph glyph-name="ordmasculine" unicode="&#xba;" horiz-adv-x="1054" 
d="M526 653q-104 0 -189 34.5t-137 91.5t-80 127t-28 145q0 72 27 140.5t79 127.5t140 95t199 36q188 0 307 -107t119 -274q0 -181 -120 -298.5t-317 -117.5zM702 1030q0 135 -52 220t-142 85q-156 0 -156 -262q0 -129 53.5 -217t141.5 -88q28 0 52.5 11t49 38t39 81.5
t14.5 131.5z" />
    <glyph glyph-name="guillemotright" unicode="&#xbb;" horiz-adv-x="1300" 
d="M662 948l98 115q4 3 8.5 8t7 7t5.5 3.5t7 1.5q6 0 17 -11.5t47 -54.5q17 -20 27 -32q38 -43 152 -160t149 -151q37 -40 37 -51q0 -12 -39 -45q-281 -247 -465 -392q-37 -26 -47 -26q-13 0 -13 10q0 8 10 21.5t17 19.5q9 11 99 114t149 174t69 91q-18 28 -75.5 84
t-131 124.5t-106.5 102.5q-31 29 -31 33q0 5 9 14zM139 948l101 115q5 4 10.5 10t8.5 8t7 2q7 0 21 -15.5t71 -82.5q36 -40 147 -155t152 -156q39 -39 39 -51t-41 -45q-281 -247 -465 -392q-32 -26 -47 -26q-12 0 -12 10q0 14 27 41q2 2 55.5 63t83 95.5t75.5 88t72.5 86.5
t32.5 46q-18 28 -75 83.5t-132 125t-108 102.5q-31 29 -31 33q0 6 8 14z" />
    <glyph glyph-name="onequarter" unicode="&#xbc;" horiz-adv-x="1978" 
d="M1556 1612l74 -49q12 -6 2 -21l-1093 -1573q-9 -9 -17 -2l-76 45q-11 8 0 23l1092 1571q9 12 18 6zM297 1024v299q0 31 -6.5 43t-22.5 12q-29 0 -94 -20q-34 -10 -41 -10q-18 0 -18 16q0 15 20 22q87 38 210.5 97t180.5 90q27 16 33 16q12 0 12 -20q0 -2 -1 -19t-2 -46
t-2 -65.5t-2 -87t-1 -100.5v-227q0 -217 6 -272q5 -26 17 -40.5t43 -17.5q30 -3 57 -6t27 -16q0 -3 -2 -7t-9.5 -8t-19.5 -4q-41 0 -106 1t-114 2l-48 1q-1 0 -48.5 -1t-109.5 -2t-98 -1q-31 0 -31 17q0 18 27 18q6 1 30 2.5t43 3.5q36 4 49 20t15 48q6 80 6 262zM1671 717
v-375h70q78 3 102 27q7 7 16 3.5t9 -14.5q0 -14 -16 -61.5t-25 -63.5q-6 -11 -14 -15t-29 -5q-27 -2 -113 -2q0 -61 4 -107q3 -22 5.5 -32t15 -21t35.5 -14q23 -2 49 -2q11 -1 17.5 -7.5t6.5 -13.5q0 -18 -28 -18q-42 0 -139 2t-107 2q-21 0 -95 -2t-112 -2q-27 0 -27 18
q0 6 7.5 12.5t17.5 6.5q5 1 21.5 1t25.5 1q20 2 32.5 8t18.5 18.5t7.5 19t3.5 25.5q2 31 2 105q-263 0 -365 8q-45 3 -45 17q0 19 31 53q47 58 236 266t290 307q56 53 74 53q11 0 15.5 -11t4.5 -42q0 -5 -0.5 -23t-1 -50t-0.5 -72zM1432 342v246q-35 -34 -110.5 -119.5
t-104.5 -124.5q41 -2 215 -2z" />
    <glyph glyph-name="onehalf" unicode="&#xbd;" horiz-adv-x="2062" 
d="M1489 1612l74 -49q12 -6 2 -21l-1094 -1573q-9 -9 -16 -2l-76 45q-11 8 0 23l1091 1571q9 12 19 6zM297 1024v299q0 31 -6.5 43t-22.5 12q-29 0 -94 -20q-34 -10 -41 -10q-18 0 -18 16q0 15 20 22q87 38 210.5 97t180.5 90q27 16 33 16q12 0 12 -20q0 -2 -1 -19t-2 -46
t-2 -65.5t-2 -87t-1 -100.5v-227q0 -217 6 -272q5 -26 17 -40.5t43 -17.5q30 -3 57 -6t27 -16q0 -3 -2 -7t-9.5 -8t-19.5 -4q-41 0 -106 1t-114 2l-48 1q-1 0 -48.5 -1t-109.5 -2t-98 -1q-31 0 -31 17q0 18 27 18q6 1 30 2.5t43 3.5q36 4 49 20t15 48q6 80 6 262zM1763 -2
h-559q-20 0 -20 16t39 47q1 1 42.5 32t59 45t61 52.5t67 65.5t58.5 72.5t53 85.5t32 91.5t14 102.5q0 68 -13.5 113t-39 65.5t-50.5 27.5t-59 7q-73 0 -121 -51q-36 -39 -43 -113q-2 -32 -18 -32t-19 28q-6 36 -6 185q0 21 16 28q108 47 267 47q181 0 276.5 -72t95.5 -192
q0 -45 -11 -86.5t-28.5 -75t-45.5 -66.5t-54 -57t-63 -51.5t-64 -45.5t-64.5 -42.5t-58.5 -38.5q-4 -3 -3.5 -5.5t5.5 -2.5h72q107 0 207 10q62 7 88 30t39 69q7 26 22 26t15 -28q0 -16 -16 -120.5t-25 -131.5q-4 -23 -32.5 -29t-115.5 -6z" />
    <glyph glyph-name="threequarters" unicode="&#xbe;" horiz-adv-x="2023" 
d="M1606 1612l73 -49q12 -6 2 -21l-1093 -1573q-10 -11 -19 -2l-73 45q-11 8 0 23l1091 1571q9 12 19 6zM1716 717v-375h70q78 3 102 27q8 7 16.5 3.5t8.5 -14.5q0 -14 -16 -61.5t-25 -63.5q-6 -11 -14 -15t-29 -5q-27 -2 -113 -2q0 -61 4 -107q3 -22 5.5 -32t15 -21
t35.5 -14q23 -2 49 -2q11 -1 17.5 -7.5t6.5 -13.5q0 -18 -28 -18q-42 0 -139 2t-107 2q-21 0 -95 -2t-112 -2q-27 0 -27 18q0 6 7.5 12.5t17.5 6.5q5 1 21.5 1t25.5 1q20 2 32.5 8t18.5 18.5t7.5 19t3.5 25.5q2 31 2 105q-263 0 -365 8q-45 3 -45 17q0 19 31 53
q47 58 236 266t290 307q56 53 74 53q11 0 15.5 -11t4.5 -42q0 -5 -0.5 -23t-1 -50t-0.5 -72zM1477 342v246q-35 -34 -110.5 -119.5t-104.5 -124.5q41 -2 215 -2zM369 637q-151 0 -219 33q-16 6 -24.5 17.5t-8.5 23.5q-1 36 1 101.5t5 86.5q3 25 18 25q17 0 17 -25
q3 -83 56 -131.5t146 -48.5q88 0 140.5 51t52.5 156q0 94 -47 139.5t-133 58.5q-47 8 -47 25q0 6 8.5 12t17.5 8q92 14 129 48.5t37 119.5q0 63 -40.5 105.5t-112.5 42.5q-162 0 -175 -172q-4 -29 -20 -29q-14 0 -14 27q-9 175 -9 186q0 13 5 18.5t18 10.5q43 17 120.5 32
t162.5 15q91 0 159.5 -18t105.5 -47.5t55 -62t18 -67.5q0 -50 -25.5 -90t-67.5 -63.5t-80.5 -36.5t-78.5 -19q-3 -3 0 -6q299 -46 299 -231q0 -124 -126.5 -209.5t-342.5 -85.5z" />
    <glyph glyph-name="questiondown" unicode="&#xbf;" horiz-adv-x="1226" 
d="M602 -35q-118 0 -208.5 23t-142 57.5t-84.5 82t-43.5 90t-10.5 87.5q0 70 18 127t68.5 118.5t87 97t125.5 113.5q30 26 45 40q127 112 127 174q0 31 -23 82q-12 24 -12 37q0 4 4 9t12 5q40 0 137 -66q117 -84 117 -172q0 -44 -35 -100q-17 -25 -35.5 -48.5t-31 -38
t-36 -40t-34.5 -37.5q-103 -120 -139.5 -184t-36.5 -137q0 -87 53 -139t156 -52q136 0 221 99q62 69 76 174q6 32 22 32q15 0 21 -34q8 -68 8 -271q0 -22 -22 -35q-60 -36 -164 -65t-240 -29zM631 1571q84 0 128 -53.5t44 -120.5q0 -66 -44.5 -121t-129.5 -55
q-76 0 -124 45.5t-48 119.5q0 78 49.5 131.5t124.5 53.5z" />
    <glyph glyph-name="Agrave" unicode="&#xc0;" horiz-adv-x="1523" 
d="M899 418h-469q-12 0 -18 -15l-64 -167q-33 -87 -33 -132q0 -29 15 -43.5t47 -17.5q14 -2 42 -5t30 -3q36 0 36 -21q0 -20 -43 -20q-44 0 -128.5 3t-141.5 3q-2 0 -100.5 -3t-159.5 -3q-41 0 -41 20q0 21 39 21q42 3 65 8q51 10 85.5 52.5t70.5 123.5l547 1237
q29 66 48 92.5t36 26.5q15 0 31 -22.5t43 -79.5q28 -60 249 -562t287 -649q52 -118 92 -164.5t95 -54.5q5 -1 65 -8q39 0 39 -21q0 -20 -53 -20q-173 0 -566 6q-45 0 -45 18q0 19 29 25q35 6 25 37l-138 326q-3 12 -16 12zM489 582h351q15 0 10 10l-180 438q-8 18 -15 0
l-174 -438q-3 -10 8 -10zM864 1702q0 -16 -24 -16q-41 0 -193 70.5t-266 139.5q-57 37 -57 56q0 12 26 26q48 31 146 66q30 10 43 10q11 0 36 -39q25 -42 254 -266q15 -13 25 -25t10 -22z" />
    <glyph glyph-name="Aacute" unicode="&#xc1;" horiz-adv-x="1523" 
d="M899 418h-469q-12 0 -18 -15l-64 -167q-33 -87 -33 -132q0 -29 15 -43.5t47 -17.5q14 -2 42 -5t30 -3q36 0 36 -21q0 -20 -43 -20q-44 0 -128.5 3t-141.5 3q-2 0 -100.5 -3t-159.5 -3q-41 0 -41 20q0 21 39 21q42 3 65 8q51 10 85.5 52.5t70.5 123.5l547 1237
q29 66 48 92.5t36 26.5q15 0 31 -22.5t43 -79.5q28 -60 249 -562t287 -649q52 -118 92 -164.5t95 -54.5q5 -1 65 -8q39 0 39 -21q0 -20 -53 -20q-173 0 -566 6q-45 0 -45 18q0 19 29 25q35 6 25 37l-138 326q-3 12 -16 12zM489 582h351q15 0 10 10l-180 438q-8 18 -15 0
l-174 -438q-3 -10 8 -10zM1063 2030q68 -68 96 -150q13 -33 -10 -33q-49 0 -119 -24q-193 -63 -307 -119q-32 -16 -47 -16q-17 0 -17 14q0 9 21 37q55 66 144.5 155.5t129.5 120.5q46 37 68 37q17 0 41 -22z" />
    <glyph glyph-name="Acircumflex" unicode="&#xc2;" horiz-adv-x="1523" 
d="M899 418h-469q-12 0 -18 -15l-64 -167q-33 -87 -33 -132q0 -29 15 -43.5t47 -17.5q14 -2 42 -5t30 -3q36 0 36 -21q0 -20 -43 -20q-44 0 -128.5 3t-141.5 3q-2 0 -100.5 -3t-159.5 -3q-41 0 -41 20q0 21 39 21q42 3 65 8q51 10 85.5 52.5t70.5 123.5l547 1237
q29 66 48 92.5t36 26.5q15 0 31 -22.5t43 -79.5q28 -60 249 -562t287 -649q52 -118 92 -164.5t95 -54.5q5 -1 65 -8q39 0 39 -21q0 -20 -53 -20q-173 0 -566 6q-45 0 -45 18q0 19 29 25q35 6 25 37l-138 326q-3 12 -16 12zM489 582h351q15 0 10 10l-180 438q-8 18 -15 0
l-174 -438q-3 -10 8 -10zM799 2001q12 0 47 -21q18 -12 272 -186q39 -24 39 -39q0 -10 -12 -20l-105 -76q-18 -12 -36 6q-76 65 -218 154q-22 18 -38 18q-9 0 -41 -14q-62 -29 -267 -148q-32 -20 -49 -20q-14 0 -14 14q1 14 22 31q4 4 167 130t184 144q36 27 49 27z" />
    <glyph glyph-name="Atilde" unicode="&#xc3;" horiz-adv-x="1523" 
d="M899 418h-469q-12 0 -18 -15l-64 -167q-33 -87 -33 -132q0 -29 15 -43.5t47 -17.5q14 -2 42 -5t30 -3q36 0 36 -21q0 -20 -43 -20q-44 0 -128.5 3t-141.5 3q-2 0 -100.5 -3t-159.5 -3q-41 0 -41 20q0 21 39 21q42 3 65 8q51 10 85.5 52.5t70.5 123.5l547 1237
q29 66 48 92.5t36 26.5q15 0 31 -22.5t43 -79.5q28 -60 249 -562t287 -649q52 -118 92 -164.5t95 -54.5q5 -1 65 -8q39 0 39 -21q0 -20 -53 -20q-173 0 -566 6q-45 0 -45 18q0 19 29 25q35 6 25 37l-138 326q-3 12 -16 12zM489 582h351q15 0 10 10l-180 438q-8 18 -15 0
l-174 -438q-3 -10 8 -10zM942 1700q-60 0 -189 52t-178 52q-43 0 -77 -12.5t-51.5 -27t-45.5 -44.5q-14 -16 -28 -16q-23 0 0 39q50 89 117.5 142.5t132.5 53.5q51 0 84 -8.5t106 -36.5q17 -6 51 -19.5t45 -17.5t31.5 -10t34 -8t29.5 -2q54 0 87.5 20t86.5 76q11 11 20 11
q10 0 10 -12t-8 -25q-115 -207 -258 -207z" />
    <glyph glyph-name="Adieresis" unicode="&#xc4;" horiz-adv-x="1523" 
d="M899 418h-469q-12 0 -18 -15l-64 -167q-33 -87 -33 -132q0 -29 15 -43.5t47 -17.5q14 -2 42 -5t30 -3q36 0 36 -21q0 -20 -43 -20q-44 0 -128.5 3t-141.5 3q-2 0 -100.5 -3t-159.5 -3q-41 0 -41 20q0 21 39 21q42 3 65 8q51 10 85.5 52.5t70.5 123.5l547 1237
q29 66 48 92.5t36 26.5q15 0 31 -22.5t43 -79.5q28 -60 249 -562t287 -649q52 -118 92 -164.5t95 -54.5q5 -1 65 -8q39 0 39 -21q0 -20 -53 -20q-173 0 -566 6q-45 0 -45 18q0 19 29 25q35 6 25 37l-138 326q-3 12 -16 12zM489 582h351q15 0 10 10l-180 438q-8 18 -15 0
l-174 -438q-3 -10 8 -10zM1001 1710q-53 0 -81.5 35t-28.5 78q0 40 31.5 76t81.5 36q47 0 78.5 -30t31.5 -78q0 -51 -31 -84t-82 -33zM504 1710q-53 0 -81 34.5t-28 78.5q0 42 30 75t81 33q48 0 80 -29.5t32 -74.5q0 -52 -31 -84.5t-83 -32.5z" />
    <glyph glyph-name="Aring" unicode="&#xc5;" horiz-adv-x="1523" 
d="M899 418h-469q-12 0 -18 -15l-64 -167q-33 -87 -33 -132q0 -29 15 -43.5t47 -17.5q14 -2 42 -5t30 -3q36 0 36 -21q0 -20 -43 -20q-44 0 -128.5 3t-141.5 3q-2 0 -100.5 -3t-159.5 -3q-41 0 -41 20q0 21 39 21q42 3 65 8q51 10 85.5 52.5t70.5 123.5l547 1237
q29 66 48 92.5t36 26.5q15 0 31 -22.5t43 -79.5q28 -60 249 -562t287 -649q52 -118 92 -164.5t95 -54.5q5 -1 65 -8q39 0 39 -21q0 -20 -53 -20q-173 0 -566 6q-45 0 -45 18q0 19 29 25q35 6 25 37l-138 326q-3 12 -16 12zM489 582h351q15 0 10 10l-180 438q-8 18 -15 0
l-174 -438q-3 -10 8 -10zM705 1651q-78 0 -126.5 37t-48.5 92q0 83 79 137.5t202 54.5q90 0 139 -36t49 -93q-3 -87 -91.5 -139.5t-202.5 -52.5zM662 1817q0 -48 34.5 -77.5t73.5 -29.5q48 0 74 28.5t26 73.5q0 40 -30.5 70.5t-81.5 30.5q-38 0 -67 -24t-29 -72z" />
    <glyph glyph-name="AE" unicode="&#xc6;" horiz-adv-x="2093" 
d="M776 823h221q19 0 19 17v340q0 10 1 38t1 46q-13 -17 -125.5 -202t-128.5 -214q-6 -15 -3 -20t15 -5zM997 686h-301q-22 0 -32 -14q-8 -12 -103 -172t-115 -191q-92 -156 -92 -192q0 -66 127 -76q50 -8 56 -13q4 -4 4 -10q0 -16 -9.5 -20t-33.5 -4q-70 0 -145.5 2
t-122 3.5t-62.5 0.5q-28 0 -122 -3t-120 -3q-47 0 -47 20q0 21 53 21q105 0 269 227q40 60 381 583t368 566q22 36 35.5 58.5t22 36.5t12.5 20q14 17 41 14q74 -4 184 -4q23 0 259 1t251 1q71 0 111 8q28 8 35 8q10 0 10 -18q0 -3 -2.5 -17t-5.5 -38.5t-5 -50.5
q-9 -130 -12 -187q0 -45 -20 -45q-18 0 -21 31q-4 51 -12 78q-11 37 -36 52t-95 21q-125 11 -311 11q-15 0 -15 -21v-522q0 -25 15 -25q99 -3 297 2q75 3 104 11t41 28q18 35 33 35q14 0 14 -25q0 -7 -7 -65t-9 -104q-4 -90 -4 -158q0 -49 -19 -49q-16 0 -22 32q-1 8 -2 24
t-2 24q-6 48 -35.5 72t-100.5 28q-118 8 -290 8q-13 0 -13 -27v-129q0 -35 -1 -111t-1 -110q1 -39 4.5 -62.5t14 -44.5t26.5 -32t46.5 -18.5t69 -10t97.5 -2.5q131 0 191 25q44 18 66.5 51.5t35.5 108.5q6 38 23 38q18 0 18 -51t-12 -142.5t-21 -125.5q-10 -38 -29 -46.5
t-81 -8.5q-158 0 -356.5 6t-288.5 6q-45 0 -135 -3t-148 -3q-59 0 -59 20q0 19 38 21q64 9 68 10q39 10 52 57.5t16 153.5q6 123 6 311v99q0 8 -5 14t-14 6z" />
    <glyph glyph-name="Ccedilla" unicode="&#xc7;" horiz-adv-x="1679" 
d="M811 -141l160 110q-368 27 -600 221q-141 121 -199.5 272t-58.5 331q0 59 11.5 124.5t37.5 144t79 157.5t126 141q131 112 292 161.5t385 49.5q124 0 291 -25q162 -25 203 -26q11 -1 16 -5.5t6 -9t1 -12.5q0 -6 -2 -24.5t-4.5 -49.5t-4.5 -61q-2 -34 -3 -124t-3 -116
q-3 -49 -24 -49q-22 0 -25 43q-5 122 -78 201q-56 59 -162.5 94t-250.5 35q-189 0 -302 -99q-180 -157 -180 -518q0 -316 158 -510t416 -194q138 0 217 20.5t135 83.5q45 48 68 137q8 34 14 46t18 12q17 0 17 -37q0 -27 -15 -133t-30 -178q-3 -23 -15.5 -37t-38.5 -23
q-117 -47 -352 -47h-35q-48 -32 -123 -88q123 -12 190.5 -50t67.5 -120q0 -24 -10 -48t-38.5 -52.5t-72.5 -50t-121 -36t-175 -14.5q-15 0 -27 6t-12 15q0 14 45 20q32 5 61.5 15t59 27t47.5 45t18 63q0 50 -40 83t-134 34q-31 4 -31 16q0 6 27 29z" />
    <glyph glyph-name="Egrave" unicode="&#xc8;" horiz-adv-x="1400" 
d="M319 588v360q0 342 -6 441q-3 46 -19.5 71.5t-53.5 34.5q-11 2 -38 4t-30 2q-37 3 -37 23q0 18 45 18q62 0 162.5 -3t142.5 -3q23 0 293 1t285 1q71 0 111 8q28 8 32 8q13 0 13 -18q0 -4 -1.5 -13.5t-4 -30.5t-5.5 -46q-6 -40 -16 -219q0 -12 -6 -20.5t-15 -8.5
q-17 0 -20 29q0 35 -10 71q-8 38 -36.5 57t-98.5 25q-125 11 -308 11q-16 0 -16 -21v-450q0 -25 16 -25q97 -3 297 2q77 3 105 11.5t45 35.5q18 27 29 27q12 0 12 -25q0 -8 -3 -34t-7 -66t-7 -74q-2 -47 -2 -170q0 -39 -18 -39q-16 0 -23 33q-1 8 -3 23.5t-3 23.5
q-6 47 -36 71.5t-101 28.5q-128 9 -289 9q-12 0 -12 -27v-141v-269q1 -58 9 -88.5t36 -52.5t76.5 -28.5t136.5 -6.5q128 0 190 25q42 17 64.5 54t36.5 108q6 36 24 36q19 0 19 -45q0 -55 -12 -147t-21 -127q-10 -38 -27.5 -46.5t-76.5 -8.5q-150 0 -351.5 6t-300.5 6
q-46 0 -141 -3t-154 -3q-49 0 -49 20q0 21 41 21q44 4 62 8q40 6 53 55.5t16 159.5q6 123 6 330zM870 1694q0 -17 -22 -17q-41 0 -194.5 71t-264.5 140q-59 36 -59 56q0 12 26 26q46 28 146 66q30 10 45 10q10 0 35 -39q30 -48 254 -266q34 -30 34 -47z" />
    <glyph glyph-name="Eacute" unicode="&#xc9;" horiz-adv-x="1400" 
d="M319 588v360q0 342 -6 441q-3 46 -19.5 71.5t-53.5 34.5q-11 2 -38 4t-30 2q-37 3 -37 23q0 18 45 18q62 0 162.5 -3t142.5 -3q23 0 293 1t285 1q71 0 111 8q28 8 32 8q13 0 13 -18q0 -4 -1.5 -13.5t-4 -30.5t-5.5 -46q-6 -40 -16 -219q0 -12 -6 -20.5t-15 -8.5
q-17 0 -20 29q0 35 -10 71q-8 38 -36.5 57t-98.5 25q-125 11 -308 11q-16 0 -16 -21v-450q0 -25 16 -25q97 -3 297 2q77 3 105 11.5t45 35.5q18 27 29 27q12 0 12 -25q0 -8 -3 -34t-7 -66t-7 -74q-2 -47 -2 -170q0 -39 -18 -39q-16 0 -23 33q-1 8 -3 23.5t-3 23.5
q-6 47 -36 71.5t-101 28.5q-128 9 -289 9q-12 0 -12 -27v-141v-269q1 -58 9 -88.5t36 -52.5t76.5 -28.5t136.5 -6.5q128 0 190 25q42 17 64.5 54t36.5 108q6 36 24 36q19 0 19 -45q0 -55 -12 -147t-21 -127q-10 -38 -27.5 -46.5t-76.5 -8.5q-150 0 -351.5 6t-300.5 6
q-46 0 -141 -3t-154 -3q-49 0 -49 20q0 21 41 21q44 4 62 8q40 6 53 55.5t16 159.5q6 123 6 330zM1020 2013q70 -70 98 -147q11 -33 -12 -33q-35 0 -119 -25q-182 -60 -307 -118q-38 -19 -45 -19q-8 0 -13.5 4.5t-5.5 10.5q0 12 21 36q55 66 144.5 155.5t131.5 123.5
q43 35 66 35q18 0 41 -23z" />
    <glyph glyph-name="Ecircumflex" unicode="&#xca;" horiz-adv-x="1400" 
d="M319 588v360q0 342 -6 441q-3 46 -19.5 71.5t-53.5 34.5q-11 2 -38 4t-30 2q-37 3 -37 23q0 18 45 18q62 0 162.5 -3t142.5 -3q23 0 293 1t285 1q71 0 111 8q28 8 32 8q13 0 13 -18q0 -4 -1.5 -13.5t-4 -30.5t-5.5 -46q-6 -40 -16 -219q0 -12 -6 -20.5t-15 -8.5
q-17 0 -20 29q0 35 -10 71q-8 38 -36.5 57t-98.5 25q-125 11 -308 11q-16 0 -16 -21v-450q0 -25 16 -25q97 -3 297 2q77 3 105 11.5t45 35.5q18 27 29 27q12 0 12 -25q0 -8 -3 -34t-7 -66t-7 -74q-2 -47 -2 -170q0 -39 -18 -39q-16 0 -23 33q-1 8 -3 23.5t-3 23.5
q-6 47 -36 71.5t-101 28.5q-128 9 -289 9q-12 0 -12 -27v-141v-269q1 -58 9 -88.5t36 -52.5t76.5 -28.5t136.5 -6.5q128 0 190 25q42 17 64.5 54t36.5 108q6 36 24 36q19 0 19 -45q0 -55 -12 -147t-21 -127q-10 -38 -27.5 -46.5t-76.5 -8.5q-150 0 -351.5 6t-300.5 6
q-46 0 -141 -3t-154 -3q-49 0 -49 20q0 21 41 21q44 4 62 8q40 6 53 55.5t16 159.5q6 123 6 330zM752 2025q11 0 47 -22q108 -70 274 -186q37 -24 37 -39q0 -11 -12 -21l-105 -76q-17 -13 -37 7q-64 55 -215 155q-30 17 -39 17q-8 0 -43 -15q-82 -37 -264 -147
q-36 -21 -51 -21q-14 0 -13 14t23 31q16 13 174.5 137.5t173.5 137.5q33 28 50 28z" />
    <glyph glyph-name="Edieresis" unicode="&#xcb;" horiz-adv-x="1400" 
d="M319 588v360q0 342 -6 441q-3 46 -19.5 71.5t-53.5 34.5q-11 2 -38 4t-30 2q-37 3 -37 23q0 18 45 18q62 0 162.5 -3t142.5 -3q23 0 293 1t285 1q71 0 111 8q28 8 32 8q13 0 13 -18q0 -4 -1.5 -13.5t-4 -30.5t-5.5 -46q-6 -40 -16 -219q0 -12 -6 -20.5t-15 -8.5
q-17 0 -20 29q0 35 -10 71q-8 38 -36.5 57t-98.5 25q-125 11 -308 11q-16 0 -16 -21v-450q0 -25 16 -25q97 -3 297 2q77 3 105 11.5t45 35.5q18 27 29 27q12 0 12 -25q0 -8 -3 -34t-7 -66t-7 -74q-2 -47 -2 -170q0 -39 -18 -39q-16 0 -23 33q-1 8 -3 23.5t-3 23.5
q-6 47 -36 71.5t-101 28.5q-128 9 -289 9q-12 0 -12 -27v-141v-269q1 -58 9 -88.5t36 -52.5t76.5 -28.5t136.5 -6.5q128 0 190 25q42 17 64.5 54t36.5 108q6 36 24 36q19 0 19 -45q0 -55 -12 -147t-21 -127q-10 -38 -27.5 -46.5t-76.5 -8.5q-150 0 -351.5 6t-300.5 6
q-46 0 -141 -3t-154 -3q-49 0 -49 20q0 21 41 21q44 4 62 8q40 6 53 55.5t16 159.5q6 123 6 330zM973 1712q-53 0 -83 36t-30 79q0 40 31.5 76t81.5 36q48 0 80 -30.5t32 -77.5q0 -52 -30.5 -85.5t-81.5 -33.5zM475 1712q-54 0 -81 35t-27 80q0 42 29.5 75t80.5 33
q48 0 80.5 -29.5t32.5 -76.5q0 -52 -31.5 -84.5t-83.5 -32.5z" />
    <glyph glyph-name="Igrave" unicode="&#xcc;" horiz-adv-x="1001" 
d="M319 588v360q0 377 -6 443q-6 91 -71 102q-16 5 -62 8q-39 0 -39 23q0 18 45 18q36 0 107 -1.5t129 -3t63 -1.5q2 0 146 3t188 3q45 0 45 -20q0 -21 -39 -21q-57 -6 -59 -6q-40 -8 -57.5 -32t-20.5 -79q-6 -66 -6 -436v-360q0 -330 10 -438q3 -45 19.5 -70t58.5 -35
q23 -5 90 -10q43 0 43 -21q0 -20 -43 -20q-61 0 -151 1.5t-156 3t-70 1.5q-3 0 -62.5 -1.5t-130.5 -3t-102 -1.5q-49 0 -49 20q0 21 41 21q42 4 64 8q52 7 63 111q12 129 12 434zM592 1690q0 -17 -23 -17q-41 0 -193.5 71t-264.5 140q-60 36 -60 55q0 12 27 27q48 29 145 66
q30 10 45 10q10 0 35 -39q30 -48 254 -266q35 -30 35 -47z" />
    <glyph glyph-name="Iacute" unicode="&#xcd;" horiz-adv-x="1001" 
d="M319 588v360q0 377 -6 443q-6 91 -71 102q-16 5 -62 8q-39 0 -39 23q0 18 45 18q36 0 107 -1.5t129 -3t63 -1.5q2 0 146 3t188 3q45 0 45 -20q0 -21 -39 -21q-57 -6 -59 -6q-40 -8 -57.5 -32t-20.5 -79q-6 -66 -6 -436v-360q0 -330 10 -438q3 -45 19.5 -70t58.5 -35
q23 -5 90 -10q43 0 43 -21q0 -20 -43 -20q-61 0 -151 1.5t-156 3t-70 1.5q-3 0 -62.5 -1.5t-130.5 -3t-102 -1.5q-49 0 -49 20q0 21 41 21q42 4 64 8q52 7 63 111q12 129 12 434zM805 2013q64 -55 98 -147q11 -33 -12 -33q-33 0 -117 -25q-199 -64 -309 -118
q-31 -17 -45 -17q-17 0 -17 13q0 8 19 38q55 65 145 154.5t131 122.5q43 35 66 35q20 0 41 -23z" />
    <glyph glyph-name="Icircumflex" unicode="&#xce;" horiz-adv-x="1001" 
d="M319 588v360q0 377 -6 443q-6 91 -71 102q-16 5 -62 8q-39 0 -39 23q0 18 45 18q36 0 107 -1.5t129 -3t63 -1.5q2 0 146 3t188 3q45 0 45 -20q0 -21 -39 -21q-57 -6 -59 -6q-40 -8 -57.5 -32t-20.5 -79q-6 -66 -6 -436v-360q0 -330 10 -438q3 -45 19.5 -70t58.5 -35
q23 -5 90 -10q43 0 43 -21q0 -20 -43 -20q-61 0 -151 1.5t-156 3t-70 1.5q-3 0 -62.5 -1.5t-130.5 -3t-102 -1.5q-49 0 -49 20q0 21 41 21q42 4 64 8q52 7 63 111q12 129 12 434zM532 2023q16 0 48 -22q32 -21 142.5 -95.5t131.5 -88.5q37 -27 37 -39q0 -11 -12 -23
l-105 -74q-16 -13 -37 5q-78 70 -215 155q-24 17 -39 17q-13 0 -43 -13q-85 -41 -264 -149q-37 -19 -51 -19q-15 0 -13 14t23 31q3 3 89.5 70.5t164.5 129t94 75.5q35 26 49 26z" />
    <glyph glyph-name="Idieresis" unicode="&#xcf;" horiz-adv-x="1001" 
d="M319 588v360q0 377 -6 443q-6 91 -71 102q-16 5 -62 8q-39 0 -39 23q0 18 45 18q36 0 107 -1.5t129 -3t63 -1.5q2 0 146 3t188 3q45 0 45 -20q0 -21 -39 -21q-57 -6 -59 -6q-40 -8 -57.5 -32t-20.5 -79q-6 -66 -6 -436v-360q0 -330 10 -438q3 -45 19.5 -70t58.5 -35
q23 -5 90 -10q43 0 43 -21q0 -20 -43 -20q-61 0 -151 1.5t-156 3t-70 1.5q-3 0 -62.5 -1.5t-130.5 -3t-102 -1.5q-49 0 -49 20q0 21 41 21q42 4 64 8q52 7 63 111q12 129 12 434zM748 1712q-54 0 -83.5 35.5t-29.5 79.5q0 40 31.5 76t81.5 36q48 0 80 -29.5t32 -78.5
q0 -52 -30.5 -85.5t-81.5 -33.5zM250 1712q-54 0 -81.5 35.5t-27.5 79.5q0 42 30 75t81 33q48 0 80.5 -29.5t32.5 -76.5q0 -52 -31.5 -84.5t-83.5 -32.5z" />
    <glyph glyph-name="Eth" unicode="&#xd0;" horiz-adv-x="1957" 
d="M340 870v78q0 358 -4 424q-2 26 -5.5 43.5t-12.5 36.5t-27.5 29.5t-46.5 13.5q-7 1 -31 2.5t-45 3.5q-39 3 -39 23q0 18 47 18q21 0 150.5 -3t179.5 -3q30 0 72.5 0.5t118 1.5t141.5 2q288 -2 484 -52.5t327 -184.5q87 -87 141.5 -218.5t54.5 -302.5q0 -175 -64.5 -322.5
t-160.5 -238.5q-239 -244 -700 -244q-118 0 -220 9q-140 14 -202 14q-99 0 -156 -2q-114 -4 -141 -4q-41 0 -41 20q0 21 39 21q30 2 63 8q59 9 68 125q10 163 10 420v174h-205q-13 0 -16.5 4t-1.5 18l8 64q1 13 6 17.5t16 4.5h193zM702 762v-43q0 -299 5 -397
q3 -66 10 -98.5t24 -49.5q28 -34 85.5 -54t125.5 -20q116 0 206 32t167 112q133 133 133 481q0 133 -42 254t-111 215q-50 66 -112.5 112t-126.5 69t-119.5 32.5t-112.5 9.5q-82 0 -111 -16q-18 -9 -18 -37q1 -37 -1 -171t-2 -212v-111h355q12 0 15 -4t3 -18l-8 -66
q-1 -12 -6 -16t-17 -4h-342z" />
    <glyph glyph-name="Ntilde" unicode="&#xd1;" horiz-adv-x="1931" 
d="M264 295q4 180 8 608t11 572q3 98 34 98q12 0 26.5 -8.5t53.5 -40.5q25 -21 54 -46.5t83.5 -75.5t111 -102t175.5 -161.5t238 -218.5q89 -82 180.5 -168.5t147 -138.5t77.5 -72l-12 768q-3 95 -20.5 133.5t-75.5 48.5q-27 6 -90 10q-37 0 -37 21q0 20 41 20t148.5 -3
t148.5 -3q17 0 101 3t132 3q45 0 45 -18q0 -9 -9 -16t-26 -7q-41 -3 -51 -6q-51 -6 -70.5 -40.5t-23.5 -129.5q-7 -184 -11.5 -387t-7.5 -459.5t-6 -386.5q0 -74 -9.5 -100.5t-31.5 -26.5q-24 0 -74.5 37t-154.5 129q-268 237 -442 397q-166 150 -469 443l20 -699
q3 -117 16 -163t54 -60q15 -5 108 -14q41 -3 41 -21q0 -20 -49 -20q-37 0 -120 2.5t-144 3.5q-19 0 -127 -3t-152 -3q-45 0 -45 20q0 21 39 21q5 1 30 2.5t38 3.5q58 9 74.5 57t21.5 197zM1165 1716q-59 0 -187 52.5t-177 52.5q-62 0 -98.5 -20.5t-75.5 -63.5
q-15 -17 -29 -17q-23 0 0 39q50 89 117.5 143t132.5 54q51 0 84 -8.5t104 -36.5q21 -8 52 -20t45 -17t33 -11t33.5 -8t29.5 -2q54 0 87 20t87 77q10 10 20 10t10 -12t-8 -25q-118 -207 -260 -207z" />
    <glyph glyph-name="Ograve" unicode="&#xd2;" horiz-adv-x="1947" 
d="M975 -35q-146 0 -273 33.5t-219.5 92.5t-164.5 136.5t-116 167.5t-66.5 182t-22.5 185q0 125 32.5 241.5t103 220.5t171.5 180.5t247.5 121.5t321.5 45q190 0 350.5 -61t268 -165t167.5 -243t60 -295q0 -179 -59.5 -333t-168.5 -267t-272 -177.5t-360 -64.5zM1036 96
q32 0 62 4.5t70.5 20t74.5 41.5t68.5 73.5t59 111t39.5 158.5t15 212q0 87 -12.5 172t-37.5 167.5t-66 152t-95 122.5t-129 83t-163 30q-50 0 -95 -10.5t-92 -34.5t-84 -68.5t-67 -107.5t-46 -157.5t-16 -211.5q0 -118 19.5 -227.5t60.5 -206.5t100.5 -168.5t145 -113.5
t188.5 -42zM1122 1710q0 -16 -24 -16q-41 0 -193 71t-266 140q-57 37 -57 55q0 13 26 27q60 39 146 65q30 10 43 10q12 0 37 -39q26 -44 253 -266q35 -31 35 -47z" />
    <glyph glyph-name="Oacute" unicode="&#xd3;" horiz-adv-x="1947" 
d="M975 -35q-146 0 -273 33.5t-219.5 92.5t-164.5 136.5t-116 167.5t-66.5 182t-22.5 185q0 125 32.5 241.5t103 220.5t171.5 180.5t247.5 121.5t321.5 45q190 0 350.5 -61t268 -165t167.5 -243t60 -295q0 -179 -59.5 -333t-168.5 -267t-272 -177.5t-360 -64.5zM1036 96
q32 0 62 4.5t70.5 20t74.5 41.5t68.5 73.5t59 111t39.5 158.5t15 212q0 87 -12.5 172t-37.5 167.5t-66 152t-95 122.5t-129 83t-163 30q-50 0 -95 -10.5t-92 -34.5t-84 -68.5t-67 -107.5t-46 -157.5t-16 -211.5q0 -118 19.5 -227.5t60.5 -206.5t100.5 -168.5t145 -113.5
t188.5 -42zM1237 2019q68 -68 98 -149q10 -31 -12 -31q-40 0 -119 -27q-199 -65 -307 -118q-43 -17 -45 -17q-7 0 -12.5 4.5t-5.5 10.5q0 10 20 37q57 67 146.5 156.5t129.5 119.5q46 37 66 37q15 0 41 -23z" />
    <glyph glyph-name="Ocircumflex" unicode="&#xd4;" horiz-adv-x="1947" 
d="M975 -35q-146 0 -273 33.5t-219.5 92.5t-164.5 136.5t-116 167.5t-66.5 182t-22.5 185q0 125 32.5 241.5t103 220.5t171.5 180.5t247.5 121.5t321.5 45q190 0 350.5 -61t268 -165t167.5 -243t60 -295q0 -179 -59.5 -333t-168.5 -267t-272 -177.5t-360 -64.5zM1036 96
q32 0 62 4.5t70.5 20t74.5 41.5t68.5 73.5t59 111t39.5 158.5t15 212q0 87 -12.5 172t-37.5 167.5t-66 152t-95 122.5t-129 83t-163 30q-50 0 -95 -10.5t-92 -34.5t-84 -68.5t-67 -107.5t-46 -157.5t-16 -211.5q0 -118 19.5 -227.5t60.5 -206.5t100.5 -168.5t145 -113.5
t188.5 -42zM1006 2028q12 0 47 -21q31 -20 140 -95.5t132 -90.5q39 -25 39 -39q0 -12 -14 -21l-103 -75q-19 -12 -37 6q-74 64 -217 153q-27 19 -39 19q-6 0 -41 -15q-66 -31 -266 -147q-34 -21 -51 -21q-13 0 -12 14t22 31q13 11 172 134.5t178 140.5q34 27 50 27z" />
    <glyph glyph-name="Otilde" unicode="&#xd5;" horiz-adv-x="1947" 
d="M975 -35q-146 0 -273 33.5t-219.5 92.5t-164.5 136.5t-116 167.5t-66.5 182t-22.5 185q0 125 32.5 241.5t103 220.5t171.5 180.5t247.5 121.5t321.5 45q190 0 350.5 -61t268 -165t167.5 -243t60 -295q0 -179 -59.5 -333t-168.5 -267t-272 -177.5t-360 -64.5zM1036 96
q32 0 62 4.5t70.5 20t74.5 41.5t68.5 73.5t59 111t39.5 158.5t15 212q0 87 -12.5 172t-37.5 167.5t-66 152t-95 122.5t-129 83t-163 30q-50 0 -95 -10.5t-92 -34.5t-84 -68.5t-67 -107.5t-46 -157.5t-16 -211.5q0 -118 19.5 -227.5t60.5 -206.5t100.5 -168.5t145 -113.5
t188.5 -42zM1130 1737q-60 0 -188.5 51t-177.5 51q-62 0 -97.5 -19.5t-76.5 -62.5q-14 -16 -29 -16q-6 0 -9 4t-1 12.5t10 20.5q52 91 118.5 143.5t133.5 52.5q50 0 82.5 -8.5t105.5 -36.5q23 -8 62 -22.5t53 -19t35.5 -9t40.5 -4.5q54 0 87 19.5t87 74.5q8 10 23 10
q10 -1 9 -11t-9 -23q-113 -207 -259 -207z" />
    <glyph glyph-name="Odieresis" unicode="&#xd6;" horiz-adv-x="1947" 
d="M975 -35q-146 0 -273 33.5t-219.5 92.5t-164.5 136.5t-116 167.5t-66.5 182t-22.5 185q0 125 32.5 241.5t103 220.5t171.5 180.5t247.5 121.5t321.5 45q190 0 350.5 -61t268 -165t167.5 -243t60 -295q0 -179 -59.5 -333t-168.5 -267t-272 -177.5t-360 -64.5zM1036 96
q32 0 62 4.5t70.5 20t74.5 41.5t68.5 73.5t59 111t39.5 158.5t15 212q0 87 -12.5 172t-37.5 167.5t-66 152t-95 122.5t-129 83t-163 30q-50 0 -95 -10.5t-92 -34.5t-84 -68.5t-67 -107.5t-46 -157.5t-16 -211.5q0 -118 19.5 -227.5t60.5 -206.5t100.5 -168.5t145 -113.5
t188.5 -42zM1221 1733q-54 0 -83.5 34.5t-29.5 77.5q0 40 31.5 76.5t81.5 36.5q48 0 79 -30t31 -79q0 -51 -30 -83.5t-80 -32.5zM721 1733q-53 0 -80 34t-27 78q0 42 29 75.5t80 33.5q48 0 80.5 -30t32.5 -75q0 -51 -31.5 -83.5t-83.5 -32.5z" />
    <glyph glyph-name="multiply" unicode="&#xd7;" horiz-adv-x="1419" 
d="M1044 252l-335 330l-338 -338l-160 162l342 335l-342 338l160 160l338 -336l340 342l159 -160l-340 -342l332 -335z" />
    <glyph glyph-name="Oslash" unicode="&#xd8;" horiz-adv-x="1947" 
d="M1692 1528l-127 -146q130 -105 200 -254.5t70 -320.5q0 -179 -59.5 -333t-168.5 -267t-272 -177.5t-360 -64.5q-303 0 -512 139l-162 -186q-9 -9 -18 0l-62 55q-6 10 -5.5 14.5t9.5 16.5l148 170q-128 114 -194 271t-66 317q0 125 32.5 241.5t103 220.5t171.5 180.5
t247.5 121.5t321.5 45q279 0 484 -125l135 156q9 9 26 -3l58 -55q4 -5 3.5 -9.5t-3.5 -6.5zM596 432l696 805q-138 207 -370 207q-50 0 -95 -10.5t-92 -34.5t-84 -68.5t-67 -107.5t-46 -157.5t-16 -211.5q0 -233 74 -422zM1348 1130l-697 -806q140 -228 385 -228
q32 0 62 4.5t70.5 20t74.5 41.5t68.5 73.5t59 111t39.5 158.5t15 212q0 228 -77 413z" />
    <glyph glyph-name="Ugrave" unicode="&#xd9;" horiz-adv-x="1792" 
d="M618 948v-307q0 -209 35 -314.5t121 -166.5q89 -58 205 -58q135 0 225 76q33 28 56 74t34.5 89.5t17 115.5t6.5 116t1 129v246q0 354 -4 420q-3 61 -21 88.5t-67 36.5q-8 1 -76 8q-37 0 -37 21q0 20 47 20q69 0 169 -3t106 -3q11 0 111.5 3t158.5 3q43 0 43 -20
q0 -18 -35 -21q-42 -4 -63 -8q-41 -7 -57 -34t-21 -91q-6 -99 -6 -420v-200q0 -70 -2 -119t-8 -115.5t-20 -117.5t-36 -106.5t-58.5 -103t-84.5 -86.5q-162 -135 -426 -135q-331 0 -488 137q-90 74 -140 200.5t-50 334.5v311q0 375 -6 441q-3 44 -16.5 66t-47.5 32
q-18 6 -88 14q-43 3 -43 23q0 18 56 18q53 0 183 -3l130 -3q1 0 145.5 3t188.5 3q45 0 45 -18q0 -12 -8 -16.5t-29 -6.5q-63 -7 -68 -8q-40 -8 -54 -36.5t-17 -84.5q-7 -116 -7 -424zM1061 1681q0 -16 -25 -16q-41 0 -193.5 71t-264.5 140q-60 39 -60 55q0 12 27 27
q49 30 147 65q33 11 43 11q13 0 35 -39q35 -55 256 -266l8 -8l7.5 -7.5l6.5 -6.5t5.5 -6.5t3.5 -6t3 -7t1 -6.5z" />
    <glyph glyph-name="Uacute" unicode="&#xda;" horiz-adv-x="1792" 
d="M618 948v-307q0 -209 35 -314.5t121 -166.5q89 -58 205 -58q135 0 225 76q33 28 56 74t34.5 89.5t17 115.5t6.5 116t1 129v246q0 354 -4 420q-3 61 -21 88.5t-67 36.5q-8 1 -76 8q-37 0 -37 21q0 20 47 20q69 0 169 -3t106 -3q11 0 111.5 3t158.5 3q43 0 43 -20
q0 -18 -35 -21q-42 -4 -63 -8q-41 -7 -57 -34t-21 -91q-6 -99 -6 -420v-200q0 -70 -2 -119t-8 -115.5t-20 -117.5t-36 -106.5t-58.5 -103t-84.5 -86.5q-162 -135 -426 -135q-331 0 -488 137q-90 74 -140 200.5t-50 334.5v311q0 375 -6 441q-3 44 -16.5 66t-47.5 32
q-18 6 -88 14q-43 3 -43 23q0 18 56 18q53 0 183 -3l130 -3q1 0 145.5 3t188.5 3q45 0 45 -18q0 -12 -8 -16.5t-29 -6.5q-63 -7 -68 -8q-40 -8 -54 -36.5t-17 -84.5q-7 -116 -7 -424zM1212 2013q66 -57 99 -147q11 -33 -13 -33q-32 0 -116 -25q-202 -65 -310 -118
q-31 -17 -45 -17q-18 0 -18 13q0 11 20 38q55 65 145 154t132 123q43 35 65 35q20 0 41 -23z" />
    <glyph glyph-name="Ucircumflex" unicode="&#xdb;" horiz-adv-x="1792" 
d="M618 948v-307q0 -209 35 -314.5t121 -166.5q89 -58 205 -58q135 0 225 76q33 28 56 74t34.5 89.5t17 115.5t6.5 116t1 129v246q0 354 -4 420q-3 61 -21 88.5t-67 36.5q-8 1 -76 8q-37 0 -37 21q0 20 47 20q69 0 169 -3t106 -3q11 0 111.5 3t158.5 3q43 0 43 -20
q0 -18 -35 -21q-42 -4 -63 -8q-41 -7 -57 -34t-21 -91q-6 -99 -6 -420v-200q0 -70 -2 -119t-8 -115.5t-20 -117.5t-36 -106.5t-58.5 -103t-84.5 -86.5q-162 -135 -426 -135q-331 0 -488 137q-90 74 -140 200.5t-50 334.5v311q0 375 -6 441q-3 44 -16.5 66t-47.5 32
q-18 6 -88 14q-43 3 -43 23q0 18 56 18q53 0 183 -3l130 -3q1 0 145.5 3t188.5 3q45 0 45 -18q0 -12 -8 -16.5t-29 -6.5q-63 -7 -68 -8q-40 -8 -54 -36.5t-17 -84.5q-7 -116 -7 -424zM963 2019q14 0 47 -20q25 -16 79.5 -53.5t116.5 -80.5t76 -53q39 -24 39 -38
q0 -11 -12 -21l-105 -76q-19 -12 -37 6q-78 68 -217 154q-22 18 -39 18q-9 0 -41 -14q-66 -31 -266 -147q-34 -21 -49 -21q-14 0 -14 14q1 14 22 31q2 2 165.5 129.5t184.5 145.5q35 26 50 26z" />
    <glyph glyph-name="Udieresis" unicode="&#xdc;" horiz-adv-x="1792" 
d="M618 948v-307q0 -209 35 -314.5t121 -166.5q89 -58 205 -58q135 0 225 76q33 28 56 74t34.5 89.5t17 115.5t6.5 116t1 129v246q0 354 -4 420q-3 61 -21 88.5t-67 36.5q-8 1 -76 8q-37 0 -37 21q0 20 47 20q69 0 169 -3t106 -3q11 0 111.5 3t158.5 3q43 0 43 -20
q0 -18 -35 -21q-42 -4 -63 -8q-41 -7 -57 -34t-21 -91q-6 -99 -6 -420v-200q0 -70 -2 -119t-8 -115.5t-20 -117.5t-36 -106.5t-58.5 -103t-84.5 -86.5q-162 -135 -426 -135q-331 0 -488 137q-90 74 -140 200.5t-50 334.5v311q0 375 -6 441q-3 44 -16.5 66t-47.5 32
q-18 6 -88 14q-43 3 -43 23q0 18 56 18q53 0 183 -3l130 -3q1 0 145.5 3t188.5 3q45 0 45 -18q0 -12 -8 -16.5t-29 -6.5q-63 -7 -68 -8q-40 -8 -54 -36.5t-17 -84.5q-7 -116 -7 -424zM1194 1716q-54 0 -83.5 35.5t-29.5 79.5q0 40 31.5 76.5t81.5 36.5q48 0 80.5 -31
t32.5 -78q0 -52 -30.5 -85.5t-82.5 -33.5zM696 1716q-54 0 -81 35t-27 80q0 42 29.5 75t80.5 33q48 0 80.5 -29.5t32.5 -76.5q0 -52 -31.5 -84.5t-83.5 -32.5z" />
    <glyph glyph-name="Yacute" unicode="&#xdd;" horiz-adv-x="1445" 
d="M545 367v157q0 53 -8.5 94t-17.5 60.5t-32 64.5q-58 106 -177 305.5t-171 276.5q-61 93 -89.5 122t-76.5 44q-16 5 -53 10q-31 3 -31 23q0 18 41 18q43 0 160.5 -3t155.5 -3q6 0 111.5 3t181.5 3q39 0 39 -16q0 -12 -8.5 -17t-32.5 -10q-64 -7 -64 -43q0 -18 21 -59
q287 -512 321 -576q262 495 275 522q32 69 32 105q0 19 -15 31.5t-58 19.5q-35 8 -35 25q0 18 45 18q43 0 118 -3t113 -3q13 0 114 3t122 3q41 0 41 -18q0 -23 -41 -23q-39 -3 -80 -16q-14 -6 -26.5 -13.5t-20 -13t-19 -18t-15.5 -17t-17 -21.5t-17 -22q-53 -65 -211 -337
t-180 -336q-33 -92 -33 -195v-145q0 -117 6 -203q2 -26 4.5 -39t10.5 -32t25 -30t44 -16q22 -5 65.5 -8.5t47.5 -3.5q33 -3 33 -23q0 -18 -41 -18q-83 0 -222 3t-163 3q-25 0 -146.5 -3t-171.5 -3q-41 0 -41 22q0 19 37 19q66 8 72 10q37 10 52 36.5t18 74.5q8 115 8 211z
M1092 2009q64 -55 98 -147q11 -33 -12 -33q-33 0 -117 -25q-199 -64 -309 -118q-31 -17 -45 -17q-19 0 -19 12q0 11 21 39q55 65 145 154.5t131 122.5q43 35 66 35q20 0 41 -23z" />
    <glyph glyph-name="Thorn" unicode="&#xde;" horiz-adv-x="1527" 
d="M686 1378q-1 -26 -2 -56.5t-1.5 -47.5t-0.5 -27q1 0 59 1t113 1q131 0 227 -20t142.5 -45t87.5 -62q106 -101 106 -260q0 -118 -50.5 -214t-133.5 -155t-183.5 -90.5t-205.5 -31.5q-50 0 -64 4q-22 9 -22 18q0 23 49 23q122 0 190 95t68 232q0 104 -20.5 176.5
t-73.5 131.5q-75 84 -211 84q-32 0 -53 -7q-15 -3 -20 -13.5t-5 -35.5v-491q0 -315 10 -436q5 -54 21 -76.5t61 -32.5q14 -2 88 -8q37 0 37 -21q0 -20 -43 -20q-60 0 -149 1.5t-154.5 3t-69.5 1.5t-129.5 -3t-165.5 -3q-51 0 -51 20q0 21 41 21q57 6 66 8q32 7 45 34.5
t18 78.5q12 129 12 432v360q0 377 -6 443q-3 46 -19 71.5t-54 32.5q-12 2 -38 4t-30 2q-37 3 -37 23q0 18 43 18q39 0 112 -1.5t131.5 -3t63.5 -1.5q1 0 145 3t193 3q47 0 47 -18q0 -17 -47 -25q-10 -2 -29.5 -5t-29.5 -5q-41 -9 -58 -33.5t-20 -77.5z" />
    <glyph glyph-name="germandbls" unicode="&#xdf;" horiz-adv-x="1591" 
d="M268 510v358q0 293 -6 412q0 10 4 14.5t8 5.5q256 58 555 58q121 0 215.5 -18.5t152 -47.5t94.5 -69t51 -78.5t14 -79.5q1 -87 -61.5 -154.5t-161.5 -107.5q63 -37 109 -67t97.5 -73.5t83.5 -86.5t53 -99.5t21 -118.5q0 -98 -50 -182.5t-142 -134.5q-117 -68 -289 -68
q-140 0 -242 45q-35 14 -35 60q0 86 11 215q5 41 22 41q16 0 21 -27q0 -1 4 -22.5t8 -32.5q25 -82 90.5 -128t142.5 -46q82 0 127 48.5t45 106.5q0 61 -28.5 118.5t-124.5 133.5q-135 106 -289 183q-51 26 -51 43q0 12 9.5 19.5t41.5 17.5q167 36 233 99.5t66 153.5
q0 44 -14.5 82.5t-49 74.5t-103.5 57.5t-165 21.5q-64 0 -102 -10q-8 0 -8 -15q-9 -115 -9 -327v-375q0 -257 8 -357t27 -128q4 -6 5.5 -13t-2 -12.5t-11.5 -5.5q-55 0 -107 1.5t-81.5 3t-30.5 1.5q-4 0 -126 -3t-155 -3q-39 0 -39 18q0 19 35 23q8 1 26.5 2t27.5 2
q34 6 47 29t18 67q10 123 10 375z" />
    <glyph glyph-name="agrave" unicode="&#xe0;" 
d="M819 332h-424q-14 0 -20 -19l-43 -104q-31 -77 -31 -109q0 -55 115 -64q7 -1 10 -1q33 -2 33 -19q0 -22 -35 -22q-43 0 -122.5 3t-133.5 3q-2 0 -88.5 -3t-138.5 -3q-37 0 -37 20q0 21 33 21q71 8 110.5 38.5t77.5 116.5l491 1049q32 70 50.5 95.5t35.5 25.5
q15 0 30 -20.5t42 -75.5q17 -37 217 -461t269 -576q50 -103 82.5 -142t82.5 -46q32 -4 41 -4q16 0 25.5 -6.5t9.5 -14.5q0 -20 -37 -20q-425 4 -528 6q-37 0 -37 18q0 13 25 21q2 1 6.5 2.5t7 2.5t6 2.5t4.5 3.5t2 5t0.5 6.5t-2.5 8.5l-112 252q-3 10 -17 10zM453 494h307
q8 0 10 2.5t0 5.5l-162 366q-5 6 -5.5 6t-2.5 -5q-1 -2 -2 -3l-152 -364q-3 -8 7 -8zM805 1477q0 -7 -6.5 -13t-18.5 -6q-40 0 -190 71t-262 140q-58 37 -58 57q0 8 27 25q50 35 145 64q30 10 43 10t35 -39q34 -53 250 -264l11 -11l10 -10t7 -7.5t5.5 -8.5t1.5 -8z" />
    <glyph glyph-name="aacute" unicode="&#xe1;" 
d="M819 332h-424q-14 0 -20 -19l-43 -104q-31 -77 -31 -109q0 -55 115 -64q7 -1 10 -1q33 -2 33 -19q0 -22 -35 -22q-43 0 -122.5 3t-133.5 3q-2 0 -88.5 -3t-138.5 -3q-37 0 -37 20q0 21 33 21q71 8 110.5 38.5t77.5 116.5l491 1049q32 70 50.5 95.5t35.5 25.5
q15 0 30 -20.5t42 -75.5q17 -37 217 -461t269 -576q50 -103 82.5 -142t82.5 -46q32 -4 41 -4q16 0 25.5 -6.5t9.5 -14.5q0 -20 -37 -20q-425 4 -528 6q-37 0 -37 18q0 13 25 21q2 1 6.5 2.5t7 2.5t6 2.5t4.5 3.5t2 5t0.5 6.5t-2.5 8.5l-112 252q-3 10 -17 10zM453 494h307
q8 0 10 2.5t0 5.5l-162 366q-5 6 -5.5 6t-2.5 -5q-1 -2 -2 -3l-152 -364q-3 -8 7 -8zM991 1804q66 -66 96 -145q10 -35 -10 -35q-11 2 -48 -5.5t-71 -19.5q-175 -56 -303 -118q-33 -17 -45 -19q-18 4 -18 15q0 13 20 36q55 67 144 157t129 120q40 37 63 37q17 0 43 -23z" />
    <glyph glyph-name="acircumflex" unicode="&#xe2;" 
d="M819 332h-424q-14 0 -20 -19l-43 -104q-31 -77 -31 -109q0 -55 115 -64q7 -1 10 -1q33 -2 33 -19q0 -22 -35 -22q-43 0 -122.5 3t-133.5 3q-2 0 -88.5 -3t-138.5 -3q-37 0 -37 20q0 21 33 21q71 8 110.5 38.5t77.5 116.5l491 1049q32 70 50.5 95.5t35.5 25.5
q15 0 30 -20.5t42 -75.5q17 -37 217 -461t269 -576q50 -103 82.5 -142t82.5 -46q32 -4 41 -4q16 0 25.5 -6.5t9.5 -14.5q0 -20 -37 -20q-425 4 -528 6q-37 0 -37 18q0 13 25 21q2 1 6.5 2.5t7 2.5t6 2.5t4.5 3.5t2 5t0.5 6.5t-2.5 8.5l-112 252q-3 10 -17 10zM453 494h307
q8 0 10 2.5t0 5.5l-162 366q-5 6 -5.5 6t-2.5 -5q-1 -2 -2 -3l-152 -364q-3 -8 7 -8zM731 1790q16 0 49 -23q17 -12 73.5 -49.5t105 -70.5t71.5 -48q39 -27 39 -38t-12 -23l-105 -70q-18 -12 -37 7q-67 58 -194 137q-25 18 -39 18q-11 0 -43 -14q-110 -54 -244 -131
q-34 -21 -51 -21q-16 0 -12 15q3 13 22 30q15 13 163.5 126t166.5 128q34 27 47 27z" />
    <glyph glyph-name="atilde" unicode="&#xe3;" 
d="M819 332h-424q-14 0 -20 -19l-43 -104q-31 -77 -31 -109q0 -55 115 -64q7 -1 10 -1q33 -2 33 -19q0 -22 -35 -22q-43 0 -122.5 3t-133.5 3q-2 0 -88.5 -3t-138.5 -3q-37 0 -37 20q0 21 33 21q71 8 110.5 38.5t77.5 116.5l491 1049q32 70 50.5 95.5t35.5 25.5
q15 0 30 -20.5t42 -75.5q17 -37 217 -461t269 -576q50 -103 82.5 -142t82.5 -46q32 -4 41 -4q16 0 25.5 -6.5t9.5 -14.5q0 -20 -37 -20q-425 4 -528 6q-37 0 -37 18q0 13 25 21q2 1 6.5 2.5t7 2.5t6 2.5t4.5 3.5t2 5t0.5 6.5t-2.5 8.5l-112 252q-3 10 -17 10zM453 494h307
q8 0 10 2.5t0 5.5l-162 366q-5 6 -5.5 6t-2.5 -5q-1 -2 -2 -3l-152 -364q-3 -8 7 -8zM854 1481q-53 0 -171.5 50t-164.5 50q-40 0 -73 -14t-47 -26t-42 -40q-16 -16 -26 -16q-20 0 -2 37q48 87 110.5 138.5t122.5 51.5q46 0 77 -8.5t97 -34.5q8 -3 29.5 -12t28 -11.5t23 -9
t23 -8.5t19 -5.5t20 -5t17 -2.5t18.5 -1q50 0 81.5 19t78.5 71q10 10 21 10q8 0 8 -12t-6 -23q-107 -198 -242 -198z" />
    <glyph glyph-name="adieresis" unicode="&#xe4;" 
d="M819 332h-424q-14 0 -20 -19l-43 -104q-31 -77 -31 -109q0 -55 115 -64q7 -1 10 -1q33 -2 33 -19q0 -22 -35 -22q-43 0 -122.5 3t-133.5 3q-2 0 -88.5 -3t-138.5 -3q-37 0 -37 20q0 21 33 21q71 8 110.5 38.5t77.5 116.5l491 1049q32 70 50.5 95.5t35.5 25.5
q15 0 30 -20.5t42 -75.5q17 -37 217 -461t269 -576q50 -103 82.5 -142t82.5 -46q32 -4 41 -4q16 0 25.5 -6.5t9.5 -14.5q0 -20 -37 -20q-425 4 -528 6q-37 0 -37 18q0 13 25 21q2 1 6.5 2.5t7 2.5t6 2.5t4.5 3.5t2 5t0.5 6.5t-2.5 8.5l-112 252q-3 10 -17 10zM453 494h307
q8 0 10 2.5t0 5.5l-162 366q-5 6 -5.5 6t-2.5 -5q-1 -2 -2 -3l-152 -364q-3 -8 7 -8zM920 1483q-54 0 -83.5 35t-29.5 79q0 40 31.5 76.5t81.5 36.5q48 0 80 -29.5t32 -78.5q0 -52 -30.5 -85.5t-81.5 -33.5zM463 1483q-54 0 -81.5 35t-27.5 79q0 42 30 75.5t81 33.5
q46 0 78 -30t32 -77q0 -51 -30.5 -83.5t-81.5 -32.5z" />
    <glyph glyph-name="aring" unicode="&#xe5;" 
d="M819 332h-424q-14 0 -20 -19l-43 -104q-31 -77 -31 -109q0 -55 115 -64q7 -1 10 -1q33 -2 33 -19q0 -22 -35 -22q-43 0 -122.5 3t-133.5 3q-2 0 -88.5 -3t-138.5 -3q-37 0 -37 20q0 21 33 21q71 8 110.5 38.5t77.5 116.5l491 1049q32 70 50.5 95.5t35.5 25.5
q15 0 30 -20.5t42 -75.5q17 -37 217 -461t269 -576q50 -103 82.5 -142t82.5 -46q32 -4 41 -4q16 0 25.5 -6.5t9.5 -14.5q0 -20 -37 -20q-425 4 -528 6q-37 0 -37 18q0 13 25 21q2 1 6.5 2.5t7 2.5t6 2.5t4.5 3.5t2 5t0.5 6.5t-2.5 8.5l-112 252q-3 10 -17 10zM453 494h307
q8 0 10 2.5t0 5.5l-162 366q-5 6 -5.5 6t-2.5 -5q-1 -2 -2 -3l-152 -364q-3 -8 7 -8zM633 1430q-78 0 -126 37t-48 92q0 82 78 136t202 54q90 0 138.5 -35.5t48.5 -91.5q-1 -59 -45.5 -104t-109.5 -66.5t-138 -21.5zM590 1595q0 -48 34.5 -78t73.5 -30q46 0 73.5 30t27.5 74
q0 40 -31 70.5t-82 30.5q-38 0 -67 -24.5t-29 -72.5z" />
    <glyph glyph-name="ae" unicode="&#xe6;" horiz-adv-x="1927" 
d="M725 719h188q17 0 17 14v260q0 53 2 90q-8 -6 -108.5 -165.5t-108.5 -178.5q-6 -12 -3.5 -16t13.5 -4zM913 590h-266q-19 0 -31 -12q-168 -278 -190 -312q-46 -73 -62 -107.5t-16 -58.5q0 -29 26.5 -43t92.5 -20q28 -3 37.5 -7.5t9.5 -13.5q0 -14 -9 -18t-32 -4
q-66 0 -135.5 2t-111.5 3.5t-58 0.5q-29 0 -112.5 -3t-98.5 -3q-49 0 -49 18q0 20 41 23q70 7 124 51t124 141q599 880 671 994q57 90 68 102q13 13 41 10q66 -4 180 -4q17 0 230 1t227 1q77 0 104 8q21 7 31 7t10 -17q0 -3 -2 -15.5t-5 -33t-5 -39.5q-8 -112 -10 -182
q0 -35 -21 -35q-17 0 -20 27q-3 40 -10 67q-9 33 -31.5 46.5t-85.5 19.5q-136 8 -279 8q-16 0 -16 -18v-433q0 -22 16 -22q79 -3 258 2q74 3 101.5 11t38.5 28q8 18 14 23t14 5q15 0 15 -22q0 -8 -7.5 -63.5t-9.5 -92.5q-2 -41 -2 -147q0 -39 -16 -39q-21 0 -21 31
q-1 6 -2 16t-2 16q-7 45 -33.5 68.5t-91.5 26.5q-114 8 -262 8q-10 0 -10 -25v-119v-165q1 -51 7.5 -77t32.5 -44t68.5 -22.5t124.5 -4.5q110 0 170 21q41 16 62.5 45.5t32.5 95.5q7 35 20 35q16 0 16 -47t-10.5 -130.5t-17.5 -115.5q-10 -32 -27.5 -39.5t-73.5 -7.5
q-147 0 -327.5 5t-266.5 5q-42 0 -134 -3t-146 -3q-41 0 -41 18q0 6 1 9t8.5 7.5t21.5 6.5q56 5 67 8q35 8 46 51t16 150q0 30 3 107t3 134v84q0 7 -5 14t-12 7z" />
    <glyph glyph-name="ccedilla" unicode="&#xe7;" horiz-adv-x="1540" 
d="M713 -141l166 114q-326 24 -539 191q-129 106 -181.5 235t-52.5 287q0 51 10.5 108.5t35 126t72.5 137.5t114 122q119 96 265 138t347 42q115 0 262 -21q135 -22 179 -22q20 -2 20 -25q0 -7 -8 -125q-7 -195 -8 -213q-3 -43 -25 -43q-19 0 -22 39q-6 109 -68 176
q-103 111 -367 111q-158 0 -254 -80q-159 -125 -159 -438q0 -268 136.5 -436t367.5 -168q119 0 186.5 17t118.5 71q40 44 59 129q6 27 12 35t17 8q18 0 18 -31q0 -36 -39 -276q-9 -46 -49 -60q-97 -39 -313 -39h-39q-100 -69 -129 -92q123 -12 190.5 -50t67.5 -120
q0 -24 -9 -48t-36.5 -52.5t-70.5 -50t-118 -36t-172 -14.5q-15 0 -27 6t-12 15q0 14 46 20q32 5 61.5 15t59 27t47.5 45t18 63q0 50 -40 83t-134 34q-31 4 -31 16q0 6 27 29z" />
    <glyph glyph-name="egrave" unicode="&#xe8;" horiz-adv-x="1286" 
d="M287 510v311q0 299 -6 385q-6 71 -66 82q-7 2 -16.5 3t-21 1.5t-17.5 1.5q-31 2 -31 23q0 18 39 18q60 0 149.5 -3t124.5 -3q17 0 268 1t265 1q63 0 104 8q21 7 29 7q16 0 12 -19q-13 -73 -14 -86q-2 -39 -10 -192q0 -11 -6 -20t-15 -9q-17 0 -20 24q-9 59 -11 66
q-8 34 -33 51t-87 23q-136 8 -275 8q-14 0 -14 -18v-375q0 -17 14 -17q182 0 254 2q76 3 103.5 11t44.5 34q11 23 24 23q15 0 15 -23q0 -6 -7 -65.5t-8 -97.5q-4 -78 -4 -154q0 -31 -18 -31t-21 29q-1 5 -2 17t-2 18q-8 46 -34 68t-93 26q-86 6 -254 6q-12 0 -12 -14v-129
q0 -18 -0.5 -62t-0.5 -82.5t1 -70.5q1 -51 7.5 -77.5t31.5 -46t69 -25t125 -5.5q110 0 170 21q37 15 56.5 48t31.5 97q6 31 25 31q16 0 16 -37q0 -53 -9.5 -139t-16.5 -117q-10 -32 -26.5 -39.5t-70.5 -7.5q-147 0 -329.5 5t-270.5 5q-41 0 -132.5 -3t-145.5 -3
q-43 0 -43 22q0 19 37 19q52 6 53 6q41 7 54 52.5t18 152.5q0 30 1 120.5t1 143.5zM774 1475q2 -7 -4 -14t-18 -7q-40 1 -192.5 73.5t-260.5 139.5q-60 36 -57 55q-2 11 24 27q50 33 148 63q33 11 41 11q12 0 37 -39q35 -55 249 -264q15 -14 24.5 -25t8.5 -20z" />
    <glyph glyph-name="eacute" unicode="&#xe9;" horiz-adv-x="1286" 
d="M287 510v311q0 299 -6 385q-6 71 -66 82q-7 2 -16.5 3t-21 1.5t-17.5 1.5q-31 2 -31 23q0 18 39 18q60 0 149.5 -3t124.5 -3q17 0 268 1t265 1q63 0 104 8q21 7 29 7q16 0 12 -19q-13 -73 -14 -86q-2 -39 -10 -192q0 -11 -6 -20t-15 -9q-17 0 -20 24q-9 59 -11 66
q-8 34 -33 51t-87 23q-136 8 -275 8q-14 0 -14 -18v-375q0 -17 14 -17q182 0 254 2q76 3 103.5 11t44.5 34q11 23 24 23q15 0 15 -23q0 -6 -7 -65.5t-8 -97.5q-4 -78 -4 -154q0 -31 -18 -31t-21 29q-1 5 -2 17t-2 18q-8 46 -34 68t-93 26q-86 6 -254 6q-12 0 -12 -14v-129
q0 -18 -0.5 -62t-0.5 -82.5t1 -70.5q1 -51 7.5 -77.5t31.5 -46t69 -25t125 -5.5q110 0 170 21q37 15 56.5 48t31.5 97q6 31 25 31q16 0 16 -37q0 -53 -9.5 -139t-16.5 -117q-10 -32 -26.5 -39.5t-70.5 -7.5q-147 0 -329.5 5t-270.5 5q-41 0 -132.5 -3t-145.5 -3
q-43 0 -43 22q0 19 37 19q52 6 53 6q41 7 54 52.5t18 152.5q0 30 1 120.5t1 143.5zM930 1788q69 -74 96 -146q10 -34 -10 -34q-24 3 -119 -25q-181 -59 -303 -119q-27 -14 -45 -18q-19 4 -19 14q0 12 21 37q55 66 142.5 155.5t127.5 121.5q42 34 66 34q14 2 43 -20z" />
    <glyph glyph-name="ecircumflex" unicode="&#xea;" horiz-adv-x="1286" 
d="M287 510v311q0 299 -6 385q-6 71 -66 82q-7 2 -16.5 3t-21 1.5t-17.5 1.5q-31 2 -31 23q0 18 39 18q60 0 149.5 -3t124.5 -3q17 0 268 1t265 1q63 0 104 8q21 7 29 7q16 0 12 -19q-13 -73 -14 -86q-2 -39 -10 -192q0 -11 -6 -20t-15 -9q-17 0 -20 24q-9 59 -11 66
q-8 34 -33 51t-87 23q-136 8 -275 8q-14 0 -14 -18v-375q0 -17 14 -17q182 0 254 2q76 3 103.5 11t44.5 34q11 23 24 23q15 0 15 -23q0 -6 -7 -65.5t-8 -97.5q-4 -78 -4 -154q0 -31 -18 -31t-21 29q-1 5 -2 17t-2 18q-8 46 -34 68t-93 26q-86 6 -254 6q-12 0 -12 -14v-129
q0 -18 -0.5 -62t-0.5 -82.5t1 -70.5q1 -51 7.5 -77.5t31.5 -46t69 -25t125 -5.5q110 0 170 21q37 15 56.5 48t31.5 97q6 31 25 31q16 0 16 -37q0 -53 -9.5 -139t-16.5 -117q-10 -32 -26.5 -39.5t-70.5 -7.5q-147 0 -329.5 5t-270.5 5q-41 0 -132.5 -3t-145.5 -3
q-43 0 -43 22q0 19 37 19q52 6 53 6q41 7 54 52.5t18 152.5q0 30 1 120.5t1 143.5zM676 1790q14 0 47 -23q128 -86 252 -168q37 -27 37 -38q0 -10 -13 -23l-104 -70q-18 -12 -37 7q-67 58 -194 137q-25 18 -39 18q-13 0 -41 -14q-107 -50 -246 -131q-34 -21 -51 -21
q-14 0 -12 14t22 31q13 11 162 124t168 130q34 27 49 27z" />
    <glyph glyph-name="edieresis" unicode="&#xeb;" horiz-adv-x="1286" 
d="M287 510v311q0 299 -6 385q-6 71 -66 82q-7 2 -16.5 3t-21 1.5t-17.5 1.5q-31 2 -31 23q0 18 39 18q60 0 149.5 -3t124.5 -3q17 0 268 1t265 1q63 0 104 8q21 7 29 7q16 0 12 -19q-13 -73 -14 -86q-2 -39 -10 -192q0 -11 -6 -20t-15 -9q-17 0 -20 24q-9 59 -11 66
q-8 34 -33 51t-87 23q-136 8 -275 8q-14 0 -14 -18v-375q0 -17 14 -17q182 0 254 2q76 3 103.5 11t44.5 34q11 23 24 23q15 0 15 -23q0 -6 -7 -65.5t-8 -97.5q-4 -78 -4 -154q0 -31 -18 -31t-21 29q-1 5 -2 17t-2 18q-8 46 -34 68t-93 26q-86 6 -254 6q-12 0 -12 -14v-129
q0 -18 -0.5 -62t-0.5 -82.5t1 -70.5q1 -51 7.5 -77.5t31.5 -46t69 -25t125 -5.5q110 0 170 21q37 15 56.5 48t31.5 97q6 31 25 31q16 0 16 -37q0 -53 -9.5 -139t-16.5 -117q-10 -32 -26.5 -39.5t-70.5 -7.5q-147 0 -329.5 5t-270.5 5q-41 0 -132.5 -3t-145.5 -3
q-43 0 -43 22q0 19 37 19q52 6 53 6q41 7 54 52.5t18 152.5q0 30 1 120.5t1 143.5zM879 1507q-53 0 -83 36t-30 79q0 40 31.5 75.5t81.5 35.5q48 0 80 -30t32 -77q0 -52 -30.5 -85.5t-81.5 -33.5zM422 1507q-54 0 -81.5 35.5t-27.5 79.5q0 42 30 75.5t81 33.5q48 0 80.5 -30
t32.5 -77q0 -52 -31.5 -84.5t-83.5 -32.5z" />
    <glyph glyph-name="igrave" unicode="&#xec;" horiz-adv-x="919" 
d="M287 510v311q0 324 -6 379q-3 39 -16.5 60.5t-45.5 25.5q-14 5 -57 8q-35 3 -35 21q0 20 41 20q32 0 98.5 -1.5t120.5 -3t55 -1.5q2 0 66 1.5t139.5 3t106.5 1.5q23 0 30 -5t7 -15q0 -18 -37 -21q-25 -3 -41 -6q-37 -8 -52.5 -26.5t-21.5 -63.5q-6 -57 -6 -377v-311
q0 -284 10 -379q3 -37 18 -58.5t54 -29.5q3 -1 76 -8q38 0 38 -23q0 -18 -38 -18q-56 0 -140.5 1.5t-146 3t-62.5 1.5l-57 -2q-57 -1 -124.5 -2.5t-92.5 -1.5q-43 0 -43 20q0 8 8.5 14.5t22.5 6.5q5 1 25 2.5t34 3.5q52 11 59 96q13 96 13 373zM541 1477q2 -7 -4.5 -13
t-18.5 -6q-40 0 -191.5 71.5t-260.5 139.5q-28 18 -43.5 32t-14.5 25q-2 8 25 25q53 35 147 64q30 10 41 10q15 0 37 -39q34 -53 250 -264q3 -3 11 -10.5t10.5 -10.5t6.5 -7.5t5 -8.5t0 -8z" />
    <glyph glyph-name="iacute" unicode="&#xed;" horiz-adv-x="919" 
d="M287 510v311q0 324 -6 379q-3 39 -16.5 60.5t-45.5 25.5q-14 5 -57 8q-35 3 -35 21q0 20 41 20q32 0 98.5 -1.5t120.5 -3t55 -1.5q2 0 66 1.5t139.5 3t106.5 1.5q23 0 30 -5t7 -15q0 -18 -37 -21q-25 -3 -41 -6q-37 -8 -52.5 -26.5t-21.5 -63.5q-6 -57 -6 -377v-311
q0 -284 10 -379q3 -37 18 -58.5t54 -29.5q3 -1 76 -8q38 0 38 -23q0 -18 -38 -18q-56 0 -140.5 1.5t-146 3t-62.5 1.5l-57 -2q-57 -1 -124.5 -2.5t-92.5 -1.5q-43 0 -43 20q0 8 8.5 14.5t22.5 6.5q5 1 25 2.5t34 3.5q52 11 59 96q13 96 13 373zM758 1790q68 -68 96 -145
q11 -33 -10 -33q-41 0 -117 -27q-173 -54 -303 -119q-29 -14 -47 -18q-19 5 -19 14q0 13 21 37q54 67 142.5 156.5t129.5 120.5q39 36 66 36q14 3 41 -22z" />
    <glyph glyph-name="icircumflex" unicode="&#xee;" horiz-adv-x="919" 
d="M287 510v311q0 324 -6 379q-3 39 -16.5 60.5t-45.5 25.5q-14 5 -57 8q-35 3 -35 21q0 20 41 20q32 0 98.5 -1.5t120.5 -3t55 -1.5q2 0 66 1.5t139.5 3t106.5 1.5q23 0 30 -5t7 -15q0 -18 -37 -21q-25 -3 -41 -6q-37 -8 -52.5 -26.5t-21.5 -63.5q-6 -57 -6 -377v-311
q0 -284 10 -379q3 -37 18 -58.5t54 -29.5q3 -1 76 -8q38 0 38 -23q0 -18 -38 -18q-56 0 -140.5 1.5t-146 3t-62.5 1.5l-57 -2q-57 -1 -124.5 -2.5t-92.5 -1.5q-43 0 -43 20q0 8 8.5 14.5t22.5 6.5q5 1 25 2.5t34 3.5q52 11 59 96q13 96 13 373zM494 1790q14 0 47 -23
q33 -21 133.5 -88.5t118.5 -79.5q38 -28 38 -38q0 -11 -14 -23l-104 -70q-17 -13 -37 7q-65 56 -195 137q-25 18 -39 18q-13 0 -41 -14q-102 -48 -245 -131q-34 -21 -50 -21t-13 15q3 13 22 30q7 6 157.5 121t171.5 133q34 27 50 27z" />
    <glyph glyph-name="idieresis" unicode="&#xef;" horiz-adv-x="919" 
d="M287 510v311q0 324 -6 379q-3 39 -16.5 60.5t-45.5 25.5q-14 5 -57 8q-35 3 -35 21q0 20 41 20q32 0 98.5 -1.5t120.5 -3t55 -1.5q2 0 66 1.5t139.5 3t106.5 1.5q23 0 30 -5t7 -15q0 -18 -37 -21q-25 -3 -41 -6q-37 -8 -52.5 -26.5t-21.5 -63.5q-6 -57 -6 -377v-311
q0 -284 10 -379q3 -37 18 -58.5t54 -29.5q3 -1 76 -8q38 0 38 -23q0 -18 -38 -18q-56 0 -140.5 1.5t-146 3t-62.5 1.5l-57 -2q-57 -1 -124.5 -2.5t-92.5 -1.5q-43 0 -43 20q0 8 8.5 14.5t22.5 6.5q5 1 25 2.5t34 3.5q52 11 59 96q13 96 13 373zM682 1507q-53 0 -82 35.5
t-29 79.5q0 40 31.5 76.5t81.5 36.5q46 0 78.5 -31t32.5 -78q0 -52 -30.5 -85.5t-82.5 -33.5zM225 1507q-52 0 -80 35.5t-28 79.5q0 42 29.5 75.5t80.5 33.5q48 0 80.5 -30t32.5 -77q0 -52 -31.5 -84.5t-83.5 -32.5z" />
    <glyph glyph-name="eth" unicode="&#xf0;" horiz-adv-x="1769" 
d="M213 1288l-59 6q-31 4 -31 23q0 18 39 18q10 0 130 -3t171 -3q17 0 111 2t190 2q261 0 434 -47t289 -160q176 -172 176 -450q0 -149 -59 -276.5t-146 -209.5q-33 -32 -64.5 -56.5t-87.5 -55t-118.5 -50.5t-156 -34t-202.5 -14q-52 0 -196 10t-178 10q-43 0 -137.5 -3
t-137.5 -3q-37 0 -37 20q0 8 9.5 14.5t23.5 6.5q12 0 53 6q55 5 67 78t11 299v92v113h-172q-13 0 -16.5 4t-1.5 18l8 64q1 12 6 16t16 4h160v92q0 298 -4 355q-2 25 -4.5 38t-11 32t-27 29t-47.5 13zM653 623v-2q0 -264 4 -334q3 -59 10 -85t23 -44q25 -28 76.5 -44
t103.5 -16q100 0 172.5 23t137.5 92q112 112 112 401q0 231 -123 406q-54 76 -130 122.5t-139.5 60.5t-131.5 14q-72 0 -96 -17q-13 -11 -16 -63t-3 -291v-117h330q12 0 15 -3.5t3 -16.5l-8 -66q-2 -12 -6 -16t-16 -4h-318z" />
    <glyph glyph-name="ntilde" unicode="&#xf1;" horiz-adv-x="1736" 
d="M236 254q5 187 9.5 543t8.5 473q2 48 9 69t26 21q18 0 69 -39q70 -55 252.5 -211.5t345.5 -300.5q115 -101 224.5 -195.5t128.5 -111.5l-11 626q-3 80 -21.5 115t-74.5 43q-28 5 -74 8q-32 3 -32 21q0 20 34 20q32 0 133 -3t144 -3q19 0 96.5 3t118.5 3q39 0 39 -18
q0 -21 -31 -23q-36 -3 -41 -4q-47 -6 -65.5 -35t-22.5 -112q-20 -428 -24 -1053q0 -73 -8.5 -97t-30.5 -24q-23 0 -76 36.5t-164 127.5q-219 182 -360 311q-34 30 -179 158t-235 209l18 -575q3 -102 14 -140.5t50 -48.5q40 -9 92 -12q39 -5 39 -21q0 -20 -45 -20
q-23 0 -95 2.5t-141 3.5q-24 0 -127 -3t-135 -3q-41 0 -41 20q0 18 33 21q10 1 25.5 2t25.5 2q57 7 75.5 49t23.5 166zM1057 1516q-55 0 -174 49t-164 49q-40 0 -73 -13t-47.5 -25.5t-41.5 -39.5q-16 -16 -27 -16q-20 0 0 36q47 87 109.5 139t124.5 52q44 0 76 -9t96 -36
q12 -4 39 -15t35.5 -14t27.5 -9.5t28.5 -8.5t22.5 -4t25 -2q50 0 81 18.5t79 69.5q8 10 20 10q20 0 2 -35q-104 -196 -239 -196z" />
    <glyph glyph-name="ograve" unicode="&#xf2;" horiz-adv-x="1765" 
d="M887 -31q-158 0 -290 41.5t-221 110.5t-151.5 159t-90.5 185t-28 192q0 113 30 215.5t94 192t156.5 155t224 103t288.5 37.5q170 0 315 -54.5t241 -146t150 -211t54 -250.5q0 -156 -53.5 -289.5t-151 -231t-243.5 -153t-324 -55.5zM936 92q29 0 54.5 3.5t60 16.5t63 34.5
t58 61.5t49.5 93.5t32.5 134.5t12.5 180q0 86 -12.5 169t-44 167t-78.5 147t-123 102.5t-172 39.5q-336 0 -336 -496q0 -101 15.5 -194t50 -177.5t84.5 -146.5t123.5 -98.5t162.5 -36.5zM995 1483q2 -7 -4 -13t-18 -6q-40 0 -192.5 72t-262.5 141q-58 34 -55 56q1 3 0 4
t1 3.5t2.5 3t3.5 3t4.5 3.5t6 3t6.5 4q49 32 148 66q36 8 41 8q13 0 35 -39q21 -33 252 -264q4 -5 12.5 -13t11.5 -12t6 -9.5t2 -10.5z" />
    <glyph glyph-name="oacute" unicode="&#xf3;" horiz-adv-x="1765" 
d="M887 -31q-158 0 -290 41.5t-221 110.5t-151.5 159t-90.5 185t-28 192q0 113 30 215.5t94 192t156.5 155t224 103t288.5 37.5q170 0 315 -54.5t241 -146t150 -211t54 -250.5q0 -156 -53.5 -289.5t-151 -231t-243.5 -153t-324 -55.5zM936 92q29 0 54.5 3.5t60 16.5t63 34.5
t58 61.5t49.5 93.5t32.5 134.5t12.5 180q0 86 -12.5 169t-44 167t-78.5 147t-123 102.5t-172 39.5q-336 0 -336 -496q0 -101 15.5 -194t50 -177.5t84.5 -146.5t123.5 -98.5t162.5 -36.5zM1122 1821q67 -67 97 -146q10 -35 -11 -35q-11 2 -47.5 -5.5t-68.5 -18.5
q-176 -55 -304 -119q-29 -14 -47 -18q-18 5 -18 14q0 14 20 37q55 67 144 156t129 120q40 37 65 37q17 0 41 -22z" />
    <glyph glyph-name="ocircumflex" unicode="&#xf4;" horiz-adv-x="1765" 
d="M887 -31q-158 0 -290 41.5t-221 110.5t-151.5 159t-90.5 185t-28 192q0 113 30 215.5t94 192t156.5 155t224 103t288.5 37.5q170 0 315 -54.5t241 -146t150 -211t54 -250.5q0 -156 -53.5 -289.5t-151 -231t-243.5 -153t-324 -55.5zM936 92q29 0 54.5 3.5t60 16.5t63 34.5
t58 61.5t49.5 93.5t32.5 134.5t12.5 180q0 86 -12.5 169t-44 167t-78.5 147t-123 102.5t-172 39.5q-336 0 -336 -496q0 -101 15.5 -194t50 -177.5t84.5 -146.5t123.5 -98.5t162.5 -36.5zM899 1800q11 0 47 -22q121 -78 252 -170q39 -25 39 -39q0 -12 -14 -21l-103 -69
q-20 -13 -37 4q-79 66 -196 139q-22 16 -39 16q-9 0 -41 -14q-100 -44 -244 -131q-39 -20 -51 -20q-14 0 -13 14t23 31q15 13 163.5 127t164.5 127q33 28 49 28z" />
    <glyph glyph-name="otilde" unicode="&#xf5;" horiz-adv-x="1765" 
d="M887 -31q-158 0 -290 41.5t-221 110.5t-151.5 159t-90.5 185t-28 192q0 113 30 215.5t94 192t156.5 155t224 103t288.5 37.5q170 0 315 -54.5t241 -146t150 -211t54 -250.5q0 -156 -53.5 -289.5t-151 -231t-243.5 -153t-324 -55.5zM936 92q29 0 54.5 3.5t60 16.5t63 34.5
t58 61.5t49.5 93.5t32.5 134.5t12.5 180q0 86 -12.5 169t-44 167t-78.5 147t-123 102.5t-172 39.5q-336 0 -336 -496q0 -101 15.5 -194t50 -177.5t84.5 -146.5t123.5 -98.5t162.5 -36.5zM1020 1507q-53 0 -171.5 50.5t-164.5 50.5q-40 0 -73 -13t-49 -26t-42 -39
q-15 -17 -26 -17q-5 0 -7.5 4t-1 12.5t8.5 20.5q48 86 110.5 137.5t122.5 51.5q46 0 77 -8.5t97 -34.5q12 -5 34 -14t31 -12.5t25 -10t25 -9t21 -5.5t22 -4t20 -1q49 0 80 19.5t80 71.5q8 10 21 10q8 0 8 -11t-6 -24q-109 -199 -242 -199z" />
    <glyph glyph-name="odieresis" unicode="&#xf6;" horiz-adv-x="1765" 
d="M887 -31q-158 0 -290 41.5t-221 110.5t-151.5 159t-90.5 185t-28 192q0 113 30 215.5t94 192t156.5 155t224 103t288.5 37.5q170 0 315 -54.5t241 -146t150 -211t54 -250.5q0 -156 -53.5 -289.5t-151 -231t-243.5 -153t-324 -55.5zM936 92q29 0 54.5 3.5t60 16.5t63 34.5
t58 61.5t49.5 93.5t32.5 134.5t12.5 180q0 86 -12.5 169t-44 167t-78.5 147t-123 102.5t-172 39.5q-336 0 -336 -496q0 -101 15.5 -194t50 -177.5t84.5 -146.5t123.5 -98.5t162.5 -36.5zM1104 1511q-54 0 -83.5 35.5t-29.5 79.5q0 40 31.5 75.5t81.5 35.5q48 0 80.5 -30
t32.5 -77q0 -52 -30.5 -85.5t-82.5 -33.5zM647 1511q-54 0 -81 35t-27 80q0 42 29.5 75.5t80.5 33.5q47 0 79 -30t32 -77q0 -51 -31 -84t-82 -33z" />
    <glyph glyph-name="divide" unicode="&#xf7;" horiz-adv-x="1419" 
d="M707 977q-63 -1 -102.5 37t-39.5 100q0 65 38 104t99 39q65 0 107.5 -38t42.5 -99q1 -63 -39.5 -103t-105.5 -40zM702 502q65 0 107.5 -39t42.5 -101q2 -61 -40.5 -103t-109.5 -42q-60 0 -98.5 39.5t-38.5 101.5q0 65 38 104.5t99 39.5zM1229 639h-1041v201h1041v-201z
" />
    <glyph glyph-name="oslash" unicode="&#xf8;" horiz-adv-x="1765" 
d="M1520 1323l-111 -125q120 -94 185 -224.5t65 -275.5q0 -156 -53.5 -289.5t-151 -231t-243.5 -153t-324 -55.5q-266 0 -459 117l-141 -160q-14 -7 -21 0l-53 47q-14 11 4 29l127 145q-117 99 -177.5 235.5t-60.5 274.5q0 113 30 215.5t94 192t156.5 155t224 103
t288.5 37.5q241 0 424 -105l119 134q9 12 26 -5l52 -47q6 -8 0 -14zM559 389l596 676q-115 176 -319 176q-336 0 -336 -496q0 -203 59 -356zM1204 967l-596 -678q116 -197 328 -197q29 0 54.5 3.5t60 16.5t63 34.5t58 61.5t49.5 93.5t32.5 134.5t12.5 180q0 198 -62 351z
" />
    <glyph glyph-name="ugrave" unicode="&#xf9;" horiz-adv-x="1624" 
d="M582 821v-268q0 -183 30 -271.5t111 -140.5q76 -43 168 -43q115 0 188 58q25 20 44 47t30 65.5t18 70t9.5 84t3 82.5t0.5 89v18v209q0 300 -4 357q-3 53 -19 77t-59 31q-18 3 -68 8q-33 2 -33 23q0 18 41 18q63 0 154 -3t102 -3q9 0 101 3t147 3q39 0 39 -20
q0 -16 -31 -21q-44 -5 -57 -8q-37 -6 -50.5 -28.5t-16.5 -79.5q-7 -100 -7 -357v-170q0 -76 -2 -125.5t-12.5 -119.5t-30 -120t-57 -104.5t-90.5 -95.5q-151 -117 -381 -117q-297 0 -444 119q-82 64 -127.5 173.5t-45.5 289.5v270q0 322 -4 379q-3 37 -14.5 56t-40.5 26
q-4 1 -80 12q-33 5 -33 23t45 18q33 0 102 -1.5t124.5 -3t56.5 -1.5q3 0 68.5 1.5t142 3t105.5 1.5q45 0 45 -18t-31 -23q-5 -1 -19 -2t-26.5 -2.5t-20.5 -3.5q-36 -7 -50 -32.5t-17 -71.5q-4 -57 -4 -361zM967 1477q2 -7 -4.5 -13t-18.5 -6q-41 0 -192 71t-263 140
q-57 37 -55 57q-2 8 25 25q57 38 147 64q27 10 41 10q13 0 35 -39q25 -39 250 -264q4 -4 11 -10.5t10.5 -10t7.5 -8t5.5 -8.5t0.5 -8z" />
    <glyph glyph-name="uacute" unicode="&#xfa;" horiz-adv-x="1624" 
d="M582 821v-268q0 -183 30 -271.5t111 -140.5q76 -43 168 -43q115 0 188 58q25 20 44 47t30 65.5t18 70t9.5 84t3 82.5t0.5 89v18v209q0 300 -4 357q-3 53 -19 77t-59 31q-18 3 -68 8q-33 2 -33 23q0 18 41 18q63 0 154 -3t102 -3q9 0 101 3t147 3q39 0 39 -20
q0 -16 -31 -21q-44 -5 -57 -8q-37 -6 -50.5 -28.5t-16.5 -79.5q-7 -100 -7 -357v-170q0 -76 -2 -125.5t-12.5 -119.5t-30 -120t-57 -104.5t-90.5 -95.5q-151 -117 -381 -117q-297 0 -444 119q-82 64 -127.5 173.5t-45.5 289.5v270q0 322 -4 379q-3 37 -14.5 56t-40.5 26
q-4 1 -80 12q-33 5 -33 23t45 18q33 0 102 -1.5t124.5 -3t56.5 -1.5q3 0 68.5 1.5t142 3t105.5 1.5q45 0 45 -18t-31 -23q-5 -1 -19 -2t-26.5 -2.5t-20.5 -3.5q-36 -7 -50 -32.5t-17 -71.5q-4 -57 -4 -361zM1126 1804q68 -68 97 -145q10 -35 -11 -35q-11 2 -47.5 -6
t-68.5 -19q-178 -56 -303 -118q-31 -16 -48 -19q-18 4 -18 15q0 12 21 36q56 67 144.5 157t127.5 120q40 37 65 37q15 0 41 -23z" />
    <glyph glyph-name="ucircumflex" unicode="&#xfb;" horiz-adv-x="1624" 
d="M582 821v-268q0 -183 30 -271.5t111 -140.5q76 -43 168 -43q115 0 188 58q25 20 44 47t30 65.5t18 70t9.5 84t3 82.5t0.5 89v18v209q0 300 -4 357q-3 53 -19 77t-59 31q-18 3 -68 8q-33 2 -33 23q0 18 41 18q63 0 154 -3t102 -3q9 0 101 3t147 3q39 0 39 -20
q0 -16 -31 -21q-44 -5 -57 -8q-37 -6 -50.5 -28.5t-16.5 -79.5q-7 -100 -7 -357v-170q0 -76 -2 -125.5t-12.5 -119.5t-30 -120t-57 -104.5t-90.5 -95.5q-151 -117 -381 -117q-297 0 -444 119q-82 64 -127.5 173.5t-45.5 289.5v270q0 322 -4 379q-3 37 -14.5 56t-40.5 26
q-4 1 -80 12q-33 5 -33 23t45 18q33 0 102 -1.5t124.5 -3t56.5 -1.5q3 0 68.5 1.5t142 3t105.5 1.5q45 0 45 -18t-31 -23q-5 -1 -19 -2t-26.5 -2.5t-20.5 -3.5q-36 -7 -50 -32.5t-17 -71.5q-4 -57 -4 -361zM881 1790q14 0 47 -23q128 -86 252 -168q37 -27 37 -38
q0 -10 -13 -23l-104 -70q-18 -12 -37 7q-65 56 -195 137q-25 18 -39 18q-13 0 -41 -14q-102 -48 -245 -131q-34 -21 -51 -21q-14 0 -12 14t22 31q13 11 161.5 124t167.5 130q34 27 50 27z" />
    <glyph glyph-name="udieresis" unicode="&#xfc;" horiz-adv-x="1624" 
d="M582 821v-268q0 -183 30 -271.5t111 -140.5q76 -43 168 -43q115 0 188 58q25 20 44 47t30 65.5t18 70t9.5 84t3 82.5t0.5 89v18v209q0 300 -4 357q-3 53 -19 77t-59 31q-18 3 -68 8q-33 2 -33 23q0 18 41 18q63 0 154 -3t102 -3q9 0 101 3t147 3q39 0 39 -20
q0 -16 -31 -21q-44 -5 -57 -8q-37 -6 -50.5 -28.5t-16.5 -79.5q-7 -100 -7 -357v-170q0 -76 -2 -125.5t-12.5 -119.5t-30 -120t-57 -104.5t-90.5 -95.5q-151 -117 -381 -117q-297 0 -444 119q-82 64 -127.5 173.5t-45.5 289.5v270q0 322 -4 379q-3 37 -14.5 56t-40.5 26
q-4 1 -80 12q-33 5 -33 23t45 18q33 0 102 -1.5t124.5 -3t56.5 -1.5q3 0 68.5 1.5t142 3t105.5 1.5q45 0 45 -18t-31 -23q-5 -1 -19 -2t-26.5 -2.5t-20.5 -3.5q-36 -7 -50 -32.5t-17 -71.5q-4 -57 -4 -361zM1079 1511q-53 0 -82.5 36t-29.5 79q0 40 31 75.5t81 35.5
q48 0 80.5 -30t32.5 -77q0 -52 -30.5 -85.5t-82.5 -33.5zM623 1511q-54 0 -81.5 35.5t-27.5 79.5q0 42 30 75.5t81 33.5q48 0 80 -30t32 -77q0 -52 -31 -84.5t-83 -32.5z" />
    <glyph glyph-name="yacute" unicode="&#xfd;" horiz-adv-x="1318" 
d="M487 317v138q0 46 -8 80.5t-15 50t-30 57.5q-63 111 -163.5 275t-145.5 227q-55 84 -82 107t-74 32q-9 3 -39 8q-26 5 -26 23q0 20 37 20q45 0 153 -3t142 -3q3 0 105.5 3t174.5 3q35 0 35 -18t-33 -25q-67 -7 -67 -35q0 -15 18 -49q134 -236 281 -487q176 312 237 442
q4 9 12 25.5t10.5 22.5t5.5 16t3 18q0 19 -14 30t-58 17q-28 4 -28 23q0 20 40 20q39 0 109.5 -3t108.5 -3q10 0 103 3t112 3q34 0 34 -16q0 -22 -34 -25q-34 -2 -70 -12q-25 -9 -45 -23.5t-30.5 -26.5t-31.5 -38q-46 -55 -188.5 -294t-161.5 -294q-28 -79 -28 -164v-125
q0 -89 4 -165q5 -55 19 -74q17 -25 56 -33q23 -5 105 -10q14 0 22.5 -6.5t8.5 -14.5q0 -20 -33 -20q-76 0 -210 3t-157 3q-22 0 -136 -3t-161 -3q-37 0 -37 22q0 19 35 19q44 3 64 8q35 9 49 32t16 64q6 76 6 178zM1020 1800q70 -75 96 -145q10 -35 -10 -35q-33 4 -119 -25
q-170 -53 -303 -118q-32 -16 -47 -19q-16 4 -16 15t18 36q59 69 146.5 158.5t125.5 118.5q42 37 66 37q14 0 43 -23z" />
    <glyph glyph-name="thorn" unicode="&#xfe;" horiz-adv-x="1419" 
d="M633 510q0 -266 10 -379q4 -45 20 -64t56 -28q25 -6 76 -6q36 -4 36 -21q0 -5 -1.5 -8.5t-11 -6.5t-27.5 -3q-56 0 -140.5 1.5t-146 3t-62.5 1.5t-119.5 -3t-154.5 -3q-47 0 -47 18q0 17 39 21q39 0 57 4q30 7 42 30t15 66q13 99 13 377v311q0 328 -6 385q-7 78 -62 86
q-12 2 -33.5 4t-25.5 2q-33 6 -33 21q0 16 39 16q32 0 99 -1.5t121.5 -3t55.5 -1.5q3 0 68 1.5t141 3t105 1.5q45 0 45 -16q0 -13 -40 -21q-5 -1 -7 -2q-22 -5 -47 -8q-36 -7 -50 -27.5t-20 -68.5q-1 -23 -2 -46.5t-1.5 -36t-0.5 -19.5h153q176 0 271 -29.5t157 -83.5
q99 -89 99 -229q0 -85 -32 -157t-85.5 -121t-123.5 -84t-144 -51t-148 -16q-32 0 -59 9q-21 5 -21 14q0 20 43 20q114 0 171 82t57 203q0 94 -17.5 153.5t-60.5 108.5q-70 76 -195 76q-20 0 -36 -4q-16 -3 -22.5 -13t-6.5 -34v-424z" />
    <glyph glyph-name="ydieresis" unicode="&#xff;" horiz-adv-x="1318" 
d="M487 317v138q0 46 -8 80.5t-15 50t-30 57.5q-63 111 -163.5 275t-145.5 227q-55 84 -82 107t-74 32q-9 3 -39 8q-26 5 -26 23q0 20 37 20q45 0 153 -3t142 -3q3 0 105.5 3t174.5 3q35 0 35 -18t-33 -25q-67 -7 -67 -35q0 -15 18 -49q134 -236 281 -487q176 312 237 442
q4 9 12 25.5t10.5 22.5t5.5 16t3 18q0 19 -14 30t-58 17q-28 4 -28 23q0 20 40 20q39 0 109.5 -3t108.5 -3q10 0 103 3t112 3q34 0 34 -16q0 -22 -34 -25q-34 -2 -70 -12q-25 -9 -45 -23.5t-30.5 -26.5t-31.5 -38q-46 -55 -188.5 -294t-161.5 -294q-28 -79 -28 -164v-125
q0 -89 4 -165q5 -55 19 -74q17 -25 56 -33q23 -5 105 -10q14 0 22.5 -6.5t8.5 -14.5q0 -20 -33 -20q-76 0 -210 3t-157 3q-22 0 -136 -3t-161 -3q-37 0 -37 22q0 19 35 19q44 3 64 8q35 9 49 32t16 64q6 76 6 178zM920 1499q-54 0 -83.5 35.5t-29.5 79.5q0 40 31.5 76
t81.5 36q48 0 80 -29.5t32 -78.5q0 -52 -30.5 -85.5t-81.5 -33.5zM463 1499q-54 0 -81.5 35.5t-27.5 79.5q0 42 30 75t81 33q48 0 80.5 -29.5t32.5 -76.5q0 -50 -31.5 -83.5t-83.5 -33.5z" />
    <glyph glyph-name="Amacron" unicode="&#x100;" horiz-adv-x="1523" 
d="M899 418h-469q-12 0 -18 -15l-64 -167q-33 -87 -33 -132q0 -29 15 -43.5t47 -17.5q14 -2 42 -5t30 -3q36 0 36 -21q0 -20 -43 -20q-44 0 -128.5 3t-141.5 3q-2 0 -100.5 -3t-159.5 -3q-41 0 -41 20q0 21 39 21q42 3 65 8q51 10 85.5 52.5t70.5 123.5l547 1237
q29 66 48 92.5t36 26.5q15 0 31 -22.5t43 -79.5q28 -60 249 -562t287 -649q52 -118 92 -164.5t95 -54.5q5 -1 65 -8q39 0 39 -21q0 -20 -53 -20q-173 0 -566 6q-45 0 -45 18q0 19 29 25q35 6 25 37l-138 326q-3 12 -16 12zM489 582h351q15 0 10 10l-180 438q-8 18 -15 0
l-174 -438q-3 -10 8 -10zM1067 1729h-651q-10 0 -10 16q8 75 22 106q6 13 21 13h655q14 0 14 -17q-2 -18 -9.5 -54.5t-12.5 -47.5q-8 -16 -29 -16z" />
    <glyph glyph-name="amacron" unicode="&#x101;" 
d="M819 332h-424q-14 0 -20 -19l-43 -104q-31 -77 -31 -109q0 -55 115 -64q7 -1 10 -1q33 -2 33 -19q0 -22 -35 -22q-43 0 -122.5 3t-133.5 3q-2 0 -88.5 -3t-138.5 -3q-37 0 -37 20q0 21 33 21q71 8 110.5 38.5t77.5 116.5l491 1049q32 70 50.5 95.5t35.5 25.5
q15 0 30 -20.5t42 -75.5q17 -37 217 -461t269 -576q50 -103 82.5 -142t82.5 -46q32 -4 41 -4q16 0 25.5 -6.5t9.5 -14.5q0 -20 -37 -20q-425 4 -528 6q-37 0 -37 18q0 13 25 21q2 1 6.5 2.5t7 2.5t6 2.5t4.5 3.5t2 5t0.5 6.5t-2.5 8.5l-112 252q-3 10 -17 10zM453 494h307
q8 0 10 2.5t0 5.5l-162 366q-5 6 -5.5 6t-2.5 -5q-1 -2 -2 -3l-152 -364q-3 -8 7 -8zM989 1509h-610q-10 0 -10 17q8 72 22 100q7 14 19 14h616q14 0 14 -16q-8 -69 -22 -98q-8 -17 -29 -17z" />
    <glyph glyph-name="Abreve" unicode="&#x102;" horiz-adv-x="1523" 
d="M899 418h-469q-12 0 -18 -15l-64 -167q-33 -87 -33 -132q0 -29 15 -43.5t47 -17.5q14 -2 42 -5t30 -3q36 0 36 -21q0 -20 -43 -20q-44 0 -128.5 3t-141.5 3q-2 0 -100.5 -3t-159.5 -3q-41 0 -41 20q0 21 39 21q42 3 65 8q51 10 85.5 52.5t70.5 123.5l547 1237
q29 66 48 92.5t36 26.5q15 0 31 -22.5t43 -79.5q28 -60 249 -562t287 -649q52 -118 92 -164.5t95 -54.5q5 -1 65 -8q39 0 39 -21q0 -20 -53 -20q-173 0 -566 6q-45 0 -45 18q0 19 29 25q35 6 25 37l-138 326q-3 12 -16 12zM489 582h351q15 0 10 10l-180 438q-8 18 -15 0
l-174 -438q-3 -10 8 -10zM350 1874q0 22 21 33q23 24 58 43.5t50 19.5q14 0 19 -12q25 -65 104.5 -110.5t198.5 -45.5q212 0 334 146q20 22 32 22q16 0 8 -26q-5 -17 -18 -33q-68 -108 -187.5 -164.5t-246.5 -56.5q-96 0 -167.5 15.5t-135.5 61.5q-70 55 -70 107z" />
    <glyph glyph-name="abreve" unicode="&#x103;" 
d="M819 332h-424q-14 0 -20 -19l-43 -104q-31 -77 -31 -109q0 -55 115 -64q7 -1 10 -1q33 -2 33 -19q0 -22 -35 -22q-43 0 -122.5 3t-133.5 3q-2 0 -88.5 -3t-138.5 -3q-37 0 -37 20q0 21 33 21q71 8 110.5 38.5t77.5 116.5l491 1049q32 70 50.5 95.5t35.5 25.5
q15 0 30 -20.5t42 -75.5q17 -37 217 -461t269 -576q50 -103 82.5 -142t82.5 -46q32 -4 41 -4q16 0 25.5 -6.5t9.5 -14.5q0 -20 -37 -20q-425 4 -528 6q-37 0 -37 18q0 13 25 21q2 1 6.5 2.5t7 2.5t6 2.5t4.5 3.5t2 5t0.5 6.5t-2.5 8.5l-112 252q-3 10 -17 10zM453 494h307
q8 0 10 2.5t0 5.5l-162 366q-5 6 -5.5 6t-2.5 -5q-1 -2 -2 -3l-152 -364q-3 -8 7 -8zM317 1679q0 16 21 33q22 22 55 41t47 19q12 0 17 -13q25 -65 100.5 -108t187.5 -43q106 0 176.5 33t129.5 104q18 18 30 18q16 0 3 -31q-5 -12 -13 -24q-67 -98 -175.5 -150.5
t-225.5 -52.5q-179 0 -285 74q-68 53 -68 100z" />
    <glyph glyph-name="Aogonek" unicode="&#x104;" horiz-adv-x="1523" 
d="M131 219l547 1237q29 66 48 92.5t36 26.5q15 0 31 -22.5t43 -79.5q28 -60 249 -562t287 -649q52 -118 92 -164.5t95 -54.5q5 -1 65 -8q39 0 39 -21q0 -20 -53 -20q-135 0 -203 2q-67 -46 -101 -113.5t-34 -115.5q0 -125 131 -125q60 0 117 36q9 6 18.5 5t9.5 -7
q0 -20 -18 -38q-30 -32 -98 -67.5t-156 -35.5q-96 0 -150.5 47t-54.5 129q0 65 68 140.5t200 144.5q-51 1 -153 2t-142 2q-45 0 -45 18q0 19 29 25q35 6 25 37l-138 326q-3 12 -16 12h-469q-12 0 -18 -15l-64 -167q-33 -87 -33 -132q0 -29 15 -43.5t47 -17.5q14 -2 42 -5
t30 -3q36 0 36 -21q0 -20 -43 -20q-44 0 -128.5 3t-141.5 3q-2 0 -100.5 -3t-159.5 -3q-41 0 -41 20q0 21 39 21q42 3 65 8q51 10 85.5 52.5t70.5 123.5zM489 582h351q15 0 10 10l-180 438q-8 18 -15 0l-174 -438q-3 -10 8 -10z" />
    <glyph glyph-name="aogonek" unicode="&#x105;" 
d="M125 190l491 1049q32 70 50.5 95.5t35.5 25.5q15 0 30 -20.5t42 -75.5q17 -37 217 -461t269 -576q50 -103 82.5 -142t82.5 -46q32 -4 41 -4q16 0 25.5 -6.5t9.5 -14.5q0 -20 -37 -20q-29 0 -86 1t-84 1q-67 -44 -100 -109.5t-33 -113.5q0 -58 31.5 -94.5t101.5 -36.5
q62 0 115 36q7 5 17 4t10 -8q0 -20 -19 -39q-24 -30 -94 -65t-158 -35q-96 0 -153.5 46.5t-57.5 127.5q0 66 70.5 142.5t202.5 144.5q-50 1 -152.5 2t-138.5 2q-37 0 -37 18q0 13 25 21q2 1 6.5 2.5t7 2.5t6 2.5t4.5 3.5t2 5t0.5 6.5t-2.5 8.5l-112 252q-3 10 -17 10h-424
q-14 0 -20 -19l-43 -104q-31 -77 -31 -109q0 -55 115 -64q7 -1 10 -1q33 -2 33 -19q0 -22 -35 -22q-43 0 -122.5 3t-133.5 3q-2 0 -88.5 -3t-138.5 -3q-37 0 -37 20q0 21 33 21q71 8 110.5 38.5t77.5 116.5zM453 494h307q8 0 10 2.5t0 5.5l-162 366q-5 6 -5.5 6t-2.5 -5
q-1 -2 -2 -3l-152 -364q-3 -8 7 -8z" />
    <glyph glyph-name="Cacute" unicode="&#x106;" horiz-adv-x="1679" 
d="M1114 -35q-223 0 -408 49.5t-335 175.5q-141 121 -199.5 272t-58.5 331q0 59 11.5 124.5t37.5 144t79 157.5t126 141q131 112 292 161.5t385 49.5q124 0 291 -25q162 -25 203 -26q11 -1 16 -5.5t6 -9t1 -12.5q0 -6 -2 -24.5t-4.5 -49.5t-4.5 -61q-2 -34 -3 -124t-3 -116
q-3 -49 -24 -49q-22 0 -25 43q-5 122 -78 201q-56 59 -162.5 94t-250.5 35q-189 0 -302 -99q-180 -157 -180 -518q0 -316 158 -510t416 -194q138 0 217 20.5t135 83.5q45 48 68 137q8 34 14 46t18 12q17 0 17 -37q0 -27 -15 -133t-30 -178q-3 -23 -15.5 -37t-38.5 -23
q-117 -47 -352 -47zM1217 2023q69 -69 96 -149q12 -31 -10 -31q-43 0 -119 -26q-193 -63 -307 -119q-43 -17 -48 -17q-6 0 -11 4.5t-5 10.5q0 9 21 37q55 66 144.5 155.5t129.5 120.5q46 37 68 37q15 0 41 -23z" />
    <glyph glyph-name="cacute" unicode="&#x107;" horiz-adv-x="1540" 
d="M1014 -31q-201 0 -368.5 42.5t-305.5 152.5q-129 106 -181.5 235t-52.5 287q0 51 10.5 108.5t35 126t72.5 137.5t114 122q119 96 265 138t347 42q115 0 262 -21q135 -22 179 -22q20 -2 20 -25q0 -7 -8 -125q-7 -195 -8 -213q-3 -43 -25 -43q-19 0 -22 39q-6 109 -68 176
q-103 111 -367 111q-158 0 -254 -80q-159 -125 -159 -438q0 -268 136.5 -436t367.5 -168q119 0 186.5 17t118.5 71q40 44 59 129q6 27 12 35t17 8q18 0 18 -31q0 -36 -39 -276q-9 -46 -49 -60q-97 -39 -313 -39zM1126 1808q66 -61 97 -145q11 -33 -11 -33q-29 4 -118 -26
q-185 -59 -303 -119q-34 -17 -46 -17q-18 0 -18 13q0 16 21 37q53 66 141.5 155t130.5 123q41 35 63 35q17 3 43 -23z" />
    <glyph glyph-name="Ccircumflex" unicode="&#x108;" horiz-adv-x="1679" 
d="M1114 -35q-223 0 -408 49.5t-335 175.5q-141 121 -199.5 272t-58.5 331q0 59 11.5 124.5t37.5 144t79 157.5t126 141q131 112 292 161.5t385 49.5q124 0 291 -25q162 -25 203 -26q11 -1 16 -5.5t6 -9t1 -12.5q0 -6 -2 -24.5t-4.5 -49.5t-4.5 -61q-2 -34 -3 -124t-3 -116
q-3 -49 -24 -49q-22 0 -25 43q-5 122 -78 201q-56 59 -162.5 94t-250.5 35q-189 0 -302 -99q-180 -157 -180 -518q0 -316 158 -510t416 -194q138 0 217 20.5t135 83.5q45 48 68 137q8 34 14 46t18 12q17 0 17 -37q0 -27 -15 -133t-30 -178q-3 -23 -15.5 -37t-38.5 -23
q-117 -47 -352 -47zM991 2046q14 0 47 -23q18 -12 79.5 -53.5t116 -78.5t77.5 -52q39 -29 39 -39t-15 -22l-102 -74q-20 -13 -37 4q-77 69 -217 156q-22 16 -39 16t-41 -12q-78 -37 -266 -150q-33 -18 -51 -18q-16 0 -12 15q3 13 22 30q7 6 91 71t164 127t95 76q34 27 49 27
z" />
    <glyph glyph-name="ccircumflex" unicode="&#x109;" horiz-adv-x="1540" 
d="M1014 -31q-201 0 -368.5 42.5t-305.5 152.5q-129 106 -181.5 235t-52.5 287q0 51 10.5 108.5t35 126t72.5 137.5t114 122q119 96 265 138t347 42q115 0 262 -21q135 -22 179 -22q20 -2 20 -25q0 -7 -8 -125q-7 -195 -8 -213q-3 -43 -25 -43q-19 0 -22 39q-6 109 -68 176
q-103 111 -367 111q-158 0 -254 -80q-159 -125 -159 -438q0 -268 136.5 -436t367.5 -168q119 0 186.5 17t118.5 71q40 44 59 129q6 27 12 35t17 8q18 0 18 -31q0 -36 -39 -276q-9 -46 -49 -60q-97 -39 -313 -39zM887 1800q15 0 47 -22q33 -21 133.5 -88.5t118.5 -79.5
q39 -29 39 -39q0 -11 -15 -23l-104 -69q-17 -14 -37 6q-65 56 -195 137q-25 18 -38 18t-41 -14q-107 -50 -246 -131q-32 -20 -49 -20q-15 0 -14 14q2 14 22 31q7 6 158.5 121t171.5 133q33 26 49 26z" />
    <glyph glyph-name="Cdotaccent" unicode="&#x10a;" horiz-adv-x="1679" 
d="M1114 -35q-223 0 -408 49.5t-335 175.5q-141 121 -199.5 272t-58.5 331q0 59 11.5 124.5t37.5 144t79 157.5t126 141q131 112 292 161.5t385 49.5q124 0 291 -25q162 -25 203 -26q11 -1 16 -5.5t6 -9t1 -12.5q0 -6 -2 -24.5t-4.5 -49.5t-4.5 -61q-2 -34 -3 -124t-3 -116
q-3 -49 -24 -49q-22 0 -25 43q-5 122 -78 201q-56 59 -162.5 94t-250.5 35q-189 0 -302 -99q-180 -157 -180 -518q0 -316 158 -510t416 -194q138 0 217 20.5t135 83.5q45 48 68 137q8 34 14 46t18 12q17 0 17 -37q0 -27 -15 -133t-30 -178q-3 -23 -15.5 -37t-38.5 -23
q-117 -47 -352 -47zM971 1724q-57 0 -91 37t-34 86q0 51 34.5 91t90.5 40q52 0 88.5 -37t36.5 -90q0 -48 -36 -87.5t-89 -39.5z" />
    <glyph glyph-name="cdotaccent" unicode="&#x10b;" horiz-adv-x="1540" 
d="M1014 -31q-201 0 -368.5 42.5t-305.5 152.5q-129 106 -181.5 235t-52.5 287q0 51 10.5 108.5t35 126t72.5 137.5t114 122q119 96 265 138t347 42q115 0 262 -21q135 -22 179 -22q20 -2 20 -25q0 -7 -8 -125q-7 -195 -8 -213q-3 -43 -25 -43q-19 0 -22 39q-6 109 -68 176
q-103 111 -367 111q-158 0 -254 -80q-159 -125 -159 -438q0 -268 136.5 -436t367.5 -168q119 0 186.5 17t118.5 71q40 44 59 129q6 27 12 35t17 8q18 0 18 -31q0 -36 -39 -276q-9 -46 -49 -60q-97 -39 -313 -39zM881 1520q-56 0 -89.5 36t-33.5 86q0 49 34.5 89.5t88.5 40.5
q53 0 90 -37t37 -88q0 -50 -36 -88.5t-91 -38.5z" />
    <glyph glyph-name="Ccaron" unicode="&#x10c;" horiz-adv-x="1679" 
d="M1114 -35q-223 0 -408 49.5t-335 175.5q-141 121 -199.5 272t-58.5 331q0 59 11.5 124.5t37.5 144t79 157.5t126 141q131 112 292 161.5t385 49.5q124 0 291 -25q162 -25 203 -26q11 -1 16 -5.5t6 -9t1 -12.5q0 -6 -2 -24.5t-4.5 -49.5t-4.5 -61q-2 -34 -3 -124t-3 -116
q-3 -49 -24 -49q-22 0 -25 43q-5 122 -78 201q-56 59 -162.5 94t-250.5 35q-189 0 -302 -99q-180 -157 -180 -518q0 -316 158 -510t416 -194q138 0 217 20.5t135 83.5q45 48 68 137q8 34 14 46t18 12q17 0 17 -37q0 -27 -15 -133t-30 -178q-3 -23 -15.5 -37t-38.5 -23
q-117 -47 -352 -47zM989 1694q-15 0 -47 22q-114 76 -272 187q-39 25 -39 39q0 6 14 20l100 68q14 9 21 8t18 -10q77 -69 217 -156q23 -19 39 -19q6 0 41 15q72 34 267 147q34 21 51 21q15 0 10 -17q-5 -14 -23 -28q-15 -16 -177.5 -139.5t-170.5 -129.5q-30 -28 -49 -28z
" />
    <glyph glyph-name="ccaron" unicode="&#x10d;" horiz-adv-x="1540" 
d="M1014 -31q-201 0 -368.5 42.5t-305.5 152.5q-129 106 -181.5 235t-52.5 287q0 51 10.5 108.5t35 126t72.5 137.5t114 122q119 96 265 138t347 42q115 0 262 -21q135 -22 179 -22q20 -2 20 -25q0 -7 -8 -125q-7 -195 -8 -213q-3 -43 -25 -43q-19 0 -22 39q-6 109 -68 176
q-103 111 -367 111q-158 0 -254 -80q-159 -125 -159 -438q0 -268 136.5 -436t367.5 -168q119 0 186.5 17t118.5 71q40 44 59 129q6 27 12 35t17 8q18 0 18 -31q0 -36 -39 -276q-9 -46 -49 -60q-97 -39 -313 -39zM879 1475q-15 0 -48 20q-195 134 -256 176q-38 25 -38 39
q0 6 12 21l102 67q22 15 39 -2q66 -59 201 -143q27 -19 39 -19q11 0 41 15q117 55 243 131q34 20 54 20q15 0 10 -17q-5 -14 -23 -28q-15 -16 -164 -129t-163 -125q-32 -26 -49 -26z" />
    <glyph glyph-name="Dcaron" unicode="&#x10e;" horiz-adv-x="1937" 
d="M319 588v360q0 358 -4 424q-2 26 -5.5 43.5t-12.5 36.5t-27.5 29.5t-46.5 13.5q-7 1 -31 2.5t-45 3.5q-38 2 -38 23q0 18 47 18q21 0 150 -3t179 -3q30 0 72.5 0.5t118 1.5t141.5 2q288 -2 484 -52.5t327 -184.5q87 -87 142 -218.5t55 -302.5q0 -174 -65 -321.5
t-161 -239.5q-239 -244 -700 -244q-117 0 -219 9q-140 14 -203 14q-98 0 -155 -2q-114 -4 -142 -4q-41 0 -41 20q0 21 39 21q31 2 64 8q31 4 46.5 34.5t20.5 90.5q10 163 10 420zM682 981v-262q0 -319 4 -397q3 -65 10.5 -98t24.5 -50q28 -34 85.5 -54t125.5 -20
q116 0 206 32t167 112q133 133 133 481q0 132 -42.5 253.5t-111.5 215.5q-50 66 -112.5 112t-126.5 69t-119.5 32.5t-112.5 9.5q-82 0 -111 -16q-18 -9 -18 -37q1 -38 -0.5 -174t-1.5 -209zM928 1657q-11 0 -47 22q-73 47 -273 187q-39 25 -39 39q0 7 13 20l102 68
q14 9 21 8t18 -10q77 -69 217 -156q19 -16 39 -16q7 0 41 12q55 26 264 147q36 21 53 21q15 0 10 -17q-4 -14 -22 -28q-16 -16 -177 -137.5t-171 -130.5q-32 -29 -49 -29z" />
    <glyph glyph-name="dcaron" unicode="&#x10f;" horiz-adv-x="1748" 
d="M287 510v311q0 298 -4 355q-2 25 -4.5 38t-11 32t-27 29t-47.5 13l-60 6q-31 4 -31 23q0 18 39 18q10 0 130 -3t171 -3q17 0 111 2t190 2q261 0 434 -47t289 -160q176 -172 176 -450q0 -149 -58.5 -276.5t-145.5 -209.5q-33 -32 -64.5 -56.5t-87.5 -55t-118.5 -50.5
t-156 -34t-202.5 -14q-52 0 -196.5 10t-178.5 10q-43 0 -137 -3t-137 -3q-37 0 -37 20q0 8 9.5 14.5t23.5 6.5q12 0 53 6q55 5 67 78t11 299v92zM633 846v-225q0 -264 4 -334q3 -59 10 -85t23 -44q25 -28 76.5 -44t103.5 -16q99 0 171.5 23t137.5 92q113 113 113 401
q0 231 -123 406q-54 76 -130 122.5t-139.5 60.5t-131.5 14q-73 0 -97 -17q-7 -6 -9.5 -13.5t-5 -45.5t-3 -100.5t-0.5 -194.5zM846 1473q-11 0 -47 22q-45 29 -256 174q-39 27 -39 39q0 8 12 23l102 67q14 9 21 8t18 -12q74 -64 201 -143q20 -17 39 -17q7 0 41 15
q100 44 244 131q36 20 53 20q15 0 9 -18q-4 -14 -21 -29q-16 -16 -166.5 -129.5t-161.5 -122.5q-33 -28 -49 -28z" />
    <glyph glyph-name="Dcroat" unicode="&#x110;" horiz-adv-x="1957" 
d="M340 870v78q0 358 -4 424q-2 26 -5.5 43.5t-12.5 36.5t-27.5 29.5t-46.5 13.5q-7 1 -31 2.5t-45 3.5q-39 3 -39 23q0 18 47 18q21 0 150.5 -3t179.5 -3q30 0 72.5 0.5t118 1.5t141.5 2q288 -2 484 -52.5t327 -184.5q87 -87 141.5 -218.5t54.5 -302.5q0 -175 -64.5 -322.5
t-160.5 -238.5q-239 -244 -700 -244q-118 0 -220 9q-140 14 -202 14q-99 0 -156 -2q-114 -4 -141 -4q-41 0 -41 20q0 21 39 21q30 2 63 8q59 9 68 125q10 163 10 420v174h-205q-13 0 -16.5 4t-1.5 18l8 64q1 13 6 17.5t16 4.5h193zM702 762v-43q0 -299 5 -397
q3 -66 10 -98.5t24 -49.5q28 -34 85.5 -54t125.5 -20q116 0 206 32t167 112q133 133 133 481q0 133 -42 254t-111 215q-50 66 -112.5 112t-126.5 69t-119.5 32.5t-112.5 9.5q-82 0 -111 -16q-18 -9 -18 -37q1 -37 -1 -171t-2 -212v-111h355q12 0 15 -4t3 -18l-8 -66
q-1 -12 -6 -16t-17 -4h-342z" />
    <glyph glyph-name="dcroat" unicode="&#x111;" horiz-adv-x="1769" 
d="M213 1288l-59 6q-31 4 -31 23q0 18 39 18q10 0 130 -3t171 -3q17 0 111 2t190 2q261 0 434 -47t289 -160q176 -172 176 -450q0 -149 -59 -276.5t-146 -209.5q-33 -32 -64.5 -56.5t-87.5 -55t-118.5 -50.5t-156 -34t-202.5 -14q-52 0 -196 10t-178 10q-43 0 -137.5 -3
t-137.5 -3q-37 0 -37 20q0 8 9.5 14.5t23.5 6.5q12 0 53 6q55 5 67 78t11 299v92v113h-172q-13 0 -16.5 4t-1.5 18l8 64q1 12 6 16t16 4h160v92q0 298 -4 355q-2 25 -4.5 38t-11 32t-27 29t-47.5 13zM653 623v-2q0 -264 4 -334q3 -59 10 -85t23 -44q25 -28 76.5 -44
t103.5 -16q100 0 172.5 23t137.5 92q112 112 112 401q0 231 -123 406q-54 76 -130 122.5t-139.5 60.5t-131.5 14q-72 0 -96 -17q-13 -11 -16 -63t-3 -291v-117h330q12 0 15 -3.5t3 -16.5l-8 -66q-2 -12 -6 -16t-16 -4h-318z" />
    <glyph glyph-name="Emacron" unicode="&#x112;" horiz-adv-x="1400" 
d="M319 588v360q0 342 -6 441q-3 46 -19.5 71.5t-53.5 34.5q-11 2 -38 4t-30 2q-37 3 -37 23q0 18 45 18q62 0 162.5 -3t142.5 -3q23 0 293 1t285 1q71 0 111 8q28 8 32 8q13 0 13 -18q0 -4 -1.5 -13.5t-4 -30.5t-5.5 -46q-6 -40 -16 -219q0 -12 -6 -20.5t-15 -8.5
q-17 0 -20 29q0 35 -10 71q-8 38 -36.5 57t-98.5 25q-125 11 -308 11q-16 0 -16 -21v-450q0 -25 16 -25q97 -3 297 2q77 3 105 11.5t45 35.5q18 27 29 27q12 0 12 -25q0 -8 -3 -34t-7 -66t-7 -74q-2 -47 -2 -170q0 -39 -18 -39q-16 0 -23 33q-1 8 -3 23.5t-3 23.5
q-6 47 -36 71.5t-101 28.5q-128 9 -289 9q-12 0 -12 -27v-141v-269q1 -58 9 -88.5t36 -52.5t76.5 -28.5t136.5 -6.5q128 0 190 25q42 17 64.5 54t36.5 108q6 36 24 36q19 0 19 -45q0 -55 -12 -147t-21 -127q-10 -38 -27.5 -46.5t-76.5 -8.5q-150 0 -351.5 6t-300.5 6
q-46 0 -141 -3t-154 -3q-49 0 -49 20q0 21 41 21q44 4 62 8q40 6 53 55.5t16 159.5q6 123 6 330zM1028 1741h-651q-10 0 -10 16q9 84 22 107q6 12 19 12h657q14 0 14 -16q-2 -15 -10 -53.5t-12 -49.5q-8 -16 -29 -16z" />
    <glyph glyph-name="emacron" unicode="&#x113;" horiz-adv-x="1286" 
d="M287 510v311q0 299 -6 385q-6 71 -66 82q-7 2 -16.5 3t-21 1.5t-17.5 1.5q-31 2 -31 23q0 18 39 18q60 0 149.5 -3t124.5 -3q17 0 268 1t265 1q63 0 104 8q21 7 29 7q16 0 12 -19q-13 -73 -14 -86q-2 -39 -10 -192q0 -11 -6 -20t-15 -9q-17 0 -20 24q-9 59 -11 66
q-8 34 -33 51t-87 23q-136 8 -275 8q-14 0 -14 -18v-375q0 -17 14 -17q182 0 254 2q76 3 103.5 11t44.5 34q11 23 24 23q15 0 15 -23q0 -6 -7 -65.5t-8 -97.5q-4 -78 -4 -154q0 -31 -18 -31t-21 29q-1 5 -2 17t-2 18q-8 46 -34 68t-93 26q-86 6 -254 6q-12 0 -12 -14v-129
q0 -18 -0.5 -62t-0.5 -82.5t1 -70.5q1 -51 7.5 -77.5t31.5 -46t69 -25t125 -5.5q110 0 170 21q37 15 56.5 48t31.5 97q6 31 25 31q16 0 16 -37q0 -53 -9.5 -139t-16.5 -117q-10 -32 -26.5 -39.5t-70.5 -7.5q-147 0 -329.5 5t-270.5 5q-41 0 -132.5 -3t-145.5 -3
q-43 0 -43 22q0 19 37 19q52 6 53 6q41 7 54 52.5t18 152.5q0 30 1 120.5t1 143.5zM950 1530h-610q-10 0 -10 16q8 71 22 103q6 12 21 12h616q12 0 12 -16q-8 -71 -22 -99q-8 -16 -29 -16z" />
    <glyph glyph-name="Ebreve" unicode="&#x114;" horiz-adv-x="1400" 
d="M319 588v360q0 342 -6 441q-3 46 -19.5 71.5t-53.5 34.5q-11 2 -38 4t-30 2q-37 3 -37 23q0 18 45 18q62 0 162.5 -3t142.5 -3q23 0 293 1t285 1q71 0 111 8q28 8 32 8q13 0 13 -18q0 -4 -1.5 -13.5t-4 -30.5t-5.5 -46q-6 -40 -16 -219q0 -12 -6 -20.5t-15 -8.5
q-17 0 -20 29q0 35 -10 71q-8 38 -36.5 57t-98.5 25q-125 11 -308 11q-16 0 -16 -21v-450q0 -25 16 -25q97 -3 297 2q77 3 105 11.5t45 35.5q18 27 29 27q12 0 12 -25q0 -8 -3 -34t-7 -66t-7 -74q-2 -47 -2 -170q0 -39 -18 -39q-16 0 -23 33q-1 8 -3 23.5t-3 23.5
q-6 47 -36 71.5t-101 28.5q-128 9 -289 9q-12 0 -12 -27v-141v-269q1 -58 9 -88.5t36 -52.5t76.5 -28.5t136.5 -6.5q128 0 190 25q42 17 64.5 54t36.5 108q6 36 24 36q19 0 19 -45q0 -55 -12 -147t-21 -127q-10 -38 -27.5 -46.5t-76.5 -8.5q-150 0 -351.5 6t-300.5 6
q-46 0 -141 -3t-154 -3q-49 0 -49 20q0 21 41 21q44 4 62 8q40 6 53 55.5t16 159.5q6 123 6 330zM324 1878q0 23 20 33q23 23 58.5 42t50.5 19q13 0 18 -12q25 -65 104.5 -109.5t198.5 -44.5q212 0 334 146q20 20 33 20q17 0 6 -29q-6 -15 -17 -30q-69 -107 -188 -164
t-246 -57q-95 0 -166.5 16.5t-136.5 63.5q-69 51 -69 106z" />
    <glyph glyph-name="ebreve" unicode="&#x115;" horiz-adv-x="1286" 
d="M287 510v311q0 299 -6 385q-6 71 -66 82q-7 2 -16.5 3t-21 1.5t-17.5 1.5q-31 2 -31 23q0 18 39 18q60 0 149.5 -3t124.5 -3q17 0 268 1t265 1q63 0 104 8q21 7 29 7q16 0 12 -19q-13 -73 -14 -86q-2 -39 -10 -192q0 -11 -6 -20t-15 -9q-17 0 -20 24q-9 59 -11 66
q-8 34 -33 51t-87 23q-136 8 -275 8q-14 0 -14 -18v-375q0 -17 14 -17q182 0 254 2q76 3 103.5 11t44.5 34q11 23 24 23q15 0 15 -23q0 -6 -7 -65.5t-8 -97.5q-4 -78 -4 -154q0 -31 -18 -31t-21 29q-1 5 -2 17t-2 18q-8 46 -34 68t-93 26q-86 6 -254 6q-12 0 -12 -14v-129
q0 -18 -0.5 -62t-0.5 -82.5t1 -70.5q1 -51 7.5 -77.5t31.5 -46t69 -25t125 -5.5q110 0 170 21q37 15 56.5 48t31.5 97q6 31 25 31q16 0 16 -37q0 -53 -9.5 -139t-16.5 -117q-10 -32 -26.5 -39.5t-70.5 -7.5q-147 0 -329.5 5t-270.5 5q-41 0 -132.5 -3t-145.5 -3
q-43 0 -43 22q0 19 37 19q52 6 53 6q41 7 54 52.5t18 152.5q0 30 1 120.5t1 143.5zM287 1671q0 17 20 33q22 22 56 40.5t47 18.5t18 -12q23 -64 99 -108t188 -44q105 0 175.5 33t129.5 105q18 18 31 18q21 0 -2 -43q-3 -6 -7 -12q-68 -98 -176.5 -150.5t-226.5 -52.5
q-179 0 -285 74q-67 52 -67 100z" />
    <glyph glyph-name="Edotaccent" unicode="&#x116;" horiz-adv-x="1400" 
d="M319 588v360q0 342 -6 441q-3 46 -19.5 71.5t-53.5 34.5q-11 2 -38 4t-30 2q-37 3 -37 23q0 18 45 18q62 0 162.5 -3t142.5 -3q23 0 293 1t285 1q71 0 111 8q28 8 32 8q13 0 13 -18q0 -4 -1.5 -13.5t-4 -30.5t-5.5 -46q-6 -40 -16 -219q0 -12 -6 -20.5t-15 -8.5
q-17 0 -20 29q0 35 -10 71q-8 38 -36.5 57t-98.5 25q-125 11 -308 11q-16 0 -16 -21v-450q0 -25 16 -25q97 -3 297 2q77 3 105 11.5t45 35.5q18 27 29 27q12 0 12 -25q0 -8 -3 -34t-7 -66t-7 -74q-2 -47 -2 -170q0 -39 -18 -39q-16 0 -23 33q-1 8 -3 23.5t-3 23.5
q-6 47 -36 71.5t-101 28.5q-128 9 -289 9q-12 0 -12 -27v-141v-269q1 -58 9 -88.5t36 -52.5t76.5 -28.5t136.5 -6.5q128 0 190 25q42 17 64.5 54t36.5 108q6 36 24 36q19 0 19 -45q0 -55 -12 -147t-21 -127q-10 -38 -27.5 -46.5t-76.5 -8.5q-150 0 -351.5 6t-300.5 6
q-46 0 -141 -3t-154 -3q-49 0 -49 20q0 21 41 21q44 4 62 8q40 6 53 55.5t16 159.5q6 123 6 330zM743 1700q-57 0 -91 37.5t-34 87.5q0 49 35 89t90 40q52 0 88.5 -37t36.5 -88q0 -50 -36 -89.5t-89 -39.5z" />
    <glyph glyph-name="edotaccent" unicode="&#x117;" horiz-adv-x="1286" 
d="M287 510v311q0 299 -6 385q-6 71 -66 82q-7 2 -16.5 3t-21 1.5t-17.5 1.5q-31 2 -31 23q0 18 39 18q60 0 149.5 -3t124.5 -3q17 0 268 1t265 1q63 0 104 8q21 7 29 7q16 0 12 -19q-13 -73 -14 -86q-2 -39 -10 -192q0 -11 -6 -20t-15 -9q-17 0 -20 24q-9 59 -11 66
q-8 34 -33 51t-87 23q-136 8 -275 8q-14 0 -14 -18v-375q0 -17 14 -17q182 0 254 2q76 3 103.5 11t44.5 34q11 23 24 23q15 0 15 -23q0 -6 -7 -65.5t-8 -97.5q-4 -78 -4 -154q0 -31 -18 -31t-21 29q-1 5 -2 17t-2 18q-8 46 -34 68t-93 26q-86 6 -254 6q-12 0 -12 -14v-129
q0 -18 -0.5 -62t-0.5 -82.5t1 -70.5q1 -51 7.5 -77.5t31.5 -46t69 -25t125 -5.5q110 0 170 21q37 15 56.5 48t31.5 97q6 31 25 31q16 0 16 -37q0 -53 -9.5 -139t-16.5 -117q-10 -32 -26.5 -39.5t-70.5 -7.5q-147 0 -329.5 5t-270.5 5q-41 0 -132.5 -3t-145.5 -3
q-43 0 -43 22q0 19 37 19q52 6 53 6q41 7 54 52.5t18 152.5q0 30 1 120.5t1 143.5zM657 1495q-56 0 -89 36.5t-33 86.5q0 49 34 89t88 40q53 0 90 -36.5t37 -88.5q0 -50 -36 -88.5t-91 -38.5z" />
    <glyph glyph-name="Eogonek" unicode="&#x118;" horiz-adv-x="1400" 
d="M682 725v-141v-269q1 -58 9 -88.5t36 -52.5t76.5 -28.5t136.5 -6.5q128 0 190 25q42 17 64.5 54t36.5 108q6 36 24 36q19 0 19 -45q0 -55 -12 -147t-21 -127q-10 -38 -27.5 -46.5t-76.5 -8.5h-43q-62 -46 -93.5 -110.5t-31.5 -110.5q0 -125 129 -125q62 0 119 36
q9 6 18.5 5t9.5 -7q0 -20 -18 -38q-30 -32 -98 -67.5t-156 -35.5q-97 0 -152 47t-55 129q0 63 65.5 137t190.5 140q-70 1 -251 6.5t-286 5.5q-46 0 -141 -3t-154 -3q-49 0 -49 20q0 21 41 21q44 4 62 8q40 6 53 55.5t16 159.5q6 123 6 330v360q0 342 -6 441
q-3 46 -19.5 71.5t-53.5 34.5q-11 2 -38 4t-30 2q-37 3 -37 23q0 18 45 18q62 0 162.5 -3t142.5 -3q23 0 293 1t285 1q71 0 111 8q28 8 32 8q13 0 13 -18q0 -4 -1.5 -13.5t-4 -30.5t-5.5 -46q-6 -40 -16 -219q0 -12 -6 -20.5t-15 -8.5q-17 0 -20 29q0 35 -10 71
q-8 38 -36.5 57t-98.5 25q-125 11 -308 11q-16 0 -16 -21v-450q0 -25 16 -25q97 -3 297 2q77 3 105 11.5t45 35.5q18 27 29 27q12 0 12 -25q0 -8 -3 -34t-7 -66t-7 -74q-2 -47 -2 -170q0 -39 -18 -39q-16 0 -23 33q-1 8 -3 23.5t-3 23.5q-6 47 -36 71.5t-101 28.5
q-128 9 -289 9q-12 0 -12 -27z" />
    <glyph glyph-name="eogonek" unicode="&#x119;" horiz-adv-x="1286" 
d="M635 631v-129q0 -18 -0.5 -62t-0.5 -82.5t1 -70.5q1 -51 7.5 -77.5t31.5 -46t69 -25t125 -5.5q110 0 170 21q37 15 56.5 48t31.5 97q6 31 25 31q16 0 16 -37q0 -53 -9.5 -139t-16.5 -117q-10 -32 -26.5 -39.5t-70.5 -7.5h-32q-64 -45 -94.5 -107t-30.5 -110
q0 -131 133 -131q62 0 113 36q9 5 18.5 4t9.5 -8q0 -21 -18 -39q-29 -32 -96.5 -66t-155.5 -34q-96 0 -153.5 46.5t-57.5 127.5q0 65 66.5 139t195.5 142q-99 1 -255 5.5t-243 4.5q-41 0 -132.5 -3t-145.5 -3q-43 0 -43 22q0 19 37 19q52 6 53 6q41 7 54 52.5t18 152.5
q0 30 1 120.5t1 143.5v311q0 299 -6 385q-6 71 -66 82q-7 2 -16.5 3t-21 1.5t-17.5 1.5q-31 2 -31 23q0 18 39 18q60 0 149.5 -3t124.5 -3q17 0 268 1t265 1q63 0 104 8q21 7 29 7q16 0 12 -19q-13 -73 -14 -86q-2 -39 -10 -192q0 -11 -6 -20t-15 -9q-17 0 -20 24
q-9 59 -11 66q-8 34 -33 51t-87 23q-136 8 -275 8q-14 0 -14 -18v-375q0 -17 14 -17q182 0 254 2q76 3 103.5 11t44.5 34q11 23 24 23q15 0 15 -23q0 -6 -7 -65.5t-8 -97.5q-4 -78 -4 -154q0 -31 -18 -31t-21 29q-1 5 -2 17t-2 18q-8 46 -34 68t-93 26q-86 6 -254 6
q-12 0 -12 -14z" />
    <glyph glyph-name="Ecaron" unicode="&#x11a;" horiz-adv-x="1400" 
d="M319 588v360q0 342 -6 441q-3 46 -19.5 71.5t-53.5 34.5q-11 2 -38 4t-30 2q-37 3 -37 23q0 18 45 18q62 0 162.5 -3t142.5 -3q23 0 293 1t285 1q71 0 111 8q28 8 32 8q13 0 13 -18q0 -4 -1.5 -13.5t-4 -30.5t-5.5 -46q-6 -40 -16 -219q0 -12 -6 -20.5t-15 -8.5
q-17 0 -20 29q0 35 -10 71q-8 38 -36.5 57t-98.5 25q-125 11 -308 11q-16 0 -16 -21v-450q0 -25 16 -25q97 -3 297 2q77 3 105 11.5t45 35.5q18 27 29 27q12 0 12 -25q0 -8 -3 -34t-7 -66t-7 -74q-2 -47 -2 -170q0 -39 -18 -39q-16 0 -23 33q-1 8 -3 23.5t-3 23.5
q-6 47 -36 71.5t-101 28.5q-128 9 -289 9q-12 0 -12 -27v-141v-269q1 -58 9 -88.5t36 -52.5t76.5 -28.5t136.5 -6.5q128 0 190 25q42 17 64.5 54t36.5 108q6 36 24 36q19 0 19 -45q0 -55 -12 -147t-21 -127q-10 -38 -27.5 -46.5t-76.5 -8.5q-150 0 -351.5 6t-300.5 6
q-46 0 -141 -3t-154 -3q-49 0 -49 20q0 21 41 21q44 4 62 8q40 6 53 55.5t16 159.5q6 123 6 330zM729 1655q-16 0 -49 22q-114 77 -272 187q-39 25 -39 39q0 6 14 20l102 68q20 15 37 -2q85 -74 217 -156q25 -18 39 -18q13 0 41 14q66 31 266 147q34 21 54 21q15 0 8 -18
q-5 -13 -21 -27q-16 -16 -177 -138.5t-171 -130.5q-33 -28 -49 -28z" />
    <glyph glyph-name="ecaron" unicode="&#x11b;" horiz-adv-x="1286" 
d="M287 510v311q0 299 -6 385q-6 71 -66 82q-7 2 -16.5 3t-21 1.5t-17.5 1.5q-31 2 -31 23q0 18 39 18q60 0 149.5 -3t124.5 -3q17 0 268 1t265 1q63 0 104 8q21 7 29 7q16 0 12 -19q-13 -73 -14 -86q-2 -39 -10 -192q0 -11 -6 -20t-15 -9q-17 0 -20 24q-9 59 -11 66
q-8 34 -33 51t-87 23q-136 8 -275 8q-14 0 -14 -18v-375q0 -17 14 -17q182 0 254 2q76 3 103.5 11t44.5 34q11 23 24 23q15 0 15 -23q0 -6 -7 -65.5t-8 -97.5q-4 -78 -4 -154q0 -31 -18 -31t-21 29q-1 5 -2 17t-2 18q-8 46 -34 68t-93 26q-86 6 -254 6q-12 0 -12 -14v-129
q0 -18 -0.5 -62t-0.5 -82.5t1 -70.5q1 -51 7.5 -77.5t31.5 -46t69 -25t125 -5.5q110 0 170 21q37 15 56.5 48t31.5 97q6 31 25 31q16 0 16 -37q0 -53 -9.5 -139t-16.5 -117q-10 -32 -26.5 -39.5t-70.5 -7.5q-147 0 -329.5 5t-270.5 5q-41 0 -132.5 -3t-145.5 -3
q-43 0 -43 22q0 19 37 19q52 6 53 6q41 7 54 52.5t18 152.5q0 30 1 120.5t1 143.5zM664 1458q-15 0 -48 23q-31 20 -132 89.5t-124 84.5q-38 28 -38 39q0 8 12 20l102 70q23 15 39 -4q78 -68 201 -144q22 -16 39 -16q11 0 41 12q91 43 243 131q36 21 54 21q15 0 10 -17
q-5 -14 -23 -28q-16 -16 -166.5 -129.5t-160.5 -122.5q-32 -29 -49 -29z" />
    <glyph glyph-name="Gcircumflex" unicode="&#x11c;" horiz-adv-x="1871" 
d="M1630 338v-148q0 -64 -3 -90.5t-10.5 -37.5t-27.5 -19q-84 -33 -225.5 -55.5t-276.5 -22.5q-218 0 -395 49.5t-307 147t-201 252t-71 354.5q0 123 30 232t83 190.5t116.5 142t138.5 103.5q75 44 156 73t161.5 41.5t139.5 16.5t131 4q150 0 332 -29q17 -2 89.5 -12.5
t106.5 -11.5q24 0 21 -27q-23 -115 -23 -377q0 -43 -22 -43q-10 0 -16.5 10t-8.5 23q-8 63 -24 102q-30 107 -163.5 172.5t-342.5 65.5q-236 0 -367 -148q-129 -145 -129 -442q0 -113 21.5 -220t68.5 -205.5t116 -171.5t172 -117t228 -44q81 0 115 25q25 19 25 55v125
q0 164 -2 240q0 87 -22 124.5t-75 45.5q-12 2 -25.5 3.5t-32 3.5t-30.5 3q-13 0 -22.5 5.5t-9.5 14.5q0 21 43 21q76 0 202 -3t144 -3q32 0 144.5 3t172.5 3q47 0 47 -21q0 -17 -33 -20q-3 0 -12.5 -1t-22 -2.5t-20.5 -2.5q-38 -8 -56 -30.5t-22 -74.5q-6 -99 -6 -272z
M1028 2038q12 0 47 -21q31 -20 142 -95.5t133 -90.5q36 -23 36 -39q0 -10 -12 -20l-104 -76q-17 -14 -37 6q-79 69 -215 153q-27 19 -39 19q-11 0 -43 -14q-53 -26 -264 -148q-34 -20 -51 -20q-14 0 -13 14t23 31q13 11 171 134t177 140q36 27 49 27z" />
    <glyph glyph-name="gcircumflex" unicode="&#x11d;" horiz-adv-x="1701" 
d="M1479 289v-113q0 -87 -6.5 -109.5t-34.5 -31.5q-76 -26 -203.5 -46t-245.5 -20q-201 0 -362.5 43.5t-278 129t-179.5 219t-63 305.5q0 108 27.5 202t76.5 164.5t106.5 122t125.5 88.5q67 39 141.5 64t148.5 35.5t127.5 14t117.5 3.5q120 0 289 -23q24 -3 62.5 -8.5
t67.5 -9t52 -4.5q27 0 16 -29l-3 -16q-3 -17 -5.5 -40.5t-6 -60t-5.5 -93.5t-2 -124q0 -39 -23 -39q-15 0 -20 33q-9 49 -17 72q-17 104 -137.5 163.5t-318.5 59.5q-215 0 -322 -131q-104 -129 -104 -367q0 -94 16.5 -184t55 -175.5t95 -149.5t142.5 -103t192 -39
q84 0 109 25q18 12 18 43v90q0 137 2 205q0 82 -20 115.5t-72 39.5q-30 5 -80 8q-13 1 -20.5 9t-7.5 16q0 16 39 16q73 0 189 -2t130 -2q31 0 137 2t168 2q41 0 41 -18q0 -15 -28 -23q-22 0 -50 -4q-36 -5 -51 -23t-18 -63q-8 -61 -8 -239zM911 1794q15 0 47 -22
q33 -21 133.5 -88.5t118.5 -79.5q39 -29 39 -39q0 -11 -14 -23l-102 -69q-20 -14 -37 6q-60 51 -197 137q-22 18 -39 18q-9 0 -41 -14q-96 -45 -244 -131q-36 -21 -51 -21q-16 0 -11 16q4 13 22 29q13 11 160.5 124t166.5 130q36 27 49 27z" />
    <glyph glyph-name="Gbreve" unicode="&#x11e;" horiz-adv-x="1871" 
d="M1630 338v-148q0 -64 -3 -90.5t-10.5 -37.5t-27.5 -19q-84 -33 -225.5 -55.5t-276.5 -22.5q-218 0 -395 49.5t-307 147t-201 252t-71 354.5q0 123 30 232t83 190.5t116.5 142t138.5 103.5q75 44 156 73t161.5 41.5t139.5 16.5t131 4q150 0 332 -29q17 -2 89.5 -12.5
t106.5 -11.5q24 0 21 -27q-23 -115 -23 -377q0 -43 -22 -43q-10 0 -16.5 10t-8.5 23q-8 63 -24 102q-30 107 -163.5 172.5t-342.5 65.5q-236 0 -367 -148q-129 -145 -129 -442q0 -113 21.5 -220t68.5 -205.5t116 -171.5t172 -117t228 -44q81 0 115 25q25 19 25 55v125
q0 164 -2 240q0 87 -22 124.5t-75 45.5q-12 2 -25.5 3.5t-32 3.5t-30.5 3q-13 0 -22.5 5.5t-9.5 14.5q0 21 43 21q76 0 202 -3t144 -3q32 0 144.5 3t172.5 3q47 0 47 -21q0 -17 -33 -20q-3 0 -12.5 -1t-22 -2.5t-20.5 -2.5q-38 -8 -56 -30.5t-22 -74.5q-6 -99 -6 -272z
M586 1903q0 22 20 32q23 25 58.5 44.5t50.5 19.5q13 0 18 -12q25 -65 104.5 -110.5t198.5 -45.5q213 0 334 145q21 23 33 23q16 0 7 -30q-5 -15 -15 -30q-70 -109 -189.5 -165t-247.5 -56q-94 0 -166 16t-137 62q-69 54 -69 107z" />
    <glyph glyph-name="gbreve" unicode="&#x11f;" horiz-adv-x="1701" 
d="M1479 289v-113q0 -87 -6.5 -109.5t-34.5 -31.5q-76 -26 -203.5 -46t-245.5 -20q-201 0 -362.5 43.5t-278 129t-179.5 219t-63 305.5q0 108 27.5 202t76.5 164.5t106.5 122t125.5 88.5q67 39 141.5 64t148.5 35.5t127.5 14t117.5 3.5q120 0 289 -23q24 -3 62.5 -8.5
t67.5 -9t52 -4.5q27 0 16 -29l-3 -16q-3 -17 -5.5 -40.5t-6 -60t-5.5 -93.5t-2 -124q0 -39 -23 -39q-15 0 -20 33q-9 49 -17 72q-17 104 -137.5 163.5t-318.5 59.5q-215 0 -322 -131q-104 -129 -104 -367q0 -94 16.5 -184t55 -175.5t95 -149.5t142.5 -103t192 -39
q84 0 109 25q18 12 18 43v90q0 137 2 205q0 82 -20 115.5t-72 39.5q-30 5 -80 8q-13 1 -20.5 9t-7.5 16q0 16 39 16q73 0 189 -2t130 -2q31 0 137 2t168 2q41 0 41 -18q0 -15 -28 -23q-22 0 -50 -4q-36 -5 -51 -23t-18 -63q-8 -61 -8 -239zM498 1686q0 18 18 32
q22 22 55.5 41t46.5 19t19 -15q23 -63 99 -106t188 -43q105 0 175.5 32.5t129.5 102.5q18 20 33 20q16 0 2 -32q-5 -11 -13 -23q-67 -98 -176 -151.5t-227 -53.5q-176 0 -285 76q-65 48 -65 101z" />
    <glyph glyph-name="Gdotaccent" unicode="&#x120;" horiz-adv-x="1871" 
d="M1630 338v-148q0 -64 -3 -90.5t-10.5 -37.5t-27.5 -19q-84 -33 -225.5 -55.5t-276.5 -22.5q-218 0 -395 49.5t-307 147t-201 252t-71 354.5q0 123 30 232t83 190.5t116.5 142t138.5 103.5q75 44 156 73t161.5 41.5t139.5 16.5t131 4q150 0 332 -29q17 -2 89.5 -12.5
t106.5 -11.5q24 0 21 -27q-23 -115 -23 -377q0 -43 -22 -43q-10 0 -16.5 10t-8.5 23q-8 63 -24 102q-30 107 -163.5 172.5t-342.5 65.5q-236 0 -367 -148q-129 -145 -129 -442q0 -113 21.5 -220t68.5 -205.5t116 -171.5t172 -117t228 -44q81 0 115 25q25 19 25 55v125
q0 164 -2 240q0 87 -22 124.5t-75 45.5q-12 2 -25.5 3.5t-32 3.5t-30.5 3q-13 0 -22.5 5.5t-9.5 14.5q0 21 43 21q76 0 202 -3t144 -3q32 0 144.5 3t172.5 3q47 0 47 -21q0 -17 -33 -20q-3 0 -12.5 -1t-22 -2.5t-20.5 -2.5q-38 -8 -56 -30.5t-22 -74.5q-6 -99 -6 -272z
M1001 1708q-57 0 -90.5 37t-33.5 88q0 49 34.5 89t89.5 40q52 0 88.5 -37t36.5 -88q0 -50 -36 -89.5t-89 -39.5z" />
    <glyph glyph-name="gdotaccent" unicode="&#x121;" horiz-adv-x="1701" 
d="M1479 289v-113q0 -87 -6.5 -109.5t-34.5 -31.5q-76 -26 -203.5 -46t-245.5 -20q-201 0 -362.5 43.5t-278 129t-179.5 219t-63 305.5q0 108 27.5 202t76.5 164.5t106.5 122t125.5 88.5q67 39 141.5 64t148.5 35.5t127.5 14t117.5 3.5q120 0 289 -23q24 -3 62.5 -8.5
t67.5 -9t52 -4.5q27 0 16 -29l-3 -16q-3 -17 -5.5 -40.5t-6 -60t-5.5 -93.5t-2 -124q0 -39 -23 -39q-15 0 -20 33q-9 49 -17 72q-17 104 -137.5 163.5t-318.5 59.5q-215 0 -322 -131q-104 -129 -104 -367q0 -94 16.5 -184t55 -175.5t95 -149.5t142.5 -103t192 -39
q84 0 109 25q18 12 18 43v90q0 137 2 205q0 82 -20 115.5t-72 39.5q-30 5 -80 8q-13 1 -20.5 9t-7.5 16q0 16 39 16q73 0 189 -2t130 -2q31 0 137 2t168 2q41 0 41 -18q0 -15 -28 -23q-22 0 -50 -4q-36 -5 -51 -23t-18 -63q-8 -61 -8 -239zM897 1509q-57 0 -91 37t-34 86
t35 89t90 40q53 0 89 -36.5t36 -88.5q0 -49 -35.5 -88t-89.5 -39z" />
    <glyph glyph-name="uni0122" unicode="&#x122;" horiz-adv-x="1871" 
d="M1630 338v-148q0 -64 -3 -90.5t-10.5 -37.5t-27.5 -19q-84 -33 -225.5 -55.5t-276.5 -22.5q-218 0 -395 49.5t-307 147t-201 252t-71 354.5q0 123 30 232t83 190.5t116.5 142t138.5 103.5q75 44 156 73t161.5 41.5t139.5 16.5t131 4q150 0 332 -29q17 -2 89.5 -12.5
t106.5 -11.5q24 0 21 -27q-23 -115 -23 -377q0 -43 -22 -43q-10 0 -16.5 10t-8.5 23q-8 63 -24 102q-30 107 -163.5 172.5t-342.5 65.5q-236 0 -367 -148q-129 -145 -129 -442q0 -113 21.5 -220t68.5 -205.5t116 -171.5t172 -117t228 -44q81 0 115 25q25 19 25 55v125
q0 164 -2 240q0 87 -22 124.5t-75 45.5q-12 2 -25.5 3.5t-32 3.5t-30.5 3q-13 0 -22.5 5.5t-9.5 14.5q0 21 43 21q76 0 202 -3t144 -3q32 0 144.5 3t172.5 3q47 0 47 -21q0 -17 -33 -20q-3 0 -12.5 -1t-22 -2.5t-20.5 -2.5q-38 -8 -56 -30.5t-22 -74.5q-6 -99 -6 -272z
M846 -274q0 13 42.5 45.5t100 61t90.5 28.5q40 0 67.5 -43t27.5 -103q0 -107 -78.5 -204.5t-204.5 -161.5q-23 -12 -43 -14t-23 12q0 12 21 28q127 90 127 189q0 71 -103 131q-24 12 -24 31z" />
    <glyph glyph-name="uni0123" unicode="&#x123;" horiz-adv-x="1701" 
d="M1479 289v-113q0 -87 -6.5 -109.5t-34.5 -31.5q-76 -26 -203.5 -46t-245.5 -20q-201 0 -362.5 43.5t-278 129t-179.5 219t-63 305.5q0 108 27.5 202t76.5 164.5t106.5 122t125.5 88.5q67 39 141.5 64t148.5 35.5t127.5 14t117.5 3.5q120 0 289 -23q24 -3 62.5 -8.5
t67.5 -9t52 -4.5q27 0 16 -29l-3 -16q-3 -17 -5.5 -40.5t-6 -60t-5.5 -93.5t-2 -124q0 -39 -23 -39q-15 0 -20 33q-9 49 -17 72q-17 104 -137.5 163.5t-318.5 59.5q-215 0 -322 -131q-104 -129 -104 -367q0 -94 16.5 -184t55 -175.5t95 -149.5t142.5 -103t192 -39
q84 0 109 25q18 12 18 43v90q0 137 2 205q0 82 -20 115.5t-72 39.5q-30 5 -80 8q-13 1 -20.5 9t-7.5 16q0 16 39 16q73 0 189 -2t130 -2q31 0 137 2t168 2q41 0 41 -18q0 -15 -28 -23q-22 0 -50 -4q-36 -5 -51 -23t-18 -63q-8 -61 -8 -239zM721 -268q0 14 45 48.5
t105.5 64.5t95.5 30q41 0 69.5 -44.5t28.5 -106.5q0 -113 -82.5 -216t-216.5 -172q-11 -6 -22.5 -9.5t-22 -5t-17 1.5t-6.5 11q0 13 23 31q133 94 133 197q0 76 -106 139q-27 13 -27 31z" />
    <glyph glyph-name="Hcircumflex" unicode="&#x124;" horiz-adv-x="2019" 
d="M694 911h639q13 0 13 15v43q0 335 -5 417q-3 48 -21.5 73.5t-66.5 35.5q-7 1 -71 6q-20 0 -29.5 6.5t-9.5 14.5q0 20 41 20q52 0 128 -1.5t132.5 -3t62.5 -1.5l145 3q144 3 197 3q41 0 41 -20q0 -8 -8 -14.5t-22 -6.5q-11 -1 -34.5 -3.5t-37.5 -4.5q-38 -6 -54.5 -31.5
t-21.5 -77.5q-4 -66 -4 -436v-360q0 -346 10 -432q5 -54 22.5 -80t61.5 -33q17 -2 52 -5t38 -3q35 0 35 -21q0 -20 -41 -20q-84 0 -232 3t-153 3q-8 0 -121.5 -3t-171.5 -3q-45 0 -45 22q0 19 39 19q51 5 64 8q35 7 48.5 34t18.5 81q13 140 13 409v166q0 12 -13 12h-639
q-12 0 -12 -12v-213q0 -256 10 -366q5 -48 24 -75t62 -34q48 -7 86 -10q39 0 39 -21q0 -20 -41 -20q-51 0 -141 1.5t-161 3t-77 1.5q-3 0 -131.5 -3t-167.5 -3q-45 0 -45 18q0 23 35 23q22 2 64 8q64 8 71 121q10 143 10 424v356q0 331 -6 430q-3 57 -24.5 85.5t-73.5 35.5
q-14 2 -57 6q-41 2 -41 23q0 18 45 18q69 0 188.5 -3t134.5 -3q38 0 165.5 3t172.5 3q43 0 43 -20q0 -8 -9.5 -14.5t-27.5 -6.5q-52 -4 -71 -8q-38 -8 -52.5 -37.5t-17.5 -81.5q-6 -66 -6 -405v-43q0 -15 12 -15zM1047 2030q14 0 47 -23q14 -10 127.5 -87t144.5 -97
q39 -29 39 -39q0 -11 -14 -23l-103 -73q-20 -13 -37 4q-73 66 -217 155q-24 17 -39 17t-41 -13q-86 -40 -266 -149q-34 -19 -51 -19q-15 0 -12 15q2 14 22 31q7 6 91 71t164 127t95 76q34 27 50 27z" />
    <glyph glyph-name="hcircumflex" unicode="&#x125;" horiz-adv-x="1828" 
d="M645 797h541q12 0 12 10v37q0 299 -4 356q-3 38 -20 59.5t-60 28.5q-9 1 -63 6q-17 0 -26 7.5t-9 13.5q0 20 37 20q48 0 119.5 -1.5t124 -3t53.5 -1.5t64 1.5t140.5 3t112.5 1.5q23 0 30 -5t7 -15q0 -21 -29 -21q-40 -5 -57 -8q-34 -4 -48.5 -25t-19.5 -65
q-6 -57 -6 -375v-311q0 -281 10 -371q5 -48 21.5 -70t56.5 -28q14 -2 42.5 -3.5t33.5 -2.5q35 -3 35 -23q0 -18 -41 -18q-75 0 -214.5 3t-141.5 3q-6 0 -110 -3t-159 -3q-39 0 -39 20q0 7 8.5 14t24.5 7q44 4 53 6q32 6 45.5 29.5t18.5 70.5q10 93 10 348v136q0 12 -12 12
h-541q-12 0 -12 -12v-189q0 -206 10 -299q10 -86 84 -94q16 -4 42.5 -6t27.5 -2q34 -3 34 -23q0 -18 -34 -18q-45 0 -131 1.5t-154 3t-70 1.5t-60.5 -1.5t-126 -3t-91.5 -1.5q-39 0 -39 18q0 21 31 23q44 4 53 6q60 8 67 106q11 104 11 363v305q0 285 -6 371q-3 48 -21 71.5
t-67 30.5q-18 3 -56 6q-31 2 -31 23q0 18 39 18q63 0 182.5 -3t131.5 -3q38 0 147.5 3t149.5 3q24 0 31.5 -5.5t7.5 -16.5q0 -16 -33 -19q-37 -3 -57 -8q-36 -7 -49 -32t-17 -68q-6 -57 -6 -342v-37q0 -10 12 -10zM961 1796q14 0 47 -20q31 -20 130.5 -88t121.5 -82
q38 -25 38 -39q0 -12 -14 -21l-104 -71q-17 -14 -37 6q-50 43 -195 139q-28 16 -39 16q-13 0 -41 -14q-104 -46 -245 -131q-34 -21 -50 -21q-15 0 -13.5 14.5t22.5 31.5q8 6 158.5 120.5t170.5 132.5q34 27 50 27z" />
    <glyph glyph-name="Hbar" unicode="&#x126;" horiz-adv-x="2019" 
d="M1708 948v-360q0 -346 10 -432q5 -54 22.5 -80t61.5 -33q17 -2 52 -5t38 -3q35 0 35 -21q0 -20 -41 -20q-84 0 -232 3t-153 3q-8 0 -121.5 -3t-171.5 -3q-45 0 -45 22q0 19 39 19q51 5 64 8q35 7 48.5 34t18.5 81q13 140 13 409v131q0 13 -13 13h-639q-12 0 -12 -13v-178
q0 -256 10 -366q5 -48 24 -75t62 -34q48 -7 86 -10q39 0 39 -21q0 -20 -41 -20q-51 0 -141 1.5t-161 3t-77 1.5q-3 0 -131.5 -3t-167.5 -3q-45 0 -45 18q0 23 35 23q22 2 64 8q64 8 71 121q10 143 10 424v356v146h-153q-57 0 -60 8q-2 8 4.5 47t10.5 45q3 6 55 6h143
q-2 92 -6 178q-3 57 -24.5 85.5t-73.5 35.5q-14 2 -57 6q-41 2 -41 23q0 18 45 18q69 0 188.5 -3t134.5 -3q38 0 165.5 3t172.5 3q43 0 43 -20q0 -8 -9.5 -14.5t-27.5 -6.5q-52 -4 -71 -8q-38 -8 -52.5 -37.5t-17.5 -81.5q-2 -22 -6 -178h664q0 88 -5 190q-3 48 -21.5 73.5
t-66.5 35.5q-7 1 -71 6q-20 0 -29.5 6.5t-9.5 14.5q0 20 41 20q52 0 128 -1.5t132.5 -3t62.5 -1.5l145 3q144 3 197 3q41 0 41 -20q0 -8 -8 -14.5t-22 -6.5q-11 -1 -34.5 -3.5t-37.5 -4.5q-38 -6 -54.5 -31.5t-21.5 -77.5q-4 -86 -4 -188h158q54 0 57 -6q3 -9 -1 -47t-9 -47
q-6 -6 -33 -6h-172v-142zM1346 891v43v156h-664v-156v-43q0 -12 12 -12h639q13 0 13 12z" />
    <glyph glyph-name="hbar" unicode="&#x127;" horiz-adv-x="1828" 
d="M1544 821v-311q0 -281 10 -371q5 -48 21.5 -70t56.5 -28q14 -2 42.5 -3.5t33.5 -2.5q35 -3 35 -23q0 -18 -41 -18q-75 0 -214.5 3t-141.5 3q-6 0 -110 -3t-159 -3q-39 0 -39 20q0 7 8.5 14t24.5 7q44 4 53 6q32 6 45.5 29.5t18.5 70.5q10 93 10 348v115q0 12 -12 12h-541
q-12 0 -12 -12v-168q0 -206 10 -299q10 -86 84 -94q16 -4 42.5 -6t27.5 -2q34 -3 34 -23q0 -18 -34 -18q-45 0 -131 1.5t-154 3t-70 1.5t-60.5 -1.5t-126 -3t-91.5 -1.5q-39 0 -39 18q0 21 31 23q44 4 53 6q60 8 67 106q11 104 11 363v305v129h-103q-50 0 -53 6q-2 8 3 43.5
t9 38.5q6 6 50 6h94q-2 66 -6 148q-3 48 -21 71.5t-67 30.5q-18 3 -56 6q-31 2 -31 23q0 18 39 18q63 0 182.5 -3t131.5 -3q38 0 147.5 3t149.5 3q24 0 31.5 -5.5t7.5 -16.5q0 -16 -33 -19q-37 -3 -57 -8q-36 -7 -49 -32t-17 -68q-6 -52 -6 -148h565q0 84 -4 162
q-3 38 -20 59.5t-60 28.5q-9 1 -63 6q-17 0 -26 7.5t-9 13.5q0 20 37 20q48 0 119.5 -1.5t124 -3t53.5 -1.5t64 1.5t140.5 3t112.5 1.5q23 0 30 -5t7 -15q0 -21 -29 -21q-40 -5 -57 -8q-34 -4 -48.5 -25t-19.5 -65q-6 -56 -6 -158h117q46 0 49 -6t-0.5 -40.5t-7.5 -41.5
q-6 -6 -29 -6h-129v-123zM1198 784v60v100h-565v-100v-60q0 -10 12 -10h541q12 0 12 10z" />
    <glyph glyph-name="Itilde" unicode="&#x128;" horiz-adv-x="1001" 
d="M319 588v360q0 377 -6 443q-6 91 -71 102q-16 5 -62 8q-39 0 -39 23q0 18 45 18q36 0 107 -1.5t129 -3t63 -1.5q2 0 146 3t188 3q45 0 45 -20q0 -21 -39 -21q-57 -6 -59 -6q-40 -8 -57.5 -32t-20.5 -79q-6 -66 -6 -436v-360q0 -330 10 -438q3 -45 19.5 -70t58.5 -35
q23 -5 90 -10q43 0 43 -21q0 -20 -43 -20q-61 0 -151 1.5t-156 3t-70 1.5q-3 0 -62.5 -1.5t-130.5 -3t-102 -1.5q-49 0 -49 20q0 21 41 21q42 4 64 8q52 7 63 111q12 129 12 434zM657 1700q-59 0 -187 52t-177 52q-62 0 -98.5 -20.5t-75.5 -63.5q-14 -16 -29 -16
q-22 0 -2 39q52 90 119 143t133 53q51 0 84 -8.5t104 -36.5q20 -7 52.5 -19.5t45 -17t32 -10.5t33 -8t28.5 -2q55 0 89 19.5t87 76.5q11 11 20 11q10 0 10 -12t-7 -25q-118 -207 -261 -207z" />
    <glyph glyph-name="itilde" unicode="&#x129;" horiz-adv-x="919" 
d="M287 510v311q0 324 -6 379q-3 39 -16.5 60.5t-45.5 25.5q-14 5 -57 8q-35 3 -35 21q0 20 41 20q32 0 98.5 -1.5t120.5 -3t55 -1.5q2 0 66 1.5t139.5 3t106.5 1.5q23 0 30 -5t7 -15q0 -18 -37 -21q-25 -3 -41 -6q-37 -8 -52.5 -26.5t-21.5 -63.5q-6 -57 -6 -377v-311
q0 -284 10 -379q3 -37 18 -58.5t54 -29.5q3 -1 76 -8q38 0 38 -23q0 -18 -38 -18q-56 0 -140.5 1.5t-146 3t-62.5 1.5l-57 -2q-57 -1 -124.5 -2.5t-92.5 -1.5q-43 0 -43 20q0 8 8.5 14.5t22.5 6.5q5 1 25 2.5t34 3.5q52 11 59 96q13 96 13 373zM610 1503q-53 0 -171.5 50.5
t-164.5 50.5q-40 0 -72.5 -13t-47.5 -26t-41 -41q-17 -17 -27 -17q-19 0 -2 39q49 86 111 137.5t122 51.5q46 0 77.5 -8.5t97.5 -34.5q12 -5 34 -14t31 -12.5t25 -10t25 -9t21 -5.5t22 -4t20 -1q50 0 81 18.5t78 71.5q9 11 21 11q8 0 8 -12t-6 -23q-109 -199 -242 -199z" />
    <glyph glyph-name="Imacron" unicode="&#x12a;" horiz-adv-x="1001" 
d="M319 588v360q0 377 -6 443q-6 91 -71 102q-16 5 -62 8q-39 0 -39 23q0 18 45 18q36 0 107 -1.5t129 -3t63 -1.5q2 0 146 3t188 3q45 0 45 -20q0 -21 -39 -21q-57 -6 -59 -6q-40 -8 -57.5 -32t-20.5 -79q-6 -66 -6 -436v-360q0 -330 10 -438q3 -45 19.5 -70t58.5 -35
q23 -5 90 -10q43 0 43 -21q0 -20 -43 -20q-61 0 -151 1.5t-156 3t-70 1.5q-3 0 -62.5 -1.5t-130.5 -3t-102 -1.5q-49 0 -49 20q0 21 41 21q42 4 64 8q52 7 63 111q12 129 12 434zM807 1735h-651q-11 0 -11 14q9 77 23 106q8 15 18 15h658q14 0 14 -17q-2 -18 -9.5 -54.5
t-12.5 -47.5q-8 -16 -29 -16z" />
    <glyph glyph-name="imacron" unicode="&#x12b;" horiz-adv-x="919" 
d="M287 510v311q0 324 -6 379q-3 39 -16.5 60.5t-45.5 25.5q-14 5 -57 8q-35 3 -35 21q0 20 41 20q32 0 98.5 -1.5t120.5 -3t55 -1.5q2 0 66 1.5t139.5 3t106.5 1.5q23 0 30 -5t7 -15q0 -18 -37 -21q-25 -3 -41 -6q-37 -8 -52.5 -26.5t-21.5 -63.5q-6 -57 -6 -377v-311
q0 -284 10 -379q3 -37 18 -58.5t54 -29.5q3 -1 76 -8q38 0 38 -23q0 -18 -38 -18q-56 0 -140.5 1.5t-146 3t-62.5 1.5l-57 -2q-57 -1 -124.5 -2.5t-92.5 -1.5q-43 0 -43 20q0 8 8.5 14.5t22.5 6.5q5 1 25 2.5t34 3.5q52 11 59 96q13 96 13 373zM739 1542h-610q-10 0 -10 17
q8 72 22 100q7 14 21 14h616q13 0 13 -16q-2 -16 -10 -51.5t-13 -46.5q-8 -17 -29 -17z" />
    <glyph glyph-name="Iogonek" unicode="&#x12e;" horiz-adv-x="1001" 
d="M678 948v-360q0 -330 10 -438q3 -45 19.5 -70t58.5 -35q22 -5 90 -10q43 0 43 -21q0 -20 -43 -20q-106 0 -262 4q-57 -47 -85 -112.5t-28 -112.5q0 -129 131 -129q58 0 105 24q15 9 25 7t10 -11q0 -14 -15 -29q-20 -20 -47 -39t-85 -40t-120 -21q-98 0 -157.5 48
t-59.5 130q0 64 67.5 142t190.5 145h-47q-3 0 -62.5 -1.5t-130.5 -3t-102 -1.5q-49 0 -49 20q0 21 41 21q42 4 64 8q52 7 63 111q12 129 12 434v360q0 377 -6 443q-6 91 -71 102q-16 5 -62 8q-39 0 -39 23q0 18 45 18q36 0 107 -1.5t129 -3t63 -1.5q2 0 146 3t188 3
q45 0 45 -20q0 -21 -39 -21q-57 -6 -59 -6q-40 -8 -57.5 -32t-20.5 -79q-6 -66 -6 -436z" />
    <glyph glyph-name="iogonek" unicode="&#x12f;" horiz-adv-x="919" 
d="M633 821v-311q0 -284 10 -379q3 -37 18 -58.5t54 -29.5q3 -1 76 -8q38 0 38 -23q0 -18 -38 -18q-82 0 -222 4q-69 -46 -102 -110.5t-33 -114.5q0 -131 133 -131q62 0 113 36q9 5 18 4t9 -8q0 -22 -17 -39q-29 -32 -96.5 -66t-155.5 -34q-96 0 -153.5 46.5t-57.5 127.5
q0 67 71 143t206 146q-35 2 -62 2l-57 -2q-57 -1 -124.5 -2.5t-92.5 -1.5q-43 0 -43 20q0 8 8.5 14.5t22.5 6.5q5 1 25 2.5t34 3.5q52 11 59 96q13 96 13 373v311q0 324 -6 379q-3 39 -16.5 60.5t-45.5 25.5q-14 5 -57 8q-35 3 -35 21q0 20 41 20q32 0 98.5 -1.5t120.5 -3
t55 -1.5q2 0 66 1.5t139.5 3t106.5 1.5q23 0 30 -5t7 -15q0 -18 -37 -21q-25 -3 -41 -6q-37 -8 -52.5 -26.5t-21.5 -63.5q-6 -57 -6 -377z" />
    <glyph glyph-name="Idotaccent" unicode="&#x130;" horiz-adv-x="1001" 
d="M319 588v360q0 377 -6 443q-6 91 -71 102q-16 5 -62 8q-39 0 -39 23q0 18 45 18q36 0 107 -1.5t129 -3t63 -1.5q2 0 146 3t188 3q45 0 45 -20q0 -21 -39 -21q-57 -6 -59 -6q-40 -8 -57.5 -32t-20.5 -79q-6 -66 -6 -436v-360q0 -330 10 -438q3 -45 19.5 -70t58.5 -35
q23 -5 90 -10q43 0 43 -21q0 -20 -43 -20q-61 0 -151 1.5t-156 3t-70 1.5q-3 0 -62.5 -1.5t-130.5 -3t-102 -1.5q-49 0 -49 20q0 21 41 21q42 4 64 8q52 7 63 111q12 129 12 434zM498 1690q-56 0 -89.5 36.5t-33.5 85.5t34.5 89.5t88.5 40.5t90.5 -36t36.5 -89
q0 -50 -36 -88.5t-91 -38.5z" />
    <glyph glyph-name="dotlessi" unicode="&#x131;" horiz-adv-x="919" 
d="M287 510v311q0 324 -6 379q-3 39 -16.5 60.5t-45.5 25.5q-14 5 -57 8q-35 3 -35 21q0 20 41 20q32 0 98.5 -1.5t120.5 -3t55 -1.5q2 0 66 1.5t139.5 3t106.5 1.5q23 0 30 -5t7 -15q0 -18 -37 -21q-25 -3 -41 -6q-37 -8 -52.5 -26.5t-21.5 -63.5q-6 -57 -6 -377v-311
q0 -284 10 -379q3 -37 18 -58.5t54 -29.5q3 -1 76 -8q38 0 38 -23q0 -18 -38 -18q-56 0 -140.5 1.5t-146 3t-62.5 1.5l-57 -2q-57 -1 -124.5 -2.5t-92.5 -1.5q-43 0 -43 20q0 8 8.5 14.5t22.5 6.5q5 1 25 2.5t34 3.5q52 11 59 96q13 96 13 373z" />
    <glyph glyph-name="Jcircumflex" unicode="&#x134;" horiz-adv-x="948" 
d="M690 948v-391q0 -129 -2 -209.5t-14 -183.5t-35 -168q-95 -265 -416 -453q-42 -26 -106 -53q-21 -12 -45 -12q-19 0 -19 16q0 18 47 45q62 40 109 92q79 88 99 230.5t20 562.5v524q0 375 -6 441q-7 93 -84 104q-17 2 -82 8q-39 0 -39 23q0 18 45 18q39 0 118 -1.5t144 -3
t70 -1.5l146 3q146 3 191 3q48 0 48 -18q0 -13 -9 -17t-32 -6l-60 -6q-47 -8 -63 -37t-19 -86q-6 -99 -6 -424zM512 1995q12 0 47 -21q31 -20 140 -95.5t132 -90.5q39 -29 39 -39q0 -11 -14 -23l-102 -73q-19 -12 -37 6q-74 64 -217 153q-27 19 -39 19q-9 0 -41 -14
q-57 -27 -266 -148q-32 -20 -52 -20q-14 0 -11 15q3 13 22 30q13 11 172 134t178 140q34 27 49 27z" />
    <glyph glyph-name="jcircumflex" unicode="&#x135;" horiz-adv-x="878" 
d="M643 821v-344v-40v-46.5t-0.5 -46t-1.5 -52t-2.5 -49.5t-3.5 -53t-5.5 -48t-8 -50t-10.5 -43.5t-13 -42.5q-81 -226 -389 -399q-52 -30 -94 -47q-26 -11 -41 -11q-19 0 -19 17q0 16 37 37q68 40 105 82q65 72 81.5 194.5t16.5 501.5v440q0 295 -6 381q-3 44 -22 61.5
t-62 22.5q-19 2 -38.5 5t-23.5 3q-37 3 -37 21q0 20 41 20q21 0 59.5 -0.5t79 -1.5t78 -2t62 -1.5t25.5 -0.5q3 0 69.5 1.5t144.5 3t107 1.5q39 0 39 -18q0 -11 -7 -15.5t-28 -7.5q-5 -1 -21.5 -2.5t-31.5 -3.5q-41 -7 -56.5 -32t-17.5 -70q-6 -86 -6 -365zM477 1792
q16 0 49 -23q216 -145 250 -170q39 -24 39 -38q0 -9 -12 -21l-105 -70q-17 -11 -36 5q-65 58 -195 139q-22 16 -39 16q-15 0 -43 -12q-119 -58 -244 -133q-34 -19 -51 -19q-16 0 -12 15q3 13 22 30q15 12 163.5 125t166.5 127q32 29 47 29z" />
    <glyph glyph-name="uni0136" unicode="&#x136;" horiz-adv-x="1726" 
d="M674 948v-123q165 152 442 463q107 123 107 168q0 18 -11.5 28t-46.5 17q-35 4 -35 21q0 18 33 18q43 0 99 -2t118 -2q71 0 182 2t113 2q26 0 34.5 -3.5t8.5 -14.5q0 -18 -37 -21q-50 -6 -73 -12q-68 -14 -122.5 -53t-142.5 -123q-63 -60 -194.5 -196t-183.5 -191
q59 -92 254.5 -330t300.5 -348q161 -164 215 -187q47 -20 94 -26q43 -3 43 -23q0 -18 -41 -18h-201q-204 0 -298 27.5t-171 113.5q-86 94 -230.5 281t-256.5 352v-180q0 -324 10 -432q4 -47 22 -76.5t66 -36.5q23 -3 88 -8q35 0 35 -21q0 -20 -39 -20q-60 0 -148.5 1.5
t-154.5 3t-70 1.5q-3 0 -67 -1.5t-139 -3t-105 -1.5q-41 0 -41 20q0 21 37 21q2 0 25.5 2t37.5 4q23 4 37.5 14t22 28.5t10.5 33.5t6 43q12 129 12 428v360q0 375 -6 441q-6 90 -75 104q-2 0 -78 8q-43 0 -43 23q0 18 55 18q39 0 113 -1.5t134 -3t64 -1.5q2 0 149 3t191 3
q43 0 43 -18q0 -20 -37 -23q-5 -1 -24 -2.5t-37 -3.5q-50 -7 -67.5 -36.5t-20.5 -86.5q-6 -99 -6 -424zM1012 -119q38 0 65 -42.5t27 -102.5q0 -107 -78 -204t-205 -163q-65 -29 -65 0q0 12 20 27q127 93 127 188q0 74 -100 133q-27 12 -27 29q1 13 44 45.5t100.5 61
t91.5 28.5z" />
    <glyph glyph-name="uni0137" unicode="&#x137;" horiz-adv-x="1581" 
d="M629 821v-104q194 179 395 401q92 99 92 135q0 17 -9.5 26t-41.5 15q-35 4 -35 21q0 18 33 18q39 0 88.5 -2t108.5 -2q68 0 170 2l102 2q41 0 41 -18t-35 -21q-45 -7 -59 -10q-35 -6 -65 -17.5t-64 -35.5t-53 -40t-64 -56q-122 -113 -326 -326q49 -75 220 -282t274 -316
q115 -119 170 -148q33 -18 92 -28q21 -1 29 -6.5t8 -16.5q0 -18 -37 -18h-184q-185 0 -272.5 24t-159.5 93q-148 144 -418 546v-147q0 -299 6 -373q4 -40 21.5 -65.5t62.5 -30.5q15 -2 44.5 -4t33.5 -2q30 -3 30 -21q0 -20 -34 -20q-56 0 -141 1.5t-147 3t-63 1.5l-59 -2
q-59 -1 -129 -2.5t-96 -1.5q-37 0 -37 18q0 20 37 23q29 4 41 6q43 5 57 30t18 72q13 120 13 367v311q0 326 -6 383q-3 36 -18 55.5t-52 26.5q-25 3 -68 8q-37 4 -37 23q0 18 48 18q32 0 102 -1.5t127.5 -3t58.5 -1.5q3 0 67 1.5t138.5 3t102.5 1.5q24 0 31 -5t7 -15
q0 -18 -34 -21q-7 -1 -23.5 -3t-21.5 -3q-46 -5 -60 -30.5t-16 -75.5q-4 -57 -4 -361zM922 -106q40 0 68 -45.5t28 -108.5q0 -113 -82.5 -215.5t-216.5 -171.5q-10 -5 -21 -8.5t-22 -5.5t-18 1.5t-7 12.5q0 14 23 29q135 96 135 198q0 78 -109 137q-26 14 -26 33
q0 14 45 48.5t106 65t97 30.5z" />
    <glyph glyph-name="kgreenlandic" unicode="&#x138;" horiz-adv-x="1581" 
d="M629 821v-104q194 179 395 401q92 99 92 135q0 17 -9.5 26t-41.5 15q-35 4 -35 21q0 18 33 18q39 0 88.5 -2t108.5 -2q68 0 170 2l102 2q41 0 41 -18t-35 -21q-45 -7 -59 -10q-35 -6 -65 -17.5t-64 -35.5t-53 -40t-64 -56q-122 -113 -326 -326q49 -75 220 -282t274 -316
q115 -119 170 -148q33 -18 92 -28q21 -1 29 -6.5t8 -16.5q0 -18 -37 -18h-184q-185 0 -272.5 24t-159.5 93q-148 144 -418 546v-147q0 -299 6 -373q4 -40 21.5 -65.5t62.5 -30.5q15 -2 44.5 -4t33.5 -2q30 -3 30 -21q0 -20 -34 -20q-56 0 -141 1.5t-147 3t-63 1.5l-59 -2
q-59 -1 -129 -2.5t-96 -1.5q-37 0 -37 18q0 20 37 23q29 4 41 6q43 5 57 30t18 72q13 120 13 367v311q0 326 -6 383q-3 36 -18 55.5t-52 26.5q-25 3 -68 8q-37 4 -37 23q0 18 48 18q32 0 102 -1.5t127.5 -3t58.5 -1.5q3 0 67 1.5t138.5 3t102.5 1.5q24 0 31 -5t7 -15
q0 -18 -34 -21q-7 -1 -23.5 -3t-21.5 -3q-46 -5 -60 -30.5t-16 -75.5q-4 -57 -4 -361z" />
    <glyph glyph-name="Lacute" unicode="&#x139;" horiz-adv-x="1374" 
d="M682 928v-342v-66v-63v-56t0.5 -52.5t2 -44.5t3.5 -40.5t5 -31.5t7.5 -26.5t10.5 -17.5q22 -30 67 -39.5t170 -9.5q97 0 147 6t89 27q73 34 106 172q5 21 10.5 30t16.5 9q10 0 13 -8t3 -31q0 -41 -14.5 -150.5t-28.5 -150.5q-12 -38 -31 -46.5t-83 -8.5q-150 0 -370.5 6
t-320.5 6q-46 0 -153 -3t-166 -3q-45 0 -45 22q0 19 41 19q43 3 69 8q53 9 65 45t17 168q6 123 6 332v360q0 337 -6 436q-3 46 -18 71.5t-51 35.5q-18 6 -80 10q-43 0 -43 21q0 20 61 20q63 0 165.5 -3t137.5 -3q2 0 152 3t194 3q50 0 50 -18q0 -23 -50 -23q-59 -6 -69 -8
q-39 -7 -55 -35.5t-19 -85.5q-6 -99 -6 -444zM831 1993q68 -63 99 -148q11 -33 -12 -33q-38 0 -119 -24q-193 -63 -307 -119q-32 -16 -46 -16q-18 0 -18 12q0 11 21 39q54 65 143.5 154t132.5 122q41 35 66 35q18 0 40 -22z" />
    <glyph glyph-name="lacute" unicode="&#x13a;" horiz-adv-x="1269" 
d="M633 799v-291q0 -27 -0.5 -68.5t-0.5 -65.5t0.5 -56t2 -51t3.5 -39.5t6.5 -34t10.5 -21.5q20 -28 58.5 -35.5t154.5 -7.5q143 0 203 21q83 32 113 161q7 37 26 37q17 0 17 -37q0 -36 -16 -136.5t-29 -137.5q-11 -34 -27 -40.5t-70 -6.5q-148 0 -351 5t-290 5
q-41 0 -134.5 -3t-147.5 -3q-43 0 -43 22q0 7 9 13t26 6q10 1 22 2t21 2q38 6 55 24t23.5 55.5t9.5 125.5q0 31 1 122t1 144v311q0 287 -6 373q-6 74 -64 90q-29 7 -67 10q-37 4 -37 21q0 20 51 20q60 0 151.5 -3t126.5 -3q3 0 68 1.5t141 3t105 1.5q41 0 41 -18
q0 -23 -33 -23q-35 -3 -55 -8q-37 -6 -52 -30t-18 -74q-6 -86 -6 -383zM772 1804q71 -76 96 -145q11 -33 -10 -33q-40 0 -119 -27q-170 -53 -303 -118q-31 -15 -45 -19q-18 4 -18 15q0 13 20 36q55 68 143 157t128 120q42 37 65 37q11 2 43 -23z" />
    <glyph glyph-name="uni013B" unicode="&#x13b;" horiz-adv-x="1374" 
d="M682 928v-342v-66v-63v-56t0.5 -52.5t2 -44.5t3.5 -40.5t5 -31.5t7.5 -26.5t10.5 -17.5q22 -30 67 -39.5t170 -9.5q97 0 147 6t89 27q73 34 106 172q5 21 10.5 30t16.5 9q10 0 13 -8t3 -31q0 -41 -14.5 -150.5t-28.5 -150.5q-12 -38 -31 -46.5t-83 -8.5q-150 0 -370.5 6
t-320.5 6q-46 0 -153 -3t-166 -3q-45 0 -45 22q0 19 41 19q43 3 69 8q53 9 65 45t17 168q6 123 6 332v360q0 337 -6 436q-3 46 -18 71.5t-51 35.5q-18 6 -80 10q-43 0 -43 21q0 20 61 20q63 0 165.5 -3t137.5 -3q2 0 152 3t194 3q50 0 50 -18q0 -23 -50 -23q-59 -6 -69 -8
q-39 -7 -55 -35.5t-19 -85.5q-6 -99 -6 -444zM588 -270q1 13 43.5 45.5t100 61t91.5 28.5q38 0 65 -43t27 -103q0 -107 -78 -203.5t-204 -162.5q-66 -29 -66 0q0 11 23 26q125 91 125 189q0 74 -101 133q-26 11 -26 29z" />
    <glyph glyph-name="uni013C" unicode="&#x13c;" horiz-adv-x="1269" 
d="M633 799v-291q0 -27 -0.5 -68.5t-0.5 -65.5t0.5 -56t2 -51t3.5 -39.5t6.5 -34t10.5 -21.5q20 -28 58.5 -35.5t154.5 -7.5q143 0 203 21q83 32 113 161q7 37 26 37q17 0 17 -37q0 -36 -16 -136.5t-29 -137.5q-11 -34 -27 -40.5t-70 -6.5q-148 0 -351 5t-290 5
q-41 0 -134.5 -3t-147.5 -3q-43 0 -43 22q0 7 9 13t26 6q10 1 22 2t21 2q38 6 55 24t23.5 55.5t9.5 125.5q0 31 1 122t1 144v311q0 287 -6 373q-6 74 -64 90q-29 7 -67 10q-37 4 -37 21q0 20 51 20q60 0 151.5 -3t126.5 -3q3 0 68 1.5t141 3t105 1.5q41 0 41 -18
q0 -23 -33 -23q-35 -3 -55 -8q-37 -6 -52 -30t-18 -74q-6 -86 -6 -383zM483 -266q2 23 98.5 83t149.5 60q40 0 69 -45t29 -108q0 -113 -83 -216t-216 -172q-69 -31 -69 0q0 14 22 29q135 96 135 199q0 78 -108 137q-27 14 -27 33z" />
    <glyph glyph-name="Lcaron" unicode="&#x13d;" horiz-adv-x="1378" 
d="M682 928v-342v-66v-63v-56t0.5 -52.5t2 -44.5t3.5 -40.5t5 -31.5t7.5 -26.5t10.5 -17.5q22 -30 67 -39.5t170 -9.5q97 0 147 6t89 27q73 34 106 172q5 21 10.5 30t16.5 9q10 0 13 -8t3 -31q0 -41 -14.5 -150.5t-28.5 -150.5q-12 -38 -31 -46.5t-83 -8.5q-150 0 -370.5 6
t-320.5 6q-46 0 -153 -3t-166 -3q-45 0 -45 22q0 19 41 19q43 3 69 8q53 9 65 45t17 168q6 123 6 332v360q0 337 -6 436q-3 46 -18 71.5t-51 35.5q-18 6 -80 10q-43 0 -43 21q0 20 61 20q63 0 165.5 -3t137.5 -3q2 0 152 3t194 3q50 0 50 -18q0 -23 -50 -23q-59 -6 -69 -8
q-39 -7 -55 -35.5t-19 -85.5q-6 -99 -6 -444zM1235 1053q-17 -123 -45 -123q-22 0 -29 55q-44 385 -69 481q-4 17 10 27q44 30 96 54t76 24q22 0 22 -21q-1 -61 -23 -237.5t-38 -259.5z" />
    <glyph glyph-name="lcaron" unicode="&#x13e;" horiz-adv-x="1261" 
d="M1133 852q-17 -121 -39 -121q-26 0 -31 60q-12 139 -32 269t-38 187q-4 17 8 27q40 30 93 58t75 28q25 0 25 -21q-1 -58 -22.5 -222.5t-38.5 -264.5zM629 799v-291q0 -27 -0.5 -68.5t-0.5 -65.5t0.5 -56t2 -51t3.5 -39.5t6.5 -34t10.5 -21.5q20 -28 58.5 -35.5
t154.5 -7.5q144 0 203 21q83 32 113 161q7 37 26 37q17 0 17 -37q0 -36 -16 -136.5t-29 -137.5q-11 -34 -27 -40.5t-70 -6.5q-148 0 -351 5t-290 5q-41 0 -134.5 -3t-147.5 -3q-43 0 -43 22q0 7 9 13t26 6q10 1 22 2t21 2q38 6 55 24t23.5 55.5t9.5 125.5q0 31 1 122t1 144
v311q0 273 -7 373q-3 38 -17.5 59.5t-45.5 30.5q-28 7 -68 10q-36 4 -36 21q0 20 51 20q60 0 151.5 -3t126.5 -3q3 0 68 1.5t141 3t105 1.5q41 0 41 -18q0 -23 -33 -23q-35 -3 -55 -8q-37 -6 -52 -30t-18 -74q-6 -86 -6 -383z" />
    <glyph glyph-name="Ldot" unicode="&#x13f;" horiz-adv-x="1374" 
d="M682 928v-342v-66v-63v-56t0.5 -52.5t2 -44.5t3.5 -40.5t5 -31.5t7.5 -26.5t10.5 -17.5q22 -30 67 -39.5t170 -9.5q97 0 147 6t89 27q73 34 106 172q5 21 10.5 30t16.5 9q10 0 13 -8t3 -31q0 -41 -14.5 -150.5t-28.5 -150.5q-12 -38 -31 -46.5t-83 -8.5q-150 0 -370.5 6
t-320.5 6q-46 0 -153 -3t-166 -3q-45 0 -45 22q0 19 41 19q43 3 69 8q53 9 65 45t17 168q6 123 6 332v360q0 337 -6 436q-3 46 -18 71.5t-51 35.5q-18 6 -80 10q-43 0 -43 21q0 20 61 20q63 0 165.5 -3t137.5 -3q2 0 152 3t194 3q50 0 50 -18q0 -23 -50 -23q-59 -6 -69 -8
q-39 -7 -55 -35.5t-19 -85.5q-6 -99 -6 -444zM1038 1034q93 0 275 -49q47 -16 47 -35q0 -17 -12 -37q-67 -111 -218 -237q-41 -29 -51 -29q-12 0 -12 12q0 9 12 46q29 74 29 157q0 34 -7 59t-21 40t-22 20.5t-24 13.5q-22 9 -22 25q0 14 26 14z" />
    <glyph glyph-name="ldot" unicode="&#x140;" horiz-adv-x="1269" 
d="M633 799v-291q0 -27 -0.5 -68.5t-0.5 -65.5t0.5 -56t2 -51t3.5 -39.5t6.5 -34t10.5 -21.5q20 -28 58.5 -35.5t154.5 -7.5q143 0 203 21q83 32 113 161q7 37 26 37q17 0 17 -37q0 -36 -16 -136.5t-29 -137.5q-11 -34 -27 -40.5t-70 -6.5q-148 0 -351 5t-290 5
q-41 0 -134.5 -3t-147.5 -3q-43 0 -43 22q0 7 9 13t26 6q10 1 22 2t21 2q38 6 55 24t23.5 55.5t9.5 125.5q0 31 1 122t1 144v311q0 287 -6 373q-6 74 -64 90q-29 7 -67 10q-37 4 -37 21q0 20 51 20q60 0 151.5 -3t126.5 -3q3 0 68 1.5t141 3t105 1.5q41 0 41 -18
q0 -23 -33 -23q-35 -3 -55 -8q-37 -6 -52 -30t-18 -74q-6 -86 -6 -383zM922 961q100 0 274 -50q45 -15 45 -32q0 -24 -10 -37q-66 -113 -217 -238q-39 -29 -53 -29q-11 0 -11 13q0 6 13 43q28 71 28 160q0 34 -7 58.5t-20.5 39.5t-22 21t-23.5 14q-23 10 -23 22q0 15 27 15z
" />
    <glyph glyph-name="Lslash" unicode="&#x141;" horiz-adv-x="1394" 
d="M702 762v-176v-66v-63v-56t0.5 -52.5t2 -44.5t3.5 -40.5t5 -31.5t7.5 -26.5t10.5 -17.5q22 -30 67 -39.5t171 -9.5q97 0 146.5 6t88.5 27q74 35 107 172q4 15 6 21t7 12t13 6q10 0 13.5 -8.5t3.5 -30.5q0 -41 -14.5 -150.5t-28.5 -150.5q-12 -38 -31 -46.5t-84 -8.5
q-150 0 -370 6t-320 6q-46 0 -153.5 -3t-166.5 -3q-45 0 -45 22q0 19 41 19q44 4 70 8q53 9 65 45t17 168q6 123 6 332l-147 -70q-16 -6 -23 8l-29 82q-3 3 -1.5 9.5t7.5 9.5l193 90v231q0 337 -6 436q-3 46 -18.5 71.5t-51.5 35.5q-18 6 -80 10q-43 0 -43 21q0 20 62 20
q63 0 165.5 -3t137.5 -3q2 0 152 3t194 3q49 0 49 -18q0 -23 -49 -23q-61 -6 -70 -8q-39 -7 -54.5 -35t-18.5 -86q-7 -116 -7 -444v-41l291 137q16 9 25 -6l31 -68q8 -19 -15 -30z" />
    <glyph glyph-name="lslash" unicode="&#x142;" horiz-adv-x="1288" 
d="M651 662v-154q0 -25 -0.5 -68.5t-0.5 -66t0.5 -55.5t2 -51.5t4 -39.5t7 -34t10.5 -21q20 -28 58.5 -35.5t154.5 -7.5q143 0 203 21q80 31 110 161q11 37 29 37q16 0 16 -37q0 -36 -16 -136.5t-29 -137.5q-11 -34 -27 -40.5t-69 -6.5q-148 0 -351 5t-290 5q-42 0 -136 -3
t-147 -3q-43 0 -43 22q0 19 35 19q11 1 43 4q54 9 67.5 43.5t18.5 161.5q4 136 4 260l-127 -58q-12 -6 -20 7l-27 71q-3 3 -1.5 8.5t7.5 8.5l168 75v205q0 287 -6 373q-3 38 -17.5 59.5t-45.5 30.5q-28 7 -68 10q-39 4 -39 21q0 20 53 20q60 0 152 -3t127 -3q2 0 66.5 1.5
t140.5 3t106 1.5q41 0 41 -18q0 -23 -35 -23q-34 -4 -53 -8q-37 -6 -52 -30t-18 -74q-6 -86 -6 -383v-27l262 117q14 6 23 -6l25 -62q6 -18 -15 -26z" />
    <glyph glyph-name="Nacute" unicode="&#x143;" horiz-adv-x="1931" 
d="M264 295q4 180 8 608t11 572q3 98 34 98q12 0 26.5 -8.5t53.5 -40.5q25 -21 54 -46.5t83.5 -75.5t111 -102t175.5 -161.5t238 -218.5q89 -82 180.5 -168.5t147 -138.5t77.5 -72l-12 768q-3 95 -20.5 133.5t-75.5 48.5q-27 6 -90 10q-37 0 -37 21q0 20 41 20t148.5 -3
t148.5 -3q17 0 101 3t132 3q45 0 45 -18q0 -9 -9 -16t-26 -7q-41 -3 -51 -6q-51 -6 -70.5 -40.5t-23.5 -129.5q-7 -184 -11.5 -387t-7.5 -459.5t-6 -386.5q0 -74 -9.5 -100.5t-31.5 -26.5q-24 0 -74.5 37t-154.5 129q-268 237 -442 397q-166 150 -469 443l20 -699
q3 -117 16 -163t54 -60q15 -5 108 -14q41 -3 41 -21q0 -20 -49 -20q-37 0 -120 2.5t-144 3.5q-19 0 -127 -3t-152 -3q-45 0 -45 20q0 21 39 21q5 1 30 2.5t38 3.5q58 9 74.5 57t21.5 197zM1212 1974q67 -63 99 -149q10 -31 -13 -31q-37 0 -116 -27q-202 -65 -310 -118
q-38 -17 -45 -17q-6 0 -11 4.5t-5 10.5q0 7 18 36q57 67 147 157t130 120q46 37 65 37q18 0 41 -23z" />
    <glyph glyph-name="nacute" unicode="&#x144;" horiz-adv-x="1736" 
d="M236 254q5 187 9.5 543t8.5 473q2 48 9 69t26 21q18 0 69 -39q70 -55 252.5 -211.5t345.5 -300.5q115 -101 224.5 -195.5t128.5 -111.5l-11 626q-3 80 -21.5 115t-74.5 43q-28 5 -74 8q-32 3 -32 21q0 20 34 20q32 0 133 -3t144 -3q19 0 96.5 3t118.5 3q39 0 39 -18
q0 -21 -31 -23q-36 -3 -41 -4q-47 -6 -65.5 -35t-22.5 -112q-20 -428 -24 -1053q0 -73 -8.5 -97t-30.5 -24q-23 0 -76 36.5t-164 127.5q-219 182 -360 311q-34 30 -179 158t-235 209l18 -575q3 -102 14 -140.5t50 -48.5q40 -9 92 -12q39 -5 39 -21q0 -20 -45 -20
q-23 0 -95 2.5t-141 3.5q-24 0 -127 -3t-135 -3q-41 0 -41 20q0 18 33 21q10 1 25.5 2t25.5 2q57 7 75.5 49t23.5 166zM1133 1784q69 -74 96 -146q10 -34 -10 -34q-25 3 -119 -25q-181 -59 -303 -119q-29 -14 -47 -18q-17 4 -17 14t19 37q56 67 144 155.5t128 120.5
q43 35 66 35q14 2 43 -20z" />
    <glyph glyph-name="uni0145" unicode="&#x145;" horiz-adv-x="1931" 
d="M264 295q4 180 8 608t11 572q3 98 34 98q12 0 26.5 -8.5t53.5 -40.5q25 -21 54 -46.5t83.5 -75.5t111 -102t175.5 -161.5t238 -218.5q89 -82 180.5 -168.5t147 -138.5t77.5 -72l-12 768q-3 95 -20.5 133.5t-75.5 48.5q-27 6 -90 10q-37 0 -37 21q0 20 41 20t148.5 -3
t148.5 -3q17 0 101 3t132 3q45 0 45 -18q0 -9 -9 -16t-26 -7q-41 -3 -51 -6q-51 -6 -70.5 -40.5t-23.5 -129.5q-7 -184 -11.5 -387t-7.5 -459.5t-6 -386.5q0 -74 -9.5 -100.5t-31.5 -26.5q-24 0 -74.5 37t-154.5 129q-268 237 -442 397q-166 150 -469 443l20 -699
q3 -117 16 -163t54 -60q15 -5 108 -14q41 -3 41 -21q0 -20 -49 -20q-37 0 -120 2.5t-144 3.5q-19 0 -127 -3t-152 -3q-45 0 -45 20q0 21 39 21q5 1 30 2.5t38 3.5q58 9 74.5 57t21.5 197zM801 -219q0 13 42.5 45.5t100 61t90.5 28.5q40 0 67 -42.5t27 -102.5
q0 -107 -78 -205t-204 -162q-23 -12 -43 -14t-23 12q0 13 21 29q127 90 127 188q0 71 -103 131q-24 12 -24 31z" />
    <glyph glyph-name="uni0146" unicode="&#x146;" horiz-adv-x="1736" 
d="M236 254q5 187 9.5 543t8.5 473q2 48 9 69t26 21q18 0 69 -39q70 -55 252.5 -211.5t345.5 -300.5q115 -101 224.5 -195.5t128.5 -111.5l-11 626q-3 80 -21.5 115t-74.5 43q-28 5 -74 8q-32 3 -32 21q0 20 34 20q32 0 133 -3t144 -3q19 0 96.5 3t118.5 3q39 0 39 -18
q0 -21 -31 -23q-36 -3 -41 -4q-47 -6 -65.5 -35t-22.5 -112q-20 -428 -24 -1053q0 -73 -8.5 -97t-30.5 -24q-23 0 -76 36.5t-164 127.5q-219 182 -360 311q-34 30 -179 158t-235 209l18 -575q3 -102 14 -140.5t50 -48.5q40 -9 92 -12q39 -5 39 -21q0 -20 -45 -20
q-23 0 -95 2.5t-141 3.5q-24 0 -127 -3t-135 -3q-41 0 -41 20q0 18 33 21q10 1 25.5 2t25.5 2q57 7 75.5 49t23.5 166zM684 -236q0 14 45 48.5t105.5 65t95.5 30.5q41 0 69.5 -45.5t28.5 -108.5q0 -113 -82.5 -215.5t-216.5 -171.5q-67 -30 -67 0q0 14 22 29q133 94 133 198
q0 77 -106 140q-27 11 -27 30z" />
    <glyph glyph-name="Ncaron" unicode="&#x147;" horiz-adv-x="1931" 
d="M264 295q4 180 8 608t11 572q3 98 34 98q12 0 26.5 -8.5t53.5 -40.5q25 -21 54 -46.5t83.5 -75.5t111 -102t175.5 -161.5t238 -218.5q89 -82 180.5 -168.5t147 -138.5t77.5 -72l-12 768q-3 95 -20.5 133.5t-75.5 48.5q-27 6 -90 10q-37 0 -37 21q0 20 41 20t148.5 -3
t148.5 -3q17 0 101 3t132 3q45 0 45 -18q0 -9 -9 -16t-26 -7q-41 -3 -51 -6q-51 -6 -70.5 -40.5t-23.5 -129.5q-7 -184 -11.5 -387t-7.5 -459.5t-6 -386.5q0 -74 -9.5 -100.5t-31.5 -26.5q-24 0 -74.5 37t-154.5 129q-268 237 -442 397q-166 150 -469 443l20 -699
q3 -117 16 -163t54 -60q15 -5 108 -14q41 -3 41 -21q0 -20 -49 -20q-37 0 -120 2.5t-144 3.5q-19 0 -127 -3t-152 -3q-45 0 -45 20q0 21 39 21q5 1 30 2.5t38 3.5q58 9 74.5 57t21.5 197zM956 1632q-14 0 -47 23q-153 103 -272 186q-39 25 -39 39q0 7 14 21l101 67
q22 15 39 -2q77 -69 217 -156q25 -18 39 -18q13 0 41 14q57 27 266 148q32 20 53 20q13 0 9 -16q-4 -14 -23 -29q-11 -12 -88 -71t-164 -124.5t-96 -72.5q-32 -29 -50 -29z" />
    <glyph glyph-name="ncaron" unicode="&#x148;" horiz-adv-x="1736" 
d="M236 254q5 187 9.5 543t8.5 473q2 48 9 69t26 21q18 0 69 -39q70 -55 252.5 -211.5t345.5 -300.5q115 -101 224.5 -195.5t128.5 -111.5l-11 626q-3 80 -21.5 115t-74.5 43q-28 5 -74 8q-32 3 -32 21q0 20 34 20q32 0 133 -3t144 -3q19 0 96.5 3t118.5 3q39 0 39 -18
q0 -21 -31 -23q-36 -3 -41 -4q-47 -6 -65.5 -35t-22.5 -112q-20 -428 -24 -1053q0 -73 -8.5 -97t-30.5 -24q-23 0 -76 36.5t-164 127.5q-219 182 -360 311q-34 30 -179 158t-235 209l18 -575q3 -102 14 -140.5t50 -48.5q40 -9 92 -12q39 -5 39 -21q0 -20 -45 -20
q-23 0 -95 2.5t-141 3.5q-24 0 -127 -3t-135 -3q-41 0 -41 20q0 18 33 21q10 1 25.5 2t25.5 2q57 7 75.5 49t23.5 166zM897 1448q-16 0 -49 22q-22 15 -124.5 85.5t-131.5 89.5q-39 29 -39 38q0 10 14 21l103 70q14 8 21 7t18 -12q77 -66 200 -143q19 -16 39 -16q6 0 41 12
q96 45 244 131q34 21 53 21q15 0 9 -18q-5 -13 -21 -27q-16 -16 -166.5 -129.5t-161.5 -122.5q-34 -29 -49 -29z" />
    <glyph glyph-name="Omacron" unicode="&#x14c;" horiz-adv-x="1947" 
d="M975 -35q-146 0 -273 33.5t-219.5 92.5t-164.5 136.5t-116 167.5t-66.5 182t-22.5 185q0 125 32.5 241.5t103 220.5t171.5 180.5t247.5 121.5t321.5 45q190 0 350.5 -61t268 -165t167.5 -243t60 -295q0 -179 -59.5 -333t-168.5 -267t-272 -177.5t-360 -64.5zM1036 96
q32 0 62 4.5t70.5 20t74.5 41.5t68.5 73.5t59 111t39.5 158.5t15 212q0 87 -12.5 172t-37.5 167.5t-66 152t-95 122.5t-129 83t-163 30q-50 0 -95 -10.5t-92 -34.5t-84 -68.5t-67 -107.5t-46 -157.5t-16 -211.5q0 -118 19.5 -227.5t60.5 -206.5t100.5 -168.5t145 -113.5
t188.5 -42zM1280 1755h-653q-11 0 -11 17q2 19 10 56.5t15 49.5q3 12 18 12h658q15 0 12 -16q-2 -18 -9.5 -54.5t-12.5 -47.5q-9 -17 -27 -17z" />
    <glyph glyph-name="omacron" unicode="&#x14d;" horiz-adv-x="1765" 
d="M887 -31q-158 0 -290 41.5t-221 110.5t-151.5 159t-90.5 185t-28 192q0 113 30 215.5t94 192t156.5 155t224 103t288.5 37.5q170 0 315 -54.5t241 -146t150 -211t54 -250.5q0 -156 -53.5 -289.5t-151 -231t-243.5 -153t-324 -55.5zM936 92q29 0 54.5 3.5t60 16.5t63 34.5
t58 61.5t49.5 93.5t32.5 134.5t12.5 180q0 86 -12.5 169t-44 167t-78.5 147t-123 102.5t-172 39.5q-336 0 -336 -496q0 -101 15.5 -194t50 -177.5t84.5 -146.5t123.5 -98.5t162.5 -36.5zM1161 1542h-610q-10 0 -10 17q9 79 22 100q7 14 19 14h616q14 0 14 -16
q-2 -14 -10 -50t-12 -48q-8 -17 -29 -17z" />
    <glyph glyph-name="Ohungarumlaut" unicode="&#x150;" horiz-adv-x="1947" 
d="M975 -35q-146 0 -273 33.5t-219.5 92.5t-164.5 136.5t-116 167.5t-66.5 182t-22.5 185q0 125 32.5 241.5t103 220.5t171.5 180.5t247.5 121.5t321.5 45q190 0 350.5 -61t268 -165t167.5 -243t60 -295q0 -179 -59.5 -333t-168.5 -267t-272 -177.5t-360 -64.5zM1036 96
q32 0 62 4.5t70.5 20t74.5 41.5t68.5 73.5t59 111t39.5 158.5t15 212q0 87 -12.5 172t-37.5 167.5t-66 152t-95 122.5t-129 83t-163 30q-50 0 -95 -10.5t-92 -34.5t-84 -68.5t-67 -107.5t-46 -157.5t-16 -211.5q0 -118 19.5 -227.5t60.5 -206.5t100.5 -168.5t145 -113.5
t188.5 -42zM827 1976q39 54 54 54q22 0 39 -11q56 -22 153 -82q8 -6 11.5 -11.5t2 -9.5t-5.5 -5q-60 -24 -82 -37q-178 -102 -272 -184q-22 -25 -43 -25q-9 0 -12.5 7.5t0.5 17.5q19 45 73 143t82 143zM1303 1980q38 50 53 50q22 0 43 -13q28 -12 76 -40.5t75 -51.5
q10 -10 10 -17.5t-8 -9.5q-23 -8 -82 -30q-73 -32 -157.5 -83t-134.5 -95q-38 -25 -48 -25q-15 0 -8 23q7 20 73 128.5t108 163.5z" />
    <glyph glyph-name="ohungarumlaut" unicode="&#x151;" horiz-adv-x="1765" 
d="M887 -31q-158 0 -290 41.5t-221 110.5t-151.5 159t-90.5 185t-28 192q0 113 30 215.5t94 192t156.5 155t224 103t288.5 37.5q170 0 315 -54.5t241 -146t150 -211t54 -250.5q0 -156 -53.5 -289.5t-151 -231t-243.5 -153t-324 -55.5zM936 92q29 0 54.5 3.5t60 16.5t63 34.5
t58 61.5t49.5 93.5t32.5 134.5t12.5 180q0 86 -12.5 169t-44 167t-78.5 147t-123 102.5t-172 39.5q-336 0 -336 -496q0 -101 15.5 -194t50 -177.5t84.5 -146.5t123.5 -98.5t162.5 -36.5zM711 1774q22 32 32.5 43.5t18.5 11.5q24 0 39 -10q86 -39 153 -84q9 -5 12.5 -10.5
t2 -9.5t-5.5 -5q-2 -1 -30 -12t-52 -25q-180 -106 -273 -186q-20 -25 -43 -25q-8 0 -11 8t1 19q21 48 75 147.5t81 137.5zM1186 1780q36 44 46 48q3 1 5 1q19 0 43 -12q99 -48 152 -93q10 -10 10 -17t-8 -9q-15 -5 -80 -31q-72 -31 -157.5 -82.5t-137.5 -95.5
q-37 -27 -47 -27q-6 0 -8.5 7t0.5 18q7 21 73.5 130t108.5 163z" />
    <glyph glyph-name="OE" unicode="&#x152;" horiz-adv-x="2473" 
d="M520 860q0 -192 36.5 -340t101.5 -240t152 -139t191 -47q87 0 156.5 38t112.5 98.5t71.5 143t40 164.5t11.5 169q0 125 -15 231.5t-50 201t-88.5 160.5t-135.5 104t-186 38q-49 0 -93 -11t-90.5 -35t-84 -68.5t-67.5 -106.5t-46.5 -154.5t-16.5 -206.5zM1593 0
q-37 0 -102 -3t-80 -3q-14 0 -14 14q0 39 4 105q-69 -64 -189.5 -106t-267.5 -42q-144 0 -268 34t-213 94t-157.5 138t-110 168.5t-62 182.5t-20.5 184q0 170 58.5 317.5t163.5 255.5t261 170t342 62q303 0 469 -158q0 16 -1 34.5t-2.5 40.5t-2.5 36q0 18 18 18q11 0 72 -3
t68 -3q21 0 291 1t286 1q65 0 111 8q24 8 32 8q13 0 13 -18q0 -4 -2 -13.5t-5 -30.5t-6 -46q-4 -39 -14 -219q0 -12 -5.5 -20.5t-14.5 -8.5q-18 0 -21 29q-5 56 -12 80q-11 37 -37 52t-96 21q-125 11 -307 11q-17 0 -17 -21v-450q0 -25 17 -25q98 -3 294 2q77 3 106 11.5
t46 35.5q15 27 29 27q12 0 12 -25q0 -7 -7 -67.5t-9 -106.5q-5 -118 -5 -170q0 -39 -18 -39q-16 0 -20 33q-3 22 -9 47q-6 48 -35 72t-100 28q-133 9 -289 9q-12 0 -12 -27v-141v-269q1 -39 4 -63t13.5 -45.5t27 -33t46 -20t68.5 -11.5t97 -3q131 0 193 25q41 17 63.5 54
t36.5 108q6 36 23 36q18 0 18 -45q0 -55 -11 -148t-20 -126q-10 -38 -28 -46.5t-78 -8.5q-155 0 -347 6t-268 6z" />
    <glyph glyph-name="oe" unicode="&#x153;" horiz-adv-x="2258" 
d="M500 750q0 -168 32 -296.5t89 -206.5t131.5 -116.5t165.5 -38.5q66 0 120 24t89.5 66t61.5 93.5t40 112.5t20 116.5t6 111.5q0 106 -13 197t-43.5 171.5t-76.5 137t-115.5 89t-158.5 32.5q-40 0 -77 -8t-78 -27t-74.5 -56t-61 -89t-42.5 -132.5t-15 -180.5zM1452 0
q-35 0 -100.5 -3t-79.5 -3q-12 0 -12 12q0 42 4 78q-53 -46 -163 -80.5t-231 -34.5q-157 0 -286.5 41t-216.5 109t-147 158.5t-87 187t-27 197.5q0 205 98 364.5t270.5 246.5t389.5 87q138 0 242 -35.5t164 -83.5q0 20 -4 78q0 16 16 16q44 0 101 -3t94 -3q17 0 236 1t233 1
q65 0 104 8q21 7 29 7q16 0 12 -19q-1 -7 -6 -34.5t-6 -51.5q-1 -18 -5.5 -74t-7.5 -118q0 -29 -20 -29q-7 0 -13.5 6.5t-7.5 17.5q-4 44 -10 66q-8 33 -33 50.5t-86 23.5q-136 8 -274 8q-16 0 -16 -18v-375q0 -10 3 -13.5t13 -3.5q182 0 252 2q77 3 104.5 11t42.5 34
q11 23 25 23t14 -23q0 -9 -6 -68.5t-8 -94.5q-2 -39 -2 -154q0 -31 -21 -31q-14 0 -20 29q-1 5 -2 17t-2 18q-7 45 -33 67.5t-92 26.5q-88 6 -256 6q-12 0 -12 -14v-129v-215q1 -67 16.5 -97t63.5 -43.5t153 -13.5q113 0 170 21q37 15 56.5 48t31.5 97q6 31 25 31
q18 0 18 -37q0 -52 -10.5 -137t-18.5 -119q-10 -33 -25.5 -40t-68.5 -7q-147 0 -313 5t-252 5z" />
    <glyph glyph-name="Racute" unicode="&#x154;" horiz-adv-x="1658" 
d="M319 588v360q0 226 -6 424q-3 61 -21 87t-56 34q-14 3 -30 4.5t-31 2t-21 1.5q-37 3 -37 23q0 18 45 18q51 0 178.5 -3t134.5 -3q13 0 144.5 3t185.5 3q296 0 418 -69q81 -44 133.5 -124t52.5 -190q0 -241 -274 -411q11 -16 53.5 -77.5t60 -86t55.5 -79t61.5 -85.5
t55.5 -74t59.5 -77t53.5 -64q80 -89 125.5 -123.5t89.5 -40.5q14 -2 31.5 -4t19.5 -2q35 0 35 -21q0 -20 -41 -20h-184q-154 0 -235.5 15.5t-137.5 51.5q-47 28 -96.5 90t-114.5 166q-35 58 -76.5 128t-63 106t-38.5 61q-9 13 -25 13h-135q-16 0 -16 -17v-104
q0 -258 10 -344q3 -46 20.5 -74.5t59.5 -38.5q17 -5 92 -12q23 -1 30 -7t7 -16q0 -18 -43 -18q-60 0 -150 1.5t-156.5 3t-68.5 1.5q-7 0 -129.5 -3t-163.5 -3t-41 20q0 21 37 21q56 6 70 8q30 7 44 35t19 82q10 108 10 428zM672 1380v-569q0 -22 18 -31q51 -26 158 -26
q87 0 129 32q35 27 57.5 94t22.5 164q0 83 -20.5 149.5t-51.5 106t-71 65.5t-76.5 36t-71.5 10q-63 0 -82 -8q-12 -6 -12 -23zM1071 2003q65 -61 98 -150q10 -32 -12 -32q-44 0 -117 -25q-193 -62 -309 -119q-29 -16 -45 -16t-16 14q0 8 18 37q57 67 147 157t130 120
q45 36 65 36q19 0 41 -22z" />
    <glyph glyph-name="racute" unicode="&#x155;" horiz-adv-x="1527" 
d="M287 510v311q0 275 -6 361q-5 97 -76 104q-20 4 -41.5 6t-22.5 2q-30 0 -30 21q0 20 36 20q43 0 161.5 -3t123.5 -3q8 0 135 3t181 3q279 0 385 -59q79 -40 126.5 -109t47.5 -168q0 -192 -244 -348q214 -327 340 -467q68 -79 108.5 -108t85.5 -35q11 -2 29 -4t21 -2
q13 -1 20.5 -8t7.5 -15q0 -18 -37 -18h-159q-154 0 -235 14.5t-134 48.5q-74 49 -176 213q-35 58 -67.5 114.5t-51 87.5t-33.5 54q-4 11 -20 11l-123 2q-14 0 -14 -15v-108q0 -167 8 -273q4 -40 17.5 -63t51.5 -33q20 -6 84 -12q15 -1 23 -5t9 -7.5t1 -10.5q0 -18 -35 -18
q-55 0 -140.5 1.5t-148 3t-63.5 1.5q-5 0 -121.5 -3t-150.5 -3q-37 0 -37 22q0 8 9 13.5t24 5.5q4 1 27.5 2.5t35.5 3.5q27 6 40.5 30t16.5 72q11 102 11 367zM625 1184v-473q0 -15 16 -27q49 -25 152 -25q70 0 112 29q27 21 45.5 75.5t18.5 135.5q0 72 -19 128.5t-47.5 90
t-65.5 55t-69 29.5t-63 8q-58 0 -68 -6q-12 -6 -12 -20zM1010 1800q65 -60 96 -145q11 -33 -10 -33q-29 4 -117 -27q-192 -60 -303 -118q-34 -17 -47 -17q-7 0 -13 3.5t-6 9.5q0 15 21 36q54 66 142 155.5t130 123.5q41 35 66 35q15 3 41 -23z" />
    <glyph glyph-name="uni0156" unicode="&#x156;" horiz-adv-x="1658" 
d="M319 588v360q0 226 -6 424q-3 61 -21 87t-56 34q-14 3 -30 4.5t-31 2t-21 1.5q-37 3 -37 23q0 18 45 18q51 0 178.5 -3t134.5 -3q13 0 144.5 3t185.5 3q296 0 418 -69q81 -44 133.5 -124t52.5 -190q0 -241 -274 -411q11 -16 53.5 -77.5t60 -86t55.5 -79t61.5 -85.5
t55.5 -74t59.5 -77t53.5 -64q80 -89 125.5 -123.5t89.5 -40.5q14 -2 31.5 -4t19.5 -2q35 0 35 -21q0 -20 -41 -20h-184q-154 0 -235.5 15.5t-137.5 51.5q-47 28 -96.5 90t-114.5 166q-35 58 -76.5 128t-63 106t-38.5 61q-9 13 -25 13h-135q-16 0 -16 -17v-104
q0 -258 10 -344q3 -46 20.5 -74.5t59.5 -38.5q17 -5 92 -12q23 -1 30 -7t7 -16q0 -18 -43 -18q-60 0 -150 1.5t-156.5 3t-68.5 1.5q-7 0 -129.5 -3t-163.5 -3t-41 20q0 21 37 21q56 6 70 8q30 7 44 35t19 82q10 108 10 428zM672 1380v-569q0 -22 18 -31q51 -26 158 -26
q87 0 129 32q35 27 57.5 94t22.5 164q0 83 -20.5 149.5t-51.5 106t-71 65.5t-76.5 36t-71.5 10q-63 0 -82 -8q-12 -6 -12 -23zM762 -256q0 21 91 78t142 57q38 0 65 -42.5t27 -102.5q0 -107 -78 -204t-204 -163q-13 -7 -28 -11.5t-26.5 -2t-11.5 13.5q0 10 23 27
q125 89 125 188q0 75 -101 131q-24 10 -24 31z" />
    <glyph glyph-name="uni0157" unicode="&#x157;" horiz-adv-x="1527" 
d="M287 510v311q0 275 -6 361q-5 97 -76 104q-20 4 -41.5 6t-22.5 2q-30 0 -30 21q0 20 36 20q43 0 161.5 -3t123.5 -3q8 0 135 3t181 3q279 0 385 -59q79 -40 126.5 -109t47.5 -168q0 -192 -244 -348q214 -327 340 -467q68 -79 108.5 -108t85.5 -35q11 -2 29 -4t21 -2
q13 -1 20.5 -8t7.5 -15q0 -18 -37 -18h-159q-154 0 -235 14.5t-134 48.5q-74 49 -176 213q-35 58 -67.5 114.5t-51 87.5t-33.5 54q-4 11 -20 11l-123 2q-14 0 -14 -15v-108q0 -167 8 -273q4 -40 17.5 -63t51.5 -33q20 -6 84 -12q15 -1 23 -5t9 -7.5t1 -10.5q0 -18 -35 -18
q-55 0 -140.5 1.5t-148 3t-63.5 1.5q-5 0 -121.5 -3t-150.5 -3q-37 0 -37 22q0 8 9 13.5t24 5.5q4 1 27.5 2.5t35.5 3.5q27 6 40.5 30t16.5 72q11 102 11 367zM625 1184v-473q0 -15 16 -27q49 -25 152 -25q70 0 112 29q27 21 45.5 75.5t18.5 135.5q0 72 -19 128.5t-47.5 90
t-65.5 55t-69 29.5t-63 8q-58 0 -68 -6q-12 -6 -12 -20zM647 -244q2 23 98.5 83.5t149.5 60.5q40 0 69 -46t29 -108q0 -113 -83 -215.5t-216 -171.5q-11 -6 -22.5 -9.5t-22 -5t-17.5 2t-7 12.5q0 14 22 29q135 96 135 196q0 81 -108 140q-27 14 -27 32z" />
    <glyph glyph-name="Rcaron" unicode="&#x158;" horiz-adv-x="1658" 
d="M319 588v360q0 226 -6 424q-3 61 -21 87t-56 34q-14 3 -30 4.5t-31 2t-21 1.5q-37 3 -37 23q0 18 45 18q51 0 178.5 -3t134.5 -3q13 0 144.5 3t185.5 3q296 0 418 -69q81 -44 133.5 -124t52.5 -190q0 -241 -274 -411q11 -16 53.5 -77.5t60 -86t55.5 -79t61.5 -85.5
t55.5 -74t59.5 -77t53.5 -64q80 -89 125.5 -123.5t89.5 -40.5q14 -2 31.5 -4t19.5 -2q35 0 35 -21q0 -20 -41 -20h-184q-154 0 -235.5 15.5t-137.5 51.5q-47 28 -96.5 90t-114.5 166q-35 58 -76.5 128t-63 106t-38.5 61q-9 13 -25 13h-135q-16 0 -16 -17v-104
q0 -258 10 -344q3 -46 20.5 -74.5t59.5 -38.5q17 -5 92 -12q23 -1 30 -7t7 -16q0 -18 -43 -18q-60 0 -150 1.5t-156.5 3t-68.5 1.5q-7 0 -129.5 -3t-163.5 -3t-41 20q0 21 37 21q56 6 70 8q30 7 44 35t19 82q10 108 10 428zM672 1380v-569q0 -22 18 -31q51 -26 158 -26
q87 0 129 32q35 27 57.5 94t22.5 164q0 83 -20.5 149.5t-51.5 106t-71 65.5t-76.5 36t-71.5 10q-63 0 -82 -8q-12 -6 -12 -23zM788 1657q-14 0 -47 20q-33 22 -144 99t-128 88q-39 27 -39 39q0 7 12 22l103 68q20 15 39 -4q69 -60 215 -156q28 -16 39 -16t43 14
q82 37 264 147q38 21 53 21q14 0 10 -17q-4 -15 -22 -28q-15 -16 -175 -137.5t-173 -133.5q-35 -26 -50 -26z" />
    <glyph glyph-name="rcaron" unicode="&#x159;" horiz-adv-x="1527" 
d="M287 510v311q0 275 -6 361q-5 97 -76 104q-20 4 -41.5 6t-22.5 2q-30 0 -30 21q0 20 36 20q43 0 161.5 -3t123.5 -3q8 0 135 3t181 3q279 0 385 -59q79 -40 126.5 -109t47.5 -168q0 -192 -244 -348q214 -327 340 -467q68 -79 108.5 -108t85.5 -35q11 -2 29 -4t21 -2
q13 -1 20.5 -8t7.5 -15q0 -18 -37 -18h-159q-154 0 -235 14.5t-134 48.5q-74 49 -176 213q-35 58 -67.5 114.5t-51 87.5t-33.5 54q-4 11 -20 11l-123 2q-14 0 -14 -15v-108q0 -167 8 -273q4 -40 17.5 -63t51.5 -33q20 -6 84 -12q15 -1 23 -5t9 -7.5t1 -10.5q0 -18 -35 -18
q-55 0 -140.5 1.5t-148 3t-63.5 1.5q-5 0 -121.5 -3t-150.5 -3q-37 0 -37 22q0 8 9 13.5t24 5.5q4 1 27.5 2.5t35.5 3.5q27 6 40.5 30t16.5 72q11 102 11 367zM625 1184v-473q0 -15 16 -27q49 -25 152 -25q70 0 112 29q27 21 45.5 75.5t18.5 135.5q0 72 -19 128.5t-47.5 90
t-65.5 55t-69 29.5t-63 8q-58 0 -68 -6q-12 -6 -12 -20zM727 1456q-12 0 -47 21q-20 13 -123 83.5t-133 90.5q-39 29 -39 39q0 8 14 22l103 68q20 15 37 -2q67 -58 200 -146q28 -16 39 -16q13 0 41 14q108 48 246 131q38 21 51 21q14 0 11 -15.5t-23 -29.5
q-14 -16 -165 -129.5t-163 -124.5q-34 -27 -49 -27z" />
    </font>
</defs>
</svg>
